  0
SECTION
  2
HEADER
  9
$LIMMIN
 10
0.000000
 20
0.000000
  9
$LIMMAX
 10
14.500000
 20
26.500000
  9
$EXTMIN
 10
0.000000
 20
0.000000
  9
$EXTMAX
 10
14.500000
 20
26.500000
  9
$ANGBASE
 50
0.000000
  9
$ANGDIR
 70
0
  9
$INSUNITS
 70
5
  9
$DIMALT
 70
5
  9
$DIMLUNIT
 70
2
  9
$DIMASZ
 40
3.000000
  9
$DIMTXT
 40
5.000000
  9
$DIMRND
 40
0.010000
  9
$DIMEXE
 40
2.000000
  9
$DIMEXO
 40
2.000000
  9
$DIMAUNIT
 70
0
  9
$DIMADEC
 70
2
  9
$GRIDUNIT
 10
0.001000
 20
0.001000
  9
$PLIMMIN
 10
0.000000
 20
0.000000
  9
$PLIMMAX
 10
21.000000
 20
29.700000
  9
$PSVPSCALE
 40
1.000000
  0
ENDSEC
  0
SECTION
  2
TABLES
  0
TABLE
  2
LTYPE
 70
     1
  0
LTYPE
  2
CONTINUOUS
 70
    64
  3
Ausgez
 72
    65
 73
  0
 40
0.000000
  0
ENDTAB
  0
TABLE
  2
LAYER
 70
     1
  0
LAYER
  2
default
 70
    64
 62
7
  6
CONTINUOUS
  0
ENDTAB
  0
ENDSEC
  0
SECTION
  2
BLOCKS
  0
ENDSEC
  0
SECTION
  2
ENTITIES
  0
LINE
  8
default
  6
CONTINUOUS
 10
14.500000
 20
23.000000
 11
14.500000
 21
18.000000
 39
2
 62
7
  0
LINE
  8
default
  6
CONTINUOUS
 10
10.000000
 20
22.000000
 11
14.500000
 21
22.000000
 39
0
 62
7
  0
LINE
  8
default
  6
CONTINUOUS
 10
10.000000
 20
23.000000
 11
10.000000
 21
18.250000
 39
2
 62
7
  0
CIRCLE
  8
default
  6
CONTINUOUS
 10
9.000000
 20
18.125000
 40
0.500000
 39
2
 62
7
  0
LINE
  8
default
  6
CONTINUOUS
 10
8.250000
 20
18.250000
 11
8.515877
 21
18.250000
 39
2
 62
7
  0
LINE
  8
default
  6
CONTINUOUS
 10
8.000000
 20
18.000000
 11
8.515877
 21
18.000000
 39
2
 62
7
  0
LINE
  8
default
  6
CONTINUOUS
 10
9.484123
 20
18.000000
 11
14.500000
 21
18.000000
 39
2
 62
7
  0
LINE
  8
default
  6
CONTINUOUS
 10
9.484123
 20
18.250000
 11
10.000000
 21
18.250000
 39
2
 62
7
  0
LINE
  8
default
  6
CONTINUOUS
 10
8.250000
 20
23.500000
 11
8.250000
 21
18.250000
 39
2
 62
7
  0
LINE
  8
default
  6
CONTINUOUS
 10
8.750000
 20
23.250000
 11
11.750000
 21
23.250000
 39
2
 62
7
  0
LINE
  8
default
  6
CONTINUOUS
 10
11.750000
 20
23.250000
 11
12.000000
 21
23.500000
 39
2
 62
7
  0
LINE
  8
default
  6
CONTINUOUS
 10
8.500000
 20
23.500000
 11
8.750000
 21
23.250000
 39
2
 62
7
  0
LINE
  8
default
  6
CONTINUOUS
 10
8.250000
 20
23.500000
 11
12.250000
 21
23.500000
 39
2
 62
7
  0
LINE
  8
default
  6
CONTINUOUS
 10
8.750000
 20
25.553094
 11
8.750000
 21
24.250000
 39
2
 62
7
  0
LINE
  8
default
  6
CONTINUOUS
 10
8.750000
 20
24.250000
 11
11.750000
 21
24.250000
 39
2
 62
7
  0
LINE
  8
default
  6
CONTINUOUS
 10
11.750000
 20
25.553094
 11
11.750000
 21
24.250000
 39
2
 62
7
  0
LINE
  8
default
  6
CONTINUOUS
 10
12.000000
 20
25.553094
 11
12.000000
 21
24.000000
 39
2
 62
7
  0
LINE
  8
default
  6
CONTINUOUS
 10
8.500000
 20
25.553094
 11
8.500000
 21
24.000000
 39
2
 62
7
  0
LINE
  8
default
  6
CONTINUOUS
 10
8.000000
 20
23.750000
 11
8.000000
 21
18.000000
 39
2
 62
7
  0
LINE
  8
default
  6
CONTINUOUS
 10
8.000000
 20
23.750000
 11
8.250000
 21
24.000000
 39
2
 62
7
  0
LINE
  8
default
  6
CONTINUOUS
 10
8.250000
 20
24.000000
 11
12.250000
 21
24.000000
 39
2
 62
7
  0
LINE
  8
default
  6
CONTINUOUS
 10
13.500000
 20
24.000000
 11
14.500000
 21
24.000000
 39
2
 62
7
  0
LINE
  8
default
  6
CONTINUOUS
 10
14.500000
 20
24.000000
 11
14.500000
 21
23.500000
 39
2
 62
7
  0
LINE
  8
default
  6
CONTINUOUS
 10
13.500000
 20
24.000000
 11
13.500000
 21
23.500000
 39
2
 62
7
  0
LINE
  8
default
  6
CONTINUOUS
 10
13.500000
 20
23.500000
 11
14.500000
 21
23.500000
 39
2
 62
7
  0
LINE
  8
default
  6
CONTINUOUS
 10
8.250000
 20
23.750000
 11
13.500000
 21
23.750000
 39
2
 62
7
  0
LINE
  8
default
  6
CONTINUOUS
 10
9.750000
 20
23.000000
 11
9.750000
 21
18.250000
 39
1
 62
7
  0
ARC
  8
default
  6
CONTINUOUS
 10
8.812500
 20
23.750000
 40
0.312500
 50
180.000000
 51
233.130102
 39
2
 62
7
  0
ARC
  8
default
  6
CONTINUOUS
 10
8.437500
 20
23.750000
 40
0.312500
 50
306.869898
 51
0.000000
 39
2
 62
7
  0
ARC
  8
default
  6
CONTINUOUS
 10
9.062500
 20
23.750000
 40
0.312500
 50
126.869898
 51
180.000000
 39
2
 62
7
  0
ARC
  8
default
  6
CONTINUOUS
 10
8.687500
 20
23.750000
 40
0.312500
 50
0.000000
 51
53.130102
 39
2
 62
7
  0
ARC
  8
default
  6
CONTINUOUS
 10
9.562500
 20
23.750000
 40
0.312500
 50
126.869898
 51
180.000000
 39
2
 62
7
  0
ARC
  8
default
  6
CONTINUOUS
 10
9.187500
 20
23.750000
 40
0.312500
 50
0.000000
 51
53.130102
 39
2
 62
7
  0
ARC
  8
default
  6
CONTINUOUS
 10
10.062500
 20
23.750000
 40
0.312500
 50
126.869898
 51
180.000000
 39
2
 62
7
  0
ARC
  8
default
  6
CONTINUOUS
 10
9.687500
 20
23.750000
 40
0.312500
 50
0.000000
 51
53.130102
 39
2
 62
7
  0
ARC
  8
default
  6
CONTINUOUS
 10
10.562500
 20
23.750000
 40
0.312500
 50
126.869898
 51
180.000000
 39
2
 62
7
  0
ARC
  8
default
  6
CONTINUOUS
 10
10.187500
 20
23.750000
 40
0.312500
 50
0.000000
 51
53.130102
 39
2
 62
7
  0
ARC
  8
default
  6
CONTINUOUS
 10
11.062500
 20
23.750000
 40
0.312500
 50
126.869898
 51
180.000000
 39
2
 62
7
  0
ARC
  8
default
  6
CONTINUOUS
 10
10.687500
 20
23.750000
 40
0.312500
 50
0.000000
 51
53.130102
 39
2
 62
7
  0
ARC
  8
default
  6
CONTINUOUS
 10
11.562500
 20
23.750000
 40
0.312500
 50
126.869898
 51
180.000000
 39
2
 62
7
  0
ARC
  8
default
  6
CONTINUOUS
 10
11.187500
 20
23.750000
 40
0.312500
 50
0.000000
 51
53.130102
 39
2
 62
7
  0
ARC
  8
default
  6
CONTINUOUS
 10
12.062500
 20
23.750000
 40
0.312500
 50
126.869898
 51
180.000000
 39
2
 62
7
  0
ARC
  8
default
  6
CONTINUOUS
 10
11.687500
 20
23.750000
 40
0.312500
 50
0.000000
 51
53.130102
 39
2
 62
7
  0
ARC
  8
default
  6
CONTINUOUS
 10
12.562500
 20
23.750000
 40
0.312500
 50
126.869898
 51
180.000000
 39
2
 62
7
  0
ARC
  8
default
  6
CONTINUOUS
 10
12.187500
 20
23.750000
 40
0.312500
 50
0.000000
 51
53.130102
 39
2
 62
7
  0
ARC
  8
default
  6
CONTINUOUS
 10
9.312500
 20
23.750000
 40
0.312500
 50
180.000000
 51
233.130102
 39
2
 62
7
  0
ARC
  8
default
  6
CONTINUOUS
 10
8.937500
 20
23.750000
 40
0.312500
 50
306.869898
 51
0.000000
 39
2
 62
7
  0
ARC
  8
default
  6
CONTINUOUS
 10
9.812500
 20
23.750000
 40
0.312500
 50
180.000000
 51
233.130102
 39
2
 62
7
  0
ARC
  8
default
  6
CONTINUOUS
 10
9.437500
 20
23.750000
 40
0.312500
 50
306.869898
 51
0.000000
 39
2
 62
7
  0
ARC
  8
default
  6
CONTINUOUS
 10
10.312500
 20
23.750000
 40
0.312500
 50
180.000000
 51
233.130102
 39
2
 62
7
  0
ARC
  8
default
  6
CONTINUOUS
 10
9.937500
 20
23.750000
 40
0.312500
 50
306.869898
 51
0.000000
 39
2
 62
7
  0
ARC
  8
default
  6
CONTINUOUS
 10
10.812500
 20
23.750000
 40
0.312500
 50
180.000000
 51
233.130102
 39
2
 62
7
  0
ARC
  8
default
  6
CONTINUOUS
 10
10.437500
 20
23.750000
 40
0.312500
 50
306.869898
 51
0.000000
 39
2
 62
7
  0
ARC
  8
default
  6
CONTINUOUS
 10
11.312500
 20
23.750000
 40
0.312500
 50
180.000000
 51
233.130102
 39
2
 62
7
  0
ARC
  8
default
  6
CONTINUOUS
 10
10.937500
 20
23.750000
 40
0.312500
 50
306.869898
 51
0.000000
 39
2
 62
7
  0
ARC
  8
default
  6
CONTINUOUS
 10
11.812500
 20
23.750000
 40
0.312500
 50
180.000000
 51
233.130102
 39
2
 62
7
  0
ARC
  8
default
  6
CONTINUOUS
 10
11.437500
 20
23.750000
 40
0.312500
 50
306.869898
 51
0.000000
 39
2
 62
7
  0
ARC
  8
default
  6
CONTINUOUS
 10
12.312500
 20
23.750000
 40
0.312500
 50
180.000000
 51
233.130102
 39
2
 62
7
  0
ARC
  8
default
  6
CONTINUOUS
 10
11.937500
 20
23.750000
 40
0.312500
 50
306.869898
 51
0.000000
 39
2
 62
7
  0
ARC
  8
default
  6
CONTINUOUS
 10
13.090621
 20
23.750000
 40
0.204455
 50
90.000000
 51
22.715270
 39
1
 62
7
  0
LINE
  8
default
  6
CONTINUOUS
 10
13.090621
 20
23.954455
 11
12.981609
 21
23.973733
 39
1
 62
7
  0
LINE
  8
default
  6
CONTINUOUS
 10
13.090621
 20
23.954455
 11
13.027031
 21
23.891974
 39
1
 62
7
  0
LINE
  8
default
  6
CONTINUOUS
 10
8.567265
 20
25.800000
 11
8.625000
 21
25.900000
 39
1
 62
7
  0
LINE
  8
default
  6
CONTINUOUS
 10
8.625000
 20
25.900000
 11
8.682735
 21
25.800000
 39
1
 62
7
  0
LINE
  8
default
  6
CONTINUOUS
 10
8.625000
 20
25.900000
 11
8.625000
 21
25.000000
 39
1
 62
7
  0
LINE
  8
default
  6
CONTINUOUS
 10
12.342265
 20
22.700000
 11
12.400000
 21
22.600000
 39
1
 62
7
  0
LINE
  8
default
  6
CONTINUOUS
 10
12.400000
 20
22.600000
 11
12.457735
 21
22.700000
 39
1
 62
7
  0
LINE
  8
default
  6
CONTINUOUS
 10
12.400000
 20
23.500000
 11
12.400000
 21
22.600000
 39
1
 62
7
  0
LINE
  8
default
  6
CONTINUOUS
 10
12.542265
 20
22.700000
 11
12.600000
 21
22.600000
 39
1
 62
7
  0
LINE
  8
default
  6
CONTINUOUS
 10
12.600000
 20
22.600000
 11
12.657735
 21
22.700000
 39
1
 62
7
  0
LINE
  8
default
  6
CONTINUOUS
 10
12.600000
 20
23.500000
 11
12.600000
 21
22.600000
 39
1
 62
7
  0
LINE
  8
default
  6
CONTINUOUS
 10
10.300000
 20
18.157735
 11
10.200000
 21
18.100000
 39
1
 62
7
  0
LINE
  8
default
  6
CONTINUOUS
 10
10.200000
 20
18.100000
 11
10.300000
 21
18.042265
 39
1
 62
7
  0
LINE
  8
default
  6
CONTINUOUS
 10
11.100000
 20
18.100000
 11
10.200000
 21
18.100000
 39
1
 62
7
  0
LINE
  8
default
  6
CONTINUOUS
 10
10.300000
 20
18.357735
 11
10.200000
 21
18.300000
 39
1
 62
7
  0
LINE
  8
default
  6
CONTINUOUS
 10
10.200000
 20
18.300000
 11
10.300000
 21
18.242265
 39
1
 62
7
  0
LINE
  8
default
  6
CONTINUOUS
 10
11.100000
 20
18.300000
 11
10.200000
 21
18.300000
 39
1
 62
7
  0
LINE
  8
default
  6
CONTINUOUS
 10
11.817265
 20
25.100000
 11
11.875000
 21
25.000000
 39
1
 62
7
  0
LINE
  8
default
  6
CONTINUOUS
 10
11.875000
 20
25.000000
 11
11.932735
 21
25.100000
 39
1
 62
7
  0
LINE
  8
default
  6
CONTINUOUS
 10
11.875000
 20
25.900000
 11
11.875000
 21
25.000000
 39
1
 62
7
  0
TEXT
  8
default
  6
CONTINUOUS
 10
11.300000
 20
26.000000
 40
0.500000
 50
0.000000
 72
0
  7
Normal#0.050000#0.300000
  1
Woda
 39
1
 62
7
  0
TEXT
  8
default
  6
CONTINUOUS
 10
8.100000
 20
26.000000
 40
0.500000
 50
0.000000
 72
0
  7
Normal#0.050000#0.300000
  1
Woda
 39
1
 62
7
  0
TEXT
  8
default
  6
CONTINUOUS
 10
11.000000
 20
19.000000
 40
0.500000
 50
0.000000
 72
0
  7
Normal#0.050000#0.300000
  1
Wosk ciekly
 39
1
 62
7
  0
TEXT
  8
default
  6
CONTINUOUS
 10
10.500000
 20
22.000000
 40
0.500000
 50
0.000000
 72
0
  7
Normal#0.050000#0.300000
  1
Wosk zestalony
 39
1
 62
7
  0
ENDSEC
  0
EOF
