999
dxflib 2.0.4.8
  0
SECTION
  2
HEADER
  9
$ACADVER
  1
AC1015
  9
$HANDSEED
  5
FFFF
  9
$DIMASZ
 40
20.0
  9
$GRIDUNIT
 10
0.0
 20
0.0
  9
$DIMADEC
 70
2
  9
$DIMGAP
 40
2.0
  9
$SPLINESEGS
 70
8
  9
$AUPREC
 70
2
  9
$LUNITS
 70
2
  9
$DIMEXO
 40
2.0
  9
$INSUNITS
 70
0
  9
$DIMLUNIT
 70
2
  9
$DIMTXT
 40
24.0
  9
$GRIDMODE
 70
1
  9
$LUPREC
 70
4
  9
$DIMSTYLE
  2
Standard
  9
$PLIMMAX
 10
210.0
 20
297.0
  9
$PLIMMIN
 10
0.0
 20
0.0
  9
$DIMEXE
 40
5.0
  9
$PINSBASE
 10
-551.5
 20
-216.0
 30
0.0
  9
$DIMAUNIT
 70
0
  9
$AUNITS
 70
0
  0
ENDSEC
  0
SECTION
  2
TABLES
  0
TABLE
  2
VPORT
  5
8
100
AcDbSymbolTable
 70
1
  0
VPORT
  5
30
100
AcDbSymbolTableRecord
100
AcDbViewportTableRecord
  2
*Active
 70
0
 10
0.0
 20
0.0
 11
1.0
 21
1.0
 12
286.3055555555554861
 22
148.5
 13
0.0
 23
0.0
 14
10.0
 24
10.0
 15
10.0
 25
10.0
 16
0.0
 26
0.0
 36
1.0
 17
0.0
 27
0.0
 37
0.0
 40
297.0
 41
1.92798353909465
 42
50.0
 43
0.0
 44
0.0
 50
0.0
 51
0.0
 71
0
 72
100
 73
1
 74
3
 75
1
 76
1
 77
0
 78
0
281
0
 65
1
110
0.0
120
0.0
130
0.0
111
1.0
121
0.0
131
0.0
112
0.0
122
1.0
132
0.0
 79
0
146
0.0
  0
ENDTAB
  0
TABLE
  2
LTYPE
  5
5
100
AcDbSymbolTable
 70
21
  0
LTYPE
  5
14
100
AcDbSymbolTableRecord
100
AcDbLinetypeTableRecord
  2
ByBlock
 70
0
  3

 72
65
 73
0
 40
0.0
  0
LTYPE
  5
15
100
AcDbSymbolTableRecord
100
AcDbLinetypeTableRecord
  2
ByLayer
 70
0
  3

 72
65
 73
0
 40
0.0
  0
LTYPE
  5
16
100
AcDbSymbolTableRecord
100
AcDbLinetypeTableRecord
  2
CONTINUOUS
 70
0
  3
Solid line
 72
65
 73
0
 40
0.0
  0
LTYPE
  5
31
100
AcDbSymbolTableRecord
100
AcDbLinetypeTableRecord
  2
DOT
 70
0
  3
Dot . . . . . . . . . . . . . . . . . . . . . .
 72
65
 73
2
 40
6.3499999999999996
 49
0.0
 74
0
 49
-6.3499999999999996
 74
0
  0
LTYPE
  5
32
100
AcDbSymbolTableRecord
100
AcDbLinetypeTableRecord
  2
DOT2
 70
0
  3
Dot (.5x) .....................................
 72
65
 73
2
 40
3.1749999999999998
 49
0.0
 74
0
 49
-3.1749999999999998
 74
0
  0
LTYPE
  5
33
100
AcDbSymbolTableRecord
100
AcDbLinetypeTableRecord
  2
DOTX2
 70
0
  3
Dot (2x) .  .  .  .  .  .  .  .  .  .  .  .  .
 72
65
 73
2
 40
12.6999999999999993
 49
0.0
 74
0
 49
-12.6999999999999993
 74
0
  0
LTYPE
  5
34
100
AcDbSymbolTableRecord
100
AcDbLinetypeTableRecord
  2
DASHED
 70
0
  3
Dashed __ __ __ __ __ __ __ __ __ __ __ __ __ _
 72
65
 73
2
 40
19.0500000000000007
 49
12.6999999999999993
 74
0
 49
-6.3499999999999996
 74
0
  0
LTYPE
  5
35
100
AcDbSymbolTableRecord
100
AcDbLinetypeTableRecord
  2
DASHED2
 70
0
  3
Dashed (.5x) _ _ _ _ _ _ _ _ _ _ _ _ _ _ _ _ _
 72
65
 73
2
 40
9.5250000000000004
 49
6.3499999999999996
 74
0
 49
-3.1749999999999998
 74
0
  0
LTYPE
  5
36
100
AcDbSymbolTableRecord
100
AcDbLinetypeTableRecord
  2
DASHEDX2
 70
0
  3
Dashed (2x) ____  ____  ____  ____  ____  ___
 72
65
 73
2
 40
38.1000000000000014
 49
25.3999999999999986
 74
0
 49
-12.6999999999999993
 74
0
  0
LTYPE
  5
37
100
AcDbSymbolTableRecord
100
AcDbLinetypeTableRecord
  2
DASHDOT
 70
0
  3
Dash dot __ . __ . __ . __ . __ . __ . __ . __
 72
65
 73
4
 40
25.3999999999999986
 49
12.6999999999999993
 74
0
 49
-6.3499999999999996
 74
0
 49
0.0
 74
0
 49
-6.3499999999999996
 74
0
  0
LTYPE
  5
38
100
AcDbSymbolTableRecord
100
AcDbLinetypeTableRecord
  2
DASHDOT2
 70
0
  3
Dash dot (.5x) _._._._._._._._._._._._._._._.
 72
65
 73
4
 40
12.6999999999999993
 49
6.3499999999999996
 74
0
 49
-3.1749999999999998
 74
0
 49
0.0
 74
0
 49
-3.1749999999999998
 74
0
  0
LTYPE
  5
39
100
AcDbSymbolTableRecord
100
AcDbLinetypeTableRecord
  2
DASHDOTX2
 70
0
  3
Dash dot (2x) ____  .  ____  .  ____  .  ___
 72
65
 73
4
 40
50.7999999999999972
 49
25.3999999999999986
 74
0
 49
-12.6999999999999993
 74
0
 49
0.0
 74
0
 49
-12.6999999999999993
 74
0
  0
LTYPE
  5
3A
100
AcDbSymbolTableRecord
100
AcDbLinetypeTableRecord
  2
DIVIDE
 70
0
  3
Divide ____ . . ____ . . ____ . . ____ . . ____
 72
65
 73
6
 40
31.75
 49
12.6999999999999993
 74
0
 49
-6.3499999999999996
 74
0
 49
0.0
 74
0
 49
-6.3499999999999996
 74
0
 49
0.0
 74
0
 49
-6.3499999999999996
 74
0
  0
LTYPE
  5
3B
100
AcDbSymbolTableRecord
100
AcDbLinetypeTableRecord
  2
DIVIDE2
 70
0
  3
Divide (.5x) __..__..__..__..__..__..__..__.._
 72
65
 73
6
 40
15.875
 49
6.3499999999999996
 74
0
 49
-3.1749999999999998
 74
0
 49
0.0
 74
0
 49
-3.1749999999999998
 74
0
 49
0.0
 74
0
 49
-3.1749999999999998
 74
0
  0
LTYPE
  5
3C
100
AcDbSymbolTableRecord
100
AcDbLinetypeTableRecord
  2
DIVIDEX2
 70
0
  3
Divide (2x) ________  .  .  ________  .  .  _
 72
65
 73
6
 40
63.5
 49
25.3999999999999986
 74
0
 49
-12.6999999999999993
 74
0
 49
0.0
 74
0
 49
-12.6999999999999993
 74
0
 49
0.0
 74
0
 49
-12.6999999999999993
 74
0
  0
LTYPE
  5
3D
100
AcDbSymbolTableRecord
100
AcDbLinetypeTableRecord
  2
CENTER
 70
0
  3
Center ____ _ ____ _ ____ _ ____ _ ____ _ ____
 72
65
 73
4
 40
50.7999999999999972
 49
31.75
 74
0
 49
-6.3499999999999996
 74
0
 49
6.3499999999999996
 74
0
 49
-6.3499999999999996
 74
0
  0
LTYPE
  5
3E
100
AcDbSymbolTableRecord
100
AcDbLinetypeTableRecord
  2
CENTER2
 70
0
  3
Center (.5x) ___ _ ___ _ ___ _ ___ _ ___ _ ___
 72
65
 73
4
 40
28.5749999999999993
 49
19.0500000000000007
 74
0
 49
-3.1749999999999998
 74
0
 49
3.1749999999999998
 74
0
 49
-3.1749999999999998
 74
0
  0
LTYPE
  5
3F
100
AcDbSymbolTableRecord
100
AcDbLinetypeTableRecord
  2
CENTERX2
 70
0
  3
Center (2x) ________  __  ________  __  _____
 72
65
 73
4
 40
101.5999999999999943
 49
63.5
 74
0
 49
-12.6999999999999993
 74
0
 49
12.6999999999999993
 74
0
 49
-12.6999999999999993
 74
0
  0
LTYPE
  5
40
100
AcDbSymbolTableRecord
100
AcDbLinetypeTableRecord
  2
BORDER
 70
0
  3
Border __ __ . __ __ . __ __ . __ __ . __ __ .
 72
65
 73
6
 40
44.4500000000000028
 49
12.6999999999999993
 74
0
 49
-6.3499999999999996
 74
0
 49
12.6999999999999993
 74
0
 49
-6.3499999999999996
 74
0
 49
0.0
 74
0
 49
-6.3499999999999996
 74
0
  0
LTYPE
  5
41
100
AcDbSymbolTableRecord
100
AcDbLinetypeTableRecord
  2
BORDER2
 70
0
  3
Border (.5x) __.__.__.__.__.__.__.__.__.__.__.
 72
65
 73
6
 40
22.2250000000000014
 49
6.3499999999999996
 74
0
 49
-3.1749999999999998
 74
0
 49
6.3499999999999996
 74
0
 49
-3.1749999999999998
 74
0
 49
0.0
 74
0
 49
-3.1749999999999998
 74
0
  0
LTYPE
  5
42
100
AcDbSymbolTableRecord
100
AcDbLinetypeTableRecord
  2
BORDERX2
 70
0
  3
Border (2x) ____  ____  .  ____  ____  .  ___
 72
65
 73
6
 40
88.9000000000000057
 49
25.3999999999999986
 74
0
 49
-12.6999999999999993
 74
0
 49
25.3999999999999986
 74
0
 49
-12.6999999999999993
 74
0
 49
0.0
 74
0
 49
-12.6999999999999993
 74
0
  0
ENDTAB
  0
TABLE
  2
LAYER
  5
2
100
AcDbSymbolTable
 70
6
  0
LAYER
  5
10
100
AcDbSymbolTableRecord
100
AcDbLayerTableRecord
  2
0
 70
0
 62
7
  6
CONTINUOUS
370
0
390
F
  0
LAYER
  5
43
100
AcDbSymbolTableRecord
100
AcDbLayerTableRecord
  2
osie
 70
1
 62
3
  6
CONTINUOUS
370
0
390
F
  0
LAYER
  5
44
100
AcDbSymbolTableRecord
100
AcDbLayerTableRecord
  2
strop
 70
1
 62
7
  6
CONTINUOUS
370
25
390
F
  0
LAYER
  5
45
100
AcDbSymbolTableRecord
100
AcDbLayerTableRecord
  2
dzial-pietro
 70
1
 62
252
  6
CONTINUOUS
370
0
390
F
  0
LAYER
  5
46
100
AcDbSymbolTableRecord
100
AcDbLayerTableRecord
  2
Wiezba
 70
0
 62
11
  6
CONTINUOUS
370
0
390
F
  0
LAYER
  5
47
100
AcDbSymbolTableRecord
100
AcDbLayerTableRecord
  2
Wymiary
 70
0
 62
4
  6
CONTINUOUS
370
0
390
F
  0
ENDTAB
  0
TABLE
  2
STYLE
  5
3
100
AcDbSymbolTable
 70
1
  0
STYLE
  5
11
100
AcDbSymbolTableRecord
100
AcDbTextStyleTableRecord
  2
Standard
 70
0
 40
0.0
 41
0.75
 50
0.0
 71
0
 42
2.5
  3
txt
  4

  0
ENDTAB
  0
TABLE
  2
VIEW
  5
6
100
AcDbSymbolTable
 70
0
  0
ENDTAB
  0
TABLE
  2
UCS
  5
7
100
AcDbSymbolTable
 70
0
  0
ENDTAB
  0
TABLE
  2
APPID
  5
9
100
AcDbSymbolTable
 70
1
  0
APPID
  5
12
100
AcDbSymbolTableRecord
100
AcDbRegAppTableRecord
  2
ACAD
 70
0
  0
ENDTAB
  0
TABLE
  2
DIMSTYLE
  5
A
100
AcDbSymbolTable
 70
1
100
AcDbDimStyleTable
 71
0
  0
DIMSTYLE
105
27
100
AcDbSymbolTableRecord
100
AcDbDimStyleTableRecord
  2
Standard
 41
20.0
 42
2.0
 43
3.75
 44
5.0
 70
0
 73
0
 74
0
 77
1
 78
8
140
24.0
141
2.5
143
0.03937007874016
147
2.0
171
3
172
1
271
2
272
2
274
3
278
44
283
0
284
8
340
11
  0
ENDTAB
  0
TABLE
  2
BLOCK_RECORD
  5
1
100
AcDbSymbolTable
 70
1
  0
BLOCK_RECORD
  5
1F
100
AcDbSymbolTableRecord
100
AcDbBlockTableRecord
  2
*Model_Space
340
22
  0
BLOCK_RECORD
  5
1B
100
AcDbSymbolTableRecord
100
AcDbBlockTableRecord
  2
*Paper_Space
340
1E
  0
BLOCK_RECORD
  5
23
100
AcDbSymbolTableRecord
100
AcDbBlockTableRecord
  2
*Paper_Space0
340
26
  0
ENDTAB
  0
ENDSEC
  0
SECTION
  2
BLOCKS
  0
BLOCK
  5
20
100
AcDbEntity
  8
0
100
AcDbBlockBegin
  2
*Model_Space
 70
0
 10
0.0
 20
0.0
 30
0.0
  3
*Model_Space
  1

  0
ENDBLK
  5
21
100
AcDbEntity
  8
0
100
AcDbBlockEnd
  0
BLOCK
  5
1C
100
AcDbEntity
 67
1
  8
0
100
AcDbBlockBegin
  2
*Paper_Space
 70
0
 10
0.0
 20
0.0
 30
0.0
  3
*Paper_Space
  1

  0
ENDBLK
  5
1D
100
AcDbEntity
 67
1
  8
0
100
AcDbBlockEnd
  0
BLOCK
  5
24
100
AcDbEntity
  8
0
100
AcDbBlockBegin
  2
*Paper_Space0
 70
0
 10
0.0
 20
0.0
 30
0.0
  3
*Paper_Space0
  1

  0
ENDBLK
  5
25
100
AcDbEntity
  8
0
100
AcDbBlockEnd
  0
ENDSEC
  0
SECTION
  2
ENTITIES
  0
LINE
  5
48
100
AcDbEntity
100
AcDbLine
  8
0
 62
256
370
-1
  6
ByLayer
 10
-12.5000000000000036
 20
-12.5
 30
0.0
 11
-12.4999999999999591
 21
741.5
 31
0.0
  0
LINE
  5
49
100
AcDbEntity
100
AcDbLine
  8
0
 62
256
370
-1
  6
ByLayer
 10
-12.5000000000000036
 20
-12.5
 30
0.0
 11
1325.5
 21
-12.5
 31
0.0
  0
LINE
  5
4A
100
AcDbEntity
100
AcDbLine
  8
0
 62
256
370
-1
  6
ByLayer
 10
1325.5
 20
-12.5
 30
0.0
 11
1325.5
 21
741.5
 31
0.0
  0
LINE
  5
4B
100
AcDbEntity
100
AcDbLine
  8
0
 62
256
370
-1
  6
ByLayer
 10
-33.0
 20
-33.0
 30
0.0
 11
-32.9999999999999574
 21
762.0
 31
0.0
  0
LINE
  5
4C
100
AcDbEntity
100
AcDbLine
  8
0
 62
256
370
-1
  6
ByLayer
 10
1346.0
 20
-33.0
 30
0.0
 11
1346.0
 21
762.0
 31
0.0
  0
LINE
  5
4D
100
AcDbEntity
100
AcDbLine
  8
0
 62
256
370
-1
  6
ByLayer
 10
936.5
 20
762.0
 30
0.0
 11
1346.0
 21
762.0
 31
0.0
  0
CIRCLE
  5
4E
100
AcDbEntity
100
AcDbCircle
  8
strop
 62
256
370
-1
  6
ByLayer
 10
494.5
 20
307.5
 30
0.0
 40
8.0
  0
LINE
  5
4F
100
AcDbEntity
100
AcDbLine
  8
strop
 62
256
370
-1
  6
ByLayer
 10
494.5
 20
299.4999999999994316
 30
0.0
 11
494.5
 21
315.5000000000000568
 31
0.0
  0
LINE
  5
50
100
AcDbEntity
100
AcDbLine
  8
strop
 62
256
370
-1
  6
ByLayer
 10
486.5
 20
307.5
 30
0.0
 11
502.5
 21
307.5
 31
0.0
  0
LINE
  5
51
100
AcDbEntity
100
AcDbLine
  8
dzial-pietro
 62
256
370
-1
  6
ByLayer
 10
650.5
 20
427.5
 30
0.0
 11
650.5
 21
716.5
 31
0.0
  0
LINE
  5
52
100
AcDbEntity
100
AcDbLine
  8
dzial-pietro
 62
256
370
-1
  6
ByLayer
 10
460.0000000000000568
 20
299.5
 30
0.0
 11
460.0000000000000568
 21
355.5000000000001137
 31
0.0
  0
LINE
  5
53
100
AcDbEntity
100
AcDbLine
  8
dzial-pietro
 62
256
370
-1
  6
ByLayer
 10
365.5
 20
355.5000000000001137
 30
0.0
 11
460.0000000000000568
 21
355.5000000000001137
 31
0.0
  0
LINE
  5
54
100
AcDbEntity
100
AcDbLine
  8
dzial-pietro
 62
256
370
-1
  6
ByLayer
 10
469.0000000000000568
 20
299.5
 30
0.0
 11
469.0000000000000568
 21
364.5000000000001137
 31
0.0
  0
LINE
  5
55
100
AcDbEntity
100
AcDbLine
  8
dzial-pietro
 62
256
370
-1
  6
ByLayer
 10
365.5
 20
364.5000000000001137
 30
0.0
 11
469.0000000000000568
 21
364.5000000000001137
 31
0.0
  0
LINE
  5
56
100
AcDbEntity
100
AcDbLine
  8
dzial-pietro
 62
256
370
-1
  6
ByLayer
 10
469.0000000000000568
 20
494.5
 30
0.0
 11
469.0000000000000568
 21
716.5
 31
0.0
  0
LINE
  5
57
100
AcDbEntity
100
AcDbLine
  8
dzial-pietro
 62
256
370
-1
  6
ByLayer
 10
906.5
 20
514.5
 30
0.0
 11
999.5
 21
514.5
 31
0.0
  0
LINE
  5
58
100
AcDbEntity
100
AcDbLine
  8
dzial-pietro
 62
256
370
-1
  6
ByLayer
 10
897.5
 20
523.5
 30
0.0
 11
999.5
 21
523.5
 31
0.0
  0
LINE
  5
59
100
AcDbEntity
100
AcDbLine
  8
dzial-pietro
 62
256
370
-1
  6
ByLayer
 10
659.5
 20
436.5
 30
0.0
 11
897.5
 21
436.5
 31
0.0
  0
LINE
  5
5A
100
AcDbEntity
100
AcDbLine
  8
dzial-pietro
 62
256
370
-1
  6
ByLayer
 10
897.5
 20
436.5
 30
0.0
 11
897.5
 21
523.5
 31
0.0
  0
LINE
  5
5B
100
AcDbEntity
100
AcDbLine
  8
dzial-pietro
 62
256
370
-1
  6
ByLayer
 10
906.5
 20
427.5
 30
0.0
 11
906.5
 21
514.5
 31
0.0
  0
LINE
  5
5C
100
AcDbEntity
100
AcDbLine
  8
dzial-pietro
 62
256
370
-1
  6
ByLayer
 10
650.5
 20
427.5
 30
0.0
 11
906.5
 21
427.5
 31
0.0
  0
LINE
  5
5D
100
AcDbEntity
100
AcDbLine
  8
dzial-pietro
 62
256
370
-1
  6
ByLayer
 10
312.5
 20
92.5
 30
0.0
 11
312.5
 21
323.5
 31
0.0
  0
LINE
  5
5E
100
AcDbEntity
100
AcDbLine
  8
dzial-pietro
 62
256
370
-1
  6
ByLayer
 10
12.5000000000000018
 20
92.5
 30
0.0
 11
312.5
 21
92.5
 31
0.0
  0
LINE
  5
5F
100
AcDbEntity
100
AcDbLine
  8
dzial-pietro
 62
256
370
-1
  6
ByLayer
 10
321.5
 20
92.5
 30
0.0
 11
321.5
 21
323.5
 31
0.0
  0
LINE
  5
60
100
AcDbEntity
100
AcDbLine
  8
dzial-pietro
 62
256
370
-1
  6
ByLayer
 10
415.5
 20
-12.4999999999999698
 30
0.0
 11
415.5
 21
92.5
 31
0.0
  0
LINE
  5
61
100
AcDbEntity
100
AcDbLine
  8
dzial-pietro
 62
256
370
-1
  6
ByLayer
 10
321.5
 20
92.5
 30
0.0
 11
415.5
 21
92.5
 31
0.0
  0
LINE
  5
62
100
AcDbEntity
100
AcDbLine
  8
dzial-pietro
 62
256
370
-1
  6
ByLayer
 10
12.5
 20
83.5
 30
0.0
 11
390.5
 21
83.5
 31
0.0
  0
LINE
  5
63
100
AcDbEntity
100
AcDbLine
  8
dzial-pietro
 62
256
370
-1
  6
ByLayer
 10
390.5
 20
-12.4999999999999662
 30
0.0
 11
390.5
 21
83.5
 31
0.0
  0
LINE
  5
64
100
AcDbEntity
100
AcDbLine
  8
dzial-pietro
 62
256
370
-1
  6
ByLayer
 10
659.5
 20
436.5
 30
0.0
 11
659.5
 21
636.5
 31
0.0
  0
LINE
  5
65
100
AcDbEntity
100
AcDbLine
  8
dzial-pietro
 62
256
370
-1
  6
ByLayer
 10
659.5
 20
645.5
 30
0.0
 11
659.5
 21
716.5
 31
0.0
  0
LINE
  5
66
100
AcDbEntity
100
AcDbLine
  8
dzial-pietro
 62
256
370
-1
  6
ByLayer
 10
659.5
 20
645.5
 30
0.0
 11
1300.5
 21
645.5
 31
0.0
  0
LINE
  5
67
100
AcDbEntity
100
AcDbLine
  8
dzial-pietro
 62
256
370
-1
  6
ByLayer
 10
12.5000000000000266
 20
636.5
 30
0.0
 11
460.0000000000000568
 21
636.5
 31
0.0
  0
LINE
  5
68
100
AcDbEntity
100
AcDbLine
  8
dzial-pietro
 62
256
370
-1
  6
ByLayer
 10
460.0000000000000568
 20
494.5
 30
0.0
 11
460.0000000000000568
 21
636.5
 31
0.0
  0
LINE
  5
69
100
AcDbEntity
100
AcDbLine
  8
dzial-pietro
 62
256
370
-1
  6
ByLayer
 10
460.0000000000000568
 20
645.5
 30
0.0
 11
460.0000000000000568
 21
716.5
 31
0.0
  0
LINE
  5
6A
100
AcDbEntity
100
AcDbLine
  8
dzial-pietro
 62
256
370
-1
  6
ByLayer
 10
12.5000000000000266
 20
645.5
 30
0.0
 11
460.0000000000000568
 21
645.5
 31
0.0
  0
LINE
  5
6B
100
AcDbEntity
100
AcDbLine
  8
dzial-pietro
 62
256
370
-1
  6
ByLayer
 10
1010.5
 20
636.5
 30
0.0
 11
1300.5
 21
636.5
 31
0.0
  0
LINE
  5
6C
100
AcDbEntity
100
AcDbLine
  8
dzial-pietro
 62
256
370
-1
  6
ByLayer
 10
1010.5
 20
548.5
 30
0.0
 11
1010.5
 21
636.5
 31
0.0
  0
LINE
  5
6D
100
AcDbEntity
100
AcDbLine
  8
dzial-pietro
 62
256
370
-1
  6
ByLayer
 10
1001.5
 20
548.5
 30
0.0
 11
1001.5
 21
636.5
 31
0.0
  0
LINE
  5
6E
100
AcDbEntity
100
AcDbLine
  8
dzial-pietro
 62
256
370
-1
  6
ByLayer
 10
659.5
 20
636.5
 30
0.0
 11
1001.5
 21
636.5
 31
0.0
  0
LINE
  5
6F
100
AcDbEntity
100
AcDbLine
  8
dzial-pietro
 62
256
370
-1
  6
ByLayer
 10
897.5
 20
12.5
 30
0.0
 11
897.5
 21
299.5
 31
0.0
  0
LINE
  5
70
100
AcDbEntity
100
AcDbLine
  8
dzial-pietro
 62
256
370
-1
  6
ByLayer
 10
460.0000000000000568
 20
299.5
 30
0.0
 11
897.5
 21
299.5
 31
0.0
  0
LINE
  5
71
100
AcDbEntity
100
AcDbLine
  8
dzial-pietro
 62
256
370
-1
  6
ByLayer
 10
469.0000000000000568
 20
308.5
 30
0.0
 11
906.5
 21
308.5
 31
0.0
  0
LINE
  5
72
100
AcDbEntity
100
AcDbLine
  8
dzial-pietro
 62
256
370
-1
  6
ByLayer
 10
906.5
 20
92.5
 30
0.0
 11
906.5
 21
308.5
 31
0.0
  0
LINE
  5
73
100
AcDbEntity
100
AcDbLine
  8
dzial-pietro
 62
256
370
-1
  6
ByLayer
 10
906.5
 20
92.5
 30
0.0
 11
1300.5
 21
92.5
 31
0.0
  0
LINE
  5
74
100
AcDbEntity
100
AcDbLine
  8
dzial-pietro
 62
256
370
-1
  6
ByLayer
 10
906.5
 20
12.4999999999999982
 30
0.0
 11
906.5
 21
83.5
 31
0.0
  0
LINE
  5
75
100
AcDbEntity
100
AcDbLine
  8
dzial-pietro
 62
256
370
-1
  6
ByLayer
 10
906.5
 20
83.5
 30
0.0
 11
1300.5
 21
83.5
 31
0.0
  0
LINE
  5
76
100
AcDbEntity
100
AcDbLine
  8
0
 62
256
370
-1
  6
ByLayer
 10
397.0000000000000568
 20
950.0
 30
0.0
 11
916.0
 21
950.0
 31
0.0
  0
LINE
  5
77
100
AcDbEntity
100
AcDbLine
  8
0
 62
256
370
-1
  6
ByLayer
 10
396.9999999999999432
 20
741.5000000000001137
 30
0.0
 11
397.0000000000000568
 21
950.0
 31
0.0
  0
LINE
  5
78
100
AcDbEntity
100
AcDbLine
  8
0
 62
256
370
-1
  6
ByLayer
 10
-32.9999999999999574
 20
762.0
 30
0.0
 11
397.0
 21
762.0
 31
0.0
  0
LINE
  5
79
100
AcDbEntity
100
AcDbLine
  8
0
 62
256
370
-1
  6
ByLayer
 10
-12.4999999999999591
 20
741.5
 30
0.0
 11
396.9999999999999432
 21
741.5
 31
0.0
  0
LINE
  5
7A
100
AcDbEntity
100
AcDbLine
  8
0
 62
256
370
-1
  6
ByLayer
 10
623.5
 20
950.0
 30
0.0
 11
623.5
 21
970.5
 31
0.0
  0
LINE
  5
7B
100
AcDbEntity
100
AcDbLine
  8
0
 62
256
370
-1
  6
ByLayer
 10
936.5
 20
762.0
 30
0.0
 11
936.5
 21
970.5
 31
0.0
  0
LINE
  5
7C
100
AcDbEntity
100
AcDbLine
  8
0
 62
256
370
-1
  6
ByLayer
 10
623.5
 20
970.5
 30
0.0
 11
936.5
 21
970.5
 31
0.0
  0
LINE
  5
7D
100
AcDbEntity
100
AcDbLine
  8
0
 62
256
370
-1
  6
ByLayer
 10
916.0
 20
741.5
 30
0.0
 11
1325.5
 21
741.5
 31
0.0
  0
LINE
  5
7E
100
AcDbEntity
100
AcDbLine
  8
0
 62
256
370
-1
  6
ByLayer
 10
916.0
 20
741.5
 30
0.0
 11
916.0
 21
950.0
 31
0.0
  0
LINE
  5
7F
100
AcDbEntity
100
AcDbLine
  8
0
 62
256
370
-1
  6
ByLayer
 10
423.25
 20
950.0
 30
0.0
 11
423.25
 21
961.7999999999999545
 31
0.0
  0
LINE
  5
80
100
AcDbEntity
100
AcDbLine
  8
0
 62
256
370
-1
  6
ByLayer
 10
385.25
 20
961.7999999999999545
 30
0.0
 11
423.25
 21
961.7999999999999545
 31
0.0
  0
LINE
  5
81
100
AcDbEntity
100
AcDbLine
  8
0
 62
256
370
-1
  6
ByLayer
 10
385.25
 20
911.7999999999999545
 30
0.0
 11
385.25
 21
961.7999999999999545
 31
0.0
  0
LINE
  5
82
100
AcDbEntity
100
AcDbLine
  8
0
 62
256
370
-1
  6
ByLayer
 10
385.25
 20
911.7999999999999545
 30
0.0
 11
397.0000000000000568
 21
911.7999999999999545
 31
0.0
  0
LINE
  5
83
100
AcDbEntity
100
AcDbLine
  8
osie
 62
256
370
-1
  6
ByLayer
 10
-0.0000000000000037
 20
0.0
 30
0.0
 11
0.0000000000000409
 21
729.0
 31
0.0
  0
LINE
  5
84
100
AcDbEntity
100
AcDbLine
  8
osie
 62
256
370
-1
  6
ByLayer
 10
1313.0
 20
-45.0
 30
0.0
 11
1313.0
 21
774.0
 31
0.0
  0
LINE
  5
85
100
AcDbEntity
100
AcDbLine
  8
osie
 62
256
370
-1
  6
ByLayer
 10
-45.0
 20
0.0
 30
0.0
 11
1358.0
 21
0.0
 31
0.0
  0
LINE
  5
86
100
AcDbEntity
100
AcDbLine
  8
osie
 62
256
370
-1
  6
ByLayer
 10
-44.9999999999999645
 20
729.0
 30
0.0
 11
1358.0
 21
729.0
 31
0.0
  0
LINE
  5
87
100
AcDbEntity
100
AcDbLine
  8
osie
 62
256
370
-1
  6
ByLayer
 10
-44.9999999999999716
 20
482.0
 30
0.0
 11
1358.0
 21
482.0
 31
0.0
  0
LINE
  5
88
100
AcDbEntity
100
AcDbLine
  8
osie
 62
256
370
-1
  6
ByLayer
 10
-44.9999999999999858
 20
247.0000000000002274
 30
0.0
 11
1358.0
 21
247.0000000000005684
 31
0.0
  0
LINE
  5
89
100
AcDbEntity
100
AcDbLine
  8
osie
 62
256
370
-1
  6
ByLayer
 10
910.0
 20
-45.0
 30
0.0
 11
910.0
 21
982.5
 31
0.0
  0
LINE
  5
8A
100
AcDbEntity
100
AcDbLine
  8
osie
 62
256
370
-1
  6
ByLayer
 10
656.5
 20
-45.0
 30
0.0
 11
656.5
 21
982.5
 31
0.0
  0
LINE
  5
8B
100
AcDbEntity
100
AcDbLine
  8
osie
 62
256
370
-1
  6
ByLayer
 10
455.0
 20
-45.0
 30
0.0
 11
455.0
 21
982.5
 31
0.0
  0
LINE
  5
8C
100
AcDbEntity
100
AcDbLine
  8
osie
 62
256
370
-1
  6
ByLayer
 10
385.25
 20
937.5
 30
0.0
 11
948.5
 21
937.5
 31
0.0
  0
LINE
  5
8D
100
AcDbEntity
100
AcDbLine
  8
strop
 62
256
370
-1
  6
ByLayer
 10
669.0
 20
494.5000000000001137
 30
0.0
 11
1325.5
 21
494.5000000000001137
 31
0.0
  0
LINE
  5
8E
100
AcDbEntity
100
AcDbLine
  8
strop
 62
256
370
-1
  6
ByLayer
 10
-12.4999999999999734
 20
494.5000000000001137
 30
0.0
 11
644.0
 21
494.5000000000001137
 31
0.0
  0
LINE
  5
8F
100
AcDbEntity
100
AcDbLine
  8
strop
 62
256
370
-1
  6
ByLayer
 10
669.0
 20
494.5000000000001137
 30
0.0
 11
669.0
 21
950.0
 31
0.0
  0
LINE
  5
90
100
AcDbEntity
100
AcDbLine
  8
strop
 62
256
370
-1
  6
ByLayer
 10
644.0
 20
494.5000000000001137
 30
0.0
 11
644.0
 21
950.0
 31
0.0
  0
LINE
  5
91
100
AcDbEntity
100
AcDbLine
  8
strop
 62
256
370
-1
  6
ByLayer
 10
484.0
 20
405.5000000000001137
 30
0.0
 11
554.0
 21
405.5000000000001137
 31
0.0
  0
LINE
  5
92
100
AcDbEntity
100
AcDbLine
  8
strop
 62
256
370
-1
  6
ByLayer
 10
554.0
 20
323.5000000000001137
 30
0.0
 11
554.0
 21
405.5000000000001137
 31
0.0
  0
LINE
  5
93
100
AcDbEntity
100
AcDbLine
  8
strop
 62
256
370
-1
  6
ByLayer
 10
484.0
 20
323.5000000000001137
 30
0.0
 11
484.0
 21
405.5000000000001137
 31
0.0
  0
LINE
  5
94
100
AcDbEntity
100
AcDbLine
  8
strop
 62
256
370
-1
  6
ByLayer
 10
484.0
 20
323.5000000000001137
 30
0.0
 11
554.0
 21
323.5000000000001137
 31
0.0
  0
LINE
  5
95
100
AcDbEntity
100
AcDbLine
  8
strop
 62
256
370
-1
  6
ByLayer
 10
-12.4999999999999893
 20
234.5000000000001137
 30
0.0
 11
571.5
 21
234.5000000000001137
 31
0.0
  0
LINE
  5
96
100
AcDbEntity
100
AcDbLine
  8
strop
 62
256
370
-1
  6
ByLayer
 10
741.5
 20
234.5000000000001137
 30
0.0
 11
1325.5
 21
234.5000000000001137
 31
0.0
  0
LINE
  5
97
100
AcDbEntity
100
AcDbLine
  8
strop
 62
256
370
-1
  6
ByLayer
 10
741.5
 20
-12.5
 30
0.0
 11
741.5
 21
234.5000000000001137
 31
0.0
  0
LINE
  5
98
100
AcDbEntity
100
AcDbLine
  8
strop
 62
256
370
-1
  6
ByLayer
 10
571.5
 20
-12.5
 30
0.0
 11
571.5
 21
234.5000000000001137
 31
0.0
  0
LINE
  5
99
100
AcDbEntity
100
AcDbLine
  8
strop
 62
256
370
-1
  6
ByLayer
 10
571.5
 20
234.500000000000199
 30
0.0
 11
403.5000000000000568
 21
66.4999999999999716
 31
0.0
  0
LINE
  5
9A
100
AcDbEntity
100
AcDbLine
  8
strop
 62
256
370
-1
  6
ByLayer
 10
390.4999999999998863
 20
-12.4999999999998863
 30
0.0
 11
390.5000000000000568
 21
66.4999999999999716
 31
0.0
  0
LINE
  5
9B
100
AcDbEntity
100
AcDbLine
  8
strop
 62
256
370
-1
  6
ByLayer
 10
390.5000000000000568
 20
66.4999999999999716
 30
0.0
 11
403.5000000000000568
 21
66.4999999999999716
 31
0.0
  0
LINE
  5
9C
100
AcDbEntity
100
AcDbLine
  8
strop
 62
256
370
-1
  6
ByLayer
 10
403.4999999999998863
 20
-12.499999999999913
 30
0.0
 11
403.5000000000000568
 21
66.4999999999999716
 31
0.0
  0
LINE
  5
9D
100
AcDbEntity
100
AcDbLine
  8
strop
 62
256
370
-1
  6
ByLayer
 10
741.5
 20
234.5000000000001137
 30
0.0
 11
909.5
 21
66.5000000000000568
 31
0.0
  0
LINE
  5
9E
100
AcDbEntity
100
AcDbLine
  8
strop
 62
256
370
-1
  6
ByLayer
 10
922.5
 20
-12.5
 30
0.0
 11
922.5
 21
66.5000000000000568
 31
0.0
  0
LINE
  5
9F
100
AcDbEntity
100
AcDbLine
  8
strop
 62
256
370
-1
  6
ByLayer
 10
909.5
 20
-12.4999999999999982
 30
0.0
 11
909.5
 21
66.5000000000000568
 31
0.0
  0
LINE
  5
A0
100
AcDbEntity
100
AcDbLine
  8
strop
 62
256
370
-1
  6
ByLayer
 10
909.5
 20
66.5000000000000568
 30
0.0
 11
922.5
 21
66.5000000000000568
 31
0.0
  0
LINE
  5
A1
100
AcDbEntity
100
AcDbLine
  8
strop
 62
256
370
-1
  6
ByLayer
 10
-12.4999999999999609
 20
728.5
 30
0.0
 11
409.9999999999999432
 21
728.5
 31
0.0
  0
LINE
  5
A2
100
AcDbEntity
100
AcDbLine
  8
strop
 62
256
370
-1
  6
ByLayer
 10
409.9999999999999432
 20
728.5
 30
0.0
 11
410.0000000000000568
 21
950.0
 31
0.0
  0
LINE
  5
A3
100
AcDbEntity
100
AcDbLine
  8
strop
 62
256
370
-1
  6
ByLayer
 10
-12.5000000000000036
 20
0.5
 30
0.0
 11
390.4999999999998863
 21
0.5
 31
0.0
  0
LINE
  5
A4
100
AcDbEntity
100
AcDbLine
  8
strop
 62
256
370
-1
  6
ByLayer
 10
922.5
 20
0.5
 30
0.0
 11
1325.5
 21
0.5
 31
0.0
  0
LINE
  5
A5
100
AcDbEntity
100
AcDbLine
  8
strop
 62
256
370
-1
  6
ByLayer
 10
903.0
 20
728.5
 30
0.0
 11
1325.5
 21
728.5
 31
0.0
  0
LINE
  5
A6
100
AcDbEntity
100
AcDbLine
  8
strop
 62
256
370
-1
  6
ByLayer
 10
903.0
 20
728.5
 30
0.0
 11
903.0
 21
950.0
 31
0.0
  0
LINE
  5
A7
100
AcDbEntity
100
AcDbLine
  8
Wiezba
 62
256
370
-1
  6
ByLayer
 10
-105.5
 20
494.5000000000001137
 30
0.0
 11
650.0
 21
494.5000000000001137
 31
0.0
  0
LINE
  5
A8
100
AcDbEntity
100
AcDbLine
  8
Wiezba
 62
256
370
-1
  6
ByLayer
 10
-105.5
 20
234.500000000000199
 30
0.0
 11
571.5
 21
234.5000000000001421
 31
0.0
  0
LINE
  5
A9
100
AcDbEntity
100
AcDbLine
  8
Wiezba
 62
256
370
-1
  6
ByLayer
 10
741.5
 20
234.5000000000001421
 30
0.0
 11
1418.5
 21
234.5000000000000853
 31
0.0
  0
LINE
  5
AA
100
AcDbEntity
100
AcDbLine
  8
Wiezba
 62
256
370
-1
  6
ByLayer
 10
390.5000000000000568
 20
66.5
 30
0.0
 11
403.5000000000000568
 21
66.5
 31
0.0
  0
LINE
  5
AB
100
AcDbEntity
100
AcDbLine
  8
Wiezba
 62
256
370
-1
  6
ByLayer
 10
909.5
 20
66.5000000000000568
 30
0.0
 11
922.5
 21
66.5000000000000568
 31
0.0
  0
LINE
  5
AC
100
AcDbEntity
100
AcDbLine
  8
Wiezba
 62
256
370
-1
  6
ByLayer
 10
-105.5
 20
0.5
 30
0.0
 11
390.4999999999998863
 21
0.5
 31
0.0
  0
LINE
  5
AD
100
AcDbEntity
100
AcDbLine
  8
Wiezba
 62
256
370
-1
  6
ByLayer
 10
-105.5
 20
741.5
 30
0.0
 11
396.9999999999999432
 21
741.5
 31
0.0
  0
LINE
  5
AE
100
AcDbEntity
100
AcDbLine
  8
Wiezba
 62
256
370
-1
  6
ByLayer
 10
-105.5
 20
-12.5
 30
0.0
 11
390.4999999999998863
 21
-12.5
 31
0.0
  0
LINE
  5
AF
100
AcDbEntity
100
AcDbLine
  8
Wiezba
 62
256
370
-1
  6
ByLayer
 10
903.0
 20
728.5
 30
0.0
 11
1418.5
 21
728.5
 31
0.0
  0
LINE
  5
B0
100
AcDbEntity
100
AcDbLine
  8
Wiezba
 62
256
370
-1
  6
ByLayer
 10
-105.5
 20
728.5
 30
0.0
 11
409.9999999999999432
 21
728.5
 31
0.0
  0
LINE
  5
B1
100
AcDbEntity
100
AcDbLine
  8
Wiezba
 62
256
370
-1
  6
ByLayer
 10
922.5
 20
0.5
 30
0.0
 11
1418.5
 21
0.5
 31
0.0
  0
LINE
  5
B2
100
AcDbEntity
100
AcDbLine
  8
Wiezba
 62
256
370
-1
  6
ByLayer
 10
922.5
 20
-12.5
 30
0.0
 11
1418.5
 21
-12.5
 31
0.0
  0
LINE
  5
B3
100
AcDbEntity
100
AcDbLine
  8
Wiezba
 62
256
370
-1
  6
ByLayer
 10
916.0
 20
741.5
 30
0.0
 11
1418.5
 21
741.5
 31
0.0
  0
LINE
  5
B4
100
AcDbEntity
100
AcDbLine
  8
Wiezba
 62
256
370
-1
  6
ByLayer
 10
-105.5
 20
-105.4999999999998863
 30
0.0
 11
-105.5
 21
834.5000000000001137
 31
0.0
  0
LINE
  5
B5
100
AcDbEntity
100
AcDbLine
  8
Wiezba
 62
256
370
-1
  6
ByLayer
 10
-105.5
 20
-105.4999999999998863
 30
0.0
 11
1418.5
 21
-105.4999999999998863
 31
0.0
  0
LINE
  5
B6
100
AcDbEntity
100
AcDbLine
  8
Wiezba
 62
256
370
-1
  6
ByLayer
 10
303.9999999999999432
 20
1043.0
 30
0.0
 11
1009.0000000000001137
 21
1043.0
 31
0.0
  0
LINE
  5
B7
100
AcDbEntity
100
AcDbLine
  8
Wiezba
 62
256
370
-1
  6
ByLayer
 10
1009.0
 20
834.5000000000001137
 30
0.0
 11
1009.0000000000001137
 21
1043.0
 31
0.0
  0
LINE
  5
B8
100
AcDbEntity
100
AcDbLine
  8
Wiezba
 62
256
370
-1
  6
ByLayer
 10
1009.0
 20
834.5000000000001137
 30
0.0
 11
1418.5
 21
834.5000000000001137
 31
0.0
  0
LINE
  5
B9
100
AcDbEntity
100
AcDbLine
  8
Wiezba
 62
256
370
-1
  6
ByLayer
 10
304.0
 20
834.5000000000001137
 30
0.0
 11
303.9999999999999432
 21
1043.0
 31
0.0
  0
LINE
  5
BA
100
AcDbEntity
100
AcDbLine
  8
Wiezba
 62
256
370
-1
  6
ByLayer
 10
-105.5
 20
834.5000000000001137
 30
0.0
 11
304.0
 21
834.5000000000001137
 31
0.0
  0
LINE
  5
BB
100
AcDbEntity
100
AcDbLine
  8
Wiezba
 62
256
370
-1
  6
ByLayer
 10
-97.5
 20
-105.4999999999998863
 30
0.0
 11
-97.5
 21
834.5000000000001137
 31
0.0
  0
LINE
  5
BC
100
AcDbEntity
100
AcDbLine
  8
strop
 62
256
370
-1
  6
ByLayer
 10
668.9999999999998863
 20
494.5000000000001137
 30
0.0
 11
902.9999999999997726
 21
728.5
 31
0.0
  0
LINE
  5
BD
100
AcDbEntity
100
AcDbLine
  8
strop
 62
256
370
-1
  6
ByLayer
 10
410.0000000000000568
 20
728.5
 30
0.0
 11
644.0
 21
494.5000000000001137
 31
0.0
  0
LINE
  5
BE
100
AcDbEntity
100
AcDbLine
  8
Wiezba
 62
256
370
-1
  6
ByLayer
 10
565.8431457505074604
 20
234.5000000000000853
 30
0.0
 11
565.8431457505074604
 21
567.0000000000002274
 31
0.0
  0
LINE
  5
BF
100
AcDbEntity
100
AcDbLine
  8
Wiezba
 62
256
370
-1
  6
ByLayer
 10
660.5
 20
321.1568542494925396
 30
0.0
 11
660.5
 21
480.3431457505079152
 31
0.0
  0
LINE
  5
C0
100
AcDbEntity
100
AcDbLine
  8
Wiezba
 62
256
370
-1
  6
ByLayer
 10
747.1568542494924259
 20
234.5000000000000853
 30
0.0
 11
747.1568542494924259
 21
567.0000000000002274
 31
0.0
  0
LINE
  5
C1
100
AcDbEntity
100
AcDbLine
  8
Wiezba
 62
256
370
-1
  6
ByLayer
 10
755.1568542494924259
 20
226.5000000000000853
 30
0.0
 11
755.1568542494924259
 21
575.0000000000001137
 31
0.0
  0
LINE
  5
C2
100
AcDbEntity
100
AcDbLine
  8
Wiezba
 62
256
370
-1
  6
ByLayer
 10
652.5
 20
321.1568542494927669
 30
0.0
 11
652.5
 21
480.3431457505076878
 31
0.0
  0
LINE
  5
C3
100
AcDbEntity
100
AcDbLine
  8
Wiezba
 62
256
370
-1
  6
ByLayer
 10
557.8431457505074604
 20
226.5000000000000568
 30
0.0
 11
557.8431457505074604
 21
575.0000000000002274
 31
0.0
  0
LINE
  5
C4
100
AcDbEntity
100
AcDbLine
  8
0
 62
256
370
-1
  6
ByLayer
 10
-45.0
 20
-45.0
 30
0.0
 11
1358.0
 21
-45.0
 31
0.0
  0
LINE
  5
C5
100
AcDbEntity
100
AcDbLine
  8
0
 62
256
370
-1
  6
ByLayer
 10
-33.0
 20
-33.0
 30
0.0
 11
363.4999999999998295
 21
-33.0
 31
0.0
  0
LINE
  5
C6
100
AcDbEntity
100
AcDbLine
  8
0
 62
256
370
-1
  6
ByLayer
 10
375.4999999999998295
 20
-33.0
 30
0.0
 11
937.5
 21
-33.0
 31
0.0
  0
LINE
  5
C7
100
AcDbEntity
100
AcDbLine
  8
0
 62
256
370
-1
  6
ByLayer
 10
949.5
 20
-33.0
 30
0.0
 11
1346.0
 21
-33.0
 31
0.0
  0
LINE
  5
C8
100
AcDbEntity
100
AcDbLine
  8
0
 62
256
370
-1
  6
ByLayer
 10
1358.0
 20
-45.0
 30
0.0
 11
1358.0
 21
774.0
 31
0.0
  0
LINE
  5
C9
100
AcDbEntity
100
AcDbLine
  8
0
 62
256
370
-1
  6
ByLayer
 10
948.5
 20
774.0
 30
0.0
 11
1358.0
 21
774.0
 31
0.0
  0
LINE
  5
CA
100
AcDbEntity
100
AcDbLine
  8
0
 62
256
370
-1
  6
ByLayer
 10
948.5
 20
774.0
 30
0.0
 11
948.5
 21
982.5
 31
0.0
  0
LINE
  5
CB
100
AcDbEntity
100
AcDbLine
  8
0
 62
256
370
-1
  6
ByLayer
 10
611.5
 20
950.0
 30
0.0
 11
611.5
 21
982.5
 31
0.0
  0
LINE
  5
CC
100
AcDbEntity
100
AcDbLine
  8
0
 62
256
370
-1
  6
ByLayer
 10
611.5
 20
982.5
 30
0.0
 11
948.5
 21
982.5
 31
0.0
  0
LINE
  5
CD
100
AcDbEntity
100
AcDbLine
  8
0
 62
256
370
-1
  6
ByLayer
 10
-45.0
 20
-45.0
 30
0.0
 11
-44.9999999999999574
 21
774.0
 31
0.0
  0
LINE
  5
CE
100
AcDbEntity
100
AcDbLine
  8
0
 62
256
370
-1
  6
ByLayer
 10
-44.9999999999999574
 20
774.0
 30
0.0
 11
397.0
 21
774.0
 31
0.0
  0
LINE
  5
CF
100
AcDbEntity
100
AcDbLine
  8
Wiezba
 62
256
370
-1
  6
ByLayer
 10
403.4999999999997158
 20
-75.0
 30
0.0
 11
403.5000000000000568
 21
66.5
 31
0.0
  0
LINE
  5
D0
100
AcDbEntity
100
AcDbLine
  8
Wiezba
 62
256
370
-1
  6
ByLayer
 10
390.4999999999997158
 20
-75.0
 30
0.0
 11
390.5000000000000568
 21
66.5
 31
0.0
  0
LINE
  5
D1
100
AcDbEntity
100
AcDbLine
  8
Wiezba
 62
256
370
-1
  6
ByLayer
 10
571.5
 20
-75.0
 30
0.0
 11
571.5
 21
234.5000000000001421
 31
0.0
  0
LINE
  5
D2
100
AcDbEntity
100
AcDbLine
  8
Wiezba
 62
256
370
-1
  6
ByLayer
 10
741.5
 20
-75.0
 30
0.0
 11
741.5
 21
234.5000000000001421
 31
0.0
  0
LINE
  5
D3
100
AcDbEntity
100
AcDbLine
  8
Wiezba
 62
256
370
-1
  6
ByLayer
 10
909.5
 20
-75.0
 30
0.0
 11
909.5
 21
66.5000000000000568
 31
0.0
  0
LINE
  5
D4
100
AcDbEntity
100
AcDbLine
  8
Wiezba
 62
256
370
-1
  6
ByLayer
 10
922.5
 20
-75.0
 30
0.0
 11
922.5
 21
66.5000000000000568
 31
0.0
  0
LINE
  5
D5
100
AcDbEntity
100
AcDbLine
  8
Wiezba
 62
256
370
-1
  6
ByLayer
 10
335.6715728752536734
 20
4.3284271247458719
 30
0.0
 11
341.3284271247460424
 21
-1.328427124746554
 31
0.0
  0
LINE
  5
D6
100
AcDbEntity
100
AcDbLine
  8
Wiezba
 62
256
370
-1
  6
ByLayer
 10
338.4999999999998863
 20
-75.0
 30
0.0
 11
338.4999999999998863
 21
1.4999999999996163
 31
0.0
  0
LINE
  5
D7
100
AcDbEntity
100
AcDbLine
  8
Wiezba
 62
256
370
-1
  6
ByLayer
 10
977.3284271247464403
 20
4.328427124746014
 30
0.0
 11
971.6715728752540144
 21
-1.3284271247464989
 31
0.0
  0
LINE
  5
D8
100
AcDbEntity
100
AcDbLine
  8
Wiezba
 62
256
370
-1
  6
ByLayer
 10
974.5
 20
-75.0
 30
0.0
 11
974.5000000000002274
 21
1.4999999999997726
 31
0.0
  0
LINE
  5
D9
100
AcDbEntity
100
AcDbLine
  8
Wiezba
 62
256
370
-1
  6
ByLayer
 10
338.4999999999998863
 20
-75.0
 30
0.0
 11
974.5
 21
-75.0
 31
0.0
  0
LINE
  5
DA
100
AcDbEntity
100
AcDbLine
  8
Wiezba
 62
256
370
-1
  6
ByLayer
 10
338.4999999999998863
 20
-67.0
 30
0.0
 11
974.5
 21
-67.0
 31
0.0
  0
LINE
  5
DB
100
AcDbEntity
100
AcDbLine
  8
Wiezba
 62
256
370
-1
  6
ByLayer
 10
656.5
 20
476.3431457505077447
 30
0.0
 11
1014.6568542494921985
 21
834.5000000000001137
 31
0.0
  0
LINE
  5
DC
100
AcDbEntity
100
AcDbLine
  8
Wiezba
 62
256
370
-1
  6
ByLayer
 10
656.5
 20
487.6568542494925964
 30
0.0
 11
1009.0
 21
840.1568542494926533
 31
0.0
  0
LINE
  5
DD
100
AcDbEntity
100
AcDbLine
  8
Wiezba
 62
256
370
-1
  6
ByLayer
 10
304.0
 20
840.1568542494924259
 30
0.0
 11
656.5
 21
487.6568542494925964
 31
0.0
  0
LINE
  5
DE
100
AcDbEntity
100
AcDbLine
  8
Wiezba
 62
256
370
-1
  6
ByLayer
 10
298.3431457505074604
 20
834.5000000000001137
 30
0.0
 11
656.5
 21
476.3431457505077447
 31
0.0
  0
LINE
  5
DF
100
AcDbEntity
100
AcDbLine
  8
Wiezba
 62
256
370
-1
  6
ByLayer
 10
830.1568542494924259
 20
151.5000000000000568
 30
0.0
 11
830.1568542494924259
 21
650.0000000000002274
 31
0.0
  0
LINE
  5
E0
100
AcDbEntity
100
AcDbLine
  8
Wiezba
 62
256
370
-1
  6
ByLayer
 10
838.1568542494924259
 20
143.5000000000000568
 30
0.0
 11
838.1568542494924259
 21
658.0000000000002274
 31
0.0
  0
LINE
  5
E1
100
AcDbEntity
100
AcDbLine
  8
Wiezba
 62
256
370
-1
  6
ByLayer
 10
913.1568542494924259
 20
68.5000000000000284
 30
0.0
 11
913.1568542494924259
 21
733.0000000000003411
 31
0.0
  0
LINE
  5
E2
100
AcDbEntity
100
AcDbLine
  8
Wiezba
 62
256
370
-1
  6
ByLayer
 10
921.1568542494924259
 20
60.5000000000000284
 30
0.0
 11
921.1568542494924259
 21
741.0000000000003411
 31
0.0
  0
LINE
  5
E3
100
AcDbEntity
100
AcDbLine
  8
Wiezba
 62
256
370
-1
  6
ByLayer
 10
1070.8284271247462129
 20
-105.4999999999998863
 30
0.0
 11
1070.8284271247462129
 21
834.5
 31
0.0
  0
LINE
  5
E4
100
AcDbEntity
100
AcDbLine
  8
Wiezba
 62
256
370
-1
  6
ByLayer
 10
1078.8284271247462129
 20
-105.4999999999998863
 30
0.0
 11
1078.8284271247462129
 21
834.5
 31
0.0
  0
LINE
  5
E5
100
AcDbEntity
100
AcDbLine
  8
Wiezba
 62
256
370
-1
  6
ByLayer
 10
987.5
 20
-105.4999999999998863
 30
0.0
 11
987.5
 21
807.3431457505078015
 31
0.0
  0
LINE
  5
E6
100
AcDbEntity
100
AcDbLine
  8
Wiezba
 62
256
370
-1
  6
ByLayer
 10
979.5
 20
-105.4999999999998721
 30
0.0
 11
979.5
 21
799.3431457505079152
 31
0.0
  0
LINE
  5
E7
100
AcDbEntity
100
AcDbLine
  8
Wiezba
 62
256
370
-1
  6
ByLayer
 10
482.8431457505074604
 20
151.4999999999999432
 30
0.0
 11
482.8431457505074604
 21
650.0000000000002274
 31
0.0
  0
LINE
  5
E8
100
AcDbEntity
100
AcDbLine
  8
Wiezba
 62
256
370
-1
  6
ByLayer
 10
474.8431457505074604
 20
143.4999999999999147
 30
0.0
 11
474.8431457505074604
 21
658.0000000000002274
 31
0.0
  0
LINE
  5
E9
100
AcDbEntity
100
AcDbLine
  8
Wiezba
 62
256
370
-1
  6
ByLayer
 10
390.6715728752536734
 20
59.3284271247459856
 30
0.0
 11
390.6715728752536734
 21
742.1715728752540144
 31
0.0
  0
LINE
  5
EA
100
AcDbEntity
100
AcDbLine
  8
Wiezba
 62
256
370
-1
  6
ByLayer
 10
382.6715728752536734
 20
51.3284271247459287
 30
0.0
 11
382.6715728752536734
 21
750.1715728752537871
 31
0.0
  0
LINE
  5
EB
100
AcDbEntity
100
AcDbLine
  8
Wiezba
 62
256
370
-1
  6
ByLayer
 10
333.5
 20
-105.4999999999999432
 30
0.0
 11
333.5000000000001137
 21
247.5000000000000568
 31
0.0
  0
LINE
  5
EC
100
AcDbEntity
100
AcDbLine
  8
Wiezba
 62
256
370
-1
  6
ByLayer
 10
325.4999999999998863
 20
-105.4999999999997158
 30
0.0
 11
325.4999999999998863
 21
247.5000000000001137
 31
0.0
  0
LINE
  5
ED
100
AcDbEntity
100
AcDbLine
  8
Wiezba
 62
256
370
-1
  6
ByLayer
 10
242.1715728752537871
 20
-105.4999999999998579
 30
0.0
 11
242.1715728752540713
 21
834.5000000000003411
 31
0.0
  0
LINE
  5
EE
100
AcDbEntity
100
AcDbLine
  8
Wiezba
 62
256
370
-1
  6
ByLayer
 10
234.1715728752537871
 20
-105.4999999999997442
 30
0.0
 11
234.1715728752541281
 21
834.5000000000001137
 31
0.0
  0
LINE
  5
EF
100
AcDbEntity
100
AcDbLine
  8
Wiezba
 62
256
370
-1
  6
ByLayer
 10
415.25
 20
-105.4999999999999574
 30
0.0
 11
415.2500000000000568
 21
-12.5
 31
0.0
  0
LINE
  5
F0
100
AcDbEntity
100
AcDbLine
  8
Wiezba
 62
256
370
-1
  6
ByLayer
 10
497.0
 20
-105.4999999999999716
 30
0.0
 11
497.0000000000000568
 21
-12.5
 31
0.0
  0
LINE
  5
F1
100
AcDbEntity
100
AcDbLine
  8
Wiezba
 62
256
370
-1
  6
ByLayer
 10
578.75
 20
-105.4999999999999858
 30
0.0
 11
578.75
 21
-12.5
 31
0.0
  0
LINE
  5
F2
100
AcDbEntity
100
AcDbLine
  8
Wiezba
 62
256
370
-1
  6
ByLayer
 10
660.5
 20
-105.5
 30
0.0
 11
660.5
 21
-12.5
 31
0.0
  0
LINE
  5
F3
100
AcDbEntity
100
AcDbLine
  8
Wiezba
 62
256
370
-1
  6
ByLayer
 10
742.25
 20
-105.5000000000000142
 30
0.0
 11
742.25
 21
-12.5000000000000142
 31
0.0
  0
LINE
  5
F4
100
AcDbEntity
100
AcDbLine
  8
Wiezba
 62
256
370
-1
  6
ByLayer
 10
824.0
 20
-105.5000000000000284
 30
0.0
 11
824.0
 21
-12.4999999999999858
 31
0.0
  0
LINE
  5
F5
100
AcDbEntity
100
AcDbLine
  8
Wiezba
 62
256
370
-1
  6
ByLayer
 10
905.75
 20
-105.5000000000000426
 30
0.0
 11
905.75
 21
-12.5
 31
0.0
  0
LINE
  5
F6
100
AcDbEntity
100
AcDbLine
  8
Wiezba
 62
256
370
-1
  6
ByLayer
 10
407.25
 20
-105.4999999999999574
 30
0.0
 11
407.2500000000000568
 21
-12.4999999999999947
 31
0.0
  0
LINE
  5
F7
100
AcDbEntity
100
AcDbLine
  8
Wiezba
 62
256
370
-1
  6
ByLayer
 10
489.0
 20
-105.4999999999999716
 30
0.0
 11
489.0000000000000568
 21
-12.4999999999999947
 31
0.0
  0
LINE
  5
F8
100
AcDbEntity
100
AcDbLine
  8
Wiezba
 62
256
370
-1
  6
ByLayer
 10
570.75
 20
-105.4999999999999858
 30
0.0
 11
570.75
 21
-12.4999999999999982
 31
0.0
  0
LINE
  5
F9
100
AcDbEntity
100
AcDbLine
  8
Wiezba
 62
256
370
-1
  6
ByLayer
 10
652.5
 20
-105.5
 30
0.0
 11
652.5
 21
-12.4999999999999982
 31
0.0
  0
LINE
  5
FA
100
AcDbEntity
100
AcDbLine
  8
Wiezba
 62
256
370
-1
  6
ByLayer
 10
734.25
 20
-105.5000000000000142
 30
0.0
 11
734.25
 21
-12.5000000000000124
 31
0.0
  0
LINE
  5
FB
100
AcDbEntity
100
AcDbLine
  8
Wiezba
 62
256
370
-1
  6
ByLayer
 10
816.0
 20
-105.5000000000000284
 30
0.0
 11
816.0
 21
-12.499999999999984
 31
0.0
  0
LINE
  5
FC
100
AcDbEntity
100
AcDbLine
  8
Wiezba
 62
256
370
-1
  6
ByLayer
 10
897.75
 20
-105.5000000000000426
 30
0.0
 11
897.75
 21
-12.4999999999999982
 31
0.0
  0
LINE
  5
FD
100
AcDbEntity
100
AcDbLine
  8
Wiezba
 62
256
370
-1
  6
ByLayer
 10
-29.0000000000000036
 20
-105.4999999999998863
 30
0.0
 11
-28.9999999999999538
 21
834.5000000000001137
 31
0.0
  0
LINE
  5
FE
100
AcDbEntity
100
AcDbLine
  8
Wiezba
 62
256
370
-1
  6
ByLayer
 10
-21.0000000000000036
 20
-105.4999999999998863
 30
0.0
 11
-20.9999999999999538
 21
834.5000000000001137
 31
0.0
  0
LINE
  5
FF
100
AcDbEntity
100
AcDbLine
  8
Wiezba
 62
256
370
-1
  6
ByLayer
 10
146.4515728752537882
 20
-105.49999999999973
 30
0.0
 11
146.4515728752541293
 21
834.5000000000001137
 31
0.0
  0
LINE
  5
100
100
AcDbEntity
100
AcDbLine
  8
Wiezba
 62
256
370
-1
  6
ByLayer
 10
58.7315728752537893
 20
-105.4999999999997158
 30
0.0
 11
58.7315728752541304
 21
834.5000000000001137
 31
0.0
  0
LINE
  5
101
100
AcDbEntity
100
AcDbLine
  8
Wiezba
 62
256
370
-1
  6
ByLayer
 10
154.4515728752537882
 20
-105.49999999999973
 30
0.0
 11
154.4515728752541293
 21
834.5000000000001137
 31
0.0
  0
LINE
  5
102
100
AcDbEntity
100
AcDbLine
  8
Wiezba
 62
256
370
-1
  6
ByLayer
 10
66.7315728752537893
 20
-105.4999999999997158
 30
0.0
 11
66.7315728752541304
 21
834.5000000000001137
 31
0.0
  0
LINE
  5
103
100
AcDbEntity
100
AcDbLine
  8
Wiezba
 62
256
370
-1
  6
ByLayer
 10
1070.8284271247462129
 20
481.5000000000001137
 30
0.0
 11
1418.5
 21
481.5000000000001137
 31
0.0
  0
LINE
  5
104
100
AcDbEntity
100
AcDbLine
  8
Wiezba
 62
256
370
-1
  6
ByLayer
 10
1070.8284271247462129
 20
494.5000000000001137
 30
0.0
 11
1418.5
 21
494.5000000000001137
 31
0.0
  0
LINE
  5
105
100
AcDbEntity
100
AcDbLine
  8
Wiezba
 62
256
370
-1
  6
ByLayer
 10
663.0
 20
494.5000000000001137
 30
0.0
 11
987.5
 21
494.5000000000001137
 31
0.0
  0
LINE
  5
106
100
AcDbEntity
100
AcDbLine
  8
Wiezba
 62
256
370
-1
  6
ByLayer
 10
-105.5
 20
481.5000000000001137
 30
0.0
 11
987.5
 21
481.5000000000001137
 31
0.0
  0
LINE
  5
107
100
AcDbEntity
100
AcDbLine
  8
Wiezba
 62
256
370
-1
  6
ByLayer
 10
1342.0
 20
-105.4999999999997442
 30
0.0
 11
1342.0000000000002274
 21
834.4999999999997726
 31
0.0
  0
LINE
  5
108
100
AcDbEntity
100
AcDbLine
  8
Wiezba
 62
256
370
-1
  6
ByLayer
 10
1334.0
 20
-105.5000000000000853
 30
0.0
 11
1334.0
 21
834.5
 31
0.0
  0
LINE
  5
109
100
AcDbEntity
100
AcDbLine
  8
Wiezba
 62
256
370
-1
  6
ByLayer
 10
1166.5484271247462402
 20
-105.4999999999997442
 30
0.0
 11
1166.5484271247457855
 21
834.5000000000002274
 31
0.0
  0
LINE
  5
10A
100
AcDbEntity
100
AcDbLine
  8
Wiezba
 62
256
370
-1
  6
ByLayer
 10
1254.2684271247462675
 20
-105.4999999999995737
 30
0.0
 11
1254.2684271247462675
 21
834.4999999999996589
 31
0.0
  0
LINE
  5
10B
100
AcDbEntity
100
AcDbLine
  8
Wiezba
 62
256
370
-1
  6
ByLayer
 10
1158.5484271247464676
 20
-105.4999999999994031
 30
0.0
 11
1158.5484271247462402
 21
834.4999999999998863
 31
0.0
  0
LINE
  5
10C
100
AcDbEntity
100
AcDbLine
  8
Wiezba
 62
256
370
-1
  6
ByLayer
 10
1246.2684271247462675
 20
-105.4999999999996305
 30
0.0
 11
1246.2684271247462675
 21
834.4999999999996589
 31
0.0
  0
LINE
  5
10D
100
AcDbEntity
100
AcDbLine
  8
Wiezba
 62
256
370
-1
  6
ByLayer
 10
290.5
 20
234.5000000000001137
 30
0.0
 11
290.5
 21
834.5
 31
0.0
  0
LINE
  5
10E
100
AcDbEntity
100
AcDbLine
  8
Wiezba
 62
256
370
-1
  6
ByLayer
 10
298.5
 20
234.5000000000001137
 30
0.0
 11
298.5
 21
834.5
 31
0.0
  0
LINE
  5
10F
100
AcDbEntity
100
AcDbLine
  8
Wiezba
 62
256
370
-1
  6
ByLayer
 10
584.5
 20
-75.0
 30
0.0
 11
584.5
 21
247.5
 31
0.0
  0
LINE
  5
110
100
AcDbEntity
100
AcDbLine
  8
Wiezba
 62
256
370
-1
  6
ByLayer
 10
-105.5
 20
247.5000000000001705
 30
0.0
 11
584.5
 21
247.5
 31
0.0
  0
LINE
  5
111
100
AcDbEntity
100
AcDbLine
  8
Wiezba
 62
256
370
-1
  6
ByLayer
 10
728.5
 20
247.4999999999999716
 30
0.0
 11
1418.5
 21
247.4999999999998295
 31
0.0
  0
LINE
  5
112
100
AcDbEntity
100
AcDbLine
  8
Wiezba
 62
256
370
-1
  6
ByLayer
 10
728.5
 20
-75.0
 30
0.0
 11
728.5
 21
247.4999999999999716
 31
0.0
  0
LINE
  5
113
100
AcDbEntity
100
AcDbLine
  8
Wiezba
 62
256
370
-1
  6
ByLayer
 10
581.1568542494921985
 20
238.5
 30
0.0
 11
731.8431457505076878
 21
238.5
 31
0.0
  0
LINE
  5
114
100
AcDbEntity
100
AcDbLine
  8
Wiezba
 62
256
370
-1
  6
ByLayer
 10
589.1568542494920848
 20
246.5
 30
0.0
 11
723.8431457505076878
 21
246.5
 31
0.0
  0
LINE
  5
115
100
AcDbEntity
100
AcDbLine
  8
Wiezba
 62
256
370
-1
  6
ByLayer
 10
510.1568542494923122
 20
167.5
 30
0.0
 11
802.8431457505075741
 21
167.5
 31
0.0
  0
LINE
  5
116
100
AcDbEntity
100
AcDbLine
  8
Wiezba
 62
256
370
-1
  6
ByLayer
 10
502.1568542494923122
 20
159.5
 30
0.0
 11
810.8431457505075741
 21
159.5
 31
0.0
  0
LINE
  5
117
100
AcDbEntity
100
AcDbLine
  8
Wiezba
 62
256
370
-1
  6
ByLayer
 10
431.1568542494924259
 20
88.5
 30
0.0
 11
881.8431457505075741
 21
88.5
 31
0.0
  0
LINE
  5
118
100
AcDbEntity
100
AcDbLine
  8
Wiezba
 62
256
370
-1
  6
ByLayer
 10
423.1568542494924259
 20
80.5
 30
0.0
 11
889.8431457505075741
 21
80.5
 31
0.0
  0
LINE
  5
119
100
AcDbEntity
100
AcDbLine
  8
Wiezba
 62
256
370
-1
  6
ByLayer
 10
352.1568542494925964
 20
9.5
 30
0.0
 11
960.8431457505075741
 21
9.5
 31
0.0
  0
LINE
  5
11A
100
AcDbEntity
100
AcDbLine
  8
Wiezba
 62
256
370
-1
  6
ByLayer
 10
344.1568542494925396
 20
1.5
 30
0.0
 11
968.8431457505074604
 21
1.5
 31
0.0
  0
LINE
  5
11B
100
AcDbEntity
100
AcDbLine
  8
Wiezba
 62
256
370
-1
  6
ByLayer
 10
303.9999999999999432
 20
1035.0
 30
0.0
 11
1009.0000000000001137
 21
1035.0
 31
0.0
  0
LINE
  5
11C
100
AcDbEntity
100
AcDbLine
  8
Wiezba
 62
256
370
-1
  6
ByLayer
 10
303.9999999999999432
 20
958.5
 30
0.0
 11
1009.0000000000001137
 21
958.5
 31
0.0
  0
LINE
  5
11D
100
AcDbEntity
100
AcDbLine
  8
Wiezba
 62
256
370
-1
  6
ByLayer
 10
303.9999999999999432
 20
878.5
 30
0.0
 11
1009.0000000000001137
 21
878.5
 31
0.0
  0
LINE
  5
11E
100
AcDbEntity
100
AcDbLine
  8
Wiezba
 62
256
370
-1
  6
ByLayer
 10
303.9999999999999432
 20
966.5
 30
0.0
 11
1009.0000000000001137
 21
966.5
 31
0.0
  0
LINE
  5
11F
100
AcDbEntity
100
AcDbLine
  8
Wiezba
 62
256
370
-1
  6
ByLayer
 10
303.9999999999999432
 20
886.5
 30
0.0
 11
1009.0000000000001137
 21
886.5
 31
0.0
  0
LINE
  5
120
100
AcDbEntity
100
AcDbLine
  8
Wiezba
 62
256
370
-1
  6
ByLayer
 10
577.6568542494925396
 20
566.5
 30
0.0
 11
735.3431457505073467
 21
566.5
 31
0.0
  0
LINE
  5
121
100
AcDbEntity
100
AcDbLine
  8
Wiezba
 62
256
370
-1
  6
ByLayer
 10
585.6568542494925396
 20
558.5
 30
0.0
 11
727.3431457505073467
 21
558.5
 31
0.0
  0
LINE
  5
122
100
AcDbEntity
100
AcDbLine
  8
Wiezba
 62
256
370
-1
  6
ByLayer
 10
505.6568542494924827
 20
638.5
 30
0.0
 11
807.3431457505073467
 21
638.5
 31
0.0
  0
LINE
  5
123
100
AcDbEntity
100
AcDbLine
  8
Wiezba
 62
256
370
-1
  6
ByLayer
 10
497.6568542494924827
 20
646.5
 30
0.0
 11
815.3431457505073467
 21
646.5
 31
0.0
  0
LINE
  5
124
100
AcDbEntity
100
AcDbLine
  8
Wiezba
 62
256
370
-1
  6
ByLayer
 10
417.6568542494924827
 20
726.5
 30
0.0
 11
895.3431457505073467
 21
726.5
 31
0.0
  0
LINE
  5
125
100
AcDbEntity
100
AcDbLine
  8
Wiezba
 62
256
370
-1
  6
ByLayer
 10
425.6568542494924827
 20
718.5
 30
0.0
 11
887.3431457505073467
 21
718.5
 31
0.0
  0
LINE
  5
126
100
AcDbEntity
100
AcDbLine
  8
Wiezba
 62
256
370
-1
  6
ByLayer
 10
337.6568542494924259
 20
806.5
 30
0.0
 11
975.3431457505073467
 21
806.5
 31
0.0
  0
LINE
  5
127
100
AcDbEntity
100
AcDbLine
  8
Wiezba
 62
256
370
-1
  6
ByLayer
 10
345.6568542494924259
 20
798.5
 30
0.0
 11
967.3431457505073467
 21
798.5
 31
0.0
  0
LINE
  5
128
100
AcDbEntity
100
AcDbLine
  8
Wiezba
 62
256
370
-1
  6
ByLayer
 10
1418.5
 20
-105.4999999999998863
 30
0.0
 11
1418.5
 21
834.5000000000001137
 31
0.0
  0
LINE
  5
129
100
AcDbEntity
100
AcDbLine
  8
Wiezba
 62
256
370
-1
  6
ByLayer
 10
1410.5
 20
-105.4999999999998863
 30
0.0
 11
1410.5
 21
834.5000000000001137
 31
0.0
  0
LINE
  5
12A
100
AcDbEntity
100
AcDbLine
  8
osie
 62
256
370
-1
  6
ByLayer
 10
-44.9999999999999787
 20
364.5000000000001137
 30
0.0
 11
1671.9999999999997726
 21
364.5000000000001137
 31
0.0
  0
DIMENSION
  5
12B
100
AcDbEntity
  8
Wymiary
 62
256
370
-1
  6
ByLayer
100
AcDbDimension
 10
974.5
 20
-187.3701746323537805
 30
0.0
 11
656.4999999999998863
 21
-173.3701746323537805
 31
0.0
 70
0
 71
5
 72
0
 41
1.0
 42
0.0
  1

  3
Standard
100
AcDbAlignedDimension
 13
338.4999999999998863
 23
-75.0
 33
0.0
 14
974.5
 24
-75.0
 34
0.0
 50
0.0
100
AcDbRotatedDimension
  0
DIMENSION
  5
12C
100
AcDbEntity
  8
Wymiary
 62
256
370
-1
  6
ByLayer
100
AcDbDimension
 10
1418.5
 20
-271.8187040441192721
 30
0.0
 11
656.5
 21
-257.8187040441192721
 31
0.0
 70
0
 71
5
 72
0
 41
1.0
 42
0.0
  1

  3
Standard
100
AcDbAlignedDimension
 13
-105.5
 23
-105.4999999999998863
 33
0.0
 14
1418.5
 24
-105.4999999999998863
 34
0.0
 50
0.0
100
AcDbRotatedDimension
  0
DIMENSION
  5
12D
100
AcDbEntity
  8
Wymiary
 62
256
370
-1
  6
ByLayer
100
AcDbDimension
 10
-211.1213235294131607
 20
-105.4999999999998721
 30
0.0
 11
-225.1213235294131607
 21
364.5000000000001137
 31
0.0
 70
0
 71
5
 72
0
 41
1.0
 42
0.0
  1

  3
Standard
100
AcDbAlignedDimension
 13
-105.5
 23
834.5000000000001137
 33
0.0
 14
-105.5
 24
-105.4999999999998863
 34
0.0
 50
90.0
100
AcDbRotatedDimension
  0
LINE
  5
12E
100
AcDbEntity
100
AcDbLine
  8
0
 62
256
370
-1
  6
ByLayer
 10
999.5
 20
548.5
 30
0.0
 11
1054.5
 21
548.5
 31
0.0
  0
LINE
  5
12F
100
AcDbEntity
100
AcDbLine
  8
0
 62
256
370
-1
  6
ByLayer
 10
1054.5
 20
493.5
 30
0.0
 11
1054.5
 21
548.5
 31
0.0
  0
LINE
  5
130
100
AcDbEntity
100
AcDbLine
  8
0
 62
256
370
-1
  6
ByLayer
 10
999.5
 20
493.5
 30
0.0
 11
999.5
 21
548.5
 31
0.0
  0
LINE
  5
131
100
AcDbEntity
100
AcDbLine
  8
0
 62
256
370
-1
  6
ByLayer
 10
999.5
 20
493.5
 30
0.0
 11
1054.5
 21
493.5
 31
0.0
  0
LINE
  5
132
100
AcDbEntity
100
AcDbLine
  8
0
 62
256
370
-1
  6
ByLayer
 10
310.5
 20
323.5
 30
0.0
 11
365.5
 21
323.5
 31
0.0
  0
LINE
  5
133
100
AcDbEntity
100
AcDbLine
  8
0
 62
256
370
-1
  6
ByLayer
 10
310.5
 20
323.5
 30
0.0
 11
310.5
 21
378.5
 31
0.0
  0
LINE
  5
134
100
AcDbEntity
100
AcDbLine
  8
0
 62
256
370
-1
  6
ByLayer
 10
310.5
 20
378.5
 30
0.0
 11
365.5
 21
378.5
 31
0.0
  0
DIMENSION
  5
135
100
AcDbEntity
  8
Wymiary
 62
256
370
-1
  6
ByLayer
100
AcDbDimension
 10
1009.0
 20
1111.6857192095710616
 30
0.0
 11
656.5
 21
1125.6857192095710616
 31
0.0
 70
0
 71
5
 72
0
 41
1.0
 42
0.0
  1

  3
Standard
100
AcDbAlignedDimension
 13
303.9999999999999432
 23
1043.0
 33
0.0
 14
1009.0
 24
1043.0
 34
0.0
 50
0.0
100
AcDbRotatedDimension
  0
LINE
  5
136
100
AcDbEntity
100
AcDbLine
  8
Wiezba
 62
256
370
-1
  6
ByLayer
 10
663.0
 20
494.5000000000001137
 30
0.0
 11
663.0
 21
1043.0
 31
0.0
  0
LINE
  5
137
100
AcDbEntity
100
AcDbLine
  8
Wiezba
 62
256
370
-1
  6
ByLayer
 10
650.0
 20
494.5000000000001137
 30
0.0
 11
650.0
 21
1043.0
 31
0.0
  0
LINE
  5
138
100
AcDbEntity
100
AcDbLine
  8
0
 62
256
370
-1
  6
ByLayer
 10
375.4999999999998295
 20
-33.0
 30
0.0
 11
375.5
 21
32.8431457505074036
 31
0.0
  0
LINE
  5
139
100
AcDbEntity
100
AcDbLine
  8
0
 62
256
370
-1
  6
ByLayer
 10
937.5
 20
-33.0
 30
0.0
 11
937.5
 21
32.8431457505075315
 31
0.0
  0
LINE
  5
13A
100
AcDbEntity
100
AcDbLine
  8
0
 62
256
370
-1
  6
ByLayer
 10
363.4999999999998295
 20
-33.0
 30
0.0
 11
363.4999999999999432
 21
20.843145750507361
 31
0.0
  0
LINE
  5
13B
100
AcDbEntity
100
AcDbLine
  8
0
 62
256
370
-1
  6
ByLayer
 10
949.5
 20
-33.0
 30
0.0
 11
949.5
 21
20.8431457505075173
 31
0.0
  0
LEADER
  5
13C
  8
Wymiary
 62
256
370
-1
  6
ByLayer
100
AcDbEntity
100
AcDbLeader
  3
Standard
 71
1
 72
0
 73
3
 74
0
 75
0
 40
1.0
 41
10.0
 76
2
 10
1358.0
 20
774.0
 10
1441.2270760164553849
 20
866.3405800173126181
  0
LEADER
  5
13D
  8
Wymiary
 62
256
370
-1
  6
ByLayer
100
AcDbEntity
100
AcDbLeader
  3
Standard
 71
1
 72
0
 73
3
 74
0
 75
0
 40
1.0
 41
10.0
 76
2
 10
1179.1857894680088066
 20
754.037171496549945
 10
1266.0872365376467314
 20
881.046978752174482
  0
LINE
  5
13E
100
AcDbEntity
100
AcDbLine
  8
Wiezba
 62
256
370
-1
  6
ByLayer
 10
396.9999999999999432
 20
741.5000000000001137
 30
0.0
 11
397.0000000000001137
 21
1043.0
 31
0.0
  0
LINE
  5
13F
100
AcDbEntity
100
AcDbLine
  8
Wiezba
 62
256
370
-1
  6
ByLayer
 10
409.9999999999999432
 20
728.5
 30
0.0
 11
410.0000000000001137
 21
1043.0
 31
0.0
  0
LINE
  5
140
100
AcDbEntity
100
AcDbLine
  8
Wiezba
 62
256
370
-1
  6
ByLayer
 10
916.0
 20
741.5
 30
0.0
 11
916.0
 21
1043.0
 31
0.0
  0
LINE
  5
141
100
AcDbEntity
100
AcDbLine
  8
Wiezba
 62
256
370
-1
  6
ByLayer
 10
903.0
 20
728.5
 30
0.0
 11
903.0
 21
1043.0
 31
0.0
  0
MTEXT
  5
142
100
AcDbEntity
100
AcDbMText
  8
Wymiary
 62
256
370
-1
  6
ByLayer
 10
1450.5856933931854655
 20
882.3839240917072857
 30
0.0
 40
24.0
 41
100.0
 71
1
 72
2
  1
Sciana\~oslonowa
  7
Standard
 50
0.0
 73
1
 44
1.0
  0
MTEXT
  5
143
100
AcDbEntity
100
AcDbMText
  8
Wymiary
 62
256
370
-1
  6
ByLayer
 10
1123.8696760448365239
 20
917.0609438358425223
 30
0.0
 40
24.0
 41
100.0
 71
1
 72
2
  1
Styropian
  7
Standard
 50
0.0
 73
1
 44
1.0
  0
LINE
  5
144
100
AcDbEntity
100
AcDbLine
  8
Wiezba
 62
256
370
-1
  6
ByLayer
 10
390.6715728752536734
 20
494.5000000000001137
 30
0.0
 11
474.8431457505075173
 21
481.5000000000001137
 31
0.0
  0
LINE
  5
145
100
AcDbEntity
100
AcDbLine
  8
0
 62
256
370
-1
  6
ByLayer
 10
365.5
 20
323.5
 30
0.0
 11
365.5
 21
378.5
 31
0.0
  0
LINE
  5
146
100
AcDbEntity
100
AcDbLine
  8
Wiezba
 62
256
370
-1
  6
ByLayer
 10
-105.5
 20
364.5000000000001137
 30
0.0
 11
298.5
 21
364.5000000000001137
 31
0.0
  0
LINE
  5
147
100
AcDbEntity
100
AcDbLine
  8
Wiezba
 62
256
370
-1
  6
ByLayer
 10
382.6715728752536734
 20
364.5000000000001137
 30
0.0
 11
1418.5
 21
364.5000000000001137
 31
0.0
  0
LINE
  5
148
100
AcDbEntity
100
AcDbLine
  8
Wiezba
 62
256
370
-1
  6
ByLayer
 10
656.5
 20
-105.4999999999998863
 30
0.0
 11
656.5
 21
325.1568542494925396
 31
0.0
  0
LINE
  5
149
100
AcDbEntity
100
AcDbLine
  8
Wiezba
 62
256
370
-1
  6
ByLayer
 10
656.5
 20
325.1568542494925396
 30
0.0
 11
977.3284271247464403
 21
4.328427124746014
 31
0.0
  0
LINE
  5
14A
100
AcDbEntity
100
AcDbLine
  8
Wiezba
 62
256
370
-1
  6
ByLayer
 10
656.5
 20
313.8431457505077447
 30
0.0
 11
971.6715728752540144
 21
-1.3284271247464989
 31
0.0
  0
LINE
  5
14B
100
AcDbEntity
100
AcDbLine
  8
Wiezba
 62
256
370
-1
  6
ByLayer
 10
656.5
 20
313.843145750507972
 30
0.0
 11
341.3284271247460424
 21
-1.328427124746554
 31
0.0
  0
LINE
  5
14C
100
AcDbEntity
100
AcDbLine
  8
Wiezba
 62
256
370
-1
  6
ByLayer
 10
656.5
 20
325.1568542494927669
 30
0.0
 11
335.6715728752536734
 21
4.3284271247458719
 31
0.0
  0
LINE
  5
14D
100
AcDbEntity
100
AcDbLine
  8
Wiezba
 62
256
370
-1
  6
ByLayer
 10
1325.5
 20
360.5000000000001137
 30
0.0
 11
1680.0
 21
360.5000000000001137
 31
0.0
  0
LINE
  5
14E
100
AcDbEntity
100
AcDbLine
  8
Wiezba
 62
256
370
-1
  6
ByLayer
 10
1325.5
 20
368.5000000000001137
 30
0.0
 11
1680.0
 21
368.5000000000001137
 31
0.0
  0
LINE
  5
14F
100
AcDbEntity
100
AcDbLine
  8
Wiezba
 62
256
370
-1
  6
ByLayer
 10
1325.5
 20
448.5000000000001137
 30
0.0
 11
1680.0
 21
448.5000000000001137
 31
0.0
  0
LINE
  5
150
100
AcDbEntity
100
AcDbLine
  8
Wiezba
 62
256
370
-1
  6
ByLayer
 10
1325.5
 20
528.5000000000001137
 30
0.0
 11
1680.0
 21
528.5000000000001137
 31
0.0
  0
LINE
  5
151
100
AcDbEntity
100
AcDbLine
  8
Wiezba
 62
256
370
-1
  6
ByLayer
 10
1325.5
 20
608.5000000000001137
 30
0.0
 11
1680.0
 21
608.5000000000001137
 31
0.0
  0
LINE
  5
152
100
AcDbEntity
100
AcDbLine
  8
Wiezba
 62
256
370
-1
  6
ByLayer
 10
1325.5
 20
280.5000000000001137
 30
0.0
 11
1680.0
 21
280.5000000000001137
 31
0.0
  0
LINE
  5
153
100
AcDbEntity
100
AcDbLine
  8
Wiezba
 62
256
370
-1
  6
ByLayer
 10
1325.5
 20
200.5000000000001137
 30
0.0
 11
1680.0
 21
200.5000000000001137
 31
0.0
  0
LINE
  5
154
100
AcDbEntity
100
AcDbLine
  8
Wiezba
 62
256
370
-1
  6
ByLayer
 10
1325.5
 20
120.5000000000001137
 30
0.0
 11
1680.0
 21
120.5000000000001137
 31
0.0
  0
LINE
  5
155
100
AcDbEntity
100
AcDbLine
  8
Wiezba
 62
256
370
-1
  6
ByLayer
 10
1325.5
 20
40.5000000000001137
 30
0.0
 11
1680.0
 21
40.5000000000001137
 31
0.0
  0
LINE
  5
156
100
AcDbEntity
100
AcDbLine
  8
Wiezba
 62
256
370
-1
  6
ByLayer
 10
1325.5
 20
688.5000000000001137
 30
0.0
 11
1680.0
 21
688.5000000000001137
 31
0.0
  0
LINE
  5
157
100
AcDbEntity
100
AcDbLine
  8
Wiezba
 62
256
370
-1
  6
ByLayer
 10
1680.0
 20
40.5000000000001137
 30
0.0
 11
1680.0
 21
688.5000000000001137
 31
0.0
  0
LINE
  5
158
100
AcDbEntity
100
AcDbLine
  8
Wiezba
 62
256
370
-1
  6
ByLayer
 10
1325.5
 20
440.5000000000001137
 30
0.0
 11
1680.0
 21
440.5000000000001137
 31
0.0
  0
LINE
  5
159
100
AcDbEntity
100
AcDbLine
  8
Wiezba
 62
256
370
-1
  6
ByLayer
 10
1325.5
 20
520.5000000000001137
 30
0.0
 11
1680.0
 21
520.5000000000001137
 31
0.0
  0
LINE
  5
15A
100
AcDbEntity
100
AcDbLine
  8
Wiezba
 62
256
370
-1
  6
ByLayer
 10
1325.5
 20
600.5000000000001137
 30
0.0
 11
1680.0
 21
600.5000000000001137
 31
0.0
  0
LINE
  5
15B
100
AcDbEntity
100
AcDbLine
  8
Wiezba
 62
256
370
-1
  6
ByLayer
 10
1325.5
 20
680.5000000000001137
 30
0.0
 11
1680.0
 21
680.5000000000001137
 31
0.0
  0
LINE
  5
15C
100
AcDbEntity
100
AcDbLine
  8
Wiezba
 62
256
370
-1
  6
ByLayer
 10
1325.5
 20
288.5000000000001137
 30
0.0
 11
1680.0
 21
288.5000000000001137
 31
0.0
  0
LINE
  5
15D
100
AcDbEntity
100
AcDbLine
  8
Wiezba
 62
256
370
-1
  6
ByLayer
 10
1325.5
 20
208.5000000000001137
 30
0.0
 11
1680.0
 21
208.5000000000001137
 31
0.0
  0
LINE
  5
15E
100
AcDbEntity
100
AcDbLine
  8
Wiezba
 62
256
370
-1
  6
ByLayer
 10
1325.5
 20
128.5000000000001137
 30
0.0
 11
1680.0
 21
128.5000000000001137
 31
0.0
  0
LINE
  5
15F
100
AcDbEntity
100
AcDbLine
  8
Wiezba
 62
256
370
-1
  6
ByLayer
 10
1325.5
 20
48.5000000000001137
 30
0.0
 11
1680.0
 21
48.5000000000001137
 31
0.0
  0
LINE
  5
160
100
AcDbEntity
100
AcDbLine
  8
Wiezba
 62
256
370
-1
  6
ByLayer
 10
1647.5
 20
40.5000000000001137
 30
0.0
 11
1647.5
 21
688.5000000000001137
 31
0.0
  0
LINE
  5
161
100
AcDbEntity
100
AcDbLine
  8
Wiezba
 62
256
370
-1
  6
ByLayer
 10
1634.5
 20
40.5000000000001137
 30
0.0
 11
1634.5
 21
688.5000000000001137
 31
0.0
  0
LINE
  5
162
100
AcDbEntity
100
AcDbLine
  8
Wiezba
 62
256
370
-1
  6
ByLayer
 10
1634.5
 20
659.0
 30
0.0
 11
1647.5
 21
659.0
 31
0.0
  0
LINE
  5
163
100
AcDbEntity
100
AcDbLine
  8
Wiezba
 62
256
370
-1
  6
ByLayer
 10
1634.5
 20
646.0
 30
0.0
 11
1647.5
 21
646.0
 31
0.0
  0
LINE
  5
164
100
AcDbEntity
100
AcDbLine
  8
Wiezba
 62
256
370
-1
  6
ByLayer
 10
1634.5
 20
467.0
 30
0.0
 11
1647.5
 21
467.0
 31
0.0
  0
LINE
  5
165
100
AcDbEntity
100
AcDbLine
  8
Wiezba
 62
256
370
-1
  6
ByLayer
 10
1634.5
 20
454.0
 30
0.0
 11
1647.5
 21
454.0
 31
0.0
  0
LINE
  5
166
100
AcDbEntity
100
AcDbLine
  8
Wiezba
 62
256
370
-1
  6
ByLayer
 10
1634.5
 20
275.0
 30
0.0
 11
1647.5
 21
275.0
 31
0.0
  0
LINE
  5
167
100
AcDbEntity
100
AcDbLine
  8
Wiezba
 62
256
370
-1
  6
ByLayer
 10
1634.5
 20
262.0
 30
0.0
 11
1647.5
 21
262.0
 31
0.0
  0
LINE
  5
168
100
AcDbEntity
100
AcDbLine
  8
Wiezba
 62
256
370
-1
  6
ByLayer
 10
1634.5
 20
83.000000000000199
 30
0.0
 11
1647.5
 21
83.0000000000001421
 31
0.0
  0
LINE
  5
169
100
AcDbEntity
100
AcDbLine
  8
Wiezba
 62
256
370
-1
  6
ByLayer
 10
1634.5
 20
70.0000000000002274
 30
0.0
 11
1647.5
 21
70.0000000000002274
 31
0.0
  0
LINE
  5
16A
100
AcDbEntity
100
AcDbLine
  8
Wiezba
 62
256
370
-1
  6
ByLayer
 10
1325.5
 20
-630.6717334375725841
 30
0.0
 11
2048.0
 21
-630.6717334375725841
 31
0.0
  0
LINE
  5
16B
100
AcDbEntity
100
AcDbLine
  8
Wiezba
 62
256
370
-1
  6
ByLayer
 10
1325.5
 20
-630.6717334375725841
 30
0.0
 11
1325.5
 21
-307.4987919781714822
 31
0.0
  0
LINE
  5
16C
100
AcDbEntity
100
AcDbLine
  8
Wiezba
 62
256
370
-1
  6
ByLayer
 10
1358.0
 20
-630.6717334375725841
 30
0.0
 11
1358.0
 21
-316.2071407321830065
 31
0.0
  0
LINE
  5
16D
100
AcDbEntity
100
AcDbLine
  8
Wiezba
 62
256
370
-1
  6
ByLayer
 10
1647.5
 20
-630.6717334375725841
 30
0.0
 11
1647.5
 21
-410.6717334375725841
 31
0.0
  0
LINE
  5
16E
100
AcDbEntity
100
AcDbLine
  8
Wiezba
 62
256
370
-1
  6
ByLayer
 10
1634.5
 20
-630.6717334375725841
 30
0.0
 11
1634.5
 21
-410.6717334375725841
 31
0.0
  0
LINE
  5
16F
100
AcDbEntity
100
AcDbLine
  8
Wiezba
 62
256
370
-1
  6
ByLayer
 10
1634.5
 20
-410.6717334375725841
 30
0.0
 11
1647.5
 21
-410.6717334375725841
 31
0.0
  0
LINE
  5
170
100
AcDbEntity
100
AcDbLine
  8
Wiezba
 62
256
370
-1
  6
ByLayer
 10
1358.0
 20
-334.8421119795645495
 30
0.0
 11
1680.0
 21
-421.1217519423864246
 31
0.0
  0
LINE
  5
171
100
AcDbEntity
100
AcDbLine
  8
Wiezba
 62
256
370
-1
  6
ByLayer
 10
1680.0
 20
-421.1217519423864246
 30
0.0
 11
1680.0
 21
-402.4867806950048816
 31
0.0
  0
LINE
  5
172
100
AcDbEntity
100
AcDbLine
  8
Wiezba
 62
256
370
-1
  6
ByLayer
 10
1358.0
 20
-316.2071407321830065
 30
0.0
 11
1680.0
 21
-402.4867806950048816
 31
0.0
  0
DIMENSION
  5
173
100
AcDbEntity
  8
Wymiary
 62
256
370
-1
  6
ByLayer
100
AcDbDimension
 10
1740.9566615544943033
 20
40.5000000000001066
 30
0.0
 11
1726.9566615544943033
 21
364.5000000000001137
 31
0.0
 70
0
 71
5
 72
0
 41
1.0
 42
0.0
  1

  3
Standard
100
AcDbAlignedDimension
 13
1680.0
 23
688.5000000000001137
 33
0.0
 14
1680.0
 24
40.5000000000001137
 34
0.0
 50
90.0
100
AcDbRotatedDimension
  0
DIMENSION
  5
174
100
AcDbEntity
  8
Wymiary
 62
256
370
-1
  6
ByLayer
100
AcDbDimension
 10
1680.0
 20
-12.4999999999999929
 30
0.0
 11
1519.0
 21
1.5000000000000071
 31
0.0
 70
0
 71
5
 72
0
 41
1.0
 42
0.0
  1

  3
Standard
100
AcDbAlignedDimension
 13
1358.0
 23
-12.5
 33
0.0
 14
1680.0
 24
40.5000000000001137
 34
0.0
 50
0.0
100
AcDbRotatedDimension
  0
LINE
  5
175
100
AcDbEntity
100
AcDbLine
  8
Wiezba
 62
256
370
-1
  6
ByLayer
 10
1358.0
 20
-423.6717334375725841
 30
0.0
 11
1647.5
 21
-423.6717334375725841
 31
0.0
  0
LINE
  5
176
100
AcDbEntity
100
AcDbLine
  8
Wiezba
 62
256
370
-1
  6
ByLayer
 10
1576.8940141727673563
 20
-406.9054507543391992
 30
0.0
 11
1647.6046922914219977
 21
-477.6161288729939542
 31
0.0
  0
LINE
  5
177
100
AcDbEntity
100
AcDbLine
  8
Wiezba
 62
256
370
-1
  6
ByLayer
 10
1569.2247519216632554
 20
-416.2789935056886179
 30
0.0
 11
1639.9354300403178968
 21
-486.989671624343373
 31
0.0
  0
ENDSEC
  0
SECTION
  2
OBJECTS
  0
DICTIONARY
  5
C
100
AcDbDictionary
280
0
281
1
  3
ACAD_GROUP
350
D
  3
ACAD_LAYOUT
350
1A
  3
ACAD_MLINESTYLE
350
17
  3
ACAD_PLOTSETTINGS
350
19
  3
ACAD_PLOTSTYLENAME
350
E
  3
AcDbVariableDictionary
350
178
  0
DICTIONARY
  5
D
100
AcDbDictionary
280
0
281
1
  0
ACDBDICTIONARYWDFLT
  5
E
100
AcDbDictionary
281
1
  3
Normal
350
F
100
AcDbDictionaryWithDefault
340
F
  0
ACDBPLACEHOLDER
  5
F
  0
DICTIONARY
  5
17
100
AcDbDictionary
280
0
281
1
  3
Standard
350
18
  0
MLINESTYLE
  5
18
100
AcDbMlineStyle
  2
STANDARD
 70
0
  3

 62
256
 51
90.0
 52
90.0
 71
2
 49
0.5
 62
256
  6
BYLAYER
 49
-0.5
 62
256
  6
BYLAYER
  0
DICTIONARY
  5
19
100
AcDbDictionary
280
0
281
1
  0
DICTIONARY
  5
1A
100
AcDbDictionary
281
1
  3
Layout1
350
1E
  3
Layout2
350
26
  3
Model
350
22
  0
LAYOUT
  5
1E
100
AcDbPlotSettings
  1

  2
C:\Program Files\AutoCAD 2002\plotters\DWF ePlot (optimized for plotting).pc3
  4

  6

 40
0.0
 41
0.0
 42
0.0
 43
0.0
 44
0.0
 45
0.0
 46
0.0
 47
0.0
 48
0.0
 49
0.0
140
0.0
141
0.0
142
1.0
143
1.0
 70
688
 72
0
 73
0
 74
5
  7

 75
16
147
1.0
148
0.0
149
0.0
100
AcDbLayout
  1
Layout1
 70
1
 71
1
 10
0.0
 20
0.0
 11
420.0
 21
297.0
 12
0.0
 22
0.0
 32
0.0
 14
100000000000000000000.0
 24
100000000000000000000.0
 34
100000000000000000000.0
 15
-100000000000000000000.0
 25
-100000000000000000000.0
 35
-100000000000000000000.0
146
0.0
 13
0.0
 23
0.0
 33
0.0
 16
1.0
 26
0.0
 36
0.0
 17
0.0
 27
1.0
 37
0.0
 76
0
330
1B
  0
LAYOUT
  5
22
100
AcDbPlotSettings
  1

  2
C:\Program Files\AutoCAD 2002\plotters\DWF ePlot (optimized for plotting).pc3
  4

  6

 40
0.0
 41
0.0
 42
0.0
 43
0.0
 44
0.0
 45
0.0
 46
0.0
 47
0.0
 48
0.0
 49
0.0
140
0.0
141
0.0
142
1.0
143
1.0
 70
1712
 72
0
 73
0
 74
0
  7

 75
0
147
1.0
148
0.0
149
0.0
100
AcDbLayout
  1
Model
 70
1
 71
0
 10
0.0
 20
0.0
 11
12.0
 21
9.0
 12
0.0
 22
0.0
 32
0.0
 14
0.0
 24
0.0
 34
0.0
 15
0.0
 25
0.0
 35
0.0
146
0.0
 13
0.0
 23
0.0
 33
0.0
 16
1.0
 26
0.0
 36
0.0
 17
0.0
 27
1.0
 37
0.0
 76
0
330
1F
  0
LAYOUT
  5
26
100
AcDbPlotSettings
  1

  2
C:\Program Files\AutoCAD 2002\plotters\DWF ePlot (optimized for plotting).pc3
  4

  6

 40
0.0
 41
0.0
 42
0.0
 43
0.0
 44
0.0
 45
0.0
 46
0.0
 47
0.0
 48
0.0
 49
0.0
140
0.0
141
0.0
142
1.0
143
1.0
 70
688
 72
0
 73
0
 74
5
  7

 75
16
147
1.0
148
0.0
149
0.0
100
AcDbLayout
  1
Layout2
 70
1
 71
2
 10
0.0
 20
0.0
 11
12.0
 21
9.0
 12
0.0
 22
0.0
 32
0.0
 14
0.0
 24
0.0
 34
0.0
 15
0.0
 25
0.0
 35
0.0
146
0.0
 13
0.0
 23
0.0
 33
0.0
 16
1.0
 26
0.0
 36
0.0
 17
0.0
 27
1.0
 37
0.0
 76
0
330
23
  0
DICTIONARY
  5
178
100
AcDbDictionary
281
1
  3
DIMASSOC
350
17A
  3
HIDETEXT
350
179
  0
DICTIONARYVAR
  5
179
100
DictionaryVariables
280
0
  1
2
  0
DICTIONARYVAR
  5
17A
100
DictionaryVariables
280
0
  1
1
  0
ENDSEC
  0
EOF
