  0
SECTION
  2
HEADER
  9
$LIMMIN
 10
-330.000000
 20
-840.397542
  9
$LIMMAX
 10
1870.705984
 20
94.448197
  9
$EXTMIN
 10
-330.000000
 20
-840.397542
  9
$EXTMAX
 10
1870.705984
 20
94.448197
  9
$ANGBASE
 50
0.000000
  9
$ANGDIR
 70
0
  9
$INSUNITS
 70
5
  9
$DIMALT
 70
5
  9
$DIMLUNIT
 70
2
  9
$DIMASZ
 40
3.000000
  9
$DIMTXT
 40
5.000000
  9
$DIMRND
 40
0.010000
  9
$DIMEXE
 40
2.000000
  9
$DIMEXO
 40
2.000000
  9
$DIMAUNIT
 70
0
  9
$DIMADEC
 70
2
  9
$GRIDUNIT
 10
1.000000
 20
1.000000
  9
$PLIMMIN
 10
-4.466550
 20
-18.466200
  9
$PLIMMAX
 10
25.233450
 20
2.533800
  9
$PSVPSCALE
 40
0.013333
  0
ENDSEC
  0
SECTION
  2
TABLES
  0
TABLE
  2
LTYPE
 70
     1
  0
LTYPE
  2
CONTINUOUS
 70
    64
  3
Ausgez
 72
    65
 73
  0
 40
0.000000
  0
ENDTAB
  0
TABLE
  2
LAYER
 70
     1
  0
LAYER
  2
default
 70
    64
 62
7
  6
CONTINUOUS
  0
LAYER
  2
Parter-wymiar
 70
    64
 62
7
  6
CONTINUOUS
  0
LAYER
  2
Parter
 70
    64
 62
7
  6
CONTINUOUS
  0
ENDTAB
  0
ENDSEC
  0
SECTION
  2
BLOCKS
  0
ENDSEC
  0
SECTION
  2
ENTITIES
  0
LINE
  8
Parter
  6
CONTINUOUS
 10
252.500000
 20
-257.500000
 11
255.000000
 21
-270.000000
 39
2
 62
7
  0
LINE
  8
Parter
  6
CONTINUOUS
 10
255.000000
 20
-270.000000
 11
252.500000
 21
-270.000000
 39
2
 62
7
  0
LINE
  8
Parter
  6
CONTINUOUS
 10
252.500000
 20
-270.000000
 11
250.000000
 21
-257.500000
 39
2
 62
7
  0
LINE
  8
Parter
  6
CONTINUOUS
 10
250.000000
 20
-257.500000
 11
252.500000
 21
-257.500000
 39
2
 62
7
  0
LINE
  8
Parter
  6
CONTINUOUS
 10
252.500000
 20
-267.500000
 11
255.000000
 21
-280.000000
 39
2
 62
7
  0
LINE
  8
Parter
  6
CONTINUOUS
 10
255.000000
 20
-280.000000
 11
252.500000
 21
-280.000000
 39
2
 62
7
  0
LINE
  8
Parter
  6
CONTINUOUS
 10
252.500000
 20
-280.000000
 11
250.000000
 21
-267.500000
 39
2
 62
7
  0
LINE
  8
Parter
  6
CONTINUOUS
 10
250.000000
 20
-267.500000
 11
252.500000
 21
-267.500000
 39
2
 62
7
  0
LINE
  8
Parter
  6
CONTINUOUS
 10
-252.500000
 20
-257.500000
 11
-255.000000
 21
-270.000000
 39
2
 62
7
  0
LINE
  8
Parter
  6
CONTINUOUS
 10
-255.000000
 20
-270.000000
 11
-252.500000
 21
-270.000000
 39
2
 62
7
  0
LINE
  8
Parter
  6
CONTINUOUS
 10
-252.500000
 20
-270.000000
 11
-250.000000
 21
-257.500000
 39
2
 62
7
  0
LINE
  8
Parter
  6
CONTINUOUS
 10
-252.500000
 20
-267.500000
 11
-255.000000
 21
-280.000000
 39
2
 62
7
  0
LINE
  8
Parter
  6
CONTINUOUS
 10
-255.000000
 20
-280.000000
 11
-252.500000
 21
-280.000000
 39
2
 62
7
  0
LINE
  8
Parter
  6
CONTINUOUS
 10
-252.500000
 20
-280.000000
 11
-250.000000
 21
-267.500000
 39
2
 62
7
  0
LINE
  8
Parter
  6
CONTINUOUS
 10
-10.000000
 20
-230.000000
 11
15.000000
 21
-230.000000
 39
2
 62
7
  0
LINE
  8
Parter
  6
CONTINUOUS
 10
15.000000
 20
-230.000000
 11
15.000000
 21
-227.500000
 39
2
 62
7
  0
LINE
  8
Parter
  6
CONTINUOUS
 10
15.000000
 20
-227.500000
 11
-10.000000
 21
-227.500000
 39
2
 62
7
  0
LINE
  8
Parter
  6
CONTINUOUS
 10
-10.000000
 20
-227.500000
 11
-10.000000
 21
-230.000000
 39
2
 62
7
  0
LINE
  8
Parter
  6
CONTINUOUS
 10
15.000000
 20
-227.500000
 11
40.000000
 21
-227.500000
 39
2
 62
7
  0
LINE
  8
Parter
  6
CONTINUOUS
 10
40.000000
 20
-227.500000
 11
40.000000
 21
-230.000000
 39
2
 62
7
  0
LINE
  8
Parter
  6
CONTINUOUS
 10
40.000000
 20
-230.000000
 11
15.000000
 21
-230.000000
 39
2
 62
7
  0
LINE
  8
Parter
  6
CONTINUOUS
 10
15.000000
 20
-230.000000
 11
15.000000
 21
-227.500000
 39
2
 62
7
  0
LINE
  8
Parter
  6
CONTINUOUS
 10
40.000000
 20
-227.500000
 11
65.000000
 21
-227.500000
 39
2
 62
7
  0
LINE
  8
Parter
  6
CONTINUOUS
 10
65.000000
 20
-227.500000
 11
65.000000
 21
-230.000000
 39
2
 62
7
  0
LINE
  8
Parter
  6
CONTINUOUS
 10
65.000000
 20
-230.000000
 11
40.000000
 21
-230.000000
 39
2
 62
7
  0
LINE
  8
Parter
  6
CONTINUOUS
 10
40.000000
 20
-230.000000
 11
40.000000
 21
-227.500000
 39
2
 62
7
  0
LINE
  8
Parter
  6
CONTINUOUS
 10
65.000000
 20
-227.500000
 11
90.000000
 21
-227.500000
 39
2
 62
7
  0
LINE
  8
Parter
  6
CONTINUOUS
 10
90.000000
 20
-227.500000
 11
90.000000
 21
-230.000000
 39
2
 62
7
  0
LINE
  8
Parter
  6
CONTINUOUS
 10
90.000000
 20
-230.000000
 11
65.000000
 21
-230.000000
 39
2
 62
7
  0
LINE
  8
Parter
  6
CONTINUOUS
 10
65.000000
 20
-230.000000
 11
65.000000
 21
-227.500000
 39
2
 62
7
  0
LINE
  8
Parter
  6
CONTINUOUS
 10
90.000000
 20
-227.500000
 11
115.000000
 21
-227.500000
 39
2
 62
7
  0
LINE
  8
Parter
  6
CONTINUOUS
 10
115.000000
 20
-227.500000
 11
115.000000
 21
-230.000000
 39
2
 62
7
  0
LINE
  8
Parter
  6
CONTINUOUS
 10
115.000000
 20
-230.000000
 11
90.000000
 21
-230.000000
 39
2
 62
7
  0
LINE
  8
Parter
  6
CONTINUOUS
 10
90.000000
 20
-230.000000
 11
90.000000
 21
-227.500000
 39
2
 62
7
  0
LINE
  8
Parter
  6
CONTINUOUS
 10
115.000000
 20
-227.500000
 11
140.000000
 21
-227.500000
 39
2
 62
7
  0
LINE
  8
Parter
  6
CONTINUOUS
 10
140.000000
 20
-227.500000
 11
140.000000
 21
-230.000000
 39
2
 62
7
  0
LINE
  8
Parter
  6
CONTINUOUS
 10
140.000000
 20
-230.000000
 11
115.000000
 21
-230.000000
 39
2
 62
7
  0
LINE
  8
Parter
  6
CONTINUOUS
 10
115.000000
 20
-230.000000
 11
115.000000
 21
-227.500000
 39
2
 62
7
  0
LINE
  8
Parter
  6
CONTINUOUS
 10
140.000000
 20
-227.500000
 11
165.000000
 21
-227.500000
 39
2
 62
7
  0
LINE
  8
Parter
  6
CONTINUOUS
 10
165.000000
 20
-227.500000
 11
165.000000
 21
-230.000000
 39
2
 62
7
  0
LINE
  8
Parter
  6
CONTINUOUS
 10
165.000000
 20
-230.000000
 11
140.000000
 21
-230.000000
 39
2
 62
7
  0
LINE
  8
Parter
  6
CONTINUOUS
 10
140.000000
 20
-230.000000
 11
140.000000
 21
-227.500000
 39
2
 62
7
  0
LINE
  8
Parter
  6
CONTINUOUS
 10
165.000000
 20
-227.500000
 11
190.000000
 21
-227.500000
 39
2
 62
7
  0
LINE
  8
Parter
  6
CONTINUOUS
 10
190.000000
 20
-227.500000
 11
190.000000
 21
-230.000000
 39
2
 62
7
  0
LINE
  8
Parter
  6
CONTINUOUS
 10
190.000000
 20
-230.000000
 11
165.000000
 21
-230.000000
 39
2
 62
7
  0
LINE
  8
Parter
  6
CONTINUOUS
 10
165.000000
 20
-230.000000
 11
165.000000
 21
-227.500000
 39
2
 62
7
  0
LINE
  8
Parter
  6
CONTINUOUS
 10
190.000000
 20
-227.500000
 11
215.000000
 21
-227.500000
 39
2
 62
7
  0
LINE
  8
Parter
  6
CONTINUOUS
 10
215.000000
 20
-227.500000
 11
215.000000
 21
-230.000000
 39
2
 62
7
  0
LINE
  8
Parter
  6
CONTINUOUS
 10
215.000000
 20
-230.000000
 11
190.000000
 21
-230.000000
 39
2
 62
7
  0
LINE
  8
Parter
  6
CONTINUOUS
 10
190.000000
 20
-230.000000
 11
190.000000
 21
-227.500000
 39
2
 62
7
  0
LINE
  8
Parter
  6
CONTINUOUS
 10
215.000000
 20
-227.500000
 11
225.000000
 21
-227.500000
 39
2
 62
7
  0
LINE
  8
Parter
  6
CONTINUOUS
 10
225.000000
 20
-227.500000
 11
225.000000
 21
-230.000000
 39
2
 62
7
  0
LINE
  8
Parter
  6
CONTINUOUS
 10
225.000000
 20
-230.000000
 11
215.000000
 21
-230.000000
 39
2
 62
7
  0
LINE
  8
Parter
  6
CONTINUOUS
 10
215.000000
 20
-230.000000
 11
215.000000
 21
-227.500000
 39
2
 62
7
  0
LINE
  8
Parter
  6
CONTINUOUS
 10
-10.000000
 20
-227.500000
 11
-35.000000
 21
-227.500000
 39
2
 62
7
  0
LINE
  8
Parter
  6
CONTINUOUS
 10
-35.000000
 20
-227.500000
 11
-35.000000
 21
-230.000000
 39
2
 62
7
  0
LINE
  8
Parter
  6
CONTINUOUS
 10
-35.000000
 20
-230.000000
 11
-10.000000
 21
-230.000000
 39
2
 62
7
  0
LINE
  8
Parter
  6
CONTINUOUS
 10
-10.000000
 20
-230.000000
 11
-10.000000
 21
-227.500000
 39
2
 62
7
  0
LINE
  8
Parter
  6
CONTINUOUS
 10
-35.000000
 20
-230.000000
 11
-60.000000
 21
-230.000000
 39
2
 62
7
  0
LINE
  8
Parter
  6
CONTINUOUS
 10
-60.000000
 20
-230.000000
 11
-60.000000
 21
-227.500000
 39
2
 62
7
  0
LINE
  8
Parter
  6
CONTINUOUS
 10
-60.000000
 20
-227.500000
 11
-35.000000
 21
-227.500000
 39
2
 62
7
  0
LINE
  8
Parter
  6
CONTINUOUS
 10
-35.000000
 20
-227.500000
 11
-35.000000
 21
-230.000000
 39
2
 62
7
  0
LINE
  8
Parter
  6
CONTINUOUS
 10
-60.000000
 20
-230.000000
 11
-85.000000
 21
-230.000000
 39
2
 62
7
  0
LINE
  8
Parter
  6
CONTINUOUS
 10
-85.000000
 20
-230.000000
 11
-85.000000
 21
-227.500000
 39
2
 62
7
  0
LINE
  8
Parter
  6
CONTINUOUS
 10
-85.000000
 20
-227.500000
 11
-60.000000
 21
-227.500000
 39
2
 62
7
  0
LINE
  8
Parter
  6
CONTINUOUS
 10
-60.000000
 20
-227.500000
 11
-60.000000
 21
-230.000000
 39
2
 62
7
  0
LINE
  8
Parter
  6
CONTINUOUS
 10
-85.000000
 20
-230.000000
 11
-110.000000
 21
-230.000000
 39
2
 62
7
  0
LINE
  8
Parter
  6
CONTINUOUS
 10
-110.000000
 20
-230.000000
 11
-110.000000
 21
-227.500000
 39
2
 62
7
  0
LINE
  8
Parter
  6
CONTINUOUS
 10
-110.000000
 20
-227.500000
 11
-85.000000
 21
-227.500000
 39
2
 62
7
  0
LINE
  8
Parter
  6
CONTINUOUS
 10
-85.000000
 20
-227.500000
 11
-85.000000
 21
-230.000000
 39
2
 62
7
  0
LINE
  8
Parter
  6
CONTINUOUS
 10
-110.000000
 20
-230.000000
 11
-137.500000
 21
-230.000000
 39
2
 62
7
  0
LINE
  8
Parter
  6
CONTINUOUS
 10
-137.500000
 20
-230.000000
 11
-137.500000
 21
-227.500000
 39
2
 62
7
  0
LINE
  8
Parter
  6
CONTINUOUS
 10
-137.500000
 20
-227.500000
 11
-110.000000
 21
-227.500000
 39
2
 62
7
  0
LINE
  8
Parter
  6
CONTINUOUS
 10
-110.000000
 20
-227.500000
 11
-110.000000
 21
-230.000000
 39
2
 62
7
  0
LINE
  8
Parter
  6
CONTINUOUS
 10
-137.500000
 20
-230.000000
 11
-175.000000
 21
-230.000000
 39
2
 62
7
  0
LINE
  8
Parter
  6
CONTINUOUS
 10
-175.000000
 20
-230.000000
 11
-175.000000
 21
-227.500000
 39
2
 62
7
  0
LINE
  8
Parter
  6
CONTINUOUS
 10
-175.000000
 20
-227.500000
 11
-137.500000
 21
-227.500000
 39
2
 62
7
  0
LINE
  8
Parter
  6
CONTINUOUS
 10
-137.500000
 20
-227.500000
 11
-137.500000
 21
-230.000000
 39
2
 62
7
  0
LINE
  8
Parter
  6
CONTINUOUS
 10
-175.000000
 20
-230.000000
 11
-197.500000
 21
-230.000000
 39
2
 62
7
  0
LINE
  8
Parter
  6
CONTINUOUS
 10
-197.500000
 20
-230.000000
 11
-197.500000
 21
-227.500000
 39
2
 62
7
  0
LINE
  8
Parter
  6
CONTINUOUS
 10
-197.500000
 20
-227.500000
 11
-175.000000
 21
-227.500000
 39
2
 62
7
  0
LINE
  8
Parter
  6
CONTINUOUS
 10
-175.000000
 20
-227.500000
 11
-175.000000
 21
-230.000000
 39
2
 62
7
  0
LINE
  8
Parter
  6
CONTINUOUS
 10
-197.500000
 20
-230.000000
 11
-225.000000
 21
-230.000000
 39
2
 62
7
  0
LINE
  8
Parter
  6
CONTINUOUS
 10
-225.000000
 20
-230.000000
 11
-225.000000
 21
-227.500000
 39
2
 62
7
  0
LINE
  8
Parter
  6
CONTINUOUS
 10
-225.000000
 20
-227.500000
 11
-197.500000
 21
-227.500000
 39
2
 62
7
  0
LINE
  8
Parter
  6
CONTINUOUS
 10
-197.500000
 20
-227.500000
 11
-197.500000
 21
-230.000000
 39
2
 62
7
  0
LINE
  8
Parter
  6
CONTINUOUS
 10
-225.000000
 20
-470.000000
 11
225.000000
 21
-470.000000
 39
2
 62
7
  0
LINE
  8
Parter
  6
CONTINUOUS
 10
225.000000
 20
-470.000000
 11
225.000000
 21
-472.500000
 39
2
 62
7
  0
LINE
  8
Parter
  6
CONTINUOUS
 10
-250.000000
 20
-472.500000
 11
250.000000
 21
-472.500000
 39
2
 62
7
  0
LINE
  8
Parter
  6
CONTINUOUS
 10
-250.000000
 20
-472.500000
 11
250.000000
 21
-472.500000
 39
2
 62
7
  0
LINE
  8
Parter
  6
CONTINUOUS
 10
250.000000
 20
-472.500000
 11
250.000000
 21
-512.500000
 39
2
 62
7
  0
LINE
  8
Parter
  6
CONTINUOUS
 10
250.000000
 20
-512.500000
 11
-250.000000
 21
-512.500000
 39
2
 62
7
  0
LINE
  8
Parter
  6
CONTINUOUS
 10
-250.000000
 20
-512.500000
 11
-250.000000
 21
-472.500000
 39
2
 62
7
  0
LINE
  8
Parter
  6
CONTINUOUS
 10
-242.500000
 20
-472.500000
 11
-242.500000
 21
-512.500000
 39
2
 62
7
  0
LINE
  8
Parter
  6
CONTINUOUS
 10
-235.000000
 20
-472.500000
 11
-235.000000
 21
-512.500000
 39
2
 62
7
  0
LINE
  8
Parter
  6
CONTINUOUS
 10
-225.000000
 20
-472.500000
 11
-225.000000
 21
-512.500000
 39
2
 62
7
  0
LINE
  8
Parter
  6
CONTINUOUS
 10
435.705609
 20
-275.397167
 11
885.705609
 21
-275.397167
 39
2
 62
7
  0
LINE
  8
Parter
  6
CONTINUOUS
 10
885.705609
 20
-275.397167
 11
885.705609
 21
-725.397167
 39
2
 62
7
  0
LINE
  8
Parter
  6
CONTINUOUS
 10
885.705609
 20
-725.397167
 11
435.705609
 21
-725.397167
 39
2
 62
7
  0
LINE
  8
Parter
  6
CONTINUOUS
 10
435.705609
 20
-725.397167
 11
435.705609
 21
-275.397167
 39
2
 62
7
  0
LINE
  8
Parter
  6
CONTINUOUS
 10
895.705609
 20
-275.397167
 11
1345.705609
 21
-275.397167
 39
2
 62
7
  0
LINE
  8
Parter
  6
CONTINUOUS
 10
1345.705609
 20
-275.397167
 11
1345.705609
 21
-725.397167
 39
2
 62
7
  0
LINE
  8
Parter
  6
CONTINUOUS
 10
1345.705609
 20
-725.397167
 11
895.705609
 21
-725.397167
 39
2
 62
7
  0
LINE
  8
Parter
  6
CONTINUOUS
 10
895.705609
 20
-725.397167
 11
895.705609
 21
-275.397167
 39
2
 62
7
  0
LINE
  8
Parter
  6
CONTINUOUS
 10
1355.705609
 20
-275.397167
 11
1745.705609
 21
-275.397167
 39
2
 62
7
  0
LINE
  8
Parter
  6
CONTINUOUS
 10
1745.705609
 20
-275.397167
 11
1745.705609
 21
-725.397167
 39
2
 62
7
  0
LINE
  8
Parter
  6
CONTINUOUS
 10
1745.705609
 20
-725.397167
 11
1355.705609
 21
-725.397167
 39
2
 62
7
  0
LINE
  8
Parter
  6
CONTINUOUS
 10
1355.705609
 20
-725.397167
 11
1355.705609
 21
-275.397167
 39
2
 62
7
  0
LINE
  8
Parter
  6
CONTINUOUS
 10
675.705609
 20
-265.397167
 11
1095.705609
 21
-265.397167
 39
2
 62
7
  0
LINE
  8
Parter
  6
CONTINUOUS
 10
1095.705609
 20
-265.397167
 11
1095.705609
 21
-65.397167
 39
2
 62
7
  0
LINE
  8
Parter
  6
CONTINUOUS
 10
1095.705609
 20
-65.397167
 11
675.705609
 21
-65.397167
 39
2
 62
7
  0
LINE
  8
Parter
  6
CONTINUOUS
 10
675.705609
 20
-65.397167
 11
675.705609
 21
-265.397167
 39
2
 62
7
  0
LINE
  8
Parter
  6
CONTINUOUS
 10
425.705609
 20
-265.397167
 11
425.705609
 21
-735.397167
 39
2
 62
7
  0
LINE
  8
Parter
  6
CONTINUOUS
 10
425.705609
 20
-735.397167
 11
1755.705609
 21
-735.397167
 39
2
 62
7
  0
LINE
  8
Parter
  6
CONTINUOUS
 10
1755.705609
 20
-735.397167
 11
1755.705609
 21
-265.397167
 39
2
 62
7
  0
LINE
  8
Parter
  6
CONTINUOUS
 10
1755.705609
 20
-265.397167
 11
1105.705609
 21
-265.397167
 39
2
 62
7
  0
LINE
  8
Parter
  6
CONTINUOUS
 10
1105.705609
 20
-265.397167
 11
1105.705609
 21
-55.397167
 39
2
 62
7
  0
LINE
  8
Parter
  6
CONTINUOUS
 10
1105.705609
 20
-55.397167
 11
665.705609
 21
-55.397167
 39
2
 62
7
  0
LINE
  8
Parter
  6
CONTINUOUS
 10
665.705609
 20
-55.397167
 11
665.705609
 21
-265.397167
 39
2
 62
7
  0
HATCH
  8
Parter
  6
CONTINUOUS
  1
 
  2
45
 70
0
 91
1
 72
1
 10
435.705609
 20
-275.397167
 11
885.705609
 21
-275.397167
 72
1
 10
885.705609
 20
-275.397167
 11
885.705609
 21
-725.397167
 72
1
 10
885.705609
 20
-725.397167
 11
435.705609
 21
-725.397167
 72
1
 10
435.705609
 20
-725.397167
 11
435.705609
 21
-275.397167
 72
1
 10
895.705609
 20
-275.397167
 11
1345.705609
 21
-275.397167
 72
1
 10
1345.705609
 20
-275.397167
 11
1345.705609
 21
-725.397167
 72
1
 10
1345.705609
 20
-725.397167
 11
895.705609
 21
-725.397167
 72
1
 10
895.705609
 20
-725.397167
 11
895.705609
 21
-275.397167
 72
1
 10
1355.705609
 20
-275.397167
 11
1745.705609
 21
-275.397167
 72
1
 10
1745.705609
 20
-275.397167
 11
1745.705609
 21
-725.397167
 72
1
 10
1745.705609
 20
-725.397167
 11
1355.705609
 21
-725.397167
 72
1
 10
1355.705609
 20
-725.397167
 11
1355.705609
 21
-275.397167
 72
1
 10
675.705609
 20
-265.397167
 11
1095.705609
 21
-265.397167
 72
1
 10
1095.705609
 20
-265.397167
 11
1095.705609
 21
-65.397167
 72
1
 10
1095.705609
 20
-65.397167
 11
675.705609
 21
-65.397167
 72
1
 10
675.705609
 20
-65.397167
 11
675.705609
 21
-265.397167
 72
1
 10
425.705609
 20
-265.397167
 11
425.705609
 21
-735.397167
 72
1
 10
425.705609
 20
-735.397167
 11
1755.705609
 21
-735.397167
 72
1
 10
1755.705609
 20
-735.397167
 11
1755.705609
 21
-265.397167
 72
1
 10
1755.705609
 20
-265.397167
 11
1105.705609
 21
-265.397167
 72
1
 10
1105.705609
 20
-265.397167
 11
1105.705609
 21
-55.397167
 72
1
 10
1105.705609
 20
-55.397167
 11
665.705609
 21
-55.397167
 72
1
 10
665.705609
 20
-55.397167
 11
665.705609
 21
-265.397167
 72
1
 10
665.705609
 20
-265.397167
 11
425.705609
 21
-265.397167
 75
0
 76
1
 52
0.000000
 91
1
 41
5.000000
 77
0
 39
2
 62
7
  0
LINE
  8
Parter
  6
CONTINUOUS
 10
425.705609
 20
-265.397167
 11
665.705609
 21
-265.397167
 39
2
 62
7
  0
LINE
  8
Parter
  6
CONTINUOUS
 10
242.500000
 20
-472.500000
 11
242.500000
 21
-512.500000
 39
2
 62
7
  0
LINE
  8
Parter
  6
CONTINUOUS
 10
235.000000
 20
-472.500000
 11
235.000000
 21
-512.500000
 39
2
 62
7
  0
LINE
  8
Parter
  6
CONTINUOUS
 10
225.000000
 20
-472.500000
 11
225.000000
 21
-512.500000
 39
2
 62
7
  0
DIMENSION
  8
Parter-wymiar
  6
CONTINUOUS
  1
;;
 10
255.000000
 20
-345.000000
 13
255.000000
 23
-280.000000
 14
330.000000
 24
-280.000000
 50
0.000000
 70
0
 39
0
 62
7
  0
DIMENSION
  8
Parter-wymiar
  6
CONTINUOUS
  1
;;
 10
-225.000000
 20
-455.000000
 13
-225.000000
 23
-465.000000
 14
225.000000
 24
-465.000000
 50
0.000000
 70
0
 39
0
 62
7
  0
DIMENSION
  8
Parter-wymiar
  6
CONTINUOUS
  1
;;
 10
435.705609
 20
-615.397167
 13
435.705609
 23
-575.397167
 14
885.705609
 24
-615.397167
 50
0.000000
 70
0
 39
0
 62
7
  0
DIMENSION
  8
Parter-wymiar
  6
CONTINUOUS
  1
;;
 10
895.705609
 20
-615.397167
 13
895.705609
 23
-615.397167
 14
1345.705609
 24
-615.397167
 50
0.000000
 70
0
 39
0
 62
7
  0
DIMENSION
  8
Parter-wymiar
  6
CONTINUOUS
  1
;;
 10
1355.705609
 20
-615.397167
 13
1355.705609
 23
-615.397167
 14
1745.705609
 24
-615.397167
 50
0.000000
 70
0
 39
0
 62
7
  0
DIMENSION
  8
Parter-wymiar
  6
CONTINUOUS
  1
;;
 10
425.705609
 20
-825.397167
 13
425.705609
 23
-735.397167
 14
1755.705609
 24
-735.397167
 50
0.000000
 70
0
 39
0
 62
7
  0
DIMENSION
  8
Parter-wymiar
  6
CONTINUOUS
  1
;;
 10
675.705609
 20
-215.397167
 13
675.705609
 23
-165.397167
 14
1095.705609
 24
-215.397167
 50
0.000000
 70
0
 39
0
 62
7
  0
DIMENSION
  8
Parter-wymiar
  6
CONTINUOUS
  1
;;
 10
1855.705609
 20
-275.397167
 13
1745.705609
 23
-275.397167
 14
1745.705609
 24
-725.397167
 50
90.000000
 70
0
 39
0
 62
7
  0
DIMENSION
  8
Parter-wymiar
  6
CONTINUOUS
  1
;;
 10
1215.705609
 20
-65.397167
 13
1095.705609
 23
-65.397167
 14
1095.705609
 24
-265.397167
 50
90.000000
 70
0
 39
0
 62
7
  0
HATCH
  8
Parter
  6
CONTINUOUS
  1
 
  2
45
 70
0
 91
1
 72
1
 10
-44.196429
 20
-19.500000
 11
44.196429
 21
-19.500000
 72
1
 10
47.142857
 20
-22.000000
 11
-47.142857
 21
-22.000000
 75
0
 76
1
 52
0.000000
 91
1
 41
5.000000
 77
0
 39
2
 62
7
  0
LINE
  8
Parter
  6
CONTINUOUS
 10
-330.000000
 20
-275.038734
 11
-330.000000
 21
-255.527060
 39
2
 62
7
  0
LINE
  8
Parter
  6
CONTINUOUS
 10
-330.000000
 20
-255.527060
 11
0.000000
 21
41.606275
 39
2
 62
7
  0
LINE
  8
Parter
  6
CONTINUOUS
 10
-225.000000
 20
-230.000000
 11
-274.748750
 21
-230.000000
 39
2
 62
7
  0
LINE
  8
Parter
  6
CONTINUOUS
 10
-279.979418
 20
-230.000000
 11
-277.637461
 21
-232.601007
 39
2
 62
7
  0
LINE
  8
Parter
  6
CONTINUOUS
 10
-330.000000
 20
-275.038734
 11
-279.979418
 21
-230.000000
 39
2
 62
7
  0
LINE
  8
Parter
  6
CONTINUOUS
 10
-250.000000
 20
-290.000000
 11
-250.000000
 21
-248.000000
 39
2
 62
7
  0
LINE
  8
Parter
  6
CONTINUOUS
 10
-250.000000
 20
-472.500000
 11
-250.000000
 21
-370.000000
 39
2
 62
7
  0
LINE
  8
Parter
  6
CONTINUOUS
 10
-235.000000
 20
-290.000000
 11
-235.000000
 21
-248.000000
 39
2
 62
7
  0
LINE
  8
Parter
  6
CONTINUOUS
 10
-225.000000
 20
-248.000000
 11
-225.000000
 21
-290.000000
 39
2
 62
7
  0
LINE
  8
Parter
  6
CONTINUOUS
 10
-235.000000
 20
-472.500000
 11
-235.000000
 21
-370.000000
 39
2
 62
7
  0
LINE
  8
Parter
  6
CONTINUOUS
 10
-225.000000
 20
-370.000000
 11
-225.000000
 21
-472.500000
 39
2
 62
7
  0
LINE
  8
Parter
  6
CONTINUOUS
 10
-250.000000
 20
-290.000000
 11
-225.000000
 21
-290.000000
 39
2
 62
7
  0
LINE
  8
Parter
  6
CONTINUOUS
 10
-250.000000
 20
-370.000000
 11
-225.000000
 21
-370.000000
 39
2
 62
7
  0
LINE
  8
Parter
  6
CONTINUOUS
 10
-250.000000
 20
-290.000000
 11
-250.000000
 21
-370.000000
 39
1
 62
7
  0
LINE
  8
Parter
  6
CONTINUOUS
 10
-225.000000
 20
-290.000000
 11
-225.000000
 21
-370.000000
 39
1
 62
7
  0
LINE
  8
Parter
  6
CONTINUOUS
 10
225.000000
 20
-290.000000
 11
250.000000
 21
-290.000000
 39
2
 62
7
  0
LINE
  8
Parter
  6
CONTINUOUS
 10
225.000000
 20
-370.000000
 11
250.000000
 21
-370.000000
 39
2
 62
7
  0
LINE
  8
Parter
  6
CONTINUOUS
 10
225.000000
 20
-290.000000
 11
225.000000
 21
-248.000000
 39
2
 62
7
  0
LINE
  8
Parter
  6
CONTINUOUS
 10
225.000000
 20
-472.500000
 11
225.000000
 21
-370.000000
 39
2
 62
7
  0
LINE
  8
Parter
  6
CONTINUOUS
 10
250.000000
 20
-370.000000
 11
250.000000
 21
-472.500000
 39
2
 62
7
  0
LINE
  8
Parter
  6
CONTINUOUS
 10
250.000000
 20
-248.000000
 11
250.000000
 21
-290.000000
 39
2
 62
7
  0
LINE
  8
Parter
  6
CONTINUOUS
 10
225.000000
 20
-370.000000
 11
225.000000
 21
-290.000000
 39
1
 62
7
  0
LINE
  8
Parter
  6
CONTINUOUS
 10
250.000000
 20
-290.000000
 11
250.000000
 21
-370.000000
 39
1
 62
7
  0
LINE
  8
Parter
  6
CONTINUOUS
 10
330.000000
 20
-275.038734
 11
330.000000
 21
-255.527060
 39
2
 62
7
  0
LINE
  8
Parter
  6
CONTINUOUS
 10
330.000000
 20
-255.527060
 11
0.000000
 21
41.606275
 39
2
 62
7
  0
LINE
  8
Parter
  6
CONTINUOUS
 10
279.979418
 20
-230.000000
 11
277.637461
 21
-232.601007
 39
2
 62
7
  0
LINE
  8
Parter
  6
CONTINUOUS
 10
330.000000
 20
-275.038734
 11
279.979418
 21
-230.000000
 39
2
 62
7
  0
LINE
  8
Parter
  6
CONTINUOUS
 10
-277.637461
 20
-232.601007
 11
0.000000
 21
17.384886
 39
2
 62
7
  0
LINE
  8
Parter
  6
CONTINUOUS
 10
277.637461
 20
-232.601007
 11
0.000000
 21
17.384886
 39
2
 62
7
  0
LINE
  8
Parter
  6
CONTINUOUS
 10
243.000000
 20
-230.000000
 11
243.000000
 21
-201.413297
 39
2
 62
7
  0
LINE
  8
Parter
  6
CONTINUOUS
 10
225.000000
 20
-227.500000
 11
225.000000
 21
-185.206024
 39
2
 62
7
  0
LINE
  8
Parter
  6
CONTINUOUS
 10
274.748750
 20
-230.000000
 11
-225.000000
 21
-230.000000
 39
2
 62
7
  0
LINE
  8
Parter
  6
CONTINUOUS
 10
299.970443
 20
-248.000000
 11
-299.970443
 21
-248.000000
 39
2
 62
7
  0
LINE
  8
Parter
  6
CONTINUOUS
 10
-243.000000
 20
-230.000000
 11
-243.000000
 21
-201.413297
 39
2
 62
7
  0
LINE
  8
Parter
  6
CONTINUOUS
 10
-225.000000
 20
-227.500000
 11
-225.000000
 21
-185.206024
 39
2
 62
7
  0
DIMENSION
  8
Parter-wymiar
  6
CONTINUOUS
  1
;;
 10
40.317835
 20
83.624577
 13
0.000000
 23
41.606275
 14
330.000000
 24
-275.038734
 70
1
 39
0
 62
7
  0
DIMENSION
  8
Parter-wymiar
  6
CONTINUOUS
  1
;;
 10
-72.872989
 20
-248.000000
 13
-129.551980
 23
-248.000000
 14
-71.973322
 24
-470.000000
 50
90.000000
 70
0
 39
0
 62
7
  0
LINE
  8
Parter
  6
CONTINUOUS
 10
-222.500000
 20
-227.500000
 11
-222.500000
 21
-199.775423
 39
2
 62
7
  0
LINE
  8
Parter
  6
CONTINUOUS
 10
222.500000
 20
-227.500000
 11
222.500000
 21
-199.775423
 39
2
 62
7
  0
DIMENSION
  8
Parter-wymiar
  6
CONTINUOUS
  1
;;
 10
53.275839
 20
-227.500000
 13
85.533338
 23
-227.500000
 14
53.275839
 24
-47.405304
 50
90.000000
 70
0
 39
0
 62
7
  0
DIMENSION
  8
Parter-wymiar
  6
CONTINUOUS
  1
;;
 13
168.444615
 23
-134.283327
 14
170.629643
 24
-136.250735
 10
131.702427
 20
-230.000000
 15
134.642672
 25
-230.000000
 16
170.629643
 26
-136.250735
 70
2
 39
0
 62
7
  0
LINE
  8
Parter
  6
CONTINUOUS
 10
0.000000
 20
41.606275
 11
0.000000
 21
17.384886
 39
2
 62
7
  0
LINE
  8
Parter
  6
CONTINUOUS
 10
270.000000
 20
-230.000000
 11
260.000000
 21
-230.000000
 39
2
 62
7
  0
LINE
  8
Parter
  6
CONTINUOUS
 10
-225.000000
 20
-202.026433
 11
-31.168759
 21
-27.500000
 39
2
 62
7
  0
LINE
  8
Parter
  6
CONTINUOUS
 10
225.000000
 20
-202.026433
 11
31.168759
 21
-27.500000
 39
2
 62
7
  0
DIMENSION
  8
Parter
  6
CONTINUOUS
  1
;;
 10
-22.223094
 20
-227.500000
 13
-19.355598
 23
-227.500000
 14
-22.223094
 24
-27.500000
 50
90.000000
 70
0
 39
0
 62
7
  0
LINE
  8
Parter
  6
CONTINUOUS
 10
31.168759
 20
-27.500000
 11
-31.168759
 21
-27.500000
 39
2
 62
7
  0
LINE
  8
Parter
  6
CONTINUOUS
 10
225.000000
 20
-198.662351
 11
32.128419
 21
-25.000000
 39
2
 62
7
  0
LINE
  8
Parter
  6
CONTINUOUS
 10
-225.000000
 20
-198.662351
 11
-32.128419
 21
-25.000000
 39
2
 62
7
  0
LINE
  8
Parter
  6
CONTINUOUS
 10
47.073185
 20
-25.000000
 11
-47.073185
 21
-25.000000
 39
2
 62
7
  0
LINE
  8
Parter
  6
CONTINUOUS
 10
27.082160
 20
-7.000000
 11
-27.082160
 21
-7.000000
 39
2
 62
7
  0
ENDSEC
  0
EOF
