999
dxflib 2.0.4.0
  0
SECTION
  2
HEADER
  9
$ACADVER
  1
AC1015
  9
$HANDSEED
  5
FFFF
  9
$DIMASZ
 40
2.5
  9
$DIMGAP
 40
0.625
  9
$INSUNITS
 70
0
  9
$DIMEXO
 40
0.625
  9
$GRIDMODE
 70
1
  9
$DIMTXT
 40
2.5
  9
$DIMSTYLE
  2
Standard
  9
$PLIMMIN
 10
0.0
 20
0.0
  9
$PLIMMAX
 10
210.0
 20
297.0
  9
$DIMEXE
 40
1.25
  9
$PINSBASE
 10
-540.5
 20
-300.215351812375161
 30
0.0
  0
ENDSEC
  0
SECTION
  2
TABLES
  0
TABLE
  2
VPORT
  5
8
100
AcDbSymbolTable
 70
1
  0
VPORT
  5
30
100
AcDbSymbolTableRecord
100
AcDbViewportTableRecord
  2
*Active
 70
0
 10
0.0
 20
0.0
 11
1.0
 21
1.0
 12
286.3055555555554861
 22
148.5
 13
0.0
 23
0.0
 14
10.0
 24
10.0
 15
10.0
 25
10.0
 16
0.0
 26
0.0
 36
1.0
 17
0.0
 27
0.0
 37
0.0
 40
297.0
 41
1.92798353909465
 42
50.0
 43
0.0
 44
0.0
 50
0.0
 51
0.0
 71
0
 72
100
 73
1
 74
3
 75
1
 76
1
 77
0
 78
0
281
0
 65
1
110
0.0
120
0.0
130
0.0
111
1.0
121
0.0
131
0.0
112
0.0
122
1.0
132
0.0
 79
0
146
0.0
  0
ENDTAB
  0
TABLE
  2
LTYPE
  5
5
100
AcDbSymbolTable
 70
21
  0
LTYPE
  5
14
100
AcDbSymbolTableRecord
100
AcDbLinetypeTableRecord
  2
ByBlock
 70
0
  3

 72
65
 73
0
 40
0.0
  0
LTYPE
  5
15
100
AcDbSymbolTableRecord
100
AcDbLinetypeTableRecord
  2
ByLayer
 70
0
  3

 72
65
 73
0
 40
0.0
  0
LTYPE
  5
16
100
AcDbSymbolTableRecord
100
AcDbLinetypeTableRecord
  2
CONTINUOUS
 70
0
  3
Solid line
 72
65
 73
0
 40
0.0
  0
LTYPE
  5
31
100
AcDbSymbolTableRecord
100
AcDbLinetypeTableRecord
  2
DOT
 70
0
  3
Dot . . . . . . . . . . . . . . . . . . . . . .
 72
65
 73
2
 40
6.3499999999999996
 49
0.0
 74
0
 49
-6.3499999999999996
 74
0
  0
LTYPE
  5
32
100
AcDbSymbolTableRecord
100
AcDbLinetypeTableRecord
  2
DOT2
 70
0
  3
Dot (.5x) .....................................
 72
65
 73
2
 40
3.1749999999999998
 49
0.0
 74
0
 49
-3.1749999999999998
 74
0
  0
LTYPE
  5
33
100
AcDbSymbolTableRecord
100
AcDbLinetypeTableRecord
  2
DOTX2
 70
0
  3
Dot (2x) .  .  .  .  .  .  .  .  .  .  .  .  .
 72
65
 73
2
 40
12.6999999999999993
 49
0.0
 74
0
 49
-12.6999999999999993
 74
0
  0
LTYPE
  5
34
100
AcDbSymbolTableRecord
100
AcDbLinetypeTableRecord
  2
DASHED
 70
0
  3
Dashed __ __ __ __ __ __ __ __ __ __ __ __ __ _
 72
65
 73
2
 40
19.0500000000000007
 49
12.6999999999999993
 74
0
 49
-6.3499999999999996
 74
0
  0
LTYPE
  5
35
100
AcDbSymbolTableRecord
100
AcDbLinetypeTableRecord
  2
DASHED2
 70
0
  3
Dashed (.5x) _ _ _ _ _ _ _ _ _ _ _ _ _ _ _ _ _
 72
65
 73
2
 40
9.5250000000000004
 49
6.3499999999999996
 74
0
 49
-3.1749999999999998
 74
0
  0
LTYPE
  5
36
100
AcDbSymbolTableRecord
100
AcDbLinetypeTableRecord
  2
DASHEDX2
 70
0
  3
Dashed (2x) ____  ____  ____  ____  ____  ___
 72
65
 73
2
 40
38.1000000000000014
 49
25.3999999999999986
 74
0
 49
-12.6999999999999993
 74
0
  0
LTYPE
  5
37
100
AcDbSymbolTableRecord
100
AcDbLinetypeTableRecord
  2
DASHDOT
 70
0
  3
Dash dot __ . __ . __ . __ . __ . __ . __ . __
 72
65
 73
4
 40
25.3999999999999986
 49
12.6999999999999993
 74
0
 49
-6.3499999999999996
 74
0
 49
0.0
 74
0
 49
-6.3499999999999996
 74
0
  0
LTYPE
  5
38
100
AcDbSymbolTableRecord
100
AcDbLinetypeTableRecord
  2
DASHDOT2
 70
0
  3
Dash dot (.5x) _._._._._._._._._._._._._._._.
 72
65
 73
4
 40
12.6999999999999993
 49
6.3499999999999996
 74
0
 49
-3.1749999999999998
 74
0
 49
0.0
 74
0
 49
-3.1749999999999998
 74
0
  0
LTYPE
  5
39
100
AcDbSymbolTableRecord
100
AcDbLinetypeTableRecord
  2
DASHDOTX2
 70
0
  3
Dash dot (2x) ____  .  ____  .  ____  .  ___
 72
65
 73
4
 40
50.7999999999999972
 49
25.3999999999999986
 74
0
 49
-12.6999999999999993
 74
0
 49
0.0
 74
0
 49
-12.6999999999999993
 74
0
  0
LTYPE
  5
3A
100
AcDbSymbolTableRecord
100
AcDbLinetypeTableRecord
  2
DIVIDE
 70
0
  3
Divide ____ . . ____ . . ____ . . ____ . . ____
 72
65
 73
6
 40
31.75
 49
12.6999999999999993
 74
0
 49
-6.3499999999999996
 74
0
 49
0.0
 74
0
 49
-6.3499999999999996
 74
0
 49
0.0
 74
0
 49
-6.3499999999999996
 74
0
  0
LTYPE
  5
3B
100
AcDbSymbolTableRecord
100
AcDbLinetypeTableRecord
  2
DIVIDE2
 70
0
  3
Divide (.5x) __..__..__..__..__..__..__..__.._
 72
65
 73
6
 40
15.875
 49
6.3499999999999996
 74
0
 49
-3.1749999999999998
 74
0
 49
0.0
 74
0
 49
-3.1749999999999998
 74
0
 49
0.0
 74
0
 49
-3.1749999999999998
 74
0
  0
LTYPE
  5
3C
100
AcDbSymbolTableRecord
100
AcDbLinetypeTableRecord
  2
DIVIDEX2
 70
0
  3
Divide (2x) ________  .  .  ________  .  .  _
 72
65
 73
6
 40
63.5
 49
25.3999999999999986
 74
0
 49
-12.6999999999999993
 74
0
 49
0.0
 74
0
 49
-12.6999999999999993
 74
0
 49
0.0
 74
0
 49
-12.6999999999999993
 74
0
  0
LTYPE
  5
3D
100
AcDbSymbolTableRecord
100
AcDbLinetypeTableRecord
  2
CENTER
 70
0
  3
Center ____ _ ____ _ ____ _ ____ _ ____ _ ____
 72
65
 73
4
 40
50.7999999999999972
 49
31.75
 74
0
 49
-6.3499999999999996
 74
0
 49
6.3499999999999996
 74
0
 49
-6.3499999999999996
 74
0
  0
LTYPE
  5
3E
100
AcDbSymbolTableRecord
100
AcDbLinetypeTableRecord
  2
CENTER2
 70
0
  3
Center (.5x) ___ _ ___ _ ___ _ ___ _ ___ _ ___
 72
65
 73
4
 40
28.5749999999999993
 49
19.0500000000000007
 74
0
 49
-3.1749999999999998
 74
0
 49
3.1749999999999998
 74
0
 49
-3.1749999999999998
 74
0
  0
LTYPE
  5
3F
100
AcDbSymbolTableRecord
100
AcDbLinetypeTableRecord
  2
CENTERX2
 70
0
  3
Center (2x) ________  __  ________  __  _____
 72
65
 73
4
 40
101.5999999999999943
 49
63.5
 74
0
 49
-12.6999999999999993
 74
0
 49
12.6999999999999993
 74
0
 49
-12.6999999999999993
 74
0
  0
LTYPE
  5
40
100
AcDbSymbolTableRecord
100
AcDbLinetypeTableRecord
  2
BORDER
 70
0
  3
Border __ __ . __ __ . __ __ . __ __ . __ __ .
 72
65
 73
6
 40
44.4500000000000028
 49
12.6999999999999993
 74
0
 49
-6.3499999999999996
 74
0
 49
12.6999999999999993
 74
0
 49
-6.3499999999999996
 74
0
 49
0.0
 74
0
 49
-6.3499999999999996
 74
0
  0
LTYPE
  5
41
100
AcDbSymbolTableRecord
100
AcDbLinetypeTableRecord
  2
BORDER2
 70
0
  3
Border (.5x) __.__.__.__.__.__.__.__.__.__.__.
 72
65
 73
6
 40
22.2250000000000014
 49
6.3499999999999996
 74
0
 49
-3.1749999999999998
 74
0
 49
6.3499999999999996
 74
0
 49
-3.1749999999999998
 74
0
 49
0.0
 74
0
 49
-3.1749999999999998
 74
0
  0
LTYPE
  5
42
100
AcDbSymbolTableRecord
100
AcDbLinetypeTableRecord
  2
BORDERX2
 70
0
  3
Border (2x) ____  ____  .  ____  ____  .  ___
 72
65
 73
6
 40
88.9000000000000057
 49
25.3999999999999986
 74
0
 49
-12.6999999999999993
 74
0
 49
25.3999999999999986
 74
0
 49
-12.6999999999999993
 74
0
 49
0.0
 74
0
 49
-12.6999999999999993
 74
0
  0
ENDTAB
  0
TABLE
  2
LAYER
  5
2
100
AcDbSymbolTable
 70
5
  0
LAYER
  5
10
100
AcDbSymbolTableRecord
100
AcDbLayerTableRecord
  2
0
 70
0
 62
7
  6
CONTINUOUS
370
25
390
F
  0
LAYER
  5
43
100
AcDbSymbolTableRecord
100
AcDbLayerTableRecord
  2
Wymiary
 70
0
 62
2
  6
CONTINUOUS
370
0
390
F
  0
LAYER
  5
44
100
AcDbSymbolTableRecord
100
AcDbLayerTableRecord
  2
Ruru GWC
 70
0
 62
1
  6
CONTINUOUS
370
0
390
F
  0
LAYER
  5
45
100
AcDbSymbolTableRecord
100
AcDbLayerTableRecord
  2
Rura CWU
 70
0
 62
3
  6
CONTINUOUS
370
0
390
F
  0
LAYER
  5
46
100
AcDbSymbolTableRecord
100
AcDbLayerTableRecord
  2
Instalacje
 70
1
 62
4
  6
CONTINUOUS
370
0
390
F
  0
ENDTAB
  0
TABLE
  2
STYLE
  5
3
100
AcDbSymbolTable
 70
1
  0
STYLE
  5
11
100
AcDbSymbolTableRecord
100
AcDbTextStyleTableRecord
  2
Standard
 70
0
 40
0.0
 41
1.0
 50
0.0
 71
0
 42
2.5
  3
txt
  4

  0
ENDTAB
  0
TABLE
  2
VIEW
  5
6
100
AcDbSymbolTable
 70
0
  0
ENDTAB
  0
TABLE
  2
UCS
  5
7
100
AcDbSymbolTable
 70
0
  0
ENDTAB
  0
TABLE
  2
APPID
  5
9
100
AcDbSymbolTable
 70
1
  0
APPID
  5
12
100
AcDbSymbolTableRecord
100
AcDbRegAppTableRecord
  2
ACAD
 70
0
  0
ENDTAB
  0
TABLE
  2
DIMSTYLE
  5
A
100
AcDbSymbolTable
 70
1
100
AcDbDimStyleTable
 71
0
  0
DIMSTYLE
105
27
100
AcDbSymbolTableRecord
100
AcDbDimStyleTableRecord
  2
Standard
 41
2.5
 42
0.625
 43
3.75
 44
1.25
 70
0
 73
0
 74
0
 77
1
 78
8
140
2.5
141
2.5
143
0.03937007874016
147
0.625
171
3
172
1
271
2
272
2
274
3
278
44
283
0
284
8
340
11
  0
ENDTAB
  0
TABLE
  2
BLOCK_RECORD
  5
1
100
AcDbSymbolTable
 70
1
  0
BLOCK_RECORD
  5
1F
100
AcDbSymbolTableRecord
100
AcDbBlockTableRecord
  2
*Model_Space
340
22
  0
BLOCK_RECORD
  5
1B
100
AcDbSymbolTableRecord
100
AcDbBlockTableRecord
  2
*Paper_Space
340
1E
  0
BLOCK_RECORD
  5
23
100
AcDbSymbolTableRecord
100
AcDbBlockTableRecord
  2
*Paper_Space0
340
26
  0
ENDTAB
  0
ENDSEC
  0
SECTION
  2
BLOCKS
  0
BLOCK
  5
20
100
AcDbEntity
  8
0
100
AcDbBlockBegin
  2
*Model_Space
 70
0
 10
0.0
 20
0.0
 30
0.0
  3
*Model_Space
  1

  0
ENDBLK
  5
21
100
AcDbEntity
  8
0
100
AcDbBlockEnd
  0
BLOCK
  5
1C
100
AcDbEntity
 67
1
  8
0
100
AcDbBlockBegin
  2
*Paper_Space
 70
0
 10
0.0
 20
0.0
 30
0.0
  3
*Paper_Space
  1

  0
ENDBLK
  5
1D
100
AcDbEntity
 67
1
  8
0
100
AcDbBlockEnd
  0
BLOCK
  5
24
100
AcDbEntity
  8
0
100
AcDbBlockBegin
  2
*Paper_Space0
 70
0
 10
0.0
 20
0.0
 30
0.0
  3
*Paper_Space0
  1

  0
ENDBLK
  5
25
100
AcDbEntity
  8
0
100
AcDbBlockEnd
  0
ENDSEC
  0
SECTION
  2
ENTITIES
  0
LINE
  5
47
100
AcDbEntity
100
AcDbLine
  8
0
 62
256
370
-1
  6
ByLayer
 10
1.0
 20
720.0
 30
0.0
 11
1.0
 21
15.0
 31
0.0
  0
LINE
  5
48
100
AcDbEntity
100
AcDbLine
  8
0
 62
256
370
-1
  6
ByLayer
 10
1290.0
 20
720.0
 30
0.0
 11
1290.0
 21
15.0
 31
0.0
  0
LINE
  5
49
100
AcDbEntity
100
AcDbLine
  8
0
 62
256
370
-1
  6
ByLayer
 10
1290.0
 20
15.0
 30
0.0
 11
1.0
 21
15.0
 31
0.0
  0
LINE
  5
4A
100
AcDbEntity
100
AcDbLine
  8
0
 62
256
370
-1
  6
ByLayer
 10
431.5
 20
497.5
 30
0.0
 11
431.5
 21
472.5
 31
0.0
  0
LINE
  5
4B
100
AcDbEntity
100
AcDbLine
  8
0
 62
256
370
-1
  6
ByLayer
 10
456.5
 20
472.5
 30
0.0
 11
431.5
 21
472.5
 31
0.0
  0
LINE
  5
4C
100
AcDbEntity
100
AcDbLine
  8
0
 62
256
370
-1
  6
ByLayer
 10
456.5
 20
262.5
 30
0.0
 11
431.5
 21
262.5
 31
0.0
  0
LINE
  5
4D
100
AcDbEntity
100
AcDbLine
  8
0
 62
256
370
-1
  6
ByLayer
 10
456.5
 20
262.5
 30
0.0
 11
456.5
 21
237.5
 31
0.0
  0
LINE
  5
4E
100
AcDbEntity
100
AcDbLine
  8
0
 62
256
370
-1
  6
ByLayer
 10
431.5
 20
262.5
 30
0.0
 11
431.5
 21
237.5
 31
0.0
  0
LINE
  5
4F
100
AcDbEntity
100
AcDbLine
  8
0
 62
256
370
-1
  6
ByLayer
 10
456.5
 20
237.5
 30
0.0
 11
431.5
 21
237.5
 31
0.0
  0
LINE
  5
50
100
AcDbEntity
100
AcDbLine
  8
0
 62
256
370
-1
  6
ByLayer
 10
911.5
 20
262.5
 30
0.0
 11
886.5
 21
262.5
 31
0.0
  0
LINE
  5
51
100
AcDbEntity
100
AcDbLine
  8
0
 62
256
370
-1
  6
ByLayer
 10
911.5
 20
262.5
 30
0.0
 11
911.5
 21
237.5
 31
0.0
  0
LINE
  5
52
100
AcDbEntity
100
AcDbLine
  8
0
 62
256
370
-1
  6
ByLayer
 10
886.5
 20
262.5
 30
0.0
 11
886.5
 21
237.5
 31
0.0
  0
LINE
  5
53
100
AcDbEntity
100
AcDbLine
  8
0
 62
256
370
-1
  6
ByLayer
 10
911.5
 20
237.5
 30
0.0
 11
886.5
 21
237.5
 31
0.0
  0
LINE
  5
54
100
AcDbEntity
100
AcDbLine
  8
0
 62
256
370
-1
  6
ByLayer
 10
886.5
 20
497.5
 30
0.0
 11
886.5
 21
472.5
 31
0.0
  0
LINE
  5
55
100
AcDbEntity
100
AcDbLine
  8
0
 62
256
370
-1
  6
ByLayer
 10
911.5
 20
497.5
 30
0.0
 11
886.5
 21
497.5
 31
0.0
  0
LINE
  5
56
100
AcDbEntity
100
AcDbLine
  8
0
 62
256
370
-1
  6
ByLayer
 10
911.5
 20
472.5
 30
0.0
 11
886.5
 21
472.5
 31
0.0
  0
LINE
  5
57
100
AcDbEntity
100
AcDbLine
  8
0
 62
256
370
-1
  6
ByLayer
 10
911.5
 20
497.5
 30
0.0
 11
911.5
 21
472.5
 31
0.0
  0
LINE
  5
58
100
AcDbEntity
100
AcDbLine
  8
0
 62
256
370
-1
  6
ByLayer
 10
519.5
 20
560.5
 30
0.0
 11
368.5
 21
560.5
 31
0.0
  0
LINE
  5
59
100
AcDbEntity
100
AcDbLine
  8
0
 62
256
370
-1
  6
ByLayer
 10
519.5
 20
560.5
 30
0.0
 11
519.5
 21
409.5
 31
0.0
  0
LINE
  5
5A
100
AcDbEntity
100
AcDbLine
  8
0
 62
256
370
-1
  6
ByLayer
 10
368.5
 20
560.5
 30
0.0
 11
368.5
 21
409.5
 31
0.0
  0
LINE
  5
5B
100
AcDbEntity
100
AcDbLine
  8
0
 62
256
370
-1
  6
ByLayer
 10
519.5
 20
409.5
 30
0.0
 11
368.5
 21
409.5
 31
0.0
  0
LINE
  5
5C
100
AcDbEntity
100
AcDbLine
  8
0
 62
256
370
-1
  6
ByLayer
 10
368.5
 20
325.5
 30
0.0
 11
368.5
 21
174.5
 31
0.0
  0
LINE
  5
5D
100
AcDbEntity
100
AcDbLine
  8
0
 62
256
370
-1
  6
ByLayer
 10
519.5
 20
174.5
 30
0.0
 11
368.5
 21
174.5
 31
0.0
  0
LINE
  5
5E
100
AcDbEntity
100
AcDbLine
  8
0
 62
256
370
-1
  6
ByLayer
 10
519.5
 20
325.5
 30
0.0
 11
368.5
 21
325.5
 31
0.0
  0
LINE
  5
5F
100
AcDbEntity
100
AcDbLine
  8
0
 62
256
370
-1
  6
ByLayer
 10
519.5
 20
325.5
 30
0.0
 11
519.5
 21
174.5
 31
0.0
  0
LINE
  5
60
100
AcDbEntity
100
AcDbLine
  8
0
 62
256
370
-1
  6
ByLayer
 10
823.5
 20
325.5
 30
0.0
 11
823.5
 21
174.5
 31
0.0
  0
LINE
  5
61
100
AcDbEntity
100
AcDbLine
  8
0
 62
256
370
-1
  6
ByLayer
 10
974.5
 20
325.5
 30
0.0
 11
823.5
 21
325.5
 31
0.0
  0
LINE
  5
62
100
AcDbEntity
100
AcDbLine
  8
0
 62
256
370
-1
  6
ByLayer
 10
974.5
 20
174.5
 30
0.0
 11
823.5
 21
174.5
 31
0.0
  0
LINE
  5
63
100
AcDbEntity
100
AcDbLine
  8
0
 62
256
370
-1
  6
ByLayer
 10
974.5
 20
325.5
 30
0.0
 11
974.5
 21
174.5
 31
0.0
  0
LINE
  5
64
100
AcDbEntity
100
AcDbLine
  8
0
 62
256
370
-1
  6
ByLayer
 10
823.5
 20
560.5
 30
0.0
 11
823.5
 21
409.5
 31
0.0
  0
LINE
  5
65
100
AcDbEntity
100
AcDbLine
  8
0
 62
256
370
-1
  6
ByLayer
 10
974.5
 20
560.5
 30
0.0
 11
823.5
 21
560.5
 31
0.0
  0
LINE
  5
66
100
AcDbEntity
100
AcDbLine
  8
0
 62
256
370
-1
  6
ByLayer
 10
974.5
 20
409.5
 30
0.0
 11
823.5
 21
409.5
 31
0.0
  0
LINE
  5
67
100
AcDbEntity
100
AcDbLine
  8
0
 62
256
370
-1
  6
ByLayer
 10
974.5
 20
560.5
 30
0.0
 11
974.5
 21
409.5
 31
0.0
  0
LINE
  5
68
100
AcDbEntity
100
AcDbLine
  8
0
 62
256
370
-1
  6
ByLayer
 10
657.5
 20
720.0
 30
0.0
 11
1.0
 21
720.0
 31
0.0
  0
LINE
  5
69
100
AcDbEntity
100
AcDbLine
  8
0
 62
256
370
-1
  6
ByLayer
 10
456.5
 20
497.5
 30
0.0
 11
456.5
 21
472.5
 31
0.0
  0
LINE
  5
6A
100
AcDbEntity
100
AcDbLine
  8
0
 62
256
370
-1
  6
ByLayer
 10
456.5
 20
497.5
 30
0.0
 11
431.5
 21
497.5
 31
0.0
  0
LINE
  5
6B
100
AcDbEntity
100
AcDbLine
  8
0
 62
256
370
-1
  6
ByLayer
 10
639.5
 20
521.5
 30
0.0
 11
639.5
 21
720.0
 31
0.0
  0
LINE
  5
6C
100
AcDbEntity
100
AcDbLine
  8
0
 62
256
370
-1
  6
ByLayer
 10
450.0
 20
521.5
 30
0.0
 11
450.0
 21
720.0
 31
0.0
  0
LINE
  5
6D
100
AcDbEntity
100
AcDbLine
  8
0
 62
256
370
-1
  6
ByLayer
 10
639.5
 20
521.5
 30
0.0
 11
450.0
 21
521.5
 31
0.0
  0
LINE
  5
6E
100
AcDbEntity
100
AcDbLine
  8
0
 62
256
370
-1
  6
ByLayer
 10
438.0
 20
509.5
 30
0.0
 11
438.0
 21
720.0
 31
0.0
  0
LINE
  5
6F
100
AcDbEntity
100
AcDbLine
  8
0
 62
256
370
-1
  6
ByLayer
 10
651.5
 20
509.5
 30
0.0
 11
651.5
 21
720.0
 31
0.0
  0
LINE
  5
70
100
AcDbEntity
100
AcDbLine
  8
0
 62
256
370
-1
  6
ByLayer
 10
651.5
 20
509.5
 30
0.0
 11
438.0
 21
509.5
 31
0.0
  0
LINE
  5
71
100
AcDbEntity
100
AcDbLine
  8
0
 62
256
370
-1
  6
ByLayer
 10
1290.0
 20
720.0
 30
0.0
 11
887.0
 21
720.0
 31
0.0
  0
LINE
  5
72
100
AcDbEntity
100
AcDbLine
  8
0
 62
256
370
-1
  6
ByLayer
 10
887.0
 20
720.0
 30
0.0
 11
887.0
 21
928.0
 31
0.0
  0
LINE
  5
73
100
AcDbEntity
100
AcDbLine
  8
0
 62
256
370
-1
  6
ByLayer
 10
657.5
 20
720.0
 30
0.0
 11
657.5
 21
928.0
 31
0.0
  0
LINE
  5
74
100
AcDbEntity
100
AcDbLine
  8
0
 62
256
370
-1
  6
ByLayer
 10
887.0
 20
928.0
 30
0.0
 11
657.5
 21
928.0
 31
0.0
  0
LINE
  5
75
100
AcDbEntity
100
AcDbLine
  8
0
 62
256
370
-1
  6
ByLayer
 10
1041.5
 20
550.0
 30
0.0
 11
990.5
 21
550.0
 31
0.0
  0
LINE
  5
76
100
AcDbEntity
100
AcDbLine
  8
0
 62
256
370
-1
  6
ByLayer
 10
1041.5
 20
550.0
 30
0.0
 11
1041.5
 21
499.0
 31
0.0
  0
LINE
  5
77
100
AcDbEntity
100
AcDbLine
  8
0
 62
256
370
-1
  6
ByLayer
 10
990.5
 20
550.0
 30
0.0
 11
990.5
 21
499.0
 31
0.0
  0
LINE
  5
78
100
AcDbEntity
100
AcDbLine
  8
0
 62
256
370
-1
  6
ByLayer
 10
1041.5
 20
499.0
 30
0.0
 11
990.5
 21
499.0
 31
0.0
  0
LINE
  5
79
100
AcDbEntity
100
AcDbLine
  8
0
 62
256
370
-1
  6
ByLayer
 10
1056.5
 20
565.0
 30
0.0
 11
975.5
 21
565.0
 31
0.0
  0
LINE
  5
7A
100
AcDbEntity
100
AcDbLine
  8
0
 62
256
370
-1
  6
ByLayer
 10
1056.5
 20
565.0
 30
0.0
 11
1056.5
 21
484.0
 31
0.0
  0
LINE
  5
7B
100
AcDbEntity
100
AcDbLine
  8
0
 62
256
370
-1
  6
ByLayer
 10
975.5
 20
565.0
 30
0.0
 11
975.5
 21
484.0
 31
0.0
  0
LINE
  5
7C
100
AcDbEntity
100
AcDbLine
  8
0
 62
256
370
-1
  6
ByLayer
 10
1056.5
 20
484.0
 30
0.0
 11
975.5
 21
484.0
 31
0.0
  0
LINE
  5
7D
100
AcDbEntity
100
AcDbLine
  8
0
 62
256
370
-1
  6
ByLayer
 10
301.5
 20
328.0
 30
0.0
 11
301.5
 21
379.0
 31
0.0
  0
LINE
  5
7E
100
AcDbEntity
100
AcDbLine
  8
0
 62
256
370
-1
  6
ByLayer
 10
352.5
 20
379.0
 30
0.0
 11
301.5
 21
379.0
 31
0.0
  0
LINE
  5
7F
100
AcDbEntity
100
AcDbLine
  8
0
 62
256
370
-1
  6
ByLayer
 10
352.5
 20
328.0
 30
0.0
 11
301.5
 21
328.0
 31
0.0
  0
LINE
  5
80
100
AcDbEntity
100
AcDbLine
  8
0
 62
256
370
-1
  6
ByLayer
 10
352.5
 20
328.0
 30
0.0
 11
352.5
 21
379.0
 31
0.0
  0
LINE
  5
81
100
AcDbEntity
100
AcDbLine
  8
0
 62
256
370
-1
  6
ByLayer
 10
367.5
 20
313.0
 30
0.0
 11
367.5
 21
394.0
 31
0.0
  0
LINE
  5
82
100
AcDbEntity
100
AcDbLine
  8
0
 62
256
370
-1
  6
ByLayer
 10
367.5
 20
394.0
 30
0.0
 11
286.5
 21
394.0
 31
0.0
  0
LINE
  5
83
100
AcDbEntity
100
AcDbLine
  8
0
 62
256
370
-1
  6
ByLayer
 10
367.5
 20
313.0
 30
0.0
 11
286.5
 21
313.0
 31
0.0
  0
LINE
  5
84
100
AcDbEntity
100
AcDbLine
  8
0
 62
256
370
-1
  6
ByLayer
 10
286.5
 20
313.0
 30
0.0
 11
286.5
 21
394.0
 31
0.0
  0
ARC
  5
85
100
AcDbEntity
  8
Ruru GWC
 62
256
370
-1
  6
ByLayer
100
AcDbCircle
 10
63.0
 20
658.0
 30
0.0
 40
12.0
100
AcDbArc
 50
90.0
 51
180.0
  0
ARC
  5
86
100
AcDbEntity
  8
Ruru GWC
 62
256
370
-1
  6
ByLayer
100
AcDbCircle
 10
93.0
 20
628.0
 30
0.0
 40
12.0
100
AcDbArc
 50
90.0
 51
180.0
  0
LINE
  5
87
100
AcDbEntity
100
AcDbLine
  8
Ruru GWC
 62
256
370
-1
  6
ByLayer
 10
51.0
 20
658.0
 30
0.0
 11
51.0
 21
77.0
 31
0.0
  0
ARC
  5
88
100
AcDbEntity
  8
Ruru GWC
 62
256
370
-1
  6
ByLayer
100
AcDbCircle
 10
63.0
 20
77.0000000000000142
 30
0.0
 40
12.0
100
AcDbArc
 50
180.0
 51
270.0
  0
LINE
  5
89
100
AcDbEntity
100
AcDbLine
  8
Ruru GWC
 62
256
370
-1
  6
ByLayer
 10
81.0
 20
628.0
 30
0.0
 11
81.0
 21
107.0
 31
0.0
  0
ARC
  5
8A
100
AcDbEntity
  8
Ruru GWC
 62
256
370
-1
  6
ByLayer
100
AcDbCircle
 10
93.0
 20
107.0000000000000142
 30
0.0
 40
12.0
100
AcDbArc
 50
180.0
 51
270.0
  0
ARC
  5
8B
100
AcDbEntity
  8
Ruru GWC
 62
256
370
-1
  6
ByLayer
100
AcDbCircle
 10
1228.0
 20
658.0
 30
0.0
 40
12.0
100
AcDbArc
 50
0.0
 51
90.0
  0
ARC
  5
8C
100
AcDbEntity
  8
Ruru GWC
 62
256
370
-1
  6
ByLayer
100
AcDbCircle
 10
1198.0
 20
628.0
 30
0.0
 40
12.0
100
AcDbArc
 50
0.0
 51
90.0
  0
LINE
  5
8D
100
AcDbEntity
100
AcDbLine
  8
Ruru GWC
 62
256
370
-1
  6
ByLayer
 10
1210.0
 20
628.0
 30
0.0
 11
1210.0
 21
107.0
 31
0.0
  0
ARC
  5
8E
100
AcDbEntity
  8
Ruru GWC
 62
256
370
-1
  6
ByLayer
100
AcDbCircle
 10
1198.0
 20
107.0
 30
0.0
 40
12.0
100
AcDbArc
 50
270.0
 51
0.0
  0
LINE
  5
8F
100
AcDbEntity
100
AcDbLine
  8
Ruru GWC
 62
256
370
-1
  6
ByLayer
 10
1240.0
 20
658.0
 30
0.0
 11
1240.0
 21
77.0
 31
0.0
  0
ARC
  5
90
100
AcDbEntity
  8
Ruru GWC
 62
256
370
-1
  6
ByLayer
100
AcDbCircle
 10
1228.0
 20
77.0
 30
0.0
 40
12.0
100
AcDbArc
 50
270.0
 51
0.0
  0
ARC
  5
91
100
AcDbEntity
  8
Ruru GWC
 62
256
370
-1
  6
ByLayer
100
AcDbCircle
 10
705.5
 20
682.0
 30
0.0
 40
12.0
100
AcDbArc
 50
270.0
 51
0.0
  0
ARC
  5
92
100
AcDbEntity
  8
Ruru GWC
 62
256
370
-1
  6
ByLayer
100
AcDbCircle
 10
735.5
 20
652.0
 30
0.0
 40
12.0
100
AcDbArc
 50
270.0
 51
0.0
  0
LINE
  5
93
100
AcDbEntity
100
AcDbLine
  8
Ruru GWC
 62
256
370
-1
  6
ByLayer
 10
1198.0
 20
640.0
 30
0.0
 11
809.0
 21
640.0
 31
0.0
  0
ARC
  5
94
100
AcDbEntity
  8
Ruru GWC
 62
256
370
-1
  6
ByLayer
100
AcDbCircle
 10
809.0
 20
652.0
 30
0.0
 40
12.0
100
AcDbArc
 50
180.0
 51
270.0
  0
LINE
  5
95
100
AcDbEntity
100
AcDbLine
  8
Ruru GWC
 62
256
370
-1
  6
ByLayer
 10
1228.0
 20
670.0
 30
0.0
 11
839.0
 21
670.0
 31
0.0
  0
ARC
  5
96
100
AcDbEntity
  8
Ruru GWC
 62
256
370
-1
  6
ByLayer
100
AcDbCircle
 10
839.0
 20
682.0
 30
0.0
 40
12.0
100
AcDbArc
 50
180.0
 51
270.0
  0
LINE
  5
97
100
AcDbEntity
100
AcDbLine
  8
Ruru GWC
 62
256
370
-1
  6
ByLayer
 10
797.0
 20
652.0
 30
0.0
 11
797.0
 21
816.0
 31
0.0
  0
ARC
  5
98
100
AcDbEntity
  8
Ruru GWC
 62
256
370
-1
  6
ByLayer
100
AcDbCircle
 10
785.0
 20
816.0
 30
0.0
 40
12.0
100
AcDbArc
 50
0.0
 51
90.0
  0
LINE
  5
99
100
AcDbEntity
100
AcDbLine
  8
Ruru GWC
 62
256
370
-1
  6
ByLayer
 10
785.0
 20
828.0
 30
0.0
 11
759.5
 21
828.0
 31
0.0
  0
LINE
  5
9A
100
AcDbEntity
100
AcDbLine
  8
Ruru GWC
 62
256
370
-1
  6
ByLayer
 10
747.5
 20
652.0
 30
0.0
 11
747.5
 21
816.0
 31
0.0
  0
ARC
  5
9B
100
AcDbEntity
  8
Ruru GWC
 62
256
370
-1
  6
ByLayer
100
AcDbCircle
 10
759.5
 20
816.0
 30
0.0
 40
12.0
100
AcDbArc
 50
90.0
 51
180.0
  0
LINE
  5
9C
100
AcDbEntity
100
AcDbLine
  8
Ruru GWC
 62
256
370
-1
  6
ByLayer
 10
717.5
 20
682.0
 30
0.0
 11
717.5
 21
846.0
 31
0.0
  0
ARC
  5
9D
100
AcDbEntity
  8
Ruru GWC
 62
256
370
-1
  6
ByLayer
100
AcDbCircle
 10
729.5
 20
846.0
 30
0.0
 40
12.0
100
AcDbArc
 50
90.0
 51
180.0
  0
LINE
  5
9E
100
AcDbEntity
100
AcDbLine
  8
Ruru GWC
 62
256
370
-1
  6
ByLayer
 10
815.0
 20
858.0
 30
0.0
 11
729.5
 21
858.0
 31
0.0
  0
LINE
  5
9F
100
AcDbEntity
100
AcDbLine
  8
Ruru GWC
 62
256
370
-1
  6
ByLayer
 10
827.0
 20
682.0
 30
0.0
 11
827.0
 21
846.0
 31
0.0
  0
ARC
  5
A0
100
AcDbEntity
  8
Ruru GWC
 62
256
370
-1
  6
ByLayer
100
AcDbCircle
 10
815.0
 20
846.0
 30
0.0
 40
12.0
100
AcDbArc
 50
0.0
 51
90.0
  0
LINE
  5
A1
100
AcDbEntity
100
AcDbLine
  8
Ruru GWC
 62
256
370
-1
  6
ByLayer
 10
409.426406871192853
 20
404.5
 30
0.0
 11
431.426406871192853
 21
382.5
 31
0.0
  0
LINE
  5
A2
100
AcDbEntity
100
AcDbLine
  8
Ruru GWC
 62
256
370
-1
  6
ByLayer
 10
372.5
 20
399.0
 30
0.0
 11
419.0
 21
352.5
 31
0.0
  0
LINE
  5
A3
100
AcDbEntity
100
AcDbLine
  8
Ruru GWC
 62
256
370
-1
  6
ByLayer
 10
409.426406871192853
 20
404.5
 30
0.0
 11
363.5
 21
404.5
 31
0.0
  0
LINE
  5
A4
100
AcDbEntity
100
AcDbLine
  8
Ruru GWC
 62
256
370
-1
  6
ByLayer
 10
338.5
 20
429.5
 30
0.0
 11
363.5
 21
404.5
 31
0.0
  0
LINE
  5
A5
100
AcDbEntity
100
AcDbLine
  8
Ruru GWC
 62
256
370
-1
  6
ByLayer
 10
372.5
 20
399.0
 30
0.0
 11
326.573593128807147
 21
399.0
 31
0.0
  0
LINE
  5
A6
100
AcDbEntity
100
AcDbLine
  8
Ruru GWC
 62
256
370
-1
  6
ByLayer
 10
308.5
 20
417.073593128807147
 30
0.0
 11
326.573593128807147
 21
399.0
 31
0.0
  0
ARC
  5
A7
100
AcDbEntity
  8
Ruru GWC
 62
256
370
-1
  6
ByLayer
100
AcDbCircle
 10
138.0
 20
583.0
 30
0.0
 40
12.0
100
AcDbArc
 50
90.0
 51
180.0
  0
ARC
  5
A8
100
AcDbEntity
  8
Ruru GWC
 62
256
370
-1
  6
ByLayer
100
AcDbCircle
 10
168.0
 20
553.0
 30
0.0
 40
12.0
100
AcDbArc
 50
90.0
 51
180.0
  0
LINE
  5
A9
100
AcDbEntity
100
AcDbLine
  8
Ruru GWC
 62
256
370
-1
  6
ByLayer
 10
126.0
 20
583.0
 30
0.0
 11
126.0
 21
152.0
 31
0.0
  0
ARC
  5
AA
100
AcDbEntity
  8
Ruru GWC
 62
256
370
-1
  6
ByLayer
100
AcDbCircle
 10
138.0
 20
152.0
 30
0.0
 40
12.0
100
AcDbArc
 50
180.0
 51
269.9999999999994316
  0
LINE
  5
AB
100
AcDbEntity
100
AcDbLine
  8
Ruru GWC
 62
256
370
-1
  6
ByLayer
 10
156.0
 20
553.0
 30
0.0
 11
156.0
 21
182.0
 31
0.0
  0
ARC
  5
AC
100
AcDbEntity
  8
Ruru GWC
 62
256
370
-1
  6
ByLayer
100
AcDbCircle
 10
168.0
 20
182.0
 30
0.0
 40
12.0
100
AcDbArc
 50
180.0
 51
270.0
  0
ARC
  5
AD
100
AcDbEntity
  8
Ruru GWC
 62
256
370
-1
  6
ByLayer
100
AcDbCircle
 10
1153.0
 20
583.0
 30
0.0
 40
12.0
100
AcDbArc
 50
0.0
 51
90.0
  0
ARC
  5
AE
100
AcDbEntity
  8
Ruru GWC
 62
256
370
-1
  6
ByLayer
100
AcDbCircle
 10
1123.0
 20
553.0
 30
0.0
 40
12.0
100
AcDbArc
 50
0.0
 51
90.0
  0
LINE
  5
AF
100
AcDbEntity
100
AcDbLine
  8
Ruru GWC
 62
256
370
-1
  6
ByLayer
 10
1135.0
 20
553.0
 30
0.0
 11
1135.0
 21
182.0
 31
0.0
  0
ARC
  5
B0
100
AcDbEntity
  8
Ruru GWC
 62
256
370
-1
  6
ByLayer
100
AcDbCircle
 10
1123.0
 20
182.0
 30
0.0
 40
12.0
100
AcDbArc
 50
270.0
 51
0.0
  0
LINE
  5
B1
100
AcDbEntity
100
AcDbLine
  8
Ruru GWC
 62
256
370
-1
  6
ByLayer
 10
1165.0
 20
583.0
 30
0.0
 11
1165.0
 21
152.0
 31
0.0
  0
ARC
  5
B2
100
AcDbEntity
  8
Ruru GWC
 62
256
370
-1
  6
ByLayer
100
AcDbCircle
 10
1153.0
 20
152.0
 30
0.0
 40
12.0
100
AcDbArc
 50
270.0
 51
0.0
  0
LINE
  5
B3
100
AcDbEntity
100
AcDbLine
  8
Ruru GWC
 62
256
370
-1
  6
ByLayer
 10
338.5
 20
508.0
 30
0.0
 11
338.5
 21
429.5
 31
0.0
  0
ARC
  5
B4
100
AcDbEntity
  8
Ruru GWC
 62
256
370
-1
  6
ByLayer
100
AcDbCircle
 10
326.5
 20
508.0
 30
0.0
 40
12.0
100
AcDbArc
 50
0.0
 51
90.0
  0
ARC
  5
B5
100
AcDbEntity
  8
Ruru GWC
 62
256
370
-1
  6
ByLayer
100
AcDbCircle
 10
243.0
 20
478.0
 30
0.0
 40
12.0
100
AcDbArc
 50
90.0
 51
180.0
  0
LINE
  5
B6
100
AcDbEntity
100
AcDbLine
  8
Ruru GWC
 62
256
370
-1
  6
ByLayer
 10
326.5
 20
520.0
 30
0.0
 11
213.0
 21
520.0
 31
0.0
  0
ARC
  5
B7
100
AcDbEntity
  8
Ruru GWC
 62
256
370
-1
  6
ByLayer
100
AcDbCircle
 10
213.0
 20
508.0
 30
0.0
 40
12.0
100
AcDbArc
 50
90.0
 51
180.0
  0
LINE
  5
B8
100
AcDbEntity
100
AcDbLine
  8
Ruru GWC
 62
256
370
-1
  6
ByLayer
 10
308.5
 20
478.0
 30
0.0
 11
308.5
 21
417.073593128807147
 31
0.0
  0
LINE
  5
B9
100
AcDbEntity
100
AcDbLine
  8
Ruru GWC
 62
256
370
-1
  6
ByLayer
 10
296.5
 20
490.0
 30
0.0
 11
243.0
 21
490.0
 31
0.0
  0
ARC
  5
BA
100
AcDbEntity
  8
Ruru GWC
 62
256
370
-1
  6
ByLayer
100
AcDbCircle
 10
296.5
 20
478.0
 30
0.0
 40
12.0
100
AcDbArc
 50
0.0
 51
90.0
  0
LINE
  5
BB
100
AcDbEntity
100
AcDbLine
  8
Ruru GWC
 62
256
370
-1
  6
ByLayer
 10
231.0
 20
478.0
 30
0.0
 11
231.0
 21
257.0
 31
0.0
  0
ARC
  5
BC
100
AcDbEntity
  8
Ruru GWC
 62
256
370
-1
  6
ByLayer
100
AcDbCircle
 10
243.0
 20
257.0
 30
0.0
 40
12.0
100
AcDbArc
 50
180.0
 51
270.0
  0
LINE
  5
BD
100
AcDbEntity
100
AcDbLine
  8
Ruru GWC
 62
256
370
-1
  6
ByLayer
 10
201.0
 20
508.0
 30
0.0
 11
201.0
 21
227.0
 31
0.0
  0
ARC
  5
BE
100
AcDbEntity
  8
Ruru GWC
 62
256
370
-1
  6
ByLayer
100
AcDbCircle
 10
213.0
 20
227.0
 30
0.0
 40
12.0
100
AcDbArc
 50
180.0
 51
270.0
  0
LINE
  5
BF
100
AcDbEntity
100
AcDbLine
  8
Ruru GWC
 62
256
370
-1
  6
ByLayer
 10
338.5
 20
215.0
 30
0.0
 11
213.0
 21
215.0
 31
0.0
  0
LINE
  5
C0
100
AcDbEntity
100
AcDbLine
  8
Ruru GWC
 62
256
370
-1
  6
ByLayer
 10
338.5
 20
202.5
 30
0.0
 11
338.5
 21
227.5
 31
0.0
  0
ARC
  5
C1
100
AcDbEntity
  8
Ruru GWC
 62
256
370
-1
  6
ByLayer
100
AcDbCircle
 10
320.5
 20
271.0
 30
0.0
 40
12.0
100
AcDbArc
 50
90.0
 51
180.0
  0
LINE
  5
C2
100
AcDbEntity
100
AcDbLine
  8
Ruru GWC
 62
256
370
-1
  6
ByLayer
 10
296.5
 20
245.0
 30
0.0
 11
243.0
 21
245.0
 31
0.0
  0
LINE
  5
C3
100
AcDbEntity
100
AcDbLine
  8
Ruru GWC
 62
256
370
-1
  6
ByLayer
 10
308.5
 20
257.0
 30
0.0
 11
308.5
 21
271.0
 31
0.0
  0
ARC
  5
C4
100
AcDbEntity
  8
Ruru GWC
 62
256
370
-1
  6
ByLayer
100
AcDbCircle
 10
296.5
 20
257.0
 30
0.0
 40
12.0
100
AcDbArc
 50
270.0
 51
0.0
  0
LINE
  5
C5
100
AcDbEntity
100
AcDbLine
  8
Ruru GWC
 62
256
370
-1
  6
ByLayer
 10
326.5
 20
283.0
 30
0.0
 11
320.5
 21
283.0
 31
0.0
  0
ARC
  5
C6
100
AcDbEntity
  8
Ruru GWC
 62
256
370
-1
  6
ByLayer
100
AcDbCircle
 10
326.5
 20
271.0
 30
0.0
 40
12.0
100
AcDbArc
 50
0.0
 51
90.0
  0
LINE
  5
C7
100
AcDbEntity
100
AcDbLine
  8
Ruru GWC
 62
256
370
-1
  6
ByLayer
 10
338.5
 20
245.0
 30
0.0
 11
338.5
 21
271.0
 31
0.0
  0
LINE
  5
C8
100
AcDbEntity
100
AcDbLine
  8
Ruru GWC
 62
256
370
-1
  6
ByLayer
 10
326.0
 20
245.0
 30
0.0
 11
351.0
 21
245.0
 31
0.0
  0
ARC
  5
C9
100
AcDbEntity
  8
Ruru GWC
 62
256
370
-1
  6
ByLayer
100
AcDbCircle
 10
973.0
 20
340.5
 30
0.0
 40
12.0
100
AcDbArc
 50
0.0
 51
90.0
  0
ARC
  5
CA
100
AcDbEntity
  8
Ruru GWC
 62
256
370
-1
  6
ByLayer
100
AcDbCircle
 10
1003.0
 20
370.5
 30
0.0
 40
12.0
100
AcDbArc
 50
0.0
 51
90.0
  0
ARC
  5
CB
100
AcDbEntity
  8
Ruru GWC
 62
256
370
-1
  6
ByLayer
100
AcDbCircle
 10
607.5
 20
257.0
 30
0.0
 40
12.0
100
AcDbArc
 50
270.0
 51
0.0
  0
ARC
  5
CC
100
AcDbEntity
  8
Ruru GWC
 62
256
370
-1
  6
ByLayer
100
AcDbCircle
 10
637.5
 20
227.0
 30
0.0
 40
12.0
100
AcDbArc
 50
270.0
 51
0.0
  0
LINE
  5
CD
100
AcDbEntity
100
AcDbLine
  8
Ruru GWC
 62
256
370
-1
  6
ByLayer
 10
1015.0
 20
370.5
 30
0.0
 11
1015.0
 21
257.0
 31
0.0
  0
ARC
  5
CE
100
AcDbEntity
  8
Ruru GWC
 62
256
370
-1
  6
ByLayer
100
AcDbCircle
 10
1027.0
 20
257.0
 30
0.0
 40
12.0
100
AcDbArc
 50
180.0
 51
270.0
  0
LINE
  5
CF
100
AcDbEntity
100
AcDbLine
  8
Ruru GWC
 62
256
370
-1
  6
ByLayer
 10
1048.0
 20
245.0
 30
0.0
 11
1027.0
 21
245.0
 31
0.0
  0
ARC
  5
D0
100
AcDbEntity
  8
Ruru GWC
 62
256
370
-1
  6
ByLayer
100
AcDbCircle
 10
1048.0
 20
257.0
 30
0.0
 40
12.0
100
AcDbArc
 50
270.0
 51
0.0
  0
LINE
  5
D1
100
AcDbEntity
100
AcDbLine
  8
Ruru GWC
 62
256
370
-1
  6
ByLayer
 10
985.0
 20
340.5
 30
0.0
 11
985.0
 21
227.0
 31
0.0
  0
ARC
  5
D2
100
AcDbEntity
  8
Ruru GWC
 62
256
370
-1
  6
ByLayer
100
AcDbCircle
 10
997.0
 20
227.0
 30
0.0
 40
12.0
100
AcDbArc
 50
180.0
 51
270.0
  0
LINE
  5
D3
100
AcDbEntity
100
AcDbLine
  8
Ruru GWC
 62
256
370
-1
  6
ByLayer
 10
1078.0
 20
215.0
 30
0.0
 11
997.0
 21
215.0
 31
0.0
  0
ARC
  5
D4
100
AcDbEntity
  8
Ruru GWC
 62
256
370
-1
  6
ByLayer
100
AcDbCircle
 10
1078.0
 20
227.0
 30
0.0
 40
12.0
100
AcDbArc
 50
270.0
 51
0.0
  0
LINE
  5
D5
100
AcDbEntity
100
AcDbLine
  8
Ruru GWC
 62
256
370
-1
  6
ByLayer
 10
419.0
 20
352.5
 30
0.0
 11
532.5
 21
352.5
 31
0.0
  0
ARC
  5
D6
100
AcDbEntity
  8
Ruru GWC
 62
256
370
-1
  6
ByLayer
100
AcDbCircle
 10
532.5
 20
340.5
 30
0.0
 40
12.0
100
AcDbArc
 50
0.0
 51
90.0
  0
LINE
  5
D7
100
AcDbEntity
100
AcDbLine
  8
Ruru GWC
 62
256
370
-1
  6
ByLayer
 10
431.426406871192853
 20
382.5
 30
0.0
 11
562.5
 21
382.5
 31
0.0
  0
ARC
  5
D8
100
AcDbEntity
  8
Ruru GWC
 62
256
370
-1
  6
ByLayer
100
AcDbCircle
 10
562.5
 20
370.5
 30
0.0
 40
12.0
100
AcDbArc
 50
0.0
 51
90.0
  0
LINE
  5
D9
100
AcDbEntity
100
AcDbLine
  8
Ruru GWC
 62
256
370
-1
  6
ByLayer
 10
574.5
 20
370.5
 30
0.0
 11
574.5
 21
257.0
 31
0.0
  0
LINE
  5
DA
100
AcDbEntity
100
AcDbLine
  8
Ruru GWC
 62
256
370
-1
  6
ByLayer
 10
607.5
 20
245.0
 30
0.0
 11
586.5
 21
245.0
 31
0.0
  0
ARC
  5
DB
100
AcDbEntity
  8
Ruru GWC
 62
256
370
-1
  6
ByLayer
100
AcDbCircle
 10
586.5
 20
257.0
 30
0.0
 40
12.0
100
AcDbArc
 50
180.0
 51
270.0
  0
LINE
  5
DC
100
AcDbEntity
100
AcDbLine
  8
Ruru GWC
 62
256
370
-1
  6
ByLayer
 10
544.5
 20
340.5
 30
0.0
 11
544.5
 21
227.0
 31
0.0
  0
LINE
  5
DD
100
AcDbEntity
100
AcDbLine
  8
Ruru GWC
 62
256
370
-1
  6
ByLayer
 10
637.5
 20
215.0
 30
0.0
 11
556.5
 21
215.0
 31
0.0
  0
ARC
  5
DE
100
AcDbEntity
  8
Ruru GWC
 62
256
370
-1
  6
ByLayer
100
AcDbCircle
 10
556.5
 20
227.0
 30
0.0
 40
12.0
100
AcDbArc
 50
180.0
 51
270.0
  0
ARC
  5
DF
100
AcDbEntity
  8
Ruru GWC
 62
256
370
-1
  6
ByLayer
100
AcDbCircle
 10
706.5
 20
227.0
 30
0.0
 40
12.0
100
AcDbArc
 50
180.0
 51
270.0
  0
ARC
  5
E0
100
AcDbEntity
  8
Ruru GWC
 62
256
370
-1
  6
ByLayer
100
AcDbCircle
 10
736.5
 20
257.0
 30
0.0
 40
12.0
100
AcDbArc
 50
180.0
 51
270.0
  0
LINE
  5
E1
100
AcDbEntity
100
AcDbLine
  8
Ruru GWC
 62
256
370
-1
  6
ByLayer
 10
787.5
 20
215.0
 30
0.0
 11
706.5
 21
215.0
 31
0.0
  0
ARC
  5
E2
100
AcDbEntity
  8
Ruru GWC
 62
256
370
-1
  6
ByLayer
100
AcDbCircle
 10
787.5
 20
227.0
 30
0.0
 40
12.0
100
AcDbArc
 50
270.0
 51
0.0
  0
LINE
  5
E3
100
AcDbEntity
100
AcDbLine
  8
Ruru GWC
 62
256
370
-1
  6
ByLayer
 10
757.5
 20
245.0
 30
0.0
 11
736.5
 21
245.0
 31
0.0
  0
ARC
  5
E4
100
AcDbEntity
  8
Ruru GWC
 62
256
370
-1
  6
ByLayer
100
AcDbCircle
 10
757.5
 20
257.0
 30
0.0
 40
12.0
100
AcDbArc
 50
270.0
 51
0.0
  0
LINE
  5
E5
100
AcDbEntity
100
AcDbLine
  8
Ruru GWC
 62
256
370
-1
  6
ByLayer
 10
799.5
 20
340.5
 30
0.0
 11
799.5
 21
227.0
 31
0.0
  0
LINE
  5
E6
100
AcDbEntity
100
AcDbLine
  8
Ruru GWC
 62
256
370
-1
  6
ByLayer
 10
811.5
 20
352.5
 30
0.0
 11
973.0
 21
352.5
 31
0.0
  0
ARC
  5
E7
100
AcDbEntity
  8
Ruru GWC
 62
256
370
-1
  6
ByLayer
100
AcDbCircle
 10
811.5
 20
340.5
 30
0.0
 40
12.0
100
AcDbArc
 50
90.0
 51
180.0
  0
LINE
  5
E8
100
AcDbEntity
100
AcDbLine
  8
Ruru GWC
 62
256
370
-1
  6
ByLayer
 10
619.5
 20
415.5
 30
0.0
 11
619.5
 21
257.0
 31
0.0
  0
ARC
  5
E9
100
AcDbEntity
  8
Ruru GWC
 62
256
370
-1
  6
ByLayer
100
AcDbCircle
 10
607.5
 20
415.5
 30
0.0
 40
12.0
100
AcDbArc
 50
0.0
 51
90.0
  0
LINE
  5
EA
100
AcDbEntity
100
AcDbLine
  8
Ruru GWC
 62
256
370
-1
  6
ByLayer
 10
649.5
 20
445.5
 30
0.0
 11
649.5
 21
227.0
 31
0.0
  0
ARC
  5
EB
100
AcDbEntity
  8
Ruru GWC
 62
256
370
-1
  6
ByLayer
100
AcDbCircle
 10
637.5
 20
445.5
 30
0.0
 40
12.0
100
AcDbArc
 50
0.0
 51
90.0
  0
LINE
  5
EC
100
AcDbEntity
100
AcDbLine
  8
Ruru GWC
 62
256
370
-1
  6
ByLayer
 10
591.5
 20
457.5
 30
0.0
 11
637.5
 21
457.5
 31
0.0
  0
ARC
  5
ED
100
AcDbEntity
  8
Ruru GWC
 62
256
370
-1
  6
ByLayer
100
AcDbCircle
 10
591.5
 20
469.5
 30
0.0
 40
12.0
100
AcDbArc
 50
180.0
 51
270.0
  0
LINE
  5
EE
100
AcDbEntity
100
AcDbLine
  8
Ruru GWC
 62
256
370
-1
  6
ByLayer
 10
561.5
 20
427.5
 30
0.0
 11
607.5
 21
427.5
 31
0.0
  0
ARC
  5
EF
100
AcDbEntity
  8
Ruru GWC
 62
256
370
-1
  6
ByLayer
100
AcDbCircle
 10
561.5
 20
439.5
 30
0.0
 40
12.0
100
AcDbArc
 50
180.0
 51
270.0
  0
LINE
  5
F0
100
AcDbEntity
100
AcDbLine
  8
Ruru GWC
 62
256
370
-1
  6
ByLayer
 10
969.5
 20
565.0
 30
0.0
 11
974.5
 21
570.0
 31
0.0
  0
LINE
  5
F1
100
AcDbEntity
100
AcDbLine
  8
Ruru GWC
 62
256
370
-1
  6
ByLayer
 10
1056.5
 20
570.0
 30
0.0
 11
974.5
 21
570.0
 31
0.0
  0
LINE
  5
F2
100
AcDbEntity
100
AcDbLine
  8
Ruru GWC
 62
256
370
-1
  6
ByLayer
 10
1123.0
 20
565.0
 30
0.0
 11
1061.5
 21
565.0
 31
0.0
  0
LINE
  5
F3
100
AcDbEntity
100
AcDbLine
  8
Ruru GWC
 62
256
370
-1
  6
ByLayer
 10
1056.5
 20
570.0
 30
0.0
 11
1061.5
 21
565.0
 31
0.0
  0
LINE
  5
F4
100
AcDbEntity
100
AcDbLine
  8
Ruru GWC
 62
256
370
-1
  6
ByLayer
 10
811.5
 20
382.5
 30
0.0
 11
1003.0
 21
382.5
 31
0.0
  0
ARC
  5
F5
100
AcDbEntity
  8
Ruru GWC
 62
256
370
-1
  6
ByLayer
100
AcDbCircle
 10
811.5
 20
394.5
 30
0.0
 40
12.0
100
AcDbArc
 50
180.0
 51
270.0
  0
LINE
  5
F6
100
AcDbEntity
100
AcDbLine
  8
Ruru GWC
 62
256
370
-1
  6
ByLayer
 10
724.5
 20
508.0
 30
0.0
 11
724.5
 21
257.0
 31
0.0
  0
LINE
  5
F7
100
AcDbEntity
100
AcDbLine
  8
Instalacje
 62
256
370
-1
  6
ByLayer
 10
1090.0
 20
418.0
 30
0.0
 11
0.9999999999999455
 21
418.0
 31
0.0
  0
LINE
  5
F8
100
AcDbEntity
100
AcDbLine
  8
Instalacje
 62
256
370
-1
  6
ByLayer
 10
1090.0
 20
402.0
 30
0.0
 11
0.9999999999999416
 21
402.0
 31
0.0
  0
LINE
  5
F9
100
AcDbEntity
100
AcDbLine
  8
Ruru GWC
 62
256
370
-1
  6
ByLayer
 10
682.3015385000217066
 20
140.0
 30
0.0
 11
137.9999999999998863
 21
140.0
 31
0.0
  0
LINE
  5
FA
100
AcDbEntity
100
AcDbLine
  8
Ruru GWC
 62
256
370
-1
  6
ByLayer
 10
1153.0
 20
140.0
 30
0.0
 11
810.2015385000216838
 21
140.0
 31
0.0
  0
LINE
  5
FB
100
AcDbEntity
100
AcDbLine
  8
Ruru GWC
 62
256
370
-1
  6
ByLayer
 10
1123.0
 20
170.0
 30
0.0
 11
699.3415385000216702
 21
170.0
 31
0.0
  0
LINE
  5
FC
100
AcDbEntity
100
AcDbLine
  8
Ruru GWC
 62
256
370
-1
  6
ByLayer
 10
664.4130877957964003
 20
170.0
 30
0.0
 11
168.0
 21
170.0
 31
0.0
  0
LINE
  5
FD
100
AcDbEntity
100
AcDbLine
  8
Ruru GWC
 62
256
370
-1
  6
ByLayer
 10
716.9072721275633739
 20
140.1833032995563144
 30
0.0
 11
664.4130877957964003
 21
170.0
 31
0.0
  0
LINE
  5
FE
100
AcDbEntity
100
AcDbLine
  8
Ruru GWC
 62
256
370
-1
  6
ByLayer
 10
716.9072721275633739
 20
140.1833032995563144
 30
0.0
 11
789.4272721275633558
 21
140.1833032995563144
 31
0.0
  0
LINE
  5
FF
100
AcDbEntity
100
AcDbLine
  8
Ruru GWC
 62
256
370
-1
  6
ByLayer
 10
789.4272721275633558
 20
127.6833032995563144
 30
0.0
 11
789.4272721275633558
 21
152.6833032995563144
 31
0.0
  0
LINE
  5
100
100
AcDbEntity
100
AcDbLine
  8
Ruru GWC
 62
256
370
-1
  6
ByLayer
 10
810.2015385000216838
 20
127.5
 30
0.0
 11
810.2015385000216838
 21
152.5
 31
0.0
  0
LINE
  5
101
100
AcDbEntity
100
AcDbLine
  8
Ruru GWC
 62
256
370
-1
  6
ByLayer
 10
699.3415385000216702
 20
157.5
 30
0.0
 11
699.3415385000216702
 21
182.5
 31
0.0
  0
LINE
  5
102
100
AcDbEntity
100
AcDbLine
  8
Ruru GWC
 62
256
370
-1
  6
ByLayer
 10
682.3015385000217066
 20
127.5
 30
0.0
 11
682.3015385000217066
 21
152.5
 31
0.0
  0
LINE
  5
103
100
AcDbEntity
100
AcDbLine
  8
Ruru GWC
 62
256
370
-1
  6
ByLayer
 10
423.0
 20
670.0
 30
0.0
 11
63.0
 21
670.0
 31
0.0
  0
LINE
  5
104
100
AcDbEntity
100
AcDbLine
  8
Ruru GWC
 62
256
370
-1
  6
ByLayer
 10
423.0
 20
640.0
 30
0.0
 11
93.0
 21
640.0
 31
0.0
  0
LINE
  5
105
100
AcDbEntity
100
AcDbLine
  8
Ruru GWC
 62
256
370
-1
  6
ByLayer
 10
423.0
 20
670.0
 30
0.0
 11
438.0
 21
655.0
 31
0.0
  0
LINE
  5
106
100
AcDbEntity
100
AcDbLine
  8
Ruru GWC
 62
256
370
-1
  6
ByLayer
 10
423.0
 20
640.0
 30
0.0
 11
438.0
 21
655.0
 31
0.0
  0
LINE
  5
107
100
AcDbEntity
100
AcDbLine
  8
Ruru GWC
 62
256
370
-1
  6
ByLayer
 10
705.5
 20
670.0
 30
0.0
 11
666.5
 21
670.0
 31
0.0
  0
LINE
  5
108
100
AcDbEntity
100
AcDbLine
  8
Ruru GWC
 62
256
370
-1
  6
ByLayer
 10
735.5
 20
640.0
 30
0.0
 11
666.5
 21
640.0
 31
0.0
  0
LINE
  5
109
100
AcDbEntity
100
AcDbLine
  8
Ruru GWC
 62
256
370
-1
  6
ByLayer
 10
651.5
 20
655.0
 30
0.0
 11
666.5
 21
640.0
 31
0.0
  0
LINE
  5
10A
100
AcDbEntity
100
AcDbLine
  8
Ruru GWC
 62
256
370
-1
  6
ByLayer
 10
651.5
 20
655.0
 30
0.0
 11
666.5
 21
670.0
 31
0.0
  0
LINE
  5
10B
100
AcDbEntity
100
AcDbLine
  8
0
 62
256
370
-1
  6
ByLayer
 10
450.0
 20
680.0
 30
0.0
 11
438.0
 21
680.0
 31
0.0
  0
LINE
  5
10C
100
AcDbEntity
100
AcDbLine
  8
0
 62
256
370
-1
  6
ByLayer
 10
450.0
 20
640.0
 30
0.0
 11
438.0
 21
640.0
 31
0.0
  0
LINE
  5
10D
100
AcDbEntity
100
AcDbLine
  8
0
 62
256
370
-1
  6
ByLayer
 10
450.0
 20
600.0
 30
0.0
 11
438.0
 21
600.0
 31
0.0
  0
LINE
  5
10E
100
AcDbEntity
100
AcDbLine
  8
0
 62
256
370
-1
  6
ByLayer
 10
651.5
 20
680.0
 30
0.0
 11
639.5
 21
680.0
 31
0.0
  0
LINE
  5
10F
100
AcDbEntity
100
AcDbLine
  8
0
 62
256
370
-1
  6
ByLayer
 10
651.5
 20
640.0
 30
0.0
 11
639.5
 21
640.0
 31
0.0
  0
LINE
  5
110
100
AcDbEntity
100
AcDbLine
  8
0
 62
256
370
-1
  6
ByLayer
 10
651.5
 20
600.0
 30
0.0
 11
639.5
 21
600.0
 31
0.0
  0
LINE
  5
111
100
AcDbEntity
100
AcDbLine
  8
0
 62
256
370
-1
  6
ByLayer
 10
651.5
 20
560.0
 30
0.0
 11
639.5
 21
560.0
 31
0.0
  0
LINE
  5
112
100
AcDbEntity
100
AcDbLine
  8
0
 62
256
370
-1
  6
ByLayer
 10
651.5
 20
520.0
 30
0.0
 11
639.5
 21
520.0
 31
0.0
  0
LINE
  5
113
100
AcDbEntity
100
AcDbLine
  8
0
 62
256
370
-1
  6
ByLayer
 10
611.5
 20
509.5
 30
0.0
 11
611.5
 21
521.5
 31
0.0
  0
LINE
  5
114
100
AcDbEntity
100
AcDbLine
  8
0
 62
256
370
-1
  6
ByLayer
 10
571.5
 20
509.5
 30
0.0
 11
571.5
 21
521.5
 31
0.0
  0
LINE
  5
115
100
AcDbEntity
100
AcDbLine
  8
0
 62
256
370
-1
  6
ByLayer
 10
531.5
 20
509.5
 30
0.0
 11
531.5
 21
521.5
 31
0.0
  0
LINE
  5
116
100
AcDbEntity
100
AcDbLine
  8
Ruru GWC
 62
256
370
-1
  6
ByLayer
 10
423.0
 20
595.0
 30
0.0
 11
138.0
 21
595.0
 31
0.0
  0
LINE
  5
117
100
AcDbEntity
100
AcDbLine
  8
Ruru GWC
 62
256
370
-1
  6
ByLayer
 10
423.0
 20
565.0
 30
0.0
 11
168.0
 21
565.0
 31
0.0
  0
LINE
  5
118
100
AcDbEntity
100
AcDbLine
  8
Ruru GWC
 62
256
370
-1
  6
ByLayer
 10
423.0
 20
595.0
 30
0.0
 11
438.0
 21
580.0
 31
0.0
  0
LINE
  5
119
100
AcDbEntity
100
AcDbLine
  8
Ruru GWC
 62
256
370
-1
  6
ByLayer
 10
423.0
 20
565.0
 30
0.0
 11
438.0
 21
580.0
 31
0.0
  0
LINE
  5
11A
100
AcDbEntity
100
AcDbLine
  8
Ruru GWC
 62
256
370
-1
  6
ByLayer
 10
1153.0
 20
595.0
 30
0.0
 11
666.5
 21
595.0
 31
0.0
  0
LINE
  5
11B
100
AcDbEntity
100
AcDbLine
  8
Ruru GWC
 62
256
370
-1
  6
ByLayer
 10
969.5
 20
565.0
 30
0.0
 11
666.5
 21
565.0
 31
0.0
  0
LINE
  5
11C
100
AcDbEntity
100
AcDbLine
  8
Ruru GWC
 62
256
370
-1
  6
ByLayer
 10
651.5
 20
580.0
 30
0.0
 11
666.5
 21
565.0
 31
0.0
  0
LINE
  5
11D
100
AcDbEntity
100
AcDbLine
  8
Ruru GWC
 62
256
370
-1
  6
ByLayer
 10
651.5
 20
580.0
 30
0.0
 11
666.5
 21
595.0
 31
0.0
  0
LINE
  5
11E
100
AcDbEntity
100
AcDbLine
  8
Ruru GWC
 62
256
370
-1
  6
ByLayer
 10
651.5
 20
655.0
 30
0.0
 11
639.5
 21
655.0
 31
0.0
  0
LINE
  5
11F
100
AcDbEntity
100
AcDbLine
  8
Ruru GWC
 62
256
370
-1
  6
ByLayer
 10
450.0
 20
655.0
 30
0.0
 11
438.0
 21
655.0
 31
0.0
  0
ARC
  5
120
100
AcDbEntity
  8
Ruru GWC
 62
256
370
-1
  6
ByLayer
100
AcDbCircle
 10
712.5
 20
508.0
 30
0.0
 40
12.0
100
AcDbArc
 50
0.0
 51
90.0
  0
LINE
  5
121
100
AcDbEntity
100
AcDbLine
  8
Ruru GWC
 62
256
370
-1
  6
ByLayer
 10
694.5
 20
508.0
 30
0.0
 11
694.5
 21
227.0
 31
0.0
  0
LINE
  5
122
100
AcDbEntity
100
AcDbLine
  8
Ruru GWC
 62
256
370
-1
  6
ByLayer
 10
651.5
 20
549.5
 30
0.0
 11
681.0
 21
520.0
 31
0.0
  0
ARC
  5
123
100
AcDbEntity
  8
Ruru GWC
 62
256
370
-1
  6
ByLayer
100
AcDbCircle
 10
682.5
 20
508.0
 30
0.0
 40
12.0
100
AcDbArc
 50
0.0
 51
90.0
  0
LINE
  5
124
100
AcDbEntity
100
AcDbLine
  8
Ruru GWC
 62
256
370
-1
  6
ByLayer
 10
681.0
 20
520.0
 30
0.0
 11
682.5
 21
520.0
 31
0.0
  0
LINE
  5
125
100
AcDbEntity
100
AcDbLine
  8
Ruru GWC
 62
256
370
-1
  6
ByLayer
 10
682.5
 20
520.0
 30
0.0
 11
712.5
 21
520.0
 31
0.0
  0
LINE
  5
126
100
AcDbEntity
100
AcDbLine
  8
Ruru GWC
 62
256
370
-1
  6
ByLayer
 10
549.5
 20
494.5
 30
0.0
 11
549.5
 21
439.5
 31
0.0
  0
LINE
  5
127
100
AcDbEntity
100
AcDbLine
  8
Ruru GWC
 62
256
370
-1
  6
ByLayer
 10
579.5
 20
494.5
 30
0.0
 11
579.5
 21
469.5
 31
0.0
  0
LINE
  5
128
100
AcDbEntity
100
AcDbLine
  8
Ruru GWC
 62
256
370
-1
  6
ByLayer
 10
564.5
 20
509.5
 30
0.0
 11
579.5
 21
494.5
 31
0.0
  0
LINE
  5
129
100
AcDbEntity
100
AcDbLine
  8
Ruru GWC
 62
256
370
-1
  6
ByLayer
 10
549.5
 20
494.5
 30
0.0
 11
564.5
 21
509.5
 31
0.0
  0
LINE
  5
12A
100
AcDbEntity
100
AcDbLine
  8
Ruru GWC
 62
256
370
-1
  6
ByLayer
 10
450.0
 20
580.0
 30
0.0
 11
438.0
 21
580.0
 31
0.0
  0
ARC
  5
12B
100
AcDbEntity
  8
Ruru GWC
 62
256
370
-1
  6
ByLayer
100
AcDbCircle
 10
450.0
 20
643.0
 30
0.0
 40
12.0
100
AcDbArc
 50
0.0
 51
90.0
  0
LINE
  5
12C
100
AcDbEntity
100
AcDbLine
  8
Ruru GWC
 62
256
370
-1
  6
ByLayer
 10
452.0
 20
633.0
 30
0.0
 11
462.0
 21
643.0
 31
0.0
  0
LINE
  5
12D
100
AcDbEntity
100
AcDbLine
  8
Ruru GWC
 62
256
370
-1
  6
ByLayer
 10
452.0
 20
622.5
 30
0.0
 11
452.0
 21
633.0
 31
0.0
  0
ARC
  5
12E
100
AcDbEntity
  8
Ruru GWC
 62
256
370
-1
  6
ByLayer
100
AcDbCircle
 10
639.5
 20
643.0
 30
0.0
 40
12.0
100
AcDbArc
 50
90.0
 51
180.0
  0
LINE
  5
12F
100
AcDbEntity
100
AcDbLine
  8
Ruru GWC
 62
256
370
-1
  6
ByLayer
 10
627.5
 20
643.0
 30
0.0
 11
637.5
 21
633.0
 31
0.0
  0
LINE
  5
130
100
AcDbEntity
100
AcDbLine
  8
Ruru GWC
 62
256
370
-1
  6
ByLayer
 10
637.5
 20
622.5
 30
0.0
 11
637.5
 21
633.0
 31
0.0
  0
LINE
  5
131
100
AcDbEntity
100
AcDbLine
  8
Ruru GWC
 62
256
370
-1
  6
ByLayer
 10
450.0
 20
580.0
 30
0.0
 11
467.5
 21
562.5
 31
0.0
  0
ARC
  5
132
100
AcDbEntity
  8
Ruru GWC
 62
5
370
-1
  6
ByLayer
100
AcDbCircle
 10
464.0
 20
706.0
 30
0.0
 40
12.0
100
AcDbArc
 50
90.0
 51
180.0
  0
LINE
  5
133
100
AcDbEntity
100
AcDbLine
  8
Ruru GWC
 62
5
370
-1
  6
ByLayer
 10
452.0
 20
602.0
 30
0.0
 11
452.0
 21
612.5
 31
0.0
  0
ARC
  5
134
100
AcDbEntity
  8
Ruru GWC
 62
5
370
-1
  6
ByLayer
100
AcDbCircle
 10
450.0
 20
592.0
 30
0.0
 40
12.0
100
AcDbArc
 50
270.0
 51
0.0
  0
LINE
  5
135
100
AcDbEntity
100
AcDbLine
  8
Ruru GWC
 62
5
370
-1
  6
ByLayer
 10
452.0
 20
602.0
 30
0.0
 11
462.0
 21
592.0
 31
0.0
  0
ARC
  5
136
100
AcDbEntity
  8
Ruru GWC
 62
5
370
-1
  6
ByLayer
100
AcDbCircle
 10
450.0
 20
667.0
 30
0.0
 40
12.0
100
AcDbArc
 50
270.0
 51
0.0
  0
LINE
  5
137
100
AcDbEntity
100
AcDbLine
  8
Ruru GWC
 62
5
370
-1
  6
ByLayer
 10
452.0
 20
677.0
 30
0.0
 11
462.0
 21
667.0
 31
0.0
  0
LINE
  5
138
100
AcDbEntity
100
AcDbLine
  8
Ruru GWC
 62
5
370
-1
  6
ByLayer
 10
452.0
 20
677.0
 30
0.0
 11
452.0
 21
706.0
 31
0.0
  0
ARC
  5
139
100
AcDbEntity
  8
Ruru GWC
 62
5
370
-1
  6
ByLayer
100
AcDbCircle
 10
639.5
 20
592.0
 30
0.0
 40
12.0
100
AcDbArc
 50
180.0
 51
270.0
  0
LINE
  5
13A
100
AcDbEntity
100
AcDbLine
  8
Ruru GWC
 62
5
370
-1
  6
ByLayer
 10
627.5
 20
592.0
 30
0.0
 11
637.5
 21
602.0
 31
0.0
  0
LINE
  5
13B
100
AcDbEntity
100
AcDbLine
  8
Ruru GWC
 62
5
370
-1
  6
ByLayer
 10
637.5
 20
602.0
 30
0.0
 11
637.5
 21
612.5
 31
0.0
  0
ARC
  5
13C
100
AcDbEntity
  8
Ruru GWC
 62
5
370
-1
  6
ByLayer
100
AcDbCircle
 10
639.5
 20
667.0
 30
0.0
 40
12.0
100
AcDbArc
 50
180.0
 51
270.0
  0
LINE
  5
13D
100
AcDbEntity
100
AcDbLine
  8
Ruru GWC
 62
5
370
-1
  6
ByLayer
 10
627.5
 20
667.0
 30
0.0
 11
637.5
 21
677.0
 31
0.0
  0
LINE
  5
13E
100
AcDbEntity
100
AcDbLine
  8
Ruru GWC
 62
256
370
-1
  6
ByLayer
 10
651.5
 20
580.0
 30
0.0
 11
639.5
 21
580.0
 31
0.0
  0
ARC
  5
13F
100
AcDbEntity
  8
Ruru GWC
 62
1
370
-1
  6
ByLayer
100
AcDbCircle
 10
639.5
 20
568.0
 30
0.0
 40
12.0
100
AcDbArc
 50
90.0
 51
171.6144613529186529
  0
ARC
  5
140
100
AcDbEntity
  8
Ruru GWC
 62
5
370
-1
  6
ByLayer
100
AcDbCircle
 10
552.5
 20
521.5
 30
0.0
 40
12.0
100
AcDbArc
 50
0.0
 51
90.0
  0
ARC
  5
141
100
AcDbEntity
  8
Ruru GWC
 62
5
370
-1
  6
ByLayer
100
AcDbCircle
 10
533.5
 20
535.5
 30
0.0
 40
12.0
100
AcDbArc
 50
180.0
 51
270.0
  0
LINE
  5
142
100
AcDbEntity
100
AcDbLine
  8
Ruru GWC
 62
5
370
-1
  6
ByLayer
 10
542.5
 20
523.5
 30
0.0
 11
552.5
 21
533.5
 31
0.0
  0
LINE
  5
143
100
AcDbEntity
100
AcDbLine
  8
Ruru GWC
 62
5
370
-1
  6
ByLayer
 10
542.5
 20
523.5
 30
0.0
 11
533.5
 21
523.5
 31
0.0
  0
ARC
  5
144
100
AcDbEntity
  8
Ruru GWC
 62
5
370
-1
  6
ByLayer
100
AcDbCircle
 10
639.5
 20
561.5
 30
0.0
 40
12.0
100
AcDbArc
 50
188.3855386470813471
 51
270.0
  0
LINE
  5
145
100
AcDbEntity
100
AcDbLine
  8
Ruru GWC
 62
256
370
-1
  6
ByLayer
 10
564.5
 20
521.5
 30
0.0
 11
564.5
 21
509.5
 31
0.0
  0
LINE
  5
146
100
AcDbEntity
100
AcDbLine
  8
Ruru GWC
 62
256
370
-1
  6
ByLayer
 10
651.5
 20
549.5
 30
0.0
 11
639.5
 21
549.5
 31
0.0
  0
ARC
  5
147
100
AcDbEntity
  8
Ruru GWC
 62
1
370
-1
  6
ByLayer
100
AcDbCircle
 10
639.5
 20
537.5
 30
0.0
 40
12.0
100
AcDbArc
 50
90.0
 51
180.0
  0
ARC
  5
148
100
AcDbEntity
  8
Ruru GWC
 62
1
370
-1
  6
ByLayer
100
AcDbCircle
 10
576.5
 20
521.5
 30
0.0
 40
12.0
100
AcDbArc
 50
90.0
 51
180.0
  0
LINE
  5
149
100
AcDbEntity
100
AcDbLine
  8
Ruru GWC
 62
1
370
-1
  6
ByLayer
 10
576.5
 20
533.5
 30
0.0
 11
586.5
 21
523.5
 31
0.0
  0
LINE
  5
14A
100
AcDbEntity
100
AcDbLine
  8
Ruru GWC
 62
1
370
-1
  6
ByLayer
 10
627.5
 20
535.5
 30
0.0
 11
627.5
 21
537.5
 31
0.0
  0
LINE
  5
14B
100
AcDbEntity
100
AcDbLine
  8
Ruru GWC
 62
1
370
-1
  6
ByLayer
 10
605.5
 20
523.5
 30
0.0
 11
586.5
 21
523.5
 31
0.0
  0
ARC
  5
14C
100
AcDbEntity
  8
Ruru GWC
 62
1
370
-1
  6
ByLayer
100
AcDbCircle
 10
615.5
 20
535.5
 30
0.0
 40
12.0
100
AcDbArc
 50
270.0
 51
0.0
  0
ARC
  5
14D
100
AcDbEntity
  8
Ruru GWC
 62
5
370
-1
  6
ByLayer
100
AcDbCircle
 10
625.5
 20
706.0
 30
0.0
 40
12.0
100
AcDbArc
 50
0.0
 51
90.0
  0
LINE
  5
14E
100
AcDbEntity
100
AcDbLine
  8
Ruru GWC
 62
5
370
-1
  6
ByLayer
 10
625.5
 20
718.0
 30
0.0
 11
464.0
 21
718.0
 31
0.0
  0
LINE
  5
14F
100
AcDbEntity
100
AcDbLine
  8
Ruru GWC
 62
5
370
-1
  6
ByLayer
 10
637.5
 20
697.5
 30
0.0
 11
637.5
 21
706.0
 31
0.0
  0
LINE
  5
150
100
AcDbEntity
100
AcDbLine
  8
Ruru GWC
 62
5
370
-1
  6
ByLayer
 10
637.5
 20
677.0
 30
0.0
 11
637.5
 21
687.5
 31
0.0
  0
LINE
  5
151
100
AcDbEntity
100
AcDbLine
  8
Ruru GWC
 62
5
370
-1
  6
ByLayer
 10
521.5
 20
552.5
 30
0.0
 11
521.5
 21
535.5
 31
0.0
  0
LINE
  5
152
100
AcDbEntity
100
AcDbLine
  8
Ruru GWC
 62
256
370
-1
  6
ByLayer
 10
542.7513000000000147
 20
562.5
 30
0.0
 11
467.5
 21
562.5
 31
0.0
  0
LINE
  5
153
100
AcDbEntity
100
AcDbLine
  8
Ruru GWC
 62
5
370
-1
  6
ByLayer
 10
533.658800000000042
 20
552.5
 30
0.0
 11
521.5
 21
552.5
 31
0.0
  0
LINE
  5
154
100
AcDbEntity
100
AcDbLine
  8
Ruru GWC
 62
1
370
-1
  6
ByLayer
 10
605.5
 20
523.5
 30
0.0
 11
605.5
 21
541.5082999999999629
 31
0.0
  0
LINE
  5
155
100
AcDbEntity
100
AcDbLine
  8
Ruru GWC
 62
1
370
-1
  6
ByLayer
 10
615.5
 20
523.5
 30
0.0
 11
615.5
 21
545.800899999999956
 31
0.0
  0
LINE
  5
156
100
AcDbEntity
100
AcDbLine
  8
Ruru GWC
 62
5
370
-1
  6
ByLayer
 10
604.7216000000000804
 20
559.75
 30
0.0
 11
627.6282899294162689
 21
559.75
 31
0.0
  0
LINE
  5
157
100
AcDbEntity
100
AcDbLine
  8
Ruru GWC
 62
1
370
-1
  6
ByLayer
 10
604.7215999999999667
 20
569.75
 30
0.0
 11
627.6282899294162689
 21
569.75
 31
0.0
  0
LINE
  5
158
100
AcDbEntity
100
AcDbLine
  8
Ruru GWC
 62
5
370
-1
  6
ByLayer
 10
637.5
 20
612.5
 30
0.0
 11
620.9917000000000371
 21
612.5
 31
0.0
  0
LINE
  5
159
100
AcDbEntity
100
AcDbLine
  8
Ruru GWC
 62
256
370
-1
  6
ByLayer
 10
637.5
 20
622.5
 30
0.0
 11
620.9917000000000371
 21
622.5
 31
0.0
  0
LINE
  5
15A
100
AcDbEntity
100
AcDbLine
  8
Ruru GWC
 62
5
370
-1
  6
ByLayer
 10
620.9917000000000371
 20
687.5
 30
0.0
 11
637.5
 21
687.5
 31
0.0
  0
LINE
  5
15B
100
AcDbEntity
100
AcDbLine
  8
Ruru GWC
 62
5
370
-1
  6
ByLayer
 10
617.1910000000000309
 20
697.5
 30
0.0
 11
637.5
 21
697.5
 31
0.0
  0
LINE
  5
15C
100
AcDbEntity
100
AcDbLine
  8
Ruru GWC
 62
256
370
-1
  6
ByLayer
 10
468.5083000000000197
 20
622.5
 30
0.0
 11
452.0
 21
622.5
 31
0.0
  0
LINE
  5
15D
100
AcDbEntity
100
AcDbLine
  8
Ruru GWC
 62
5
370
-1
  6
ByLayer
 10
468.5083000000000197
 20
612.5
 30
0.0
 11
452.0
 21
612.5
 31
0.0
  0
LINE
  5
15E
100
AcDbEntity
100
AcDbLine
  8
Ruru GWC
 62
256
370
-1
  6
ByLayer
 10
798.0919417533257274
 20
65.0
 30
0.0
 11
63.0
 21
65.0
 31
0.0
  0
LINE
  5
15F
100
AcDbEntity
100
AcDbLine
  8
Ruru GWC
 62
256
370
-1
  6
ByLayer
 10
798.0919417533257274
 20
52.5
 30
0.0
 11
798.0919417533257274
 21
77.5
 31
0.0
  0
LINE
  5
160
100
AcDbEntity
100
AcDbLine
  8
Ruru GWC
 62
256
370
-1
  6
ByLayer
 10
935.6000000000000227
 20
52.5000000000000284
 30
0.0
 11
935.6000000000000227
 21
77.5000000000000284
 31
0.0
  0
LINE
  5
161
100
AcDbEntity
100
AcDbLine
  8
Ruru GWC
 62
256
370
-1
  6
ByLayer
 10
1228.0
 20
65.0
 30
0.0
 11
934.8100000000000591
 21
65.0000000000000284
 31
0.0
  0
LINE
  5
162
100
AcDbEntity
100
AcDbLine
  8
Ruru GWC
 62
256
370
-1
  6
ByLayer
 10
1198.0
 20
95.0
 30
0.0
 11
814.8119417533257547
 21
95.0
 31
0.0
  0
LINE
  5
163
100
AcDbEntity
100
AcDbLine
  8
Ruru GWC
 62
256
370
-1
  6
ByLayer
 10
814.8119417533257547
 20
82.5
 30
0.0
 11
814.8119417533257547
 21
107.5
 31
0.0
  0
LINE
  5
164
100
AcDbEntity
100
AcDbLine
  8
Ruru GWC
 62
256
370
-1
  6
ByLayer
 10
779.5380661552395622
 20
95.0000000000000142
 30
0.0
 11
93.0
 21
95.0
 31
0.0
  0
LINE
  5
165
100
AcDbEntity
100
AcDbLine
  8
Ruru GWC
 62
256
370
-1
  6
ByLayer
 10
833.3658173514118062
 20
65.0
 30
0.0
 11
779.5380661552395622
 21
95.0000000000000142
 31
0.0
  0
LINE
  5
166
100
AcDbEntity
100
AcDbLine
  8
Ruru GWC
 62
256
370
-1
  6
ByLayer
 10
833.3658173514118062
 20
65.0
 30
0.0
 11
910.2900000000000773
 21
65.0
 31
0.0
  0
LINE
  5
167
100
AcDbEntity
100
AcDbLine
  8
Ruru GWC
 62
256
370
-1
  6
ByLayer
 10
910.2900000000000773
 20
52.5
 30
0.0
 11
910.2900000000000773
 21
77.5
 31
0.0
  0
ARC
  5
168
100
AcDbEntity
  8
Rura CWU
 62
256
370
-1
  6
ByLayer
100
AcDbCircle
 10
153.0
 20
167.0
 30
0.0
 40
12.0
100
AcDbArc
 50
180.0
 51
270.0
  0
ARC
  5
169
100
AcDbEntity
  8
Rura CWU
 62
256
370
-1
  6
ByLayer
100
AcDbCircle
 10
622.5
 20
242.0
 30
0.0
 40
12.0
100
AcDbArc
 50
270.0
 51
0.0
  0
LINE
  5
16A
100
AcDbEntity
100
AcDbLine
  8
Rura CWU
 62
256
370
-1
  6
ByLayer
 10
547.5
 20
155.0
 30
0.0
 11
153.0
 21
155.0
 31
0.0
  0
ARC
  5
16B
100
AcDbEntity
  8
Rura CWU
 62
256
370
-1
  6
ByLayer
100
AcDbCircle
 10
547.5
 20
167.0
 30
0.0
 40
12.0
100
AcDbArc
 50
270.0
 51
0.0
  0
LINE
  5
16C
100
AcDbEntity
100
AcDbLine
  8
Rura CWU
 62
256
370
-1
  6
ByLayer
 10
559.5
 20
218.0
 30
0.0
 11
559.5
 21
167.0
 31
0.0
  0
LINE
  5
16D
100
AcDbEntity
100
AcDbLine
  8
Rura CWU
 62
256
370
-1
  6
ByLayer
 10
622.5
 20
230.0
 30
0.0
 11
571.5
 21
230.0
 31
0.0
  0
ARC
  5
16E
100
AcDbEntity
  8
Rura CWU
 62
256
370
-1
  6
ByLayer
100
AcDbCircle
 10
571.5
 20
218.0
 30
0.0
 40
12.0
100
AcDbArc
 50
90.0
 51
180.0
  0
LINE
  5
16F
100
AcDbEntity
100
AcDbLine
  8
Rura CWU
 62
256
370
-1
  6
ByLayer
 10
634.5
 20
430.5
 30
0.0
 11
634.5
 21
242.0
 31
0.0
  0
ARC
  5
170
100
AcDbEntity
  8
Rura CWU
 62
256
370
-1
  6
ByLayer
100
AcDbCircle
 10
622.5
 20
430.5
 30
0.0
 40
12.0
100
AcDbArc
 50
0.0
 51
90.0
  0
LINE
  5
171
100
AcDbEntity
100
AcDbLine
  8
Rura CWU
 62
256
370
-1
  6
ByLayer
 10
576.5
 20
442.5
 30
0.0
 11
622.5
 21
442.5
 31
0.0
  0
ARC
  5
172
100
AcDbEntity
  8
Rura CWU
 62
256
370
-1
  6
ByLayer
100
AcDbCircle
 10
576.5
 20
454.5
 30
0.0
 40
12.0
100
AcDbArc
 50
180.0
 51
270.0
  0
ARC
  5
173
100
AcDbEntity
  8
Rura CWU
 62
256
370
-1
  6
ByLayer
100
AcDbCircle
 10
1138.0
 20
167.0
 30
0.0
 40
12.0
100
AcDbArc
 50
270.0
 51
0.0
  0
LINE
  5
174
100
AcDbEntity
100
AcDbLine
  8
Rura CWU
 62
256
370
-1
  6
ByLayer
 10
1150.0
 20
643.0
 30
0.0
 11
1150.0
 21
167.0
 31
0.0
  0
ARC
  5
175
100
AcDbEntity
  8
Rura CWU
 62
256
370
-1
  6
ByLayer
100
AcDbCircle
 10
1138.0
 20
643.0
 30
0.0
 40
12.0
100
AcDbArc
 50
0.0
 51
90.0
  0
ARC
  5
176
100
AcDbEntity
  8
Rura CWU
 62
256
370
-1
  6
ByLayer
100
AcDbCircle
 10
78.0
 20
643.0
 30
0.0
 40
12.0
100
AcDbArc
 50
90.0
 51
180.0
  0
LINE
  5
177
100
AcDbEntity
100
AcDbLine
  8
Rura CWU
 62
256
370
-1
  6
ByLayer
 10
66.0
 20
643.0
 30
0.0
 11
66.0
 21
592.0
 31
0.0
  0
ARC
  5
178
100
AcDbEntity
  8
Rura CWU
 62
256
370
-1
  6
ByLayer
100
AcDbCircle
 10
78.0
 20
592.0
 30
0.0
 40
12.0
100
AcDbArc
 50
180.0
 51
270.0
  0
LINE
  5
179
100
AcDbEntity
100
AcDbLine
  8
Rura CWU
 62
256
370
-1
  6
ByLayer
 10
141.0
 20
568.0
 30
0.0
 11
141.0
 21
167.0
 31
0.0
  0
LINE
  5
17A
100
AcDbEntity
100
AcDbLine
  8
Rura CWU
 62
256
370
-1
  6
ByLayer
 10
129.0
 20
580.0
 30
0.0
 11
78.0
 21
580.0
 31
0.0
  0
ARC
  5
17B
100
AcDbEntity
  8
Rura CWU
 62
256
370
-1
  6
ByLayer
100
AcDbCircle
 10
129.0
 20
568.0
 30
0.0
 40
12.0
100
AcDbArc
 50
0.0
 51
90.0
  0
LINE
  5
17C
100
AcDbEntity
100
AcDbLine
  8
Rura CWU
 62
256
370
-1
  6
ByLayer
 10
450.0
 20
655.0
 30
0.0
 11
78.0
 21
655.0
 31
0.0
  0
LINE
  5
17D
100
AcDbEntity
100
AcDbLine
  8
Rura CWU
 62
256
370
-1
  6
ByLayer
 10
1138.0
 20
655.0
 30
0.0
 11
639.5
 21
655.0
 31
0.0
  0
LINE
  5
17E
100
AcDbEntity
100
AcDbLine
  8
Rura CWU
 62
256
370
-1
  6
ByLayer
 10
452.0
 20
677.0
 30
0.0
 11
462.0
 21
667.0
 31
0.0
  0
ARC
  5
17F
100
AcDbEntity
  8
Rura CWU
 62
256
370
-1
  6
ByLayer
100
AcDbCircle
 10
450.0
 20
667.0
 30
0.0
 40
12.0
100
AcDbArc
 50
270.0
 51
0.0
  0
LINE
  5
180
100
AcDbEntity
100
AcDbLine
  8
Rura CWU
 62
256
370
-1
  6
ByLayer
 10
452.0
 20
677.0
 30
0.0
 11
452.0
 21
706.0
 31
0.0
  0
LINE
  5
181
100
AcDbEntity
100
AcDbLine
  8
Rura CWU
 62
256
370
-1
  6
ByLayer
 10
657.5
 20
718.0
 30
0.0
 11
464.0
 21
718.0
 31
0.0
  0
ARC
  5
182
100
AcDbEntity
  8
Rura CWU
 62
256
370
-1
  6
ByLayer
100
AcDbCircle
 10
464.0
 20
706.0
 30
0.0
 40
12.0
100
AcDbArc
 50
90.0
 51
180.0
  0
LINE
  5
183
100
AcDbEntity
100
AcDbLine
  8
Rura CWU
 62
256
370
-1
  6
ByLayer
 10
697.5
 20
494.5
 30
0.0
 11
625.5
 21
494.5
 31
0.0
  0
ARC
  5
184
100
AcDbEntity
  8
Rura CWU
 62
256
370
-1
  6
ByLayer
100
AcDbCircle
 10
625.5
 20
506.5
 30
0.0
 40
12.0
100
AcDbArc
 50
180.0
 51
270.0
  0
LINE
  5
185
100
AcDbEntity
100
AcDbLine
  8
Rura CWU
 62
256
370
-1
  6
ByLayer
 10
564.5
 20
521.5
 30
0.0
 11
564.5
 21
454.5
 31
0.0
  0
LINE
  5
186
100
AcDbEntity
100
AcDbLine
  8
Rura CWU
 62
256
370
-1
  6
ByLayer
 10
613.5
 20
506.5
 30
0.0
 11
613.5
 21
521.5
 31
0.0
  0
ARC
  5
187
100
AcDbEntity
  8
Rura CWU
 62
256
370
-1
  6
ByLayer
100
AcDbCircle
 10
576.5
 20
521.5
 30
0.0
 40
12.0
100
AcDbArc
 50
90.0
 51
180.0
  0
LINE
  5
188
100
AcDbEntity
100
AcDbLine
  8
Rura CWU
 62
256
370
-1
  6
ByLayer
 10
576.5
 20
533.5
 30
0.0
 11
586.5
 21
523.5
 31
0.0
  0
LINE
  5
189
100
AcDbEntity
100
AcDbLine
  8
Rura CWU
 62
256
370
-1
  6
ByLayer
 10
625.5
 20
523.5
 30
0.0
 11
586.5
 21
523.5
 31
0.0
  0
ARC
  5
18A
100
AcDbEntity
  8
Rura CWU
 62
256
370
-1
  6
ByLayer
100
AcDbCircle
 10
625.5
 20
535.5
 30
0.0
 40
12.0
100
AcDbArc
 50
270.0
 51
0.0
  0
LINE
  5
18B
100
AcDbEntity
100
AcDbLine
  8
Rura CWU
 62
256
370
-1
  6
ByLayer
 10
637.5
 20
545.5
 30
0.0
 11
637.5
 21
535.5
 31
0.0
  0
LINE
  5
18C
100
AcDbEntity
100
AcDbLine
  8
Rura CWU
 62
256
370
-1
  6
ByLayer
 10
1138.0
 20
155.0
 30
0.0
 11
721.5
 21
155.0
 31
0.0
  0
ARC
  5
18D
100
AcDbEntity
  8
Rura CWU
 62
256
370
-1
  6
ByLayer
100
AcDbCircle
 10
721.5
 20
167.0
 30
0.0
 40
12.0
100
AcDbArc
 50
180.0
 51
270.0
  0
LINE
  5
18E
100
AcDbEntity
100
AcDbLine
  8
Rura CWU
 62
256
370
-1
  6
ByLayer
 10
709.5
 20
218.0
 30
0.0
 11
709.5
 21
167.0
 31
0.0
  0
ARC
  5
18F
100
AcDbEntity
  8
Rura CWU
 62
256
370
-1
  6
ByLayer
100
AcDbCircle
 10
721.5
 20
218.0
 30
0.0
 40
12.0
100
AcDbArc
 50
90.0
 51
180.0
  0
LINE
  5
190
100
AcDbEntity
100
AcDbLine
  8
Rura CWU
 62
256
370
-1
  6
ByLayer
 10
772.5
 20
230.0
 30
0.0
 11
721.5
 21
230.0
 31
0.0
  0
ARC
  5
191
100
AcDbEntity
  8
Rura CWU
 62
256
370
-1
  6
ByLayer
100
AcDbCircle
 10
772.5
 20
242.0
 30
0.0
 40
12.0
100
AcDbArc
 50
270.0
 51
0.0
  0
ARC
  5
192
100
AcDbEntity
  8
Rura CWU
 62
256
370
-1
  6
ByLayer
100
AcDbCircle
 10
721.5
 20
342.0
 30
0.0
 40
12.0
100
AcDbArc
 50
180.0
 51
270.0
  0
LINE
  5
193
100
AcDbEntity
100
AcDbLine
  8
Rura CWU
 62
256
370
-1
  6
ByLayer
 10
772.5
 20
330.0
 30
0.0
 11
721.5
 21
330.0
 31
0.0
  0
LINE
  5
194
100
AcDbEntity
100
AcDbLine
  8
Rura CWU
 62
256
370
-1
  6
ByLayer
 10
784.5
 20
318.0
 30
0.0
 11
784.5
 21
242.0
 31
0.0
  0
ARC
  5
195
100
AcDbEntity
  8
Rura CWU
 62
256
370
-1
  6
ByLayer
100
AcDbCircle
 10
772.5
 20
318.0
 30
0.0
 40
12.0
100
AcDbArc
 50
0.0
 51
90.0
  0
LINE
  5
196
100
AcDbEntity
100
AcDbLine
  8
Rura CWU
 62
256
370
-1
  6
ByLayer
 10
709.5
 20
482.5
 30
0.0
 11
709.5
 21
342.0
 31
0.0
  0
ARC
  5
197
100
AcDbEntity
  8
Rura CWU
 62
256
370
-1
  6
ByLayer
100
AcDbCircle
 10
697.5
 20
482.5
 30
0.0
 40
12.0
100
AcDbArc
 50
0.0
 51
90.0
  0
MTEXT
  5
198
100
AcDbEntity
100
AcDbMText
  8
Ruru GWC
 62
256
370
-1
  6
ByLayer
 10
342.928688481408642
 20
951.8367936562198111
 30
0.0
 40
12.0
 41
100.0
 71
1
 72
2
  1
Zewn\U+0119trzne:\PE\~3750+60+60=3870\PW\~3520+60+290=3870\P\U+015arodkowe:\PE\~2750+50+60=2860\PW\~2700+60+100=2860\PWewn\U+0119trzne:\PE\~2790+70+50=2910\PW\~2760+90+60=2910\PCWU:\PE\~2120+100+280\PW\~1980+280+240
  7
normallatin2
 50
0.0
 73
0
 44
1.0
  0
LINE
  5
199
100
AcDbEntity
100
AcDbLine
  8
Ruru GWC
 62
256
370
-1
  6
ByLayer
 10
799.5
 20
508.0
 30
0.0
 11
799.5
 21
394.5
 31
0.0
  0
ARC
  5
19A
100
AcDbEntity
  8
Ruru GWC
 62
256
370
-1
  6
ByLayer
100
AcDbCircle
 10
787.5
 20
508.0
 30
0.0
 40
12.0
100
AcDbArc
 50
0.0
 51
90.0
  0
LINE
  5
19B
100
AcDbEntity
100
AcDbLine
  8
Ruru GWC
 62
256
370
-1
  6
ByLayer
 10
769.5
 20
508.0
 30
0.0
 11
769.5
 21
257.0
 31
0.0
  0
LINE
  5
19C
100
AcDbEntity
100
AcDbLine
  8
Ruru GWC
 62
256
370
-1
  6
ByLayer
 10
787.5
 20
520.0
 30
0.0
 11
781.5
 21
520.0
 31
0.0
  0
ARC
  5
19D
100
AcDbEntity
  8
Ruru GWC
 62
256
370
-1
  6
ByLayer
100
AcDbCircle
 10
781.5
 20
508.0
 30
0.0
 40
12.0
100
AcDbArc
 50
90.0
 51
180.0
  0
LINE
  5
19E
100
AcDbEntity
100
AcDbLine
  8
Ruru GWC
 62
256
370
-1
  6
ByLayer
 10
1047.5
 20
416.5
 30
0.0
 11
1072.5
 21
416.5
 31
0.0
  0
LINE
  5
19F
100
AcDbEntity
100
AcDbLine
  8
Ruru GWC
 62
256
370
-1
  6
ByLayer
 10
1060.0
 20
416.5
 30
0.0
 11
1060.0
 21
257.0
 31
0.0
  0
LINE
  5
1A0
100
AcDbEntity
100
AcDbLine
  8
Ruru GWC
 62
256
370
-1
  6
ByLayer
 10
1090.0
 20
442.0
 30
0.0
 11
1090.0
 21
227.0
 31
0.0
  0
ARC
  5
1A1
100
AcDbEntity
  8
Ruru GWC
 62
256
370
-1
  6
ByLayer
100
AcDbCircle
 10
1078.0
 20
442.0
 30
0.0
 40
12.0
100
AcDbArc
 50
0.0
 51
90.0
  0
LINE
  5
1A2
100
AcDbEntity
100
AcDbLine
  8
Ruru GWC
 62
256
370
-1
  6
ByLayer
 10
999.5
 20
442.0
 30
0.0
 11
999.5
 21
409.5
 31
0.0
  0
LINE
  5
1A3
100
AcDbEntity
100
AcDbLine
  8
Ruru GWC
 62
256
370
-1
  6
ByLayer
 10
1078.0
 20
454.0
 30
0.0
 11
1011.5
 21
454.0
 31
0.0
  0
ARC
  5
1A4
100
AcDbEntity
  8
Ruru GWC
 62
256
370
-1
  6
ByLayer
100
AcDbCircle
 10
1011.5
 20
442.0
 30
0.0
 40
12.0
100
AcDbArc
 50
90.0
 51
180.0
  0
LINE
  5
1A5
100
AcDbEntity
100
AcDbLine
  8
Ruru GWC
 62
256
370
-1
  6
ByLayer
 10
987.0
 20
409.5
 30
0.0
 11
1012.0
 21
409.5
 31
0.0
  0
ENDSEC
  0
SECTION
  2
OBJECTS
  0
DICTIONARY
  5
C
100
AcDbDictionary
280
0
281
1
  3
ACAD_GROUP
350
D
  3
ACAD_LAYOUT
350
1A
  3
ACAD_MLINESTYLE
350
17
  3
ACAD_PLOTSETTINGS
350
19
  3
ACAD_PLOTSTYLENAME
350
E
  3
AcDbVariableDictionary
350
1A6
  0
DICTIONARY
  5
D
100
AcDbDictionary
280
0
281
1
  0
ACDBDICTIONARYWDFLT
  5
E
100
AcDbDictionary
281
1
  3
Normal
350
F
100
AcDbDictionaryWithDefault
340
F
  0
ACDBPLACEHOLDER
  5
F
  0
DICTIONARY
  5
17
100
AcDbDictionary
280
0
281
1
  3
Standard
350
18
  0
MLINESTYLE
  5
18
100
AcDbMlineStyle
  2
STANDARD
 70
0
  3

 62
256
 51
90.0
 52
90.0
 71
2
 49
0.5
 62
256
  6
BYLAYER
 49
-0.5
 62
256
  6
BYLAYER
  0
DICTIONARY
  5
19
100
AcDbDictionary
280
0
281
1
  0
DICTIONARY
  5
1A
100
AcDbDictionary
281
1
  3
Layout1
350
1E
  3
Layout2
350
26
  3
Model
350
22
  0
LAYOUT
  5
1E
100
AcDbPlotSettings
  1

  2
C:\Program Files\AutoCAD 2002\plotters\DWF ePlot (optimized for plotting).pc3
  4

  6

 40
0.0
 41
0.0
 42
0.0
 43
0.0
 44
0.0
 45
0.0
 46
0.0
 47
0.0
 48
0.0
 49
0.0
140
0.0
141
0.0
142
1.0
143
1.0
 70
688
 72
0
 73
0
 74
5
  7

 75
16
147
1.0
148
0.0
149
0.0
100
AcDbLayout
  1
Layout1
 70
1
 71
1
 10
0.0
 20
0.0
 11
420.0
 21
297.0
 12
0.0
 22
0.0
 32
0.0
 14
100000000000000000000.0
 24
100000000000000000000.0
 34
100000000000000000000.0
 15
-100000000000000000000.0
 25
-100000000000000000000.0
 35
-100000000000000000000.0
146
0.0
 13
0.0
 23
0.0
 33
0.0
 16
1.0
 26
0.0
 36
0.0
 17
0.0
 27
1.0
 37
0.0
 76
0
330
1B
  0
LAYOUT
  5
22
100
AcDbPlotSettings
  1

  2
C:\Program Files\AutoCAD 2002\plotters\DWF ePlot (optimized for plotting).pc3
  4

  6

 40
0.0
 41
0.0
 42
0.0
 43
0.0
 44
0.0
 45
0.0
 46
0.0
 47
0.0
 48
0.0
 49
0.0
140
0.0
141
0.0
142
1.0
143
1.0
 70
1712
 72
0
 73
0
 74
0
  7

 75
0
147
1.0
148
0.0
149
0.0
100
AcDbLayout
  1
Model
 70
1
 71
0
 10
0.0
 20
0.0
 11
12.0
 21
9.0
 12
0.0
 22
0.0
 32
0.0
 14
0.0
 24
0.0
 34
0.0
 15
0.0
 25
0.0
 35
0.0
146
0.0
 13
0.0
 23
0.0
 33
0.0
 16
1.0
 26
0.0
 36
0.0
 17
0.0
 27
1.0
 37
0.0
 76
0
330
1F
  0
LAYOUT
  5
26
100
AcDbPlotSettings
  1

  2
C:\Program Files\AutoCAD 2002\plotters\DWF ePlot (optimized for plotting).pc3
  4

  6

 40
0.0
 41
0.0
 42
0.0
 43
0.0
 44
0.0
 45
0.0
 46
0.0
 47
0.0
 48
0.0
 49
0.0
140
0.0
141
0.0
142
1.0
143
1.0
 70
688
 72
0
 73
0
 74
5
  7

 75
16
147
1.0
148
0.0
149
0.0
100
AcDbLayout
  1
Layout2
 70
1
 71
2
 10
0.0
 20
0.0
 11
12.0
 21
9.0
 12
0.0
 22
0.0
 32
0.0
 14
0.0
 24
0.0
 34
0.0
 15
0.0
 25
0.0
 35
0.0
146
0.0
 13
0.0
 23
0.0
 33
0.0
 16
1.0
 26
0.0
 36
0.0
 17
0.0
 27
1.0
 37
0.0
 76
0
330
23
  0
DICTIONARY
  5
1A6
100
AcDbDictionary
281
1
  3
DIMASSOC
350
1A8
  3
HIDETEXT
350
1A7
  0
DICTIONARYVAR
  5
1A7
100
DictionaryVariables
280
0
  1
2
  0
DICTIONARYVAR
  5
1A8
100
DictionaryVariables
280
0
  1
1
  0
ENDSEC
  0
EOF
