999
dxfrw 0.6.3
  0
SECTION
  2
HEADER
  9
$ACADVER
  1
AC1021
  9
$DWGCODEPAGE
  3
ANSI_1250
  9
$INSBASE
 10
0
 20
0
 30
0
  9
$EXTMIN
 10
-10.00000000000002
 20
-74.49999999999999
 30
0
  9
$EXTMAX
 10
428.4033193057375
 20
183.2003911291595
 30
0
  9
$LIMMIN
 10
0
 20
0
  9
$LIMMAX
 10
420
 20
297
  9
$ORTHOMODE
 70
    0
  9
$REGENMODE
 70
    1
  9
$FILLMODE
 70
    1
  9
$QTEXTMODE
 70
    0
  9
$MIRRTEXT
 70
    0
  9
$LTSCALE
 40
1
  9
$ATTMODE
 70
    0
  9
$TEXTSIZE
 40
2.5
  9
$TRACEWID
 40
15.68
  9
$TEXTSTYLE
  7
STANDARD
  9
$CLAYER
  8
Scianki
  9
$CELTYPE
  6
BYLAYER
  9
$CECOLOR
 62
  256
  9
$CELTSCALE
 40
1
  9
$DISPSILH
 70
    0
  9
$DIMSCALE
 40
1
  9
$DIMASZ
 40
2
  9
$DIMEXO
 40
0.3
  9
$DIMDLI
 40
3.75
  9
$DIMRND
 40
0
  9
$DIMDLE
 40
0
  9
$DIMEXE
 40
0.3
  9
$DIMTP
 40
0
  9
$DIMTM
 40
0
  9
$DIMTXT
 40
4
  9
$DIMCEN
 40
2.5
  9
$DIMTSZ
 40
0
  9
$DIMTOL
 70
    0
  9
$DIMLIM
 70
    0
  9
$DIMTIH
 70
    0
  9
$DIMTOH
 70
    0
  9
$DIMSE1
 70
    0
  9
$DIMSE2
 70
    0
  9
$DIMTAD
 70
    1
  9
$DIMZIN
 70
    1
  9
$DIMBLK
  1

  9
$DIMASO
 70
    1
  9
$DIMSHO
 70
    1
  9
$DIMPOST
  1

  9
$DIMAPOST
  1

  9
$DIMALT
 70
    0
  9
$DIMALTD
 70
    3
  9
$DIMALTF
 40
0.03937
  9
$DIMLFAC
 40
1
  9
$DIMTOFL
 70
    1
  9
$DIMTVP
 40
0
  9
$DIMTIX
 70
    0
  9
$DIMSOXD
 70
    0
  9
$DIMSAH
 70
    0
  9
$DIMBLK1
  1

  9
$DIMBLK2
  1

  9
$DIMSTYLE
  2
STANDARD
  9
$DIMCLRD
 70
  256
  9
$DIMCLRE
 70
  256
  9
$DIMCLRT
 70
  256
  9
$DIMTFAC
 40
1
  9
$DIMGAP
 40
0.5
  9
$DIMJUST
 70
    0
  9
$DIMSD1
 70
    0
  9
$DIMSD2
 70
    0
  9
$DIMTOLJ
 70
    0
  9
$DIMTZIN
 70
    8
  9
$DIMALTZ
 70
    0
  9
$DIMALTTZ
 70
    0
  9
$DIMUPT
 70
    0
  9
$DIMDEC
 70
    1
  9
$DIMTDEC
 70
    2
  9
$DIMALTU
 70
    2
  9
$DIMALTTD
 70
    3
  9
$DIMTXSTY
  7
standard
  9
$DIMAUNIT
 70
    0
  9
$DIMADEC
 70
    0
  9
$DIMALTRND
 40
0
  9
$DIMAZIN
 70
    0
  9
$DIMDSEP
 70
    0
  9
$DIMATFIT
 70
    3
  9
$DIMFRAC
 70
    0
  9
$DIMLDRBLK
  1
STANDARD
  9
$DIMLUNIT
 70
    2
  9
$DIMLWD
 70
   13
  9
$DIMLWE
 70
   18
  9
$DIMTMOVE
 70
    0
  9
$DIMFXL
 40
0.1
  9
$DIMFXLON
 70
    0
  9
$DIMJOGANG
 40
0.7854
  9
$DIMTFILL
 70
    0
  9
$DIMTFILLCLR
 70
    0
  9
$DIMARCSYM
 70
    0
  9
$DIMLTYPE
  6

  9
$DIMLTEX1
  6

  9
$DIMLTEX2
  6

  9
$LUNITS
 70
    2
  9
$LUPREC
 70
    4
  9
$SKETCHINC
 40
1
  9
$FILLETRAD
 40
0
  9
$AUNITS
 70
    0
  9
$AUPREC
 70
    2
  9
$MENU
  1
.
  9
$ELEVATION
 40
0
  9
$PELEVATION
 40
0
  9
$THICKNESS
 40
0
  9
$LIMCHECK
 70
    0
  9
$CHAMFERA
 40
0
  9
$CHAMFERB
 40
0
  9
$CHAMFERC
 40
0
  9
$CHAMFERD
 40
0
  9
$SKPOLY
 70
    0
  9
$USRTIMER
 70
    1
  9
$ANGBASE
 50
0
  9
$ANGDIR
 70
    0
  9
$PDMODE
 70
   34
  9
$PDSIZE
 40
0
  9
$PLINEWID
 40
0
  9
$SPLFRAME
 70
    0
  9
$SPLINETYPE
 70
    2
  9
$SPLINESEGS
 70
    8
  9
$HANDSEED
  5
20000
  9
$SURFTAB1
 70
    6
  9
$SURFTAB2
 70
    6
  9
$SURFTYPE
 70
    6
  9
$SURFU
 70
    6
  9
$SURFV
 70
    6
  9
$UCSBASE
  2

  9
$UCSNAME
  2

  9
$UCSORG
 10
0
 20
0
 30
0
  9
$UCSXDIR
 10
1
 20
0
 30
0
  9
$UCSYDIR
 10
0
 20
1
 30
0
  9
$UCSORTHOREF
  2

  9
$UCSORTHOVIEW
 70
    0
  9
$UCSORGTOP
 10
0
 20
0
 30
0
  9
$UCSORGBOTTOM
 10
0
 20
0
 30
0
  9
$UCSORGLEFT
 10
0
 20
0
 30
0
  9
$UCSORGRIGHT
 10
0
 20
0
 30
0
  9
$UCSORGFRONT
 10
0
 20
0
 30
0
  9
$UCSORGBACK
 10
0
 20
0
 30
0
  9
$PUCSBASE
  2

  9
$PUCSNAME
  2

  9
$PUCSORG
 10
0
 20
0
 30
0
  9
$PUCSXDIR
 10
1
 20
0
 30
0
  9
$PUCSYDIR
 10
0
 20
1
 30
0
  9
$PUCSORTHOREF
  2

  9
$PUCSORTHOVIEW
 70
    0
  9
$PUCSORGTOP
 10
0
 20
0
 30
0
  9
$PUCSORGBOTTOM
 10
0
 20
0
 30
0
  9
$PUCSORGLEFT
 10
0
 20
0
 30
0
  9
$PUCSORGRIGHT
 10
0
 20
0
 30
0
  9
$PUCSORGFRONT
 10
0
 20
0
 30
0
  9
$PUCSORGBACK
 10
0
 20
0
 30
0
  9
$USERI1
 70
    0
  9
$USERI2
 70
    0
  9
$USERI3
 70
    0
  9
$USERI4
 70
    0
  9
$USERI5
 70
    0
  9
$USERR1
 40
0
  9
$USERR2
 40
0
  9
$USERR3
 40
0
  9
$USERR4
 40
0
  9
$USERR5
 40
0
  9
$WORLDVIEW
 70
    1
  9
$SHADEDGE
 70
    3
  9
$SHADEDIF
 70
   70
  9
$TILEMODE
 70
    1
  9
$MAXACTVP
 70
   64
  9
$PINSBASE
 10
-4.910764908281298
 20
6.063000477622635
 30
0
  9
$PLIMCHECK
 70
    0
  9
$PEXTMIN
 10
0
 20
0
 30
0
  9
$PEXTMAX
 10
0
 20
0
 30
0
  9
$GRIDMODE
 70
    1
  9
$SNAPSTYLE
 70
    0
  9
$GRIDUNIT
 10
0
 20
0
  9
$PLIMMIN
 10
0
 20
0
  9
$PLIMMAX
 10
29.7
 20
21
  9
$UNITMODE
 70
    0
  9
$VISRETAIN
 70
    1
  9
$PLINEGEN
 70
    0
  9
$PSLTSCALE
 70
    1
  9
$TREEDEPTH
 70
 3020
  9
$CMLSTYLE
  2
Standard
  9
$CMLJUST
 70
    0
  9
$CMLSCALE
 40
20
  9
$PROXYGRAPHICS
 70
    1
  9
$MEASUREMENT
 70
    1
  9
$CELWEIGHT
370
   -1
  9
$ENDCAPS
280
    0
  9
$JOINSTYLE
280
    0
  9
$LWDISPLAY
290
    0
  9
$INSUNITS
 70
    5
  9
$HYPERLINKBASE
  1

  9
$STYLESHEET
  1

  9
$XEDIT
290
    1
  9
$CEPSNTYPE
380
    0
  9
$PSTYLEMODE
290
    1
  9
$EXTNAMES
290
    1
  9
$PSVPSCALE
 40
0.07520323674730961
  9
$OLESTARTUP
290
    0
  9
$SORTENTS
280
  127
  9
$INDEXCTL
280
    0
  9
$HIDETEXT
280
    1
  9
$XCLIPFRAME
290
    0
  9
$HALOGAP
280
    0
  9
$OBSCOLOR
 70
  257
  9
$OBSLTYPE
280
    0
  9
$INTERSECTIONDISPLAY
280
    0
  9
$INTERSECTIONCOLOR
 70
  257
  9
$DIMASSOC
280
    1
  9
$PROJECTNAME
  1

  9
$CAMERADISPLAY
290
    0
  9
$LENSLENGTH
 40
50
  9
$CAMERAHEIGHT
 40
0
  9
$STEPSPERSEC
 40
2
  9
$STEPSIZE
 40
50
  9
$3DDWFPREC
 40
2
  9
$PSOLWIDTH
 40
5
  9
$PSOLHEIGHT
 40
80
  9
$LOFTANG1
 40
1.570796326794897
  9
$LOFTANG2
 40
1.570796326794897
  9
$LOFTMAG1
 40
0
  9
$LOFTMAG2
 40
0
  9
$LOFTPARAM
 70
    7
  9
$LOFTNORMALS
280
    1
  9
$LATITUDE
 40
1
  9
$LONGITUDE
 40
1
  9
$NORTHDIRECTION
 40
0
  9
$TIMEZONE
 70
-8000
  9
$LIGHTGLYPHDISPLAY
280
    1
  9
$TILEMODELIGHTSYNCH
280
    1
  9
$SOLIDHIST
280
    1
  9
$SHOWHIST
280
    1
  9
$DWFFRAME
280
    2
  9
$DGNFRAME
280
    0
  9
$REALWORLDSCALE
290
    1
  9
$INTERFERECOLOR
 62
    1
  9
$CSHADOW
280
    0
  9
$SHADOWPLANELOCATION
 40
0
  0
ENDSEC
  0
SECTION
  2
CLASSES
  0
ENDSEC
  0
SECTION
  2
TABLES
  0
TABLE
  2
VPORT
  5
8
330
0
100
AcDbSymbolTable
 70
    1
  0
VPORT
  5
31
330
2
100
AcDbSymbolTableRecord
100
AcDbViewportTableRecord
  2
*ACTIVE
 70
    0
 10
0
 20
0
 11
1
 21
1
 12
240.5919474336976
 22
118.2474809172078
 13
0
 23
0
 14
10
 24
10
 15
10
 25
10
 16
0
 26
0
 36
1
 17
0
 27
0
 37
0
 40
190.4391926838663
 41
1.640949554896142
 42
50
 43
0
 44
0
 50
0
 51
0
 71
    0
 72
  100
 73
    1
 74
    3
 75
    0
 76
    1
 77
    0
 78
    0
281
    0
 65
    1
110
0
120
0
130
0
111
1
121
0
131
0
112
0
122
1
132
0
 79
    0
146
0
348
10020
 60
    7
 61
    5
292
1
282
    1
141
0
142
0
 63
  250
421
3358443
  0
ENDTAB
  0
TABLE
  2
LTYPE
  5
5
330
0
100
AcDbSymbolTable
 70
    4
  0
LTYPE
  5
14
330
5
100
AcDbSymbolTableRecord
100
AcDbLinetypeTableRecord
  2
ByBlock
 70
    0
  3

 72
   65
 73
    0
 40
0
  0
LTYPE
  5
15
330
5
100
AcDbSymbolTableRecord
100
AcDbLinetypeTableRecord
  2
ByLayer
 70
    0
  3

 72
   65
 73
    0
 40
0
  0
LTYPE
  5
16
330
5
100
AcDbSymbolTableRecord
100
AcDbLinetypeTableRecord
  2
Continuous
 70
    0
  3
Solid line
 72
   65
 73
    0
 40
0
  0
LTYPE
  5
32
330
5
100
AcDbSymbolTableRecord
100
AcDbLinetypeTableRecord
  2
DOT
 70
    0
  3
Dot . . . . . . . . . . . . . . . . . . . . . .
 72
   65
 73
    2
 40
6.35
 49
0
 74
    0
 49
-6.35
 74
    0
  0
LTYPE
  5
33
330
5
100
AcDbSymbolTableRecord
100
AcDbLinetypeTableRecord
  2
DOTTINY
 70
    0
  3
Dot (.15x) .....................................
 72
   65
 73
    2
 40
0.9525
 49
0
 74
    0
 49
-0.9525
 74
    0
  0
LTYPE
  5
34
330
5
100
AcDbSymbolTableRecord
100
AcDbLinetypeTableRecord
  2
DOT2
 70
    0
  3
Dot (.5x) .....................................
 72
   65
 73
    2
 40
3.175
 49
0
 74
    0
 49
-3.175
 74
    0
  0
LTYPE
  5
35
330
5
100
AcDbSymbolTableRecord
100
AcDbLinetypeTableRecord
  2
DOTX2
 70
    0
  3
Dot (2x) .  .  .  .  .  .  .  .  .  .  .  .  .
 72
   65
 73
    2
 40
12.7
 49
0
 74
    0
 49
-12.7
 74
    0
  0
LTYPE
  5
36
330
5
100
AcDbSymbolTableRecord
100
AcDbLinetypeTableRecord
  2
DASHED
 70
    0
  3
Dashed _ _ _ _ _ _ _ _ _ _ _ _ _ _ _ _ _
 72
   65
 73
    2
 40
19.05
 49
12.7
 74
    0
 49
-6.35
 74
    0
  0
LTYPE
  5
37
330
5
100
AcDbSymbolTableRecord
100
AcDbLinetypeTableRecord
  2
DASHEDTINY
 70
    0
  3
Dashed (.15x) _ _ _ _ _ _ _ _ _ _ _ _ _ _ _ _ _
 72
   65
 73
    2
 40
2.8575
 49
1.905
 74
    0
 49
-0.9525
 74
    0
  0
LTYPE
  5
38
330
5
100
AcDbSymbolTableRecord
100
AcDbLinetypeTableRecord
  2
DASHED2
 70
    0
  3
Dashed (.5x) _ _ _ _ _ _ _ _ _ _ _ _ _ _ _ _ _
 72
   65
 73
    2
 40
9.524999999999999
 49
6.35
 74
    0
 49
-3.175
 74
    0
  0
LTYPE
  5
39
330
5
100
AcDbSymbolTableRecord
100
AcDbLinetypeTableRecord
  2
DASHEDX2
 70
    0
  3
Dashed (2x) ____  ____  ____  ____  ____  ___
 72
   65
 73
    2
 40
38.09999999999999
 49
25.4
 74
    0
 49
-12.7
 74
    0
  0
LTYPE
  5
3A
330
5
100
AcDbSymbolTableRecord
100
AcDbLinetypeTableRecord
  2
DASHDOT
 70
    0
  3
Dash dot __ . __ . __ . __ . __ . __ . __ . __
 72
   65
 73
    4
 40
25.4
 49
12.7
 74
    0
 49
-6.35
 74
    0
 49
0
 74
    0
 49
-6.35
 74
    0
  0
LTYPE
  5
3B
330
5
100
AcDbSymbolTableRecord
100
AcDbLinetypeTableRecord
  2
DASHDOTTINY
 70
    0
  3
Dash dot (.15x) _._._._._._._._._._._._._._._.
 72
   65
 73
    4
 40
3.81
 49
1.905
 74
    0
 49
-0.9525
 74
    0
 49
0
 74
    0
 49
-0.9525
 74
    0
  0
LTYPE
  5
3C
330
5
100
AcDbSymbolTableRecord
100
AcDbLinetypeTableRecord
  2
DASHDOT2
 70
    0
  3
Dash dot (.5x) _._._._._._._._._._._._._._._.
 72
   65
 73
    4
 40
12.7
 49
6.35
 74
    0
 49
-3.175
 74
    0
 49
0
 74
    0
 49
-3.175
 74
    0
  0
LTYPE
  5
3D
330
5
100
AcDbSymbolTableRecord
100
AcDbLinetypeTableRecord
  2
DASHDOTX2
 70
    0
  3
Dash dot (2x) ____  .  ____  .  ____  .  ___
 72
   65
 73
    4
 40
50.8
 49
25.4
 74
    0
 49
-12.7
 74
    0
 49
0
 74
    0
 49
-12.7
 74
    0
  0
LTYPE
  5
3E
330
5
100
AcDbSymbolTableRecord
100
AcDbLinetypeTableRecord
  2
DIVIDE
 70
    0
  3
Divide ____ . . ____ . . ____ . . ____ . . ____
 72
   65
 73
    6
 40
31.75
 49
12.7
 74
    0
 49
-6.35
 74
    0
 49
0
 74
    0
 49
-6.35
 74
    0
 49
0
 74
    0
 49
-6.35
 74
    0
  0
LTYPE
  5
3F
330
5
100
AcDbSymbolTableRecord
100
AcDbLinetypeTableRecord
  2
DIVIDETINY
 70
    0
  3
Divide (.15x) __..__..__..__..__..__..__..__.._
 72
   65
 73
    6
 40
4.7625
 49
1.905
 74
    0
 49
-0.9525
 74
    0
 49
0
 74
    0
 49
-0.9525
 74
    0
 49
0
 74
    0
 49
-0.9525
 74
    0
  0
LTYPE
  5
40
330
5
100
AcDbSymbolTableRecord
100
AcDbLinetypeTableRecord
  2
DIVIDE2
 70
    0
  3
Divide (.5x) __..__..__..__..__..__..__..__.._
 72
   65
 73
    6
 40
15.875
 49
6.35
 74
    0
 49
-3.175
 74
    0
 49
0
 74
    0
 49
-3.175
 74
    0
 49
0
 74
    0
 49
-3.175
 74
    0
  0
LTYPE
  5
41
330
5
100
AcDbSymbolTableRecord
100
AcDbLinetypeTableRecord
  2
DIVIDEX2
 70
    0
  3
Divide (2x) ________  .  .  ________  .  .  _
 72
   65
 73
    6
 40
63.5
 49
25.4
 74
    0
 49
-12.7
 74
    0
 49
0
 74
    0
 49
-12.7
 74
    0
 49
0
 74
    0
 49
-12.7
 74
    0
  0
LTYPE
  5
42
330
5
100
AcDbSymbolTableRecord
100
AcDbLinetypeTableRecord
  2
BORDER
 70
    0
  3
Border __ __ . __ __ . __ __ . __ __ . __ __ .
 72
   65
 73
    6
 40
44.45
 49
12.7
 74
    0
 49
-6.35
 74
    0
 49
12.7
 74
    0
 49
-6.35
 74
    0
 49
0
 74
    0
 49
-6.35
 74
    0
  0
LTYPE
  5
43
330
5
100
AcDbSymbolTableRecord
100
AcDbLinetypeTableRecord
  2
BORDERTINY
 70
    0
  3
Border (.15x) __.__.__.__.__.__.__.__.__.__.__.
 72
   65
 73
    6
 40
6.6675
 49
1.905
 74
    0
 49
-0.9525
 74
    0
 49
1.905
 74
    0
 49
-0.9525
 74
    0
 49
0
 74
    0
 49
-0.9525
 74
    0
  0
LTYPE
  5
44
330
5
100
AcDbSymbolTableRecord
100
AcDbLinetypeTableRecord
  2
BORDER2
 70
    0
  3
Border (.5x) __.__.__.__.__.__.__.__.__.__.__.
 72
   65
 73
    6
 40
22.225
 49
6.35
 74
    0
 49
-3.175
 74
    0
 49
6.35
 74
    0
 49
-3.175
 74
    0
 49
0
 74
    0
 49
-3.175
 74
    0
  0
LTYPE
  5
45
330
5
100
AcDbSymbolTableRecord
100
AcDbLinetypeTableRecord
  2
BORDERX2
 70
    0
  3
Border (2x) ____  ____  .  ____  ____  .  ___
 72
   65
 73
    6
 40
88.89999999999999
 49
25.4
 74
    0
 49
-12.7
 74
    0
 49
25.4
 74
    0
 49
-12.7
 74
    0
 49
0
 74
    0
 49
-12.7
 74
    0
  0
LTYPE
  5
46
330
5
100
AcDbSymbolTableRecord
100
AcDbLinetypeTableRecord
  2
CENTER
 70
    0
  3
Center ____ _ ____ _ ____ _ ____ _ ____ _ ____
 72
   65
 73
    4
 40
50.8
 49
31.75
 74
    0
 49
-6.35
 74
    0
 49
6.35
 74
    0
 49
-6.35
 74
    0
  0
LTYPE
  5
47
330
5
100
AcDbSymbolTableRecord
100
AcDbLinetypeTableRecord
  2
CENTERTINY
 70
    0
  3
Center (.15x) ___ _ ___ _ ___ _ ___ _ ___ _ ___
 72
   65
 73
    4
 40
7.619999999999999
 49
4.7625
 74
    0
 49
-0.9525
 74
    0
 49
0.9525
 74
    0
 49
-0.9525
 74
    0
  0
LTYPE
  5
48
330
5
100
AcDbSymbolTableRecord
100
AcDbLinetypeTableRecord
  2
CENTER2
 70
    0
  3
Center (.5x) ___ _ ___ _ ___ _ ___ _ ___ _ ___
 72
   65
 73
    4
 40
28.575
 49
19.05
 74
    0
 49
-3.175
 74
    0
 49
3.175
 74
    0
 49
-3.175
 74
    0
  0
LTYPE
  5
49
330
5
100
AcDbSymbolTableRecord
100
AcDbLinetypeTableRecord
  2
CENTERX2
 70
    0
  3
Center (2x) ________  __  ________  __  _____
 72
   65
 73
    4
 40
101.6
 49
63.5
 74
    0
 49
-12.7
 74
    0
 49
12.7
 74
    0
 49
-12.7
 74
    0
  0
ENDTAB
  0
TABLE
  2
LAYER
  5
2
330
0
100
AcDbSymbolTable
 70
    1
  0
LAYER
  5
10
330
2
100
AcDbSymbolTableRecord
100
AcDbLayerTableRecord
  2
0
 70
    1
 62
    7
  6
CONTINUOUS
370
    0
390
F
  0
LAYER
  5
4A
330
2
100
AcDbSymbolTableRecord
100
AcDbLayerTableRecord
  2
Blat
 70
    0
 62
  136
420
32896
  6
CONTINUOUS
370
   50
390
F
  0
LAYER
  5
4B
330
2
100
AcDbSymbolTableRecord
100
AcDbLayerTableRecord
  2
Scianki
 70
    0
 62
    1
  6
CONTINUOUS
370
   50
390
F
  0
LAYER
  5
4C
330
2
100
AcDbSymbolTableRecord
100
AcDbLayerTableRecord
  2
Sciany
 70
    0
 62
    7
  6
CONTINUOUS
370
   50
390
F
  0
LAYER
  5
4D
330
2
100
AcDbSymbolTableRecord
100
AcDbLayerTableRecord
  2
Sprzet
 70
    1
 62
    5
  6
CONTINUOUS
370
   50
390
F
  0
ENDTAB
  0
TABLE
  2
STYLE
  5
3
330
0
100
AcDbSymbolTable
 70
    3
  0
STYLE
  5
4E
330
2
100
AcDbSymbolTableRecord
100
AcDbTextStyleTableRecord
  2
standard
 70
    0
 40
0
 41
1
 50
0
 71
    0
 42
1
  3
standard
  4

  0
ENDTAB
  0
TABLE
  2
VIEW
  5
6
330
0
100
AcDbSymbolTable
 70
    0
  0
ENDTAB
  0
TABLE
  2
UCS
  5
7
330
0
100
AcDbSymbolTable
 70
    0
  0
ENDTAB
  0
TABLE
  2
APPID
  5
9
330
0
100
AcDbSymbolTable
 70
    1
  0
APPID
  5
12
330
9
100
AcDbSymbolTableRecord
100
AcDbRegAppTableRecord
  2
ACAD
 70
    0
  0
APPID
  5
4F
330
9
100
AcDbSymbolTableRecord
100
AcDbRegAppTableRecord
  2
LibreCad
 70
    0
  0
ENDTAB
  0
TABLE
  2
DIMSTYLE
  5
A
330
0
100
AcDbSymbolTable
 70
    1
100
AcDbDimStyleTable
 71
    1
  0
DIMSTYLE
105
50
330
A
100
AcDbSymbolTableRecord
100
AcDbDimStyleTableRecord
  2
Standard
 70
    0
 40
1
 41
2
 42
0.3
 43
0.38
 44
0.3
 45
0
 46
0
 47
0
 48
0
 49
0.1
140
4
141
0.09
142
0
143
25.4
144
1
145
0
146
1
147
0.5
148
0
 71
    0
 72
    0
 73
    0
 74
    1
 75
    0
 76
    0
 77
    0
 78
    1
 79
    0
170
    0
171
    2
172
    0
173
    0
174
    0
175
    0
176
  256
177
  256
178
  256
179
    0
271
    1
272
    4
273
    2
274
    2
275
    0
276
    0
277
    2
278
    0
279
    0
280
    0
281
    0
282
    0
283
    1
284
    0
285
    0
286
    0
288
    0
289
    3
340
standard
341

371
   13
372
   18
  0
ENDTAB
  0
TABLE
  2
BLOCK_RECORD
  5
1
330
0
100
AcDbSymbolTable
 70
    2
  0
BLOCK_RECORD
  5
1F
330
1
100
AcDbSymbolTableRecord
100
AcDbBlockTableRecord
  2
*Model_Space
 70
    0
280
    1
281
    0
  0
BLOCK_RECORD
  5
1E
330
1
100
AcDbSymbolTableRecord
100
AcDbBlockTableRecord
  2
*Paper_Space
 70
    0
280
    1
281
    0
  0
BLOCK_RECORD
  5
51
330
1
100
AcDbSymbolTableRecord
100
AcDbBlockTableRecord
  2
*D5
 70
    0
280
    1
281
    0
  0
BLOCK_RECORD
  5
54
330
1
100
AcDbSymbolTableRecord
100
AcDbBlockTableRecord
  2
*D15
 70
    0
280
    1
281
    0
  0
BLOCK_RECORD
  5
57
330
1
100
AcDbSymbolTableRecord
100
AcDbBlockTableRecord
  2
*D2
 70
    0
280
    1
281
    0
  0
BLOCK_RECORD
  5
5A
330
1
100
AcDbSymbolTableRecord
100
AcDbBlockTableRecord
  2
*D12
 70
    0
280
    1
281
    0
  0
BLOCK_RECORD
  5
5D
330
1
100
AcDbSymbolTableRecord
100
AcDbBlockTableRecord
  2
*D1
 70
    0
280
    1
281
    0
  0
BLOCK_RECORD
  5
60
330
1
100
AcDbSymbolTableRecord
100
AcDbBlockTableRecord
  2
*D3
 70
    0
280
    1
281
    0
  0
BLOCK_RECORD
  5
63
330
1
100
AcDbSymbolTableRecord
100
AcDbBlockTableRecord
  2
*D8
 70
    0
280
    1
281
    0
  0
BLOCK_RECORD
  5
66
330
1
100
AcDbSymbolTableRecord
100
AcDbBlockTableRecord
  2
*D4
 70
    0
280
    1
281
    0
  0
BLOCK_RECORD
  5
69
330
1
100
AcDbSymbolTableRecord
100
AcDbBlockTableRecord
  2
*D9
 70
    0
280
    1
281
    0
  0
BLOCK_RECORD
  5
6C
330
1
100
AcDbSymbolTableRecord
100
AcDbBlockTableRecord
  2
*D10
 70
    0
280
    1
281
    0
  0
BLOCK_RECORD
  5
6F
330
1
100
AcDbSymbolTableRecord
100
AcDbBlockTableRecord
  2
*D14
 70
    0
280
    1
281
    0
  0
BLOCK_RECORD
  5
72
330
1
100
AcDbSymbolTableRecord
100
AcDbBlockTableRecord
  2
*D11
 70
    0
280
    1
281
    0
  0
BLOCK_RECORD
  5
75
330
1
100
AcDbSymbolTableRecord
100
AcDbBlockTableRecord
  2
*D7
 70
    0
280
    1
281
    0
  0
BLOCK_RECORD
  5
78
330
1
100
AcDbSymbolTableRecord
100
AcDbBlockTableRecord
  2
*D6
 70
    0
280
    1
281
    0
  0
BLOCK_RECORD
  5
7B
330
1
100
AcDbSymbolTableRecord
100
AcDbBlockTableRecord
  2
*D13
 70
    0
280
    1
281
    0
  0
ENDTAB
  0
ENDSEC
  0
SECTION
  2
BLOCKS
  0
BLOCK
  5
20
330
1F
100
AcDbEntity
  8
0
100
AcDbBlockBegin
  2
*Model_Space
 70
    0
 10
0
 20
0
 30
0
  3
*Model_Space
  1

  0
ENDBLK
  5
21
330
1F
100
AcDbEntity
  8
0
100
AcDbBlockEnd
  0
BLOCK
  5
1C
330
1B
100
AcDbEntity
  8
0
100
AcDbBlockBegin
  2
*Paper_Space
 70
    0
 10
0
 20
0
 30
0
  3
*Paper_Space
  1

  0
ENDBLK
  5
1D
330
1F
100
AcDbEntity
  8
0
100
AcDbBlockEnd
  0
BLOCK
  5
52
330
51
100
AcDbEntity
  8
0
100
AcDbBlockBegin
  2
*D5
 70
    1
 10
0
 20
0
  3
*D5
  1

  0
LINE
  5
7E
100
AcDbEntity
  8
Blat
  6
ByBlock
 62
  256
370
   13
100
AcDbLine
 10
428.0702915795192
 20
-64
 11
428.0702915795192
 21
170
  0
SOLID
  5
7F
100
AcDbEntity
  8
Blat
  6
ByBlock
 62
  256
370
   13
100
AcDbTrace
 10
428.0702915795192
 20
-64
 30
0
 11
427.7372638533009
 21
-62
 31
0
 12
428.4033193057375
 22
-62
 32
0
 13
428.4033193057375
 23
-62
 33
0
  0
SOLID
  5
80
100
AcDbEntity
  8
Blat
  6
ByBlock
 62
  256
370
   13
100
AcDbTrace
 10
428.0702915795192
 20
170
 30
0
 11
428.4033193057375
 21
168
 31
0
 12
427.7372638533009
 22
168
 32
0
 13
427.7372638533009
 23
168
 33
0
  0
MTEXT
  5
81
100
AcDbEntity
  8
Blat
  6
CONTINUOUS
 62
  256
370
   -2
100
AcDbMText
 10
425.5702915795192
 20
53
 30
0
 40
4
 41
12.88888888888914
 71
    5
 72
    1
  1
234.0
  7
standard
210
0
220
0
230
1
 50
90
 73
    2
 44
1
  0
LINE
  5
82
100
AcDbEntity
  8
Blat
  6
ByBlock
 62
  256
370
   18
100
AcDbLine
 10
416.8
 20
-64
 11
428.3702915795192
 21
-64
  0
LINE
  5
83
100
AcDbEntity
  8
Blat
  6
ByBlock
 62
  256
370
   18
100
AcDbLine
 10
416.8
 20
170
 11
428.3702915795192
 21
170
  0
ENDBLK
  5
53
330
51
100
AcDbEntity
  8
0
100
AcDbBlockEnd
  0
BLOCK
  5
55
330
54
100
AcDbEntity
  8
0
100
AcDbBlockBegin
  2
*D15
 70
    1
 10
0
 20
0
  3
*D15
  1

  0
LINE
  5
84
100
AcDbEntity
  8
Blat
  6
ByBlock
 62
  256
370
   13
100
AcDbLine
 10
246.3940376500626
 20
148.5
 11
246.3940376500626
 21
154.5
  0
SOLID
  5
85
100
AcDbEntity
  8
Blat
  6
ByBlock
 62
  256
370
   13
100
AcDbTrace
 10
246.3940376500626
 20
148.5
 30
0
 11
246.0610099238443
 21
150.5
 31
0
 12
246.7270653762808
 22
150.5
 32
0
 13
246.7270653762808
 23
150.5
 33
0
  0
SOLID
  5
86
100
AcDbEntity
  8
Blat
  6
ByBlock
 62
  256
370
   13
100
AcDbTrace
 10
246.3940376500626
 20
154.5
 30
0
 11
246.7270653762808
 21
152.5
 31
0
 12
246.0610099238443
 22
152.5
 32
0
 13
246.0610099238443
 23
152.5
 33
0
  0
MTEXT
  5
87
100
AcDbEntity
  8
Blat
  6
CONTINUOUS
 62
  256
370
   -2
100
AcDbMText
 10
243.8940376500626
 20
158.1111111111112
 30
0
 40
4
 41
6.22222222222247
 71
    5
 72
    1
  1
6.0
  7
standard
210
0
220
0
230
1
 50
90
 73
    2
 44
1
  0
LINE
  5
88
100
AcDbEntity
  8
Blat
  6
ByBlock
 62
  256
370
   18
100
AcDbLine
 10
246.4416987201899
 20
148.5
 11
246.0940376500626
 21
148.5
  0
LINE
  5
89
100
AcDbEntity
  8
Blat
  6
ByBlock
 62
  256
370
   18
100
AcDbLine
 10
246.4416987201899
 20
154.5
 11
246.0940376500626
 21
154.5
  0
ENDBLK
  5
56
330
54
100
AcDbEntity
  8
0
100
AcDbBlockEnd
  0
BLOCK
  5
58
330
57
100
AcDbEntity
  8
0
100
AcDbBlockBegin
  2
*D2
 70
    1
 10
0
 20
0
  3
*D2
  1

  0
LINE
  5
8A
100
AcDbEntity
  8
Blat
  6
ByBlock
 62
  256
370
   13
100
AcDbLine
 10
100.4270478778917
 20
96
 11
100.4270478778917
 21
170
  0
SOLID
  5
8B
100
AcDbEntity
  8
Blat
  6
ByBlock
 62
  256
370
   13
100
AcDbTrace
 10
100.4270478778917
 20
96
 30
0
 11
100.0940201516734
 21
98
 31
0
 12
100.76007560411
 22
98
 32
0
 13
100.76007560411
 23
98
 33
0
  0
SOLID
  5
8C
100
AcDbEntity
  8
Blat
  6
ByBlock
 62
  256
370
   13
100
AcDbTrace
 10
100.4270478778917
 20
170
 30
0
 11
100.76007560411
 21
168
 31
0
 12
100.0940201516734
 22
168
 32
0
 13
100.0940201516734
 23
168
 33
0
  0
MTEXT
  5
8D
100
AcDbEntity
  8
Blat
  6
CONTINUOUS
 62
  256
370
   -2
100
AcDbMText
 10
97.92704787789168
 20
133
 30
0
 40
4
 41
9.777777777777777
 71
    5
 72
    1
  1
74.0
  7
standard
210
0
220
0
230
1
 50
90
 73
    2
 44
1
  0
LINE
  5
8E
100
AcDbEntity
  8
Blat
  6
ByBlock
 62
  256
370
   18
100
AcDbLine
 10
108.2
 20
96
 11
100.1270478778917
 21
96
  0
LINE
  5
8F
100
AcDbEntity
  8
Blat
  6
ByBlock
 62
  256
370
   18
100
AcDbLine
 10
108.2
 20
170
 11
100.1270478778917
 21
170
  0
ENDBLK
  5
59
330
57
100
AcDbEntity
  8
0
100
AcDbBlockEnd
  0
BLOCK
  5
5B
330
5A
100
AcDbEntity
  8
0
100
AcDbBlockBegin
  2
*D12
 70
    1
 10
0
 20
0
  3
*D12
  1

  0
LINE
  5
90
100
AcDbEntity
  8
Blat
  6
ByBlock
 62
  256
370
   13
100
AcDbLine
 10
265.4317040964327
 20
108.5
 11
265.4317040964327
 21
96
  0
SOLID
  5
91
100
AcDbEntity
  8
Blat
  6
ByBlock
 62
  256
370
   13
100
AcDbTrace
 10
265.4317040964327
 20
108.5
 30
0
 11
265.764731822651
 21
106.5
 31
0
 12
265.0986763702144
 22
106.5
 32
0
 13
265.0986763702144
 23
106.5
 33
0
  0
SOLID
  5
92
100
AcDbEntity
  8
Blat
  6
ByBlock
 62
  256
370
   13
100
AcDbTrace
 10
265.4317040964327
 20
96
 30
0
 11
265.0986763702144
 21
98
 31
0
 12
265.764731822651
 22
98
 32
0
 13
265.764731822651
 23
98
 33
0
  0
MTEXT
  5
93
100
AcDbEntity
  8
Blat
  6
CONTINUOUS
 62
  256
370
   -2
100
AcDbMText
 10
262.9317040964327
 20
102.25
 30
0
 40
4
 41
8.444444444444692
 71
    5
 72
    1
  1
12.5
  7
standard
210
0
220
0
230
1
 50
90
 73
    2
 44
1
  0
LINE
  5
94
100
AcDbEntity
  8
Blat
  6
ByBlock
 62
  256
370
   18
100
AcDbLine
 10
256.9
 20
108.5
 11
265.7317040964327
 21
108.5
  0
LINE
  5
95
100
AcDbEntity
  8
Blat
  6
ByBlock
 62
  256
370
   18
100
AcDbLine
 10
263.8984475458332
 20
96
 11
265.7317040964327
 21
96
  0
ENDBLK
  5
5C
330
5A
100
AcDbEntity
  8
0
100
AcDbBlockEnd
  0
BLOCK
  5
5E
330
5D
100
AcDbEntity
  8
0
100
AcDbBlockBegin
  2
*D1
 70
    1
 10
0
 20
0
  3
*D1
  1

  0
LINE
  5
96
100
AcDbEntity
  8
Blat
  6
ByBlock
 62
  256
370
   13
100
AcDbLine
 10
108.5
 20
178.7003911291595
 11
342.5
 21
178.7003911291595
  0
SOLID
  5
97
100
AcDbEntity
  8
Blat
  6
ByBlock
 62
  256
370
   13
100
AcDbTrace
 10
108.5
 20
178.7003911291595
 30
0
 11
110.5
 21
179.0334188553778
 31
0
 12
110.5
 22
178.3673634029412
 32
0
 13
110.5
 23
178.3673634029412
 33
0
  0
SOLID
  5
98
100
AcDbEntity
  8
Blat
  6
ByBlock
 62
  256
370
   13
100
AcDbTrace
 10
342.5
 20
178.7003911291595
 30
0
 11
340.5
 21
178.3673634029412
 31
0
 12
340.5
 22
179.0334188553778
 32
0
 13
340.5
 23
179.0334188553778
 33
0
  0
MTEXT
  5
99
100
AcDbEntity
  8
Blat
  6
CONTINUOUS
 62
  256
370
   -2
100
AcDbMText
 10
225.5
 20
181.2003911291595
 30
0
 40
4
 41
12.88888888888914
 71
    5
 72
    1
  1
234.0
  7
standard
210
0
220
0
230
1
 50
0
 73
    2
 44
1
  0
LINE
  5
9A
100
AcDbEntity
  8
Blat
  6
ByBlock
 62
  256
370
   18
100
AcDbLine
 10
108.5
 20
170.3
 11
108.5
 21
179.0003911291595
  0
LINE
  5
9B
100
AcDbEntity
  8
Blat
  6
ByBlock
 62
  256
370
   18
100
AcDbLine
 10
342.5
 20
170.3
 11
342.5
 21
179.0003911291595
  0
ENDBLK
  5
5F
330
5D
100
AcDbEntity
  8
0
100
AcDbBlockEnd
  0
BLOCK
  5
61
330
60
100
AcDbEntity
  8
0
100
AcDbBlockBegin
  2
*D3
 70
    1
 10
0
 20
0
  3
*D3
  1

  0
LINE
  5
9C
100
AcDbEntity
  8
Blat
  6
ByBlock
 62
  256
370
   13
100
AcDbLine
 10
342.5
 20
178.6977900453793
 11
416.5
 21
178.6977900453793
  0
SOLID
  5
9D
100
AcDbEntity
  8
Blat
  6
ByBlock
 62
  256
370
   13
100
AcDbTrace
 10
342.5
 20
178.6977900453793
 30
0
 11
344.5
 21
179.0308177715976
 31
0
 12
344.5
 22
178.364762319161
 32
0
 13
344.5
 23
178.364762319161
 33
0
  0
SOLID
  5
9E
100
AcDbEntity
  8
Blat
  6
ByBlock
 62
  256
370
   13
100
AcDbTrace
 10
416.5
 20
178.6977900453793
 30
0
 11
414.5
 21
178.364762319161
 31
0
 12
414.5
 22
179.0308177715976
 32
0
 13
414.5
 23
179.0308177715976
 33
0
  0
MTEXT
  5
9F
100
AcDbEntity
  8
Blat
  6
CONTINUOUS
 62
  256
370
   -2
100
AcDbMText
 10
379.5
 20
181.1977900453793
 30
0
 40
4
 41
9.777777777777777
 71
    5
 72
    1
  1
74.0
  7
standard
210
0
220
0
230
1
 50
0
 73
    2
 44
1
  0
LINE
  5
A0
100
AcDbEntity
  8
Blat
  6
ByBlock
 62
  256
370
   18
100
AcDbLine
 10
342.5
 20
170.3
 11
342.5
 21
178.9977900453793
  0
LINE
  5
A1
100
AcDbEntity
  8
Blat
  6
ByBlock
 62
  256
370
   18
100
AcDbLine
 10
416.5
 20
170.3
 11
416.5
 21
178.9977900453793
  0
ENDBLK
  5
62
330
60
100
AcDbEntity
  8
0
100
AcDbBlockEnd
  0
BLOCK
  5
64
330
63
100
AcDbEntity
  8
0
100
AcDbBlockBegin
  2
*D8
 70
    1
 10
0
 20
0
  3
*D8
  1

  0
SOLID
  5
A2
100
AcDbEntity
  8
Blat
  6
ByBlock
 62
  256
370
   13
100
AcDbTrace
 10
355.9191718259863
 20
18.77257105550541
 30
0
 11
357.4143116922357
 21
20.1420469577329
 31
0
 12
357.7774065676272
 22
19.583663597321
 32
0
 13
357.7774065676272
 23
19.583663597321
 33
0
  0
LINE
  5
A3
100
AcDbEntity
  8
Blat
  6
ByBlock
 62
  256
370
   13
100
AcDbLine
 10
355.5
 20
18.5
 11
364.4889069350396
 21
24.34513485694899
  0
MTEXT
  5
A4
100
AcDbEntity
  8
Blat
  6
CONTINUOUS
 62
  256
370
   -2
100
AcDbMText
 10
358.8411841029857
 20
23.65471208615885
 30
0
 40
4
 41
6.22222222222247
 71
    5
 72
    1
  1
0.5
  7
standard
210
0
220
0
230
1
 50
33.034375534952
 73
    2
 44
1
  0
ENDBLK
  5
65
330
63
100
AcDbEntity
  8
0
100
AcDbBlockEnd
  0
BLOCK
  5
67
330
66
100
AcDbEntity
  8
0
100
AcDbBlockBegin
  2
*D4
 70
    1
 10
0
 20
0
  3
*D4
  1

  0
LINE
  5
A5
100
AcDbEntity
  8
Blat
  6
ByBlock
 62
  256
370
   13
100
AcDbLine
 10
355
 20
79.21624360161941
 11
404
 21
79.21624360161941
  0
SOLID
  5
A6
100
AcDbEntity
  8
Blat
  6
ByBlock
 62
  256
370
   13
100
AcDbTrace
 10
355
 20
79.21624360161941
 30
0
 11
357
 21
79.54927132783769
 31
0
 12
357
 22
78.88321587540113
 32
0
 13
357
 23
78.88321587540113
 33
0
  0
SOLID
  5
A7
100
AcDbEntity
  8
Blat
  6
ByBlock
 62
  256
370
   13
100
AcDbTrace
 10
404
 20
79.21624360161941
 30
0
 11
402
 21
78.88321587540113
 31
0
 12
402
 22
79.54927132783769
 32
0
 13
402
 23
79.54927132783769
 33
0
  0
MTEXT
  5
A8
100
AcDbEntity
  8
Blat
  6
CONTINUOUS
 62
  256
370
   -2
100
AcDbMText
 10
379.5
 20
81.71624360161941
 30
0
 40
4
 41
9.777777777777777
 71
    5
 72
    1
  1
49.0
  7
standard
210
0
220
0
230
1
 50
0
 73
    2
 44
1
  0
LINE
  5
A9
100
AcDbEntity
  8
Blat
  6
ByBlock
 62
  256
370
   18
100
AcDbLine
 10
355
 20
73.8
 11
355
 21
79.51624360161941
  0
LINE
  5
AA
100
AcDbEntity
  8
Blat
  6
ByBlock
 62
  256
370
   18
100
AcDbLine
 10
404
 20
73.8
 11
404
 21
79.51624360161941
  0
ENDBLK
  5
68
330
66
100
AcDbEntity
  8
0
100
AcDbBlockEnd
  0
BLOCK
  5
6A
330
69
100
AcDbEntity
  8
0
100
AcDbBlockBegin
  2
*D9
 70
    1
 10
0
 20
0
  3
*D9
  1

  0
LINE
  5
AB
100
AcDbEntity
  8
Blat
  6
ByBlock
 62
  256
370
   13
100
AcDbLine
 10
265.4011750817957
 20
148.5
 11
265.4011750817957
 21
108.5
  0
SOLID
  5
AC
100
AcDbEntity
  8
Blat
  6
ByBlock
 62
  256
370
   13
100
AcDbTrace
 10
265.4011750817957
 20
148.5
 30
0
 11
265.734202808014
 21
146.5
 31
0
 12
265.0681473555774
 22
146.5
 32
0
 13
265.0681473555774
 23
146.5
 33
0
  0
SOLID
  5
AD
100
AcDbEntity
  8
Blat
  6
ByBlock
 62
  256
370
   13
100
AcDbTrace
 10
265.4011750817957
 20
108.5
 30
0
 11
265.0681473555774
 21
110.5
 31
0
 12
265.734202808014
 22
110.5
 32
0
 13
265.734202808014
 23
110.5
 33
0
  0
MTEXT
  5
AE
100
AcDbEntity
  8
Blat
  6
CONTINUOUS
 62
  256
370
   -2
100
AcDbMText
 10
262.9011750817957
 20
128.5
 30
0
 40
4
 41
9.777777777777777
 71
    5
 72
    1
  1
40.0
  7
standard
210
0
220
0
230
1
 50
90
 73
    2
 44
1
  0
LINE
  5
AF
100
AcDbEntity
  8
Blat
  6
ByBlock
 62
  256
370
   18
100
AcDbLine
 10
256.9
 20
148.5
 11
265.7011750817957
 21
148.5
  0
LINE
  5
B0
100
AcDbEntity
  8
Blat
  6
ByBlock
 62
  256
370
   18
100
AcDbLine
 10
256.9
 20
108.5
 11
265.7011750817957
 21
108.5
  0
ENDBLK
  5
6B
330
69
100
AcDbEntity
  8
0
100
AcDbBlockEnd
  0
BLOCK
  5
6D
330
6C
100
AcDbEntity
  8
0
100
AcDbBlockBegin
  2
*D10
 70
    1
 10
0
 20
0
  3
*D10
  1

  0
SOLID
  5
B1
100
AcDbEntity
  8
Blat
  6
ByBlock
 62
  256
370
   13
100
AcDbTrace
 10
219.1438900578768
 20
109.9065842297112
 30
0
 11
220.6095273040933
 21
111.3075892007706
 31
0
 12
220.9844308466683
 22
110.7570647240348
 32
0
 13
220.9844308466683
 23
110.7570647240348
 33
0
  0
LINE
  5
B2
100
AcDbEntity
  8
Blat
  6
ByBlock
 62
  256
370
   13
100
AcDbLine
 10
218.4
 20
109.4
 11
227.5930117028971
 21
115.6603804190234
  0
MTEXT
  5
B3
100
AcDbEntity
  8
Blat
  6
CONTINUOUS
 62
  256
370
   -2
100
AcDbMText
 10
221.9612724645226
 20
114.8498435962472
 30
0
 40
4
 41
6.222222222222221
 71
    5
 72
    1
  1
0.9
  7
standard
210
0
220
0
230
1
 50
34.25460537825171
 73
    2
 44
1
  0
ENDBLK
  5
6E
330
6C
100
AcDbEntity
  8
0
100
AcDbBlockEnd
  0
BLOCK
  5
70
330
6F
100
AcDbEntity
  8
0
100
AcDbBlockBegin
  2
*D14
 70
    1
 10
0
 20
0
  3
*D14
  1

  0
LINE
  5
B4
100
AcDbEntity
  8
Blat
  6
ByBlock
 62
  256
370
   13
100
AcDbLine
 10
410.6476972870992
 20
74
 11
410.6476972870992
 21
170
  0
SOLID
  5
B5
100
AcDbEntity
  8
Blat
  6
ByBlock
 62
  256
370
   13
100
AcDbTrace
 10
410.6476972870992
 20
74
 30
0
 11
410.3146695608809
 21
76
 31
0
 12
410.9807250133175
 22
76
 32
0
 13
410.9807250133175
 23
76
 33
0
  0
SOLID
  5
B6
100
AcDbEntity
  8
Blat
  6
ByBlock
 62
  256
370
   13
100
AcDbTrace
 10
410.6476972870992
 20
170
 30
0
 11
410.9807250133175
 21
168
 31
0
 12
410.3146695608809
 22
168
 32
0
 13
410.3146695608809
 23
168
 33
0
  0
MTEXT
  5
B7
100
AcDbEntity
  8
Blat
  6
CONTINUOUS
 62
  256
370
   -2
100
AcDbMText
 10
408.1476972870992
 20
122
 30
0
 40
4
 41
9.33333333333383
 71
    5
 72
    1
  1
96.0
  7
standard
210
0
220
0
230
1
 50
90
 73
    2
 44
1
  0
LINE
  5
B8
100
AcDbEntity
  8
Blat
  6
ByBlock
 62
  256
370
   18
100
AcDbLine
 10
403.8
 20
74
 11
410.9476972870992
 21
74
  0
LINE
  5
B9
100
AcDbEntity
  8
Blat
  6
ByBlock
 62
  256
370
   18
100
AcDbLine
 10
410.815571258371
 20
170
 11
410.9476972870992
 21
170
  0
ENDBLK
  5
71
330
6F
100
AcDbEntity
  8
0
100
AcDbBlockEnd
  0
BLOCK
  5
73
330
72
100
AcDbEntity
  8
0
100
AcDbBlockBegin
  2
*D11
 70
    1
 10
0
 20
0
  3
*D11
  1

  0
LINE
  5
BA
100
AcDbEntity
  8
Blat
  6
ByBlock
 62
  256
370
   13
100
AcDbLine
 10
217.5
 20
100.3518328354915
 11
257.5
 21
100.3518328354915
  0
SOLID
  5
BB
100
AcDbEntity
  8
Blat
  6
ByBlock
 62
  256
370
   13
100
AcDbTrace
 10
217.5
 20
100.3518328354915
 30
0
 11
219.5
 21
100.6848605617098
 31
0
 12
219.5
 22
100.0188051092732
 32
0
 13
219.5
 23
100.0188051092732
 33
0
  0
SOLID
  5
BC
100
AcDbEntity
  8
Blat
  6
ByBlock
 62
  256
370
   13
100
AcDbTrace
 10
257.5
 20
100.3518328354915
 30
0
 11
255.5
 21
100.0188051092732
 31
0
 12
255.5
 22
100.6848605617098
 32
0
 13
255.5
 23
100.6848605617098
 33
0
  0
MTEXT
  5
BD
100
AcDbEntity
  8
Blat
  6
CONTINUOUS
 62
  256
370
   -2
100
AcDbMText
 10
237.5
 20
102.8518328354915
 30
0
 40
4
 41
9.777777777777777
 71
    5
 72
    1
  1
40.0
  7
standard
210
0
220
0
230
1
 50
0
 73
    2
 44
1
  0
LINE
  5
BE
100
AcDbEntity
  8
Blat
  6
ByBlock
 62
  256
370
   18
100
AcDbLine
 10
217.5
 20
109.1
 11
217.5
 21
100.0518328354915
  0
LINE
  5
BF
100
AcDbEntity
  8
Blat
  6
ByBlock
 62
  256
370
   18
100
AcDbLine
 10
257.5
 20
109.1
 11
257.5
 21
100.0518328354915
  0
ENDBLK
  5
74
330
72
100
AcDbEntity
  8
0
100
AcDbBlockEnd
  0
BLOCK
  5
76
330
75
100
AcDbEntity
  8
0
100
AcDbBlockBegin
  2
*D7
 70
    1
 10
0
 20
0
  3
*D7
  1

  0
LINE
  5
C0
100
AcDbEntity
  8
Blat
  6
ByBlock
 62
  256
370
   13
100
AcDbLine
 10
410.6476972870921
 20
74
 11
410.6476972870921
 21
18
  0
SOLID
  5
C1
100
AcDbEntity
  8
Blat
  6
ByBlock
 62
  256
370
   13
100
AcDbTrace
 10
410.6476972870921
 20
74
 30
0
 11
410.9807250133104
 21
72
 31
0
 12
410.3146695608738
 22
72
 32
0
 13
410.3146695608738
 23
72
 33
0
  0
SOLID
  5
C2
100
AcDbEntity
  8
Blat
  6
ByBlock
 62
  256
370
   13
100
AcDbTrace
 10
410.6476972870921
 20
18
 30
0
 11
410.3146695608738
 21
20
 31
0
 12
410.9807250133104
 22
20
 32
0
 13
410.9807250133104
 23
20
 33
0
  0
MTEXT
  5
C3
100
AcDbEntity
  8
Blat
  6
CONTINUOUS
 62
  256
370
   -2
100
AcDbMText
 10
408.1476972870921
 20
46
 30
0
 40
4
 41
9.33333333333383
 71
    5
 72
    1
  1
56.0
  7
standard
210
0
220
0
230
1
 50
90
 73
    2
 44
1
  0
LINE
  5
C4
100
AcDbEntity
  8
Blat
  6
ByBlock
 62
  256
370
   18
100
AcDbLine
 10
403.8
 20
74
 11
410.9476972870921
 21
74
  0
LINE
  5
C5
100
AcDbEntity
  8
Blat
  6
ByBlock
 62
  256
370
   18
100
AcDbLine
 10
403.8
 20
18
 11
410.9476972870921
 21
18
  0
ENDBLK
  5
77
330
75
100
AcDbEntity
  8
0
100
AcDbBlockEnd
  0
BLOCK
  5
79
330
78
100
AcDbEntity
  8
0
100
AcDbBlockBegin
  2
*D6
 70
    1
 10
0
 20
0
  3
*D6
  1

  0
LINE
  5
C6
100
AcDbEntity
  8
Blat
  6
ByBlock
 62
  256
370
   13
100
AcDbLine
 10
355
 20
79.19456214858874
 11
342.5
 21
79.19456214858874
  0
SOLID
  5
C7
100
AcDbEntity
  8
Blat
  6
ByBlock
 62
  256
370
   13
100
AcDbTrace
 10
355
 20
79.19456214858874
 30
0
 11
353
 21
78.86153442237047
 31
0
 12
353
 22
79.52758987480702
 32
0
 13
353
 23
79.52758987480702
 33
0
  0
SOLID
  5
C8
100
AcDbEntity
  8
Blat
  6
ByBlock
 62
  256
370
   13
100
AcDbTrace
 10
342.5
 20
79.19456214858874
 30
0
 11
344.5
 21
79.52758987480702
 31
0
 12
344.5
 22
78.86153442237047
 32
0
 13
344.5
 23
78.86153442237047
 33
0
  0
MTEXT
  5
C9
100
AcDbEntity
  8
Blat
  6
CONTINUOUS
 62
  256
370
   -2
100
AcDbMText
 10
348.75
 20
81.69456214858874
 30
0
 40
4
 41
8.444444444444692
 71
    5
 72
    1
  1
12.5
  7
standard
210
0
220
0
230
1
 50
360
 73
    2
 44
1
  0
LINE
  5
CA
100
AcDbEntity
  8
Blat
  6
ByBlock
 62
  256
370
   18
100
AcDbLine
 10
355
 20
73.79999819864314
 11
355
 21
79.49456214858874
  0
LINE
  5
CB
100
AcDbEntity
  8
Blat
  6
ByBlock
 62
  256
370
   18
100
AcDbLine
 10
342.5
 20
73.80723065838121
 11
342.5
 21
79.49456214858874
  0
ENDBLK
  5
7A
330
78
100
AcDbEntity
  8
0
100
AcDbBlockEnd
  0
BLOCK
  5
7C
330
7B
100
AcDbEntity
  8
0
100
AcDbBlockBegin
  2
*D13
 70
    1
 10
0
 20
0
  3
*D13
  1

  0
LINE
  5
CC
100
AcDbEntity
  8
Blat
  6
ByBlock
 62
  256
370
   13
100
AcDbLine
 10
257.5
 20
154.5905148383129
 11
342.5
 21
154.5905148383129
  0
SOLID
  5
CD
100
AcDbEntity
  8
Blat
  6
ByBlock
 62
  256
370
   13
100
AcDbTrace
 10
257.5
 20
154.5905148383129
 30
0
 11
259.5
 21
154.9235425645312
 31
0
 12
259.5
 22
154.2574871120947
 32
0
 13
259.5
 23
154.2574871120947
 33
0
  0
SOLID
  5
CE
100
AcDbEntity
  8
Blat
  6
ByBlock
 62
  256
370
   13
100
AcDbTrace
 10
342.5
 20
154.5905148383129
 30
0
 11
340.5
 21
154.2574871120947
 31
0
 12
340.5
 22
154.9235425645312
 32
0
 13
340.5
 23
154.9235425645312
 33
0
  0
MTEXT
  5
CF
100
AcDbEntity
  8
Blat
  6
CONTINUOUS
 62
  256
370
   -2
100
AcDbMText
 10
300
 20
157.0905148383129
 30
0
 40
4
 41
9.333333333333583
 71
    5
 72
    1
  1
85.0
  7
standard
210
0
220
0
230
1
 50
0
 73
    2
 44
1
  0
LINE
  5
D0
100
AcDbEntity
  8
Blat
  6
ByBlock
 62
  256
370
   18
100
AcDbLine
 10
257.5
 20
147.8999927809996
 11
257.5
 21
154.8905148383129
  0
LINE
  5
D1
100
AcDbEntity
  8
Blat
  6
ByBlock
 62
  256
370
   18
100
AcDbLine
 10
342.5
 20
154.5020964593222
 11
342.5
 21
154.8905148383129
  0
ENDBLK
  5
7D
330
7B
100
AcDbEntity
  8
0
100
AcDbBlockEnd
  0
ENDSEC
  0
SECTION
  2
ENTITIES
  0
LINE
  5
D2
100
AcDbEntity
  8
Sciany
  6
ByLayer
 62
  256
370
   -1
100
AcDbLine
 10
417
 20
-64.5
 11
417
 21
170.5
  0
LINE
  5
D3
100
AcDbEntity
  8
Sciany
  6
ByLayer
 62
  256
370
   -1
100
AcDbLine
 10
40.50000000000001
 20
169
 11
40.50000000000001
 21
170.5
  0
LINE
  5
D4
100
AcDbEntity
  8
Sciany
  6
ByLayer
 62
  256
370
   -1
100
AcDbLine
 10
1.096058885236881e-14
 20
169
 11
40.50000000000001
 21
169
  0
LINE
  5
D5
100
AcDbEntity
  8
Sciany
  6
ByLayer
 62
  256
370
   -1
100
AcDbLine
 10
6.123233995736762e-16
 20
0
 11
170.5
 21
0
  0
LINE
  5
D6
100
AcDbEntity
  8
Sciany
  6
ByLayer
 62
  256
370
   -1
100
AcDbLine
 10
170.5
 20
-64.5
 11
170.5
 21
0
  0
LINE
  5
D7
100
AcDbEntity
  8
Sciany
  6
ByLayer
 62
  256
370
   -1
100
AcDbLine
 10
170.5
 20
-49.5
 11
172.5
 21
-49.5
  0
LINE
  5
D8
100
AcDbEntity
  8
Sciany
  6
ByLayer
 62
  256
370
   -1
100
AcDbLine
 10
172.5
 20
-64.5
 11
172.5
 21
-49.5
  0
LINE
  5
D9
100
AcDbEntity
  8
Sciany
  6
ByLayer
 62
  256
370
   -1
100
AcDbLine
 10
297.5
 20
170.5
 11
297.5
 21
180.5
  0
LINE
  5
DA
100
AcDbEntity
  8
Sciany
  6
ByLayer
 62
  256
370
   -1
100
AcDbLine
 10
297.5
 20
170.5
 11
417
 21
170.5
  0
LINE
  5
DB
100
AcDbEntity
  8
Sciany
  6
ByLayer
 62
  256
370
   -1
100
AcDbLine
 10
343
 20
-74.49999999999999
 11
343
 21
-64.5
  0
LINE
  5
DC
100
AcDbEntity
  8
Sciany
  6
ByLayer
 62
  256
370
   -1
100
AcDbLine
 10
253
 20
-74.49999999999997
 11
253
 21
-64.5
  0
LINE
  5
DD
100
AcDbEntity
  8
Sciany
  6
ByLayer
 62
  256
370
   -1
100
AcDbLine
 10
-10
 20
100
 11
6.735557395310441e-15
 21
100
  0
LINE
  5
DE
100
AcDbEntity
  8
Sciany
  6
ByLayer
 62
  256
370
   -1
100
AcDbLine
 10
-10.00000000000002
 20
10
 11
1.224646799147353e-15
 21
10
  0
LINE
  5
DF
100
AcDbEntity
  8
Sciany
  6
ByLayer
 62
  256
370
   -1
100
AcDbLine
 10
177
 20
170.5
 11
177
 21
180.5000000000001
  0
LINE
  5
E0
100
AcDbEntity
  8
Sciany
  6
ByLayer
 62
  256
370
   -1
100
AcDbLine
 10
1.105243736230486e-14
 20
170.5
 11
177
 21
170.5
  0
LINE
  5
E1
100
AcDbEntity
  8
Sciany
  6
ByLayer
 62
  256
370
   -1
100
AcDbLine
 10
258
 20
-74.49999999999997
 11
258
 21
-64.5
  0
LINE
  5
E2
100
AcDbEntity
  8
Sciany
  6
ByLayer
 62
  256
370
   -1
100
AcDbLine
 10
338
 20
-74.49999999999999
 11
338
 21
-64.5
  0
LINE
  5
E3
100
AcDbEntity
  8
Sciany
  6
ByLayer
 62
  256
370
   -1
100
AcDbLine
 10
170.5
 20
-64.5
 11
258
 21
-64.5
  0
LINE
  5
E4
100
AcDbEntity
  8
Sciany
  6
ByLayer
 62
  256
370
   -1
100
AcDbLine
 10
338
 20
-64.5
 11
417
 21
-64.5
  0
LINE
  5
E5
100
AcDbEntity
  8
Sciany
  6
ByLayer
 62
  256
370
   -1
100
AcDbLine
 10
-10.00000000000002
 20
15
 11
1.530808498934192e-15
 21
15
  0
LINE
  5
E6
100
AcDbEntity
  8
Sciany
  6
ByLayer
 62
  256
370
   -1
100
AcDbLine
 10
6.123233995736762e-16
 20
0
 11
1.530808498934192e-15
 21
15
  0
LINE
  5
E7
100
AcDbEntity
  8
Sciany
  6
ByLayer
 62
  256
370
   -1
100
AcDbLine
 10
-10
 20
95
 11
6.429395695523602e-15
 21
95
  0
LINE
  5
E8
100
AcDbEntity
  8
Sciany
  6
ByLayer
 62
  256
370
   -1
100
AcDbLine
 10
6.429395695523602e-15
 20
95
 11
1.105243736230486e-14
 21
170.5
  0
LINE
  5
E9
100
AcDbEntity
  8
Sprzet
  6
ByLayer
 62
  256
370
   -1
100
AcDbLine
 10
43.00000000000001
 20
95
 11
43.00000000000001
 21
170
  0
LINE
  5
EA
100
AcDbEntity
  8
Sprzet
  6
ByLayer
 62
  256
370
   -1
100
AcDbLine
 10
103
 20
95
 11
103
 21
170
  0
LINE
  5
EB
100
AcDbEntity
  8
Scianki
  6
ByLayer
 62
  256
370
   -1
100
AcDbLine
 10
404.5
 20
-64
 11
404.5
 21
-55
  0
LINE
  5
EC
100
AcDbEntity
  8
Blat
  6
ByLayer
 62
  256
370
   -1
100
AcDbLine
 10
342.5
 20
-64
 11
342.5
 21
170
  0
LINE
  5
ED
100
AcDbEntity
  8
Scianki
  6
ByLayer
 62
  256
370
   -1
100
AcDbLine
 10
336.5
 20
158
 11
345.5
 21
158
  0
LINE
  5
EE
100
AcDbEntity
  8
Scianki
  6
ByLayer
 62
  256
370
   -1
100
AcDbLine
 10
343.5
 20
-64
 11
416.5
 21
-64
  0
LINE
  5
EF
100
AcDbEntity
  8
Scianki
  6
ByLayer
 62
  256
370
   -1
100
AcDbLine
 10
343.5
 20
-55
 11
404.5
 21
-55
  0
LINE
  5
F0
100
AcDbEntity
  8
Scianki
  6
ByLayer
 62
  256
370
   -1
100
AcDbLine
 10
343.5
 20
-64
 11
343.5
 21
-55
  0
LINE
  5
F1
100
AcDbEntity
  8
Blat
  6
ByLayer
 62
  256
370
   -1
100
AcDbLine
 10
108.5
 20
96
 11
342.5
 21
96
  0
LINE
  5
F2
100
AcDbEntity
  8
Scianki
  6
ByLayer
 62
  256
370
   -1
100
AcDbLine
 10
336.5
 20
97
 11
336.5
 21
158
  0
LINE
  5
F3
100
AcDbEntity
  8
Scianki
  6
ByLayer
 62
  256
370
   -1
100
AcDbLine
 10
345.5
 20
97
 11
345.5
 21
170
  0
LINE
  5
F4
100
AcDbEntity
  8
Scianki
  6
ByLayer
 62
  256
370
   -1
100
AcDbLine
 10
336.5
 20
97
 11
345.5
 21
97
  0
LINE
  5
F5
100
AcDbEntity
  8
Scianki
  6
ByLayer
 62
  256
370
   -1
100
AcDbLine
 10
387.5
 20
161
 11
416.5
 21
161
  0
LINE
  5
F6
100
AcDbEntity
  8
Blat
  6
ByLayer
 62
  256
370
   -1
100
AcDbLine
 10
108.5
 20
96
 11
108.5
 21
170
  0
ARC
  5
F7
100
AcDbEntity
  8
Blat
  6
ByLayer
 62
  256
370
   -1
100
AcDbCircle
 10
355.5
 20
73.5
 40
0.5
100
AcDbArc
 50
90
 51
180
  0
LINE
  5
F8
100
AcDbEntity
  8
Blat
  6
ByLayer
 62
  256
370
   -1
100
AcDbLine
 10
355.5
 20
74
 11
403.5
 21
74
  0
ARC
  5
F9
100
AcDbEntity
  8
Blat
  6
ByLayer
 62
  256
370
   -1
100
AcDbCircle
 10
403.5
 20
73.5
 40
0.5
100
AcDbArc
 50
0
 51
90
  0
LINE
  5
FA
100
AcDbEntity
  8
Blat
  6
ByLayer
 62
  256
370
   -1
100
AcDbLine
 10
404
 20
18.5
 11
404
 21
73.5
  0
ARC
  5
FB
100
AcDbEntity
  8
Blat
  6
ByLayer
 62
  256
370
   -1
100
AcDbCircle
 10
403.5
 20
18.5
 40
0.5
100
AcDbArc
 50
270
 51
0
  0
LINE
  5
FC
100
AcDbEntity
  8
Blat
  6
ByLayer
 62
  256
370
   -1
100
AcDbLine
 10
355.5
 20
18
 11
403.5
 21
18
  0
LINE
  5
FD
100
AcDbEntity
  8
Blat
  6
ByLayer
 62
  256
370
   -1
100
AcDbLine
 10
355
 20
18.5
 11
355
 21
73.5
  0
ARC
  5
FE
100
AcDbEntity
  8
Blat
  6
ByLayer
 62
  256
370
   -1
100
AcDbCircle
 10
355.5
 20
18.5
 40
0.5
100
AcDbArc
 50
180
 51
270
  0
LINE
  5
FF
100
AcDbEntity
  8
Blat
  6
ByLayer
 62
  256
370
   -1
100
AcDbLine
 10
416.5
 20
-64
 11
416.5
 21
170
  0
LINE
  5
100
100
AcDbEntity
  8
Blat
  6
ByLayer
 62
  256
370
   -1
100
AcDbLine
 10
342.5
 20
-64
 11
416.5
 21
-64
  0
DIMENSION
  5
101
100
AcDbEntity
  8
Blat
  6
ByLayer
 62
  256
370
   13
100
AcDbDimension
  2
*D1
 10
342.5
 20
178.7003911291595
 30
0
 11
225.5
 21
181.2003911291595
 31
0
 70
   32
 71
    5
 72
    0
  3
Standard
 53
0
210
0
220
0
230
1
100
AcDbAlignedDimension
 13
108.5
 23
170
 33
0
 14
342.5
 24
170
 34
0
100
AcDbRotatedDimension
  0
DIMENSION
  5
102
100
AcDbEntity
  8
Blat
  6
ByLayer
 62
  256
370
   13
100
AcDbDimension
  2
*D2
 10
100.4270478778917
 20
170
 30
0
 11
97.92704787789168
 21
133
 31
0
 70
   32
 71
    5
 72
    0
  3
Standard
 53
0
210
0
220
0
230
1
100
AcDbAlignedDimension
 13
108.5
 23
96
 33
0
 14
108.5
 24
170
 34
0
 50
90
100
AcDbRotatedDimension
  0
DIMENSION
  5
103
100
AcDbEntity
  8
Blat
  6
ByLayer
 62
  256
370
   13
100
AcDbDimension
  2
*D3
 10
416.5
 20
178.6977900453793
 30
0
 11
379.5
 21
181.1977900453793
 31
0
 70
   32
 71
    5
 72
    0
  3
Standard
 53
0
210
0
220
0
230
1
100
AcDbAlignedDimension
 13
342.5
 23
170
 33
0
 14
416.5
 24
170
 34
0
100
AcDbRotatedDimension
  0
DIMENSION
  5
104
100
AcDbEntity
  8
Blat
  6
ByLayer
 62
  256
370
   13
100
AcDbDimension
  2
*D4
 10
404
 20
79.21624360161941
 30
0
 11
379.5
 21
81.71624360161941
 31
0
 70
   32
 71
    5
 72
    0
  3
Standard
 53
0
210
0
220
0
230
1
100
AcDbAlignedDimension
 13
355
 23
73.5
 33
0
 14
404
 24
73.5
 34
0
100
AcDbRotatedDimension
  0
DIMENSION
  5
105
100
AcDbEntity
  8
Blat
  6
ByLayer
 62
  256
370
   13
100
AcDbDimension
  2
*D5
 10
428.0702915795192
 20
170
 30
0
 11
425.5702915795192
 21
53
 31
0
 70
   32
 71
    5
 72
    0
  3
Standard
 53
0
210
0
220
0
230
1
100
AcDbAlignedDimension
 13
416.5
 23
-64
 33
0
 14
416.5
 24
170
 34
0
 50
90
100
AcDbRotatedDimension
  0
DIMENSION
  5
106
100
AcDbEntity
  8
Blat
  6
ByLayer
 62
  256
370
   13
100
AcDbDimension
  2
*D6
 10
342.5
 20
79.19456214858874
 30
0
 11
348.75
 21
81.69456214858874
 31
0
 70
   32
 71
    5
 72
    0
  3
Standard
 53
0
210
0
220
0
230
1
100
AcDbAlignedDimension
 13
355
 23
73.49999819864314
 33
0
 14
342.5
 24
73.50723065838122
 34
0
100
AcDbRotatedDimension
  0
DIMENSION
  5
107
100
AcDbEntity
  8
Blat
  6
ByLayer
 62
  256
370
   13
100
AcDbDimension
  2
*D7
 10
410.6476972870921
 20
18
 30
0
 11
408.1476972870921
 21
46
 31
0
 70
   32
 71
    5
 72
    0
  3
Standard
 53
0
210
0
220
0
230
1
100
AcDbAlignedDimension
 13
403.5
 23
74
 33
0
 14
403.5
 24
18
 34
0
 50
90
100
AcDbRotatedDimension
  0
DIMENSION
  5
108
100
AcDbEntity
  8
Blat
  6
ByLayer
 62
  256
370
   13
100
AcDbDimension
  2
*D8
 10
355.5
 20
18.5
 30
0
 11
358.8411841029857
 21
23.65471208615885
 31
0
 70
   36
 71
    5
 72
    0
  3
Standard
 53
0
210
0
220
0
230
1
100
AcDbRadialDimension
 15
355.9191718259863
 25
18.77257105550541
 35
0
 40
0
  0
ARC
  5
109
100
AcDbEntity
  8
Blat
  6
ByLayer
 62
  256
370
   -1
100
AcDbCircle
 10
256.6
 20
109.4
 40
0.9
100
AcDbArc
 50
270
 51
0
  0
LINE
  5
10A
100
AcDbEntity
  8
Blat
  6
ByLayer
 62
  256
370
   -1
100
AcDbLine
 10
218.4
 20
108.5
 11
256.6
 21
108.5
  0
ARC
  5
10B
100
AcDbEntity
  8
Blat
  6
ByLayer
 62
  256
370
   -1
100
AcDbCircle
 10
218.4
 20
109.4
 40
0.9
100
AcDbArc
 50
180
 51
270
  0
LINE
  5
10C
100
AcDbEntity
  8
Blat
  6
ByLayer
 62
  256
370
   -1
100
AcDbLine
 10
257.5
 20
109.4
 11
257.5
 21
147.6
  0
ARC
  5
10D
100
AcDbEntity
  8
Blat
  6
ByLayer
 62
  256
370
   -1
100
AcDbCircle
 10
256.6
 20
147.6
 40
0.9
100
AcDbArc
 50
0
 51
90
  0
LINE
  5
10E
100
AcDbEntity
  8
Blat
  6
ByLayer
 62
  256
370
   -1
100
AcDbLine
 10
218.4
 20
148.5
 11
256.6
 21
148.5
  0
LINE
  5
10F
100
AcDbEntity
  8
Blat
  6
ByLayer
 62
  256
370
   -1
100
AcDbLine
 10
217.5
 20
109.4
 11
217.5
 21
147.6
  0
ARC
  5
110
100
AcDbEntity
  8
Blat
  6
ByLayer
 62
  256
370
   -1
100
AcDbCircle
 10
218.4
 20
147.6
 40
0.9
100
AcDbArc
 50
90
 51
180
  0
LINE
  5
111
100
AcDbEntity
  8
Blat
  6
ByLayer
 62
  256
370
   -1
100
AcDbLine
 10
108.75
 20
170
 11
416.75
 21
170
  0
CIRCLE
  5
112
100
AcDbEntity
  8
Blat
  6
ByLayer
 62
  256
370
   -1
100
AcDbCircle
 10
237.5
 20
154.5
 40
1.75
  0
LINE
  5
113
100
AcDbEntity
  8
Blat
  6
DOTTINY
 62
  256
370
   13
100
AcDbLine
 10
177.5
 20
108.5
 11
177.5
 21
148.5
  0
LINE
  5
114
100
AcDbEntity
  8
Blat
  6
DOTTINY
 62
  256
370
   13
100
AcDbLine
 10
177.5
 20
148.5
 11
217.5
 21
148.5
  0
LINE
  5
115
100
AcDbEntity
  8
Blat
  6
DOTTINY
 62
  256
370
   13
100
AcDbLine
 10
177.5
 20
108.5
 11
217.5
 21
108.5
  0
MTEXT
  5
116
100
AcDbEntity
  8
Blat
  6
ByLayer
 62
  256
370
   13
100
AcDbMText
 10
186.25
 20
127
 30
0
 40
4
 41
21.33333333333352
 71
    7
 72
    1
  1
Ociekacz
  7
standard
210
0
220
0
230
1
 50
0
 73
    2
 44
1
  0
DIMENSION
  5
117
100
AcDbEntity
  8
Blat
  6
ByLayer
 62
  256
370
   13
100
AcDbDimension
  2
*D9
 10
265.4011750817957
 20
108.5
 30
0
 11
262.9011750817957
 21
128.5
 31
0
 70
   32
 71
    5
 72
    0
  3
Standard
 53
0
210
0
220
0
230
1
100
AcDbAlignedDimension
 13
256.6
 23
148.5
 33
0
 14
256.6
 24
108.5
 34
0
 50
90
100
AcDbRotatedDimension
  0
DIMENSION
  5
118
100
AcDbEntity
  8
Blat
  6
ByLayer
 62
  256
370
   13
100
AcDbDimension
  2
*D10
 10
218.4
 20
109.4
 30
0
 11
221.9612724645226
 21
114.8498435962472
 31
0
 70
   36
 71
    5
 72
    0
  3
Standard
 53
0
210
0
220
0
230
1
100
AcDbRadialDimension
 15
219.1438900578768
 25
109.9065842297112
 35
0
 40
0
  0
LINE
  5
119
100
AcDbEntity
  8
Blat
  6
DASHDOT2
 62
  256
370
   13
100
AcDbLine
 10
237.5
 20
105.5
 11
237.5
 21
160
  0
DIMENSION
  5
11A
100
AcDbEntity
  8
Blat
  6
ByLayer
 62
  256
370
   13
100
AcDbDimension
  2
*D11
 10
257.5
 20
100.3518328354915
 30
0
 11
237.5
 21
102.8518328354915
 31
0
 70
   32
 71
    5
 72
    0
  3
Standard
 53
0
210
0
220
0
230
1
100
AcDbAlignedDimension
 13
217.5
 23
109.4
 33
0
 14
257.5
 24
109.4
 34
0
100
AcDbRotatedDimension
  0
DIMENSION
  5
11B
100
AcDbEntity
  8
Blat
  6
ByLayer
 62
  256
370
   13
100
AcDbDimension
  2
*D12
 10
265.4317040964327
 20
96
 30
0
 11
262.9317040964327
 21
102.25
 31
0
 70
   32
 71
    5
 72
    0
  3
Standard
 53
0
210
0
220
0
230
1
100
AcDbAlignedDimension
 13
256.6
 23
108.5
 33
0
 14
263.5984475458332
 24
96
 34
0
 50
90
100
AcDbRotatedDimension
  0
DIMENSION
  5
11C
100
AcDbEntity
  8
Blat
  6
ByLayer
 62
  256
370
   13
100
AcDbDimension
  2
*D13
 10
342.5
 20
154.5905148383129
 30
0
 11
300
 21
157.0905148383129
 31
0
 70
   32
 71
    5
 72
    0
  3
Standard
 53
0
210
0
220
0
230
1
100
AcDbAlignedDimension
 13
257.5
 23
147.5999927809996
 33
0
 14
342.5
 24
154.2020964593222
 34
0
100
AcDbRotatedDimension
  0
DIMENSION
  5
11D
100
AcDbEntity
  8
Blat
  6
ByLayer
 62
  256
370
   13
100
AcDbDimension
  2
*D14
 10
410.6476972870992
 20
170
 30
0
 11
408.1476972870992
 21
122
 31
0
 70
   32
 71
    5
 72
    0
  3
Standard
 53
0
210
0
220
0
230
1
100
AcDbAlignedDimension
 13
403.5
 23
74
 33
0
 14
410.515571258371
 24
170
 34
0
 50
90
100
AcDbRotatedDimension
  0
LINE
  5
11E
100
AcDbEntity
  8
Blat
  6
DASHDOT2
 62
  256
370
   13
100
AcDbLine
 10
227.5
 20
154.5
 11
247.5
 21
154.5
  0
DIMENSION
  5
11F
100
AcDbEntity
  8
Blat
  6
DASHDOT2
 62
  256
370
   13
100
AcDbDimension
  2
*D15
 10
246.3940376500626
 20
154.5
 30
0
 11
243.8940376500626
 21
151.5
 31
0
 70
   32
 71
    5
 72
    0
  3
Standard
 53
0
210
0
220
0
230
1
100
AcDbAlignedDimension
 13
246.7416987201899
 23
148.5
 33
0
 14
246.7416987201899
 24
154.5
 34
0
 50
90
100
AcDbRotatedDimension
  0
LINE
  5
120
100
AcDbEntity
  8
Sciany
  6
DOTTINY
 62
  256
370
   -1
100
AcDbLine
 10
1.530808498934192e-15
 20
15
 11
6.429395695523606e-15
 21
95
  0
LINE
  5
121
100
AcDbEntity
  8
Sciany
  6
DOTTINY
 62
  256
370
   -1
100
AcDbLine
 10
258
 20
-64.5
 11
338
 21
-64.5
  0
LINE
  5
122
100
AcDbEntity
  8
Scianki
  6
ByLayer
 62
  256
370
   -1
100
AcDbLine
 10
404.5
 20
-13
 11
404.5
 21
-4
  0
LINE
  5
123
100
AcDbEntity
  8
Scianki
  6
ByLayer
 62
  256
370
   -1
100
AcDbLine
 10
343.5
 20
-13
 11
343.5
 21
-4
  0
LINE
  5
124
100
AcDbEntity
  8
Scianki
  6
ByLayer
 62
  256
370
   -1
100
AcDbLine
 10
343.5
 20
-4
 11
404.5
 21
-4
  0
LINE
  5
125
100
AcDbEntity
  8
Scianki
  6
ByLayer
 62
  256
370
   -1
100
AcDbLine
 10
343.5
 20
-13
 11
404.5
 21
-13
  0
LINE
  5
126
100
AcDbEntity
  8
Scianki
  6
ByLayer
 62
  256
370
   -1
100
AcDbLine
 10
343.5
 20
38
 11
404.5
 21
38
  0
LINE
  5
127
100
AcDbEntity
  8
Scianki
  6
ByLayer
 62
  256
370
   -1
100
AcDbLine
 10
285.5
 20
158
 11
294.5
 21
158
  0
LINE
  5
128
100
AcDbEntity
  8
Scianki
  6
ByLayer
 62
  256
370
   -1
100
AcDbLine
 10
294.5
 20
97
 11
294.5
 21
158
  0
LINE
  5
129
100
AcDbEntity
  8
Scianki
  6
ByLayer
 62
  256
370
   -1
100
AcDbLine
 10
285.5
 20
97
 11
294.5
 21
97
  0
LINE
  5
12A
100
AcDbEntity
  8
Scianki
  6
ByLayer
 62
  256
370
   -1
100
AcDbLine
 10
109.5
 20
166.5
 11
118.5
 21
166.5
  0
LINE
  5
12B
100
AcDbEntity
  8
Scianki
  6
ByLayer
 62
  256
370
   -1
100
AcDbLine
 10
109.5
 20
97
 11
109.5
 21
166.5
  0
LINE
  5
12C
100
AcDbEntity
  8
Scianki
  6
ByLayer
 62
  256
370
   -1
100
AcDbLine
 10
118.5
 20
97
 11
118.5
 21
166.5
  0
LINE
  5
12D
100
AcDbEntity
  8
Scianki
  6
ByLayer
 62
  256
370
   -1
100
AcDbLine
 10
109.5
 20
97
 11
118.5
 21
97
  0
LINE
  5
12E
100
AcDbEntity
  8
Scianki
  6
ByLayer
 62
  256
370
   -1
100
AcDbLine
 10
285.5
 20
97
 11
285.5
 21
170.5
  0
LINE
  5
12F
100
AcDbEntity
  8
Scianki
  6
ByLayer
 62
  256
370
   -1
100
AcDbLine
 10
180
 20
97
 11
180
 21
166.5
  0
LINE
  5
130
100
AcDbEntity
  8
Scianki
  6
ByLayer
 62
  256
370
   -1
100
AcDbLine
 10
180
 20
97
 11
189
 21
97
  0
LINE
  5
131
100
AcDbEntity
  8
Scianki
  6
ByLayer
 62
  256
370
   -1
100
AcDbLine
 10
189
 20
97
 11
189
 21
170.5
  0
LINE
  5
132
100
AcDbEntity
  8
Scianki
  6
ByLayer
 62
  256
370
   -1
100
AcDbLine
 10
387.5
 20
170
 11
416.5
 21
170
  0
LINE
  5
133
100
AcDbEntity
  8
Scianki
  6
ByLayer
 62
  256
370
   -1
100
AcDbLine
 10
387.5
 20
161
 11
387.5
 21
170
  0
LINE
  5
134
100
AcDbEntity
  8
Scianki
  6
ByLayer
 62
  256
370
   -1
100
AcDbLine
 10
407.5
 20
131
 11
416.5
 21
131
  0
LINE
  5
135
100
AcDbEntity
  8
Scianki
  6
ByLayer
 62
  256
370
   -1
100
AcDbLine
 10
416.5
 20
131
 11
416.5
 21
170
  0
LINE
  5
136
100
AcDbEntity
  8
Scianki
  6
ByLayer
 62
  256
370
   -1
100
AcDbLine
 10
407.5
 20
160
 11
416.5
 21
160
  0
LINE
  5
137
100
AcDbEntity
  8
Scianki
  6
ByLayer
 62
  256
370
   -1
100
AcDbLine
 10
407.5
 20
131
 11
407.5
 21
160
  0
LINE
  5
138
100
AcDbEntity
  8
Scianki
  6
ByLayer
 62
  256
370
   -1
100
AcDbLine
 10
407.5
 20
-64
 11
407.5
 21
61
  0
LINE
  5
139
100
AcDbEntity
  8
Scianki
  6
ByLayer
 62
  256
370
   -1
100
AcDbLine
 10
416.5
 20
-64
 11
416.5
 21
61
  0
LINE
  5
13A
100
AcDbEntity
  8
Scianki
  6
ByLayer
 62
  256
370
   -1
100
AcDbLine
 10
407.5
 20
61
 11
416.5
 21
61
  0
LINE
  5
13B
100
AcDbEntity
  8
Scianki
  6
ByLayer
 62
  256
370
   -1
100
AcDbLine
 10
343.5
 20
47
 11
404.5
 21
47
  0
LINE
  5
13C
100
AcDbEntity
  8
Scianki
  6
ByLayer
 62
  256
370
   -1
100
AcDbLine
 10
404.5
 20
38
 11
404.5
 21
47
  0
LINE
  5
13D
100
AcDbEntity
  8
Scianki
  6
ByLayer
 62
  256
370
   -1
100
AcDbLine
 10
180
 20
157.5
 11
209
 21
157.5
  0
LINE
  5
13E
100
AcDbEntity
  8
Scianki
  6
ByLayer
 62
  256
370
   -1
100
AcDbLine
 10
180
 20
166.5
 11
209
 21
166.5
  0
LINE
  5
13F
100
AcDbEntity
  8
Scianki
  6
ByLayer
 62
  256
370
   -1
100
AcDbLine
 10
209
 20
157.5
 11
209
 21
166.5
  0
LINE
  5
140
100
AcDbEntity
  8
Scianki
  6
ByLayer
 62
  256
370
   -1
100
AcDbLine
 10
271.5
 20
170
 11
345.5
 21
170
  0
LINE
  5
141
100
AcDbEntity
  8
Scianki
  6
ByLayer
 62
  256
370
   -1
100
AcDbLine
 10
271.5
 20
161
 11
345.5
 21
161
  0
LINE
  5
142
100
AcDbEntity
  8
Scianki
  6
ByLayer
 62
  256
370
   -1
100
AcDbLine
 10
271.5
 20
161
 11
271.5
 21
170
  0
LINE
  5
143
100
AcDbEntity
  8
Scianki
  6
ByLayer
 62
  256
370
   -1
100
AcDbLine
 10
343.5
 20
38
 11
343.5
 21
97
  0
ENDSEC
  0
SECTION
  2
OBJECTS
  0
DICTIONARY
  5
C
330
0
100
AcDbDictionary
281
    1
  3
ACAD_GROUP
350
D
  0
DICTIONARY
  5
D
330
C
100
AcDbDictionary
281
    1
  0
ENDSEC
  0
EOF
