999
dxflib 2.0.4.8
  0
SECTION
  2
HEADER
  9
$ACADVER
  1
AC1015
  9
$HANDSEED
  5
FFFF
  9
$DIMASZ
 40
2.5
  9
$GRIDUNIT
 10
0.0
 20
0.0
  9
$DIMADEC
 70
2
  9
$DIMGAP
 40
0.625
  9
$SPLINESEGS
 70
8
  9
$AUPREC
 70
2
  9
$LUNITS
 70
2
  9
$DIMEXO
 40
0.625
  9
$INSUNITS
 70
5
  9
$DIMLUNIT
 70
2
  9
$DIMTXT
 40
2.5
  9
$GRIDMODE
 70
1
  9
$LUPREC
 70
2
  9
$DIMSTYLE
  2
Standard
  9
$PSVPSCALE
 40
0.2453274181239236
  9
$PLIMMAX
 10
29.6999999999999993
 20
21.0
  9
$PLIMMIN
 10
0.0
 20
0.0
  9
$DIMEXE
 40
1.25
  9
$PINSBASE
 10
2.7396865806128261
 20
-16.8242494086346852
 30
0.0
  9
$DIMAUNIT
 70
0
  9
$AUNITS
 70
0
  0
ENDSEC
  0
SECTION
  2
TABLES
  0
TABLE
  2
VPORT
  5
8
100
AcDbSymbolTable
 70
1
  0
VPORT
  5
30
100
AcDbSymbolTableRecord
100
AcDbViewportTableRecord
  2
*Active
 70
0
 10
0.0
 20
0.0
 11
1.0
 21
1.0
 12
286.3055555555554861
 22
148.5
 13
0.0
 23
0.0
 14
10.0
 24
10.0
 15
10.0
 25
10.0
 16
0.0
 26
0.0
 36
1.0
 17
0.0
 27
0.0
 37
0.0
 40
297.0
 41
1.92798353909465
 42
50.0
 43
0.0
 44
0.0
 50
0.0
 51
0.0
 71
0
 72
100
 73
1
 74
3
 75
1
 76
1
 77
0
 78
0
281
0
 65
1
110
0.0
120
0.0
130
0.0
111
1.0
121
0.0
131
0.0
112
0.0
122
1.0
132
0.0
 79
0
146
0.0
  0
ENDTAB
  0
TABLE
  2
LTYPE
  5
5
100
AcDbSymbolTable
 70
21
  0
LTYPE
  5
14
100
AcDbSymbolTableRecord
100
AcDbLinetypeTableRecord
  2
ByBlock
 70
0
  3

 72
65
 73
0
 40
0.0
  0
LTYPE
  5
15
100
AcDbSymbolTableRecord
100
AcDbLinetypeTableRecord
  2
ByLayer
 70
0
  3

 72
65
 73
0
 40
0.0
  0
LTYPE
  5
16
100
AcDbSymbolTableRecord
100
AcDbLinetypeTableRecord
  2
CONTINUOUS
 70
0
  3
Solid line
 72
65
 73
0
 40
0.0
  0
LTYPE
  5
31
100
AcDbSymbolTableRecord
100
AcDbLinetypeTableRecord
  2
DOT
 70
0
  3
Dot . . . . . . . . . . . . . . . . . . . . . .
 72
65
 73
2
 40
6.3499999999999996
 49
0.0
 74
0
 49
-6.3499999999999996
 74
0
  0
LTYPE
  5
32
100
AcDbSymbolTableRecord
100
AcDbLinetypeTableRecord
  2
DOT2
 70
0
  3
Dot (.5x) .....................................
 72
65
 73
2
 40
3.1749999999999998
 49
0.0
 74
0
 49
-3.1749999999999998
 74
0
  0
LTYPE
  5
33
100
AcDbSymbolTableRecord
100
AcDbLinetypeTableRecord
  2
DOTX2
 70
0
  3
Dot (2x) .  .  .  .  .  .  .  .  .  .  .  .  .
 72
65
 73
2
 40
12.6999999999999993
 49
0.0
 74
0
 49
-12.6999999999999993
 74
0
  0
LTYPE
  5
34
100
AcDbSymbolTableRecord
100
AcDbLinetypeTableRecord
  2
DASHED
 70
0
  3
Dashed __ __ __ __ __ __ __ __ __ __ __ __ __ _
 72
65
 73
2
 40
19.0500000000000007
 49
12.6999999999999993
 74
0
 49
-6.3499999999999996
 74
0
  0
LTYPE
  5
35
100
AcDbSymbolTableRecord
100
AcDbLinetypeTableRecord
  2
DASHED2
 70
0
  3
Dashed (.5x) _ _ _ _ _ _ _ _ _ _ _ _ _ _ _ _ _
 72
65
 73
2
 40
9.5250000000000004
 49
6.3499999999999996
 74
0
 49
-3.1749999999999998
 74
0
  0
LTYPE
  5
36
100
AcDbSymbolTableRecord
100
AcDbLinetypeTableRecord
  2
DASHEDX2
 70
0
  3
Dashed (2x) ____  ____  ____  ____  ____  ___
 72
65
 73
2
 40
38.1000000000000014
 49
25.3999999999999986
 74
0
 49
-12.6999999999999993
 74
0
  0
LTYPE
  5
37
100
AcDbSymbolTableRecord
100
AcDbLinetypeTableRecord
  2
DASHDOT
 70
0
  3
Dash dot __ . __ . __ . __ . __ . __ . __ . __
 72
65
 73
4
 40
25.3999999999999986
 49
12.6999999999999993
 74
0
 49
-6.3499999999999996
 74
0
 49
0.0
 74
0
 49
-6.3499999999999996
 74
0
  0
LTYPE
  5
38
100
AcDbSymbolTableRecord
100
AcDbLinetypeTableRecord
  2
DASHDOT2
 70
0
  3
Dash dot (.5x) _._._._._._._._._._._._._._._.
 72
65
 73
4
 40
12.6999999999999993
 49
6.3499999999999996
 74
0
 49
-3.1749999999999998
 74
0
 49
0.0
 74
0
 49
-3.1749999999999998
 74
0
  0
LTYPE
  5
39
100
AcDbSymbolTableRecord
100
AcDbLinetypeTableRecord
  2
DASHDOTX2
 70
0
  3
Dash dot (2x) ____  .  ____  .  ____  .  ___
 72
65
 73
4
 40
50.7999999999999972
 49
25.3999999999999986
 74
0
 49
-12.6999999999999993
 74
0
 49
0.0
 74
0
 49
-12.6999999999999993
 74
0
  0
LTYPE
  5
3A
100
AcDbSymbolTableRecord
100
AcDbLinetypeTableRecord
  2
DIVIDE
 70
0
  3
Divide ____ . . ____ . . ____ . . ____ . . ____
 72
65
 73
6
 40
31.75
 49
12.6999999999999993
 74
0
 49
-6.3499999999999996
 74
0
 49
0.0
 74
0
 49
-6.3499999999999996
 74
0
 49
0.0
 74
0
 49
-6.3499999999999996
 74
0
  0
LTYPE
  5
3B
100
AcDbSymbolTableRecord
100
AcDbLinetypeTableRecord
  2
DIVIDE2
 70
0
  3
Divide (.5x) __..__..__..__..__..__..__..__.._
 72
65
 73
6
 40
15.875
 49
6.3499999999999996
 74
0
 49
-3.1749999999999998
 74
0
 49
0.0
 74
0
 49
-3.1749999999999998
 74
0
 49
0.0
 74
0
 49
-3.1749999999999998
 74
0
  0
LTYPE
  5
3C
100
AcDbSymbolTableRecord
100
AcDbLinetypeTableRecord
  2
DIVIDEX2
 70
0
  3
Divide (2x) ________  .  .  ________  .  .  _
 72
65
 73
6
 40
63.5
 49
25.3999999999999986
 74
0
 49
-12.6999999999999993
 74
0
 49
0.0
 74
0
 49
-12.6999999999999993
 74
0
 49
0.0
 74
0
 49
-12.6999999999999993
 74
0
  0
LTYPE
  5
3D
100
AcDbSymbolTableRecord
100
AcDbLinetypeTableRecord
  2
CENTER
 70
0
  3
Center ____ _ ____ _ ____ _ ____ _ ____ _ ____
 72
65
 73
4
 40
50.7999999999999972
 49
31.75
 74
0
 49
-6.3499999999999996
 74
0
 49
6.3499999999999996
 74
0
 49
-6.3499999999999996
 74
0
  0
LTYPE
  5
3E
100
AcDbSymbolTableRecord
100
AcDbLinetypeTableRecord
  2
CENTER2
 70
0
  3
Center (.5x) ___ _ ___ _ ___ _ ___ _ ___ _ ___
 72
65
 73
4
 40
28.5749999999999993
 49
19.0500000000000007
 74
0
 49
-3.1749999999999998
 74
0
 49
3.1749999999999998
 74
0
 49
-3.1749999999999998
 74
0
  0
LTYPE
  5
3F
100
AcDbSymbolTableRecord
100
AcDbLinetypeTableRecord
  2
CENTERX2
 70
0
  3
Center (2x) ________  __  ________  __  _____
 72
65
 73
4
 40
101.5999999999999943
 49
63.5
 74
0
 49
-12.6999999999999993
 74
0
 49
12.6999999999999993
 74
0
 49
-12.6999999999999993
 74
0
  0
LTYPE
  5
40
100
AcDbSymbolTableRecord
100
AcDbLinetypeTableRecord
  2
BORDER
 70
0
  3
Border __ __ . __ __ . __ __ . __ __ . __ __ .
 72
65
 73
6
 40
44.4500000000000028
 49
12.6999999999999993
 74
0
 49
-6.3499999999999996
 74
0
 49
12.6999999999999993
 74
0
 49
-6.3499999999999996
 74
0
 49
0.0
 74
0
 49
-6.3499999999999996
 74
0
  0
LTYPE
  5
41
100
AcDbSymbolTableRecord
100
AcDbLinetypeTableRecord
  2
BORDER2
 70
0
  3
Border (.5x) __.__.__.__.__.__.__.__.__.__.__.
 72
65
 73
6
 40
22.2250000000000014
 49
6.3499999999999996
 74
0
 49
-3.1749999999999998
 74
0
 49
6.3499999999999996
 74
0
 49
-3.1749999999999998
 74
0
 49
0.0
 74
0
 49
-3.1749999999999998
 74
0
  0
LTYPE
  5
42
100
AcDbSymbolTableRecord
100
AcDbLinetypeTableRecord
  2
BORDERX2
 70
0
  3
Border (2x) ____  ____  .  ____  ____  .  ___
 72
65
 73
6
 40
88.9000000000000057
 49
25.3999999999999986
 74
0
 49
-12.6999999999999993
 74
0
 49
25.3999999999999986
 74
0
 49
-12.6999999999999993
 74
0
 49
0.0
 74
0
 49
-12.6999999999999993
 74
0
  0
ENDTAB
  0
TABLE
  2
LAYER
  5
2
100
AcDbSymbolTable
 70
5
  0
LAYER
  5
10
100
AcDbSymbolTableRecord
100
AcDbLayerTableRecord
  2
0
 70
0
 62
7
  6
CONTINUOUS
370
0
390
F
  0
LAYER
  5
43
100
AcDbSymbolTableRecord
100
AcDbLayerTableRecord
  2
Otwor
 70
0
 62
7
  6
CONTINUOUS
370
18
390
F
  0
LAYER
  5
44
100
AcDbSymbolTableRecord
100
AcDbLayerTableRecord
  2
Otwor wym.
 70
1
 62
1
  6
CONTINUOUS
370
0
390
F
  0
LAYER
  5
45
100
AcDbSymbolTableRecord
100
AcDbLayerTableRecord
  2
Krazyna wym.
 70
1
 62
1
  6
CONTINUOUS
370
0
390
F
  0
LAYER
  5
46
100
AcDbSymbolTableRecord
100
AcDbLayerTableRecord
  2
Krazyna
 70
1
 62
5
  6
CONTINUOUS
370
0
390
F
  0
ENDTAB
  0
TABLE
  2
STYLE
  5
3
100
AcDbSymbolTable
 70
1
  0
STYLE
  5
11
100
AcDbSymbolTableRecord
100
AcDbTextStyleTableRecord
  2
Standard
 70
0
 40
0.0
 41
0.75
 50
0.0
 71
0
 42
2.5
  3
txt
  4

  0
ENDTAB
  0
TABLE
  2
VIEW
  5
6
100
AcDbSymbolTable
 70
0
  0
ENDTAB
  0
TABLE
  2
UCS
  5
7
100
AcDbSymbolTable
 70
0
  0
ENDTAB
  0
TABLE
  2
APPID
  5
9
100
AcDbSymbolTable
 70
1
  0
APPID
  5
12
100
AcDbSymbolTableRecord
100
AcDbRegAppTableRecord
  2
ACAD
 70
0
  0
ENDTAB
  0
TABLE
  2
DIMSTYLE
  5
A
100
AcDbSymbolTable
 70
1
100
AcDbDimStyleTable
 71
0
  0
DIMSTYLE
105
27
100
AcDbSymbolTableRecord
100
AcDbDimStyleTableRecord
  2
Standard
 41
2.5
 42
0.625
 43
3.75
 44
1.25
 70
0
 73
0
 74
0
 77
1
 78
8
140
2.5
141
2.5
143
0.03937007874016
147
0.625
171
3
172
1
271
2
272
2
274
3
278
44
283
0
284
8
340
11
  0
ENDTAB
  0
TABLE
  2
BLOCK_RECORD
  5
1
100
AcDbSymbolTable
 70
1
  0
BLOCK_RECORD
  5
1F
100
AcDbSymbolTableRecord
100
AcDbBlockTableRecord
  2
*Model_Space
340
22
  0
BLOCK_RECORD
  5
1B
100
AcDbSymbolTableRecord
100
AcDbBlockTableRecord
  2
*Paper_Space
340
1E
  0
BLOCK_RECORD
  5
23
100
AcDbSymbolTableRecord
100
AcDbBlockTableRecord
  2
*Paper_Space0
340
26
  0
ENDTAB
  0
ENDSEC
  0
SECTION
  2
BLOCKS
  0
BLOCK
  5
20
100
AcDbEntity
  8
0
100
AcDbBlockBegin
  2
*Model_Space
 70
0
 10
0.0
 20
0.0
 30
0.0
  3
*Model_Space
  1

  0
ENDBLK
  5
21
100
AcDbEntity
  8
0
100
AcDbBlockEnd
  0
BLOCK
  5
1C
100
AcDbEntity
 67
1
  8
0
100
AcDbBlockBegin
  2
*Paper_Space
 70
0
 10
0.0
 20
0.0
 30
0.0
  3
*Paper_Space
  1

  0
ENDBLK
  5
1D
100
AcDbEntity
 67
1
  8
0
100
AcDbBlockEnd
  0
BLOCK
  5
24
100
AcDbEntity
  8
0
100
AcDbBlockBegin
  2
*Paper_Space0
 70
0
 10
0.0
 20
0.0
 30
0.0
  3
*Paper_Space0
  1

  0
ENDBLK
  5
25
100
AcDbEntity
  8
0
100
AcDbBlockEnd
  0
ENDSEC
  0
SECTION
  2
ENTITIES
  0
LINE
  5
47
100
AcDbEntity
100
AcDbLine
  8
Otwor
 62
256
370
-1
  6
ByLayer
 10
-11.9999999999999929
 20
113.25
 30
0.0
 11
-4.509134131849061
 21
113.25
 31
0.0
  0
LINE
  5
48
100
AcDbEntity
100
AcDbLine
  8
Otwor
 62
256
370
-1
  6
ByLayer
 10
-11.9999999999999929
 20
106.75
 30
0.0
 11
-11.9999999999999929
 21
113.25
 31
0.0
  0
LINE
  5
49
100
AcDbEntity
100
AcDbLine
  8
Otwor
 62
256
370
-1
  6
ByLayer
 10
0.0000000000000067
 20
110.0
 30
0.0
 11
-4.509134131849061
 21
113.25
 31
0.0
  0
LINE
  5
4A
100
AcDbEntity
100
AcDbLine
  8
Otwor
 62
256
370
-1
  6
ByLayer
 10
-13.1999999999999922
 20
106.75
 30
0.0
 11
-13.1999999999999922
 21
113.25
 31
0.0
  0
LINE
  5
4B
100
AcDbEntity
100
AcDbLine
  8
Otwor
 62
256
370
-1
  6
ByLayer
 10
-25.1999999999999922
 20
106.75
 30
0.0
 11
-25.1999999999999922
 21
113.25
 31
0.0
  0
LINE
  5
4C
100
AcDbEntity
100
AcDbLine
  8
Otwor
 62
256
370
-1
  6
ByLayer
 10
-26.3999999999999915
 20
106.75
 30
0.0
 11
-26.3999999999999915
 21
113.25
 31
0.0
  0
LINE
  5
4D
100
AcDbEntity
100
AcDbLine
  8
Otwor
 62
256
370
-1
  6
ByLayer
 10
-38.3999999999999915
 20
106.75
 30
0.0
 11
-38.3999999999999915
 21
113.25
 31
0.0
  0
LINE
  5
4E
100
AcDbEntity
100
AcDbLine
  8
Otwor
 62
256
370
-1
  6
ByLayer
 10
-38.3999999999999915
 20
106.75
 30
0.0
 11
-26.3999999999999915
 21
106.75
 31
0.0
  0
LINE
  5
4F
100
AcDbEntity
100
AcDbLine
  8
Otwor
 62
256
370
-1
  6
ByLayer
 10
-25.1999999999999922
 20
106.75
 30
0.0
 11
-13.1999999999999922
 21
106.75
 31
0.0
  0
LINE
  5
50
100
AcDbEntity
100
AcDbLine
  8
Otwor
 62
256
370
-1
  6
ByLayer
 10
-13.1999999999999922
 20
113.25
 30
0.0
 11
-25.1999999999999922
 21
113.25
 31
0.0
  0
LINE
  5
51
100
AcDbEntity
100
AcDbLine
  8
Otwor
 62
256
370
-1
  6
ByLayer
 10
-26.3999999999999915
 20
113.25
 30
0.0
 11
-38.3999999999999915
 21
113.25
 31
0.0
  0
LINE
  5
52
100
AcDbEntity
100
AcDbLine
  8
Otwor
 62
256
370
-1
  6
ByLayer
 10
-19.7999999999999936
 20
114.4500000000000028
 30
0.0
 11
-19.7999999999999936
 21
120.9500000000000028
 31
0.0
  0
LINE
  5
53
100
AcDbEntity
100
AcDbLine
  8
Otwor
 62
256
370
-1
  6
ByLayer
 10
-18.5999999999999908
 20
114.4500000000000028
 30
0.0
 11
-18.5999999999999908
 21
120.9500000000000028
 31
0.0
  0
LINE
  5
54
100
AcDbEntity
100
AcDbLine
  8
Otwor
 62
256
370
-1
  6
ByLayer
 10
-44.7999999999999972
 20
114.4500000000000028
 30
0.0
 11
-44.7999999999999972
 21
120.9500000000000028
 31
0.0
  0
LINE
  5
55
100
AcDbEntity
100
AcDbLine
  8
Otwor
 62
256
370
-1
  6
ByLayer
 10
-44.7999999999999972
 20
120.9500000000000028
 30
0.0
 11
-19.7999999999999936
 21
120.9500000000000028
 31
0.0
  0
LINE
  5
56
100
AcDbEntity
100
AcDbLine
  8
Otwor
 62
256
370
-1
  6
ByLayer
 10
-19.7999999999999936
 20
114.4500000000000028
 30
0.0
 11
-44.7999999999999972
 21
114.4500000000000028
 31
0.0
  0
LINE
  5
57
100
AcDbEntity
100
AcDbLine
  8
Otwor
 62
256
370
-1
  6
ByLayer
 10
-18.5999999999999908
 20
120.9500000000000028
 30
0.0
 11
-7.4232770192873563
 21
120.9500000000000028
 31
0.0
  0
LINE
  5
58
100
AcDbEntity
100
AcDbLine
  8
Otwor
 62
256
370
-1
  6
ByLayer
 10
-5.2917203560216315
 20
114.4500000000000028
 30
0.0
 11
-7.4232770192873563
 21
120.9500000000000028
 31
0.0
  0
LINE
  5
59
100
AcDbEntity
100
AcDbLine
  8
Otwor
 62
256
370
-1
  6
ByLayer
 10
-18.5999999999999908
 20
114.4500000000000028
 30
0.0
 11
-5.2917203560216315
 21
114.4500000000000028
 31
0.0
  0
LINE
  5
5A
100
AcDbEntity
100
AcDbLine
  8
Otwor
 62
256
370
-1
  6
ByLayer
 10
-38.3999999999999915
 20
122.1500000000000057
 30
0.0
 11
-26.3999999999999915
 21
122.1500000000000057
 31
0.0
  0
LINE
  5
5B
100
AcDbEntity
100
AcDbLine
  8
Otwor
 62
256
370
-1
  6
ByLayer
 10
-25.1999999999999922
 20
122.1500000000000057
 30
0.0
 11
-13.1999999999999922
 21
122.1500000000000057
 31
0.0
  0
LINE
  5
5C
100
AcDbEntity
100
AcDbLine
  8
Otwor
 62
256
370
-1
  6
ByLayer
 10
-38.3999999999999915
 20
122.1500000000000057
 30
0.0
 11
-38.3999999999999915
 21
128.6500000000000057
 31
0.0
  0
LINE
  5
5D
100
AcDbEntity
100
AcDbLine
  8
Otwor
 62
256
370
-1
  6
ByLayer
 10
-38.3999999999999915
 20
128.6500000000000057
 30
0.0
 11
-26.3999999999999915
 21
128.6500000000000057
 31
0.0
  0
LINE
  5
5E
100
AcDbEntity
100
AcDbLine
  8
Otwor
 62
256
370
-1
  6
ByLayer
 10
-26.3999999999999915
 20
122.1500000000000057
 30
0.0
 11
-26.3999999999999915
 21
128.6500000000000057
 31
0.0
  0
LINE
  5
5F
100
AcDbEntity
100
AcDbLine
  8
Otwor
 62
256
370
-1
  6
ByLayer
 10
-25.1999999999999922
 20
122.1500000000000057
 30
0.0
 11
-25.1999999999999922
 21
128.6500000000000057
 31
0.0
  0
LINE
  5
60
100
AcDbEntity
100
AcDbLine
  8
Otwor
 62
256
370
-1
  6
ByLayer
 10
-13.1999999999999922
 20
122.1500000000000057
 30
0.0
 11
-13.1999999999999922
 21
128.6500000000000057
 31
0.0
  0
LINE
  5
61
100
AcDbEntity
100
AcDbLine
  8
Otwor
 62
256
370
-1
  6
ByLayer
 10
-31.7999999999999901
 20
129.8499999999999943
 30
0.0
 11
-31.7999999999999901
 21
136.3499999999999943
 31
0.0
  0
LINE
  5
62
100
AcDbEntity
100
AcDbLine
  8
Otwor
 62
256
370
-1
  6
ByLayer
 10
-57.9999999999999929
 20
129.8499999999999943
 30
0.0
 11
-57.9999999999999929
 21
136.3499999999999943
 31
0.0
  0
LINE
  5
63
100
AcDbEntity
100
AcDbLine
  8
Otwor
 62
256
370
-1
  6
ByLayer
 10
-57.9999999999999929
 20
129.8499999999999943
 30
0.0
 11
-32.9999999999999929
 21
129.8499999999999943
 31
0.0
  0
LINE
  5
64
100
AcDbEntity
100
AcDbLine
  8
Otwor
 62
256
370
-1
  6
ByLayer
 10
-57.9999999999999929
 20
136.3499999999999943
 30
0.0
 11
-32.9999999999999929
 21
136.3499999999999943
 31
0.0
  0
LINE
  5
65
100
AcDbEntity
100
AcDbLine
  8
Otwor
 62
256
370
-1
  6
ByLayer
 10
-32.9999999999999929
 20
129.8499999999999943
 30
0.0
 11
-32.9999999999999929
 21
136.3499999999999943
 31
0.0
  0
LINE
  5
66
100
AcDbEntity
100
AcDbLine
  8
Otwor
 62
256
370
-1
  6
ByLayer
 10
-11.9999999999999929
 20
128.6500000000000057
 30
0.0
 11
-9.7577379970636677
 21
128.6500000000000057
 31
0.0
  0
LINE
  5
67
100
AcDbEntity
100
AcDbLine
  8
Otwor
 62
256
370
-1
  6
ByLayer
 10
-11.9999999999999929
 20
122.1500000000000057
 30
0.0
 11
-11.9999999999999929
 21
128.6500000000000057
 31
0.0
  0
LINE
  5
68
100
AcDbEntity
100
AcDbLine
  8
Otwor
 62
256
370
-1
  6
ByLayer
 10
-25.1999999999999922
 20
128.6500000000000057
 30
0.0
 11
-13.1999999999999922
 21
128.6500000000000057
 31
0.0
  0
LINE
  5
69
100
AcDbEntity
100
AcDbLine
  8
Otwor
 62
256
370
-1
  6
ByLayer
 10
-11.9999999999999929
 20
122.1500000000000057
 30
0.0
 11
-7.6331601988610354
 21
122.1500000000000057
 31
0.0
  0
LINE
  5
6A
100
AcDbEntity
100
AcDbLine
  8
Otwor
 62
256
370
-1
  6
ByLayer
 10
-9.7577379970636677
 20
128.6500000000000057
 30
0.0
 11
-7.6331601988610354
 21
122.1500000000000057
 31
0.0
  0
LINE
  5
6B
100
AcDbEntity
100
AcDbLine
  8
Otwor
 62
256
370
-1
  6
ByLayer
 10
-31.7999999999999901
 20
136.3499999999999943
 30
0.0
 11
-12.2745455426267807
 21
136.3499999999999943
 31
0.0
  0
LINE
  5
6C
100
AcDbEntity
100
AcDbLine
  8
Otwor
 62
256
370
-1
  6
ByLayer
 10
-12.2745455426267807
 20
136.3499999999999943
 30
0.0
 11
-10.1499677444241492
 21
129.8499999999999943
 31
0.0
  0
LINE
  5
6D
100
AcDbEntity
100
AcDbLine
  8
Otwor
 62
256
370
-1
  6
ByLayer
 10
-31.7999999999999901
 20
129.8499999999999943
 30
0.0
 11
-10.1499677444241492
 21
129.8499999999999943
 31
0.0
  0
LINE
  5
6E
100
AcDbEntity
100
AcDbLine
  8
Otwor
 62
256
370
-1
  6
ByLayer
 10
-18.5999999999999908
 20
99.0499999999999972
 30
0.0
 11
0.0000000000000051
 21
99.0499999999999972
 31
0.0
  0
LINE
  5
6F
100
AcDbEntity
100
AcDbLine
  8
Otwor
 62
256
370
-1
  6
ByLayer
 10
-18.5999999999999908
 20
99.0499999999999972
 30
0.0
 11
-18.5999999999999908
 21
105.5499999999999972
 31
0.0
  0
LINE
  5
70
100
AcDbEntity
100
AcDbLine
  8
Otwor
 62
256
370
-1
  6
ByLayer
 10
-18.5999999999999908
 20
105.5499999999999972
 30
0.0
 11
0.0000000000000063
 21
105.5499999999999972
 31
0.0
  0
LINE
  5
71
100
AcDbEntity
100
AcDbLine
  8
Otwor
 62
256
370
-1
  6
ByLayer
 10
-19.7999999999999936
 20
99.0499999999999972
 30
0.0
 11
-19.7999999999999936
 21
105.5499999999999972
 31
0.0
  0
LINE
  5
72
100
AcDbEntity
100
AcDbLine
  8
Otwor
 62
256
370
-1
  6
ByLayer
 10
-32.9999999999999929
 20
99.0499999999999972
 30
0.0
 11
-32.9999999999999929
 21
105.5499999999999972
 31
0.0
  0
LINE
  5
73
100
AcDbEntity
100
AcDbLine
  8
Otwor
 62
256
370
-1
  6
ByLayer
 10
-31.7999999999999901
 20
99.0499999999999972
 30
0.0
 11
-19.7999999999999936
 21
99.0499999999999972
 31
0.0
  0
LINE
  5
74
100
AcDbEntity
100
AcDbLine
  8
Otwor
 62
256
370
-1
  6
ByLayer
 10
-31.7999999999999901
 20
99.0499999999999972
 30
0.0
 11
-31.7999999999999901
 21
105.5499999999999972
 31
0.0
  0
LINE
  5
75
100
AcDbEntity
100
AcDbLine
  8
Otwor
 62
256
370
-1
  6
ByLayer
 10
-31.7999999999999901
 20
105.5499999999999972
 30
0.0
 11
-19.7999999999999936
 21
105.5499999999999972
 31
0.0
  0
LINE
  5
76
100
AcDbEntity
100
AcDbLine
  8
Otwor
 62
256
370
-1
  6
ByLayer
 10
-57.9999999999999929
 20
105.5499999999999972
 30
0.0
 11
-32.9999999999999929
 21
105.5499999999999972
 31
0.0
  0
LINE
  5
77
100
AcDbEntity
100
AcDbLine
  8
Otwor
 62
256
370
-1
  6
ByLayer
 10
-57.9999999999999929
 20
99.0499999999999972
 30
0.0
 11
-32.9999999999999929
 21
99.0499999999999972
 31
0.0
  0
LINE
  5
78
100
AcDbEntity
100
AcDbLine
  8
Otwor
 62
256
370
-1
  6
ByLayer
 10
-57.9999999999999929
 20
105.5499999999999972
 30
0.0
 11
-57.9999999999999929
 21
99.0499999999999972
 31
0.0
  0
LINE
  5
79
100
AcDbEntity
100
AcDbLine
  8
Otwor
 62
256
370
-1
  6
ByLayer
 10
-51.5999999999999943
 20
122.1500000000000057
 30
0.0
 11
-39.5999999999999943
 21
122.1500000000000057
 31
0.0
  0
LINE
  5
7A
100
AcDbEntity
100
AcDbLine
  8
Otwor
 62
256
370
-1
  6
ByLayer
 10
-51.5999999999999943
 20
122.1500000000000057
 30
0.0
 11
-51.5999999999999943
 21
128.6500000000000057
 31
0.0
  0
LINE
  5
7B
100
AcDbEntity
100
AcDbLine
  8
Otwor
 62
256
370
-1
  6
ByLayer
 10
-51.5999999999999943
 20
128.6500000000000057
 30
0.0
 11
-39.5999999999999943
 21
128.6500000000000057
 31
0.0
  0
LINE
  5
7C
100
AcDbEntity
100
AcDbLine
  8
Otwor
 62
256
370
-1
  6
ByLayer
 10
-39.5999999999999943
 20
122.1500000000000057
 30
0.0
 11
-39.5999999999999943
 21
128.6500000000000057
 31
0.0
  0
LINE
  5
7D
100
AcDbEntity
100
AcDbLine
  8
Otwor
 62
256
370
-1
  6
ByLayer
 10
-39.5999999999999943
 20
106.75
 30
0.0
 11
-39.5999999999999943
 21
113.25
 31
0.0
  0
LINE
  5
7E
100
AcDbEntity
100
AcDbLine
  8
Otwor
 62
256
370
-1
  6
ByLayer
 10
-51.5999999999999943
 20
106.75
 30
0.0
 11
-51.5999999999999943
 21
113.25
 31
0.0
  0
LINE
  5
7F
100
AcDbEntity
100
AcDbLine
  8
Otwor
 62
256
370
-1
  6
ByLayer
 10
-51.5999999999999943
 20
106.75
 30
0.0
 11
-39.5999999999999943
 21
106.75
 31
0.0
  0
LINE
  5
80
100
AcDbEntity
100
AcDbLine
  8
Otwor
 62
256
370
-1
  6
ByLayer
 10
-39.5999999999999943
 20
113.25
 30
0.0
 11
-51.5999999999999943
 21
113.25
 31
0.0
  0
LINE
  5
81
100
AcDbEntity
100
AcDbLine
  8
Otwor
 62
256
370
-1
  6
ByLayer
 10
-11.9999999999999929
 20
106.75
 30
0.0
 11
0.0000000000000065
 21
106.75
 31
0.0
  0
LINE
  5
82
100
AcDbEntity
100
AcDbLine
  8
Otwor
 62
256
370
-1
  6
ByLayer
 10
0.0000000000000063
 20
105.5499999999999972
 30
0.0
 11
0.0000000000000051
 21
99.0499999999999972
 31
0.0
  0
LINE
  5
83
100
AcDbEntity
100
AcDbLine
  8
Otwor
 62
256
370
-1
  6
ByLayer
 10
-18.5999999999999908
 20
68.25
 30
0.0
 11
0.0000000000000051
 21
68.25
 31
0.0
  0
LINE
  5
84
100
AcDbEntity
100
AcDbLine
  8
Otwor
 62
256
370
-1
  6
ByLayer
 10
-18.5999999999999908
 20
68.25
 30
0.0
 11
-18.5999999999999908
 21
74.75
 31
0.0
  0
LINE
  5
85
100
AcDbEntity
100
AcDbLine
  8
Otwor
 62
256
370
-1
  6
ByLayer
 10
-18.5999999999999908
 20
74.75
 30
0.0
 11
0.0000000000000063
 21
74.75
 31
0.0
  0
LINE
  5
86
100
AcDbEntity
100
AcDbLine
  8
Otwor
 62
256
370
-1
  6
ByLayer
 10
-19.7999999999999936
 20
68.25
 30
0.0
 11
-19.7999999999999936
 21
74.75
 31
0.0
  0
LINE
  5
87
100
AcDbEntity
100
AcDbLine
  8
Otwor
 62
256
370
-1
  6
ByLayer
 10
-32.9999999999999929
 20
68.25
 30
0.0
 11
-32.9999999999999929
 21
74.75
 31
0.0
  0
LINE
  5
88
100
AcDbEntity
100
AcDbLine
  8
Otwor
 62
256
370
-1
  6
ByLayer
 10
-31.7999999999999901
 20
68.25
 30
0.0
 11
-19.7999999999999936
 21
68.25
 31
0.0
  0
LINE
  5
89
100
AcDbEntity
100
AcDbLine
  8
Otwor
 62
256
370
-1
  6
ByLayer
 10
-31.7999999999999901
 20
68.25
 30
0.0
 11
-31.7999999999999901
 21
74.75
 31
0.0
  0
LINE
  5
8A
100
AcDbEntity
100
AcDbLine
  8
Otwor
 62
256
370
-1
  6
ByLayer
 10
-31.7999999999999901
 20
74.75
 30
0.0
 11
-19.7999999999999936
 21
74.75
 31
0.0
  0
LINE
  5
8B
100
AcDbEntity
100
AcDbLine
  8
Otwor
 62
256
370
-1
  6
ByLayer
 10
-57.9999999999999929
 20
74.75
 30
0.0
 11
-32.9999999999999929
 21
74.75
 31
0.0
  0
LINE
  5
8C
100
AcDbEntity
100
AcDbLine
  8
Otwor
 62
256
370
-1
  6
ByLayer
 10
-57.9999999999999929
 20
68.25
 30
0.0
 11
-32.9999999999999929
 21
68.25
 31
0.0
  0
LINE
  5
8D
100
AcDbEntity
100
AcDbLine
  8
Otwor
 62
256
370
-1
  6
ByLayer
 10
-57.9999999999999929
 20
74.75
 30
0.0
 11
-57.9999999999999929
 21
68.25
 31
0.0
  0
LINE
  5
8E
100
AcDbEntity
100
AcDbLine
  8
Otwor
 62
256
370
-1
  6
ByLayer
 10
0.0000000000000063
 20
74.75
 30
0.0
 11
0.0000000000000051
 21
68.25
 31
0.0
  0
LINE
  5
8F
100
AcDbEntity
100
AcDbLine
  8
Otwor
 62
256
370
-1
  6
ByLayer
 10
-18.5999999999999908
 20
37.4500000000000028
 30
0.0
 11
0.0000000000000051
 21
37.4500000000000028
 31
0.0
  0
LINE
  5
90
100
AcDbEntity
100
AcDbLine
  8
Otwor
 62
256
370
-1
  6
ByLayer
 10
-18.5999999999999908
 20
37.4500000000000028
 30
0.0
 11
-18.5999999999999908
 21
43.9500000000000028
 31
0.0
  0
LINE
  5
91
100
AcDbEntity
100
AcDbLine
  8
Otwor
 62
256
370
-1
  6
ByLayer
 10
-18.5999999999999908
 20
43.9500000000000028
 30
0.0
 11
0.0000000000000063
 21
43.9500000000000028
 31
0.0
  0
LINE
  5
92
100
AcDbEntity
100
AcDbLine
  8
Otwor
 62
256
370
-1
  6
ByLayer
 10
-19.7999999999999936
 20
37.4500000000000028
 30
0.0
 11
-19.7999999999999936
 21
43.9500000000000028
 31
0.0
  0
LINE
  5
93
100
AcDbEntity
100
AcDbLine
  8
Otwor
 62
256
370
-1
  6
ByLayer
 10
-32.9999999999999929
 20
37.4500000000000028
 30
0.0
 11
-32.9999999999999929
 21
43.9500000000000028
 31
0.0
  0
LINE
  5
94
100
AcDbEntity
100
AcDbLine
  8
Otwor
 62
256
370
-1
  6
ByLayer
 10
-31.7999999999999901
 20
37.4500000000000028
 30
0.0
 11
-19.7999999999999936
 21
37.4500000000000028
 31
0.0
  0
LINE
  5
95
100
AcDbEntity
100
AcDbLine
  8
Otwor
 62
256
370
-1
  6
ByLayer
 10
-31.7999999999999901
 20
37.4500000000000028
 30
0.0
 11
-31.7999999999999901
 21
43.9500000000000028
 31
0.0
  0
LINE
  5
96
100
AcDbEntity
100
AcDbLine
  8
Otwor
 62
256
370
-1
  6
ByLayer
 10
-31.7999999999999901
 20
43.9500000000000028
 30
0.0
 11
-19.7999999999999936
 21
43.9500000000000028
 31
0.0
  0
LINE
  5
97
100
AcDbEntity
100
AcDbLine
  8
Otwor
 62
256
370
-1
  6
ByLayer
 10
-57.9999999999999929
 20
43.9500000000000028
 30
0.0
 11
-32.9999999999999929
 21
43.9500000000000028
 31
0.0
  0
LINE
  5
98
100
AcDbEntity
100
AcDbLine
  8
Otwor
 62
256
370
-1
  6
ByLayer
 10
-57.9999999999999929
 20
37.4500000000000028
 30
0.0
 11
-32.9999999999999929
 21
37.4500000000000028
 31
0.0
  0
LINE
  5
99
100
AcDbEntity
100
AcDbLine
  8
Otwor
 62
256
370
-1
  6
ByLayer
 10
-57.9999999999999929
 20
43.9500000000000028
 30
0.0
 11
-57.9999999999999929
 21
37.4500000000000028
 31
0.0
  0
LINE
  5
9A
100
AcDbEntity
100
AcDbLine
  8
Otwor
 62
256
370
-1
  6
ByLayer
 10
0.0000000000000063
 20
43.9500000000000028
 30
0.0
 11
0.0000000000000051
 21
37.4500000000000028
 31
0.0
  0
LINE
  5
9B
100
AcDbEntity
100
AcDbLine
  8
Otwor
 62
256
370
-1
  6
ByLayer
 10
-18.5999999999999908
 20
6.6500000000000057
 30
0.0
 11
0.0000000000000051
 21
6.6500000000000057
 31
0.0
  0
LINE
  5
9C
100
AcDbEntity
100
AcDbLine
  8
Otwor
 62
256
370
-1
  6
ByLayer
 10
-18.5999999999999908
 20
6.6500000000000057
 30
0.0
 11
-18.5999999999999908
 21
13.1500000000000057
 31
0.0
  0
LINE
  5
9D
100
AcDbEntity
100
AcDbLine
  8
Otwor
 62
256
370
-1
  6
ByLayer
 10
-18.5999999999999908
 20
13.1500000000000057
 30
0.0
 11
0.0000000000000063
 21
13.1500000000000057
 31
0.0
  0
LINE
  5
9E
100
AcDbEntity
100
AcDbLine
  8
Otwor
 62
256
370
-1
  6
ByLayer
 10
-19.7999999999999936
 20
6.6500000000000057
 30
0.0
 11
-19.7999999999999936
 21
13.1500000000000057
 31
0.0
  0
LINE
  5
9F
100
AcDbEntity
100
AcDbLine
  8
Otwor
 62
256
370
-1
  6
ByLayer
 10
-32.9999999999999929
 20
6.6500000000000057
 30
0.0
 11
-32.9999999999999929
 21
13.1500000000000057
 31
0.0
  0
LINE
  5
A0
100
AcDbEntity
100
AcDbLine
  8
Otwor
 62
256
370
-1
  6
ByLayer
 10
-31.7999999999999901
 20
6.6500000000000057
 30
0.0
 11
-19.7999999999999936
 21
6.6500000000000057
 31
0.0
  0
LINE
  5
A1
100
AcDbEntity
100
AcDbLine
  8
Otwor
 62
256
370
-1
  6
ByLayer
 10
-31.7999999999999901
 20
6.6500000000000057
 30
0.0
 11
-31.7999999999999901
 21
13.1500000000000057
 31
0.0
  0
LINE
  5
A2
100
AcDbEntity
100
AcDbLine
  8
Otwor
 62
256
370
-1
  6
ByLayer
 10
-31.7999999999999901
 20
13.1500000000000057
 30
0.0
 11
-19.7999999999999936
 21
13.1500000000000057
 31
0.0
  0
LINE
  5
A3
100
AcDbEntity
100
AcDbLine
  8
Otwor
 62
256
370
-1
  6
ByLayer
 10
-57.9999999999999929
 20
13.1500000000000057
 30
0.0
 11
-32.9999999999999929
 21
13.1500000000000057
 31
0.0
  0
LINE
  5
A4
100
AcDbEntity
100
AcDbLine
  8
Otwor
 62
256
370
-1
  6
ByLayer
 10
-57.9999999999999929
 20
6.6500000000000057
 30
0.0
 11
-32.9999999999999929
 21
6.6500000000000057
 31
0.0
  0
LINE
  5
A5
100
AcDbEntity
100
AcDbLine
  8
Otwor
 62
256
370
-1
  6
ByLayer
 10
-57.9999999999999929
 20
13.1500000000000057
 30
0.0
 11
-57.9999999999999929
 21
6.6500000000000057
 31
0.0
  0
LINE
  5
A6
100
AcDbEntity
100
AcDbLine
  8
Otwor
 62
256
370
-1
  6
ByLayer
 10
0.0000000000000063
 20
13.1500000000000057
 30
0.0
 11
0.0000000000000051
 21
6.6500000000000057
 31
0.0
  0
LINE
  5
A7
100
AcDbEntity
100
AcDbLine
  8
Otwor
 62
256
370
-1
  6
ByLayer
 10
-18.5999999999999908
 20
-24.1499999999999915
 30
0.0
 11
0.0000000000000051
 21
-24.1499999999999915
 31
0.0
  0
LINE
  5
A8
100
AcDbEntity
100
AcDbLine
  8
Otwor
 62
256
370
-1
  6
ByLayer
 10
-18.5999999999999908
 20
-24.1499999999999915
 30
0.0
 11
-18.5999999999999908
 21
-17.6499999999999915
 31
0.0
  0
LINE
  5
A9
100
AcDbEntity
100
AcDbLine
  8
Otwor
 62
256
370
-1
  6
ByLayer
 10
-18.5999999999999908
 20
-17.6499999999999915
 30
0.0
 11
0.0000000000000063
 21
-17.6499999999999915
 31
0.0
  0
LINE
  5
AA
100
AcDbEntity
100
AcDbLine
  8
Otwor
 62
256
370
-1
  6
ByLayer
 10
-19.7999999999999936
 20
-24.1499999999999915
 30
0.0
 11
-19.7999999999999936
 21
-17.6499999999999915
 31
0.0
  0
LINE
  5
AB
100
AcDbEntity
100
AcDbLine
  8
Otwor
 62
256
370
-1
  6
ByLayer
 10
-32.9999999999999929
 20
-24.1499999999999915
 30
0.0
 11
-32.9999999999999929
 21
-17.6499999999999915
 31
0.0
  0
LINE
  5
AC
100
AcDbEntity
100
AcDbLine
  8
Otwor
 62
256
370
-1
  6
ByLayer
 10
-31.7999999999999901
 20
-24.1499999999999915
 30
0.0
 11
-19.7999999999999936
 21
-24.1499999999999915
 31
0.0
  0
LINE
  5
AD
100
AcDbEntity
100
AcDbLine
  8
Otwor
 62
256
370
-1
  6
ByLayer
 10
-31.7999999999999901
 20
-24.1499999999999915
 30
0.0
 11
-31.7999999999999901
 21
-17.6499999999999915
 31
0.0
  0
LINE
  5
AE
100
AcDbEntity
100
AcDbLine
  8
Otwor
 62
256
370
-1
  6
ByLayer
 10
-31.7999999999999901
 20
-17.6499999999999915
 30
0.0
 11
-19.7999999999999936
 21
-17.6499999999999915
 31
0.0
  0
LINE
  5
AF
100
AcDbEntity
100
AcDbLine
  8
Otwor
 62
256
370
-1
  6
ByLayer
 10
-57.9999999999999929
 20
-17.6499999999999915
 30
0.0
 11
-32.9999999999999929
 21
-17.6499999999999915
 31
0.0
  0
LINE
  5
B0
100
AcDbEntity
100
AcDbLine
  8
Otwor
 62
256
370
-1
  6
ByLayer
 10
-57.9999999999999929
 20
-24.1499999999999915
 30
0.0
 11
-32.9999999999999929
 21
-24.1499999999999915
 31
0.0
  0
LINE
  5
B1
100
AcDbEntity
100
AcDbLine
  8
Otwor
 62
256
370
-1
  6
ByLayer
 10
-57.9999999999999929
 20
-17.6499999999999915
 30
0.0
 11
-57.9999999999999929
 21
-24.1499999999999915
 31
0.0
  0
LINE
  5
B2
100
AcDbEntity
100
AcDbLine
  8
Otwor
 62
256
370
-1
  6
ByLayer
 10
0.0000000000000063
 20
-17.6499999999999915
 30
0.0
 11
0.0000000000000051
 21
-24.1499999999999915
 31
0.0
  0
LINE
  5
B3
100
AcDbEntity
100
AcDbLine
  8
Otwor
 62
256
370
-1
  6
ByLayer
 10
-11.9999999999999929
 20
91.3499999999999943
 30
0.0
 11
-11.9999999999999929
 21
97.8499999999999943
 31
0.0
  0
LINE
  5
B4
100
AcDbEntity
100
AcDbLine
  8
Otwor
 62
256
370
-1
  6
ByLayer
 10
-13.1999999999999922
 20
91.3499999999999943
 30
0.0
 11
-13.1999999999999922
 21
97.8499999999999943
 31
0.0
  0
LINE
  5
B5
100
AcDbEntity
100
AcDbLine
  8
Otwor
 62
256
370
-1
  6
ByLayer
 10
-25.1999999999999922
 20
91.3499999999999943
 30
0.0
 11
-25.1999999999999922
 21
97.8499999999999943
 31
0.0
  0
LINE
  5
B6
100
AcDbEntity
100
AcDbLine
  8
Otwor
 62
256
370
-1
  6
ByLayer
 10
-26.3999999999999915
 20
91.3499999999999943
 30
0.0
 11
-26.3999999999999915
 21
97.8499999999999943
 31
0.0
  0
LINE
  5
B7
100
AcDbEntity
100
AcDbLine
  8
Otwor
 62
256
370
-1
  6
ByLayer
 10
-38.3999999999999915
 20
91.3499999999999943
 30
0.0
 11
-38.3999999999999915
 21
97.8499999999999943
 31
0.0
  0
LINE
  5
B8
100
AcDbEntity
100
AcDbLine
  8
Otwor
 62
256
370
-1
  6
ByLayer
 10
-38.3999999999999915
 20
91.3499999999999943
 30
0.0
 11
-26.3999999999999915
 21
91.3499999999999943
 31
0.0
  0
LINE
  5
B9
100
AcDbEntity
100
AcDbLine
  8
Otwor
 62
256
370
-1
  6
ByLayer
 10
-25.1999999999999922
 20
91.3499999999999943
 30
0.0
 11
-13.1999999999999922
 21
91.3499999999999943
 31
0.0
  0
LINE
  5
BA
100
AcDbEntity
100
AcDbLine
  8
Otwor
 62
256
370
-1
  6
ByLayer
 10
-13.1999999999999922
 20
97.8499999999999943
 30
0.0
 11
-25.1999999999999922
 21
97.8499999999999943
 31
0.0
  0
LINE
  5
BB
100
AcDbEntity
100
AcDbLine
  8
Otwor
 62
256
370
-1
  6
ByLayer
 10
-26.3999999999999915
 20
97.8499999999999943
 30
0.0
 11
-38.3999999999999915
 21
97.8499999999999943
 31
0.0
  0
LINE
  5
BC
100
AcDbEntity
100
AcDbLine
  8
Otwor
 62
256
370
-1
  6
ByLayer
 10
-39.5999999999999943
 20
91.3499999999999943
 30
0.0
 11
-39.5999999999999943
 21
97.8499999999999943
 31
0.0
  0
LINE
  5
BD
100
AcDbEntity
100
AcDbLine
  8
Otwor
 62
256
370
-1
  6
ByLayer
 10
-51.5999999999999943
 20
91.3499999999999943
 30
0.0
 11
-51.5999999999999943
 21
97.8499999999999943
 31
0.0
  0
LINE
  5
BE
100
AcDbEntity
100
AcDbLine
  8
Otwor
 62
256
370
-1
  6
ByLayer
 10
-51.5999999999999943
 20
91.3499999999999943
 30
0.0
 11
-39.5999999999999943
 21
91.3499999999999943
 31
0.0
  0
LINE
  5
BF
100
AcDbEntity
100
AcDbLine
  8
Otwor
 62
256
370
-1
  6
ByLayer
 10
-39.5999999999999943
 20
97.8499999999999943
 30
0.0
 11
-51.5999999999999943
 21
97.8499999999999943
 31
0.0
  0
LINE
  5
C0
100
AcDbEntity
100
AcDbLine
  8
Otwor
 62
256
370
-1
  6
ByLayer
 10
-11.9999999999999929
 20
91.3499999999999943
 30
0.0
 11
0.0000000000000065
 21
91.3499999999999943
 31
0.0
  0
LINE
  5
C1
100
AcDbEntity
100
AcDbLine
  8
Otwor
 62
256
370
-1
  6
ByLayer
 10
-11.9999999999999929
 20
97.8499999999999943
 30
0.0
 11
0.0000000000000069
 21
97.8499999999999943
 31
0.0
  0
LINE
  5
C2
100
AcDbEntity
100
AcDbLine
  8
Otwor
 62
256
370
-1
  6
ByLayer
 10
-11.9999999999999929
 20
75.9499999999999886
 30
0.0
 11
-11.9999999999999929
 21
82.4499999999999886
 31
0.0
  0
LINE
  5
C3
100
AcDbEntity
100
AcDbLine
  8
Otwor
 62
256
370
-1
  6
ByLayer
 10
-13.1999999999999922
 20
75.9499999999999886
 30
0.0
 11
-13.1999999999999922
 21
82.4499999999999886
 31
0.0
  0
LINE
  5
C4
100
AcDbEntity
100
AcDbLine
  8
Otwor
 62
256
370
-1
  6
ByLayer
 10
-25.1999999999999922
 20
75.9499999999999886
 30
0.0
 11
-25.1999999999999922
 21
82.4499999999999886
 31
0.0
  0
LINE
  5
C5
100
AcDbEntity
100
AcDbLine
  8
Otwor
 62
256
370
-1
  6
ByLayer
 10
-26.3999999999999915
 20
75.9499999999999886
 30
0.0
 11
-26.3999999999999915
 21
82.4499999999999886
 31
0.0
  0
LINE
  5
C6
100
AcDbEntity
100
AcDbLine
  8
Otwor
 62
256
370
-1
  6
ByLayer
 10
-38.3999999999999915
 20
75.9499999999999886
 30
0.0
 11
-38.3999999999999915
 21
82.4499999999999886
 31
0.0
  0
LINE
  5
C7
100
AcDbEntity
100
AcDbLine
  8
Otwor
 62
256
370
-1
  6
ByLayer
 10
-38.3999999999999915
 20
75.9499999999999886
 30
0.0
 11
-26.3999999999999915
 21
75.9499999999999886
 31
0.0
  0
LINE
  5
C8
100
AcDbEntity
100
AcDbLine
  8
Otwor
 62
256
370
-1
  6
ByLayer
 10
-25.1999999999999922
 20
75.9499999999999886
 30
0.0
 11
-13.1999999999999922
 21
75.9499999999999886
 31
0.0
  0
LINE
  5
C9
100
AcDbEntity
100
AcDbLine
  8
Otwor
 62
256
370
-1
  6
ByLayer
 10
-13.1999999999999922
 20
82.4499999999999886
 30
0.0
 11
-25.1999999999999922
 21
82.4499999999999886
 31
0.0
  0
LINE
  5
CA
100
AcDbEntity
100
AcDbLine
  8
Otwor
 62
256
370
-1
  6
ByLayer
 10
-26.3999999999999915
 20
82.4499999999999886
 30
0.0
 11
-38.3999999999999915
 21
82.4499999999999886
 31
0.0
  0
LINE
  5
CB
100
AcDbEntity
100
AcDbLine
  8
Otwor
 62
256
370
-1
  6
ByLayer
 10
-39.5999999999999943
 20
75.9499999999999886
 30
0.0
 11
-39.5999999999999943
 21
82.4499999999999886
 31
0.0
  0
LINE
  5
CC
100
AcDbEntity
100
AcDbLine
  8
Otwor
 62
256
370
-1
  6
ByLayer
 10
-51.5999999999999943
 20
75.9499999999999886
 30
0.0
 11
-51.5999999999999943
 21
82.4499999999999886
 31
0.0
  0
LINE
  5
CD
100
AcDbEntity
100
AcDbLine
  8
Otwor
 62
256
370
-1
  6
ByLayer
 10
-51.5999999999999943
 20
75.9499999999999886
 30
0.0
 11
-39.5999999999999943
 21
75.9499999999999886
 31
0.0
  0
LINE
  5
CE
100
AcDbEntity
100
AcDbLine
  8
Otwor
 62
256
370
-1
  6
ByLayer
 10
-39.5999999999999943
 20
82.4499999999999886
 30
0.0
 11
-51.5999999999999943
 21
82.4499999999999886
 31
0.0
  0
LINE
  5
CF
100
AcDbEntity
100
AcDbLine
  8
Otwor
 62
256
370
-1
  6
ByLayer
 10
-11.9999999999999929
 20
75.9499999999999886
 30
0.0
 11
0.0000000000000065
 21
75.9499999999999886
 31
0.0
  0
LINE
  5
D0
100
AcDbEntity
100
AcDbLine
  8
Otwor
 62
256
370
-1
  6
ByLayer
 10
-11.9999999999999929
 20
82.4499999999999886
 30
0.0
 11
0.0000000000000069
 21
82.4499999999999886
 31
0.0
  0
LINE
  5
D1
100
AcDbEntity
100
AcDbLine
  8
Otwor
 62
256
370
-1
  6
ByLayer
 10
-11.9999999999999929
 20
60.5499999999999829
 30
0.0
 11
-11.9999999999999929
 21
67.0499999999999829
 31
0.0
  0
LINE
  5
D2
100
AcDbEntity
100
AcDbLine
  8
Otwor
 62
256
370
-1
  6
ByLayer
 10
-13.1999999999999922
 20
60.5499999999999829
 30
0.0
 11
-13.1999999999999922
 21
67.0499999999999829
 31
0.0
  0
LINE
  5
D3
100
AcDbEntity
100
AcDbLine
  8
Otwor
 62
256
370
-1
  6
ByLayer
 10
-25.1999999999999922
 20
60.5499999999999829
 30
0.0
 11
-25.1999999999999922
 21
67.0499999999999829
 31
0.0
  0
LINE
  5
D4
100
AcDbEntity
100
AcDbLine
  8
Otwor
 62
256
370
-1
  6
ByLayer
 10
-26.3999999999999915
 20
60.5499999999999829
 30
0.0
 11
-26.3999999999999915
 21
67.0499999999999829
 31
0.0
  0
LINE
  5
D5
100
AcDbEntity
100
AcDbLine
  8
Otwor
 62
256
370
-1
  6
ByLayer
 10
-38.3999999999999915
 20
60.5499999999999829
 30
0.0
 11
-38.3999999999999915
 21
67.0499999999999829
 31
0.0
  0
LINE
  5
D6
100
AcDbEntity
100
AcDbLine
  8
Otwor
 62
256
370
-1
  6
ByLayer
 10
-38.3999999999999915
 20
60.5499999999999829
 30
0.0
 11
-26.3999999999999915
 21
60.5499999999999829
 31
0.0
  0
LINE
  5
D7
100
AcDbEntity
100
AcDbLine
  8
Otwor
 62
256
370
-1
  6
ByLayer
 10
-25.1999999999999922
 20
60.5499999999999829
 30
0.0
 11
-13.1999999999999922
 21
60.5499999999999829
 31
0.0
  0
LINE
  5
D8
100
AcDbEntity
100
AcDbLine
  8
Otwor
 62
256
370
-1
  6
ByLayer
 10
-13.1999999999999922
 20
67.0499999999999829
 30
0.0
 11
-25.1999999999999922
 21
67.0499999999999829
 31
0.0
  0
LINE
  5
D9
100
AcDbEntity
100
AcDbLine
  8
Otwor
 62
256
370
-1
  6
ByLayer
 10
-26.3999999999999915
 20
67.0499999999999829
 30
0.0
 11
-38.3999999999999915
 21
67.0499999999999829
 31
0.0
  0
LINE
  5
DA
100
AcDbEntity
100
AcDbLine
  8
Otwor
 62
256
370
-1
  6
ByLayer
 10
-39.5999999999999943
 20
60.5499999999999829
 30
0.0
 11
-39.5999999999999943
 21
67.0499999999999829
 31
0.0
  0
LINE
  5
DB
100
AcDbEntity
100
AcDbLine
  8
Otwor
 62
256
370
-1
  6
ByLayer
 10
-51.5999999999999943
 20
60.5499999999999829
 30
0.0
 11
-51.5999999999999943
 21
67.0499999999999829
 31
0.0
  0
LINE
  5
DC
100
AcDbEntity
100
AcDbLine
  8
Otwor
 62
256
370
-1
  6
ByLayer
 10
-51.5999999999999943
 20
60.5499999999999829
 30
0.0
 11
-39.5999999999999943
 21
60.5499999999999829
 31
0.0
  0
LINE
  5
DD
100
AcDbEntity
100
AcDbLine
  8
Otwor
 62
256
370
-1
  6
ByLayer
 10
-39.5999999999999943
 20
67.0499999999999829
 30
0.0
 11
-51.5999999999999943
 21
67.0499999999999829
 31
0.0
  0
LINE
  5
DE
100
AcDbEntity
100
AcDbLine
  8
Otwor
 62
256
370
-1
  6
ByLayer
 10
-11.9999999999999929
 20
60.5499999999999829
 30
0.0
 11
0.0000000000000065
 21
60.5499999999999829
 31
0.0
  0
LINE
  5
DF
100
AcDbEntity
100
AcDbLine
  8
Otwor
 62
256
370
-1
  6
ByLayer
 10
-11.9999999999999929
 20
67.0499999999999829
 30
0.0
 11
0.0000000000000069
 21
67.0499999999999829
 31
0.0
  0
LINE
  5
E0
100
AcDbEntity
100
AcDbLine
  8
Otwor
 62
256
370
-1
  6
ByLayer
 10
-11.9999999999999929
 20
45.1499999999999773
 30
0.0
 11
-11.9999999999999929
 21
51.6499999999999773
 31
0.0
  0
LINE
  5
E1
100
AcDbEntity
100
AcDbLine
  8
Otwor
 62
256
370
-1
  6
ByLayer
 10
-13.1999999999999922
 20
45.1499999999999773
 30
0.0
 11
-13.1999999999999922
 21
51.6499999999999773
 31
0.0
  0
LINE
  5
E2
100
AcDbEntity
100
AcDbLine
  8
Otwor
 62
256
370
-1
  6
ByLayer
 10
-25.1999999999999922
 20
45.1499999999999773
 30
0.0
 11
-25.1999999999999922
 21
51.6499999999999773
 31
0.0
  0
LINE
  5
E3
100
AcDbEntity
100
AcDbLine
  8
Otwor
 62
256
370
-1
  6
ByLayer
 10
-26.3999999999999915
 20
45.1499999999999773
 30
0.0
 11
-26.3999999999999915
 21
51.6499999999999773
 31
0.0
  0
LINE
  5
E4
100
AcDbEntity
100
AcDbLine
  8
Otwor
 62
256
370
-1
  6
ByLayer
 10
-38.3999999999999915
 20
45.1499999999999773
 30
0.0
 11
-38.3999999999999915
 21
51.6499999999999773
 31
0.0
  0
LINE
  5
E5
100
AcDbEntity
100
AcDbLine
  8
Otwor
 62
256
370
-1
  6
ByLayer
 10
-38.3999999999999915
 20
45.1499999999999773
 30
0.0
 11
-26.3999999999999915
 21
45.1499999999999773
 31
0.0
  0
LINE
  5
E6
100
AcDbEntity
100
AcDbLine
  8
Otwor
 62
256
370
-1
  6
ByLayer
 10
-25.1999999999999922
 20
45.1499999999999773
 30
0.0
 11
-13.1999999999999922
 21
45.1499999999999773
 31
0.0
  0
LINE
  5
E7
100
AcDbEntity
100
AcDbLine
  8
Otwor
 62
256
370
-1
  6
ByLayer
 10
-13.1999999999999922
 20
51.6499999999999773
 30
0.0
 11
-25.1999999999999922
 21
51.6499999999999773
 31
0.0
  0
LINE
  5
E8
100
AcDbEntity
100
AcDbLine
  8
Otwor
 62
256
370
-1
  6
ByLayer
 10
-26.3999999999999915
 20
51.6499999999999773
 30
0.0
 11
-38.3999999999999915
 21
51.6499999999999773
 31
0.0
  0
LINE
  5
E9
100
AcDbEntity
100
AcDbLine
  8
Otwor
 62
256
370
-1
  6
ByLayer
 10
-39.5999999999999943
 20
45.1499999999999773
 30
0.0
 11
-39.5999999999999943
 21
51.6499999999999773
 31
0.0
  0
LINE
  5
EA
100
AcDbEntity
100
AcDbLine
  8
Otwor
 62
256
370
-1
  6
ByLayer
 10
-51.5999999999999943
 20
45.1499999999999773
 30
0.0
 11
-51.5999999999999943
 21
51.6499999999999773
 31
0.0
  0
LINE
  5
EB
100
AcDbEntity
100
AcDbLine
  8
Otwor
 62
256
370
-1
  6
ByLayer
 10
-51.5999999999999943
 20
45.1499999999999773
 30
0.0
 11
-39.5999999999999943
 21
45.1499999999999773
 31
0.0
  0
LINE
  5
EC
100
AcDbEntity
100
AcDbLine
  8
Otwor
 62
256
370
-1
  6
ByLayer
 10
-39.5999999999999943
 20
51.6499999999999773
 30
0.0
 11
-51.5999999999999943
 21
51.6499999999999773
 31
0.0
  0
LINE
  5
ED
100
AcDbEntity
100
AcDbLine
  8
Otwor
 62
256
370
-1
  6
ByLayer
 10
-11.9999999999999929
 20
45.1499999999999773
 30
0.0
 11
0.0000000000000065
 21
45.1499999999999773
 31
0.0
  0
LINE
  5
EE
100
AcDbEntity
100
AcDbLine
  8
Otwor
 62
256
370
-1
  6
ByLayer
 10
-11.9999999999999929
 20
51.6499999999999773
 30
0.0
 11
0.0000000000000069
 21
51.6499999999999773
 31
0.0
  0
LINE
  5
EF
100
AcDbEntity
100
AcDbLine
  8
Otwor
 62
256
370
-1
  6
ByLayer
 10
-11.9999999999999929
 20
29.7499999999999716
 30
0.0
 11
-11.9999999999999929
 21
36.2499999999999716
 31
0.0
  0
LINE
  5
F0
100
AcDbEntity
100
AcDbLine
  8
Otwor
 62
256
370
-1
  6
ByLayer
 10
-13.1999999999999922
 20
29.7499999999999716
 30
0.0
 11
-13.1999999999999922
 21
36.2499999999999716
 31
0.0
  0
LINE
  5
F1
100
AcDbEntity
100
AcDbLine
  8
Otwor
 62
256
370
-1
  6
ByLayer
 10
-25.1999999999999922
 20
29.7499999999999716
 30
0.0
 11
-25.1999999999999922
 21
36.2499999999999716
 31
0.0
  0
LINE
  5
F2
100
AcDbEntity
100
AcDbLine
  8
Otwor
 62
256
370
-1
  6
ByLayer
 10
-26.3999999999999915
 20
29.7499999999999716
 30
0.0
 11
-26.3999999999999915
 21
36.2499999999999716
 31
0.0
  0
LINE
  5
F3
100
AcDbEntity
100
AcDbLine
  8
Otwor
 62
256
370
-1
  6
ByLayer
 10
-38.3999999999999915
 20
29.7499999999999716
 30
0.0
 11
-38.3999999999999915
 21
36.2499999999999716
 31
0.0
  0
LINE
  5
F4
100
AcDbEntity
100
AcDbLine
  8
Otwor
 62
256
370
-1
  6
ByLayer
 10
-38.3999999999999915
 20
29.7499999999999716
 30
0.0
 11
-26.3999999999999915
 21
29.7499999999999716
 31
0.0
  0
LINE
  5
F5
100
AcDbEntity
100
AcDbLine
  8
Otwor
 62
256
370
-1
  6
ByLayer
 10
-25.1999999999999922
 20
29.7499999999999716
 30
0.0
 11
-13.1999999999999922
 21
29.7499999999999716
 31
0.0
  0
LINE
  5
F6
100
AcDbEntity
100
AcDbLine
  8
Otwor
 62
256
370
-1
  6
ByLayer
 10
-13.1999999999999922
 20
36.2499999999999716
 30
0.0
 11
-25.1999999999999922
 21
36.2499999999999716
 31
0.0
  0
LINE
  5
F7
100
AcDbEntity
100
AcDbLine
  8
Otwor
 62
256
370
-1
  6
ByLayer
 10
-26.3999999999999915
 20
36.2499999999999716
 30
0.0
 11
-38.3999999999999915
 21
36.2499999999999716
 31
0.0
  0
LINE
  5
F8
100
AcDbEntity
100
AcDbLine
  8
Otwor
 62
256
370
-1
  6
ByLayer
 10
-39.5999999999999943
 20
29.7499999999999716
 30
0.0
 11
-39.5999999999999943
 21
36.2499999999999716
 31
0.0
  0
LINE
  5
F9
100
AcDbEntity
100
AcDbLine
  8
Otwor
 62
256
370
-1
  6
ByLayer
 10
-51.5999999999999943
 20
29.7499999999999716
 30
0.0
 11
-51.5999999999999943
 21
36.2499999999999716
 31
0.0
  0
LINE
  5
FA
100
AcDbEntity
100
AcDbLine
  8
Otwor
 62
256
370
-1
  6
ByLayer
 10
-51.5999999999999943
 20
29.7499999999999716
 30
0.0
 11
-39.5999999999999943
 21
29.7499999999999716
 31
0.0
  0
LINE
  5
FB
100
AcDbEntity
100
AcDbLine
  8
Otwor
 62
256
370
-1
  6
ByLayer
 10
-39.5999999999999943
 20
36.2499999999999716
 30
0.0
 11
-51.5999999999999943
 21
36.2499999999999716
 31
0.0
  0
LINE
  5
FC
100
AcDbEntity
100
AcDbLine
  8
Otwor
 62
256
370
-1
  6
ByLayer
 10
-11.9999999999999929
 20
29.7499999999999716
 30
0.0
 11
0.0000000000000065
 21
29.7499999999999716
 31
0.0
  0
LINE
  5
FD
100
AcDbEntity
100
AcDbLine
  8
Otwor
 62
256
370
-1
  6
ByLayer
 10
-11.9999999999999929
 20
36.2499999999999716
 30
0.0
 11
0.0000000000000069
 21
36.2499999999999716
 31
0.0
  0
LINE
  5
FE
100
AcDbEntity
100
AcDbLine
  8
Otwor
 62
256
370
-1
  6
ByLayer
 10
-11.9999999999999929
 20
14.3499999999999659
 30
0.0
 11
-11.9999999999999929
 21
20.8499999999999659
 31
0.0
  0
LINE
  5
FF
100
AcDbEntity
100
AcDbLine
  8
Otwor
 62
256
370
-1
  6
ByLayer
 10
-13.1999999999999922
 20
14.3499999999999659
 30
0.0
 11
-13.1999999999999922
 21
20.8499999999999659
 31
0.0
  0
LINE
  5
100
100
AcDbEntity
100
AcDbLine
  8
Otwor
 62
256
370
-1
  6
ByLayer
 10
-25.1999999999999922
 20
14.3499999999999659
 30
0.0
 11
-25.1999999999999922
 21
20.8499999999999659
 31
0.0
  0
LINE
  5
101
100
AcDbEntity
100
AcDbLine
  8
Otwor
 62
256
370
-1
  6
ByLayer
 10
-26.3999999999999915
 20
14.3499999999999659
 30
0.0
 11
-26.3999999999999915
 21
20.8499999999999659
 31
0.0
  0
LINE
  5
102
100
AcDbEntity
100
AcDbLine
  8
Otwor
 62
256
370
-1
  6
ByLayer
 10
-38.3999999999999915
 20
14.3499999999999659
 30
0.0
 11
-38.3999999999999915
 21
20.8499999999999659
 31
0.0
  0
LINE
  5
103
100
AcDbEntity
100
AcDbLine
  8
Otwor
 62
256
370
-1
  6
ByLayer
 10
-38.3999999999999915
 20
14.3499999999999659
 30
0.0
 11
-26.3999999999999915
 21
14.3499999999999659
 31
0.0
  0
LINE
  5
104
100
AcDbEntity
100
AcDbLine
  8
Otwor
 62
256
370
-1
  6
ByLayer
 10
-25.1999999999999922
 20
14.3499999999999659
 30
0.0
 11
-13.1999999999999922
 21
14.3499999999999659
 31
0.0
  0
LINE
  5
105
100
AcDbEntity
100
AcDbLine
  8
Otwor
 62
256
370
-1
  6
ByLayer
 10
-13.1999999999999922
 20
20.8499999999999659
 30
0.0
 11
-25.1999999999999922
 21
20.8499999999999659
 31
0.0
  0
LINE
  5
106
100
AcDbEntity
100
AcDbLine
  8
Otwor
 62
256
370
-1
  6
ByLayer
 10
-26.3999999999999915
 20
20.8499999999999659
 30
0.0
 11
-38.3999999999999915
 21
20.8499999999999659
 31
0.0
  0
LINE
  5
107
100
AcDbEntity
100
AcDbLine
  8
Otwor
 62
256
370
-1
  6
ByLayer
 10
-39.5999999999999943
 20
14.3499999999999659
 30
0.0
 11
-39.5999999999999943
 21
20.8499999999999659
 31
0.0
  0
LINE
  5
108
100
AcDbEntity
100
AcDbLine
  8
Otwor
 62
256
370
-1
  6
ByLayer
 10
-51.5999999999999943
 20
14.3499999999999659
 30
0.0
 11
-51.5999999999999943
 21
20.8499999999999659
 31
0.0
  0
LINE
  5
109
100
AcDbEntity
100
AcDbLine
  8
Otwor
 62
256
370
-1
  6
ByLayer
 10
-51.5999999999999943
 20
14.3499999999999659
 30
0.0
 11
-39.5999999999999943
 21
14.3499999999999659
 31
0.0
  0
LINE
  5
10A
100
AcDbEntity
100
AcDbLine
  8
Otwor
 62
256
370
-1
  6
ByLayer
 10
-39.5999999999999943
 20
20.8499999999999659
 30
0.0
 11
-51.5999999999999943
 21
20.8499999999999659
 31
0.0
  0
LINE
  5
10B
100
AcDbEntity
100
AcDbLine
  8
Otwor
 62
256
370
-1
  6
ByLayer
 10
-11.9999999999999929
 20
14.3499999999999659
 30
0.0
 11
0.0000000000000065
 21
14.3499999999999659
 31
0.0
  0
LINE
  5
10C
100
AcDbEntity
100
AcDbLine
  8
Otwor
 62
256
370
-1
  6
ByLayer
 10
-11.9999999999999929
 20
20.8499999999999659
 30
0.0
 11
0.0000000000000069
 21
20.8499999999999659
 31
0.0
  0
LINE
  5
10D
100
AcDbEntity
100
AcDbLine
  8
Otwor
 62
256
370
-1
  6
ByLayer
 10
-11.9999999999999929
 20
-1.0500000000000398
 30
0.0
 11
-11.9999999999999929
 21
5.4499999999999602
 31
0.0
  0
LINE
  5
10E
100
AcDbEntity
100
AcDbLine
  8
Otwor
 62
256
370
-1
  6
ByLayer
 10
-13.1999999999999922
 20
-1.0500000000000398
 30
0.0
 11
-13.1999999999999922
 21
5.4499999999999602
 31
0.0
  0
LINE
  5
10F
100
AcDbEntity
100
AcDbLine
  8
Otwor
 62
256
370
-1
  6
ByLayer
 10
-25.1999999999999922
 20
-1.0500000000000398
 30
0.0
 11
-25.1999999999999922
 21
5.4499999999999602
 31
0.0
  0
LINE
  5
110
100
AcDbEntity
100
AcDbLine
  8
Otwor
 62
256
370
-1
  6
ByLayer
 10
-26.3999999999999915
 20
-1.0500000000000398
 30
0.0
 11
-26.3999999999999915
 21
5.4499999999999602
 31
0.0
  0
LINE
  5
111
100
AcDbEntity
100
AcDbLine
  8
Otwor
 62
256
370
-1
  6
ByLayer
 10
-38.3999999999999915
 20
-1.0500000000000398
 30
0.0
 11
-38.3999999999999915
 21
5.4499999999999602
 31
0.0
  0
LINE
  5
112
100
AcDbEntity
100
AcDbLine
  8
Otwor
 62
256
370
-1
  6
ByLayer
 10
-38.3999999999999915
 20
-1.0500000000000398
 30
0.0
 11
-26.3999999999999915
 21
-1.0500000000000398
 31
0.0
  0
LINE
  5
113
100
AcDbEntity
100
AcDbLine
  8
Otwor
 62
256
370
-1
  6
ByLayer
 10
-25.1999999999999922
 20
-1.0500000000000398
 30
0.0
 11
-13.1999999999999922
 21
-1.0500000000000398
 31
0.0
  0
LINE
  5
114
100
AcDbEntity
100
AcDbLine
  8
Otwor
 62
256
370
-1
  6
ByLayer
 10
-13.1999999999999922
 20
5.4499999999999602
 30
0.0
 11
-25.1999999999999922
 21
5.4499999999999602
 31
0.0
  0
LINE
  5
115
100
AcDbEntity
100
AcDbLine
  8
Otwor
 62
256
370
-1
  6
ByLayer
 10
-26.3999999999999915
 20
5.4499999999999602
 30
0.0
 11
-38.3999999999999915
 21
5.4499999999999602
 31
0.0
  0
LINE
  5
116
100
AcDbEntity
100
AcDbLine
  8
Otwor
 62
256
370
-1
  6
ByLayer
 10
-39.5999999999999943
 20
-1.0500000000000398
 30
0.0
 11
-39.5999999999999943
 21
5.4499999999999602
 31
0.0
  0
LINE
  5
117
100
AcDbEntity
100
AcDbLine
  8
Otwor
 62
256
370
-1
  6
ByLayer
 10
-51.5999999999999943
 20
-1.0500000000000398
 30
0.0
 11
-51.5999999999999943
 21
5.4499999999999602
 31
0.0
  0
LINE
  5
118
100
AcDbEntity
100
AcDbLine
  8
Otwor
 62
256
370
-1
  6
ByLayer
 10
-51.5999999999999943
 20
-1.0500000000000398
 30
0.0
 11
-39.5999999999999943
 21
-1.0500000000000398
 31
0.0
  0
LINE
  5
119
100
AcDbEntity
100
AcDbLine
  8
Otwor
 62
256
370
-1
  6
ByLayer
 10
-39.5999999999999943
 20
5.4499999999999602
 30
0.0
 11
-51.5999999999999943
 21
5.4499999999999602
 31
0.0
  0
LINE
  5
11A
100
AcDbEntity
100
AcDbLine
  8
Otwor
 62
256
370
-1
  6
ByLayer
 10
-11.9999999999999929
 20
-1.0500000000000398
 30
0.0
 11
0.0000000000000065
 21
-1.0500000000000398
 31
0.0
  0
LINE
  5
11B
100
AcDbEntity
100
AcDbLine
  8
Otwor
 62
256
370
-1
  6
ByLayer
 10
-11.9999999999999929
 20
5.4499999999999602
 30
0.0
 11
0.0000000000000069
 21
5.4499999999999602
 31
0.0
  0
LINE
  5
11C
100
AcDbEntity
100
AcDbLine
  8
Otwor
 62
256
370
-1
  6
ByLayer
 10
-11.9999999999999929
 20
-16.4500000000000455
 30
0.0
 11
-11.9999999999999929
 21
-9.9500000000000455
 31
0.0
  0
LINE
  5
11D
100
AcDbEntity
100
AcDbLine
  8
Otwor
 62
256
370
-1
  6
ByLayer
 10
-13.1999999999999922
 20
-16.4500000000000455
 30
0.0
 11
-13.1999999999999922
 21
-9.9500000000000455
 31
0.0
  0
LINE
  5
11E
100
AcDbEntity
100
AcDbLine
  8
Otwor
 62
256
370
-1
  6
ByLayer
 10
-25.1999999999999922
 20
-16.4500000000000455
 30
0.0
 11
-25.1999999999999922
 21
-9.9500000000000455
 31
0.0
  0
LINE
  5
11F
100
AcDbEntity
100
AcDbLine
  8
Otwor
 62
256
370
-1
  6
ByLayer
 10
-26.3999999999999915
 20
-16.4500000000000455
 30
0.0
 11
-26.3999999999999915
 21
-9.9500000000000455
 31
0.0
  0
LINE
  5
120
100
AcDbEntity
100
AcDbLine
  8
Otwor
 62
256
370
-1
  6
ByLayer
 10
-38.3999999999999915
 20
-16.4500000000000455
 30
0.0
 11
-38.3999999999999915
 21
-9.9500000000000455
 31
0.0
  0
LINE
  5
121
100
AcDbEntity
100
AcDbLine
  8
Otwor
 62
256
370
-1
  6
ByLayer
 10
-38.3999999999999915
 20
-16.4500000000000455
 30
0.0
 11
-26.3999999999999915
 21
-16.4500000000000455
 31
0.0
  0
LINE
  5
122
100
AcDbEntity
100
AcDbLine
  8
Otwor
 62
256
370
-1
  6
ByLayer
 10
-25.1999999999999922
 20
-16.4500000000000455
 30
0.0
 11
-13.1999999999999922
 21
-16.4500000000000455
 31
0.0
  0
LINE
  5
123
100
AcDbEntity
100
AcDbLine
  8
Otwor
 62
256
370
-1
  6
ByLayer
 10
-13.1999999999999922
 20
-9.9500000000000455
 30
0.0
 11
-25.1999999999999922
 21
-9.9500000000000455
 31
0.0
  0
LINE
  5
124
100
AcDbEntity
100
AcDbLine
  8
Otwor
 62
256
370
-1
  6
ByLayer
 10
-26.3999999999999915
 20
-9.9500000000000455
 30
0.0
 11
-38.3999999999999915
 21
-9.9500000000000455
 31
0.0
  0
LINE
  5
125
100
AcDbEntity
100
AcDbLine
  8
Otwor
 62
256
370
-1
  6
ByLayer
 10
-39.5999999999999943
 20
-16.4500000000000455
 30
0.0
 11
-39.5999999999999943
 21
-9.9500000000000455
 31
0.0
  0
LINE
  5
126
100
AcDbEntity
100
AcDbLine
  8
Otwor
 62
256
370
-1
  6
ByLayer
 10
-51.5999999999999943
 20
-16.4500000000000455
 30
0.0
 11
-51.5999999999999943
 21
-9.9500000000000455
 31
0.0
  0
LINE
  5
127
100
AcDbEntity
100
AcDbLine
  8
Otwor
 62
256
370
-1
  6
ByLayer
 10
-51.5999999999999943
 20
-16.4500000000000455
 30
0.0
 11
-39.5999999999999943
 21
-16.4500000000000455
 31
0.0
  0
LINE
  5
128
100
AcDbEntity
100
AcDbLine
  8
Otwor
 62
256
370
-1
  6
ByLayer
 10
-39.5999999999999943
 20
-9.9500000000000455
 30
0.0
 11
-51.5999999999999943
 21
-9.9500000000000455
 31
0.0
  0
LINE
  5
129
100
AcDbEntity
100
AcDbLine
  8
Otwor
 62
256
370
-1
  6
ByLayer
 10
-11.9999999999999929
 20
-16.4500000000000455
 30
0.0
 11
0.0000000000000065
 21
-16.4500000000000455
 31
0.0
  0
LINE
  5
12A
100
AcDbEntity
100
AcDbLine
  8
Otwor
 62
256
370
-1
  6
ByLayer
 10
-11.9999999999999929
 20
-9.9500000000000455
 30
0.0
 11
0.0000000000000069
 21
-9.9500000000000455
 31
0.0
  0
LINE
  5
12B
100
AcDbEntity
100
AcDbLine
  8
Otwor
 62
256
370
-1
  6
ByLayer
 10
-19.7999999999999936
 20
83.6500000000000057
 30
0.0
 11
-19.7999999999999936
 21
90.1500000000000057
 31
0.0
  0
LINE
  5
12C
100
AcDbEntity
100
AcDbLine
  8
Otwor
 62
256
370
-1
  6
ByLayer
 10
-18.5999999999999908
 20
83.6500000000000057
 30
0.0
 11
-18.5999999999999908
 21
90.1500000000000057
 31
0.0
  0
LINE
  5
12D
100
AcDbEntity
100
AcDbLine
  8
Otwor
 62
256
370
-1
  6
ByLayer
 10
-44.7999999999999972
 20
83.6500000000000057
 30
0.0
 11
-44.7999999999999972
 21
90.1500000000000057
 31
0.0
  0
LINE
  5
12E
100
AcDbEntity
100
AcDbLine
  8
Otwor
 62
256
370
-1
  6
ByLayer
 10
-44.7999999999999972
 20
90.1500000000000057
 30
0.0
 11
-19.7999999999999936
 21
90.1500000000000057
 31
0.0
  0
LINE
  5
12F
100
AcDbEntity
100
AcDbLine
  8
Otwor
 62
256
370
-1
  6
ByLayer
 10
-19.7999999999999936
 20
83.6500000000000057
 30
0.0
 11
-44.7999999999999972
 21
83.6500000000000057
 31
0.0
  0
LINE
  5
130
100
AcDbEntity
100
AcDbLine
  8
Otwor
 62
256
370
-1
  6
ByLayer
 10
-18.5999999999999908
 20
90.1500000000000057
 30
0.0
 11
0.0000000000000064
 21
90.1500000000000057
 31
0.0
  0
LINE
  5
131
100
AcDbEntity
100
AcDbLine
  8
Otwor
 62
256
370
-1
  6
ByLayer
 10
-18.5999999999999908
 20
83.6500000000000057
 30
0.0
 11
0.000000000000006
 21
83.6500000000000057
 31
0.0
  0
LINE
  5
132
100
AcDbEntity
100
AcDbLine
  8
Otwor
 62
256
370
-1
  6
ByLayer
 10
0.0000000000000064
 20
90.1500000000000057
 30
0.0
 11
0.000000000000006
 21
83.6500000000000057
 31
0.0
  0
LINE
  5
133
100
AcDbEntity
100
AcDbLine
  8
Otwor
 62
256
370
-1
  6
ByLayer
 10
-19.7999999999999936
 20
52.8500000000000085
 30
0.0
 11
-19.7999999999999936
 21
59.3500000000000085
 31
0.0
  0
LINE
  5
134
100
AcDbEntity
100
AcDbLine
  8
Otwor
 62
256
370
-1
  6
ByLayer
 10
-18.5999999999999908
 20
52.8500000000000085
 30
0.0
 11
-18.5999999999999908
 21
59.3500000000000085
 31
0.0
  0
LINE
  5
135
100
AcDbEntity
100
AcDbLine
  8
Otwor
 62
256
370
-1
  6
ByLayer
 10
-44.7999999999999972
 20
52.8500000000000085
 30
0.0
 11
-44.7999999999999972
 21
59.3500000000000085
 31
0.0
  0
LINE
  5
136
100
AcDbEntity
100
AcDbLine
  8
Otwor
 62
256
370
-1
  6
ByLayer
 10
-44.7999999999999972
 20
59.3500000000000085
 30
0.0
 11
-19.7999999999999936
 21
59.3500000000000085
 31
0.0
  0
LINE
  5
137
100
AcDbEntity
100
AcDbLine
  8
Otwor
 62
256
370
-1
  6
ByLayer
 10
-19.7999999999999936
 20
52.8500000000000085
 30
0.0
 11
-44.7999999999999972
 21
52.8500000000000085
 31
0.0
  0
LINE
  5
138
100
AcDbEntity
100
AcDbLine
  8
Otwor
 62
256
370
-1
  6
ByLayer
 10
-18.5999999999999908
 20
59.3500000000000085
 30
0.0
 11
0.0000000000000064
 21
59.3500000000000085
 31
0.0
  0
LINE
  5
139
100
AcDbEntity
100
AcDbLine
  8
Otwor
 62
256
370
-1
  6
ByLayer
 10
-18.5999999999999908
 20
52.8500000000000085
 30
0.0
 11
0.000000000000006
 21
52.8500000000000085
 31
0.0
  0
LINE
  5
13A
100
AcDbEntity
100
AcDbLine
  8
Otwor
 62
256
370
-1
  6
ByLayer
 10
0.0000000000000064
 20
59.3500000000000085
 30
0.0
 11
0.000000000000006
 21
52.8500000000000085
 31
0.0
  0
LINE
  5
13B
100
AcDbEntity
100
AcDbLine
  8
Otwor
 62
256
370
-1
  6
ByLayer
 10
-19.7999999999999936
 20
22.0500000000000114
 30
0.0
 11
-19.7999999999999936
 21
28.5500000000000114
 31
0.0
  0
LINE
  5
13C
100
AcDbEntity
100
AcDbLine
  8
Otwor
 62
256
370
-1
  6
ByLayer
 10
-18.5999999999999908
 20
22.0500000000000114
 30
0.0
 11
-18.5999999999999908
 21
28.5500000000000114
 31
0.0
  0
LINE
  5
13D
100
AcDbEntity
100
AcDbLine
  8
Otwor
 62
256
370
-1
  6
ByLayer
 10
-44.7999999999999972
 20
22.0500000000000114
 30
0.0
 11
-44.7999999999999972
 21
28.5500000000000114
 31
0.0
  0
LINE
  5
13E
100
AcDbEntity
100
AcDbLine
  8
Otwor
 62
256
370
-1
  6
ByLayer
 10
-44.7999999999999972
 20
28.5500000000000114
 30
0.0
 11
-19.7999999999999936
 21
28.5500000000000114
 31
0.0
  0
LINE
  5
13F
100
AcDbEntity
100
AcDbLine
  8
Otwor
 62
256
370
-1
  6
ByLayer
 10
-19.7999999999999936
 20
22.0500000000000114
 30
0.0
 11
-44.7999999999999972
 21
22.0500000000000114
 31
0.0
  0
LINE
  5
140
100
AcDbEntity
100
AcDbLine
  8
Otwor
 62
256
370
-1
  6
ByLayer
 10
-18.5999999999999908
 20
28.5500000000000114
 30
0.0
 11
0.0000000000000064
 21
28.5500000000000114
 31
0.0
  0
LINE
  5
141
100
AcDbEntity
100
AcDbLine
  8
Otwor
 62
256
370
-1
  6
ByLayer
 10
-18.5999999999999908
 20
22.0500000000000114
 30
0.0
 11
0.000000000000006
 21
22.0500000000000114
 31
0.0
  0
LINE
  5
142
100
AcDbEntity
100
AcDbLine
  8
Otwor
 62
256
370
-1
  6
ByLayer
 10
0.0000000000000064
 20
28.5500000000000114
 30
0.0
 11
0.000000000000006
 21
22.0500000000000114
 31
0.0
  0
LINE
  5
143
100
AcDbEntity
100
AcDbLine
  8
Otwor
 62
256
370
-1
  6
ByLayer
 10
-19.7999999999999936
 20
-8.7499999999999858
 30
0.0
 11
-19.7999999999999936
 21
-2.2499999999999858
 31
0.0
  0
LINE
  5
144
100
AcDbEntity
100
AcDbLine
  8
Otwor
 62
256
370
-1
  6
ByLayer
 10
-18.5999999999999908
 20
-8.7499999999999858
 30
0.0
 11
-18.5999999999999908
 21
-2.2499999999999858
 31
0.0
  0
LINE
  5
145
100
AcDbEntity
100
AcDbLine
  8
Otwor
 62
256
370
-1
  6
ByLayer
 10
-44.7999999999999972
 20
-8.7499999999999858
 30
0.0
 11
-44.7999999999999972
 21
-2.2499999999999858
 31
0.0
  0
LINE
  5
146
100
AcDbEntity
100
AcDbLine
  8
Otwor
 62
256
370
-1
  6
ByLayer
 10
-44.7999999999999972
 20
-2.2499999999999858
 30
0.0
 11
-19.7999999999999936
 21
-2.2499999999999858
 31
0.0
  0
LINE
  5
147
100
AcDbEntity
100
AcDbLine
  8
Otwor
 62
256
370
-1
  6
ByLayer
 10
-19.7999999999999936
 20
-8.7499999999999858
 30
0.0
 11
-44.7999999999999972
 21
-8.7499999999999858
 31
0.0
  0
LINE
  5
148
100
AcDbEntity
100
AcDbLine
  8
Otwor
 62
256
370
-1
  6
ByLayer
 10
-18.5999999999999908
 20
-2.2499999999999858
 30
0.0
 11
0.0000000000000064
 21
-2.2499999999999858
 31
0.0
  0
LINE
  5
149
100
AcDbEntity
100
AcDbLine
  8
Otwor
 62
256
370
-1
  6
ByLayer
 10
-18.5999999999999908
 20
-8.7499999999999858
 30
0.0
 11
0.000000000000006
 21
-8.7499999999999858
 31
0.0
  0
LINE
  5
14A
100
AcDbEntity
100
AcDbLine
  8
Otwor
 62
256
370
-1
  6
ByLayer
 10
0.0000000000000064
 20
-2.2499999999999858
 30
0.0
 11
0.000000000000006
 21
-8.7499999999999858
 31
0.0
  0
LINE
  5
14B
100
AcDbEntity
100
AcDbLine
  8
Otwor
 62
256
370
-1
  6
ByLayer
 10
0.0000000000000065
 20
106.75
 30
0.0
 11
0.0000000000000067
 21
110.0
 31
0.0
  0
LINE
  5
14C
100
AcDbEntity
100
AcDbLine
  8
Otwor
 62
256
370
-1
  6
ByLayer
 10
0.0000000000000065
 20
91.3499999999999943
 30
0.0
 11
0.0000000000000069
 21
97.8499999999999943
 31
0.0
  0
LINE
  5
14D
100
AcDbEntity
100
AcDbLine
  8
Otwor
 62
256
370
-1
  6
ByLayer
 10
0.0000000000000065
 20
75.9499999999999886
 30
0.0
 11
0.0000000000000069
 21
82.4499999999999886
 31
0.0
  0
LINE
  5
14E
100
AcDbEntity
100
AcDbLine
  8
Otwor
 62
256
370
-1
  6
ByLayer
 10
0.0000000000000065
 20
60.5499999999999829
 30
0.0
 11
0.0000000000000069
 21
67.0499999999999829
 31
0.0
  0
LINE
  5
14F
100
AcDbEntity
100
AcDbLine
  8
Otwor
 62
256
370
-1
  6
ByLayer
 10
0.0000000000000065
 20
45.1499999999999773
 30
0.0
 11
0.0000000000000069
 21
51.6499999999999773
 31
0.0
  0
LINE
  5
150
100
AcDbEntity
100
AcDbLine
  8
Otwor
 62
256
370
-1
  6
ByLayer
 10
0.0000000000000065
 20
29.7499999999999716
 30
0.0
 11
0.0000000000000069
 21
36.2499999999999716
 31
0.0
  0
LINE
  5
151
100
AcDbEntity
100
AcDbLine
  8
Otwor
 62
256
370
-1
  6
ByLayer
 10
0.0000000000000065
 20
14.3499999999999659
 30
0.0
 11
0.0000000000000069
 21
20.8499999999999659
 31
0.0
  0
LINE
  5
152
100
AcDbEntity
100
AcDbLine
  8
Otwor
 62
256
370
-1
  6
ByLayer
 10
0.0000000000000065
 20
-1.0500000000000398
 30
0.0
 11
0.0000000000000069
 21
5.4499999999999602
 31
0.0
  0
LINE
  5
153
100
AcDbEntity
100
AcDbLine
  8
Otwor
 62
256
370
-1
  6
ByLayer
 10
0.0000000000000065
 20
-16.4500000000000455
 30
0.0
 11
0.0000000000000069
 21
-9.9500000000000455
 31
0.0
  0
LINE
  5
154
100
AcDbEntity
100
AcDbLine
  8
Otwor
 62
256
370
-1
  6
ByLayer
 10
-11.9999999999999929
 20
137.5500000000000114
 30
0.0
 11
-11.9999999999999929
 21
144.0500000000000114
 31
0.0
  0
LINE
  5
155
100
AcDbEntity
100
AcDbLine
  8
Otwor
 62
256
370
-1
  6
ByLayer
 10
-13.1999999999999922
 20
137.5500000000000114
 30
0.0
 11
-13.1999999999999922
 21
144.0500000000000114
 31
0.0
  0
LINE
  5
156
100
AcDbEntity
100
AcDbLine
  8
Otwor
 62
256
370
-1
  6
ByLayer
 10
-25.1999999999999922
 20
137.5500000000000114
 30
0.0
 11
-25.1999999999999922
 21
144.0500000000000114
 31
0.0
  0
LINE
  5
157
100
AcDbEntity
100
AcDbLine
  8
Otwor
 62
256
370
-1
  6
ByLayer
 10
-26.3999999999999915
 20
137.5500000000000114
 30
0.0
 11
-26.3999999999999915
 21
144.0500000000000114
 31
0.0
  0
LINE
  5
158
100
AcDbEntity
100
AcDbLine
  8
Otwor
 62
256
370
-1
  6
ByLayer
 10
-38.3999999999999915
 20
137.5500000000000114
 30
0.0
 11
-38.3999999999999915
 21
144.0500000000000114
 31
0.0
  0
LINE
  5
159
100
AcDbEntity
100
AcDbLine
  8
Otwor
 62
256
370
-1
  6
ByLayer
 10
-38.3999999999999915
 20
137.5500000000000114
 30
0.0
 11
-26.3999999999999915
 21
137.5500000000000114
 31
0.0
  0
LINE
  5
15A
100
AcDbEntity
100
AcDbLine
  8
Otwor
 62
256
370
-1
  6
ByLayer
 10
-25.1999999999999922
 20
137.5500000000000114
 30
0.0
 11
-13.1999999999999922
 21
137.5500000000000114
 31
0.0
  0
LINE
  5
15B
100
AcDbEntity
100
AcDbLine
  8
Otwor
 62
256
370
-1
  6
ByLayer
 10
-13.1999999999999922
 20
144.0500000000000114
 30
0.0
 11
-25.1999999999999922
 21
144.0500000000000114
 31
0.0
  0
LINE
  5
15C
100
AcDbEntity
100
AcDbLine
  8
Otwor
 62
256
370
-1
  6
ByLayer
 10
-26.3999999999999915
 20
144.0500000000000114
 30
0.0
 11
-38.3999999999999915
 21
144.0500000000000114
 31
0.0
  0
LINE
  5
15D
100
AcDbEntity
100
AcDbLine
  8
Otwor
 62
256
370
-1
  6
ByLayer
 10
-39.5999999999999943
 20
137.5500000000000114
 30
0.0
 11
-39.5999999999999943
 21
144.0500000000000114
 31
0.0
  0
LINE
  5
15E
100
AcDbEntity
100
AcDbLine
  8
Otwor
 62
256
370
-1
  6
ByLayer
 10
-51.5999999999999943
 20
137.5500000000000114
 30
0.0
 11
-51.5999999999999943
 21
144.0500000000000114
 31
0.0
  0
LINE
  5
15F
100
AcDbEntity
100
AcDbLine
  8
Otwor
 62
256
370
-1
  6
ByLayer
 10
-51.5999999999999943
 20
137.5500000000000114
 30
0.0
 11
-39.5999999999999943
 21
137.5500000000000114
 31
0.0
  0
LINE
  5
160
100
AcDbEntity
100
AcDbLine
  8
Otwor
 62
256
370
-1
  6
ByLayer
 10
-39.5999999999999943
 20
144.0500000000000114
 30
0.0
 11
-51.5999999999999943
 21
144.0500000000000114
 31
0.0
  0
LINE
  5
161
100
AcDbEntity
100
AcDbLine
  8
Otwor
 62
256
370
-1
  6
ByLayer
 10
-11.9999999999999929
 20
144.0500000000000114
 30
0.0
 11
0.0000000000000069
 21
144.0500000000000114
 31
0.0
  0
LINE
  5
162
100
AcDbEntity
100
AcDbLine
  8
Otwor
 62
256
370
-1
  6
ByLayer
 10
1.2000000000000068
 20
144.0500000000000114
 30
0.0
 11
13.2000000000000064
 21
144.0500000000000114
 31
0.0
  0
LINE
  5
163
100
AcDbEntity
100
AcDbLine
  8
Otwor
 62
256
370
-1
  6
ByLayer
 10
-19.7999999999999936
 20
145.25
 30
0.0
 11
-19.7999999999999936
 21
151.75
 31
0.0
  0
LINE
  5
164
100
AcDbEntity
100
AcDbLine
  8
Otwor
 62
256
370
-1
  6
ByLayer
 10
-18.5999999999999908
 20
145.25
 30
0.0
 11
-18.5999999999999908
 21
151.75
 31
0.0
  0
LINE
  5
165
100
AcDbEntity
100
AcDbLine
  8
Otwor
 62
256
370
-1
  6
ByLayer
 10
-44.7999999999999972
 20
145.25
 30
0.0
 11
-44.7999999999999972
 21
151.75
 31
0.0
  0
LINE
  5
166
100
AcDbEntity
100
AcDbLine
  8
Otwor
 62
256
370
-1
  6
ByLayer
 10
-44.7999999999999972
 20
151.75
 30
0.0
 11
-19.7999999999999936
 21
151.75
 31
0.0
  0
LINE
  5
167
100
AcDbEntity
100
AcDbLine
  8
Otwor
 62
256
370
-1
  6
ByLayer
 10
-19.7999999999999936
 20
145.25
 30
0.0
 11
-44.7999999999999972
 21
145.25
 31
0.0
  0
LINE
  5
168
100
AcDbEntity
100
AcDbLine
  8
Otwor
 62
256
370
-1
  6
ByLayer
 10
7.6000000000000094
 20
145.25
 30
0.0
 11
7.6000000000000094
 21
151.75
 31
0.0
  0
LINE
  5
169
100
AcDbEntity
100
AcDbLine
  8
Otwor
 62
256
370
-1
  6
ByLayer
 10
32.6000000000000085
 20
145.25
 30
0.0
 11
32.6000000000000085
 21
151.75
 31
0.0
  0
LINE
  5
16A
100
AcDbEntity
100
AcDbLine
  8
Otwor
 62
256
370
-1
  6
ByLayer
 10
-18.5999999999999908
 20
151.75
 30
0.0
 11
6.4000000000000092
 21
151.75
 31
0.0
  0
LINE
  5
16B
100
AcDbEntity
100
AcDbLine
  8
Otwor
 62
256
370
-1
  6
ByLayer
 10
-18.5999999999999908
 20
145.25
 30
0.0
 11
6.4000000000000092
 21
145.25
 31
0.0
  0
LINE
  5
16C
100
AcDbEntity
100
AcDbLine
  8
Otwor
 62
256
370
-1
  6
ByLayer
 10
6.4000000000000092
 20
145.25
 30
0.0
 11
6.4000000000000092
 21
151.75
 31
0.0
  0
LINE
  5
16D
100
AcDbEntity
100
AcDbLine
  8
Otwor
 62
256
370
-1
  6
ByLayer
 10
7.6000000000000094
 20
151.75
 30
0.0
 11
32.6000000000000085
 21
151.75
 31
0.0
  0
LINE
  5
16E
100
AcDbEntity
100
AcDbLine
  8
Otwor
 62
256
370
-1
  6
ByLayer
 10
32.6000000000000085
 20
151.75
 30
0.0
 11
32.6000000000000085
 21
145.25
 31
0.0
  0
LINE
  5
16F
100
AcDbEntity
100
AcDbLine
  8
Otwor
 62
256
370
-1
  6
ByLayer
 10
32.6000000000000085
 20
145.25
 30
0.0
 11
7.6000000000000094
 21
145.25
 31
0.0
  0
LINE
  5
170
100
AcDbEntity
100
AcDbLine
  8
Otwor
 62
256
370
-1
  6
ByLayer
 10
33.8000000000000114
 20
145.25
 30
0.0
 11
33.8000000000000114
 21
151.75
 31
0.0
  0
LINE
  5
171
100
AcDbEntity
100
AcDbLine
  8
Otwor
 62
256
370
-1
  6
ByLayer
 10
58.8000000000000114
 20
145.25
 30
0.0
 11
58.8000000000000114
 21
151.75
 31
0.0
  0
LINE
  5
172
100
AcDbEntity
100
AcDbLine
  8
Otwor
 62
256
370
-1
  6
ByLayer
 10
33.8000000000000114
 20
151.75
 30
0.0
 11
58.8000000000000114
 21
151.75
 31
0.0
  0
LINE
  5
173
100
AcDbEntity
100
AcDbLine
  8
Otwor
 62
256
370
-1
  6
ByLayer
 10
58.8000000000000114
 20
145.25
 30
0.0
 11
33.8000000000000114
 21
145.25
 31
0.0
  0
DIMENSION
  5
174
100
AcDbEntity
  8
Otwor wym.
 62
256
370
-1
  6
ByLayer
100
AcDbDimension
 10
-62.1055272151831019
 20
110.0000000000000142
 30
0.0
 11
-63.9805272151831019
 21
108.375
 31
0.0
 70
0
 71
5
 72
0
 41
1.0
 42
0.0
  1

  3
Standard
100
AcDbAlignedDimension
 13
0.0000000000000065
 23
106.75
 33
0.0
 14
0.0000000000000067
 24
110.0
 34
0.0
 50
90.0
100
AcDbRotatedDimension
  0
LINE
  5
175
100
AcDbEntity
100
AcDbLine
  8
Otwor
 62
256
370
-1
  6
ByLayer
 10
26.4000000000000057
 20
144.0500000000000114
 30
0.0
 11
14.4000000000000057
 21
144.0500000000000114
 31
0.0
  0
LINE
  5
176
100
AcDbEntity
100
AcDbLine
  8
Otwor
 62
256
370
-1
  6
ByLayer
 10
104.4999999999999432
 20
113.2499999999994884
 30
0.0
 11
97.0091341318490095
 21
113.2499999999996732
 31
0.0
  0
LINE
  5
177
100
AcDbEntity
100
AcDbLine
  8
Otwor
 62
256
370
-1
  6
ByLayer
 10
105.6999999999999602
 20
114.449999999999946
 30
0.0
 11
105.6999999999999602
 21
120.9500000000001876
 31
0.0
  0
LINE
  5
178
100
AcDbEntity
100
AcDbLine
  8
Otwor
 62
256
370
-1
  6
ByLayer
 10
117.6999999999999602
 20
114.4499999999999034
 30
0.0
 11
117.6999999999999602
 21
120.949999999998866
 31
0.0
  0
LINE
  5
179
100
AcDbEntity
100
AcDbLine
  8
Otwor
 62
256
370
-1
  6
ByLayer
 10
118.8999999999999488
 20
114.4500000000000028
 30
0.0
 11
118.8999999999999488
 21
120.9500000000005571
 31
0.0
  0
LINE
  5
17A
100
AcDbEntity
100
AcDbLine
  8
Otwor
 62
256
370
-1
  6
ByLayer
 10
130.8999999999999488
 20
114.4499999999999744
 30
0.0
 11
130.8999999999999488
 21
120.9499999999991076
 31
0.0
  0
LINE
  5
17B
100
AcDbEntity
100
AcDbLine
  8
Otwor
 62
256
370
-1
  6
ByLayer
 10
130.8999999999999488
 20
114.4499999999999744
 30
0.0
 11
118.8999999999999488
 21
114.4500000000000028
 31
0.0
  0
LINE
  5
17C
100
AcDbEntity
100
AcDbLine
  8
Otwor
 62
256
370
-1
  6
ByLayer
 10
117.6999999999999602
 20
114.4499999999999034
 30
0.0
 11
105.6999999999999602
 21
114.449999999999946
 31
0.0
  0
LINE
  5
17D
100
AcDbEntity
100
AcDbLine
  8
Otwor
 62
256
370
-1
  6
ByLayer
 10
105.6999999999999602
 20
120.9500000000001876
 30
0.0
 11
117.6999999999999602
 21
120.949999999998866
 31
0.0
  0
LINE
  5
17E
100
AcDbEntity
100
AcDbLine
  8
Otwor
 62
256
370
-1
  6
ByLayer
 10
118.8999999999999488
 20
120.9500000000005571
 30
0.0
 11
130.8999999999999488
 21
120.9499999999991076
 31
0.0
  0
LINE
  5
17F
100
AcDbEntity
100
AcDbLine
  8
Otwor
 62
256
370
-1
  6
ByLayer
 10
112.2999999999999545
 20
122.1499999999991957
 30
0.0
 11
112.2999999999999545
 21
128.6500000000000341
 31
0.0
  0
LINE
  5
180
100
AcDbEntity
100
AcDbLine
  8
Otwor
 62
256
370
-1
  6
ByLayer
 10
111.0999999999999375
 20
122.1500000000010004
 30
0.0
 11
111.0999999999999659
 21
128.6499999999999773
 31
0.0
  0
LINE
  5
181
100
AcDbEntity
100
AcDbLine
  8
Otwor
 62
256
370
-1
  6
ByLayer
 10
137.2999999999999545
 20
122.1500000000013415
 30
0.0
 11
137.2999999999999545
 21
128.6499999999999773
 31
0.0
  0
LINE
  5
182
100
AcDbEntity
100
AcDbLine
  8
Otwor
 62
256
370
-1
  6
ByLayer
 10
137.2999999999999545
 20
128.6499999999999773
 30
0.0
 11
112.2999999999999545
 21
128.6500000000000341
 31
0.0
  0
LINE
  5
183
100
AcDbEntity
100
AcDbLine
  8
Otwor
 62
256
370
-1
  6
ByLayer
 10
112.2999999999999545
 20
122.1499999999991957
 30
0.0
 11
137.2999999999999545
 21
122.1500000000013415
 31
0.0
  0
LINE
  5
184
100
AcDbEntity
100
AcDbLine
  8
Otwor
 62
256
370
-1
  6
ByLayer
 10
130.8999999999999488
 20
129.8499999999999659
 30
0.0
 11
118.8999999999999488
 21
129.8499999999999659
 31
0.0
  0
LINE
  5
185
100
AcDbEntity
100
AcDbLine
  8
Otwor
 62
256
370
-1
  6
ByLayer
 10
130.8999999999999488
 20
129.8499999999999659
 30
0.0
 11
130.8999999999999488
 21
136.3499999999999091
 31
0.0
  0
LINE
  5
186
100
AcDbEntity
100
AcDbLine
  8
Otwor
 62
256
370
-1
  6
ByLayer
 10
130.8999999999999488
 20
136.3499999999999091
 30
0.0
 11
118.8999999999999488
 21
136.3499999999999943
 31
0.0
  0
LINE
  5
187
100
AcDbEntity
100
AcDbLine
  8
Otwor
 62
256
370
-1
  6
ByLayer
 10
118.8999999999999488
 20
129.8499999999999659
 30
0.0
 11
118.8999999999999488
 21
136.3499999999999943
 31
0.0
  0
LINE
  5
188
100
AcDbEntity
100
AcDbLine
  8
Otwor
 62
256
370
-1
  6
ByLayer
 10
117.6999999999999602
 20
129.8499999999999943
 30
0.0
 11
117.6999999999999602
 21
136.3500000000000227
 31
0.0
  0
LINE
  5
189
100
AcDbEntity
100
AcDbLine
  8
Otwor
 62
256
370
-1
  6
ByLayer
 10
124.2999999999999545
 20
137.5499999999999545
 30
0.0
 11
124.2999999999999545
 21
144.0499999999999261
 31
0.0
  0
LINE
  5
18A
100
AcDbEntity
100
AcDbLine
  8
Otwor
 62
256
370
-1
  6
ByLayer
 10
150.4999999999999716
 20
137.5499999999998977
 30
0.0
 11
150.4999999999999716
 21
144.0499999999999829
 31
0.0
  0
LINE
  5
18B
100
AcDbEntity
100
AcDbLine
  8
Otwor
 62
256
370
-1
  6
ByLayer
 10
150.4999999999999716
 20
137.5499999999998977
 30
0.0
 11
125.4999999999999432
 21
137.5499999999999545
 31
0.0
  0
LINE
  5
18C
100
AcDbEntity
100
AcDbLine
  8
Otwor
 62
256
370
-1
  6
ByLayer
 10
150.4999999999999716
 20
144.0499999999999829
 30
0.0
 11
125.4999999999999432
 21
144.0499999999999829
 31
0.0
  0
LINE
  5
18D
100
AcDbEntity
100
AcDbLine
  8
Otwor
 62
256
370
-1
  6
ByLayer
 10
125.4999999999999432
 20
137.5499999999999545
 30
0.0
 11
125.4999999999999432
 21
144.0499999999999829
 31
0.0
  0
LINE
  5
18E
100
AcDbEntity
100
AcDbLine
  8
Otwor
 62
256
370
-1
  6
ByLayer
 10
111.0999999999999375
 20
106.7499999999999432
 30
0.0
 11
92.4999999999999432
 21
106.7499999999999716
 31
0.0
  0
LINE
  5
18F
100
AcDbEntity
100
AcDbLine
  8
Otwor
 62
256
370
-1
  6
ByLayer
 10
111.0999999999999375
 20
106.7499999999999432
 30
0.0
 11
111.0999999999999375
 21
113.25
 31
0.0
  0
LINE
  5
190
100
AcDbEntity
100
AcDbLine
  8
Otwor
 62
256
370
-1
  6
ByLayer
 10
112.2999999999999545
 20
106.7500000000000284
 30
0.0
 11
112.2999999999999545
 21
113.2499999999999574
 31
0.0
  0
LINE
  5
191
100
AcDbEntity
100
AcDbLine
  8
Otwor
 62
256
370
-1
  6
ByLayer
 10
125.4999999999999716
 20
106.7499999999999716
 30
0.0
 11
125.4999999999999432
 21
113.2499999999998863
 31
0.0
  0
LINE
  5
192
100
AcDbEntity
100
AcDbLine
  8
Otwor
 62
256
370
-1
  6
ByLayer
 10
124.2999999999999545
 20
106.7499999999999858
 30
0.0
 11
112.2999999999999545
 21
106.7500000000000284
 31
0.0
  0
LINE
  5
193
100
AcDbEntity
100
AcDbLine
  8
Otwor
 62
256
370
-1
  6
ByLayer
 10
124.2999999999999545
 20
106.7499999999999858
 30
0.0
 11
124.2999999999999545
 21
113.2499999999999716
 31
0.0
  0
LINE
  5
194
100
AcDbEntity
100
AcDbLine
  8
Otwor
 62
256
370
-1
  6
ByLayer
 10
124.2999999999999545
 20
113.2499999999999716
 30
0.0
 11
112.2999999999999545
 21
113.2499999999999574
 31
0.0
  0
LINE
  5
195
100
AcDbEntity
100
AcDbLine
  8
Otwor
 62
256
370
-1
  6
ByLayer
 10
150.4999999999999432
 20
113.2499999999999716
 30
0.0
 11
125.4999999999999432
 21
113.2499999999998863
 31
0.0
  0
LINE
  5
196
100
AcDbEntity
100
AcDbLine
  8
Otwor
 62
256
370
-1
  6
ByLayer
 10
150.4999999999999432
 20
106.7499999999999574
 30
0.0
 11
125.4999999999999716
 21
106.7499999999999716
 31
0.0
  0
LINE
  5
197
100
AcDbEntity
100
AcDbLine
  8
Otwor
 62
256
370
-1
  6
ByLayer
 10
150.4999999999999432
 20
113.2499999999999716
 30
0.0
 11
150.4999999999999432
 21
106.7499999999999574
 31
0.0
  0
LINE
  5
198
100
AcDbEntity
100
AcDbLine
  8
Otwor
 62
256
370
-1
  6
ByLayer
 10
144.0999999999999375
 20
129.8499999999999091
 30
0.0
 11
132.0999999999999375
 21
129.850000000000108
 31
0.0
  0
LINE
  5
199
100
AcDbEntity
100
AcDbLine
  8
Otwor
 62
256
370
-1
  6
ByLayer
 10
144.0999999999999375
 20
129.8499999999999091
 30
0.0
 11
144.0999999999999375
 21
136.3500000000000227
 31
0.0
  0
LINE
  5
19A
100
AcDbEntity
100
AcDbLine
  8
Otwor
 62
256
370
-1
  6
ByLayer
 10
144.0999999999999375
 20
136.3500000000000227
 30
0.0
 11
132.0999999999999659
 21
136.3500000000000227
 31
0.0
  0
LINE
  5
19B
100
AcDbEntity
100
AcDbLine
  8
Otwor
 62
256
370
-1
  6
ByLayer
 10
132.0999999999999375
 20
129.850000000000108
 30
0.0
 11
132.0999999999999659
 21
136.3500000000000227
 31
0.0
  0
LINE
  5
19C
100
AcDbEntity
100
AcDbLine
  8
Otwor
 62
256
370
-1
  6
ByLayer
 10
132.0999999999999375
 20
114.4500000000000313
 30
0.0
 11
132.0999999999999375
 21
120.9500000000003581
 31
0.0
  0
LINE
  5
19D
100
AcDbEntity
100
AcDbLine
  8
Otwor
 62
256
370
-1
  6
ByLayer
 10
144.0999999999999375
 20
114.4499999999999176
 30
0.0
 11
144.0999999999999375
 21
120.9500000000011397
 31
0.0
  0
LINE
  5
19E
100
AcDbEntity
100
AcDbLine
  8
Otwor
 62
256
370
-1
  6
ByLayer
 10
144.0999999999999375
 20
114.4499999999999176
 30
0.0
 11
132.0999999999999375
 21
114.4500000000000313
 31
0.0
  0
LINE
  5
19F
100
AcDbEntity
100
AcDbLine
  8
Otwor
 62
256
370
-1
  6
ByLayer
 10
132.0999999999999375
 20
120.9500000000003581
 30
0.0
 11
144.0999999999999375
 21
120.9500000000011397
 31
0.0
  0
LINE
  5
1A0
100
AcDbEntity
100
AcDbLine
  8
Otwor
 62
256
370
-1
  6
ByLayer
 10
111.0999999999999659
 20
75.9500000000000028
 30
0.0
 11
92.4999999999999147
 21
75.9499999999999602
 31
0.0
  0
LINE
  5
1A1
100
AcDbEntity
100
AcDbLine
  8
Otwor
 62
256
370
-1
  6
ByLayer
 10
111.0999999999999659
 20
75.9500000000000028
 30
0.0
 11
111.0999999999999375
 21
82.4499999999999744
 31
0.0
  0
LINE
  5
1A2
100
AcDbEntity
100
AcDbLine
  8
Otwor
 62
256
370
-1
  6
ByLayer
 10
111.0999999999999375
 20
82.4499999999999744
 30
0.0
 11
92.4999999999999432
 21
82.4499999999999886
 31
0.0
  0
LINE
  5
1A3
100
AcDbEntity
100
AcDbLine
  8
Otwor
 62
256
370
-1
  6
ByLayer
 10
112.2999999999999261
 20
75.9499999999999602
 30
0.0
 11
112.2999999999999545
 21
82.4499999999999886
 31
0.0
  0
LINE
  5
1A4
100
AcDbEntity
100
AcDbLine
  8
Otwor
 62
256
370
-1
  6
ByLayer
 10
125.4999999999999716
 20
75.9500000000000313
 30
0.0
 11
125.4999999999999716
 21
82.4500000000000171
 31
0.0
  0
LINE
  5
1A5
100
AcDbEntity
100
AcDbLine
  8
Otwor
 62
256
370
-1
  6
ByLayer
 10
124.2999999999999545
 20
75.9500000000000455
 30
0.0
 11
112.2999999999999261
 21
75.9499999999999602
 31
0.0
  0
LINE
  5
1A6
100
AcDbEntity
100
AcDbLine
  8
Otwor
 62
256
370
-1
  6
ByLayer
 10
124.2999999999999545
 20
75.9500000000000455
 30
0.0
 11
124.2999999999999261
 21
82.4499999999999602
 31
0.0
  0
LINE
  5
1A7
100
AcDbEntity
100
AcDbLine
  8
Otwor
 62
256
370
-1
  6
ByLayer
 10
124.2999999999999261
 20
82.4499999999999602
 30
0.0
 11
112.2999999999999545
 21
82.4499999999999886
 31
0.0
  0
LINE
  5
1A8
100
AcDbEntity
100
AcDbLine
  8
Otwor
 62
256
370
-1
  6
ByLayer
 10
150.4999999999999432
 20
82.4499999999999886
 30
0.0
 11
125.4999999999999716
 21
82.4500000000000171
 31
0.0
  0
LINE
  5
1A9
100
AcDbEntity
100
AcDbLine
  8
Otwor
 62
256
370
-1
  6
ByLayer
 10
150.4999999999999432
 20
75.9499999999999886
 30
0.0
 11
125.4999999999999716
 21
75.9500000000000313
 31
0.0
  0
LINE
  5
1AA
100
AcDbEntity
100
AcDbLine
  8
Otwor
 62
256
370
-1
  6
ByLayer
 10
150.4999999999999432
 20
82.4499999999999886
 30
0.0
 11
150.4999999999999432
 21
75.9499999999999886
 31
0.0
  0
LINE
  5
1AB
100
AcDbEntity
100
AcDbLine
  8
Otwor
 62
256
370
-1
  6
ByLayer
 10
92.4999999999999432
 20
82.4499999999999886
 30
0.0
 11
92.4999999999999147
 21
75.9499999999999602
 31
0.0
  0
LINE
  5
1AC
100
AcDbEntity
100
AcDbLine
  8
Otwor
 62
256
370
-1
  6
ByLayer
 10
111.0999999999999943
 20
45.1500000000000341
 30
0.0
 11
92.4999999999998863
 21
45.1499999999999488
 31
0.0
  0
LINE
  5
1AD
100
AcDbEntity
100
AcDbLine
  8
Otwor
 62
256
370
-1
  6
ByLayer
 10
111.0999999999999943
 20
45.1500000000000341
 30
0.0
 11
111.0999999999999375
 21
51.6499999999999915
 31
0.0
  0
LINE
  5
1AE
100
AcDbEntity
100
AcDbLine
  8
Otwor
 62
256
370
-1
  6
ByLayer
 10
111.0999999999999375
 20
51.6499999999999915
 30
0.0
 11
92.4999999999999716
 21
51.6500000000000057
 31
0.0
  0
LINE
  5
1AF
100
AcDbEntity
100
AcDbLine
  8
Otwor
 62
256
370
-1
  6
ByLayer
 10
112.2999999999999261
 20
45.1499999999999773
 30
0.0
 11
112.2999999999999545
 21
51.6499999999999773
 31
0.0
  0
LINE
  5
1B0
100
AcDbEntity
100
AcDbLine
  8
Otwor
 62
256
370
-1
  6
ByLayer
 10
125.4999999999998863
 20
45.1499999999999204
 30
0.0
 11
125.4999999999999432
 21
51.6499999999999773
 31
0.0
  0
LINE
  5
1B1
100
AcDbEntity
100
AcDbLine
  8
Otwor
 62
256
370
-1
  6
ByLayer
 10
124.2999999999999261
 20
45.1499999999999915
 30
0.0
 11
112.2999999999999261
 21
45.1499999999999773
 31
0.0
  0
LINE
  5
1B2
100
AcDbEntity
100
AcDbLine
  8
Otwor
 62
256
370
-1
  6
ByLayer
 10
124.2999999999999261
 20
45.1499999999999915
 30
0.0
 11
124.2999999999999545
 21
51.6500000000000057
 31
0.0
  0
LINE
  5
1B3
100
AcDbEntity
100
AcDbLine
  8
Otwor
 62
256
370
-1
  6
ByLayer
 10
124.2999999999999545
 20
51.6500000000000057
 30
0.0
 11
112.2999999999999545
 21
51.6499999999999773
 31
0.0
  0
LINE
  5
1B4
100
AcDbEntity
100
AcDbLine
  8
Otwor
 62
256
370
-1
  6
ByLayer
 10
150.4999999999999147
 20
51.6499999999999204
 30
0.0
 11
125.4999999999999432
 21
51.6499999999999773
 31
0.0
  0
LINE
  5
1B5
100
AcDbEntity
100
AcDbLine
  8
Otwor
 62
256
370
-1
  6
ByLayer
 10
150.4999999999999716
 20
45.1500000000000341
 30
0.0
 11
125.4999999999998863
 21
45.1499999999999204
 31
0.0
  0
LINE
  5
1B6
100
AcDbEntity
100
AcDbLine
  8
Otwor
 62
256
370
-1
  6
ByLayer
 10
150.4999999999999147
 20
51.6499999999999204
 30
0.0
 11
150.4999999999999716
 21
45.1500000000000341
 31
0.0
  0
LINE
  5
1B7
100
AcDbEntity
100
AcDbLine
  8
Otwor
 62
256
370
-1
  6
ByLayer
 10
92.4999999999999716
 20
51.6500000000000057
 30
0.0
 11
92.4999999999998863
 21
45.1499999999999488
 31
0.0
  0
LINE
  5
1B8
100
AcDbEntity
100
AcDbLine
  8
Otwor
 62
256
370
-1
  6
ByLayer
 10
111.0999999999999659
 20
14.3500000000000085
 30
0.0
 11
92.4999999999999147
 21
14.3499999999999801
 31
0.0
  0
LINE
  5
1B9
100
AcDbEntity
100
AcDbLine
  8
Otwor
 62
256
370
-1
  6
ByLayer
 10
111.0999999999999659
 20
14.3500000000000085
 30
0.0
 11
111.0999999999999091
 21
20.8499999999999801
 31
0.0
  0
LINE
  5
1BA
100
AcDbEntity
100
AcDbLine
  8
Otwor
 62
256
370
-1
  6
ByLayer
 10
111.0999999999999091
 20
20.8499999999999801
 30
0.0
 11
92.4999999999999432
 21
20.8499999999999943
 31
0.0
  0
LINE
  5
1BB
100
AcDbEntity
100
AcDbLine
  8
Otwor
 62
256
370
-1
  6
ByLayer
 10
112.2999999999999545
 20
14.3500000000000085
 30
0.0
 11
112.2999999999999261
 21
20.8499999999999801
 31
0.0
  0
LINE
  5
1BC
100
AcDbEntity
100
AcDbLine
  8
Otwor
 62
256
370
-1
  6
ByLayer
 10
125.4999999999998863
 20
14.3499999999999375
 30
0.0
 11
125.4999999999999432
 21
20.8499999999999943
 31
0.0
  0
LINE
  5
1BD
100
AcDbEntity
100
AcDbLine
  8
Otwor
 62
256
370
-1
  6
ByLayer
 10
124.2999999999999545
 20
14.3499999999999801
 30
0.0
 11
112.2999999999999545
 21
14.3500000000000085
 31
0.0
  0
LINE
  5
1BE
100
AcDbEntity
100
AcDbLine
  8
Otwor
 62
256
370
-1
  6
ByLayer
 10
124.2999999999999545
 20
14.3499999999999801
 30
0.0
 11
124.2999999999999261
 21
20.8499999999999659
 31
0.0
  0
LINE
  5
1BF
100
AcDbEntity
100
AcDbLine
  8
Otwor
 62
256
370
-1
  6
ByLayer
 10
124.2999999999999261
 20
20.8499999999999659
 30
0.0
 11
112.2999999999999261
 21
20.8499999999999801
 31
0.0
  0
LINE
  5
1C0
100
AcDbEntity
100
AcDbLine
  8
Otwor
 62
256
370
-1
  6
ByLayer
 10
150.4999999999999432
 20
20.8500000000000085
 30
0.0
 11
125.4999999999999432
 21
20.8499999999999943
 31
0.0
  0
LINE
  5
1C1
100
AcDbEntity
100
AcDbLine
  8
Otwor
 62
256
370
-1
  6
ByLayer
 10
150.4999999999999432
 20
14.3499999999999801
 30
0.0
 11
125.4999999999998863
 21
14.3499999999999375
 31
0.0
  0
LINE
  5
1C2
100
AcDbEntity
100
AcDbLine
  8
Otwor
 62
256
370
-1
  6
ByLayer
 10
150.4999999999999432
 20
20.8500000000000085
 30
0.0
 11
150.4999999999999432
 21
14.3499999999999801
 31
0.0
  0
LINE
  5
1C3
100
AcDbEntity
100
AcDbLine
  8
Otwor
 62
256
370
-1
  6
ByLayer
 10
92.4999999999999432
 20
20.8499999999999943
 30
0.0
 11
92.4999999999999147
 21
14.3499999999999801
 31
0.0
  0
LINE
  5
1C4
100
AcDbEntity
100
AcDbLine
  8
Otwor
 62
256
370
-1
  6
ByLayer
 10
111.0999999999999091
 20
-16.4499999999999886
 30
0.0
 11
92.4999999999999289
 21
-16.4500000000000171
 31
0.0
  0
LINE
  5
1C5
100
AcDbEntity
100
AcDbLine
  8
Otwor
 62
256
370
-1
  6
ByLayer
 10
111.0999999999999091
 20
-16.4499999999999886
 30
0.0
 11
111.0999999999998806
 21
-9.9500000000000455
 31
0.0
  0
LINE
  5
1C6
100
AcDbEntity
100
AcDbLine
  8
Otwor
 62
256
370
-1
  6
ByLayer
 10
111.0999999999998806
 20
-9.9500000000000455
 30
0.0
 11
92.4999999999999005
 21
-9.9499999999999886
 31
0.0
  0
LINE
  5
1C7
100
AcDbEntity
100
AcDbLine
  8
Otwor
 62
256
370
-1
  6
ByLayer
 10
112.2999999999999261
 20
-16.4500000000000171
 30
0.0
 11
112.2999999999999261
 21
-9.9499999999999886
 31
0.0
  0
LINE
  5
1C8
100
AcDbEntity
100
AcDbLine
  8
Otwor
 62
256
370
-1
  6
ByLayer
 10
125.5000000000000284
 20
-16.4499999999999602
 30
0.0
 11
125.4999999999998579
 21
-9.9500000000000739
 31
0.0
  0
LINE
  5
1C9
100
AcDbEntity
100
AcDbLine
  8
Otwor
 62
256
370
-1
  6
ByLayer
 10
124.2999999999999829
 20
-16.4499999999999602
 30
0.0
 11
112.2999999999999261
 21
-16.4500000000000171
 31
0.0
  0
LINE
  5
1CA
100
AcDbEntity
100
AcDbLine
  8
Otwor
 62
256
370
-1
  6
ByLayer
 10
124.2999999999999829
 20
-16.4499999999999602
 30
0.0
 11
124.2999999999999829
 21
-9.9499999999999886
 31
0.0
  0
LINE
  5
1CB
100
AcDbEntity
100
AcDbLine
  8
Otwor
 62
256
370
-1
  6
ByLayer
 10
124.2999999999999829
 20
-9.9499999999999886
 30
0.0
 11
112.2999999999999261
 21
-9.9499999999999886
 31
0.0
  0
LINE
  5
1CC
100
AcDbEntity
100
AcDbLine
  8
Otwor
 62
256
370
-1
  6
ByLayer
 10
150.4999999999999716
 20
-9.9500000000000171
 30
0.0
 11
125.4999999999998579
 21
-9.9500000000000739
 31
0.0
  0
LINE
  5
1CD
100
AcDbEntity
100
AcDbLine
  8
Otwor
 62
256
370
-1
  6
ByLayer
 10
150.5000000000000284
 20
-16.4499999999999318
 30
0.0
 11
125.5000000000000284
 21
-16.4499999999999602
 31
0.0
  0
LINE
  5
1CE
100
AcDbEntity
100
AcDbLine
  8
Otwor
 62
256
370
-1
  6
ByLayer
 10
150.4999999999999716
 20
-9.9500000000000171
 30
0.0
 11
150.5000000000000284
 21
-16.4499999999999318
 31
0.0
  0
LINE
  5
1CF
100
AcDbEntity
100
AcDbLine
  8
Otwor
 62
256
370
-1
  6
ByLayer
 10
92.4999999999999005
 20
-9.9499999999999886
 30
0.0
 11
92.4999999999999289
 21
-16.4500000000000171
 31
0.0
  0
LINE
  5
1D0
100
AcDbEntity
100
AcDbLine
  8
Otwor
 62
256
370
-1
  6
ByLayer
 10
104.4999999999999432
 20
99.0499999999999829
 30
0.0
 11
104.4999999999999432
 21
105.5499999999999403
 31
0.0
  0
LINE
  5
1D1
100
AcDbEntity
100
AcDbLine
  8
Otwor
 62
256
370
-1
  6
ByLayer
 10
105.6999999999999318
 20
99.0499999999999403
 30
0.0
 11
105.6999999999999318
 21
105.5499999999999261
 31
0.0
  0
LINE
  5
1D2
100
AcDbEntity
100
AcDbLine
  8
Otwor
 62
256
370
-1
  6
ByLayer
 10
117.6999999999999318
 20
99.0499999999999261
 30
0.0
 11
117.6999999999999602
 21
105.5500000000000256
 31
0.0
  0
LINE
  5
1D3
100
AcDbEntity
100
AcDbLine
  8
Otwor
 62
256
370
-1
  6
ByLayer
 10
118.8999999999999488
 20
99.0499999999999829
 30
0.0
 11
118.8999999999999488
 21
105.5499999999999829
 31
0.0
  0
LINE
  5
1D4
100
AcDbEntity
100
AcDbLine
  8
Otwor
 62
256
370
-1
  6
ByLayer
 10
130.8999999999999488
 20
99.0499999999999972
 30
0.0
 11
130.8999999999999488
 21
105.5499999999999829
 31
0.0
  0
LINE
  5
1D5
100
AcDbEntity
100
AcDbLine
  8
Otwor
 62
256
370
-1
  6
ByLayer
 10
130.8999999999999488
 20
99.0499999999999972
 30
0.0
 11
118.8999999999999488
 21
99.0499999999999829
 31
0.0
  0
LINE
  5
1D6
100
AcDbEntity
100
AcDbLine
  8
Otwor
 62
256
370
-1
  6
ByLayer
 10
117.6999999999999318
 20
99.0499999999999261
 30
0.0
 11
105.6999999999999318
 21
99.0499999999999403
 31
0.0
  0
LINE
  5
1D7
100
AcDbEntity
100
AcDbLine
  8
Otwor
 62
256
370
-1
  6
ByLayer
 10
105.6999999999999318
 20
105.5499999999999261
 30
0.0
 11
117.6999999999999602
 21
105.5500000000000256
 31
0.0
  0
LINE
  5
1D8
100
AcDbEntity
100
AcDbLine
  8
Otwor
 62
256
370
-1
  6
ByLayer
 10
118.8999999999999488
 20
105.5499999999999829
 30
0.0
 11
130.8999999999999488
 21
105.5499999999999829
 31
0.0
  0
LINE
  5
1D9
100
AcDbEntity
100
AcDbLine
  8
Otwor
 62
256
370
-1
  6
ByLayer
 10
132.0999999999999659
 20
99.0500000000000256
 30
0.0
 11
132.0999999999999659
 21
105.5500000000000398
 31
0.0
  0
LINE
  5
1DA
100
AcDbEntity
100
AcDbLine
  8
Otwor
 62
256
370
-1
  6
ByLayer
 10
144.0999999999999659
 20
99.0500000000000682
 30
0.0
 11
144.0999999999999375
 21
105.5500000000000114
 31
0.0
  0
LINE
  5
1DB
100
AcDbEntity
100
AcDbLine
  8
Otwor
 62
256
370
-1
  6
ByLayer
 10
144.0999999999999659
 20
99.0500000000000682
 30
0.0
 11
132.0999999999999659
 21
99.0500000000000256
 31
0.0
  0
LINE
  5
1DC
100
AcDbEntity
100
AcDbLine
  8
Otwor
 62
256
370
-1
  6
ByLayer
 10
132.0999999999999659
 20
105.5500000000000398
 30
0.0
 11
144.0999999999999375
 21
105.5500000000000114
 31
0.0
  0
LINE
  5
1DD
100
AcDbEntity
100
AcDbLine
  8
Otwor
 62
256
370
-1
  6
ByLayer
 10
104.4999999999999432
 20
99.0499999999999829
 30
0.0
 11
92.4999999999999432
 21
99.0499999999999972
 31
0.0
  0
LINE
  5
1DE
100
AcDbEntity
100
AcDbLine
  8
Otwor
 62
256
370
-1
  6
ByLayer
 10
104.4999999999999432
 20
105.5499999999999403
 30
0.0
 11
92.4999999999999432
 21
105.5499999999999829
 31
0.0
  0
LINE
  5
1DF
100
AcDbEntity
100
AcDbLine
  8
Otwor
 62
256
370
-1
  6
ByLayer
 10
104.4999999999999432
 20
83.6499999999999773
 30
0.0
 11
104.4999999999999432
 21
90.1499999999999631
 31
0.0
  0
LINE
  5
1E0
100
AcDbEntity
100
AcDbLine
  8
Otwor
 62
256
370
-1
  6
ByLayer
 10
105.6999999999999602
 20
83.6499999999999488
 30
0.0
 11
105.6999999999999318
 21
90.1499999999999631
 31
0.0
  0
LINE
  5
1E1
100
AcDbEntity
100
AcDbLine
  8
Otwor
 62
256
370
-1
  6
ByLayer
 10
117.6999999999999318
 20
83.6499999999999346
 30
0.0
 11
117.6999999999999318
 21
90.1499999999999204
 31
0.0
  0
LINE
  5
1E2
100
AcDbEntity
100
AcDbLine
  8
Otwor
 62
256
370
-1
  6
ByLayer
 10
118.8999999999999488
 20
83.6499999999999488
 30
0.0
 11
118.8999999999999488
 21
90.1499999999999773
 31
0.0
  0
LINE
  5
1E3
100
AcDbEntity
100
AcDbLine
  8
Otwor
 62
256
370
-1
  6
ByLayer
 10
130.8999999999999488
 20
83.6499999999999488
 30
0.0
 11
130.8999999999999488
 21
90.1499999999999773
 31
0.0
  0
LINE
  5
1E4
100
AcDbEntity
100
AcDbLine
  8
Otwor
 62
256
370
-1
  6
ByLayer
 10
130.8999999999999488
 20
83.6499999999999488
 30
0.0
 11
118.8999999999999488
 21
83.6499999999999488
 31
0.0
  0
LINE
  5
1E5
100
AcDbEntity
100
AcDbLine
  8
Otwor
 62
256
370
-1
  6
ByLayer
 10
117.6999999999999318
 20
83.6499999999999346
 30
0.0
 11
105.6999999999999602
 21
83.6499999999999488
 31
0.0
  0
LINE
  5
1E6
100
AcDbEntity
100
AcDbLine
  8
Otwor
 62
256
370
-1
  6
ByLayer
 10
105.6999999999999318
 20
90.1499999999999631
 30
0.0
 11
117.6999999999999318
 21
90.1499999999999204
 31
0.0
  0
LINE
  5
1E7
100
AcDbEntity
100
AcDbLine
  8
Otwor
 62
256
370
-1
  6
ByLayer
 10
118.8999999999999488
 20
90.1499999999999773
 30
0.0
 11
130.8999999999999488
 21
90.1499999999999773
 31
0.0
  0
LINE
  5
1E8
100
AcDbEntity
100
AcDbLine
  8
Otwor
 62
256
370
-1
  6
ByLayer
 10
132.0999999999999375
 20
83.6499999999999773
 30
0.0
 11
132.0999999999999375
 21
90.1499999999999346
 31
0.0
  0
LINE
  5
1E9
100
AcDbEntity
100
AcDbLine
  8
Otwor
 62
256
370
-1
  6
ByLayer
 10
144.0999999999999375
 20
83.6499999999999631
 30
0.0
 11
144.0999999999999375
 21
90.1499999999999915
 31
0.0
  0
LINE
  5
1EA
100
AcDbEntity
100
AcDbLine
  8
Otwor
 62
256
370
-1
  6
ByLayer
 10
144.0999999999999375
 20
83.6499999999999631
 30
0.0
 11
132.0999999999999375
 21
83.6499999999999773
 31
0.0
  0
LINE
  5
1EB
100
AcDbEntity
100
AcDbLine
  8
Otwor
 62
256
370
-1
  6
ByLayer
 10
132.0999999999999375
 20
90.1499999999999346
 30
0.0
 11
144.0999999999999375
 21
90.1499999999999915
 31
0.0
  0
LINE
  5
1EC
100
AcDbEntity
100
AcDbLine
  8
Otwor
 62
256
370
-1
  6
ByLayer
 10
104.4999999999999432
 20
83.6499999999999773
 30
0.0
 11
92.4999999999999432
 21
83.6499999999999773
 31
0.0
  0
LINE
  5
1ED
100
AcDbEntity
100
AcDbLine
  8
Otwor
 62
256
370
-1
  6
ByLayer
 10
104.4999999999999432
 20
90.1499999999999631
 30
0.0
 11
92.4999999999999432
 21
90.1499999999999631
 31
0.0
  0
LINE
  5
1EE
100
AcDbEntity
100
AcDbLine
  8
Otwor
 62
256
370
-1
  6
ByLayer
 10
104.4999999999999716
 20
68.2499999999999858
 30
0.0
 11
104.4999999999999432
 21
74.7499999999999432
 31
0.0
  0
LINE
  5
1EF
100
AcDbEntity
100
AcDbLine
  8
Otwor
 62
256
370
-1
  6
ByLayer
 10
105.6999999999999886
 20
68.25
 30
0.0
 11
105.6999999999999318
 21
74.7499999999999432
 31
0.0
  0
LINE
  5
1F0
100
AcDbEntity
100
AcDbLine
  8
Otwor
 62
256
370
-1
  6
ByLayer
 10
117.6999999999999318
 20
68.2499999999999289
 30
0.0
 11
117.6999999999999318
 21
74.7499999999999289
 31
0.0
  0
LINE
  5
1F1
100
AcDbEntity
100
AcDbLine
  8
Otwor
 62
256
370
-1
  6
ByLayer
 10
118.8999999999999204
 20
68.2499999999999432
 30
0.0
 11
118.8999999999999488
 21
74.7499999999999574
 31
0.0
  0
LINE
  5
1F2
100
AcDbEntity
100
AcDbLine
  8
Otwor
 62
256
370
-1
  6
ByLayer
 10
130.8999999999999488
 20
68.2499999999999716
 30
0.0
 11
130.8999999999999773
 21
74.7500000000000284
 31
0.0
  0
LINE
  5
1F3
100
AcDbEntity
100
AcDbLine
  8
Otwor
 62
256
370
-1
  6
ByLayer
 10
130.8999999999999488
 20
68.2499999999999716
 30
0.0
 11
118.8999999999999204
 21
68.2499999999999432
 31
0.0
  0
LINE
  5
1F4
100
AcDbEntity
100
AcDbLine
  8
Otwor
 62
256
370
-1
  6
ByLayer
 10
117.6999999999999318
 20
68.2499999999999289
 30
0.0
 11
105.6999999999999886
 21
68.25
 31
0.0
  0
LINE
  5
1F5
100
AcDbEntity
100
AcDbLine
  8
Otwor
 62
256
370
-1
  6
ByLayer
 10
105.6999999999999318
 20
74.7499999999999432
 30
0.0
 11
117.6999999999999318
 21
74.7499999999999289
 31
0.0
  0
LINE
  5
1F6
100
AcDbEntity
100
AcDbLine
  8
Otwor
 62
256
370
-1
  6
ByLayer
 10
118.8999999999999488
 20
74.7499999999999574
 30
0.0
 11
130.8999999999999773
 21
74.7500000000000284
 31
0.0
  0
LINE
  5
1F7
100
AcDbEntity
100
AcDbLine
  8
Otwor
 62
256
370
-1
  6
ByLayer
 10
132.0999999999999375
 20
68.2499999999999574
 30
0.0
 11
132.0999999999999091
 21
74.7499999999999432
 31
0.0
  0
LINE
  5
1F8
100
AcDbEntity
100
AcDbLine
  8
Otwor
 62
256
370
-1
  6
ByLayer
 10
144.0999999999999091
 20
68.2499999999999574
 30
0.0
 11
144.0999999999999375
 21
74.7499999999999432
 31
0.0
  0
LINE
  5
1F9
100
AcDbEntity
100
AcDbLine
  8
Otwor
 62
256
370
-1
  6
ByLayer
 10
144.0999999999999091
 20
68.2499999999999574
 30
0.0
 11
132.0999999999999375
 21
68.2499999999999574
 31
0.0
  0
LINE
  5
1FA
100
AcDbEntity
100
AcDbLine
  8
Otwor
 62
256
370
-1
  6
ByLayer
 10
132.0999999999999091
 20
74.7499999999999432
 30
0.0
 11
144.0999999999999375
 21
74.7499999999999432
 31
0.0
  0
LINE
  5
1FB
100
AcDbEntity
100
AcDbLine
  8
Otwor
 62
256
370
-1
  6
ByLayer
 10
104.4999999999999716
 20
68.2499999999999858
 30
0.0
 11
92.4999999999999574
 21
68.2499999999999716
 31
0.0
  0
LINE
  5
1FC
100
AcDbEntity
100
AcDbLine
  8
Otwor
 62
256
370
-1
  6
ByLayer
 10
104.4999999999999432
 20
74.7499999999999432
 30
0.0
 11
92.4999999999999716
 21
74.75
 31
0.0
  0
LINE
  5
1FD
100
AcDbEntity
100
AcDbLine
  8
Otwor
 62
256
370
-1
  6
ByLayer
 10
104.4999999999999432
 20
52.8499999999999517
 30
0.0
 11
104.4999999999999147
 21
59.3499999999999304
 31
0.0
  0
LINE
  5
1FE
100
AcDbEntity
100
AcDbLine
  8
Otwor
 62
256
370
-1
  6
ByLayer
 10
105.6999999999999034
 20
52.8499999999999233
 30
0.0
 11
105.6999999999999034
 21
59.3499999999999091
 31
0.0
  0
LINE
  5
1FF
100
AcDbEntity
100
AcDbLine
  8
Otwor
 62
256
370
-1
  6
ByLayer
 10
117.6999999999999318
 20
52.8499999999999233
 30
0.0
 11
117.6999999999999318
 21
59.3499999999999375
 31
0.0
  0
LINE
  5
200
100
AcDbEntity
100
AcDbLine
  8
Otwor
 62
256
370
-1
  6
ByLayer
 10
118.8999999999999488
 20
52.8499999999999517
 30
0.0
 11
118.8999999999999204
 21
59.3499999999999162
 31
0.0
  0
LINE
  5
201
100
AcDbEntity
100
AcDbLine
  8
Otwor
 62
256
370
-1
  6
ByLayer
 10
130.8999999999999204
 20
52.8499999999999091
 30
0.0
 11
130.9000000000000057
 21
59.3500000000000298
 31
0.0
  0
LINE
  5
202
100
AcDbEntity
100
AcDbLine
  8
Otwor
 62
256
370
-1
  6
ByLayer
 10
130.8999999999999204
 20
52.8499999999999091
 30
0.0
 11
118.8999999999999488
 21
52.8499999999999517
 31
0.0
  0
LINE
  5
203
100
AcDbEntity
100
AcDbLine
  8
Otwor
 62
256
370
-1
  6
ByLayer
 10
117.6999999999999318
 20
52.8499999999999233
 30
0.0
 11
105.6999999999999034
 21
52.8499999999999233
 31
0.0
  0
LINE
  5
204
100
AcDbEntity
100
AcDbLine
  8
Otwor
 62
256
370
-1
  6
ByLayer
 10
105.6999999999999034
 20
59.3499999999999091
 30
0.0
 11
117.6999999999999318
 21
59.3499999999999375
 31
0.0
  0
LINE
  5
205
100
AcDbEntity
100
AcDbLine
  8
Otwor
 62
256
370
-1
  6
ByLayer
 10
118.8999999999999204
 20
59.3499999999999162
 30
0.0
 11
130.9000000000000057
 21
59.3500000000000298
 31
0.0
  0
LINE
  5
206
100
AcDbEntity
100
AcDbLine
  8
Otwor
 62
256
370
-1
  6
ByLayer
 10
132.0999999999999375
 20
52.8499999999999801
 30
0.0
 11
132.0999999999999375
 21
59.3499999999999446
 31
0.0
  0
LINE
  5
207
100
AcDbEntity
100
AcDbLine
  8
Otwor
 62
256
370
-1
  6
ByLayer
 10
144.0999999999999091
 20
52.8499999999999091
 30
0.0
 11
144.0999999999999091
 21
59.3499999999998948
 31
0.0
  0
LINE
  5
208
100
AcDbEntity
100
AcDbLine
  8
Otwor
 62
256
370
-1
  6
ByLayer
 10
144.0999999999999091
 20
52.8499999999999091
 30
0.0
 11
132.0999999999999375
 21
52.8499999999999801
 31
0.0
  0
LINE
  5
209
100
AcDbEntity
100
AcDbLine
  8
Otwor
 62
256
370
-1
  6
ByLayer
 10
132.0999999999999375
 20
59.3499999999999446
 30
0.0
 11
144.0999999999999091
 21
59.3499999999998948
 31
0.0
  0
LINE
  5
20A
100
AcDbEntity
100
AcDbLine
  8
Otwor
 62
256
370
-1
  6
ByLayer
 10
104.4999999999999432
 20
52.8499999999999517
 30
0.0
 11
92.4999999999999432
 21
52.8499999999999801
 31
0.0
  0
LINE
  5
20B
100
AcDbEntity
100
AcDbLine
  8
Otwor
 62
256
370
-1
  6
ByLayer
 10
104.4999999999999147
 20
59.3499999999999304
 30
0.0
 11
92.4999999999999716
 21
59.3499999999999801
 31
0.0
  0
LINE
  5
20C
100
AcDbEntity
100
AcDbLine
  8
Otwor
 62
256
370
-1
  6
ByLayer
 10
104.4999999999999147
 20
37.4499999999999318
 30
0.0
 11
104.4999999999999432
 21
43.9499999999999602
 31
0.0
  0
LINE
  5
20D
100
AcDbEntity
100
AcDbLine
  8
Otwor
 62
256
370
-1
  6
ByLayer
 10
105.6999999999999034
 20
37.4499999999999176
 30
0.0
 11
105.6999999999999034
 21
43.9499999999999318
 31
0.0
  0
LINE
  5
20E
100
AcDbEntity
100
AcDbLine
  8
Otwor
 62
256
370
-1
  6
ByLayer
 10
117.6999999999999602
 20
37.4499999999999602
 30
0.0
 11
117.6999999999999602
 21
43.9499999999999744
 31
0.0
  0
LINE
  5
20F
100
AcDbEntity
100
AcDbLine
  8
Otwor
 62
256
370
-1
  6
ByLayer
 10
118.8999999999999773
 20
37.4499999999999744
 30
0.0
 11
118.8999999999999204
 21
43.9499999999999318
 31
0.0
  0
LINE
  5
210
100
AcDbEntity
100
AcDbLine
  8
Otwor
 62
256
370
-1
  6
ByLayer
 10
130.8999999999999204
 20
37.4499999999999318
 30
0.0
 11
130.8999999999999773
 21
43.9499999999999886
 31
0.0
  0
LINE
  5
211
100
AcDbEntity
100
AcDbLine
  8
Otwor
 62
256
370
-1
  6
ByLayer
 10
130.8999999999999204
 20
37.4499999999999318
 30
0.0
 11
118.8999999999999773
 21
37.4499999999999744
 31
0.0
  0
LINE
  5
212
100
AcDbEntity
100
AcDbLine
  8
Otwor
 62
256
370
-1
  6
ByLayer
 10
117.6999999999999602
 20
37.4499999999999602
 30
0.0
 11
105.6999999999999034
 21
37.4499999999999176
 31
0.0
  0
LINE
  5
213
100
AcDbEntity
100
AcDbLine
  8
Otwor
 62
256
370
-1
  6
ByLayer
 10
105.6999999999999034
 20
43.9499999999999318
 30
0.0
 11
117.6999999999999602
 21
43.9499999999999744
 31
0.0
  0
LINE
  5
214
100
AcDbEntity
100
AcDbLine
  8
Otwor
 62
256
370
-1
  6
ByLayer
 10
118.8999999999999204
 20
43.9499999999999318
 30
0.0
 11
130.8999999999999773
 21
43.9499999999999886
 31
0.0
  0
LINE
  5
215
100
AcDbEntity
100
AcDbLine
  8
Otwor
 62
256
370
-1
  6
ByLayer
 10
132.0999999999999375
 20
37.4499999999999602
 30
0.0
 11
132.0999999999999659
 21
43.9500000000000028
 31
0.0
  0
LINE
  5
216
100
AcDbEntity
100
AcDbLine
  8
Otwor
 62
256
370
-1
  6
ByLayer
 10
144.0999999999999091
 20
37.4499999999999176
 30
0.0
 11
144.0999999999999375
 21
43.9499999999999602
 31
0.0
  0
LINE
  5
217
100
AcDbEntity
100
AcDbLine
  8
Otwor
 62
256
370
-1
  6
ByLayer
 10
144.0999999999999091
 20
37.4499999999999176
 30
0.0
 11
132.0999999999999375
 21
37.4499999999999602
 31
0.0
  0
LINE
  5
218
100
AcDbEntity
100
AcDbLine
  8
Otwor
 62
256
370
-1
  6
ByLayer
 10
132.0999999999999659
 20
43.9500000000000028
 30
0.0
 11
144.0999999999999375
 21
43.9499999999999602
 31
0.0
  0
LINE
  5
219
100
AcDbEntity
100
AcDbLine
  8
Otwor
 62
256
370
-1
  6
ByLayer
 10
104.4999999999999147
 20
37.4499999999999318
 30
0.0
 11
92.4999999999999716
 21
37.4499999999999744
 31
0.0
  0
LINE
  5
21A
100
AcDbEntity
100
AcDbLine
  8
Otwor
 62
256
370
-1
  6
ByLayer
 10
104.4999999999999432
 20
43.9499999999999602
 30
0.0
 11
92.4999999999998863
 21
43.9499999999999176
 31
0.0
  0
LINE
  5
21B
100
AcDbEntity
100
AcDbLine
  8
Otwor
 62
256
370
-1
  6
ByLayer
 10
104.4999999999999147
 20
22.0499999999999261
 30
0.0
 11
104.4999999999999147
 21
28.5499999999999261
 31
0.0
  0
LINE
  5
21C
100
AcDbEntity
100
AcDbLine
  8
Otwor
 62
256
370
-1
  6
ByLayer
 10
105.6999999999999318
 20
22.0499999999999261
 30
0.0
 11
105.6999999999999034
 21
28.5499999999999403
 31
0.0
  0
LINE
  5
21D
100
AcDbEntity
100
AcDbLine
  8
Otwor
 62
256
370
-1
  6
ByLayer
 10
117.6999999999999602
 20
22.0499999999999403
 30
0.0
 11
117.6999999999999318
 21
28.5499999999999403
 31
0.0
  0
LINE
  5
21E
100
AcDbEntity
100
AcDbLine
  8
Otwor
 62
256
370
-1
  6
ByLayer
 10
118.9000000000000057
 20
22.0499999999999972
 30
0.0
 11
118.899999999999892
 21
28.5499999999999119
 31
0.0
  0
LINE
  5
21F
100
AcDbEntity
100
AcDbLine
  8
Otwor
 62
256
370
-1
  6
ByLayer
 10
130.9000000000000057
 20
22.0499999999999829
 30
0.0
 11
130.8999999999999204
 21
28.5499999999999403
 31
0.0
  0
LINE
  5
220
100
AcDbEntity
100
AcDbLine
  8
Otwor
 62
256
370
-1
  6
ByLayer
 10
130.9000000000000057
 20
22.0499999999999829
 30
0.0
 11
118.9000000000000057
 21
22.0499999999999972
 31
0.0
  0
LINE
  5
221
100
AcDbEntity
100
AcDbLine
  8
Otwor
 62
256
370
-1
  6
ByLayer
 10
117.6999999999999602
 20
22.0499999999999403
 30
0.0
 11
105.6999999999999318
 21
22.0499999999999261
 31
0.0
  0
LINE
  5
222
100
AcDbEntity
100
AcDbLine
  8
Otwor
 62
256
370
-1
  6
ByLayer
 10
105.6999999999999034
 20
28.5499999999999403
 30
0.0
 11
117.6999999999999318
 21
28.5499999999999403
 31
0.0
  0
LINE
  5
223
100
AcDbEntity
100
AcDbLine
  8
Otwor
 62
256
370
-1
  6
ByLayer
 10
118.899999999999892
 20
28.5499999999999119
 30
0.0
 11
130.8999999999999204
 21
28.5499999999999403
 31
0.0
  0
LINE
  5
224
100
AcDbEntity
100
AcDbLine
  8
Otwor
 62
256
370
-1
  6
ByLayer
 10
132.0999999999999091
 20
22.0499999999999261
 30
0.0
 11
132.0999999999999091
 21
28.5499999999999119
 31
0.0
  0
LINE
  5
225
100
AcDbEntity
100
AcDbLine
  8
Otwor
 62
256
370
-1
  6
ByLayer
 10
144.0999999999998806
 20
22.0499999999999119
 30
0.0
 11
144.0999999999999375
 21
28.5499999999999261
 31
0.0
  0
LINE
  5
226
100
AcDbEntity
100
AcDbLine
  8
Otwor
 62
256
370
-1
  6
ByLayer
 10
144.0999999999998806
 20
22.0499999999999119
 30
0.0
 11
132.0999999999999091
 21
22.0499999999999261
 31
0.0
  0
LINE
  5
227
100
AcDbEntity
100
AcDbLine
  8
Otwor
 62
256
370
-1
  6
ByLayer
 10
132.0999999999999091
 20
28.5499999999999119
 30
0.0
 11
144.0999999999999375
 21
28.5499999999999261
 31
0.0
  0
LINE
  5
228
100
AcDbEntity
100
AcDbLine
  8
Otwor
 62
256
370
-1
  6
ByLayer
 10
104.4999999999999147
 20
22.0499999999999261
 30
0.0
 11
92.4999999999999574
 21
22.0499999999999545
 31
0.0
  0
LINE
  5
229
100
AcDbEntity
100
AcDbLine
  8
Otwor
 62
256
370
-1
  6
ByLayer
 10
104.4999999999999147
 20
28.5499999999999261
 30
0.0
 11
92.4999999999998863
 21
28.5499999999999119
 31
0.0
  0
LINE
  5
22A
100
AcDbEntity
100
AcDbLine
  8
Otwor
 62
256
370
-1
  6
ByLayer
 10
104.4999999999999432
 20
6.6499999999999631
 30
0.0
 11
104.4999999999998863
 21
13.1499999999999062
 31
0.0
  0
LINE
  5
22B
100
AcDbEntity
100
AcDbLine
  8
Otwor
 62
256
370
-1
  6
ByLayer
 10
105.6999999999999034
 20
6.6499999999999204
 30
0.0
 11
105.6999999999999886
 21
13.1499999999999631
 31
0.0
  0
LINE
  5
22C
100
AcDbEntity
100
AcDbLine
  8
Otwor
 62
256
370
-1
  6
ByLayer
 10
117.6999999999999034
 20
6.6499999999999204
 30
0.0
 11
117.6999999999999318
 21
13.1499999999999346
 31
0.0
  0
LINE
  5
22D
100
AcDbEntity
100
AcDbLine
  8
Otwor
 62
256
370
-1
  6
ByLayer
 10
118.8999999999999488
 20
6.6499999999999204
 30
0.0
 11
118.899999999999892
 21
13.149999999999892
 31
0.0
  0
LINE
  5
22E
100
AcDbEntity
100
AcDbLine
  8
Otwor
 62
256
370
-1
  6
ByLayer
 10
130.8999999999999773
 20
6.6499999999999773
 30
0.0
 11
130.899999999999892
 21
13.1499999999998778
 31
0.0
  0
LINE
  5
22F
100
AcDbEntity
100
AcDbLine
  8
Otwor
 62
256
370
-1
  6
ByLayer
 10
130.8999999999999773
 20
6.6499999999999773
 30
0.0
 11
118.8999999999999488
 21
6.6499999999999204
 31
0.0
  0
LINE
  5
230
100
AcDbEntity
100
AcDbLine
  8
Otwor
 62
256
370
-1
  6
ByLayer
 10
117.6999999999999034
 20
6.6499999999999204
 30
0.0
 11
105.6999999999999034
 21
6.6499999999999204
 31
0.0
  0
LINE
  5
231
100
AcDbEntity
100
AcDbLine
  8
Otwor
 62
256
370
-1
  6
ByLayer
 10
105.6999999999999886
 20
13.1499999999999631
 30
0.0
 11
117.6999999999999318
 21
13.1499999999999346
 31
0.0
  0
LINE
  5
232
100
AcDbEntity
100
AcDbLine
  8
Otwor
 62
256
370
-1
  6
ByLayer
 10
118.899999999999892
 20
13.149999999999892
 30
0.0
 11
130.899999999999892
 21
13.1499999999998778
 31
0.0
  0
LINE
  5
233
100
AcDbEntity
100
AcDbLine
  8
Otwor
 62
256
370
-1
  6
ByLayer
 10
132.0999999999998522
 20
6.6499999999998778
 30
0.0
 11
132.0999999999999375
 21
13.1499999999999773
 31
0.0
  0
LINE
  5
234
100
AcDbEntity
100
AcDbLine
  8
Otwor
 62
256
370
-1
  6
ByLayer
 10
144.0999999999999091
 20
6.6499999999999346
 30
0.0
 11
144.0999999999999091
 21
13.1499999999999062
 31
0.0
  0
LINE
  5
235
100
AcDbEntity
100
AcDbLine
  8
Otwor
 62
256
370
-1
  6
ByLayer
 10
144.0999999999999091
 20
6.6499999999999346
 30
0.0
 11
132.0999999999998522
 21
6.6499999999998778
 31
0.0
  0
LINE
  5
236
100
AcDbEntity
100
AcDbLine
  8
Otwor
 62
256
370
-1
  6
ByLayer
 10
132.0999999999999375
 20
13.1499999999999773
 30
0.0
 11
144.0999999999999091
 21
13.1499999999999062
 31
0.0
  0
LINE
  5
237
100
AcDbEntity
100
AcDbLine
  8
Otwor
 62
256
370
-1
  6
ByLayer
 10
104.4999999999999432
 20
6.6499999999999631
 30
0.0
 11
92.4999999999999147
 21
6.6499999999999204
 31
0.0
  0
LINE
  5
238
100
AcDbEntity
100
AcDbLine
  8
Otwor
 62
256
370
-1
  6
ByLayer
 10
104.4999999999998863
 20
13.1499999999999062
 30
0.0
 11
92.4999999999999432
 21
13.1499999999999488
 31
0.0
  0
LINE
  5
239
100
AcDbEntity
100
AcDbLine
  8
Otwor
 62
256
370
-1
  6
ByLayer
 10
104.4999999999998863
 20
-8.7500000000000853
 30
0.0
 11
104.4999999999999432
 21
-2.2500000000000426
 31
0.0
  0
LINE
  5
23A
100
AcDbEntity
100
AcDbLine
  8
Otwor
 62
256
370
-1
  6
ByLayer
 10
105.6999999999999318
 20
-8.7500000000000568
 30
0.0
 11
105.7000000000000171
 21
-2.2500000000000284
 31
0.0
  0
LINE
  5
23B
100
AcDbEntity
100
AcDbLine
  8
Otwor
 62
256
370
-1
  6
ByLayer
 10
117.6999999999998749
 20
-8.7500000000001137
 30
0.0
 11
117.6999999999998749
 21
-2.2500000000000853
 31
0.0
  0
LINE
  5
23C
100
AcDbEntity
100
AcDbLine
  8
Otwor
 62
256
370
-1
  6
ByLayer
 10
118.8999999999998636
 20
-8.7500000000001137
 30
0.0
 11
118.8999999999999488
 21
-2.2500000000000568
 31
0.0
  0
LINE
  5
23D
100
AcDbEntity
100
AcDbLine
  8
Otwor
 62
256
370
-1
  6
ByLayer
 10
130.8999999999999204
 20
-8.7500000000001137
 30
0.0
 11
130.8999999999999488
 21
-2.2500000000000426
 31
0.0
  0
LINE
  5
23E
100
AcDbEntity
100
AcDbLine
  8
Otwor
 62
256
370
-1
  6
ByLayer
 10
130.8999999999999204
 20
-8.7500000000001137
 30
0.0
 11
118.8999999999998636
 21
-8.7500000000001137
 31
0.0
  0
LINE
  5
23F
100
AcDbEntity
100
AcDbLine
  8
Otwor
 62
256
370
-1
  6
ByLayer
 10
117.6999999999998749
 20
-8.7500000000001137
 30
0.0
 11
105.6999999999999318
 21
-8.7500000000000568
 31
0.0
  0
LINE
  5
240
100
AcDbEntity
100
AcDbLine
  8
Otwor
 62
256
370
-1
  6
ByLayer
 10
105.7000000000000171
 20
-2.2500000000000284
 30
0.0
 11
117.6999999999998749
 21
-2.2500000000000853
 31
0.0
  0
LINE
  5
241
100
AcDbEntity
100
AcDbLine
  8
Otwor
 62
256
370
-1
  6
ByLayer
 10
118.8999999999999488
 20
-2.2500000000000568
 30
0.0
 11
130.8999999999999488
 21
-2.2500000000000426
 31
0.0
  0
LINE
  5
242
100
AcDbEntity
100
AcDbLine
  8
Otwor
 62
256
370
-1
  6
ByLayer
 10
132.0999999999999091
 20
-8.7500000000000568
 30
0.0
 11
132.0999999999999943
 21
-2.25
 31
0.0
  0
LINE
  5
243
100
AcDbEntity
100
AcDbLine
  8
Otwor
 62
256
370
-1
  6
ByLayer
 10
144.0999999999999943
 20
-8.7500000000000284
 30
0.0
 11
144.0999999999999091
 21
-2.2500000000000711
 31
0.0
  0
LINE
  5
244
100
AcDbEntity
100
AcDbLine
  8
Otwor
 62
256
370
-1
  6
ByLayer
 10
144.0999999999999943
 20
-8.7500000000000284
 30
0.0
 11
132.0999999999999091
 21
-8.7500000000000568
 31
0.0
  0
LINE
  5
245
100
AcDbEntity
100
AcDbLine
  8
Otwor
 62
256
370
-1
  6
ByLayer
 10
132.0999999999999943
 20
-2.25
 30
0.0
 11
144.0999999999999091
 21
-2.2500000000000711
 31
0.0
  0
LINE
  5
246
100
AcDbEntity
100
AcDbLine
  8
Otwor
 62
256
370
-1
  6
ByLayer
 10
104.4999999999998863
 20
-8.7500000000000853
 30
0.0
 11
92.4999999999999147
 21
-8.7500000000000568
 31
0.0
  0
LINE
  5
247
100
AcDbEntity
100
AcDbLine
  8
Otwor
 62
256
370
-1
  6
ByLayer
 10
104.4999999999999432
 20
-2.2500000000000426
 30
0.0
 11
92.4999999999999147
 21
-2.2500000000000568
 31
0.0
  0
LINE
  5
248
100
AcDbEntity
100
AcDbLine
  8
Otwor
 62
256
370
-1
  6
ByLayer
 10
104.4999999999998863
 20
-24.1500000000000909
 30
0.0
 11
104.4999999999998863
 21
-17.6500000000001194
 31
0.0
  0
LINE
  5
249
100
AcDbEntity
100
AcDbLine
  8
Otwor
 62
256
370
-1
  6
ByLayer
 10
105.6999999999999318
 20
-24.1500000000000625
 30
0.0
 11
105.6999999999998749
 21
-17.6500000000000909
 31
0.0
  0
LINE
  5
24A
100
AcDbEntity
100
AcDbLine
  8
Otwor
 62
256
370
-1
  6
ByLayer
 10
117.6999999999998465
 20
-24.1500000000001194
 30
0.0
 11
117.6999999999999602
 21
-17.6500000000000625
 31
0.0
  0
LINE
  5
24B
100
AcDbEntity
100
AcDbLine
  8
Otwor
 62
256
370
-1
  6
ByLayer
 10
118.8999999999999204
 20
-24.1500000000000909
 30
0.0
 11
118.8999999999998636
 21
-17.6500000000001478
 31
0.0
  0
LINE
  5
24C
100
AcDbEntity
100
AcDbLine
  8
Otwor
 62
256
370
-1
  6
ByLayer
 10
130.8999999999999204
 20
-24.1500000000000909
 30
0.0
 11
130.899999999999892
 21
-17.6500000000001194
 31
0.0
  0
LINE
  5
24D
100
AcDbEntity
100
AcDbLine
  8
Otwor
 62
256
370
-1
  6
ByLayer
 10
130.8999999999999204
 20
-24.1500000000000909
 30
0.0
 11
118.8999999999999204
 21
-24.1500000000000909
 31
0.0
  0
LINE
  5
24E
100
AcDbEntity
100
AcDbLine
  8
Otwor
 62
256
370
-1
  6
ByLayer
 10
117.6999999999998465
 20
-24.1500000000001194
 30
0.0
 11
105.6999999999999318
 21
-24.1500000000000625
 31
0.0
  0
LINE
  5
24F
100
AcDbEntity
100
AcDbLine
  8
Otwor
 62
256
370
-1
  6
ByLayer
 10
105.6999999999998749
 20
-17.6500000000000909
 30
0.0
 11
117.6999999999999602
 21
-17.6500000000000625
 31
0.0
  0
LINE
  5
250
100
AcDbEntity
100
AcDbLine
  8
Otwor
 62
256
370
-1
  6
ByLayer
 10
118.8999999999998636
 20
-17.6500000000001478
 30
0.0
 11
130.899999999999892
 21
-17.6500000000001194
 31
0.0
  0
LINE
  5
251
100
AcDbEntity
100
AcDbLine
  8
Otwor
 62
256
370
-1
  6
ByLayer
 10
132.0999999999999375
 20
-24.1500000000000909
 30
0.0
 11
132.0999999999999375
 21
-17.6500000000000909
 31
0.0
  0
LINE
  5
252
100
AcDbEntity
100
AcDbLine
  8
Otwor
 62
256
370
-1
  6
ByLayer
 10
144.0999999999998522
 20
-24.1500000000001194
 30
0.0
 11
144.0999999999999091
 21
-17.6500000000000909
 31
0.0
  0
LINE
  5
253
100
AcDbEntity
100
AcDbLine
  8
Otwor
 62
256
370
-1
  6
ByLayer
 10
144.0999999999998522
 20
-24.1500000000001194
 30
0.0
 11
132.0999999999999375
 21
-24.1500000000000909
 31
0.0
  0
LINE
  5
254
100
AcDbEntity
100
AcDbLine
  8
Otwor
 62
256
370
-1
  6
ByLayer
 10
132.0999999999999375
 20
-17.6500000000000909
 30
0.0
 11
144.0999999999999091
 21
-17.6500000000000909
 31
0.0
  0
LINE
  5
255
100
AcDbEntity
100
AcDbLine
  8
Otwor
 62
256
370
-1
  6
ByLayer
 10
104.4999999999998863
 20
-24.1500000000000909
 30
0.0
 11
92.4999999999999858
 21
-24.1500000000000341
 31
0.0
  0
LINE
  5
256
100
AcDbEntity
100
AcDbLine
  8
Otwor
 62
256
370
-1
  6
ByLayer
 10
104.4999999999998863
 20
-17.6500000000001194
 30
0.0
 11
92.4999999999999432
 21
-17.6500000000000625
 31
0.0
  0
LINE
  5
257
100
AcDbEntity
100
AcDbLine
  8
Otwor
 62
256
370
-1
  6
ByLayer
 10
112.2999999999999545
 20
91.3499999999999801
 30
0.0
 11
112.2999999999999261
 21
97.8499999999999517
 31
0.0
  0
LINE
  5
258
100
AcDbEntity
100
AcDbLine
  8
Otwor
 62
256
370
-1
  6
ByLayer
 10
111.0999999999999375
 20
91.3499999999999659
 30
0.0
 11
111.0999999999999375
 21
97.8500000000000085
 31
0.0
  0
LINE
  5
259
100
AcDbEntity
100
AcDbLine
  8
Otwor
 62
256
370
-1
  6
ByLayer
 10
137.2999999999999545
 20
91.3499999999999659
 30
0.0
 11
137.2999999999999545
 21
97.8499999999999375
 31
0.0
  0
LINE
  5
25A
100
AcDbEntity
100
AcDbLine
  8
Otwor
 62
256
370
-1
  6
ByLayer
 10
137.2999999999999545
 20
97.8499999999999375
 30
0.0
 11
112.2999999999999261
 21
97.8499999999999517
 31
0.0
  0
LINE
  5
25B
100
AcDbEntity
100
AcDbLine
  8
Otwor
 62
256
370
-1
  6
ByLayer
 10
112.2999999999999545
 20
91.3499999999999801
 30
0.0
 11
137.2999999999999545
 21
91.3499999999999659
 31
0.0
  0
LINE
  5
25C
100
AcDbEntity
100
AcDbLine
  8
Otwor
 62
256
370
-1
  6
ByLayer
 10
111.0999999999999375
 20
97.8500000000000085
 30
0.0
 11
92.4999999999999432
 21
97.8500000000000085
 31
0.0
  0
LINE
  5
25D
100
AcDbEntity
100
AcDbLine
  8
Otwor
 62
256
370
-1
  6
ByLayer
 10
111.0999999999999375
 20
91.3499999999999659
 30
0.0
 11
92.4999999999999574
 21
91.3499999999999943
 31
0.0
  0
LINE
  5
25E
100
AcDbEntity
100
AcDbLine
  8
Otwor
 62
256
370
-1
  6
ByLayer
 10
92.4999999999999432
 20
97.8500000000000085
 30
0.0
 11
92.4999999999999574
 21
91.3499999999999943
 31
0.0
  0
LINE
  5
25F
100
AcDbEntity
100
AcDbLine
  8
Otwor
 62
256
370
-1
  6
ByLayer
 10
112.2999999999999261
 20
60.5499999999999901
 30
0.0
 11
112.2999999999999545
 21
67.0499999999999972
 31
0.0
  0
LINE
  5
260
100
AcDbEntity
100
AcDbLine
  8
Otwor
 62
256
370
-1
  6
ByLayer
 10
111.0999999999999659
 20
60.5500000000000114
 30
0.0
 11
111.0999999999999375
 21
67.0499999999999687
 31
0.0
  0
LINE
  5
261
100
AcDbEntity
100
AcDbLine
  8
Otwor
 62
256
370
-1
  6
ByLayer
 10
137.2999999999999829
 20
60.5500000000000398
 30
0.0
 11
137.2999999999999545
 21
67.0499999999999972
 31
0.0
  0
LINE
  5
262
100
AcDbEntity
100
AcDbLine
  8
Otwor
 62
256
370
-1
  6
ByLayer
 10
137.2999999999999545
 20
67.0499999999999972
 30
0.0
 11
112.2999999999999545
 21
67.0499999999999972
 31
0.0
  0
LINE
  5
263
100
AcDbEntity
100
AcDbLine
  8
Otwor
 62
256
370
-1
  6
ByLayer
 10
112.2999999999999261
 20
60.5499999999999901
 30
0.0
 11
137.2999999999999829
 21
60.5500000000000398
 31
0.0
  0
LINE
  5
264
100
AcDbEntity
100
AcDbLine
  8
Otwor
 62
256
370
-1
  6
ByLayer
 10
111.0999999999999375
 20
67.0499999999999687
 30
0.0
 11
92.4999999999999716
 21
67.0500000000000114
 31
0.0
  0
LINE
  5
265
100
AcDbEntity
100
AcDbLine
  8
Otwor
 62
256
370
-1
  6
ByLayer
 10
111.0999999999999659
 20
60.5500000000000114
 30
0.0
 11
92.4999999999999432
 21
60.5499999999999901
 31
0.0
  0
LINE
  5
266
100
AcDbEntity
100
AcDbLine
  8
Otwor
 62
256
370
-1
  6
ByLayer
 10
92.4999999999999716
 20
67.0500000000000114
 30
0.0
 11
92.4999999999999432
 21
60.5499999999999901
 31
0.0
  0
LINE
  5
267
100
AcDbEntity
100
AcDbLine
  8
Otwor
 62
256
370
-1
  6
ByLayer
 10
112.2999999999999829
 20
29.7500000000000284
 30
0.0
 11
112.2999999999999545
 21
36.25
 31
0.0
  0
LINE
  5
268
100
AcDbEntity
100
AcDbLine
  8
Otwor
 62
256
370
-1
  6
ByLayer
 10
111.0999999999999659
 20
29.7500000000000142
 30
0.0
 11
111.0999999999999375
 21
36.2499999999999858
 31
0.0
  0
LINE
  5
269
100
AcDbEntity
100
AcDbLine
  8
Otwor
 62
256
370
-1
  6
ByLayer
 10
137.2999999999999829
 20
29.7500000000000426
 30
0.0
 11
137.2999999999999545
 21
36.2499999999999716
 31
0.0
  0
LINE
  5
26A
100
AcDbEntity
100
AcDbLine
  8
Otwor
 62
256
370
-1
  6
ByLayer
 10
137.2999999999999545
 20
36.2499999999999716
 30
0.0
 11
112.2999999999999545
 21
36.25
 31
0.0
  0
LINE
  5
26B
100
AcDbEntity
100
AcDbLine
  8
Otwor
 62
256
370
-1
  6
ByLayer
 10
112.2999999999999829
 20
29.7500000000000284
 30
0.0
 11
137.2999999999999829
 21
29.7500000000000426
 31
0.0
  0
LINE
  5
26C
100
AcDbEntity
100
AcDbLine
  8
Otwor
 62
256
370
-1
  6
ByLayer
 10
111.0999999999999375
 20
36.2499999999999858
 30
0.0
 11
92.4999999999999147
 21
36.2499999999999716
 31
0.0
  0
LINE
  5
26D
100
AcDbEntity
100
AcDbLine
  8
Otwor
 62
256
370
-1
  6
ByLayer
 10
111.0999999999999659
 20
29.7500000000000142
 30
0.0
 11
92.4999999999999432
 21
29.7499999999999858
 31
0.0
  0
LINE
  5
26E
100
AcDbEntity
100
AcDbLine
  8
Otwor
 62
256
370
-1
  6
ByLayer
 10
92.4999999999999147
 20
36.2499999999999716
 30
0.0
 11
92.4999999999999432
 21
29.7499999999999858
 31
0.0
  0
LINE
  5
26F
100
AcDbEntity
100
AcDbLine
  8
Otwor
 62
256
370
-1
  6
ByLayer
 10
112.3000000000000114
 20
-1.0499999999999829
 30
0.0
 11
112.2999999999999829
 21
5.4500000000000028
 31
0.0
  0
LINE
  5
270
100
AcDbEntity
100
AcDbLine
  8
Otwor
 62
256
370
-1
  6
ByLayer
 10
111.0999999999999375
 20
-1.0500000000000114
 30
0.0
 11
111.0999999999999091
 21
5.4499999999999744
 31
0.0
  0
LINE
  5
271
100
AcDbEntity
100
AcDbLine
  8
Otwor
 62
256
370
-1
  6
ByLayer
 10
137.2999999999999545
 20
-1.0499999999999972
 30
0.0
 11
137.2999999999998977
 21
5.449999999999946
 31
0.0
  0
LINE
  5
272
100
AcDbEntity
100
AcDbLine
  8
Otwor
 62
256
370
-1
  6
ByLayer
 10
137.2999999999998977
 20
5.449999999999946
 30
0.0
 11
112.2999999999999829
 21
5.4500000000000028
 31
0.0
  0
LINE
  5
273
100
AcDbEntity
100
AcDbLine
  8
Otwor
 62
256
370
-1
  6
ByLayer
 10
112.3000000000000114
 20
-1.0499999999999829
 30
0.0
 11
137.2999999999999545
 21
-1.0499999999999972
 31
0.0
  0
LINE
  5
274
100
AcDbEntity
100
AcDbLine
  8
Otwor
 62
256
370
-1
  6
ByLayer
 10
111.0999999999999091
 20
5.4499999999999744
 30
0.0
 11
92.4999999999999289
 21
5.4499999999999886
 31
0.0
  0
LINE
  5
275
100
AcDbEntity
100
AcDbLine
  8
Otwor
 62
256
370
-1
  6
ByLayer
 10
111.0999999999999375
 20
-1.0500000000000114
 30
0.0
 11
92.4999999999999716
 21
-1.0500000000000114
 31
0.0
  0
LINE
  5
276
100
AcDbEntity
100
AcDbLine
  8
Otwor
 62
256
370
-1
  6
ByLayer
 10
92.4999999999999289
 20
5.4499999999999886
 30
0.0
 11
92.4999999999999716
 21
-1.0500000000000114
 31
0.0
  0
LINE
  5
277
100
AcDbEntity
100
AcDbLine
  8
Otwor
 62
256
370
-1
  6
ByLayer
 10
92.4999999999999432
 20
99.0499999999999972
 30
0.0
 11
92.4999999999999432
 21
105.5499999999999829
 31
0.0
  0
LINE
  5
278
100
AcDbEntity
100
AcDbLine
  8
Otwor
 62
256
370
-1
  6
ByLayer
 10
92.4999999999999432
 20
83.6499999999999773
 30
0.0
 11
92.4999999999999432
 21
90.1499999999999631
 31
0.0
  0
LINE
  5
279
100
AcDbEntity
100
AcDbLine
  8
Otwor
 62
256
370
-1
  6
ByLayer
 10
92.4999999999999574
 20
68.2499999999999716
 30
0.0
 11
92.4999999999999716
 21
74.75
 31
0.0
  0
LINE
  5
27A
100
AcDbEntity
100
AcDbLine
  8
Otwor
 62
256
370
-1
  6
ByLayer
 10
92.4999999999999432
 20
52.8499999999999801
 30
0.0
 11
92.4999999999999716
 21
59.3499999999999801
 31
0.0
  0
LINE
  5
27B
100
AcDbEntity
100
AcDbLine
  8
Otwor
 62
256
370
-1
  6
ByLayer
 10
92.4999999999999716
 20
37.4499999999999744
 30
0.0
 11
92.4999999999998863
 21
43.9499999999999176
 31
0.0
  0
LINE
  5
27C
100
AcDbEntity
100
AcDbLine
  8
Otwor
 62
256
370
-1
  6
ByLayer
 10
92.4999999999999574
 20
22.0499999999999545
 30
0.0
 11
92.4999999999998863
 21
28.5499999999999119
 31
0.0
  0
LINE
  5
27D
100
AcDbEntity
100
AcDbLine
  8
Otwor
 62
256
370
-1
  6
ByLayer
 10
92.4999999999999147
 20
6.6499999999999204
 30
0.0
 11
92.4999999999999432
 21
13.1499999999999488
 31
0.0
  0
LINE
  5
27E
100
AcDbEntity
100
AcDbLine
  8
Otwor
 62
256
370
-1
  6
ByLayer
 10
92.4999999999999147
 20
-8.7500000000000568
 30
0.0
 11
92.4999999999999147
 21
-2.2500000000000568
 31
0.0
  0
LINE
  5
27F
100
AcDbEntity
100
AcDbLine
  8
Otwor
 62
256
370
-1
  6
ByLayer
 10
92.4999999999999858
 20
-24.1500000000000341
 30
0.0
 11
92.4999999999999432
 21
-17.6500000000000625
 31
0.0
  0
LINE
  5
280
100
AcDbEntity
100
AcDbLine
  8
Otwor
 62
256
370
-1
  6
ByLayer
 10
104.4999999999999432
 20
145.25
 30
0.0
 11
104.4999999999999432
 21
151.75
 31
0.0
  0
LINE
  5
281
100
AcDbEntity
100
AcDbLine
  8
Otwor
 62
256
370
-1
  6
ByLayer
 10
105.6999999999999602
 20
145.25
 30
0.0
 11
105.6999999999999602
 21
151.7500000000000284
 31
0.0
  0
LINE
  5
282
100
AcDbEntity
100
AcDbLine
  8
Otwor
 62
256
370
-1
  6
ByLayer
 10
117.6999999999999602
 20
145.2499999999999716
 30
0.0
 11
117.6999999999999602
 21
151.7499999999999716
 31
0.0
  0
LINE
  5
283
100
AcDbEntity
100
AcDbLine
  8
Otwor
 62
256
370
-1
  6
ByLayer
 10
118.8999999999999773
 20
145.2499999999999716
 30
0.0
 11
118.8999999999999773
 21
151.75
 31
0.0
  0
LINE
  5
284
100
AcDbEntity
100
AcDbLine
  8
Otwor
 62
256
370
-1
  6
ByLayer
 10
130.8999999999999773
 20
145.2499999999998863
 30
0.0
 11
130.8999999999999773
 21
151.7499999999999432
 31
0.0
  0
LINE
  5
285
100
AcDbEntity
100
AcDbLine
  8
Otwor
 62
256
370
-1
  6
ByLayer
 10
130.8999999999999773
 20
145.2499999999998863
 30
0.0
 11
118.8999999999999773
 21
145.2499999999999716
 31
0.0
  0
LINE
  5
286
100
AcDbEntity
100
AcDbLine
  8
Otwor
 62
256
370
-1
  6
ByLayer
 10
117.6999999999999602
 20
145.2499999999999716
 30
0.0
 11
105.6999999999999602
 21
145.25
 31
0.0
  0
LINE
  5
287
100
AcDbEntity
100
AcDbLine
  8
Otwor
 62
256
370
-1
  6
ByLayer
 10
105.6999999999999602
 20
151.7500000000000284
 30
0.0
 11
117.6999999999999602
 21
151.7499999999999716
 31
0.0
  0
LINE
  5
288
100
AcDbEntity
100
AcDbLine
  8
Otwor
 62
256
370
-1
  6
ByLayer
 10
118.8999999999999773
 20
151.75
 30
0.0
 11
130.8999999999999773
 21
151.7499999999999432
 31
0.0
  0
LINE
  5
289
100
AcDbEntity
100
AcDbLine
  8
Otwor
 62
256
370
-1
  6
ByLayer
 10
132.0999999999999659
 20
145.2499999999999716
 30
0.0
 11
132.0999999999999659
 21
151.75
 31
0.0
  0
LINE
  5
28A
100
AcDbEntity
100
AcDbLine
  8
Otwor
 62
256
370
-1
  6
ByLayer
 10
144.0999999999999659
 20
145.2499999999999432
 30
0.0
 11
144.0999999999999659
 21
151.7499999999999432
 31
0.0
  0
LINE
  5
28B
100
AcDbEntity
100
AcDbLine
  8
Otwor
 62
256
370
-1
  6
ByLayer
 10
144.0999999999999659
 20
145.2499999999999432
 30
0.0
 11
132.0999999999999659
 21
145.2499999999999716
 31
0.0
  0
LINE
  5
28C
100
AcDbEntity
100
AcDbLine
  8
Otwor
 62
256
370
-1
  6
ByLayer
 10
132.0999999999999659
 20
151.75
 30
0.0
 11
144.0999999999999659
 21
151.7499999999999432
 31
0.0
  0
LINE
  5
28D
100
AcDbEntity
100
AcDbLine
  8
Otwor
 62
256
370
-1
  6
ByLayer
 10
104.4999999999999432
 20
151.75
 30
0.0
 11
92.4999999999999574
 21
151.7499999999999716
 31
0.0
  0
LINE
  5
28E
100
AcDbEntity
100
AcDbLine
  8
Otwor
 62
256
370
-1
  6
ByLayer
 10
91.2999999999999545
 20
151.75
 30
0.0
 11
79.2999999999999545
 21
151.75
 31
0.0
  0
LINE
  5
28F
100
AcDbEntity
100
AcDbLine
  8
Otwor
 62
256
370
-1
  6
ByLayer
 10
92.4999999999999432
 20
110.0000000000000284
 30
0.0
 11
92.4999999999999432
 21
106.7499999999999716
 31
0.0
  0
LINE
  5
290
100
AcDbEntity
100
AcDbLine
  8
Otwor
 62
256
370
-1
  6
ByLayer
 10
92.4999999999999432
 20
110.0000000000000284
 30
0.0
 11
97.0091341318493079
 21
113.2500000000000142
 31
0.0
  0
LINE
  5
291
100
AcDbEntity
100
AcDbLine
  8
Otwor
 62
256
370
-1
  6
ByLayer
 10
111.0999999999999375
 20
113.25
 30
0.0
 11
97.0091341318493079
 21
113.2500000000000142
 31
0.0
  0
LINE
  5
292
100
AcDbEntity
100
AcDbLine
  8
Otwor
 62
256
370
-1
  6
ByLayer
 10
104.4999999999999432
 20
114.4500000000000881
 30
0.0
 11
97.6163526532979375
 21
114.4500000000000455
 31
0.0
  0
LINE
  5
293
100
AcDbEntity
100
AcDbLine
  8
Otwor
 62
256
370
-1
  6
ByLayer
 10
99.7409304515003754
 20
120.949999999999477
 30
0.0
 11
97.6163526532979375
 21
114.4500000000000455
 31
0.0
  0
LINE
  5
294
100
AcDbEntity
100
AcDbLine
  8
Otwor
 62
256
370
-1
  6
ByLayer
 10
99.7409304515003754
 20
120.949999999999477
 30
0.0
 11
104.4999999999999432
 21
120.949999999999477
 31
0.0
  0
LINE
  5
295
100
AcDbEntity
100
AcDbLine
  8
Otwor
 62
256
370
-1
  6
ByLayer
 10
104.4999999999999432
 20
114.4500000000000881
 30
0.0
 11
104.4999999999999432
 21
120.949999999999477
 31
0.0
  0
LINE
  5
296
100
AcDbEntity
100
AcDbLine
  8
Otwor
 62
256
370
-1
  6
ByLayer
 10
111.0999999999999375
 20
122.1500000000010004
 30
0.0
 11
100.1331601988611339
 21
122.1500000000002899
 31
0.0
  0
LINE
  5
297
100
AcDbEntity
100
AcDbLine
  8
Otwor
 62
256
370
-1
  6
ByLayer
 10
102.2577379970636571
 20
128.6499999999999773
 30
0.0
 11
100.1331601988611339
 21
122.1500000000002899
 31
0.0
  0
LINE
  5
298
100
AcDbEntity
100
AcDbLine
  8
Otwor
 62
256
370
-1
  6
ByLayer
 10
111.0999999999999659
 20
128.6499999999999773
 30
0.0
 11
102.2577379970636571
 21
128.6499999999999773
 31
0.0
  0
LINE
  5
299
100
AcDbEntity
100
AcDbLine
  8
Otwor
 62
256
370
-1
  6
ByLayer
 10
73.0999999999999517
 20
144.0499999999999261
 30
0.0
 11
98.0999999999999517
 21
144.0499999999999261
 31
0.0
  0
LINE
  5
29A
100
AcDbEntity
100
AcDbLine
  8
Otwor
 62
256
370
-1
  6
ByLayer
 10
66.0999999999999517
 20
151.75
 30
0.0
 11
78.0999999999999517
 21
151.75
 31
0.0
  0
LINE
  5
29B
100
AcDbEntity
100
AcDbLine
  8
Otwor
 62
256
370
-1
  6
ByLayer
 10
104.4999999999999432
 20
145.25
 30
0.0
 11
92.4999999999999574
 21
145.2499999999999716
 31
0.0
  0
LINE
  5
29C
100
AcDbEntity
100
AcDbLine
  8
Otwor
 62
256
370
-1
  6
ByLayer
 10
92.4999999999999574
 20
145.2499999999999716
 30
0.0
 11
92.4999999999999574
 21
151.7499999999999716
 31
0.0
  0
LINE
  5
29D
100
AcDbEntity
100
AcDbLine
  8
Otwor
 62
256
370
-1
  6
ByLayer
 10
124.2999999999999545
 20
144.0499999999999261
 30
0.0
 11
99.2999999999999545
 21
144.0499999999999261
 31
0.0
  0
LINE
  5
29E
100
AcDbEntity
100
AcDbLine
  8
Otwor
 62
256
370
-1
  6
ByLayer
 10
99.2999999999999545
 20
137.5499999999999261
 30
0.0
 11
99.2999999999999545
 21
144.0499999999999261
 31
0.0
  0
LINE
  5
29F
100
AcDbEntity
100
AcDbLine
  8
Otwor
 62
256
370
-1
  6
ByLayer
 10
124.2999999999999545
 20
137.5499999999999545
 30
0.0
 11
99.2999999999999545
 21
137.5499999999999261
 31
0.0
  0
LINE
  5
2A0
100
AcDbEntity
100
AcDbLine
  8
Otwor
 62
256
370
-1
  6
ByLayer
 10
91.2999999999999545
 20
145.2499999999999716
 30
0.0
 11
91.2999999999999545
 21
151.75
 31
0.0
  0
LINE
  5
2A1
100
AcDbEntity
100
AcDbLine
  8
Otwor
 62
256
370
-1
  6
ByLayer
 10
79.2999999999999545
 20
145.2499999999999432
 30
0.0
 11
79.2999999999999545
 21
151.75
 31
0.0
  0
LINE
  5
2A2
100
AcDbEntity
100
AcDbLine
  8
Otwor
 62
256
370
-1
  6
ByLayer
 10
78.0999999999999517
 20
145.2499999999999432
 30
0.0
 11
78.0999999999999517
 21
151.75
 31
0.0
  0
LINE
  5
2A3
100
AcDbEntity
100
AcDbLine
  8
Otwor
 62
256
370
-1
  6
ByLayer
 10
66.0999999999999517
 20
145.2499999999999147
 30
0.0
 11
66.0999999999999517
 21
151.75
 31
0.0
  0
LINE
  5
2A4
100
AcDbEntity
100
AcDbLine
  8
Otwor
 62
256
370
-1
  6
ByLayer
 10
66.0999999999999517
 20
145.2499999999999147
 30
0.0
 11
78.0999999999999517
 21
145.2499999999999432
 31
0.0
  0
LINE
  5
2A5
100
AcDbEntity
100
AcDbLine
  8
Otwor
 62
256
370
-1
  6
ByLayer
 10
79.2999999999999545
 20
145.2499999999999432
 30
0.0
 11
91.2999999999999545
 21
145.2499999999999716
 31
0.0
  0
LINE
  5
2A6
100
AcDbEntity
100
AcDbLine
  8
Otwor
 62
256
370
-1
  6
ByLayer
 10
98.0999999999999517
 20
137.5499999999999545
 30
0.0
 11
98.0999999999999517
 21
144.0499999999999261
 31
0.0
  0
LINE
  5
2A7
100
AcDbEntity
100
AcDbLine
  8
Otwor
 62
256
370
-1
  6
ByLayer
 10
117.6999999999999602
 20
136.3500000000000227
 30
0.0
 11
104.7745455426267966
 21
136.3500000000000227
 31
0.0
  0
LINE
  5
2A8
100
AcDbEntity
100
AcDbLine
  8
Otwor
 62
256
370
-1
  6
ByLayer
 10
104.7745455426267966
 20
136.3500000000000227
 30
0.0
 11
102.649967744424174
 21
129.8500000000000227
 31
0.0
  0
LINE
  5
2A9
100
AcDbEntity
100
AcDbLine
  8
Otwor
 62
256
370
-1
  6
ByLayer
 10
117.6999999999999602
 20
129.8499999999999943
 30
0.0
 11
102.649967744424174
 21
129.8500000000000227
 31
0.0
  0
LINE
  5
2AA
100
AcDbEntity
100
AcDbLine
  8
Otwor wym.
 62
256
370
-1
  6
ByLayer
 10
46.2499999999999503
 20
-35.25
 30
0.0
 11
46.2499999999999503
 21
-22.25
 31
0.0
  0
LINE
  5
2AB
100
AcDbEntity
100
AcDbLine
  8
Otwor wym.
 62
256
370
-1
  6
ByLayer
 10
39.7499999999999503
 20
-28.75
 30
0.0
 11
52.7499999999999503
 21
-28.75
 31
0.0
  0
LINE
  5
2AC
100
AcDbEntity
100
AcDbLine
  8
Otwor
 62
256
370
-1
  6
ByLayer
 10
91.6229345730043292
 20
111.2168632777633945
 30
0.0
 11
96.1320687048536939
 21
114.4668632777633803
 31
0.0
  0
LINE
  5
2AD
100
AcDbEntity
100
AcDbLine
  8
Otwor
 62
256
370
-1
  6
ByLayer
 10
3.9686803701192623
 20
112.2190693660779175
 30
0.0
 11
-3.7405972323006367
 21
136.0007227747210266
 31
0.0
  0
LINE
  5
2AE
100
AcDbEntity
100
AcDbLine
  8
Otwor
 62
256
370
-1
  6
ByLayer
 10
12.5442780654936392
 20
114.5116934719674759
 30
0.0
 11
7.3575565839699415
 21
138.9677340401603942
 31
0.0
  0
LINE
  5
2AF
100
AcDbEntity
100
AcDbLine
  8
Otwor
 62
256
370
-1
  6
ByLayer
 10
18.9028486132238136
 20
115.8602410571636483
 30
0.0
 11
13.7161271317001159
 21
140.3162816253565666
 31
0.0
  0
LINE
  5
2B0
100
AcDbEntity
100
AcDbLine
  8
Otwor
 62
256
370
-1
  6
ByLayer
 10
27.6707993412587712
 20
117.2458965535143136
 30
0.0
 11
25.0632156134395068
 21
142.1095348050335474
 31
0.0
  0
LINE
  5
2B1
100
AcDbEntity
100
AcDbLine
  8
Otwor
 62
256
370
-1
  6
ByLayer
 10
34.1353452866537808
 20
117.9238683227473246
 30
0.0
 11
31.5277615588345164
 21
142.7875065742665583
 31
0.0
  0
LINE
  5
2B2
100
AcDbEntity
100
AcDbLine
  8
Otwor
 62
256
370
-1
  6
ByLayer
 10
42.9999999999999574
 20
118.3874391770572458
 30
0.0
 11
42.9999999999999574
 21
143.3874391770572458
 31
0.0
  0
LINE
  5
2B3
100
AcDbEntity
100
AcDbLine
  8
Otwor
 62
256
370
-1
  6
ByLayer
 10
49.4999999999999574
 20
118.3874391770572458
 30
0.0
 11
49.4999999999999574
 21
143.3874391770572458
 31
0.0
  0
LINE
  5
2B4
100
AcDbEntity
100
AcDbLine
  8
Otwor
 62
256
370
-1
  6
ByLayer
 10
-9.9238271185478482
 20
133.996310598091867
 30
0.0
 11
-3.7405972323006367
 21
136.0007227747210266
 31
0.0
  0
LINE
  5
2B5
100
AcDbEntity
100
AcDbLine
  8
Otwor
 62
256
370
-1
  6
ByLayer
 10
-1.348085162099514
 20
136.7077975053959449
 30
0.0
 11
4.9313836945795861
 21
138.3865681502421126
 31
0.0
  0
LINE
  5
2B6
100
AcDbEntity
100
AcDbLine
  8
Otwor
 62
256
370
-1
  6
ByLayer
 10
7.3575565839699415
 20
138.9677340401603942
 30
0.0
 11
13.7161271317001159
 21
140.3162816253565666
 31
0.0
  0
LINE
  5
2B7
100
AcDbEntity
100
AcDbLine
  8
Otwor
 62
256
370
-1
  6
ByLayer
 10
16.1693395792174819
 20
140.7699526164535371
 30
0.0
 11
22.5896586624331626
 21
141.7845968248815609
 31
0.0
  0
LINE
  5
2B8
100
AcDbEntity
100
AcDbLine
  8
Otwor
 62
256
370
-1
  6
ByLayer
 10
25.0632156134395068
 20
142.1095348050335474
 30
0.0
 11
31.5277615588345164
 21
142.7875065742665583
 31
0.0
  0
LINE
  5
2B9
100
AcDbEntity
100
AcDbLine
  8
Otwor
 62
256
370
-1
  6
ByLayer
 10
34.0149124365691122
 20
142.9828247562190882
 30
0.0
 11
40.5060428714420553
 21
143.3222738355611909
 31
0.0
  0
LINE
  5
2BA
100
AcDbEntity
100
AcDbLine
  8
Otwor
 62
256
370
-1
  6
ByLayer
 10
42.9999999999999574
 20
143.3874391770572458
 30
0.0
 11
49.4999999999999574
 21
143.3874391770572458
 31
0.0
  0
LINE
  5
2BB
100
AcDbEntity
100
AcDbLine
  8
Otwor
 62
256
370
-1
  6
ByLayer
 10
49.4999999999999574
 20
118.3874391770572458
 30
0.0
 11
42.9999999999999574
 21
118.3874391770572458
 31
0.0
  0
LINE
  5
2BC
100
AcDbEntity
100
AcDbLine
  8
Otwor
 62
256
370
-1
  6
ByLayer
 10
41.8116162535271556
 20
118.3563875475883975
 30
0.0
 11
35.3204858186542126
 21
118.0169384682462663
 31
0.0
  0
LINE
  5
2BD
100
AcDbEntity
100
AcDbLine
  8
Otwor
 62
256
370
-1
  6
ByLayer
 10
34.1353452866537808
 20
117.9238683227473246
 30
0.0
 11
27.6707993412587712
 21
117.2458965535143136
 31
0.0
  0
LINE
  5
2BE
100
AcDbEntity
100
AcDbLine
  8
Otwor
 62
256
370
-1
  6
ByLayer
 10
26.4921363871563926
 20
117.0910618894366593
 30
0.0
 11
20.071817303940712
 21
116.076417681008607
 31
0.0
  0
LINE
  5
2BF
100
AcDbEntity
100
AcDbLine
  8
Otwor
 62
256
370
-1
  6
ByLayer
 10
18.9028486132238136
 20
115.8602410571636483
 30
0.0
 11
12.5442780654936392
 21
114.5116934719674759
 31
0.0
  0
LINE
  5
2C0
100
AcDbEntity
100
AcDbLine
  8
Otwor
 62
256
370
-1
  6
ByLayer
 10
11.3881938670649134
 20
114.2347648553225241
 30
0.0
 11
5.1087250103858128
 21
112.555994210476328
 31
0.0
  0
LINE
  5
2C1
100
AcDbEntity
100
AcDbLine
  8
Otwor
 62
256
370
-1
  6
ByLayer
 10
3.9686803701192623
 20
112.2190693660779175
 30
0.0
 11
0.8770654269956556
 21
111.2168632777633377
 31
0.0
  0
LINE
  5
2C2
100
AcDbEntity
100
AcDbLine
  8
Otwor
 62
256
370
-1
  6
ByLayer
 10
0.8770654269956556
 20
111.2168632777633377
 30
0.0
 11
-3.5810669631080145
 21
114.4301033021614273
 31
0.0
  0
LINE
  5
2C3
100
AcDbEntity
100
AcDbLine
  8
Otwor
 62
256
370
-1
  6
ByLayer
 10
-3.5810669631080145
 20
114.4301033021614273
 30
0.0
 11
-9.9238271185478482
 21
133.996310598091867
 31
0.0
  0
LINE
  5
2C4
100
AcDbEntity
100
AcDbLine
  8
Otwor
 62
256
370
-1
  6
ByLayer
 10
88.5313196298806417
 20
112.2190693660778891
 30
0.0
 11
96.2405972323005585
 21
136.0007227747210266
 31
0.0
  0
LINE
  5
2C5
100
AcDbEntity
100
AcDbLine
  8
Otwor
 62
256
370
-1
  6
ByLayer
 10
79.9557219345062862
 20
114.5116934719674475
 30
0.0
 11
85.1424434160299768
 21
138.9677340401603942
 31
0.0
  0
LINE
  5
2C6
100
AcDbEntity
100
AcDbLine
  8
Otwor
 62
256
370
-1
  6
ByLayer
 10
73.5971513867761047
 20
115.8602410571636483
 30
0.0
 11
78.7838728682997953
 21
140.3162816253565381
 31
0.0
  0
LINE
  5
2C7
100
AcDbEntity
100
AcDbLine
  8
Otwor
 62
256
370
-1
  6
ByLayer
 10
64.8292006587411436
 20
117.2458965535142852
 30
0.0
 11
67.4367843865604044
 21
142.1095348050335474
 31
0.0
  0
LINE
  5
2C8
100
AcDbEntity
100
AcDbLine
  8
Otwor
 62
256
370
-1
  6
ByLayer
 10
58.3646547133461269
 20
117.9238683227473246
 30
0.0
 11
60.9722384411654019
 21
142.7875065742665299
 31
0.0
  0
LINE
  5
2C9
100
AcDbEntity
100
AcDbLine
  8
Otwor
 62
256
370
-1
  6
ByLayer
 10
102.4238271185477771
 20
133.996310598091867
 30
0.0
 11
96.2405972323005585
 21
136.0007227747210266
 31
0.0
  0
LINE
  5
2CA
100
AcDbEntity
100
AcDbLine
  8
Otwor
 62
256
370
-1
  6
ByLayer
 10
93.8480851620994372
 20
136.7077975053959449
 30
0.0
 11
87.5686163054203206
 21
138.3865681502421126
 31
0.0
  0
LINE
  5
2CB
100
AcDbEntity
100
AcDbLine
  8
Otwor
 62
256
370
-1
  6
ByLayer
 10
85.1424434160299768
 20
138.9677340401603942
 30
0.0
 11
78.7838728682997953
 21
140.3162816253565381
 31
0.0
  0
LINE
  5
2CC
100
AcDbEntity
100
AcDbLine
  8
Otwor
 62
256
370
-1
  6
ByLayer
 10
76.3306604207824364
 20
140.7699526164535371
 30
0.0
 11
69.9103413375667486
 21
141.7845968248815609
 31
0.0
  0
LINE
  5
2CD
100
AcDbEntity
100
AcDbLine
  8
Otwor
 62
256
370
-1
  6
ByLayer
 10
67.4367843865604044
 20
142.1095348050335474
 30
0.0
 11
60.9722384411654019
 21
142.7875065742665299
 31
0.0
  0
LINE
  5
2CE
100
AcDbEntity
100
AcDbLine
  8
Otwor
 62
256
370
-1
  6
ByLayer
 10
58.4850875634308167
 20
142.9828247562190882
 30
0.0
 11
51.9939571285578737
 21
143.3222738355611909
 31
0.0
  0
LINE
  5
2CF
100
AcDbEntity
100
AcDbLine
  8
Otwor
 62
256
370
-1
  6
ByLayer
 10
50.688383746472752
 20
118.3563875475883833
 30
0.0
 11
57.1795141813457164
 21
118.0169384682462805
 31
0.0
  0
LINE
  5
2D0
100
AcDbEntity
100
AcDbLine
  8
Otwor
 62
256
370
-1
  6
ByLayer
 10
58.3646547133461269
 20
117.9238683227473246
 30
0.0
 11
64.8292006587411436
 21
117.2458965535142852
 31
0.0
  0
LINE
  5
2D1
100
AcDbEntity
100
AcDbLine
  8
Otwor
 62
256
370
-1
  6
ByLayer
 10
66.0078636128435221
 20
117.0910618894366735
 30
0.0
 11
72.4281826960591957
 21
116.0764176810085928
 31
0.0
  0
LINE
  5
2D2
100
AcDbEntity
100
AcDbLine
  8
Otwor
 62
256
370
-1
  6
ByLayer
 10
73.5971513867761047
 20
115.8602410571636483
 30
0.0
 11
79.9557219345062862
 21
114.5116934719674475
 31
0.0
  0
LINE
  5
2D3
100
AcDbEntity
100
AcDbLine
  8
Otwor
 62
256
370
-1
  6
ByLayer
 10
81.1118061329350155
 20
114.2347648553225099
 30
0.0
 11
87.3912749896141179
 21
112.5559942104763422
 31
0.0
  0
LINE
  5
2D4
100
AcDbEntity
100
AcDbLine
  8
Otwor
 62
256
370
-1
  6
ByLayer
 10
88.5313196298806417
 20
112.2190693660778891
 30
0.0
 11
91.6229345730042581
 21
111.2168632777633377
 31
0.0
  0
LINE
  5
2D5
100
AcDbEntity
100
AcDbLine
  8
Otwor
 62
256
370
-1
  6
ByLayer
 10
96.0810669631079577
 20
114.4301033021614273
 30
0.0
 11
102.4238271185477771
 21
133.996310598091867
 31
0.0
  0
LINE
  5
2D6
100
AcDbEntity
100
AcDbLine
  8
Otwor
 62
256
370
-1
  6
ByLayer
 10
-11.9999999999999929
 20
137.5500000000000114
 30
0.0
 11
-2.8440701388599487
 21
137.5500000000000114
 31
0.0
  0
LINE
  5
2D7
100
AcDbEntity
100
AcDbLine
  8
Otwor
 62
256
370
-1
  6
ByLayer
 10
-2.8440701388599487
 20
137.5500000000000114
 30
0.0
 11
0.0000000000000065
 21
138.3103416100906884
 31
0.0
  0
LINE
  5
2D8
100
AcDbEntity
100
AcDbLine
  8
Otwor
 62
256
370
-1
  6
ByLayer
 10
0.0000000000000065
 20
138.3103416100906884
 30
0.0
 11
0.0000000000000069
 21
144.0500000000000114
 31
0.0
  0
LINE
  5
2D9
100
AcDbEntity
100
AcDbLine
  8
Otwor
 62
256
370
-1
  6
ByLayer
 10
1.2000000000000064
 20
138.8885089913479192
 30
0.0
 11
1.2000000000000068
 21
144.0500000000000114
 31
0.0
  0
LINE
  5
2DA
100
AcDbEntity
100
AcDbLine
  8
Otwor
 62
256
370
-1
  6
ByLayer
 10
13.2000000000000064
 20
141.4335104033603727
 30
0.0
 11
13.2000000000000064
 21
144.0500000000000114
 31
0.0
  0
LINE
  5
2DB
100
AcDbEntity
100
AcDbLine
  8
Otwor
 62
256
370
-1
  6
ByLayer
 10
1.2000000000000064
 20
138.8885089913479192
 30
0.0
 11
13.2000000000000064
 21
141.4335104033603727
 31
0.0
  0
LINE
  5
2DC
100
AcDbEntity
100
AcDbLine
  8
Otwor
 62
256
370
-1
  6
ByLayer
 10
14.4000000000000057
 20
141.7052254222713259
 30
0.0
 11
14.4000000000000057
 21
144.0500000000000114
 31
0.0
  0
LINE
  5
2DD
100
AcDbEntity
100
AcDbLine
  8
Otwor
 62
256
370
-1
  6
ByLayer
 10
26.4000000000000057
 20
143.6016623973379751
 30
0.0
 11
26.4000000000000057
 21
144.0500000000000114
 31
0.0
  0
LINE
  5
2DE
100
AcDbEntity
100
AcDbLine
  8
Otwor
 62
256
370
-1
  6
ByLayer
 10
14.4000000000000057
 20
141.7052254222713259
 30
0.0
 11
26.4000000000000057
 21
143.6016623973379751
 31
0.0
  0
LINE
  5
2DF
100
AcDbEntity
100
AcDbLine
  8
Otwor
 62
256
370
-1
  6
ByLayer
 10
73.0999999999999517
 20
142.7484277995667412
 30
0.0
 11
73.0999999999999517
 21
144.0499999999999261
 31
0.0
  0
LINE
  5
2E0
100
AcDbEntity
100
AcDbLine
  8
Otwor
 62
256
370
-1
  6
ByLayer
 10
86.6427581360391628
 20
139.8762329180032395
 30
0.0
 11
73.0999999999999517
 21
142.7484277995667412
 31
0.0
  0
LINE
  5
2E1
100
AcDbEntity
100
AcDbLine
  8
Otwor
 62
256
370
-1
  6
ByLayer
 10
95.34407013886009
 20
137.5499999999999545
 30
0.0
 11
86.6427581360391628
 21
139.8762329180032395
 31
0.0
  0
LINE
  5
2E2
100
AcDbEntity
100
AcDbLine
  8
Otwor
 62
256
370
-1
  6
ByLayer
 10
95.34407013886009
 20
137.5499999999999545
 30
0.0
 11
98.0999999999999517
 21
137.5499999999999545
 31
0.0
  0
ARC
  5
2E3
100
AcDbEntity
  8
Krazyna
 62
256
370
-1
  6
ByLayer
100
AcDbCircle
 10
46.2499999999999503
 20
-28.75
 30
0.0
 40
147.1374391770572458
100
AcDbArc
 50
71.7615298187571113
 51
108.2384701812428744
  0
LINE
  5
2E4
100
AcDbEntity
100
AcDbLine
  8
Krazyna
 62
256
370
-1
  6
ByLayer
 10
92.2999999999999403
 20
102.7622383302793594
 30
0.0
 11
92.2999999999999403
 21
110.995567040898365
 31
0.0
  0
LINE
  5
2E5
100
AcDbEntity
100
AcDbLine
  8
Krazyna
 62
256
370
-1
  6
ByLayer
 10
0.2000000000000073
 20
110.995567040898365
 30
0.0
 11
0.2000000000000058
 21
102.7622383302793594
 31
0.0
  0
LINE
  5
2E6
100
AcDbEntity
100
AcDbLine
  8
Krazyna
 62
256
370
-1
  6
ByLayer
 10
0.2000000000000058
 20
102.7622383302793594
 30
0.0
 11
92.2999999999999403
 21
102.7622383302793594
 31
0.0
  0
LINE
  5
2E7
100
AcDbEntity
100
AcDbLine
  8
Krazyna
 62
256
370
-1
  6
ByLayer
 10
85.1166714187236977
 20
102.7622383302793594
 30
0.0
 11
87.9514659124543527
 21
112.3542655214030788
 31
0.0
  0
LINE
  5
2E8
100
AcDbEntity
100
AcDbLine
  8
Krazyna
 62
256
370
-1
  6
ByLayer
 10
77.7524652029511714
 20
102.7622383302793594
 30
0.0
 11
80.5256833139479511
 21
114.3394948657803099
 31
0.0
  0
LINE
  5
2E9
100
AcDbEntity
100
AcDbLine
  8
Krazyna
 62
256
370
-1
  6
ByLayer
 10
70.5704731677663233
 20
102.7622383302793594
 30
0.0
 11
73.0063590522330514
 21
115.9342191044006114
 31
0.0
  0
LINE
  5
2EA
100
AcDbEntity
100
AcDbLine
  8
Krazyna
 62
256
370
-1
  6
ByLayer
 10
63.5260611276500171
 20
102.7622383302793594
 30
0.0
 11
65.4140140923099693
 21
117.1340860801888937
 31
0.0
  0
LINE
  5
2EB
100
AcDbEntity
100
AcDbLine
  8
Krazyna
 62
256
370
-1
  6
ByLayer
 10
56.5777736486067298
 20
102.7622383302793594
 30
0.0
 11
57.7693686797445309
 21
117.9358212398265238
 31
0.0
  0
LINE
  5
2EC
100
AcDbEntity
100
AcDbLine
  8
Krazyna
 62
256
370
-1
  6
ByLayer
 10
49.6863220696791998
 20
102.7622383302793594
 30
0.0
 11
50.0932857931090467
 21
118.3372365703248335
 31
0.0
  0
LINE
  5
2ED
100
AcDbEntity
100
AcDbLine
  8
Krazyna
 62
256
370
-1
  6
ByLayer
 10
42.8136779303207078
 20
102.7622383302793594
 30
0.0
 11
42.4067142068908609
 21
118.3372365703248619
 31
0.0
  0
LINE
  5
2EE
100
AcDbEntity
100
AcDbLine
  8
Krazyna
 62
256
370
-1
  6
ByLayer
 10
35.922226351393185
 20
102.7622383302793594
 30
0.0
 11
34.7306313202553838
 21
117.9358212398265238
 31
0.0
  0
LINE
  5
2EF
100
AcDbEntity
100
AcDbLine
  8
Krazyna
 62
256
370
-1
  6
ByLayer
 10
28.9739388723498976
 20
102.7622383302793594
 30
0.0
 11
27.085985907689949
 21
117.1340860801888937
 31
0.0
  0
LINE
  5
2F0
100
AcDbEntity
100
AcDbLine
  8
Krazyna
 62
256
370
-1
  6
ByLayer
 10
21.9295268322335808
 20
102.7622383302793594
 30
0.0
 11
19.4936409477668633
 21
115.9342191044005972
 31
0.0
  0
LINE
  5
2F1
100
AcDbEntity
100
AcDbLine
  8
Krazyna
 62
256
370
-1
  6
ByLayer
 10
14.7475347970487825
 20
102.7622383302793594
 30
0.0
 11
11.974316686051985
 21
114.3394948657803241
 31
0.0
  0
LINE
  5
2F2
100
AcDbEntity
100
AcDbLine
  8
Krazyna
 62
256
370
-1
  6
ByLayer
 10
7.3833285812762277
 20
102.7622383302793594
 30
0.0
 11
4.5485340875455744
 21
112.354265521403093
 31
0.0
  0
LINE
  5
2F3
100
AcDbEntity
100
AcDbLine
  8
Krazyna wym.
 62
256
370
-1
  6
DASHDOT
 10
46.2499999999999716
 20
102.7622383302793594
 30
0.0
 11
46.2499999999999716
 21
118.3874391770572458
 31
0.0
  0
DIMENSION
  5
2F4
100
AcDbEntity
  8
Krazyna wym.
 62
256
370
-1
  6
ByLayer
100
AcDbDimension
 10
46.1954875884512006
 20
122.5606642442395042
 30
0.0
 11
44.2493547467876738
 21
124.4104029987418727
 31
0.0
 70
1
 71
5
 72
0
 41
1.0
 42
0.0
  1

  3
Standard
100
AcDbAlignedDimension
 13
42.4067142068908609
 23
118.3372365703248619
 33
0.0
 14
46.2499999999999716
 24
118.3874391770572458
 34
0.0
  0
DIMENSION
  5
2F5
100
AcDbEntity
  8
Krazyna wym.
 62
256
370
-1
  6
ByLayer
100
AcDbDimension
 10
3.4628240176027116
 20
115.8290962627933283
 30
0.0
 11
0.7293732579968468
 21
116.9394225718926066
 31
0.0
 70
1
 71
5
 72
0
 41
1.0
 42
0.0
  1

  3
Standard
100
AcDbAlignedDimension
 13
0.2000000000000073
 23
110.995567040898365
 33
0.0
 14
4.5485340875455753
 24
112.354265521403093
 34
0.0
  0
DIMENSION
  5
2F6
100
AcDbEntity
  8
Krazyna wym.
 62
256
370
-1
  6
ByLayer
100
AcDbDimension
 10
73.7132727541237642
 20
120.4073255319897697
 30
0.0
 11
70.2097861035164641
 21
122.8592741400422881
 31
0.0
 70
1
 71
5
 72
0
 41
1.0
 42
0.0
  1

  3
Standard
100
AcDbAlignedDimension
 13
65.4140140923099693
 23
117.1340860801889079
 33
0.0
 14
73.0063590522330514
 24
115.9342191044006256
 34
0.0
  0
DIMENSION
  5
2F7
100
AcDbEntity
  8
Krazyna wym.
 62
256
370
-1
  6
ByLayer
100
AcDbDimension
 10
92.2999999999999403
 20
96.8398040339861836
 30
0.0
 11
46.2499999999999787
 21
98.7148040339861836
 31
0.0
 70
0
 71
5
 72
0
 41
1.0
 42
0.0
  1

  3
Standard
100
AcDbAlignedDimension
 13
0.2000000000000058
 23
102.7622383302793594
 33
0.0
 14
92.2999999999999403
 24
102.7622383302793594
 34
0.0
 50
0.0
100
AcDbRotatedDimension
  0
DIMENSION
  5
2F8
100
AcDbEntity
  8
Otwor wym.
 62
256
370
-1
  6
ByLayer
100
AcDbDimension
 10
155.4805737976803925
 20
113.2499999999996589
 30
0.0
 11
153.6055737976803925
 21
112.1227835204490191
 31
0.0
 70
0
 71
5
 72
0
 41
1.0
 42
0.0
  1

  3
Standard
100
AcDbAlignedDimension
 13
92.2999999999999403
 23
110.9955670408983792
 33
0.0
 14
97.0091341318488389
 24
113.2499999999996732
 34
0.0
 50
90.0
100
AcDbRotatedDimension
  0
DIMENSION
  5
2F9
100
AcDbEntity
  8
Otwor wym.
 62
256
370
-1
  6
ByLayer
100
AcDbDimension
 10
47.6195730580349021
 20
136.3500000000000227
 30
0.0
 11
45.7445730580349021
 21
127.3687195885286343
 31
0.0
 70
0
 71
5
 72
0
 41
1.0
 42
0.0
  1

  3
Standard
100
AcDbAlignedDimension
 13
46.2499999999999574
 23
118.3874391770572458
 33
0.0
 14
104.7745455426267966
 24
136.3500000000000227
 34
0.0
 50
90.0
100
AcDbRotatedDimension
  0
DIMENSION
  5
2FA
100
AcDbEntity
  8
Otwor wym.
 62
256
370
-1
  6
ByLayer
100
AcDbDimension
 10
-4.5091341318490583
 20
154.0729285470323759
 30
0.0
 11
-2.2545670659245269
 21
155.9479285470323759
 31
0.0
 70
0
 71
5
 72
0
 41
1.0
 42
0.0
  1

  3
Standard
100
AcDbAlignedDimension
 13
0.0000000000000067
 23
110.0
 33
0.0
 14
-4.509134131849061
 24
113.25
 34
0.0
 50
0.0
100
AcDbRotatedDimension
  0
DIMENSION
  5
2FB
100
AcDbEntity
  8
Otwor wym.
 62
256
370
-1
  6
ByLayer
100
AcDbDimension
 10
42.9030497734575107
 20
147.0978426376989034
 30
0.0
 11
41.6070954970662186
 21
148.939620225711991
 31
0.0
 70
1
 71
5
 72
0
 41
1.0
 42
0.0
  1

  3
Standard
100
AcDbAlignedDimension
 13
40.5060428714420553
 23
143.3222738355611909
 33
0.0
 14
42.9999999999999574
 24
143.3874391770572458
 34
0.0
  0
DIMENSION
  5
2FC
100
AcDbEntity
  8
Otwor wym.
 62
256
370
-1
  6
ByLayer
100
AcDbDimension
 10
43.141612449201844
 20
112.9677579619838923
 30
0.0
 11
42.4984448638531305
 21
114.8265924060106045
 31
0.0
 70
1
 71
5
 72
0
 41
1.0
 42
0.0
  1

  3
Standard
100
AcDbAlignedDimension
 13
41.8116162535271556
 23
118.3563875475883975
 33
0.0
 14
42.9999999999999574
 24
118.3874391770572458
 34
0.0
  0
DIMENSION
  5
2FD
100
AcDbEntity
  8
Otwor wym.
 62
256
370
-1
  6
ByLayer
100
AcDbDimension
 10
46.2499999999999503
 20
-28.75
 30
0.0
 11
59.6589262494503743
 21
43.610713261633606
 31
0.0
 70
4
 71
5
 72
0
 41
1.0
 42
0.0
  1

  3
Standard
100
AcDbRadialDimension
 15
76.736474441714094
 25
115.1944367931492366
 35
0.0
 40
0.0
  0
DIMENSION
  5
2FE
100
AcDbEntity
  8
Otwor wym.
 62
256
370
-1
  6
ByLayer
100
AcDbDimension
 10
92.4999999999999147
 20
-5.5000000000000568
 30
0.0
 11
46.2499999999999645
 21
-3.6250000000000568
 31
0.0
 70
0
 71
5
 72
0
 41
1.0
 42
0.0
  1

  3
Standard
100
AcDbAlignedDimension
 13
0.0000000000000062
 23
-5.4999999999999858
 33
0.0
 14
92.4999999999999147
 24
-5.5000000000000568
 34
0.0
 50
0.0
100
AcDbRotatedDimension
  0
MTEXT
  5
2FF
100
AcDbEntity
100
AcDbMText
  8
Otwor
 62
256
370
-1
  6
ByLayer
 10
-40.5501114151088444
 20
-29.906480687213481
 30
0.0
 40
3.0
 41
100.0
 71
1
 72
2
  1
Okno\~92,5
  7
normallatin2
 50
0.0
 73
1
 44
1.0
  0
DIMENSION
  5
300
100
AcDbEntity
  8
Otwor wym.
 62
256
370
-1
  6
ByLayer
100
AcDbDimension
 10
8.7343142201749533
 20
105.5536787658044631
 30
0.0
 11
6.7747024094729529
 21
106.0415789106673543
 31
0.0
 70
1
 71
5
 72
1
 41
1.0
 42
0.0
  1

  3
Standard
100
AcDbAlignedDimension
 13
0.0000000000000067
 23
110.0
 33
0.0
 14
0.8770654269956556
 24
111.2168632777633377
 34
0.0
  0
DIMENSION
  5
301
100
AcDbEntity
  8
Otwor wym.
 62
256
370
-1
  6
ByLayer
100
AcDbDimension
 10
82.1602845131092607
 20
113.2499999999996732
 30
0.0
 11
80.2852845131092607
 21
42.2499999999998295
 31
0.0
 70
0
 71
5
 72
1
 41
1.0
 42
0.0
  1

  3
Standard
100
AcDbAlignedDimension
 13
46.2499999999999503
 23
-28.75
 33
0.0
 14
97.0091341318488389
 24
113.2499999999996732
 34
0.0
 50
90.0
100
AcDbRotatedDimension
  0
LINE
  5
302
100
AcDbEntity
100
AcDbLine
  8
Otwor
 62
256
370
-1
  6
ByLayer
 10
1.7511837206934446
 20
125.1149319238345328
 30
0.0
 11
-1.348085162099514
 21
136.7077975053959449
 31
0.0
  0
LINE
  5
303
100
AcDbEntity
100
AcDbLine
  8
Otwor
 62
256
370
-1
  6
ByLayer
 10
5.1087250103858128
 20
112.555994210476328
 30
0.0
 11
2.0094561275928577
 21
124.1488597920377401
 31
0.0
  0
LINE
  5
304
100
AcDbEntity
100
AcDbLine
  8
Otwor
 62
256
370
-1
  6
ByLayer
 10
8.2889249842719526
 20
125.8276304368839362
 30
0.0
 11
2.0094561275928577
 21
124.1488597920377401
 31
0.0
  0
LINE
  5
305
100
AcDbEntity
100
AcDbLine
  8
Otwor
 62
256
370
-1
  6
ByLayer
 10
11.3881938670649134
 20
114.2347648553225241
 30
0.0
 11
8.2889249842719526
 21
125.8276304368839362
 31
0.0
  0
LINE
  5
306
100
AcDbEntity
100
AcDbLine
  8
Otwor
 62
256
370
-1
  6
ByLayer
 10
8.0306525773725461
 20
126.7937025686807004
 30
0.0
 11
4.9313836945795861
 21
138.3865681502421126
 31
0.0
  0
LINE
  5
307
100
AcDbEntity
100
AcDbLine
  8
Otwor
 62
256
370
-1
  6
ByLayer
 10
1.7511837206934446
 20
125.1149319238345328
 30
0.0
 11
8.0306525773725461
 21
126.7937025686807004
 31
0.0
  0
LINE
  5
308
100
AcDbEntity
100
AcDbLine
  8
Otwor
 62
256
370
-1
  6
ByLayer
 10
18.0425288870846359
 20
128.9170558474399684
 30
0.0
 11
16.1693395792174819
 21
140.7699526164535371
 31
0.0
  0
LINE
  5
309
100
AcDbEntity
100
AcDbLine
  8
Otwor
 62
256
370
-1
  6
ByLayer
 10
20.071817303940712
 20
116.076417681008607
 30
0.0
 11
18.1986279960735651
 21
127.9293144500221615
 31
0.0
  0
LINE
  5
30A
100
AcDbEntity
100
AcDbLine
  8
Otwor
 62
256
370
-1
  6
ByLayer
 10
24.6189470792892422
 20
128.9439586584502138
 30
0.0
 11
18.1986279960735651
 21
127.9293144500221615
 31
0.0
  0
LINE
  5
30B
100
AcDbEntity
100
AcDbLine
  8
Otwor
 62
256
370
-1
  6
ByLayer
 10
26.4921363871563926
 20
117.0910618894366593
 30
0.0
 11
24.6189470792892422
 21
128.9439586584502138
 31
0.0
  0
LINE
  5
30C
100
AcDbEntity
100
AcDbLine
  8
Otwor
 62
256
370
-1
  6
ByLayer
 10
24.4628479703003165
 20
129.9317000558679922
 30
0.0
 11
22.5896586624331626
 21
141.7845968248815609
 31
0.0
  0
LINE
  5
30D
100
AcDbEntity
100
AcDbLine
  8
Otwor
 62
256
370
-1
  6
ByLayer
 10
18.0425288870846359
 20
128.9170558474399684
 30
0.0
 11
24.4628479703003165
 21
129.9317000558679922
 31
0.0
  0
LINE
  5
30E
100
AcDbEntity
100
AcDbLine
  8
Otwor
 62
256
370
-1
  6
ByLayer
 10
34.6415876599699644
 20
130.9991993379921098
 30
0.0
 11
34.0149124365691122
 21
142.9828247562190882
 31
0.0
  0
LINE
  5
30F
100
AcDbEntity
100
AcDbLine
  8
Otwor
 62
256
370
-1
  6
ByLayer
 10
35.3204858186542126
 20
118.0169384682462663
 30
0.0
 11
34.6938105952533675
 21
130.0005638864732305
 31
0.0
  0
LINE
  5
310
100
AcDbEntity
100
AcDbLine
  8
Otwor
 62
256
370
-1
  6
ByLayer
 10
41.1849410301263035
 20
130.3400129658153617
 30
0.0
 11
34.6938105952533675
 21
130.0005638864732305
 31
0.0
  0
LINE
  5
311
100
AcDbEntity
100
AcDbLine
  8
Otwor
 62
256
370
-1
  6
ByLayer
 10
41.8116162535271556
 20
118.3563875475883975
 30
0.0
 11
41.1849410301263035
 21
130.3400129658153617
 31
0.0
  0
LINE
  5
312
100
AcDbEntity
100
AcDbLine
  8
Otwor
 62
256
370
-1
  6
ByLayer
 10
41.1327180948429074
 20
131.3386484173342126
 30
0.0
 11
40.5060428714420553
 21
143.3222738355611909
 31
0.0
  0
LINE
  5
313
100
AcDbEntity
100
AcDbLine
  8
Otwor
 62
256
370
-1
  6
ByLayer
 10
34.6415876599699644
 20
130.9991993379921098
 30
0.0
 11
41.1327180948429074
 21
131.3386484173342126
 31
0.0
  0
LINE
  5
314
100
AcDbEntity
100
AcDbLine
  8
Otwor
 62
256
370
-1
  6
ByLayer
 10
51.3672819051570144
 20
131.3386484173342126
 30
0.0
 11
51.9939571285578737
 21
143.3222738355611909
 31
0.0
  0
LINE
  5
315
100
AcDbEntity
100
AcDbLine
  8
Otwor
 62
256
370
-1
  6
ByLayer
 10
50.688383746472752
 20
118.3563875475883833
 30
0.0
 11
51.3150589698736184
 21
130.3400129658153617
 31
0.0
  0
LINE
  5
316
100
AcDbEntity
100
AcDbLine
  8
Otwor
 62
256
370
-1
  6
ByLayer
 10
51.3150589698736184
 20
130.3400129658153617
 30
0.0
 11
57.8061894047465685
 21
130.0005638864732589
 31
0.0
  0
LINE
  5
317
100
AcDbEntity
100
AcDbLine
  8
Otwor
 62
256
370
-1
  6
ByLayer
 10
57.1795141813457164
 20
118.0169384682462805
 30
0.0
 11
57.8061894047465685
 21
130.0005638864732589
 31
0.0
  0
LINE
  5
318
100
AcDbEntity
100
AcDbLine
  8
Otwor
 62
256
370
-1
  6
ByLayer
 10
57.8584123400299646
 20
130.9991993379921098
 30
0.0
 11
58.4850875634308167
 21
142.9828247562190882
 31
0.0
  0
LINE
  5
319
100
AcDbEntity
100
AcDbLine
  8
Otwor
 62
256
370
-1
  6
ByLayer
 10
57.8584123400299646
 20
130.9991993379921098
 30
0.0
 11
51.3672819051570144
 21
131.3386484173342126
 31
0.0
  0
LINE
  5
31A
100
AcDbEntity
100
AcDbLine
  8
Otwor
 62
256
370
-1
  6
ByLayer
 10
68.0371520296995982
 20
129.9317000558679922
 30
0.0
 11
69.9103413375667486
 21
141.7845968248815609
 31
0.0
  0
LINE
  5
31B
100
AcDbEntity
100
AcDbLine
  8
Otwor
 62
256
370
-1
  6
ByLayer
 10
66.0078636128435221
 20
117.0910618894366735
 30
0.0
 11
67.8810529207106725
 21
128.9439586584502138
 31
0.0
  0
LINE
  5
31C
100
AcDbEntity
100
AcDbLine
  8
Otwor
 62
256
370
-1
  6
ByLayer
 10
67.8810529207106725
 20
128.9439586584502138
 30
0.0
 11
74.3013720039263461
 21
127.9293144500221615
 31
0.0
  0
LINE
  5
31D
100
AcDbEntity
100
AcDbLine
  8
Otwor
 62
256
370
-1
  6
ByLayer
 10
72.4281826960591957
 20
116.0764176810085928
 30
0.0
 11
74.3013720039263461
 21
127.9293144500221615
 31
0.0
  0
LINE
  5
31E
100
AcDbEntity
100
AcDbLine
  8
Otwor
 62
256
370
-1
  6
ByLayer
 10
74.457471112915286
 20
128.9170558474399684
 30
0.0
 11
76.3306604207824364
 21
140.7699526164535371
 31
0.0
  0
LINE
  5
31F
100
AcDbEntity
100
AcDbLine
  8
Otwor
 62
256
370
-1
  6
ByLayer
 10
74.457471112915286
 20
128.9170558474399684
 30
0.0
 11
68.0371520296995982
 21
129.9317000558679922
 31
0.0
  0
LINE
  5
320
100
AcDbEntity
100
AcDbLine
  8
Otwor
 62
256
370
-1
  6
ByLayer
 10
84.4693474226273651
 20
126.7937025686807004
 30
0.0
 11
87.5686163054203206
 21
138.3865681502421126
 31
0.0
  0
LINE
  5
321
100
AcDbEntity
100
AcDbLine
  8
Otwor
 62
256
370
-1
  6
ByLayer
 10
81.1118061329350155
 20
114.2347648553225099
 30
0.0
 11
84.2110750157279568
 21
125.8276304368839362
 31
0.0
  0
LINE
  5
322
100
AcDbEntity
100
AcDbLine
  8
Otwor
 62
256
370
-1
  6
ByLayer
 10
84.2110750157279568
 20
125.8276304368839362
 30
0.0
 11
90.4905438724070734
 21
124.1488597920377543
 31
0.0
  0
LINE
  5
323
100
AcDbEntity
100
AcDbLine
  8
Otwor
 62
256
370
-1
  6
ByLayer
 10
87.3912749896141179
 20
112.5559942104763422
 30
0.0
 11
90.4905438724070734
 21
124.1488597920377543
 31
0.0
  0
LINE
  5
324
100
AcDbEntity
100
AcDbLine
  8
Otwor
 62
256
370
-1
  6
ByLayer
 10
90.7488162793064816
 20
125.1149319238345328
 30
0.0
 11
93.8480851620994372
 21
136.7077975053959449
 31
0.0
  0
LINE
  5
325
100
AcDbEntity
100
AcDbLine
  8
Otwor
 62
256
370
-1
  6
ByLayer
 10
90.7488162793064816
 20
125.1149319238345328
 30
0.0
 11
84.4693474226273651
 21
126.7937025686807004
 31
0.0
  0
ENDSEC
  0
SECTION
  2
OBJECTS
  0
DICTIONARY
  5
C
100
AcDbDictionary
280
0
281
1
  3
ACAD_GROUP
350
D
  3
ACAD_LAYOUT
350
1A
  3
ACAD_MLINESTYLE
350
17
  3
ACAD_PLOTSETTINGS
350
19
  3
ACAD_PLOTSTYLENAME
350
E
  3
AcDbVariableDictionary
350
326
  0
DICTIONARY
  5
D
100
AcDbDictionary
280
0
281
1
  0
ACDBDICTIONARYWDFLT
  5
E
100
AcDbDictionary
281
1
  3
Normal
350
F
100
AcDbDictionaryWithDefault
340
F
  0
ACDBPLACEHOLDER
  5
F
  0
DICTIONARY
  5
17
100
AcDbDictionary
280
0
281
1
  3
Standard
350
18
  0
MLINESTYLE
  5
18
100
AcDbMlineStyle
  2
STANDARD
 70
0
  3

 62
256
 51
90.0
 52
90.0
 71
2
 49
0.5
 62
256
  6
BYLAYER
 49
-0.5
 62
256
  6
BYLAYER
  0
DICTIONARY
  5
19
100
AcDbDictionary
280
0
281
1
  0
DICTIONARY
  5
1A
100
AcDbDictionary
281
1
  3
Layout1
350
1E
  3
Layout2
350
26
  3
Model
350
22
  0
LAYOUT
  5
1E
100
AcDbPlotSettings
  1

  2
C:\Program Files\AutoCAD 2002\plotters\DWF ePlot (optimized for plotting).pc3
  4

  6

 40
0.0
 41
0.0
 42
0.0
 43
0.0
 44
0.0
 45
0.0
 46
0.0
 47
0.0
 48
0.0
 49
0.0
140
0.0
141
0.0
142
1.0
143
1.0
 70
688
 72
0
 73
0
 74
5
  7

 75
16
147
1.0
148
0.0
149
0.0
100
AcDbLayout
  1
Layout1
 70
1
 71
1
 10
0.0
 20
0.0
 11
420.0
 21
297.0
 12
0.0
 22
0.0
 32
0.0
 14
100000000000000000000.0
 24
100000000000000000000.0
 34
100000000000000000000.0
 15
-100000000000000000000.0
 25
-100000000000000000000.0
 35
-100000000000000000000.0
146
0.0
 13
0.0
 23
0.0
 33
0.0
 16
1.0
 26
0.0
 36
0.0
 17
0.0
 27
1.0
 37
0.0
 76
0
330
1B
  0
LAYOUT
  5
22
100
AcDbPlotSettings
  1

  2
C:\Program Files\AutoCAD 2002\plotters\DWF ePlot (optimized for plotting).pc3
  4

  6

 40
0.0
 41
0.0
 42
0.0
 43
0.0
 44
0.0
 45
0.0
 46
0.0
 47
0.0
 48
0.0
 49
0.0
140
0.0
141
0.0
142
1.0
143
1.0
 70
1712
 72
0
 73
0
 74
0
  7

 75
0
147
1.0
148
0.0
149
0.0
100
AcDbLayout
  1
Model
 70
1
 71
0
 10
0.0
 20
0.0
 11
12.0
 21
9.0
 12
0.0
 22
0.0
 32
0.0
 14
0.0
 24
0.0
 34
0.0
 15
0.0
 25
0.0
 35
0.0
146
0.0
 13
0.0
 23
0.0
 33
0.0
 16
1.0
 26
0.0
 36
0.0
 17
0.0
 27
1.0
 37
0.0
 76
0
330
1F
  0
LAYOUT
  5
26
100
AcDbPlotSettings
  1

  2
C:\Program Files\AutoCAD 2002\plotters\DWF ePlot (optimized for plotting).pc3
  4

  6

 40
0.0
 41
0.0
 42
0.0
 43
0.0
 44
0.0
 45
0.0
 46
0.0
 47
0.0
 48
0.0
 49
0.0
140
0.0
141
0.0
142
1.0
143
1.0
 70
688
 72
0
 73
0
 74
5
  7

 75
16
147
1.0
148
0.0
149
0.0
100
AcDbLayout
  1
Layout2
 70
1
 71
2
 10
0.0
 20
0.0
 11
12.0
 21
9.0
 12
0.0
 22
0.0
 32
0.0
 14
0.0
 24
0.0
 34
0.0
 15
0.0
 25
0.0
 35
0.0
146
0.0
 13
0.0
 23
0.0
 33
0.0
 16
1.0
 26
0.0
 36
0.0
 17
0.0
 27
1.0
 37
0.0
 76
0
330
23
  0
DICTIONARY
  5
326
100
AcDbDictionary
281
1
  3
DIMASSOC
350
328
  3
HIDETEXT
350
327
  0
DICTIONARYVAR
  5
327
100
DictionaryVariables
280
0
  1
2
  0
DICTIONARYVAR
  5
328
100
DictionaryVariables
280
0
  1
1
  0
ENDSEC
  0
EOF
