999
dxflib 2.2.0.0
  0
SECTION
  2
HEADER
  9
$ACADVER
  1
AC1015
  9
$HANDSEED
  5
FFFF
  9
$SPLINESEGS
 70
8
  9
$DIMEXE
 40
1.25
  9
$PSVPSCALE
 40
0.2453274181239236
  9
$DIMLUNIT
 70
2
  9
$GRIDMODE
 70
1
  9
$INSUNITS
 70
5
  9
$DIMADEC
 70
2
  9
$DIMASZ
 40
2.5
  9
$DIMGAP
 40
0.625
  9
$DIMTXT
 40
2.5
  9
$GRIDUNIT
 10
0.0
 20
0.0
  9
$DIMEXO
 40
0.625
  9
$LUPREC
 70
2
  9
$PINSBASE
 10
2.7396865806128261
 20
-16.8242494086346852
 30
0.0
  9
$DIMAUNIT
 70
0
  9
$AUPREC
 70
2
  9
$PLIMMIN
 10
0.0
 20
0.0
  9
$LUNITS
 70
2
  9
$PLIMMAX
 10
29.6999999999999993
 20
21.0
  9
$DIMSTYLE
  2
Standard
  9
$AUNITS
 70
0
  0
ENDSEC
  0
SECTION
  2
TABLES
  0
TABLE
  2
VPORT
  5
8
100
AcDbSymbolTable
 70
1
  0
VPORT
  5
30
100
AcDbSymbolTableRecord
100
AcDbViewportTableRecord
  2
*Active
 70
0
 10
0.0
 20
0.0
 11
1.0
 21
1.0
 12
286.3055555555554861
 22
148.5
 13
0.0
 23
0.0
 14
10.0
 24
10.0
 15
10.0
 25
10.0
 16
0.0
 26
0.0
 36
1.0
 17
0.0
 27
0.0
 37
0.0
 40
297.0
 41
1.92798353909465
 42
50.0
 43
0.0
 44
0.0
 50
0.0
 51
0.0
 71
0
 72
100
 73
1
 74
3
 75
1
 76
1
 77
0
 78
0
281
0
 65
1
110
0.0
120
0.0
130
0.0
111
1.0
121
0.0
131
0.0
112
0.0
122
1.0
132
0.0
 79
0
146
0.0
  0
ENDTAB
  0
TABLE
  2
LTYPE
  5
5
100
AcDbSymbolTable
 70
21
  0
LTYPE
  5
14
100
AcDbSymbolTableRecord
100
AcDbLinetypeTableRecord
  2
ByBlock
 70
0
  3

 72
65
 73
0
 40
0.0
  0
LTYPE
  5
15
100
AcDbSymbolTableRecord
100
AcDbLinetypeTableRecord
  2
ByLayer
 70
0
  3

 72
65
 73
0
 40
0.0
  0
LTYPE
  5
16
100
AcDbSymbolTableRecord
100
AcDbLinetypeTableRecord
  2
CONTINUOUS
 70
0
  3
Solid line
 72
65
 73
0
 40
0.0
  0
LTYPE
  5
31
100
AcDbSymbolTableRecord
100
AcDbLinetypeTableRecord
  2
DOT
 70
0
  3
Dot . . . . . . . . . . . . . . . . . . . . . .
 72
65
 73
2
 40
6.3499999999999996
 49
0.0
 74
0
 49
-6.3499999999999996
 74
0
  0
LTYPE
  5
32
100
AcDbSymbolTableRecord
100
AcDbLinetypeTableRecord
  2
DOT2
 70
0
  3
Dot (.5x) .....................................
 72
65
 73
2
 40
3.1749999999999998
 49
0.0
 74
0
 49
-3.1749999999999998
 74
0
  0
LTYPE
  5
33
100
AcDbSymbolTableRecord
100
AcDbLinetypeTableRecord
  2
DOTX2
 70
0
  3
Dot (2x) .  .  .  .  .  .  .  .  .  .  .  .  .
 72
65
 73
2
 40
12.6999999999999993
 49
0.0
 74
0
 49
-12.6999999999999993
 74
0
  0
LTYPE
  5
34
100
AcDbSymbolTableRecord
100
AcDbLinetypeTableRecord
  2
DASHED
 70
0
  3
Dashed __ __ __ __ __ __ __ __ __ __ __ __ __ _
 72
65
 73
2
 40
19.0500000000000007
 49
12.6999999999999993
 74
0
 49
-6.3499999999999996
 74
0
  0
LTYPE
  5
35
100
AcDbSymbolTableRecord
100
AcDbLinetypeTableRecord
  2
DASHED2
 70
0
  3
Dashed (.5x) _ _ _ _ _ _ _ _ _ _ _ _ _ _ _ _ _
 72
65
 73
2
 40
9.5250000000000004
 49
6.3499999999999996
 74
0
 49
-3.1749999999999998
 74
0
  0
LTYPE
  5
36
100
AcDbSymbolTableRecord
100
AcDbLinetypeTableRecord
  2
DASHEDX2
 70
0
  3
Dashed (2x) ____  ____  ____  ____  ____  ___
 72
65
 73
2
 40
38.1000000000000014
 49
25.3999999999999986
 74
0
 49
-12.6999999999999993
 74
0
  0
LTYPE
  5
37
100
AcDbSymbolTableRecord
100
AcDbLinetypeTableRecord
  2
DASHDOT
 70
0
  3
Dash dot __ . __ . __ . __ . __ . __ . __ . __
 72
65
 73
4
 40
25.3999999999999986
 49
12.6999999999999993
 74
0
 49
-6.3499999999999996
 74
0
 49
0.0
 74
0
 49
-6.3499999999999996
 74
0
  0
LTYPE
  5
38
100
AcDbSymbolTableRecord
100
AcDbLinetypeTableRecord
  2
DASHDOT2
 70
0
  3
Dash dot (.5x) _._._._._._._._._._._._._._._.
 72
65
 73
4
 40
12.6999999999999993
 49
6.3499999999999996
 74
0
 49
-3.1749999999999998
 74
0
 49
0.0
 74
0
 49
-3.1749999999999998
 74
0
  0
LTYPE
  5
39
100
AcDbSymbolTableRecord
100
AcDbLinetypeTableRecord
  2
DASHDOTX2
 70
0
  3
Dash dot (2x) ____  .  ____  .  ____  .  ___
 72
65
 73
4
 40
50.7999999999999972
 49
25.3999999999999986
 74
0
 49
-12.6999999999999993
 74
0
 49
0.0
 74
0
 49
-12.6999999999999993
 74
0
  0
LTYPE
  5
3A
100
AcDbSymbolTableRecord
100
AcDbLinetypeTableRecord
  2
DIVIDE
 70
0
  3
Divide ____ . . ____ . . ____ . . ____ . . ____
 72
65
 73
6
 40
31.75
 49
12.6999999999999993
 74
0
 49
-6.3499999999999996
 74
0
 49
0.0
 74
0
 49
-6.3499999999999996
 74
0
 49
0.0
 74
0
 49
-6.3499999999999996
 74
0
  0
LTYPE
  5
3B
100
AcDbSymbolTableRecord
100
AcDbLinetypeTableRecord
  2
DIVIDE2
 70
0
  3
Divide (.5x) __..__..__..__..__..__..__..__.._
 72
65
 73
6
 40
15.875
 49
6.3499999999999996
 74
0
 49
-3.1749999999999998
 74
0
 49
0.0
 74
0
 49
-3.1749999999999998
 74
0
 49
0.0
 74
0
 49
-3.1749999999999998
 74
0
  0
LTYPE
  5
3C
100
AcDbSymbolTableRecord
100
AcDbLinetypeTableRecord
  2
DIVIDEX2
 70
0
  3
Divide (2x) ________  .  .  ________  .  .  _
 72
65
 73
6
 40
63.5
 49
25.3999999999999986
 74
0
 49
-12.6999999999999993
 74
0
 49
0.0
 74
0
 49
-12.6999999999999993
 74
0
 49
0.0
 74
0
 49
-12.6999999999999993
 74
0
  0
LTYPE
  5
3D
100
AcDbSymbolTableRecord
100
AcDbLinetypeTableRecord
  2
CENTER
 70
0
  3
Center ____ _ ____ _ ____ _ ____ _ ____ _ ____
 72
65
 73
4
 40
50.7999999999999972
 49
31.75
 74
0
 49
-6.3499999999999996
 74
0
 49
6.3499999999999996
 74
0
 49
-6.3499999999999996
 74
0
  0
LTYPE
  5
3E
100
AcDbSymbolTableRecord
100
AcDbLinetypeTableRecord
  2
CENTER2
 70
0
  3
Center (.5x) ___ _ ___ _ ___ _ ___ _ ___ _ ___
 72
65
 73
4
 40
28.5749999999999993
 49
19.0500000000000007
 74
0
 49
-3.1749999999999998
 74
0
 49
3.1749999999999998
 74
0
 49
-3.1749999999999998
 74
0
  0
LTYPE
  5
3F
100
AcDbSymbolTableRecord
100
AcDbLinetypeTableRecord
  2
CENTERX2
 70
0
  3
Center (2x) ________  __  ________  __  _____
 72
65
 73
4
 40
101.5999999999999943
 49
63.5
 74
0
 49
-12.6999999999999993
 74
0
 49
12.6999999999999993
 74
0
 49
-12.6999999999999993
 74
0
  0
LTYPE
  5
40
100
AcDbSymbolTableRecord
100
AcDbLinetypeTableRecord
  2
BORDER
 70
0
  3
Border __ __ . __ __ . __ __ . __ __ . __ __ .
 72
65
 73
6
 40
44.4500000000000028
 49
12.6999999999999993
 74
0
 49
-6.3499999999999996
 74
0
 49
12.6999999999999993
 74
0
 49
-6.3499999999999996
 74
0
 49
0.0
 74
0
 49
-6.3499999999999996
 74
0
  0
LTYPE
  5
41
100
AcDbSymbolTableRecord
100
AcDbLinetypeTableRecord
  2
BORDER2
 70
0
  3
Border (.5x) __.__.__.__.__.__.__.__.__.__.__.
 72
65
 73
6
 40
22.2250000000000014
 49
6.3499999999999996
 74
0
 49
-3.1749999999999998
 74
0
 49
6.3499999999999996
 74
0
 49
-3.1749999999999998
 74
0
 49
0.0
 74
0
 49
-3.1749999999999998
 74
0
  0
LTYPE
  5
42
100
AcDbSymbolTableRecord
100
AcDbLinetypeTableRecord
  2
BORDERX2
 70
0
  3
Border (2x) ____  ____  .  ____  ____  .  ___
 72
65
 73
6
 40
88.9000000000000057
 49
25.3999999999999986
 74
0
 49
-12.6999999999999993
 74
0
 49
25.3999999999999986
 74
0
 49
-12.6999999999999993
 74
0
 49
0.0
 74
0
 49
-12.6999999999999993
 74
0
  0
ENDTAB
  0
TABLE
  2
LAYER
  5
2
100
AcDbSymbolTable
 70
6
  0
LAYER
  5
10
100
AcDbSymbolTableRecord
100
AcDbLayerTableRecord
  2
0
 70
0
 62
7
  6
CONTINUOUS
370
0
390
F
  0
LAYER
  5
43
100
AcDbSymbolTableRecord
100
AcDbLayerTableRecord
  2
Otwor
 70
1
 62
7
  6
CONTINUOUS
370
18
390
F
  0
LAYER
  5
44
100
AcDbSymbolTableRecord
100
AcDbLayerTableRecord
  2
Otwor wym.
 70
1
 62
1
  6
CONTINUOUS
370
0
390
F
  0
LAYER
  5
45
100
AcDbSymbolTableRecord
100
AcDbLayerTableRecord
  2
Krazyna wym.
 70
1
 62
1
  6
CONTINUOUS
370
0
390
F
  0
LAYER
  5
46
100
AcDbSymbolTableRecord
100
AcDbLayerTableRecord
  2
Krazyna
 70
1
 62
5
  6
CONTINUOUS
370
13
390
F
  0
LAYER
  5
47
100
AcDbSymbolTableRecord
100
AcDbLayerTableRecord
  2
Kraz-zewn
 70
0
 62
7
  6
CONTINUOUS
370
0
390
F
  0
ENDTAB
  0
TABLE
  2
STYLE
  5
3
100
AcDbSymbolTable
 70
1
  0
STYLE
  5
11
100
AcDbSymbolTableRecord
100
AcDbTextStyleTableRecord
  2
Standard
 70
0
 40
0.0
 41
0.75
 50
0.0
 71
0
 42
2.5
  3
txt
  4

  0
ENDTAB
  0
TABLE
  2
VIEW
  5
6
100
AcDbSymbolTable
 70
0
  0
ENDTAB
  0
TABLE
  2
UCS
  5
7
100
AcDbSymbolTable
 70
0
  0
ENDTAB
  0
TABLE
  2
APPID
  5
9
100
AcDbSymbolTable
 70
1
  0
APPID
  5
12
100
AcDbSymbolTableRecord
100
AcDbRegAppTableRecord
  2
ACAD
 70
0
  0
ENDTAB
  0
TABLE
  2
DIMSTYLE
  5
A
100
AcDbSymbolTable
 70
1
100
AcDbDimStyleTable
 71
0
  0
DIMSTYLE
105
27
100
AcDbSymbolTableRecord
100
AcDbDimStyleTableRecord
  2
Standard
 41
2.5
 42
0.625
 43
3.75
 44
1.25
 70
0
 73
0
 74
0
 77
1
 78
8
140
2.5
141
2.5
143
0.03937007874016
147
0.625
171
3
172
1
271
2
272
2
274
3
278
44
283
0
284
8
340
11
  0
ENDTAB
  0
TABLE
  2
BLOCK_RECORD
  5
1
100
AcDbSymbolTable
 70
1
  0
BLOCK_RECORD
  5
1F
100
AcDbSymbolTableRecord
100
AcDbBlockTableRecord
  2
*Model_Space
340
22
  0
BLOCK_RECORD
  5
1B
100
AcDbSymbolTableRecord
100
AcDbBlockTableRecord
  2
*Paper_Space
340
1E
  0
BLOCK_RECORD
  5
23
100
AcDbSymbolTableRecord
100
AcDbBlockTableRecord
  2
*Paper_Space0
340
26
  0
ENDTAB
  0
ENDSEC
  0
SECTION
  2
BLOCKS
  0
BLOCK
  5
20
100
AcDbEntity
  8
0
100
AcDbBlockBegin
  2
*Model_Space
 70
0
 10
0.0
 20
0.0
 30
0.0
  3
*Model_Space
  1

  0
ENDBLK
  5
21
100
AcDbEntity
  8
0
100
AcDbBlockEnd
  0
BLOCK
  5
1C
100
AcDbEntity
 67
1
  8
0
100
AcDbBlockBegin
  2
*Paper_Space
 70
0
 10
0.0
 20
0.0
 30
0.0
  3
*Paper_Space
  1

  0
ENDBLK
  5
1D
100
AcDbEntity
 67
1
  8
0
100
AcDbBlockEnd
  0
BLOCK
  5
24
100
AcDbEntity
  8
0
100
AcDbBlockBegin
  2
*Paper_Space0
 70
0
 10
0.0
 20
0.0
 30
0.0
  3
*Paper_Space0
  1

  0
ENDBLK
  5
25
100
AcDbEntity
  8
0
100
AcDbBlockEnd
  0
ENDSEC
  0
SECTION
  2
ENTITIES
  0
LINE
  5
48
100
AcDbEntity
100
AcDbLine
  8
Otwor
 62
256
370
-1
  6
ByLayer
 10
-11.9999999999999929
 20
113.25
 30
0.0
 11
-4.509134131849061
 21
113.25
 31
0.0
  0
LINE
  5
49
100
AcDbEntity
100
AcDbLine
  8
Otwor
 62
256
370
-1
  6
ByLayer
 10
-11.9999999999999929
 20
106.75
 30
0.0
 11
-11.9999999999999929
 21
113.25
 31
0.0
  0
LINE
  5
4A
100
AcDbEntity
100
AcDbLine
  8
Otwor
 62
256
370
-1
  6
ByLayer
 10
0.0000000000000067
 20
110.0
 30
0.0
 11
-4.509134131849061
 21
113.25
 31
0.0
  0
LINE
  5
4B
100
AcDbEntity
100
AcDbLine
  8
Otwor
 62
256
370
-1
  6
ByLayer
 10
-13.1999999999999922
 20
106.75
 30
0.0
 11
-13.1999999999999922
 21
113.25
 31
0.0
  0
LINE
  5
4C
100
AcDbEntity
100
AcDbLine
  8
Otwor
 62
256
370
-1
  6
ByLayer
 10
-25.1999999999999922
 20
106.75
 30
0.0
 11
-25.1999999999999922
 21
113.25
 31
0.0
  0
LINE
  5
4D
100
AcDbEntity
100
AcDbLine
  8
Otwor
 62
256
370
-1
  6
ByLayer
 10
-26.3999999999999915
 20
106.75
 30
0.0
 11
-26.3999999999999915
 21
113.25
 31
0.0
  0
LINE
  5
4E
100
AcDbEntity
100
AcDbLine
  8
Otwor
 62
256
370
-1
  6
ByLayer
 10
-38.3999999999999915
 20
106.75
 30
0.0
 11
-38.3999999999999915
 21
113.25
 31
0.0
  0
LINE
  5
4F
100
AcDbEntity
100
AcDbLine
  8
Otwor
 62
256
370
-1
  6
ByLayer
 10
-38.3999999999999915
 20
106.75
 30
0.0
 11
-26.3999999999999915
 21
106.75
 31
0.0
  0
LINE
  5
50
100
AcDbEntity
100
AcDbLine
  8
Otwor
 62
256
370
-1
  6
ByLayer
 10
-25.1999999999999922
 20
106.75
 30
0.0
 11
-13.1999999999999922
 21
106.75
 31
0.0
  0
LINE
  5
51
100
AcDbEntity
100
AcDbLine
  8
Otwor
 62
256
370
-1
  6
ByLayer
 10
-13.1999999999999922
 20
113.25
 30
0.0
 11
-25.1999999999999922
 21
113.25
 31
0.0
  0
LINE
  5
52
100
AcDbEntity
100
AcDbLine
  8
Otwor
 62
256
370
-1
  6
ByLayer
 10
-26.3999999999999915
 20
113.25
 30
0.0
 11
-38.3999999999999915
 21
113.25
 31
0.0
  0
LINE
  5
53
100
AcDbEntity
100
AcDbLine
  8
Otwor
 62
256
370
-1
  6
ByLayer
 10
-19.7999999999999936
 20
114.4500000000000028
 30
0.0
 11
-19.7999999999999936
 21
120.9500000000000028
 31
0.0
  0
LINE
  5
54
100
AcDbEntity
100
AcDbLine
  8
Otwor
 62
256
370
-1
  6
ByLayer
 10
-18.5999999999999908
 20
114.4500000000000028
 30
0.0
 11
-18.5999999999999908
 21
120.9500000000000028
 31
0.0
  0
LINE
  5
55
100
AcDbEntity
100
AcDbLine
  8
Otwor
 62
256
370
-1
  6
ByLayer
 10
-44.7999999999999972
 20
114.4500000000000028
 30
0.0
 11
-44.7999999999999972
 21
120.9500000000000028
 31
0.0
  0
LINE
  5
56
100
AcDbEntity
100
AcDbLine
  8
Otwor
 62
256
370
-1
  6
ByLayer
 10
-44.7999999999999972
 20
120.9500000000000028
 30
0.0
 11
-19.7999999999999936
 21
120.9500000000000028
 31
0.0
  0
LINE
  5
57
100
AcDbEntity
100
AcDbLine
  8
Otwor
 62
256
370
-1
  6
ByLayer
 10
-19.7999999999999936
 20
114.4500000000000028
 30
0.0
 11
-44.7999999999999972
 21
114.4500000000000028
 31
0.0
  0
LINE
  5
58
100
AcDbEntity
100
AcDbLine
  8
Otwor
 62
256
370
-1
  6
ByLayer
 10
-38.3999999999999915
 20
122.1500000000000057
 30
0.0
 11
-26.3999999999999915
 21
122.1500000000000057
 31
0.0
  0
LINE
  5
59
100
AcDbEntity
100
AcDbLine
  8
Otwor
 62
256
370
-1
  6
ByLayer
 10
-25.1999999999999922
 20
122.1500000000000057
 30
0.0
 11
-13.1999999999999922
 21
122.1500000000000057
 31
0.0
  0
LINE
  5
5A
100
AcDbEntity
100
AcDbLine
  8
Otwor
 62
256
370
-1
  6
ByLayer
 10
-38.3999999999999915
 20
122.1500000000000057
 30
0.0
 11
-38.3999999999999915
 21
128.6500000000000057
 31
0.0
  0
LINE
  5
5B
100
AcDbEntity
100
AcDbLine
  8
Otwor
 62
256
370
-1
  6
ByLayer
 10
-38.3999999999999915
 20
128.6500000000000057
 30
0.0
 11
-26.3999999999999915
 21
128.6500000000000057
 31
0.0
  0
LINE
  5
5C
100
AcDbEntity
100
AcDbLine
  8
Otwor
 62
256
370
-1
  6
ByLayer
 10
-26.3999999999999915
 20
122.1500000000000057
 30
0.0
 11
-26.3999999999999915
 21
128.6500000000000057
 31
0.0
  0
LINE
  5
5D
100
AcDbEntity
100
AcDbLine
  8
Otwor
 62
256
370
-1
  6
ByLayer
 10
-25.1999999999999922
 20
122.1500000000000057
 30
0.0
 11
-25.1999999999999922
 21
128.6500000000000057
 31
0.0
  0
LINE
  5
5E
100
AcDbEntity
100
AcDbLine
  8
Otwor
 62
256
370
-1
  6
ByLayer
 10
-13.1999999999999922
 20
122.1500000000000057
 30
0.0
 11
-13.1999999999999922
 21
128.6500000000000057
 31
0.0
  0
LINE
  5
5F
100
AcDbEntity
100
AcDbLine
  8
Otwor
 62
256
370
-1
  6
ByLayer
 10
-31.7999999999999901
 20
129.8499999999999943
 30
0.0
 11
-31.7999999999999901
 21
136.3499999999999943
 31
0.0
  0
LINE
  5
60
100
AcDbEntity
100
AcDbLine
  8
Otwor
 62
256
370
-1
  6
ByLayer
 10
-57.9999999999999929
 20
129.8499999999999943
 30
0.0
 11
-57.9999999999999929
 21
136.3499999999999943
 31
0.0
  0
LINE
  5
61
100
AcDbEntity
100
AcDbLine
  8
Otwor
 62
256
370
-1
  6
ByLayer
 10
-57.9999999999999929
 20
129.8499999999999943
 30
0.0
 11
-32.9999999999999929
 21
129.8499999999999943
 31
0.0
  0
LINE
  5
62
100
AcDbEntity
100
AcDbLine
  8
Otwor
 62
256
370
-1
  6
ByLayer
 10
-57.9999999999999929
 20
136.3499999999999943
 30
0.0
 11
-32.9999999999999929
 21
136.3499999999999943
 31
0.0
  0
LINE
  5
63
100
AcDbEntity
100
AcDbLine
  8
Otwor
 62
256
370
-1
  6
ByLayer
 10
-32.9999999999999929
 20
129.8499999999999943
 30
0.0
 11
-32.9999999999999929
 21
136.3499999999999943
 31
0.0
  0
LINE
  5
64
100
AcDbEntity
100
AcDbLine
  8
Otwor
 62
256
370
-1
  6
ByLayer
 10
-11.9999999999999929
 20
122.1500000000000057
 30
0.0
 11
-11.9999999999999929
 21
128.6500000000000057
 31
0.0
  0
LINE
  5
65
100
AcDbEntity
100
AcDbLine
  8
Otwor
 62
256
370
-1
  6
ByLayer
 10
-25.1999999999999922
 20
128.6500000000000057
 30
0.0
 11
-13.1999999999999922
 21
128.6500000000000057
 31
0.0
  0
LINE
  5
66
100
AcDbEntity
100
AcDbLine
  8
Otwor
 62
256
370
-1
  6
ByLayer
 10
-18.5999999999999908
 20
99.0499999999999972
 30
0.0
 11
0.0000000000000051
 21
99.0499999999999972
 31
0.0
  0
LINE
  5
67
100
AcDbEntity
100
AcDbLine
  8
Otwor
 62
256
370
-1
  6
ByLayer
 10
-18.5999999999999908
 20
99.0499999999999972
 30
0.0
 11
-18.5999999999999908
 21
105.5499999999999972
 31
0.0
  0
LINE
  5
68
100
AcDbEntity
100
AcDbLine
  8
Otwor
 62
256
370
-1
  6
ByLayer
 10
-18.5999999999999908
 20
105.5499999999999972
 30
0.0
 11
0.0000000000000063
 21
105.5499999999999972
 31
0.0
  0
LINE
  5
69
100
AcDbEntity
100
AcDbLine
  8
Otwor
 62
256
370
-1
  6
ByLayer
 10
-19.7999999999999936
 20
99.0499999999999972
 30
0.0
 11
-19.7999999999999936
 21
105.5499999999999972
 31
0.0
  0
LINE
  5
6A
100
AcDbEntity
100
AcDbLine
  8
Otwor
 62
256
370
-1
  6
ByLayer
 10
-32.9999999999999929
 20
99.0499999999999972
 30
0.0
 11
-32.9999999999999929
 21
105.5499999999999972
 31
0.0
  0
LINE
  5
6B
100
AcDbEntity
100
AcDbLine
  8
Otwor
 62
256
370
-1
  6
ByLayer
 10
-31.7999999999999901
 20
99.0499999999999972
 30
0.0
 11
-19.7999999999999936
 21
99.0499999999999972
 31
0.0
  0
LINE
  5
6C
100
AcDbEntity
100
AcDbLine
  8
Otwor
 62
256
370
-1
  6
ByLayer
 10
-31.7999999999999901
 20
99.0499999999999972
 30
0.0
 11
-31.7999999999999901
 21
105.5499999999999972
 31
0.0
  0
LINE
  5
6D
100
AcDbEntity
100
AcDbLine
  8
Otwor
 62
256
370
-1
  6
ByLayer
 10
-31.7999999999999901
 20
105.5499999999999972
 30
0.0
 11
-19.7999999999999936
 21
105.5499999999999972
 31
0.0
  0
LINE
  5
6E
100
AcDbEntity
100
AcDbLine
  8
Otwor
 62
256
370
-1
  6
ByLayer
 10
-57.9999999999999929
 20
105.5499999999999972
 30
0.0
 11
-32.9999999999999929
 21
105.5499999999999972
 31
0.0
  0
LINE
  5
6F
100
AcDbEntity
100
AcDbLine
  8
Otwor
 62
256
370
-1
  6
ByLayer
 10
-57.9999999999999929
 20
99.0499999999999972
 30
0.0
 11
-32.9999999999999929
 21
99.0499999999999972
 31
0.0
  0
LINE
  5
70
100
AcDbEntity
100
AcDbLine
  8
Otwor
 62
256
370
-1
  6
ByLayer
 10
-57.9999999999999929
 20
105.5499999999999972
 30
0.0
 11
-57.9999999999999929
 21
99.0499999999999972
 31
0.0
  0
LINE
  5
71
100
AcDbEntity
100
AcDbLine
  8
Otwor
 62
256
370
-1
  6
ByLayer
 10
-51.5999999999999943
 20
122.1500000000000057
 30
0.0
 11
-39.5999999999999943
 21
122.1500000000000057
 31
0.0
  0
LINE
  5
72
100
AcDbEntity
100
AcDbLine
  8
Otwor
 62
256
370
-1
  6
ByLayer
 10
-51.5999999999999943
 20
122.1500000000000057
 30
0.0
 11
-51.5999999999999943
 21
128.6500000000000057
 31
0.0
  0
LINE
  5
73
100
AcDbEntity
100
AcDbLine
  8
Otwor
 62
256
370
-1
  6
ByLayer
 10
-51.5999999999999943
 20
128.6500000000000057
 30
0.0
 11
-39.5999999999999943
 21
128.6500000000000057
 31
0.0
  0
LINE
  5
74
100
AcDbEntity
100
AcDbLine
  8
Otwor
 62
256
370
-1
  6
ByLayer
 10
-39.5999999999999943
 20
122.1500000000000057
 30
0.0
 11
-39.5999999999999943
 21
128.6500000000000057
 31
0.0
  0
LINE
  5
75
100
AcDbEntity
100
AcDbLine
  8
Otwor
 62
256
370
-1
  6
ByLayer
 10
-39.5999999999999943
 20
106.75
 30
0.0
 11
-39.5999999999999943
 21
113.25
 31
0.0
  0
LINE
  5
76
100
AcDbEntity
100
AcDbLine
  8
Otwor
 62
256
370
-1
  6
ByLayer
 10
-51.5999999999999943
 20
106.75
 30
0.0
 11
-51.5999999999999943
 21
113.25
 31
0.0
  0
LINE
  5
77
100
AcDbEntity
100
AcDbLine
  8
Otwor
 62
256
370
-1
  6
ByLayer
 10
-51.5999999999999943
 20
106.75
 30
0.0
 11
-39.5999999999999943
 21
106.75
 31
0.0
  0
LINE
  5
78
100
AcDbEntity
100
AcDbLine
  8
Otwor
 62
256
370
-1
  6
ByLayer
 10
-39.5999999999999943
 20
113.25
 30
0.0
 11
-51.5999999999999943
 21
113.25
 31
0.0
  0
LINE
  5
79
100
AcDbEntity
100
AcDbLine
  8
Otwor
 62
256
370
-1
  6
ByLayer
 10
-11.9999999999999929
 20
106.75
 30
0.0
 11
0.0000000000000065
 21
106.75
 31
0.0
  0
LINE
  5
7A
100
AcDbEntity
100
AcDbLine
  8
Otwor
 62
256
370
-1
  6
ByLayer
 10
0.0000000000000063
 20
105.5499999999999972
 30
0.0
 11
0.0000000000000051
 21
99.0499999999999972
 31
0.0
  0
LINE
  5
7B
100
AcDbEntity
100
AcDbLine
  8
Otwor
 62
256
370
-1
  6
ByLayer
 10
-18.5999999999999908
 20
68.25
 30
0.0
 11
0.0000000000000051
 21
68.25
 31
0.0
  0
LINE
  5
7C
100
AcDbEntity
100
AcDbLine
  8
Otwor
 62
256
370
-1
  6
ByLayer
 10
-18.5999999999999908
 20
68.25
 30
0.0
 11
-18.5999999999999908
 21
74.75
 31
0.0
  0
LINE
  5
7D
100
AcDbEntity
100
AcDbLine
  8
Otwor
 62
256
370
-1
  6
ByLayer
 10
-18.5999999999999908
 20
74.75
 30
0.0
 11
0.0000000000000063
 21
74.75
 31
0.0
  0
LINE
  5
7E
100
AcDbEntity
100
AcDbLine
  8
Otwor
 62
256
370
-1
  6
ByLayer
 10
-19.7999999999999936
 20
68.25
 30
0.0
 11
-19.7999999999999936
 21
74.75
 31
0.0
  0
LINE
  5
7F
100
AcDbEntity
100
AcDbLine
  8
Otwor
 62
256
370
-1
  6
ByLayer
 10
-32.9999999999999929
 20
68.25
 30
0.0
 11
-32.9999999999999929
 21
74.75
 31
0.0
  0
LINE
  5
80
100
AcDbEntity
100
AcDbLine
  8
Otwor
 62
256
370
-1
  6
ByLayer
 10
-31.7999999999999901
 20
68.25
 30
0.0
 11
-19.7999999999999936
 21
68.25
 31
0.0
  0
LINE
  5
81
100
AcDbEntity
100
AcDbLine
  8
Otwor
 62
256
370
-1
  6
ByLayer
 10
-31.7999999999999901
 20
68.25
 30
0.0
 11
-31.7999999999999901
 21
74.75
 31
0.0
  0
LINE
  5
82
100
AcDbEntity
100
AcDbLine
  8
Otwor
 62
256
370
-1
  6
ByLayer
 10
-31.7999999999999901
 20
74.75
 30
0.0
 11
-19.7999999999999936
 21
74.75
 31
0.0
  0
LINE
  5
83
100
AcDbEntity
100
AcDbLine
  8
Otwor
 62
256
370
-1
  6
ByLayer
 10
-57.9999999999999929
 20
74.75
 30
0.0
 11
-32.9999999999999929
 21
74.75
 31
0.0
  0
LINE
  5
84
100
AcDbEntity
100
AcDbLine
  8
Otwor
 62
256
370
-1
  6
ByLayer
 10
-57.9999999999999929
 20
68.25
 30
0.0
 11
-32.9999999999999929
 21
68.25
 31
0.0
  0
LINE
  5
85
100
AcDbEntity
100
AcDbLine
  8
Otwor
 62
256
370
-1
  6
ByLayer
 10
-57.9999999999999929
 20
74.75
 30
0.0
 11
-57.9999999999999929
 21
68.25
 31
0.0
  0
LINE
  5
86
100
AcDbEntity
100
AcDbLine
  8
Otwor
 62
256
370
-1
  6
ByLayer
 10
0.0000000000000063
 20
74.75
 30
0.0
 11
0.0000000000000051
 21
68.25
 31
0.0
  0
LINE
  5
87
100
AcDbEntity
100
AcDbLine
  8
Otwor
 62
256
370
-1
  6
ByLayer
 10
-18.5999999999999908
 20
37.4500000000000028
 30
0.0
 11
0.0000000000000051
 21
37.4500000000000028
 31
0.0
  0
LINE
  5
88
100
AcDbEntity
100
AcDbLine
  8
Otwor
 62
256
370
-1
  6
ByLayer
 10
-18.5999999999999908
 20
37.4500000000000028
 30
0.0
 11
-18.5999999999999908
 21
43.9500000000000028
 31
0.0
  0
LINE
  5
89
100
AcDbEntity
100
AcDbLine
  8
Otwor
 62
256
370
-1
  6
ByLayer
 10
-18.5999999999999908
 20
43.9500000000000028
 30
0.0
 11
0.0000000000000063
 21
43.9500000000000028
 31
0.0
  0
LINE
  5
8A
100
AcDbEntity
100
AcDbLine
  8
Otwor
 62
256
370
-1
  6
ByLayer
 10
-19.7999999999999936
 20
37.4500000000000028
 30
0.0
 11
-19.7999999999999936
 21
43.9500000000000028
 31
0.0
  0
LINE
  5
8B
100
AcDbEntity
100
AcDbLine
  8
Otwor
 62
256
370
-1
  6
ByLayer
 10
-32.9999999999999929
 20
37.4500000000000028
 30
0.0
 11
-32.9999999999999929
 21
43.9500000000000028
 31
0.0
  0
LINE
  5
8C
100
AcDbEntity
100
AcDbLine
  8
Otwor
 62
256
370
-1
  6
ByLayer
 10
-31.7999999999999901
 20
37.4500000000000028
 30
0.0
 11
-19.7999999999999936
 21
37.4500000000000028
 31
0.0
  0
LINE
  5
8D
100
AcDbEntity
100
AcDbLine
  8
Otwor
 62
256
370
-1
  6
ByLayer
 10
-31.7999999999999901
 20
37.4500000000000028
 30
0.0
 11
-31.7999999999999901
 21
43.9500000000000028
 31
0.0
  0
LINE
  5
8E
100
AcDbEntity
100
AcDbLine
  8
Otwor
 62
256
370
-1
  6
ByLayer
 10
-31.7999999999999901
 20
43.9500000000000028
 30
0.0
 11
-19.7999999999999936
 21
43.9500000000000028
 31
0.0
  0
LINE
  5
8F
100
AcDbEntity
100
AcDbLine
  8
Otwor
 62
256
370
-1
  6
ByLayer
 10
-57.9999999999999929
 20
43.9500000000000028
 30
0.0
 11
-32.9999999999999929
 21
43.9500000000000028
 31
0.0
  0
LINE
  5
90
100
AcDbEntity
100
AcDbLine
  8
Otwor
 62
256
370
-1
  6
ByLayer
 10
-57.9999999999999929
 20
37.4500000000000028
 30
0.0
 11
-32.9999999999999929
 21
37.4500000000000028
 31
0.0
  0
LINE
  5
91
100
AcDbEntity
100
AcDbLine
  8
Otwor
 62
256
370
-1
  6
ByLayer
 10
-57.9999999999999929
 20
43.9500000000000028
 30
0.0
 11
-57.9999999999999929
 21
37.4500000000000028
 31
0.0
  0
LINE
  5
92
100
AcDbEntity
100
AcDbLine
  8
Otwor
 62
256
370
-1
  6
ByLayer
 10
0.0000000000000063
 20
43.9500000000000028
 30
0.0
 11
0.0000000000000051
 21
37.4500000000000028
 31
0.0
  0
LINE
  5
93
100
AcDbEntity
100
AcDbLine
  8
Otwor
 62
256
370
-1
  6
ByLayer
 10
-18.5999999999999908
 20
6.6500000000000057
 30
0.0
 11
0.0000000000000051
 21
6.6500000000000057
 31
0.0
  0
LINE
  5
94
100
AcDbEntity
100
AcDbLine
  8
Otwor
 62
256
370
-1
  6
ByLayer
 10
-18.5999999999999908
 20
6.6500000000000057
 30
0.0
 11
-18.5999999999999908
 21
13.1500000000000057
 31
0.0
  0
LINE
  5
95
100
AcDbEntity
100
AcDbLine
  8
Otwor
 62
256
370
-1
  6
ByLayer
 10
-18.5999999999999908
 20
13.1500000000000057
 30
0.0
 11
0.0000000000000063
 21
13.1500000000000057
 31
0.0
  0
LINE
  5
96
100
AcDbEntity
100
AcDbLine
  8
Otwor
 62
256
370
-1
  6
ByLayer
 10
-19.7999999999999936
 20
6.6500000000000057
 30
0.0
 11
-19.7999999999999936
 21
13.1500000000000057
 31
0.0
  0
LINE
  5
97
100
AcDbEntity
100
AcDbLine
  8
Otwor
 62
256
370
-1
  6
ByLayer
 10
-32.9999999999999929
 20
6.6500000000000057
 30
0.0
 11
-32.9999999999999929
 21
13.1500000000000057
 31
0.0
  0
LINE
  5
98
100
AcDbEntity
100
AcDbLine
  8
Otwor
 62
256
370
-1
  6
ByLayer
 10
-31.7999999999999901
 20
6.6500000000000057
 30
0.0
 11
-19.7999999999999936
 21
6.6500000000000057
 31
0.0
  0
LINE
  5
99
100
AcDbEntity
100
AcDbLine
  8
Otwor
 62
256
370
-1
  6
ByLayer
 10
-31.7999999999999901
 20
6.6500000000000057
 30
0.0
 11
-31.7999999999999901
 21
13.1500000000000057
 31
0.0
  0
LINE
  5
9A
100
AcDbEntity
100
AcDbLine
  8
Otwor
 62
256
370
-1
  6
ByLayer
 10
-31.7999999999999901
 20
13.1500000000000057
 30
0.0
 11
-19.7999999999999936
 21
13.1500000000000057
 31
0.0
  0
LINE
  5
9B
100
AcDbEntity
100
AcDbLine
  8
Otwor
 62
256
370
-1
  6
ByLayer
 10
-57.9999999999999929
 20
13.1500000000000057
 30
0.0
 11
-32.9999999999999929
 21
13.1500000000000057
 31
0.0
  0
LINE
  5
9C
100
AcDbEntity
100
AcDbLine
  8
Otwor
 62
256
370
-1
  6
ByLayer
 10
-57.9999999999999929
 20
6.6500000000000057
 30
0.0
 11
-32.9999999999999929
 21
6.6500000000000057
 31
0.0
  0
LINE
  5
9D
100
AcDbEntity
100
AcDbLine
  8
Otwor
 62
256
370
-1
  6
ByLayer
 10
-57.9999999999999929
 20
13.1500000000000057
 30
0.0
 11
-57.9999999999999929
 21
6.6500000000000057
 31
0.0
  0
LINE
  5
9E
100
AcDbEntity
100
AcDbLine
  8
Otwor
 62
256
370
-1
  6
ByLayer
 10
0.0000000000000063
 20
13.1500000000000057
 30
0.0
 11
0.0000000000000051
 21
6.6500000000000057
 31
0.0
  0
LINE
  5
9F
100
AcDbEntity
100
AcDbLine
  8
Otwor
 62
256
370
-1
  6
ByLayer
 10
-18.5999999999999908
 20
-24.1499999999999915
 30
0.0
 11
0.0000000000000051
 21
-24.1499999999999915
 31
0.0
  0
LINE
  5
A0
100
AcDbEntity
100
AcDbLine
  8
Otwor
 62
256
370
-1
  6
ByLayer
 10
-18.5999999999999908
 20
-24.1499999999999915
 30
0.0
 11
-18.5999999999999908
 21
-17.6499999999999915
 31
0.0
  0
LINE
  5
A1
100
AcDbEntity
100
AcDbLine
  8
Otwor
 62
256
370
-1
  6
ByLayer
 10
-18.5999999999999908
 20
-17.6499999999999915
 30
0.0
 11
0.0000000000000063
 21
-17.6499999999999915
 31
0.0
  0
LINE
  5
A2
100
AcDbEntity
100
AcDbLine
  8
Otwor
 62
256
370
-1
  6
ByLayer
 10
-19.7999999999999936
 20
-24.1499999999999915
 30
0.0
 11
-19.7999999999999936
 21
-17.6499999999999915
 31
0.0
  0
LINE
  5
A3
100
AcDbEntity
100
AcDbLine
  8
Otwor
 62
256
370
-1
  6
ByLayer
 10
-32.9999999999999929
 20
-24.1499999999999915
 30
0.0
 11
-32.9999999999999929
 21
-17.6499999999999915
 31
0.0
  0
LINE
  5
A4
100
AcDbEntity
100
AcDbLine
  8
Otwor
 62
256
370
-1
  6
ByLayer
 10
-31.7999999999999901
 20
-24.1499999999999915
 30
0.0
 11
-19.7999999999999936
 21
-24.1499999999999915
 31
0.0
  0
LINE
  5
A5
100
AcDbEntity
100
AcDbLine
  8
Otwor
 62
256
370
-1
  6
ByLayer
 10
-31.7999999999999901
 20
-24.1499999999999915
 30
0.0
 11
-31.7999999999999901
 21
-17.6499999999999915
 31
0.0
  0
LINE
  5
A6
100
AcDbEntity
100
AcDbLine
  8
Otwor
 62
256
370
-1
  6
ByLayer
 10
-31.7999999999999901
 20
-17.6499999999999915
 30
0.0
 11
-19.7999999999999936
 21
-17.6499999999999915
 31
0.0
  0
LINE
  5
A7
100
AcDbEntity
100
AcDbLine
  8
Otwor
 62
256
370
-1
  6
ByLayer
 10
-57.9999999999999929
 20
-17.6499999999999915
 30
0.0
 11
-32.9999999999999929
 21
-17.6499999999999915
 31
0.0
  0
LINE
  5
A8
100
AcDbEntity
100
AcDbLine
  8
Otwor
 62
256
370
-1
  6
ByLayer
 10
-57.9999999999999929
 20
-24.1499999999999915
 30
0.0
 11
-32.9999999999999929
 21
-24.1499999999999915
 31
0.0
  0
LINE
  5
A9
100
AcDbEntity
100
AcDbLine
  8
Otwor
 62
256
370
-1
  6
ByLayer
 10
-57.9999999999999929
 20
-17.6499999999999915
 30
0.0
 11
-57.9999999999999929
 21
-24.1499999999999915
 31
0.0
  0
LINE
  5
AA
100
AcDbEntity
100
AcDbLine
  8
Otwor
 62
256
370
-1
  6
ByLayer
 10
0.0000000000000063
 20
-17.6499999999999915
 30
0.0
 11
0.0000000000000051
 21
-24.1499999999999915
 31
0.0
  0
LINE
  5
AB
100
AcDbEntity
100
AcDbLine
  8
Otwor
 62
256
370
-1
  6
ByLayer
 10
-11.9999999999999929
 20
91.3499999999999943
 30
0.0
 11
-11.9999999999999929
 21
97.8499999999999943
 31
0.0
  0
LINE
  5
AC
100
AcDbEntity
100
AcDbLine
  8
Otwor
 62
256
370
-1
  6
ByLayer
 10
-13.1999999999999922
 20
91.3499999999999943
 30
0.0
 11
-13.1999999999999922
 21
97.8499999999999943
 31
0.0
  0
LINE
  5
AD
100
AcDbEntity
100
AcDbLine
  8
Otwor
 62
256
370
-1
  6
ByLayer
 10
-25.1999999999999922
 20
91.3499999999999943
 30
0.0
 11
-25.1999999999999922
 21
97.8499999999999943
 31
0.0
  0
LINE
  5
AE
100
AcDbEntity
100
AcDbLine
  8
Otwor
 62
256
370
-1
  6
ByLayer
 10
-26.3999999999999915
 20
91.3499999999999943
 30
0.0
 11
-26.3999999999999915
 21
97.8499999999999943
 31
0.0
  0
LINE
  5
AF
100
AcDbEntity
100
AcDbLine
  8
Otwor
 62
256
370
-1
  6
ByLayer
 10
-38.3999999999999915
 20
91.3499999999999943
 30
0.0
 11
-38.3999999999999915
 21
97.8499999999999943
 31
0.0
  0
LINE
  5
B0
100
AcDbEntity
100
AcDbLine
  8
Otwor
 62
256
370
-1
  6
ByLayer
 10
-38.3999999999999915
 20
91.3499999999999943
 30
0.0
 11
-26.3999999999999915
 21
91.3499999999999943
 31
0.0
  0
LINE
  5
B1
100
AcDbEntity
100
AcDbLine
  8
Otwor
 62
256
370
-1
  6
ByLayer
 10
-25.1999999999999922
 20
91.3499999999999943
 30
0.0
 11
-13.1999999999999922
 21
91.3499999999999943
 31
0.0
  0
LINE
  5
B2
100
AcDbEntity
100
AcDbLine
  8
Otwor
 62
256
370
-1
  6
ByLayer
 10
-13.1999999999999922
 20
97.8499999999999943
 30
0.0
 11
-25.1999999999999922
 21
97.8499999999999943
 31
0.0
  0
LINE
  5
B3
100
AcDbEntity
100
AcDbLine
  8
Otwor
 62
256
370
-1
  6
ByLayer
 10
-26.3999999999999915
 20
97.8499999999999943
 30
0.0
 11
-38.3999999999999915
 21
97.8499999999999943
 31
0.0
  0
LINE
  5
B4
100
AcDbEntity
100
AcDbLine
  8
Otwor
 62
256
370
-1
  6
ByLayer
 10
-39.5999999999999943
 20
91.3499999999999943
 30
0.0
 11
-39.5999999999999943
 21
97.8499999999999943
 31
0.0
  0
LINE
  5
B5
100
AcDbEntity
100
AcDbLine
  8
Otwor
 62
256
370
-1
  6
ByLayer
 10
-51.5999999999999943
 20
91.3499999999999943
 30
0.0
 11
-51.5999999999999943
 21
97.8499999999999943
 31
0.0
  0
LINE
  5
B6
100
AcDbEntity
100
AcDbLine
  8
Otwor
 62
256
370
-1
  6
ByLayer
 10
-51.5999999999999943
 20
91.3499999999999943
 30
0.0
 11
-39.5999999999999943
 21
91.3499999999999943
 31
0.0
  0
LINE
  5
B7
100
AcDbEntity
100
AcDbLine
  8
Otwor
 62
256
370
-1
  6
ByLayer
 10
-39.5999999999999943
 20
97.8499999999999943
 30
0.0
 11
-51.5999999999999943
 21
97.8499999999999943
 31
0.0
  0
LINE
  5
B8
100
AcDbEntity
100
AcDbLine
  8
Otwor
 62
256
370
-1
  6
ByLayer
 10
-11.9999999999999929
 20
91.3499999999999943
 30
0.0
 11
0.0000000000000065
 21
91.3499999999999943
 31
0.0
  0
LINE
  5
B9
100
AcDbEntity
100
AcDbLine
  8
Otwor
 62
256
370
-1
  6
ByLayer
 10
-11.9999999999999929
 20
97.8499999999999943
 30
0.0
 11
0.0000000000000069
 21
97.8499999999999943
 31
0.0
  0
LINE
  5
BA
100
AcDbEntity
100
AcDbLine
  8
Otwor
 62
256
370
-1
  6
ByLayer
 10
-11.9999999999999929
 20
75.9499999999999886
 30
0.0
 11
-11.9999999999999929
 21
82.4499999999999886
 31
0.0
  0
LINE
  5
BB
100
AcDbEntity
100
AcDbLine
  8
Otwor
 62
256
370
-1
  6
ByLayer
 10
-13.1999999999999922
 20
75.9499999999999886
 30
0.0
 11
-13.1999999999999922
 21
82.4499999999999886
 31
0.0
  0
LINE
  5
BC
100
AcDbEntity
100
AcDbLine
  8
Otwor
 62
256
370
-1
  6
ByLayer
 10
-25.1999999999999922
 20
75.9499999999999886
 30
0.0
 11
-25.1999999999999922
 21
82.4499999999999886
 31
0.0
  0
LINE
  5
BD
100
AcDbEntity
100
AcDbLine
  8
Otwor
 62
256
370
-1
  6
ByLayer
 10
-26.3999999999999915
 20
75.9499999999999886
 30
0.0
 11
-26.3999999999999915
 21
82.4499999999999886
 31
0.0
  0
LINE
  5
BE
100
AcDbEntity
100
AcDbLine
  8
Otwor
 62
256
370
-1
  6
ByLayer
 10
-38.3999999999999915
 20
75.9499999999999886
 30
0.0
 11
-38.3999999999999915
 21
82.4499999999999886
 31
0.0
  0
LINE
  5
BF
100
AcDbEntity
100
AcDbLine
  8
Otwor
 62
256
370
-1
  6
ByLayer
 10
-38.3999999999999915
 20
75.9499999999999886
 30
0.0
 11
-26.3999999999999915
 21
75.9499999999999886
 31
0.0
  0
LINE
  5
C0
100
AcDbEntity
100
AcDbLine
  8
Otwor
 62
256
370
-1
  6
ByLayer
 10
-25.1999999999999922
 20
75.9499999999999886
 30
0.0
 11
-13.1999999999999922
 21
75.9499999999999886
 31
0.0
  0
LINE
  5
C1
100
AcDbEntity
100
AcDbLine
  8
Otwor
 62
256
370
-1
  6
ByLayer
 10
-13.1999999999999922
 20
82.4499999999999886
 30
0.0
 11
-25.1999999999999922
 21
82.4499999999999886
 31
0.0
  0
LINE
  5
C2
100
AcDbEntity
100
AcDbLine
  8
Otwor
 62
256
370
-1
  6
ByLayer
 10
-26.3999999999999915
 20
82.4499999999999886
 30
0.0
 11
-38.3999999999999915
 21
82.4499999999999886
 31
0.0
  0
LINE
  5
C3
100
AcDbEntity
100
AcDbLine
  8
Otwor
 62
256
370
-1
  6
ByLayer
 10
-39.5999999999999943
 20
75.9499999999999886
 30
0.0
 11
-39.5999999999999943
 21
82.4499999999999886
 31
0.0
  0
LINE
  5
C4
100
AcDbEntity
100
AcDbLine
  8
Otwor
 62
256
370
-1
  6
ByLayer
 10
-51.5999999999999943
 20
75.9499999999999886
 30
0.0
 11
-51.5999999999999943
 21
82.4499999999999886
 31
0.0
  0
LINE
  5
C5
100
AcDbEntity
100
AcDbLine
  8
Otwor
 62
256
370
-1
  6
ByLayer
 10
-51.5999999999999943
 20
75.9499999999999886
 30
0.0
 11
-39.5999999999999943
 21
75.9499999999999886
 31
0.0
  0
LINE
  5
C6
100
AcDbEntity
100
AcDbLine
  8
Otwor
 62
256
370
-1
  6
ByLayer
 10
-39.5999999999999943
 20
82.4499999999999886
 30
0.0
 11
-51.5999999999999943
 21
82.4499999999999886
 31
0.0
  0
LINE
  5
C7
100
AcDbEntity
100
AcDbLine
  8
Otwor
 62
256
370
-1
  6
ByLayer
 10
-11.9999999999999929
 20
75.9499999999999886
 30
0.0
 11
0.0000000000000065
 21
75.9499999999999886
 31
0.0
  0
LINE
  5
C8
100
AcDbEntity
100
AcDbLine
  8
Otwor
 62
256
370
-1
  6
ByLayer
 10
-11.9999999999999929
 20
82.4499999999999886
 30
0.0
 11
0.0000000000000069
 21
82.4499999999999886
 31
0.0
  0
LINE
  5
C9
100
AcDbEntity
100
AcDbLine
  8
Otwor
 62
256
370
-1
  6
ByLayer
 10
-11.9999999999999929
 20
60.5499999999999829
 30
0.0
 11
-11.9999999999999929
 21
67.0499999999999829
 31
0.0
  0
LINE
  5
CA
100
AcDbEntity
100
AcDbLine
  8
Otwor
 62
256
370
-1
  6
ByLayer
 10
-13.1999999999999922
 20
60.5499999999999829
 30
0.0
 11
-13.1999999999999922
 21
67.0499999999999829
 31
0.0
  0
LINE
  5
CB
100
AcDbEntity
100
AcDbLine
  8
Otwor
 62
256
370
-1
  6
ByLayer
 10
-25.1999999999999922
 20
60.5499999999999829
 30
0.0
 11
-25.1999999999999922
 21
67.0499999999999829
 31
0.0
  0
LINE
  5
CC
100
AcDbEntity
100
AcDbLine
  8
Otwor
 62
256
370
-1
  6
ByLayer
 10
-26.3999999999999915
 20
60.5499999999999829
 30
0.0
 11
-26.3999999999999915
 21
67.0499999999999829
 31
0.0
  0
LINE
  5
CD
100
AcDbEntity
100
AcDbLine
  8
Otwor
 62
256
370
-1
  6
ByLayer
 10
-38.3999999999999915
 20
60.5499999999999829
 30
0.0
 11
-38.3999999999999915
 21
67.0499999999999829
 31
0.0
  0
LINE
  5
CE
100
AcDbEntity
100
AcDbLine
  8
Otwor
 62
256
370
-1
  6
ByLayer
 10
-38.3999999999999915
 20
60.5499999999999829
 30
0.0
 11
-26.3999999999999915
 21
60.5499999999999829
 31
0.0
  0
LINE
  5
CF
100
AcDbEntity
100
AcDbLine
  8
Otwor
 62
256
370
-1
  6
ByLayer
 10
-25.1999999999999922
 20
60.5499999999999829
 30
0.0
 11
-13.1999999999999922
 21
60.5499999999999829
 31
0.0
  0
LINE
  5
D0
100
AcDbEntity
100
AcDbLine
  8
Otwor
 62
256
370
-1
  6
ByLayer
 10
-13.1999999999999922
 20
67.0499999999999829
 30
0.0
 11
-25.1999999999999922
 21
67.0499999999999829
 31
0.0
  0
LINE
  5
D1
100
AcDbEntity
100
AcDbLine
  8
Otwor
 62
256
370
-1
  6
ByLayer
 10
-26.3999999999999915
 20
67.0499999999999829
 30
0.0
 11
-38.3999999999999915
 21
67.0499999999999829
 31
0.0
  0
LINE
  5
D2
100
AcDbEntity
100
AcDbLine
  8
Otwor
 62
256
370
-1
  6
ByLayer
 10
-39.5999999999999943
 20
60.5499999999999829
 30
0.0
 11
-39.5999999999999943
 21
67.0499999999999829
 31
0.0
  0
LINE
  5
D3
100
AcDbEntity
100
AcDbLine
  8
Otwor
 62
256
370
-1
  6
ByLayer
 10
-51.5999999999999943
 20
60.5499999999999829
 30
0.0
 11
-51.5999999999999943
 21
67.0499999999999829
 31
0.0
  0
LINE
  5
D4
100
AcDbEntity
100
AcDbLine
  8
Otwor
 62
256
370
-1
  6
ByLayer
 10
-51.5999999999999943
 20
60.5499999999999829
 30
0.0
 11
-39.5999999999999943
 21
60.5499999999999829
 31
0.0
  0
LINE
  5
D5
100
AcDbEntity
100
AcDbLine
  8
Otwor
 62
256
370
-1
  6
ByLayer
 10
-39.5999999999999943
 20
67.0499999999999829
 30
0.0
 11
-51.5999999999999943
 21
67.0499999999999829
 31
0.0
  0
LINE
  5
D6
100
AcDbEntity
100
AcDbLine
  8
Otwor
 62
256
370
-1
  6
ByLayer
 10
-11.9999999999999929
 20
60.5499999999999829
 30
0.0
 11
0.0000000000000065
 21
60.5499999999999829
 31
0.0
  0
LINE
  5
D7
100
AcDbEntity
100
AcDbLine
  8
Otwor
 62
256
370
-1
  6
ByLayer
 10
-11.9999999999999929
 20
67.0499999999999829
 30
0.0
 11
0.0000000000000069
 21
67.0499999999999829
 31
0.0
  0
LINE
  5
D8
100
AcDbEntity
100
AcDbLine
  8
Otwor
 62
256
370
-1
  6
ByLayer
 10
-11.9999999999999929
 20
45.1499999999999773
 30
0.0
 11
-11.9999999999999929
 21
51.6499999999999773
 31
0.0
  0
LINE
  5
D9
100
AcDbEntity
100
AcDbLine
  8
Otwor
 62
256
370
-1
  6
ByLayer
 10
-13.1999999999999922
 20
45.1499999999999773
 30
0.0
 11
-13.1999999999999922
 21
51.6499999999999773
 31
0.0
  0
LINE
  5
DA
100
AcDbEntity
100
AcDbLine
  8
Otwor
 62
256
370
-1
  6
ByLayer
 10
-25.1999999999999922
 20
45.1499999999999773
 30
0.0
 11
-25.1999999999999922
 21
51.6499999999999773
 31
0.0
  0
LINE
  5
DB
100
AcDbEntity
100
AcDbLine
  8
Otwor
 62
256
370
-1
  6
ByLayer
 10
-26.3999999999999915
 20
45.1499999999999773
 30
0.0
 11
-26.3999999999999915
 21
51.6499999999999773
 31
0.0
  0
LINE
  5
DC
100
AcDbEntity
100
AcDbLine
  8
Otwor
 62
256
370
-1
  6
ByLayer
 10
-38.3999999999999915
 20
45.1499999999999773
 30
0.0
 11
-38.3999999999999915
 21
51.6499999999999773
 31
0.0
  0
LINE
  5
DD
100
AcDbEntity
100
AcDbLine
  8
Otwor
 62
256
370
-1
  6
ByLayer
 10
-38.3999999999999915
 20
45.1499999999999773
 30
0.0
 11
-26.3999999999999915
 21
45.1499999999999773
 31
0.0
  0
LINE
  5
DE
100
AcDbEntity
100
AcDbLine
  8
Otwor
 62
256
370
-1
  6
ByLayer
 10
-25.1999999999999922
 20
45.1499999999999773
 30
0.0
 11
-13.1999999999999922
 21
45.1499999999999773
 31
0.0
  0
LINE
  5
DF
100
AcDbEntity
100
AcDbLine
  8
Otwor
 62
256
370
-1
  6
ByLayer
 10
-13.1999999999999922
 20
51.6499999999999773
 30
0.0
 11
-25.1999999999999922
 21
51.6499999999999773
 31
0.0
  0
LINE
  5
E0
100
AcDbEntity
100
AcDbLine
  8
Otwor
 62
256
370
-1
  6
ByLayer
 10
-26.3999999999999915
 20
51.6499999999999773
 30
0.0
 11
-38.3999999999999915
 21
51.6499999999999773
 31
0.0
  0
LINE
  5
E1
100
AcDbEntity
100
AcDbLine
  8
Otwor
 62
256
370
-1
  6
ByLayer
 10
-39.5999999999999943
 20
45.1499999999999773
 30
0.0
 11
-39.5999999999999943
 21
51.6499999999999773
 31
0.0
  0
LINE
  5
E2
100
AcDbEntity
100
AcDbLine
  8
Otwor
 62
256
370
-1
  6
ByLayer
 10
-51.5999999999999943
 20
45.1499999999999773
 30
0.0
 11
-51.5999999999999943
 21
51.6499999999999773
 31
0.0
  0
LINE
  5
E3
100
AcDbEntity
100
AcDbLine
  8
Otwor
 62
256
370
-1
  6
ByLayer
 10
-51.5999999999999943
 20
45.1499999999999773
 30
0.0
 11
-39.5999999999999943
 21
45.1499999999999773
 31
0.0
  0
LINE
  5
E4
100
AcDbEntity
100
AcDbLine
  8
Otwor
 62
256
370
-1
  6
ByLayer
 10
-39.5999999999999943
 20
51.6499999999999773
 30
0.0
 11
-51.5999999999999943
 21
51.6499999999999773
 31
0.0
  0
LINE
  5
E5
100
AcDbEntity
100
AcDbLine
  8
Otwor
 62
256
370
-1
  6
ByLayer
 10
-11.9999999999999929
 20
45.1499999999999773
 30
0.0
 11
0.0000000000000065
 21
45.1499999999999773
 31
0.0
  0
LINE
  5
E6
100
AcDbEntity
100
AcDbLine
  8
Otwor
 62
256
370
-1
  6
ByLayer
 10
-11.9999999999999929
 20
51.6499999999999773
 30
0.0
 11
0.0000000000000069
 21
51.6499999999999773
 31
0.0
  0
LINE
  5
E7
100
AcDbEntity
100
AcDbLine
  8
Otwor
 62
256
370
-1
  6
ByLayer
 10
-11.9999999999999929
 20
29.7499999999999716
 30
0.0
 11
-11.9999999999999929
 21
36.2499999999999716
 31
0.0
  0
LINE
  5
E8
100
AcDbEntity
100
AcDbLine
  8
Otwor
 62
256
370
-1
  6
ByLayer
 10
-13.1999999999999922
 20
29.7499999999999716
 30
0.0
 11
-13.1999999999999922
 21
36.2499999999999716
 31
0.0
  0
LINE
  5
E9
100
AcDbEntity
100
AcDbLine
  8
Otwor
 62
256
370
-1
  6
ByLayer
 10
-25.1999999999999922
 20
29.7499999999999716
 30
0.0
 11
-25.1999999999999922
 21
36.2499999999999716
 31
0.0
  0
LINE
  5
EA
100
AcDbEntity
100
AcDbLine
  8
Otwor
 62
256
370
-1
  6
ByLayer
 10
-26.3999999999999915
 20
29.7499999999999716
 30
0.0
 11
-26.3999999999999915
 21
36.2499999999999716
 31
0.0
  0
LINE
  5
EB
100
AcDbEntity
100
AcDbLine
  8
Otwor
 62
256
370
-1
  6
ByLayer
 10
-38.3999999999999915
 20
29.7499999999999716
 30
0.0
 11
-38.3999999999999915
 21
36.2499999999999716
 31
0.0
  0
LINE
  5
EC
100
AcDbEntity
100
AcDbLine
  8
Otwor
 62
256
370
-1
  6
ByLayer
 10
-38.3999999999999915
 20
29.7499999999999716
 30
0.0
 11
-26.3999999999999915
 21
29.7499999999999716
 31
0.0
  0
LINE
  5
ED
100
AcDbEntity
100
AcDbLine
  8
Otwor
 62
256
370
-1
  6
ByLayer
 10
-25.1999999999999922
 20
29.7499999999999716
 30
0.0
 11
-13.1999999999999922
 21
29.7499999999999716
 31
0.0
  0
LINE
  5
EE
100
AcDbEntity
100
AcDbLine
  8
Otwor
 62
256
370
-1
  6
ByLayer
 10
-13.1999999999999922
 20
36.2499999999999716
 30
0.0
 11
-25.1999999999999922
 21
36.2499999999999716
 31
0.0
  0
LINE
  5
EF
100
AcDbEntity
100
AcDbLine
  8
Otwor
 62
256
370
-1
  6
ByLayer
 10
-26.3999999999999915
 20
36.2499999999999716
 30
0.0
 11
-38.3999999999999915
 21
36.2499999999999716
 31
0.0
  0
LINE
  5
F0
100
AcDbEntity
100
AcDbLine
  8
Otwor
 62
256
370
-1
  6
ByLayer
 10
-39.5999999999999943
 20
29.7499999999999716
 30
0.0
 11
-39.5999999999999943
 21
36.2499999999999716
 31
0.0
  0
LINE
  5
F1
100
AcDbEntity
100
AcDbLine
  8
Otwor
 62
256
370
-1
  6
ByLayer
 10
-51.5999999999999943
 20
29.7499999999999716
 30
0.0
 11
-51.5999999999999943
 21
36.2499999999999716
 31
0.0
  0
LINE
  5
F2
100
AcDbEntity
100
AcDbLine
  8
Otwor
 62
256
370
-1
  6
ByLayer
 10
-51.5999999999999943
 20
29.7499999999999716
 30
0.0
 11
-39.5999999999999943
 21
29.7499999999999716
 31
0.0
  0
LINE
  5
F3
100
AcDbEntity
100
AcDbLine
  8
Otwor
 62
256
370
-1
  6
ByLayer
 10
-39.5999999999999943
 20
36.2499999999999716
 30
0.0
 11
-51.5999999999999943
 21
36.2499999999999716
 31
0.0
  0
LINE
  5
F4
100
AcDbEntity
100
AcDbLine
  8
Otwor
 62
256
370
-1
  6
ByLayer
 10
-11.9999999999999929
 20
29.7499999999999716
 30
0.0
 11
0.0000000000000065
 21
29.7499999999999716
 31
0.0
  0
LINE
  5
F5
100
AcDbEntity
100
AcDbLine
  8
Otwor
 62
256
370
-1
  6
ByLayer
 10
-11.9999999999999929
 20
36.2499999999999716
 30
0.0
 11
0.0000000000000069
 21
36.2499999999999716
 31
0.0
  0
LINE
  5
F6
100
AcDbEntity
100
AcDbLine
  8
Otwor
 62
256
370
-1
  6
ByLayer
 10
-11.9999999999999929
 20
14.3499999999999659
 30
0.0
 11
-11.9999999999999929
 21
20.8499999999999659
 31
0.0
  0
LINE
  5
F7
100
AcDbEntity
100
AcDbLine
  8
Otwor
 62
256
370
-1
  6
ByLayer
 10
-13.1999999999999922
 20
14.3499999999999659
 30
0.0
 11
-13.1999999999999922
 21
20.8499999999999659
 31
0.0
  0
LINE
  5
F8
100
AcDbEntity
100
AcDbLine
  8
Otwor
 62
256
370
-1
  6
ByLayer
 10
-25.1999999999999922
 20
14.3499999999999659
 30
0.0
 11
-25.1999999999999922
 21
20.8499999999999659
 31
0.0
  0
LINE
  5
F9
100
AcDbEntity
100
AcDbLine
  8
Otwor
 62
256
370
-1
  6
ByLayer
 10
-26.3999999999999915
 20
14.3499999999999659
 30
0.0
 11
-26.3999999999999915
 21
20.8499999999999659
 31
0.0
  0
LINE
  5
FA
100
AcDbEntity
100
AcDbLine
  8
Otwor
 62
256
370
-1
  6
ByLayer
 10
-38.3999999999999915
 20
14.3499999999999659
 30
0.0
 11
-38.3999999999999915
 21
20.8499999999999659
 31
0.0
  0
LINE
  5
FB
100
AcDbEntity
100
AcDbLine
  8
Otwor
 62
256
370
-1
  6
ByLayer
 10
-38.3999999999999915
 20
14.3499999999999659
 30
0.0
 11
-26.3999999999999915
 21
14.3499999999999659
 31
0.0
  0
LINE
  5
FC
100
AcDbEntity
100
AcDbLine
  8
Otwor
 62
256
370
-1
  6
ByLayer
 10
-25.1999999999999922
 20
14.3499999999999659
 30
0.0
 11
-13.1999999999999922
 21
14.3499999999999659
 31
0.0
  0
LINE
  5
FD
100
AcDbEntity
100
AcDbLine
  8
Otwor
 62
256
370
-1
  6
ByLayer
 10
-13.1999999999999922
 20
20.8499999999999659
 30
0.0
 11
-25.1999999999999922
 21
20.8499999999999659
 31
0.0
  0
LINE
  5
FE
100
AcDbEntity
100
AcDbLine
  8
Otwor
 62
256
370
-1
  6
ByLayer
 10
-26.3999999999999915
 20
20.8499999999999659
 30
0.0
 11
-38.3999999999999915
 21
20.8499999999999659
 31
0.0
  0
LINE
  5
FF
100
AcDbEntity
100
AcDbLine
  8
Otwor
 62
256
370
-1
  6
ByLayer
 10
-39.5999999999999943
 20
14.3499999999999659
 30
0.0
 11
-39.5999999999999943
 21
20.8499999999999659
 31
0.0
  0
LINE
  5
100
100
AcDbEntity
100
AcDbLine
  8
Otwor
 62
256
370
-1
  6
ByLayer
 10
-51.5999999999999943
 20
14.3499999999999659
 30
0.0
 11
-51.5999999999999943
 21
20.8499999999999659
 31
0.0
  0
LINE
  5
101
100
AcDbEntity
100
AcDbLine
  8
Otwor
 62
256
370
-1
  6
ByLayer
 10
-51.5999999999999943
 20
14.3499999999999659
 30
0.0
 11
-39.5999999999999943
 21
14.3499999999999659
 31
0.0
  0
LINE
  5
102
100
AcDbEntity
100
AcDbLine
  8
Otwor
 62
256
370
-1
  6
ByLayer
 10
-39.5999999999999943
 20
20.8499999999999659
 30
0.0
 11
-51.5999999999999943
 21
20.8499999999999659
 31
0.0
  0
LINE
  5
103
100
AcDbEntity
100
AcDbLine
  8
Otwor
 62
256
370
-1
  6
ByLayer
 10
-11.9999999999999929
 20
14.3499999999999659
 30
0.0
 11
0.0000000000000065
 21
14.3499999999999659
 31
0.0
  0
LINE
  5
104
100
AcDbEntity
100
AcDbLine
  8
Otwor
 62
256
370
-1
  6
ByLayer
 10
-11.9999999999999929
 20
20.8499999999999659
 30
0.0
 11
0.0000000000000069
 21
20.8499999999999659
 31
0.0
  0
LINE
  5
105
100
AcDbEntity
100
AcDbLine
  8
Otwor
 62
256
370
-1
  6
ByLayer
 10
-11.9999999999999929
 20
-1.0500000000000398
 30
0.0
 11
-11.9999999999999929
 21
5.4499999999999602
 31
0.0
  0
LINE
  5
106
100
AcDbEntity
100
AcDbLine
  8
Otwor
 62
256
370
-1
  6
ByLayer
 10
-13.1999999999999922
 20
-1.0500000000000398
 30
0.0
 11
-13.1999999999999922
 21
5.4499999999999602
 31
0.0
  0
LINE
  5
107
100
AcDbEntity
100
AcDbLine
  8
Otwor
 62
256
370
-1
  6
ByLayer
 10
-25.1999999999999922
 20
-1.0500000000000398
 30
0.0
 11
-25.1999999999999922
 21
5.4499999999999602
 31
0.0
  0
LINE
  5
108
100
AcDbEntity
100
AcDbLine
  8
Otwor
 62
256
370
-1
  6
ByLayer
 10
-26.3999999999999915
 20
-1.0500000000000398
 30
0.0
 11
-26.3999999999999915
 21
5.4499999999999602
 31
0.0
  0
LINE
  5
109
100
AcDbEntity
100
AcDbLine
  8
Otwor
 62
256
370
-1
  6
ByLayer
 10
-38.3999999999999915
 20
-1.0500000000000398
 30
0.0
 11
-38.3999999999999915
 21
5.4499999999999602
 31
0.0
  0
LINE
  5
10A
100
AcDbEntity
100
AcDbLine
  8
Otwor
 62
256
370
-1
  6
ByLayer
 10
-38.3999999999999915
 20
-1.0500000000000398
 30
0.0
 11
-26.3999999999999915
 21
-1.0500000000000398
 31
0.0
  0
LINE
  5
10B
100
AcDbEntity
100
AcDbLine
  8
Otwor
 62
256
370
-1
  6
ByLayer
 10
-25.1999999999999922
 20
-1.0500000000000398
 30
0.0
 11
-13.1999999999999922
 21
-1.0500000000000398
 31
0.0
  0
LINE
  5
10C
100
AcDbEntity
100
AcDbLine
  8
Otwor
 62
256
370
-1
  6
ByLayer
 10
-13.1999999999999922
 20
5.4499999999999602
 30
0.0
 11
-25.1999999999999922
 21
5.4499999999999602
 31
0.0
  0
LINE
  5
10D
100
AcDbEntity
100
AcDbLine
  8
Otwor
 62
256
370
-1
  6
ByLayer
 10
-26.3999999999999915
 20
5.4499999999999602
 30
0.0
 11
-38.3999999999999915
 21
5.4499999999999602
 31
0.0
  0
LINE
  5
10E
100
AcDbEntity
100
AcDbLine
  8
Otwor
 62
256
370
-1
  6
ByLayer
 10
-39.5999999999999943
 20
-1.0500000000000398
 30
0.0
 11
-39.5999999999999943
 21
5.4499999999999602
 31
0.0
  0
LINE
  5
10F
100
AcDbEntity
100
AcDbLine
  8
Otwor
 62
256
370
-1
  6
ByLayer
 10
-51.5999999999999943
 20
-1.0500000000000398
 30
0.0
 11
-51.5999999999999943
 21
5.4499999999999602
 31
0.0
  0
LINE
  5
110
100
AcDbEntity
100
AcDbLine
  8
Otwor
 62
256
370
-1
  6
ByLayer
 10
-51.5999999999999943
 20
-1.0500000000000398
 30
0.0
 11
-39.5999999999999943
 21
-1.0500000000000398
 31
0.0
  0
LINE
  5
111
100
AcDbEntity
100
AcDbLine
  8
Otwor
 62
256
370
-1
  6
ByLayer
 10
-39.5999999999999943
 20
5.4499999999999602
 30
0.0
 11
-51.5999999999999943
 21
5.4499999999999602
 31
0.0
  0
LINE
  5
112
100
AcDbEntity
100
AcDbLine
  8
Otwor
 62
256
370
-1
  6
ByLayer
 10
-11.9999999999999929
 20
-1.0500000000000398
 30
0.0
 11
0.0000000000000065
 21
-1.0500000000000398
 31
0.0
  0
LINE
  5
113
100
AcDbEntity
100
AcDbLine
  8
Otwor
 62
256
370
-1
  6
ByLayer
 10
-11.9999999999999929
 20
5.4499999999999602
 30
0.0
 11
0.0000000000000069
 21
5.4499999999999602
 31
0.0
  0
LINE
  5
114
100
AcDbEntity
100
AcDbLine
  8
Otwor
 62
256
370
-1
  6
ByLayer
 10
-11.9999999999999929
 20
-16.4500000000000455
 30
0.0
 11
-11.9999999999999929
 21
-9.9500000000000455
 31
0.0
  0
LINE
  5
115
100
AcDbEntity
100
AcDbLine
  8
Otwor
 62
256
370
-1
  6
ByLayer
 10
-13.1999999999999922
 20
-16.4500000000000455
 30
0.0
 11
-13.1999999999999922
 21
-9.9500000000000455
 31
0.0
  0
LINE
  5
116
100
AcDbEntity
100
AcDbLine
  8
Otwor
 62
256
370
-1
  6
ByLayer
 10
-25.1999999999999922
 20
-16.4500000000000455
 30
0.0
 11
-25.1999999999999922
 21
-9.9500000000000455
 31
0.0
  0
LINE
  5
117
100
AcDbEntity
100
AcDbLine
  8
Otwor
 62
256
370
-1
  6
ByLayer
 10
-26.3999999999999915
 20
-16.4500000000000455
 30
0.0
 11
-26.3999999999999915
 21
-9.9500000000000455
 31
0.0
  0
LINE
  5
118
100
AcDbEntity
100
AcDbLine
  8
Otwor
 62
256
370
-1
  6
ByLayer
 10
-38.3999999999999915
 20
-16.4500000000000455
 30
0.0
 11
-38.3999999999999915
 21
-9.9500000000000455
 31
0.0
  0
LINE
  5
119
100
AcDbEntity
100
AcDbLine
  8
Otwor
 62
256
370
-1
  6
ByLayer
 10
-38.3999999999999915
 20
-16.4500000000000455
 30
0.0
 11
-26.3999999999999915
 21
-16.4500000000000455
 31
0.0
  0
LINE
  5
11A
100
AcDbEntity
100
AcDbLine
  8
Otwor
 62
256
370
-1
  6
ByLayer
 10
-25.1999999999999922
 20
-16.4500000000000455
 30
0.0
 11
-13.1999999999999922
 21
-16.4500000000000455
 31
0.0
  0
LINE
  5
11B
100
AcDbEntity
100
AcDbLine
  8
Otwor
 62
256
370
-1
  6
ByLayer
 10
-13.1999999999999922
 20
-9.9500000000000455
 30
0.0
 11
-25.1999999999999922
 21
-9.9500000000000455
 31
0.0
  0
LINE
  5
11C
100
AcDbEntity
100
AcDbLine
  8
Otwor
 62
256
370
-1
  6
ByLayer
 10
-26.3999999999999915
 20
-9.9500000000000455
 30
0.0
 11
-38.3999999999999915
 21
-9.9500000000000455
 31
0.0
  0
LINE
  5
11D
100
AcDbEntity
100
AcDbLine
  8
Otwor
 62
256
370
-1
  6
ByLayer
 10
-39.5999999999999943
 20
-16.4500000000000455
 30
0.0
 11
-39.5999999999999943
 21
-9.9500000000000455
 31
0.0
  0
LINE
  5
11E
100
AcDbEntity
100
AcDbLine
  8
Otwor
 62
256
370
-1
  6
ByLayer
 10
-51.5999999999999943
 20
-16.4500000000000455
 30
0.0
 11
-51.5999999999999943
 21
-9.9500000000000455
 31
0.0
  0
LINE
  5
11F
100
AcDbEntity
100
AcDbLine
  8
Otwor
 62
256
370
-1
  6
ByLayer
 10
-51.5999999999999943
 20
-16.4500000000000455
 30
0.0
 11
-39.5999999999999943
 21
-16.4500000000000455
 31
0.0
  0
LINE
  5
120
100
AcDbEntity
100
AcDbLine
  8
Otwor
 62
256
370
-1
  6
ByLayer
 10
-39.5999999999999943
 20
-9.9500000000000455
 30
0.0
 11
-51.5999999999999943
 21
-9.9500000000000455
 31
0.0
  0
LINE
  5
121
100
AcDbEntity
100
AcDbLine
  8
Otwor
 62
256
370
-1
  6
ByLayer
 10
-11.9999999999999929
 20
-16.4500000000000455
 30
0.0
 11
0.0000000000000065
 21
-16.4500000000000455
 31
0.0
  0
LINE
  5
122
100
AcDbEntity
100
AcDbLine
  8
Otwor
 62
256
370
-1
  6
ByLayer
 10
-11.9999999999999929
 20
-9.9500000000000455
 30
0.0
 11
0.0000000000000069
 21
-9.9500000000000455
 31
0.0
  0
LINE
  5
123
100
AcDbEntity
100
AcDbLine
  8
Otwor
 62
256
370
-1
  6
ByLayer
 10
-11.9999999999999929
 20
-31.8500000000000512
 30
0.0
 11
-11.9999999999999929
 21
-25.3500000000000512
 31
0.0
  0
LINE
  5
124
100
AcDbEntity
100
AcDbLine
  8
Otwor
 62
256
370
-1
  6
ByLayer
 10
-13.1999999999999922
 20
-31.8500000000000512
 30
0.0
 11
-13.1999999999999922
 21
-25.3500000000000512
 31
0.0
  0
LINE
  5
125
100
AcDbEntity
100
AcDbLine
  8
Otwor
 62
256
370
-1
  6
ByLayer
 10
-25.1999999999999922
 20
-31.8500000000000512
 30
0.0
 11
-25.1999999999999922
 21
-25.3500000000000512
 31
0.0
  0
LINE
  5
126
100
AcDbEntity
100
AcDbLine
  8
Otwor
 62
256
370
-1
  6
ByLayer
 10
-26.3999999999999915
 20
-31.8500000000000512
 30
0.0
 11
-26.3999999999999915
 21
-25.3500000000000512
 31
0.0
  0
LINE
  5
127
100
AcDbEntity
100
AcDbLine
  8
Otwor
 62
256
370
-1
  6
ByLayer
 10
-38.3999999999999915
 20
-31.8500000000000512
 30
0.0
 11
-38.3999999999999915
 21
-25.3500000000000512
 31
0.0
  0
LINE
  5
128
100
AcDbEntity
100
AcDbLine
  8
Otwor
 62
256
370
-1
  6
ByLayer
 10
-38.3999999999999915
 20
-31.8500000000000512
 30
0.0
 11
-26.3999999999999915
 21
-31.8500000000000512
 31
0.0
  0
LINE
  5
129
100
AcDbEntity
100
AcDbLine
  8
Otwor
 62
256
370
-1
  6
ByLayer
 10
-25.1999999999999922
 20
-31.8500000000000512
 30
0.0
 11
-13.1999999999999922
 21
-31.8500000000000512
 31
0.0
  0
LINE
  5
12A
100
AcDbEntity
100
AcDbLine
  8
Otwor
 62
256
370
-1
  6
ByLayer
 10
-13.1999999999999922
 20
-25.3500000000000512
 30
0.0
 11
-25.1999999999999922
 21
-25.3500000000000512
 31
0.0
  0
LINE
  5
12B
100
AcDbEntity
100
AcDbLine
  8
Otwor
 62
256
370
-1
  6
ByLayer
 10
-26.3999999999999915
 20
-25.3500000000000512
 30
0.0
 11
-38.3999999999999915
 21
-25.3500000000000512
 31
0.0
  0
LINE
  5
12C
100
AcDbEntity
100
AcDbLine
  8
Otwor
 62
256
370
-1
  6
ByLayer
 10
-39.5999999999999943
 20
-31.8500000000000512
 30
0.0
 11
-39.5999999999999943
 21
-25.3500000000000512
 31
0.0
  0
LINE
  5
12D
100
AcDbEntity
100
AcDbLine
  8
Otwor
 62
256
370
-1
  6
ByLayer
 10
-51.5999999999999943
 20
-31.8500000000000512
 30
0.0
 11
-51.5999999999999943
 21
-25.3500000000000512
 31
0.0
  0
LINE
  5
12E
100
AcDbEntity
100
AcDbLine
  8
Otwor
 62
256
370
-1
  6
ByLayer
 10
-51.5999999999999943
 20
-31.8500000000000512
 30
0.0
 11
-39.5999999999999943
 21
-31.8500000000000512
 31
0.0
  0
LINE
  5
12F
100
AcDbEntity
100
AcDbLine
  8
Otwor
 62
256
370
-1
  6
ByLayer
 10
-39.5999999999999943
 20
-25.3500000000000512
 30
0.0
 11
-51.5999999999999943
 21
-25.3500000000000512
 31
0.0
  0
LINE
  5
130
100
AcDbEntity
100
AcDbLine
  8
Otwor
 62
256
370
-1
  6
ByLayer
 10
-11.9999999999999929
 20
-31.8500000000000512
 30
0.0
 11
0.0000000000000065
 21
-31.8500000000000512
 31
0.0
  0
LINE
  5
131
100
AcDbEntity
100
AcDbLine
  8
Otwor
 62
256
370
-1
  6
ByLayer
 10
-11.9999999999999929
 20
-25.3500000000000512
 30
0.0
 11
0.0000000000000069
 21
-25.3500000000000512
 31
0.0
  0
LINE
  5
132
100
AcDbEntity
100
AcDbLine
  8
Otwor
 62
256
370
-1
  6
ByLayer
 10
-19.7999999999999936
 20
83.6500000000000057
 30
0.0
 11
-19.7999999999999936
 21
90.1500000000000057
 31
0.0
  0
LINE
  5
133
100
AcDbEntity
100
AcDbLine
  8
Otwor
 62
256
370
-1
  6
ByLayer
 10
-18.5999999999999908
 20
83.6500000000000057
 30
0.0
 11
-18.5999999999999908
 21
90.1500000000000057
 31
0.0
  0
LINE
  5
134
100
AcDbEntity
100
AcDbLine
  8
Otwor
 62
256
370
-1
  6
ByLayer
 10
-44.7999999999999972
 20
83.6500000000000057
 30
0.0
 11
-44.7999999999999972
 21
90.1500000000000057
 31
0.0
  0
LINE
  5
135
100
AcDbEntity
100
AcDbLine
  8
Otwor
 62
256
370
-1
  6
ByLayer
 10
-44.7999999999999972
 20
90.1500000000000057
 30
0.0
 11
-19.7999999999999936
 21
90.1500000000000057
 31
0.0
  0
LINE
  5
136
100
AcDbEntity
100
AcDbLine
  8
Otwor
 62
256
370
-1
  6
ByLayer
 10
-19.7999999999999936
 20
83.6500000000000057
 30
0.0
 11
-44.7999999999999972
 21
83.6500000000000057
 31
0.0
  0
LINE
  5
137
100
AcDbEntity
100
AcDbLine
  8
Otwor
 62
256
370
-1
  6
ByLayer
 10
-18.5999999999999908
 20
90.1500000000000057
 30
0.0
 11
0.0000000000000064
 21
90.1500000000000057
 31
0.0
  0
LINE
  5
138
100
AcDbEntity
100
AcDbLine
  8
Otwor
 62
256
370
-1
  6
ByLayer
 10
-18.5999999999999908
 20
83.6500000000000057
 30
0.0
 11
0.000000000000006
 21
83.6500000000000057
 31
0.0
  0
LINE
  5
139
100
AcDbEntity
100
AcDbLine
  8
Otwor
 62
256
370
-1
  6
ByLayer
 10
0.0000000000000064
 20
90.1500000000000057
 30
0.0
 11
0.000000000000006
 21
83.6500000000000057
 31
0.0
  0
LINE
  5
13A
100
AcDbEntity
100
AcDbLine
  8
Otwor
 62
256
370
-1
  6
ByLayer
 10
-19.7999999999999936
 20
52.8500000000000085
 30
0.0
 11
-19.7999999999999936
 21
59.3500000000000085
 31
0.0
  0
LINE
  5
13B
100
AcDbEntity
100
AcDbLine
  8
Otwor
 62
256
370
-1
  6
ByLayer
 10
-18.5999999999999908
 20
52.8500000000000085
 30
0.0
 11
-18.5999999999999908
 21
59.3500000000000085
 31
0.0
  0
LINE
  5
13C
100
AcDbEntity
100
AcDbLine
  8
Otwor
 62
256
370
-1
  6
ByLayer
 10
-44.7999999999999972
 20
52.8500000000000085
 30
0.0
 11
-44.7999999999999972
 21
59.3500000000000085
 31
0.0
  0
LINE
  5
13D
100
AcDbEntity
100
AcDbLine
  8
Otwor
 62
256
370
-1
  6
ByLayer
 10
-44.7999999999999972
 20
59.3500000000000085
 30
0.0
 11
-19.7999999999999936
 21
59.3500000000000085
 31
0.0
  0
LINE
  5
13E
100
AcDbEntity
100
AcDbLine
  8
Otwor
 62
256
370
-1
  6
ByLayer
 10
-19.7999999999999936
 20
52.8500000000000085
 30
0.0
 11
-44.7999999999999972
 21
52.8500000000000085
 31
0.0
  0
LINE
  5
13F
100
AcDbEntity
100
AcDbLine
  8
Otwor
 62
256
370
-1
  6
ByLayer
 10
-18.5999999999999908
 20
59.3500000000000085
 30
0.0
 11
0.0000000000000064
 21
59.3500000000000085
 31
0.0
  0
LINE
  5
140
100
AcDbEntity
100
AcDbLine
  8
Otwor
 62
256
370
-1
  6
ByLayer
 10
-18.5999999999999908
 20
52.8500000000000085
 30
0.0
 11
0.000000000000006
 21
52.8500000000000085
 31
0.0
  0
LINE
  5
141
100
AcDbEntity
100
AcDbLine
  8
Otwor
 62
256
370
-1
  6
ByLayer
 10
0.0000000000000064
 20
59.3500000000000085
 30
0.0
 11
0.000000000000006
 21
52.8500000000000085
 31
0.0
  0
LINE
  5
142
100
AcDbEntity
100
AcDbLine
  8
Otwor
 62
256
370
-1
  6
ByLayer
 10
-19.7999999999999936
 20
22.0500000000000114
 30
0.0
 11
-19.7999999999999936
 21
28.5500000000000114
 31
0.0
  0
LINE
  5
143
100
AcDbEntity
100
AcDbLine
  8
Otwor
 62
256
370
-1
  6
ByLayer
 10
-18.5999999999999908
 20
22.0500000000000114
 30
0.0
 11
-18.5999999999999908
 21
28.5500000000000114
 31
0.0
  0
LINE
  5
144
100
AcDbEntity
100
AcDbLine
  8
Otwor
 62
256
370
-1
  6
ByLayer
 10
-44.7999999999999972
 20
22.0500000000000114
 30
0.0
 11
-44.7999999999999972
 21
28.5500000000000114
 31
0.0
  0
LINE
  5
145
100
AcDbEntity
100
AcDbLine
  8
Otwor
 62
256
370
-1
  6
ByLayer
 10
-44.7999999999999972
 20
28.5500000000000114
 30
0.0
 11
-19.7999999999999936
 21
28.5500000000000114
 31
0.0
  0
LINE
  5
146
100
AcDbEntity
100
AcDbLine
  8
Otwor
 62
256
370
-1
  6
ByLayer
 10
-19.7999999999999936
 20
22.0500000000000114
 30
0.0
 11
-44.7999999999999972
 21
22.0500000000000114
 31
0.0
  0
LINE
  5
147
100
AcDbEntity
100
AcDbLine
  8
Otwor
 62
256
370
-1
  6
ByLayer
 10
-18.5999999999999908
 20
28.5500000000000114
 30
0.0
 11
0.0000000000000064
 21
28.5500000000000114
 31
0.0
  0
LINE
  5
148
100
AcDbEntity
100
AcDbLine
  8
Otwor
 62
256
370
-1
  6
ByLayer
 10
-18.5999999999999908
 20
22.0500000000000114
 30
0.0
 11
0.000000000000006
 21
22.0500000000000114
 31
0.0
  0
LINE
  5
149
100
AcDbEntity
100
AcDbLine
  8
Otwor
 62
256
370
-1
  6
ByLayer
 10
0.0000000000000064
 20
28.5500000000000114
 30
0.0
 11
0.000000000000006
 21
22.0500000000000114
 31
0.0
  0
LINE
  5
14A
100
AcDbEntity
100
AcDbLine
  8
Otwor
 62
256
370
-1
  6
ByLayer
 10
-19.7999999999999936
 20
-8.7499999999999858
 30
0.0
 11
-19.7999999999999936
 21
-2.2499999999999858
 31
0.0
  0
LINE
  5
14B
100
AcDbEntity
100
AcDbLine
  8
Otwor
 62
256
370
-1
  6
ByLayer
 10
-18.5999999999999908
 20
-8.7499999999999858
 30
0.0
 11
-18.5999999999999908
 21
-2.2499999999999858
 31
0.0
  0
LINE
  5
14C
100
AcDbEntity
100
AcDbLine
  8
Otwor
 62
256
370
-1
  6
ByLayer
 10
-44.7999999999999972
 20
-8.7499999999999858
 30
0.0
 11
-44.7999999999999972
 21
-2.2499999999999858
 31
0.0
  0
LINE
  5
14D
100
AcDbEntity
100
AcDbLine
  8
Otwor
 62
256
370
-1
  6
ByLayer
 10
-44.7999999999999972
 20
-2.2499999999999858
 30
0.0
 11
-19.7999999999999936
 21
-2.2499999999999858
 31
0.0
  0
LINE
  5
14E
100
AcDbEntity
100
AcDbLine
  8
Otwor
 62
256
370
-1
  6
ByLayer
 10
-19.7999999999999936
 20
-8.7499999999999858
 30
0.0
 11
-44.7999999999999972
 21
-8.7499999999999858
 31
0.0
  0
LINE
  5
14F
100
AcDbEntity
100
AcDbLine
  8
Otwor
 62
256
370
-1
  6
ByLayer
 10
-18.5999999999999908
 20
-2.2499999999999858
 30
0.0
 11
0.0000000000000064
 21
-2.2499999999999858
 31
0.0
  0
LINE
  5
150
100
AcDbEntity
100
AcDbLine
  8
Otwor
 62
256
370
-1
  6
ByLayer
 10
-18.5999999999999908
 20
-8.7499999999999858
 30
0.0
 11
0.000000000000006
 21
-8.7499999999999858
 31
0.0
  0
LINE
  5
151
100
AcDbEntity
100
AcDbLine
  8
Otwor
 62
256
370
-1
  6
ByLayer
 10
0.0000000000000064
 20
-2.2499999999999858
 30
0.0
 11
0.000000000000006
 21
-8.7499999999999858
 31
0.0
  0
LINE
  5
152
100
AcDbEntity
100
AcDbLine
  8
Otwor
 62
256
370
-1
  6
ByLayer
 10
0.0000000000000065
 20
106.75
 30
0.0
 11
0.0000000000000067
 21
110.0
 31
0.0
  0
LINE
  5
153
100
AcDbEntity
100
AcDbLine
  8
Otwor
 62
256
370
-1
  6
ByLayer
 10
0.0000000000000065
 20
91.3499999999999943
 30
0.0
 11
0.0000000000000069
 21
97.8499999999999943
 31
0.0
  0
LINE
  5
154
100
AcDbEntity
100
AcDbLine
  8
Otwor
 62
256
370
-1
  6
ByLayer
 10
0.0000000000000065
 20
75.9499999999999886
 30
0.0
 11
0.0000000000000069
 21
82.4499999999999886
 31
0.0
  0
LINE
  5
155
100
AcDbEntity
100
AcDbLine
  8
Otwor
 62
256
370
-1
  6
ByLayer
 10
0.0000000000000065
 20
60.5499999999999829
 30
0.0
 11
0.0000000000000069
 21
67.0499999999999829
 31
0.0
  0
LINE
  5
156
100
AcDbEntity
100
AcDbLine
  8
Otwor
 62
256
370
-1
  6
ByLayer
 10
0.0000000000000065
 20
45.1499999999999773
 30
0.0
 11
0.0000000000000069
 21
51.6499999999999773
 31
0.0
  0
LINE
  5
157
100
AcDbEntity
100
AcDbLine
  8
Otwor
 62
256
370
-1
  6
ByLayer
 10
0.0000000000000065
 20
29.7499999999999716
 30
0.0
 11
0.0000000000000069
 21
36.2499999999999716
 31
0.0
  0
LINE
  5
158
100
AcDbEntity
100
AcDbLine
  8
Otwor
 62
256
370
-1
  6
ByLayer
 10
0.0000000000000065
 20
14.3499999999999659
 30
0.0
 11
0.0000000000000069
 21
20.8499999999999659
 31
0.0
  0
LINE
  5
159
100
AcDbEntity
100
AcDbLine
  8
Otwor
 62
256
370
-1
  6
ByLayer
 10
0.0000000000000065
 20
-1.0500000000000398
 30
0.0
 11
0.0000000000000069
 21
5.4499999999999602
 31
0.0
  0
LINE
  5
15A
100
AcDbEntity
100
AcDbLine
  8
Otwor
 62
256
370
-1
  6
ByLayer
 10
0.0000000000000065
 20
-16.4500000000000455
 30
0.0
 11
0.0000000000000069
 21
-9.9500000000000455
 31
0.0
  0
LINE
  5
15B
100
AcDbEntity
100
AcDbLine
  8
Otwor
 62
256
370
-1
  6
ByLayer
 10
0.0000000000000065
 20
-31.8500000000000512
 30
0.0
 11
0.0000000000000069
 21
-25.3500000000000512
 31
0.0
  0
LINE
  5
15C
100
AcDbEntity
100
AcDbLine
  8
Otwor
 62
256
370
-1
  6
ByLayer
 10
-11.9999999999999929
 20
137.5500000000000114
 30
0.0
 11
-11.9999999999999929
 21
144.0500000000000114
 31
0.0
  0
LINE
  5
15D
100
AcDbEntity
100
AcDbLine
  8
Otwor
 62
256
370
-1
  6
ByLayer
 10
-13.1999999999999922
 20
137.5500000000000114
 30
0.0
 11
-13.1999999999999922
 21
144.0500000000000114
 31
0.0
  0
LINE
  5
15E
100
AcDbEntity
100
AcDbLine
  8
Otwor
 62
256
370
-1
  6
ByLayer
 10
-25.1999999999999922
 20
137.5500000000000114
 30
0.0
 11
-25.1999999999999922
 21
144.0500000000000114
 31
0.0
  0
LINE
  5
15F
100
AcDbEntity
100
AcDbLine
  8
Otwor
 62
256
370
-1
  6
ByLayer
 10
-26.3999999999999915
 20
137.5500000000000114
 30
0.0
 11
-26.3999999999999915
 21
144.0500000000000114
 31
0.0
  0
LINE
  5
160
100
AcDbEntity
100
AcDbLine
  8
Otwor
 62
256
370
-1
  6
ByLayer
 10
-38.3999999999999915
 20
137.5500000000000114
 30
0.0
 11
-38.3999999999999915
 21
144.0500000000000114
 31
0.0
  0
LINE
  5
161
100
AcDbEntity
100
AcDbLine
  8
Otwor
 62
256
370
-1
  6
ByLayer
 10
-38.3999999999999915
 20
137.5500000000000114
 30
0.0
 11
-26.3999999999999915
 21
137.5500000000000114
 31
0.0
  0
LINE
  5
162
100
AcDbEntity
100
AcDbLine
  8
Otwor
 62
256
370
-1
  6
ByLayer
 10
-25.1999999999999922
 20
137.5500000000000114
 30
0.0
 11
-13.1999999999999922
 21
137.5500000000000114
 31
0.0
  0
LINE
  5
163
100
AcDbEntity
100
AcDbLine
  8
Otwor
 62
256
370
-1
  6
ByLayer
 10
-13.1999999999999922
 20
144.0500000000000114
 30
0.0
 11
-25.1999999999999922
 21
144.0500000000000114
 31
0.0
  0
LINE
  5
164
100
AcDbEntity
100
AcDbLine
  8
Otwor
 62
256
370
-1
  6
ByLayer
 10
-26.3999999999999915
 20
144.0500000000000114
 30
0.0
 11
-38.3999999999999915
 21
144.0500000000000114
 31
0.0
  0
LINE
  5
165
100
AcDbEntity
100
AcDbLine
  8
Otwor
 62
256
370
-1
  6
ByLayer
 10
-39.5999999999999943
 20
137.5500000000000114
 30
0.0
 11
-39.5999999999999943
 21
144.0500000000000114
 31
0.0
  0
LINE
  5
166
100
AcDbEntity
100
AcDbLine
  8
Otwor
 62
256
370
-1
  6
ByLayer
 10
-51.5999999999999943
 20
137.5500000000000114
 30
0.0
 11
-51.5999999999999943
 21
144.0500000000000114
 31
0.0
  0
LINE
  5
167
100
AcDbEntity
100
AcDbLine
  8
Otwor
 62
256
370
-1
  6
ByLayer
 10
-51.5999999999999943
 20
137.5500000000000114
 30
0.0
 11
-39.5999999999999943
 21
137.5500000000000114
 31
0.0
  0
LINE
  5
168
100
AcDbEntity
100
AcDbLine
  8
Otwor
 62
256
370
-1
  6
ByLayer
 10
-39.5999999999999943
 20
144.0500000000000114
 30
0.0
 11
-51.5999999999999943
 21
144.0500000000000114
 31
0.0
  0
LINE
  5
169
100
AcDbEntity
100
AcDbLine
  8
Otwor
 62
256
370
-1
  6
ByLayer
 10
-11.9999999999999929
 20
144.0500000000000114
 30
0.0
 11
0.0000000000000069
 21
144.0500000000000114
 31
0.0
  0
LINE
  5
16A
100
AcDbEntity
100
AcDbLine
  8
Otwor
 62
256
370
-1
  6
ByLayer
 10
0.0000000000000065
 20
138.1456617707202099
 30
0.0
 11
0.0000000000000069
 21
144.0500000000000114
 31
0.0
  0
LINE
  5
16B
100
AcDbEntity
100
AcDbLine
  8
Otwor
 62
256
370
-1
  6
ByLayer
 10
-11.9999999999999929
 20
137.5500000000000114
 30
0.0
 11
-2.1457593059457354
 21
137.5500000000000114
 31
0.0
  0
LINE
  5
16C
100
AcDbEntity
100
AcDbLine
  8
Otwor
 62
256
370
-1
  6
ByLayer
 10
-2.1457593059457354
 20
137.5500000000000114
 30
0.0
 11
0.0000000000000065
 21
138.1456617707202099
 31
0.0
  0
LINE
  5
16D
100
AcDbEntity
100
AcDbLine
  8
Otwor
 62
256
370
-1
  6
ByLayer
 10
-19.7999999999999936
 20
145.25
 30
0.0
 11
-19.7999999999999936
 21
151.75
 31
0.0
  0
LINE
  5
16E
100
AcDbEntity
100
AcDbLine
  8
Otwor
 62
256
370
-1
  6
ByLayer
 10
-18.5999999999999908
 20
145.25
 30
0.0
 11
-18.5999999999999908
 21
151.75
 31
0.0
  0
LINE
  5
16F
100
AcDbEntity
100
AcDbLine
  8
Otwor
 62
256
370
-1
  6
ByLayer
 10
-44.7999999999999972
 20
145.25
 30
0.0
 11
-44.7999999999999972
 21
151.75
 31
0.0
  0
LINE
  5
170
100
AcDbEntity
100
AcDbLine
  8
Otwor
 62
256
370
-1
  6
ByLayer
 10
-44.7999999999999972
 20
151.75
 30
0.0
 11
-19.7999999999999936
 21
151.75
 31
0.0
  0
LINE
  5
171
100
AcDbEntity
100
AcDbLine
  8
Otwor
 62
256
370
-1
  6
ByLayer
 10
-19.7999999999999936
 20
145.25
 30
0.0
 11
-44.7999999999999972
 21
145.25
 31
0.0
  0
LINE
  5
172
100
AcDbEntity
100
AcDbLine
  8
Otwor
 62
256
370
-1
  6
ByLayer
 10
7.6000000000000094
 20
145.25
 30
0.0
 11
7.6000000000000094
 21
151.75
 31
0.0
  0
LINE
  5
173
100
AcDbEntity
100
AcDbLine
  8
Otwor
 62
256
370
-1
  6
ByLayer
 10
32.6000000000000085
 20
145.25
 30
0.0
 11
32.6000000000000085
 21
151.75
 31
0.0
  0
LINE
  5
174
100
AcDbEntity
100
AcDbLine
  8
Otwor
 62
256
370
-1
  6
ByLayer
 10
-18.5999999999999908
 20
151.75
 30
0.0
 11
6.4000000000000092
 21
151.75
 31
0.0
  0
LINE
  5
175
100
AcDbEntity
100
AcDbLine
  8
Otwor
 62
256
370
-1
  6
ByLayer
 10
-18.5999999999999908
 20
145.25
 30
0.0
 11
6.4000000000000092
 21
145.25
 31
0.0
  0
LINE
  5
176
100
AcDbEntity
100
AcDbLine
  8
Otwor
 62
256
370
-1
  6
ByLayer
 10
6.4000000000000092
 20
145.25
 30
0.0
 11
6.4000000000000092
 21
151.75
 31
0.0
  0
LINE
  5
177
100
AcDbEntity
100
AcDbLine
  8
Otwor
 62
256
370
-1
  6
ByLayer
 10
7.6000000000000094
 20
151.75
 30
0.0
 11
32.6000000000000085
 21
151.75
 31
0.0
  0
LINE
  5
178
100
AcDbEntity
100
AcDbLine
  8
Otwor
 62
256
370
-1
  6
ByLayer
 10
32.6000000000000085
 20
151.75
 30
0.0
 11
32.6000000000000085
 21
145.25
 31
0.0
  0
LINE
  5
179
100
AcDbEntity
100
AcDbLine
  8
Otwor
 62
256
370
-1
  6
ByLayer
 10
32.6000000000000085
 20
145.25
 30
0.0
 11
7.6000000000000094
 21
145.25
 31
0.0
  0
LINE
  5
17A
100
AcDbEntity
100
AcDbLine
  8
Otwor
 62
256
370
-1
  6
ByLayer
 10
33.8000000000000114
 20
151.75
 30
0.0
 11
58.8000000000000114
 21
151.75
 31
0.0
  0
DIMENSION
  5
17B
100
AcDbEntity
  8
Otwor wym.
 62
256
370
-1
  6
ByLayer
100
AcDbDimension
 10
-62.1055272151831019
 20
110.0000000000000142
 30
0.0
 11
-63.9805272151831019
 21
108.375
 31
0.0
 70
0
 71
5
 72
1
 41
1.0
 42
0.0
  1

  3
Standard
100
AcDbAlignedDimension
 13
0.0000000000000065
 23
106.75
 33
0.0
 14
0.0000000000000067
 24
110.0
 34
0.0
 50
90.0
100
AcDbRotatedDimension
  0
DIMENSION
  5
17C
100
AcDbEntity
  8
Otwor wym.
 62
256
370
-1
  6
ByLayer
100
AcDbDimension
 10
0.0000000000000094
 20
154.3034232872074938
 30
0.0
 11
-2.2545670659245269
 21
156.1784232872074938
 31
0.0
 70
0
 71
5
 72
1
 41
1.0
 42
0.0
  1

  3
Standard
100
AcDbAlignedDimension
 13
-4.509134131849061
 23
113.25
 33
0.0
 14
0.0000000000000067
 24
110.0
 34
0.0
 50
0.0
100
AcDbRotatedDimension
  0
LINE
  5
17D
100
AcDbEntity
100
AcDbLine
  8
Otwor
 62
256
370
-1
  6
ByLayer
 10
158.9999999999999432
 20
113.2499999999994884
 30
0.0
 11
151.5091341318490095
 21
113.2499999999996732
 31
0.0
  0
LINE
  5
17E
100
AcDbEntity
100
AcDbLine
  8
Otwor
 62
256
370
-1
  6
ByLayer
 10
160.1999999999999602
 20
114.449999999999946
 30
0.0
 11
160.1999999999999602
 21
120.9500000000001876
 31
0.0
  0
LINE
  5
17F
100
AcDbEntity
100
AcDbLine
  8
Otwor
 62
256
370
-1
  6
ByLayer
 10
172.1999999999999602
 20
114.4499999999999034
 30
0.0
 11
172.1999999999999602
 21
120.949999999998866
 31
0.0
  0
LINE
  5
180
100
AcDbEntity
100
AcDbLine
  8
Otwor
 62
256
370
-1
  6
ByLayer
 10
173.3999999999999488
 20
114.4500000000000028
 30
0.0
 11
173.3999999999999488
 21
120.9500000000005571
 31
0.0
  0
LINE
  5
181
100
AcDbEntity
100
AcDbLine
  8
Otwor
 62
256
370
-1
  6
ByLayer
 10
185.3999999999999488
 20
114.4499999999999744
 30
0.0
 11
185.3999999999999488
 21
120.9499999999991076
 31
0.0
  0
LINE
  5
182
100
AcDbEntity
100
AcDbLine
  8
Otwor
 62
256
370
-1
  6
ByLayer
 10
185.3999999999999488
 20
114.4499999999999744
 30
0.0
 11
173.3999999999999488
 21
114.4500000000000028
 31
0.0
  0
LINE
  5
183
100
AcDbEntity
100
AcDbLine
  8
Otwor
 62
256
370
-1
  6
ByLayer
 10
172.1999999999999602
 20
114.4499999999999034
 30
0.0
 11
160.1999999999999602
 21
114.449999999999946
 31
0.0
  0
LINE
  5
184
100
AcDbEntity
100
AcDbLine
  8
Otwor
 62
256
370
-1
  6
ByLayer
 10
160.1999999999999602
 20
120.9500000000001876
 30
0.0
 11
172.1999999999999602
 21
120.949999999998866
 31
0.0
  0
LINE
  5
185
100
AcDbEntity
100
AcDbLine
  8
Otwor
 62
256
370
-1
  6
ByLayer
 10
173.3999999999999488
 20
120.9500000000005571
 30
0.0
 11
185.3999999999999488
 21
120.9499999999991076
 31
0.0
  0
LINE
  5
186
100
AcDbEntity
100
AcDbLine
  8
Otwor
 62
256
370
-1
  6
ByLayer
 10
166.7999999999999545
 20
122.1499999999991957
 30
0.0
 11
166.7999999999999545
 21
128.6500000000000341
 31
0.0
  0
LINE
  5
187
100
AcDbEntity
100
AcDbLine
  8
Otwor
 62
256
370
-1
  6
ByLayer
 10
165.5999999999999375
 20
122.1500000000010004
 30
0.0
 11
165.5999999999999659
 21
128.6499999999999773
 31
0.0
  0
LINE
  5
188
100
AcDbEntity
100
AcDbLine
  8
Otwor
 62
256
370
-1
  6
ByLayer
 10
191.7999999999999545
 20
122.1500000000013415
 30
0.0
 11
191.7999999999999545
 21
128.6499999999999773
 31
0.0
  0
LINE
  5
189
100
AcDbEntity
100
AcDbLine
  8
Otwor
 62
256
370
-1
  6
ByLayer
 10
191.7999999999999545
 20
128.6499999999999773
 30
0.0
 11
166.7999999999999545
 21
128.6500000000000341
 31
0.0
  0
LINE
  5
18A
100
AcDbEntity
100
AcDbLine
  8
Otwor
 62
256
370
-1
  6
ByLayer
 10
166.7999999999999545
 20
122.1499999999991957
 30
0.0
 11
191.7999999999999545
 21
122.1500000000013415
 31
0.0
  0
LINE
  5
18B
100
AcDbEntity
100
AcDbLine
  8
Otwor
 62
256
370
-1
  6
ByLayer
 10
185.3999999999999488
 20
129.8499999999999659
 30
0.0
 11
173.3999999999999488
 21
129.8499999999999659
 31
0.0
  0
LINE
  5
18C
100
AcDbEntity
100
AcDbLine
  8
Otwor
 62
256
370
-1
  6
ByLayer
 10
185.3999999999999488
 20
129.8499999999999659
 30
0.0
 11
185.3999999999999488
 21
136.3499999999999091
 31
0.0
  0
LINE
  5
18D
100
AcDbEntity
100
AcDbLine
  8
Otwor
 62
256
370
-1
  6
ByLayer
 10
185.3999999999999488
 20
136.3499999999999091
 30
0.0
 11
173.3999999999999488
 21
136.3499999999999943
 31
0.0
  0
LINE
  5
18E
100
AcDbEntity
100
AcDbLine
  8
Otwor
 62
256
370
-1
  6
ByLayer
 10
173.3999999999999488
 20
129.8499999999999659
 30
0.0
 11
173.3999999999999488
 21
136.3499999999999943
 31
0.0
  0
LINE
  5
18F
100
AcDbEntity
100
AcDbLine
  8
Otwor
 62
256
370
-1
  6
ByLayer
 10
172.1999999999999602
 20
129.8499999999999943
 30
0.0
 11
172.1999999999999602
 21
136.3500000000000227
 31
0.0
  0
LINE
  5
190
100
AcDbEntity
100
AcDbLine
  8
Otwor
 62
256
370
-1
  6
ByLayer
 10
178.7999999999999545
 20
137.5499999999999545
 30
0.0
 11
178.7999999999999545
 21
144.0499999999999261
 31
0.0
  0
LINE
  5
191
100
AcDbEntity
100
AcDbLine
  8
Otwor
 62
256
370
-1
  6
ByLayer
 10
204.9999999999999716
 20
137.5499999999998977
 30
0.0
 11
204.9999999999999716
 21
144.0499999999999829
 31
0.0
  0
LINE
  5
192
100
AcDbEntity
100
AcDbLine
  8
Otwor
 62
256
370
-1
  6
ByLayer
 10
204.9999999999999716
 20
137.5499999999998977
 30
0.0
 11
179.9999999999999432
 21
137.5499999999999545
 31
0.0
  0
LINE
  5
193
100
AcDbEntity
100
AcDbLine
  8
Otwor
 62
256
370
-1
  6
ByLayer
 10
204.9999999999999716
 20
144.0499999999999829
 30
0.0
 11
179.9999999999999432
 21
144.0499999999999829
 31
0.0
  0
LINE
  5
194
100
AcDbEntity
100
AcDbLine
  8
Otwor
 62
256
370
-1
  6
ByLayer
 10
179.9999999999999432
 20
137.5499999999999545
 30
0.0
 11
179.9999999999999432
 21
144.0499999999999829
 31
0.0
  0
LINE
  5
195
100
AcDbEntity
100
AcDbLine
  8
Otwor
 62
256
370
-1
  6
ByLayer
 10
165.5999999999999375
 20
106.7499999999999432
 30
0.0
 11
146.9999999999999432
 21
106.7499999999999716
 31
0.0
  0
LINE
  5
196
100
AcDbEntity
100
AcDbLine
  8
Otwor
 62
256
370
-1
  6
ByLayer
 10
165.5999999999999375
 20
106.7499999999999432
 30
0.0
 11
165.5999999999999375
 21
113.25
 31
0.0
  0
LINE
  5
197
100
AcDbEntity
100
AcDbLine
  8
Otwor
 62
256
370
-1
  6
ByLayer
 10
166.7999999999999545
 20
106.7500000000000284
 30
0.0
 11
166.7999999999999545
 21
113.2499999999999574
 31
0.0
  0
LINE
  5
198
100
AcDbEntity
100
AcDbLine
  8
Otwor
 62
256
370
-1
  6
ByLayer
 10
179.9999999999999716
 20
106.7499999999999716
 30
0.0
 11
179.9999999999999432
 21
113.2499999999998863
 31
0.0
  0
LINE
  5
199
100
AcDbEntity
100
AcDbLine
  8
Otwor
 62
256
370
-1
  6
ByLayer
 10
178.7999999999999545
 20
106.7499999999999858
 30
0.0
 11
166.7999999999999545
 21
106.7500000000000284
 31
0.0
  0
LINE
  5
19A
100
AcDbEntity
100
AcDbLine
  8
Otwor
 62
256
370
-1
  6
ByLayer
 10
178.7999999999999545
 20
106.7499999999999858
 30
0.0
 11
178.7999999999999545
 21
113.2499999999999716
 31
0.0
  0
LINE
  5
19B
100
AcDbEntity
100
AcDbLine
  8
Otwor
 62
256
370
-1
  6
ByLayer
 10
178.7999999999999545
 20
113.2499999999999716
 30
0.0
 11
166.7999999999999545
 21
113.2499999999999574
 31
0.0
  0
LINE
  5
19C
100
AcDbEntity
100
AcDbLine
  8
Otwor
 62
256
370
-1
  6
ByLayer
 10
204.9999999999999432
 20
113.2499999999999716
 30
0.0
 11
179.9999999999999432
 21
113.2499999999998863
 31
0.0
  0
LINE
  5
19D
100
AcDbEntity
100
AcDbLine
  8
Otwor
 62
256
370
-1
  6
ByLayer
 10
204.9999999999999432
 20
106.7499999999999574
 30
0.0
 11
179.9999999999999716
 21
106.7499999999999716
 31
0.0
  0
LINE
  5
19E
100
AcDbEntity
100
AcDbLine
  8
Otwor
 62
256
370
-1
  6
ByLayer
 10
204.9999999999999432
 20
113.2499999999999716
 30
0.0
 11
204.9999999999999432
 21
106.7499999999999574
 31
0.0
  0
LINE
  5
19F
100
AcDbEntity
100
AcDbLine
  8
Otwor
 62
256
370
-1
  6
ByLayer
 10
198.5999999999999375
 20
129.8499999999999091
 30
0.0
 11
186.5999999999999375
 21
129.850000000000108
 31
0.0
  0
LINE
  5
1A0
100
AcDbEntity
100
AcDbLine
  8
Otwor
 62
256
370
-1
  6
ByLayer
 10
198.5999999999999375
 20
129.8499999999999091
 30
0.0
 11
198.5999999999999375
 21
136.3500000000000227
 31
0.0
  0
LINE
  5
1A1
100
AcDbEntity
100
AcDbLine
  8
Otwor
 62
256
370
-1
  6
ByLayer
 10
198.5999999999999375
 20
136.3500000000000227
 30
0.0
 11
186.5999999999999659
 21
136.3500000000000227
 31
0.0
  0
LINE
  5
1A2
100
AcDbEntity
100
AcDbLine
  8
Otwor
 62
256
370
-1
  6
ByLayer
 10
186.5999999999999375
 20
129.850000000000108
 30
0.0
 11
186.5999999999999659
 21
136.3500000000000227
 31
0.0
  0
LINE
  5
1A3
100
AcDbEntity
100
AcDbLine
  8
Otwor
 62
256
370
-1
  6
ByLayer
 10
186.5999999999999375
 20
114.4500000000000313
 30
0.0
 11
186.5999999999999375
 21
120.9500000000003581
 31
0.0
  0
LINE
  5
1A4
100
AcDbEntity
100
AcDbLine
  8
Otwor
 62
256
370
-1
  6
ByLayer
 10
198.5999999999999375
 20
114.4499999999999176
 30
0.0
 11
198.5999999999999375
 21
120.9500000000011397
 31
0.0
  0
LINE
  5
1A5
100
AcDbEntity
100
AcDbLine
  8
Otwor
 62
256
370
-1
  6
ByLayer
 10
198.5999999999999375
 20
114.4499999999999176
 30
0.0
 11
186.5999999999999375
 21
114.4500000000000313
 31
0.0
  0
LINE
  5
1A6
100
AcDbEntity
100
AcDbLine
  8
Otwor
 62
256
370
-1
  6
ByLayer
 10
186.5999999999999375
 20
120.9500000000003581
 30
0.0
 11
198.5999999999999375
 21
120.9500000000011397
 31
0.0
  0
LINE
  5
1A7
100
AcDbEntity
100
AcDbLine
  8
Otwor
 62
256
370
-1
  6
ByLayer
 10
165.5999999999999659
 20
75.9500000000000028
 30
0.0
 11
146.9999999999999147
 21
75.9499999999999602
 31
0.0
  0
LINE
  5
1A8
100
AcDbEntity
100
AcDbLine
  8
Otwor
 62
256
370
-1
  6
ByLayer
 10
165.5999999999999659
 20
75.9500000000000028
 30
0.0
 11
165.5999999999999375
 21
82.4499999999999744
 31
0.0
  0
LINE
  5
1A9
100
AcDbEntity
100
AcDbLine
  8
Otwor
 62
256
370
-1
  6
ByLayer
 10
165.5999999999999375
 20
82.4499999999999744
 30
0.0
 11
146.9999999999999432
 21
82.4499999999999886
 31
0.0
  0
LINE
  5
1AA
100
AcDbEntity
100
AcDbLine
  8
Otwor
 62
256
370
-1
  6
ByLayer
 10
166.7999999999999261
 20
75.9499999999999602
 30
0.0
 11
166.7999999999999545
 21
82.4499999999999886
 31
0.0
  0
LINE
  5
1AB
100
AcDbEntity
100
AcDbLine
  8
Otwor
 62
256
370
-1
  6
ByLayer
 10
179.9999999999999716
 20
75.9500000000000313
 30
0.0
 11
179.9999999999999716
 21
82.4500000000000171
 31
0.0
  0
LINE
  5
1AC
100
AcDbEntity
100
AcDbLine
  8
Otwor
 62
256
370
-1
  6
ByLayer
 10
178.7999999999999545
 20
75.9500000000000455
 30
0.0
 11
166.7999999999999261
 21
75.9499999999999602
 31
0.0
  0
LINE
  5
1AD
100
AcDbEntity
100
AcDbLine
  8
Otwor
 62
256
370
-1
  6
ByLayer
 10
178.7999999999999545
 20
75.9500000000000455
 30
0.0
 11
178.7999999999999261
 21
82.4499999999999602
 31
0.0
  0
LINE
  5
1AE
100
AcDbEntity
100
AcDbLine
  8
Otwor
 62
256
370
-1
  6
ByLayer
 10
178.7999999999999261
 20
82.4499999999999602
 30
0.0
 11
166.7999999999999545
 21
82.4499999999999886
 31
0.0
  0
LINE
  5
1AF
100
AcDbEntity
100
AcDbLine
  8
Otwor
 62
256
370
-1
  6
ByLayer
 10
204.9999999999999432
 20
82.4499999999999886
 30
0.0
 11
179.9999999999999716
 21
82.4500000000000171
 31
0.0
  0
LINE
  5
1B0
100
AcDbEntity
100
AcDbLine
  8
Otwor
 62
256
370
-1
  6
ByLayer
 10
204.9999999999999432
 20
75.9499999999999886
 30
0.0
 11
179.9999999999999716
 21
75.9500000000000313
 31
0.0
  0
LINE
  5
1B1
100
AcDbEntity
100
AcDbLine
  8
Otwor
 62
256
370
-1
  6
ByLayer
 10
204.9999999999999432
 20
82.4499999999999886
 30
0.0
 11
204.9999999999999432
 21
75.9499999999999886
 31
0.0
  0
LINE
  5
1B2
100
AcDbEntity
100
AcDbLine
  8
Otwor
 62
256
370
-1
  6
ByLayer
 10
146.9999999999999432
 20
82.4499999999999886
 30
0.0
 11
146.9999999999999147
 21
75.9499999999999602
 31
0.0
  0
LINE
  5
1B3
100
AcDbEntity
100
AcDbLine
  8
Otwor
 62
256
370
-1
  6
ByLayer
 10
165.5999999999999943
 20
45.1500000000000341
 30
0.0
 11
146.9999999999998863
 21
45.1499999999999488
 31
0.0
  0
LINE
  5
1B4
100
AcDbEntity
100
AcDbLine
  8
Otwor
 62
256
370
-1
  6
ByLayer
 10
165.5999999999999943
 20
45.1500000000000341
 30
0.0
 11
165.5999999999999375
 21
51.6499999999999915
 31
0.0
  0
LINE
  5
1B5
100
AcDbEntity
100
AcDbLine
  8
Otwor
 62
256
370
-1
  6
ByLayer
 10
165.5999999999999375
 20
51.6499999999999915
 30
0.0
 11
146.9999999999999716
 21
51.6500000000000057
 31
0.0
  0
LINE
  5
1B6
100
AcDbEntity
100
AcDbLine
  8
Otwor
 62
256
370
-1
  6
ByLayer
 10
166.7999999999999261
 20
45.1499999999999773
 30
0.0
 11
166.7999999999999545
 21
51.6499999999999773
 31
0.0
  0
LINE
  5
1B7
100
AcDbEntity
100
AcDbLine
  8
Otwor
 62
256
370
-1
  6
ByLayer
 10
179.9999999999998863
 20
45.1499999999999204
 30
0.0
 11
179.9999999999999432
 21
51.6499999999999773
 31
0.0
  0
LINE
  5
1B8
100
AcDbEntity
100
AcDbLine
  8
Otwor
 62
256
370
-1
  6
ByLayer
 10
178.7999999999999261
 20
45.1499999999999915
 30
0.0
 11
166.7999999999999261
 21
45.1499999999999773
 31
0.0
  0
LINE
  5
1B9
100
AcDbEntity
100
AcDbLine
  8
Otwor
 62
256
370
-1
  6
ByLayer
 10
178.7999999999999261
 20
45.1499999999999915
 30
0.0
 11
178.7999999999999545
 21
51.6500000000000057
 31
0.0
  0
LINE
  5
1BA
100
AcDbEntity
100
AcDbLine
  8
Otwor
 62
256
370
-1
  6
ByLayer
 10
178.7999999999999545
 20
51.6500000000000057
 30
0.0
 11
166.7999999999999545
 21
51.6499999999999773
 31
0.0
  0
LINE
  5
1BB
100
AcDbEntity
100
AcDbLine
  8
Otwor
 62
256
370
-1
  6
ByLayer
 10
204.9999999999999147
 20
51.6499999999999204
 30
0.0
 11
179.9999999999999432
 21
51.6499999999999773
 31
0.0
  0
LINE
  5
1BC
100
AcDbEntity
100
AcDbLine
  8
Otwor
 62
256
370
-1
  6
ByLayer
 10
204.9999999999999716
 20
45.1500000000000341
 30
0.0
 11
179.9999999999998863
 21
45.1499999999999204
 31
0.0
  0
LINE
  5
1BD
100
AcDbEntity
100
AcDbLine
  8
Otwor
 62
256
370
-1
  6
ByLayer
 10
204.9999999999999147
 20
51.6499999999999204
 30
0.0
 11
204.9999999999999716
 21
45.1500000000000341
 31
0.0
  0
LINE
  5
1BE
100
AcDbEntity
100
AcDbLine
  8
Otwor
 62
256
370
-1
  6
ByLayer
 10
146.9999999999999716
 20
51.6500000000000057
 30
0.0
 11
146.9999999999998863
 21
45.1499999999999488
 31
0.0
  0
LINE
  5
1BF
100
AcDbEntity
100
AcDbLine
  8
Otwor
 62
256
370
-1
  6
ByLayer
 10
165.5999999999999659
 20
14.3500000000000085
 30
0.0
 11
146.9999999999999147
 21
14.3499999999999801
 31
0.0
  0
LINE
  5
1C0
100
AcDbEntity
100
AcDbLine
  8
Otwor
 62
256
370
-1
  6
ByLayer
 10
165.5999999999999659
 20
14.3500000000000085
 30
0.0
 11
165.5999999999999091
 21
20.8499999999999801
 31
0.0
  0
LINE
  5
1C1
100
AcDbEntity
100
AcDbLine
  8
Otwor
 62
256
370
-1
  6
ByLayer
 10
165.5999999999999091
 20
20.8499999999999801
 30
0.0
 11
146.9999999999999432
 21
20.8499999999999943
 31
0.0
  0
LINE
  5
1C2
100
AcDbEntity
100
AcDbLine
  8
Otwor
 62
256
370
-1
  6
ByLayer
 10
166.7999999999999545
 20
14.3500000000000085
 30
0.0
 11
166.7999999999999261
 21
20.8499999999999801
 31
0.0
  0
LINE
  5
1C3
100
AcDbEntity
100
AcDbLine
  8
Otwor
 62
256
370
-1
  6
ByLayer
 10
179.9999999999998863
 20
14.3499999999999375
 30
0.0
 11
179.9999999999999432
 21
20.8499999999999943
 31
0.0
  0
LINE
  5
1C4
100
AcDbEntity
100
AcDbLine
  8
Otwor
 62
256
370
-1
  6
ByLayer
 10
178.7999999999999545
 20
14.3499999999999801
 30
0.0
 11
166.7999999999999545
 21
14.3500000000000085
 31
0.0
  0
LINE
  5
1C5
100
AcDbEntity
100
AcDbLine
  8
Otwor
 62
256
370
-1
  6
ByLayer
 10
178.7999999999999545
 20
14.3499999999999801
 30
0.0
 11
178.7999999999999261
 21
20.8499999999999659
 31
0.0
  0
LINE
  5
1C6
100
AcDbEntity
100
AcDbLine
  8
Otwor
 62
256
370
-1
  6
ByLayer
 10
178.7999999999999261
 20
20.8499999999999659
 30
0.0
 11
166.7999999999999261
 21
20.8499999999999801
 31
0.0
  0
LINE
  5
1C7
100
AcDbEntity
100
AcDbLine
  8
Otwor
 62
256
370
-1
  6
ByLayer
 10
204.9999999999999432
 20
20.8500000000000085
 30
0.0
 11
179.9999999999999432
 21
20.8499999999999943
 31
0.0
  0
LINE
  5
1C8
100
AcDbEntity
100
AcDbLine
  8
Otwor
 62
256
370
-1
  6
ByLayer
 10
204.9999999999999432
 20
14.3499999999999801
 30
0.0
 11
179.9999999999998863
 21
14.3499999999999375
 31
0.0
  0
LINE
  5
1C9
100
AcDbEntity
100
AcDbLine
  8
Otwor
 62
256
370
-1
  6
ByLayer
 10
204.9999999999999432
 20
20.8500000000000085
 30
0.0
 11
204.9999999999999432
 21
14.3499999999999801
 31
0.0
  0
LINE
  5
1CA
100
AcDbEntity
100
AcDbLine
  8
Otwor
 62
256
370
-1
  6
ByLayer
 10
146.9999999999999432
 20
20.8499999999999943
 30
0.0
 11
146.9999999999999147
 21
14.3499999999999801
 31
0.0
  0
LINE
  5
1CB
100
AcDbEntity
100
AcDbLine
  8
Otwor
 62
256
370
-1
  6
ByLayer
 10
165.5999999999999091
 20
-16.4499999999999886
 30
0.0
 11
146.9999999999999432
 21
-16.4500000000000171
 31
0.0
  0
LINE
  5
1CC
100
AcDbEntity
100
AcDbLine
  8
Otwor
 62
256
370
-1
  6
ByLayer
 10
165.5999999999999091
 20
-16.4499999999999886
 30
0.0
 11
165.5999999999998806
 21
-9.9500000000000455
 31
0.0
  0
LINE
  5
1CD
100
AcDbEntity
100
AcDbLine
  8
Otwor
 62
256
370
-1
  6
ByLayer
 10
165.5999999999998806
 20
-9.9500000000000455
 30
0.0
 11
146.9999999999998863
 21
-9.9499999999999886
 31
0.0
  0
LINE
  5
1CE
100
AcDbEntity
100
AcDbLine
  8
Otwor
 62
256
370
-1
  6
ByLayer
 10
166.7999999999999261
 20
-16.4500000000000171
 30
0.0
 11
166.7999999999999261
 21
-9.9499999999999886
 31
0.0
  0
LINE
  5
1CF
100
AcDbEntity
100
AcDbLine
  8
Otwor
 62
256
370
-1
  6
ByLayer
 10
180.0000000000000284
 20
-16.4499999999999602
 30
0.0
 11
179.9999999999998579
 21
-9.9500000000000739
 31
0.0
  0
LINE
  5
1D0
100
AcDbEntity
100
AcDbLine
  8
Otwor
 62
256
370
-1
  6
ByLayer
 10
178.7999999999999829
 20
-16.4499999999999602
 30
0.0
 11
166.7999999999999261
 21
-16.4500000000000171
 31
0.0
  0
LINE
  5
1D1
100
AcDbEntity
100
AcDbLine
  8
Otwor
 62
256
370
-1
  6
ByLayer
 10
178.7999999999999829
 20
-16.4499999999999602
 30
0.0
 11
178.7999999999999829
 21
-9.9499999999999886
 31
0.0
  0
LINE
  5
1D2
100
AcDbEntity
100
AcDbLine
  8
Otwor
 62
256
370
-1
  6
ByLayer
 10
178.7999999999999829
 20
-9.9499999999999886
 30
0.0
 11
166.7999999999999261
 21
-9.9499999999999886
 31
0.0
  0
LINE
  5
1D3
100
AcDbEntity
100
AcDbLine
  8
Otwor
 62
256
370
-1
  6
ByLayer
 10
204.9999999999999716
 20
-9.9500000000000171
 30
0.0
 11
179.9999999999998579
 21
-9.9500000000000739
 31
0.0
  0
LINE
  5
1D4
100
AcDbEntity
100
AcDbLine
  8
Otwor
 62
256
370
-1
  6
ByLayer
 10
205.0000000000000284
 20
-16.4499999999999318
 30
0.0
 11
180.0000000000000284
 21
-16.4499999999999602
 31
0.0
  0
LINE
  5
1D5
100
AcDbEntity
100
AcDbLine
  8
Otwor
 62
256
370
-1
  6
ByLayer
 10
204.9999999999999716
 20
-9.9500000000000171
 30
0.0
 11
205.0000000000000284
 21
-16.4499999999999318
 31
0.0
  0
LINE
  5
1D6
100
AcDbEntity
100
AcDbLine
  8
Otwor
 62
256
370
-1
  6
ByLayer
 10
146.9999999999998863
 20
-9.9499999999999886
 30
0.0
 11
146.9999999999999432
 21
-16.4500000000000171
 31
0.0
  0
LINE
  5
1D7
100
AcDbEntity
100
AcDbLine
  8
Otwor
 62
256
370
-1
  6
ByLayer
 10
158.9999999999999432
 20
99.0499999999999829
 30
0.0
 11
158.9999999999999432
 21
105.5499999999999403
 31
0.0
  0
LINE
  5
1D8
100
AcDbEntity
100
AcDbLine
  8
Otwor
 62
256
370
-1
  6
ByLayer
 10
160.1999999999999318
 20
99.0499999999999403
 30
0.0
 11
160.1999999999999318
 21
105.5499999999999261
 31
0.0
  0
LINE
  5
1D9
100
AcDbEntity
100
AcDbLine
  8
Otwor
 62
256
370
-1
  6
ByLayer
 10
172.1999999999999318
 20
99.0499999999999261
 30
0.0
 11
172.1999999999999602
 21
105.5500000000000256
 31
0.0
  0
LINE
  5
1DA
100
AcDbEntity
100
AcDbLine
  8
Otwor
 62
256
370
-1
  6
ByLayer
 10
173.3999999999999488
 20
99.0499999999999829
 30
0.0
 11
173.3999999999999488
 21
105.5499999999999829
 31
0.0
  0
LINE
  5
1DB
100
AcDbEntity
100
AcDbLine
  8
Otwor
 62
256
370
-1
  6
ByLayer
 10
185.3999999999999488
 20
99.0499999999999972
 30
0.0
 11
185.3999999999999488
 21
105.5499999999999829
 31
0.0
  0
LINE
  5
1DC
100
AcDbEntity
100
AcDbLine
  8
Otwor
 62
256
370
-1
  6
ByLayer
 10
185.3999999999999488
 20
99.0499999999999972
 30
0.0
 11
173.3999999999999488
 21
99.0499999999999829
 31
0.0
  0
LINE
  5
1DD
100
AcDbEntity
100
AcDbLine
  8
Otwor
 62
256
370
-1
  6
ByLayer
 10
172.1999999999999318
 20
99.0499999999999261
 30
0.0
 11
160.1999999999999318
 21
99.0499999999999403
 31
0.0
  0
LINE
  5
1DE
100
AcDbEntity
100
AcDbLine
  8
Otwor
 62
256
370
-1
  6
ByLayer
 10
160.1999999999999318
 20
105.5499999999999261
 30
0.0
 11
172.1999999999999602
 21
105.5500000000000256
 31
0.0
  0
LINE
  5
1DF
100
AcDbEntity
100
AcDbLine
  8
Otwor
 62
256
370
-1
  6
ByLayer
 10
173.3999999999999488
 20
105.5499999999999829
 30
0.0
 11
185.3999999999999488
 21
105.5499999999999829
 31
0.0
  0
LINE
  5
1E0
100
AcDbEntity
100
AcDbLine
  8
Otwor
 62
256
370
-1
  6
ByLayer
 10
186.5999999999999659
 20
99.0500000000000256
 30
0.0
 11
186.5999999999999659
 21
105.5500000000000398
 31
0.0
  0
LINE
  5
1E1
100
AcDbEntity
100
AcDbLine
  8
Otwor
 62
256
370
-1
  6
ByLayer
 10
198.5999999999999659
 20
99.0500000000000682
 30
0.0
 11
198.5999999999999375
 21
105.5500000000000114
 31
0.0
  0
LINE
  5
1E2
100
AcDbEntity
100
AcDbLine
  8
Otwor
 62
256
370
-1
  6
ByLayer
 10
198.5999999999999659
 20
99.0500000000000682
 30
0.0
 11
186.5999999999999659
 21
99.0500000000000256
 31
0.0
  0
LINE
  5
1E3
100
AcDbEntity
100
AcDbLine
  8
Otwor
 62
256
370
-1
  6
ByLayer
 10
186.5999999999999659
 20
105.5500000000000398
 30
0.0
 11
198.5999999999999375
 21
105.5500000000000114
 31
0.0
  0
LINE
  5
1E4
100
AcDbEntity
100
AcDbLine
  8
Otwor
 62
256
370
-1
  6
ByLayer
 10
158.9999999999999432
 20
99.0499999999999829
 30
0.0
 11
146.9999999999999432
 21
99.0499999999999972
 31
0.0
  0
LINE
  5
1E5
100
AcDbEntity
100
AcDbLine
  8
Otwor
 62
256
370
-1
  6
ByLayer
 10
158.9999999999999432
 20
105.5499999999999403
 30
0.0
 11
146.9999999999999432
 21
105.5499999999999829
 31
0.0
  0
LINE
  5
1E6
100
AcDbEntity
100
AcDbLine
  8
Otwor
 62
256
370
-1
  6
ByLayer
 10
158.9999999999999432
 20
83.6499999999999773
 30
0.0
 11
158.9999999999999432
 21
90.1499999999999631
 31
0.0
  0
LINE
  5
1E7
100
AcDbEntity
100
AcDbLine
  8
Otwor
 62
256
370
-1
  6
ByLayer
 10
160.1999999999999602
 20
83.6499999999999488
 30
0.0
 11
160.1999999999999318
 21
90.1499999999999631
 31
0.0
  0
LINE
  5
1E8
100
AcDbEntity
100
AcDbLine
  8
Otwor
 62
256
370
-1
  6
ByLayer
 10
172.1999999999999318
 20
83.6499999999999346
 30
0.0
 11
172.1999999999999318
 21
90.1499999999999204
 31
0.0
  0
LINE
  5
1E9
100
AcDbEntity
100
AcDbLine
  8
Otwor
 62
256
370
-1
  6
ByLayer
 10
173.3999999999999488
 20
83.6499999999999488
 30
0.0
 11
173.3999999999999488
 21
90.1499999999999773
 31
0.0
  0
LINE
  5
1EA
100
AcDbEntity
100
AcDbLine
  8
Otwor
 62
256
370
-1
  6
ByLayer
 10
185.3999999999999488
 20
83.6499999999999488
 30
0.0
 11
185.3999999999999488
 21
90.1499999999999773
 31
0.0
  0
LINE
  5
1EB
100
AcDbEntity
100
AcDbLine
  8
Otwor
 62
256
370
-1
  6
ByLayer
 10
185.3999999999999488
 20
83.6499999999999488
 30
0.0
 11
173.3999999999999488
 21
83.6499999999999488
 31
0.0
  0
LINE
  5
1EC
100
AcDbEntity
100
AcDbLine
  8
Otwor
 62
256
370
-1
  6
ByLayer
 10
172.1999999999999318
 20
83.6499999999999346
 30
0.0
 11
160.1999999999999602
 21
83.6499999999999488
 31
0.0
  0
LINE
  5
1ED
100
AcDbEntity
100
AcDbLine
  8
Otwor
 62
256
370
-1
  6
ByLayer
 10
160.1999999999999318
 20
90.1499999999999631
 30
0.0
 11
172.1999999999999318
 21
90.1499999999999204
 31
0.0
  0
LINE
  5
1EE
100
AcDbEntity
100
AcDbLine
  8
Otwor
 62
256
370
-1
  6
ByLayer
 10
173.3999999999999488
 20
90.1499999999999773
 30
0.0
 11
185.3999999999999488
 21
90.1499999999999773
 31
0.0
  0
LINE
  5
1EF
100
AcDbEntity
100
AcDbLine
  8
Otwor
 62
256
370
-1
  6
ByLayer
 10
186.5999999999999375
 20
83.6499999999999773
 30
0.0
 11
186.5999999999999375
 21
90.1499999999999346
 31
0.0
  0
LINE
  5
1F0
100
AcDbEntity
100
AcDbLine
  8
Otwor
 62
256
370
-1
  6
ByLayer
 10
198.5999999999999375
 20
83.6499999999999631
 30
0.0
 11
198.5999999999999375
 21
90.1499999999999915
 31
0.0
  0
LINE
  5
1F1
100
AcDbEntity
100
AcDbLine
  8
Otwor
 62
256
370
-1
  6
ByLayer
 10
198.5999999999999375
 20
83.6499999999999631
 30
0.0
 11
186.5999999999999375
 21
83.6499999999999773
 31
0.0
  0
LINE
  5
1F2
100
AcDbEntity
100
AcDbLine
  8
Otwor
 62
256
370
-1
  6
ByLayer
 10
186.5999999999999375
 20
90.1499999999999346
 30
0.0
 11
198.5999999999999375
 21
90.1499999999999915
 31
0.0
  0
LINE
  5
1F3
100
AcDbEntity
100
AcDbLine
  8
Otwor
 62
256
370
-1
  6
ByLayer
 10
158.9999999999999432
 20
83.6499999999999773
 30
0.0
 11
146.9999999999999432
 21
83.6499999999999773
 31
0.0
  0
LINE
  5
1F4
100
AcDbEntity
100
AcDbLine
  8
Otwor
 62
256
370
-1
  6
ByLayer
 10
158.9999999999999432
 20
90.1499999999999631
 30
0.0
 11
146.9999999999999432
 21
90.1499999999999631
 31
0.0
  0
LINE
  5
1F5
100
AcDbEntity
100
AcDbLine
  8
Otwor
 62
256
370
-1
  6
ByLayer
 10
158.9999999999999716
 20
68.2499999999999858
 30
0.0
 11
158.9999999999999432
 21
74.7499999999999432
 31
0.0
  0
LINE
  5
1F6
100
AcDbEntity
100
AcDbLine
  8
Otwor
 62
256
370
-1
  6
ByLayer
 10
160.1999999999999886
 20
68.25
 30
0.0
 11
160.1999999999999318
 21
74.7499999999999432
 31
0.0
  0
LINE
  5
1F7
100
AcDbEntity
100
AcDbLine
  8
Otwor
 62
256
370
-1
  6
ByLayer
 10
172.1999999999999318
 20
68.2499999999999289
 30
0.0
 11
172.1999999999999318
 21
74.7499999999999289
 31
0.0
  0
LINE
  5
1F8
100
AcDbEntity
100
AcDbLine
  8
Otwor
 62
256
370
-1
  6
ByLayer
 10
173.3999999999999204
 20
68.2499999999999432
 30
0.0
 11
173.3999999999999488
 21
74.7499999999999574
 31
0.0
  0
LINE
  5
1F9
100
AcDbEntity
100
AcDbLine
  8
Otwor
 62
256
370
-1
  6
ByLayer
 10
185.3999999999999488
 20
68.2499999999999716
 30
0.0
 11
185.3999999999999773
 21
74.7500000000000284
 31
0.0
  0
LINE
  5
1FA
100
AcDbEntity
100
AcDbLine
  8
Otwor
 62
256
370
-1
  6
ByLayer
 10
185.3999999999999488
 20
68.2499999999999716
 30
0.0
 11
173.3999999999999204
 21
68.2499999999999432
 31
0.0
  0
LINE
  5
1FB
100
AcDbEntity
100
AcDbLine
  8
Otwor
 62
256
370
-1
  6
ByLayer
 10
172.1999999999999318
 20
68.2499999999999289
 30
0.0
 11
160.1999999999999886
 21
68.25
 31
0.0
  0
LINE
  5
1FC
100
AcDbEntity
100
AcDbLine
  8
Otwor
 62
256
370
-1
  6
ByLayer
 10
160.1999999999999318
 20
74.7499999999999432
 30
0.0
 11
172.1999999999999318
 21
74.7499999999999289
 31
0.0
  0
LINE
  5
1FD
100
AcDbEntity
100
AcDbLine
  8
Otwor
 62
256
370
-1
  6
ByLayer
 10
173.3999999999999488
 20
74.7499999999999574
 30
0.0
 11
185.3999999999999773
 21
74.7500000000000284
 31
0.0
  0
LINE
  5
1FE
100
AcDbEntity
100
AcDbLine
  8
Otwor
 62
256
370
-1
  6
ByLayer
 10
186.5999999999999375
 20
68.2499999999999574
 30
0.0
 11
186.5999999999999091
 21
74.7499999999999432
 31
0.0
  0
LINE
  5
1FF
100
AcDbEntity
100
AcDbLine
  8
Otwor
 62
256
370
-1
  6
ByLayer
 10
198.5999999999999091
 20
68.2499999999999574
 30
0.0
 11
198.5999999999999375
 21
74.7499999999999432
 31
0.0
  0
LINE
  5
200
100
AcDbEntity
100
AcDbLine
  8
Otwor
 62
256
370
-1
  6
ByLayer
 10
198.5999999999999091
 20
68.2499999999999574
 30
0.0
 11
186.5999999999999375
 21
68.2499999999999574
 31
0.0
  0
LINE
  5
201
100
AcDbEntity
100
AcDbLine
  8
Otwor
 62
256
370
-1
  6
ByLayer
 10
186.5999999999999091
 20
74.7499999999999432
 30
0.0
 11
198.5999999999999375
 21
74.7499999999999432
 31
0.0
  0
LINE
  5
202
100
AcDbEntity
100
AcDbLine
  8
Otwor
 62
256
370
-1
  6
ByLayer
 10
158.9999999999999716
 20
68.2499999999999858
 30
0.0
 11
146.9999999999999432
 21
68.2499999999999716
 31
0.0
  0
LINE
  5
203
100
AcDbEntity
100
AcDbLine
  8
Otwor
 62
256
370
-1
  6
ByLayer
 10
158.9999999999999432
 20
74.7499999999999432
 30
0.0
 11
146.9999999999999716
 21
74.75
 31
0.0
  0
LINE
  5
204
100
AcDbEntity
100
AcDbLine
  8
Otwor
 62
256
370
-1
  6
ByLayer
 10
158.9999999999999432
 20
52.8499999999999517
 30
0.0
 11
158.9999999999999147
 21
59.3499999999999304
 31
0.0
  0
LINE
  5
205
100
AcDbEntity
100
AcDbLine
  8
Otwor
 62
256
370
-1
  6
ByLayer
 10
160.1999999999999034
 20
52.8499999999999233
 30
0.0
 11
160.1999999999999034
 21
59.3499999999999091
 31
0.0
  0
LINE
  5
206
100
AcDbEntity
100
AcDbLine
  8
Otwor
 62
256
370
-1
  6
ByLayer
 10
172.1999999999999318
 20
52.8499999999999233
 30
0.0
 11
172.1999999999999318
 21
59.3499999999999375
 31
0.0
  0
LINE
  5
207
100
AcDbEntity
100
AcDbLine
  8
Otwor
 62
256
370
-1
  6
ByLayer
 10
173.3999999999999488
 20
52.8499999999999517
 30
0.0
 11
173.3999999999999204
 21
59.3499999999999162
 31
0.0
  0
LINE
  5
208
100
AcDbEntity
100
AcDbLine
  8
Otwor
 62
256
370
-1
  6
ByLayer
 10
185.3999999999999204
 20
52.8499999999999091
 30
0.0
 11
185.4000000000000057
 21
59.3500000000000298
 31
0.0
  0
LINE
  5
209
100
AcDbEntity
100
AcDbLine
  8
Otwor
 62
256
370
-1
  6
ByLayer
 10
185.3999999999999204
 20
52.8499999999999091
 30
0.0
 11
173.3999999999999488
 21
52.8499999999999517
 31
0.0
  0
LINE
  5
20A
100
AcDbEntity
100
AcDbLine
  8
Otwor
 62
256
370
-1
  6
ByLayer
 10
172.1999999999999318
 20
52.8499999999999233
 30
0.0
 11
160.1999999999999034
 21
52.8499999999999233
 31
0.0
  0
LINE
  5
20B
100
AcDbEntity
100
AcDbLine
  8
Otwor
 62
256
370
-1
  6
ByLayer
 10
160.1999999999999034
 20
59.3499999999999091
 30
0.0
 11
172.1999999999999318
 21
59.3499999999999375
 31
0.0
  0
LINE
  5
20C
100
AcDbEntity
100
AcDbLine
  8
Otwor
 62
256
370
-1
  6
ByLayer
 10
173.3999999999999204
 20
59.3499999999999162
 30
0.0
 11
185.4000000000000057
 21
59.3500000000000298
 31
0.0
  0
LINE
  5
20D
100
AcDbEntity
100
AcDbLine
  8
Otwor
 62
256
370
-1
  6
ByLayer
 10
186.5999999999999375
 20
52.8499999999999801
 30
0.0
 11
186.5999999999999375
 21
59.3499999999999446
 31
0.0
  0
LINE
  5
20E
100
AcDbEntity
100
AcDbLine
  8
Otwor
 62
256
370
-1
  6
ByLayer
 10
198.5999999999999091
 20
52.8499999999999091
 30
0.0
 11
198.5999999999999091
 21
59.3499999999998948
 31
0.0
  0
LINE
  5
20F
100
AcDbEntity
100
AcDbLine
  8
Otwor
 62
256
370
-1
  6
ByLayer
 10
198.5999999999999091
 20
52.8499999999999091
 30
0.0
 11
186.5999999999999375
 21
52.8499999999999801
 31
0.0
  0
LINE
  5
210
100
AcDbEntity
100
AcDbLine
  8
Otwor
 62
256
370
-1
  6
ByLayer
 10
186.5999999999999375
 20
59.3499999999999446
 30
0.0
 11
198.5999999999999091
 21
59.3499999999998948
 31
0.0
  0
LINE
  5
211
100
AcDbEntity
100
AcDbLine
  8
Otwor
 62
256
370
-1
  6
ByLayer
 10
158.9999999999999432
 20
52.8499999999999517
 30
0.0
 11
146.9999999999999432
 21
52.8499999999999801
 31
0.0
  0
LINE
  5
212
100
AcDbEntity
100
AcDbLine
  8
Otwor
 62
256
370
-1
  6
ByLayer
 10
158.9999999999999147
 20
59.3499999999999304
 30
0.0
 11
146.9999999999999716
 21
59.3499999999999801
 31
0.0
  0
LINE
  5
213
100
AcDbEntity
100
AcDbLine
  8
Otwor
 62
256
370
-1
  6
ByLayer
 10
158.9999999999999147
 20
37.4499999999999318
 30
0.0
 11
158.9999999999999432
 21
43.9499999999999602
 31
0.0
  0
LINE
  5
214
100
AcDbEntity
100
AcDbLine
  8
Otwor
 62
256
370
-1
  6
ByLayer
 10
160.1999999999999034
 20
37.4499999999999176
 30
0.0
 11
160.1999999999999034
 21
43.9499999999999318
 31
0.0
  0
LINE
  5
215
100
AcDbEntity
100
AcDbLine
  8
Otwor
 62
256
370
-1
  6
ByLayer
 10
172.1999999999999602
 20
37.4499999999999602
 30
0.0
 11
172.1999999999999602
 21
43.9499999999999744
 31
0.0
  0
LINE
  5
216
100
AcDbEntity
100
AcDbLine
  8
Otwor
 62
256
370
-1
  6
ByLayer
 10
173.3999999999999773
 20
37.4499999999999744
 30
0.0
 11
173.3999999999999204
 21
43.9499999999999318
 31
0.0
  0
LINE
  5
217
100
AcDbEntity
100
AcDbLine
  8
Otwor
 62
256
370
-1
  6
ByLayer
 10
185.3999999999999204
 20
37.4499999999999318
 30
0.0
 11
185.3999999999999773
 21
43.9499999999999886
 31
0.0
  0
LINE
  5
218
100
AcDbEntity
100
AcDbLine
  8
Otwor
 62
256
370
-1
  6
ByLayer
 10
185.3999999999999204
 20
37.4499999999999318
 30
0.0
 11
173.3999999999999773
 21
37.4499999999999744
 31
0.0
  0
LINE
  5
219
100
AcDbEntity
100
AcDbLine
  8
Otwor
 62
256
370
-1
  6
ByLayer
 10
172.1999999999999602
 20
37.4499999999999602
 30
0.0
 11
160.1999999999999034
 21
37.4499999999999176
 31
0.0
  0
LINE
  5
21A
100
AcDbEntity
100
AcDbLine
  8
Otwor
 62
256
370
-1
  6
ByLayer
 10
160.1999999999999034
 20
43.9499999999999318
 30
0.0
 11
172.1999999999999602
 21
43.9499999999999744
 31
0.0
  0
LINE
  5
21B
100
AcDbEntity
100
AcDbLine
  8
Otwor
 62
256
370
-1
  6
ByLayer
 10
173.3999999999999204
 20
43.9499999999999318
 30
0.0
 11
185.3999999999999773
 21
43.9499999999999886
 31
0.0
  0
LINE
  5
21C
100
AcDbEntity
100
AcDbLine
  8
Otwor
 62
256
370
-1
  6
ByLayer
 10
186.5999999999999375
 20
37.4499999999999602
 30
0.0
 11
186.5999999999999659
 21
43.9500000000000028
 31
0.0
  0
LINE
  5
21D
100
AcDbEntity
100
AcDbLine
  8
Otwor
 62
256
370
-1
  6
ByLayer
 10
198.5999999999999091
 20
37.4499999999999176
 30
0.0
 11
198.5999999999999375
 21
43.9499999999999602
 31
0.0
  0
LINE
  5
21E
100
AcDbEntity
100
AcDbLine
  8
Otwor
 62
256
370
-1
  6
ByLayer
 10
198.5999999999999091
 20
37.4499999999999176
 30
0.0
 11
186.5999999999999375
 21
37.4499999999999602
 31
0.0
  0
LINE
  5
21F
100
AcDbEntity
100
AcDbLine
  8
Otwor
 62
256
370
-1
  6
ByLayer
 10
186.5999999999999659
 20
43.9500000000000028
 30
0.0
 11
198.5999999999999375
 21
43.9499999999999602
 31
0.0
  0
LINE
  5
220
100
AcDbEntity
100
AcDbLine
  8
Otwor
 62
256
370
-1
  6
ByLayer
 10
158.9999999999999147
 20
37.4499999999999318
 30
0.0
 11
146.9999999999999716
 21
37.4499999999999744
 31
0.0
  0
LINE
  5
221
100
AcDbEntity
100
AcDbLine
  8
Otwor
 62
256
370
-1
  6
ByLayer
 10
158.9999999999999432
 20
43.9499999999999602
 30
0.0
 11
146.9999999999998863
 21
43.9499999999999176
 31
0.0
  0
LINE
  5
222
100
AcDbEntity
100
AcDbLine
  8
Otwor
 62
256
370
-1
  6
ByLayer
 10
158.9999999999999147
 20
22.0499999999999261
 30
0.0
 11
158.9999999999999147
 21
28.5499999999999261
 31
0.0
  0
LINE
  5
223
100
AcDbEntity
100
AcDbLine
  8
Otwor
 62
256
370
-1
  6
ByLayer
 10
160.1999999999999318
 20
22.0499999999999261
 30
0.0
 11
160.1999999999999034
 21
28.5499999999999403
 31
0.0
  0
LINE
  5
224
100
AcDbEntity
100
AcDbLine
  8
Otwor
 62
256
370
-1
  6
ByLayer
 10
172.1999999999999602
 20
22.0499999999999403
 30
0.0
 11
172.1999999999999318
 21
28.5499999999999403
 31
0.0
  0
LINE
  5
225
100
AcDbEntity
100
AcDbLine
  8
Otwor
 62
256
370
-1
  6
ByLayer
 10
173.4000000000000057
 20
22.0499999999999972
 30
0.0
 11
173.399999999999892
 21
28.5499999999999119
 31
0.0
  0
LINE
  5
226
100
AcDbEntity
100
AcDbLine
  8
Otwor
 62
256
370
-1
  6
ByLayer
 10
185.4000000000000057
 20
22.0499999999999829
 30
0.0
 11
185.3999999999999204
 21
28.5499999999999403
 31
0.0
  0
LINE
  5
227
100
AcDbEntity
100
AcDbLine
  8
Otwor
 62
256
370
-1
  6
ByLayer
 10
185.4000000000000057
 20
22.0499999999999829
 30
0.0
 11
173.4000000000000057
 21
22.0499999999999972
 31
0.0
  0
LINE
  5
228
100
AcDbEntity
100
AcDbLine
  8
Otwor
 62
256
370
-1
  6
ByLayer
 10
172.1999999999999602
 20
22.0499999999999403
 30
0.0
 11
160.1999999999999318
 21
22.0499999999999261
 31
0.0
  0
LINE
  5
229
100
AcDbEntity
100
AcDbLine
  8
Otwor
 62
256
370
-1
  6
ByLayer
 10
160.1999999999999034
 20
28.5499999999999403
 30
0.0
 11
172.1999999999999318
 21
28.5499999999999403
 31
0.0
  0
LINE
  5
22A
100
AcDbEntity
100
AcDbLine
  8
Otwor
 62
256
370
-1
  6
ByLayer
 10
173.399999999999892
 20
28.5499999999999119
 30
0.0
 11
185.3999999999999204
 21
28.5499999999999403
 31
0.0
  0
LINE
  5
22B
100
AcDbEntity
100
AcDbLine
  8
Otwor
 62
256
370
-1
  6
ByLayer
 10
186.5999999999999091
 20
22.0499999999999261
 30
0.0
 11
186.5999999999999091
 21
28.5499999999999119
 31
0.0
  0
LINE
  5
22C
100
AcDbEntity
100
AcDbLine
  8
Otwor
 62
256
370
-1
  6
ByLayer
 10
198.5999999999998806
 20
22.0499999999999119
 30
0.0
 11
198.5999999999999375
 21
28.5499999999999261
 31
0.0
  0
LINE
  5
22D
100
AcDbEntity
100
AcDbLine
  8
Otwor
 62
256
370
-1
  6
ByLayer
 10
198.5999999999998806
 20
22.0499999999999119
 30
0.0
 11
186.5999999999999091
 21
22.0499999999999261
 31
0.0
  0
LINE
  5
22E
100
AcDbEntity
100
AcDbLine
  8
Otwor
 62
256
370
-1
  6
ByLayer
 10
186.5999999999999091
 20
28.5499999999999119
 30
0.0
 11
198.5999999999999375
 21
28.5499999999999261
 31
0.0
  0
LINE
  5
22F
100
AcDbEntity
100
AcDbLine
  8
Otwor
 62
256
370
-1
  6
ByLayer
 10
158.9999999999999147
 20
22.0499999999999261
 30
0.0
 11
146.9999999999999432
 21
22.0499999999999545
 31
0.0
  0
LINE
  5
230
100
AcDbEntity
100
AcDbLine
  8
Otwor
 62
256
370
-1
  6
ByLayer
 10
158.9999999999999147
 20
28.5499999999999261
 30
0.0
 11
146.9999999999998863
 21
28.5499999999999119
 31
0.0
  0
LINE
  5
231
100
AcDbEntity
100
AcDbLine
  8
Otwor
 62
256
370
-1
  6
ByLayer
 10
158.9999999999999432
 20
6.6499999999999631
 30
0.0
 11
158.9999999999998863
 21
13.1499999999999062
 31
0.0
  0
LINE
  5
232
100
AcDbEntity
100
AcDbLine
  8
Otwor
 62
256
370
-1
  6
ByLayer
 10
160.1999999999999034
 20
6.6499999999999204
 30
0.0
 11
160.1999999999999886
 21
13.1499999999999631
 31
0.0
  0
LINE
  5
233
100
AcDbEntity
100
AcDbLine
  8
Otwor
 62
256
370
-1
  6
ByLayer
 10
172.1999999999999034
 20
6.6499999999999204
 30
0.0
 11
172.1999999999999318
 21
13.1499999999999346
 31
0.0
  0
LINE
  5
234
100
AcDbEntity
100
AcDbLine
  8
Otwor
 62
256
370
-1
  6
ByLayer
 10
173.3999999999999488
 20
6.6499999999999204
 30
0.0
 11
173.399999999999892
 21
13.149999999999892
 31
0.0
  0
LINE
  5
235
100
AcDbEntity
100
AcDbLine
  8
Otwor
 62
256
370
-1
  6
ByLayer
 10
185.3999999999999773
 20
6.6499999999999773
 30
0.0
 11
185.399999999999892
 21
13.1499999999998778
 31
0.0
  0
LINE
  5
236
100
AcDbEntity
100
AcDbLine
  8
Otwor
 62
256
370
-1
  6
ByLayer
 10
185.3999999999999773
 20
6.6499999999999773
 30
0.0
 11
173.3999999999999488
 21
6.6499999999999204
 31
0.0
  0
LINE
  5
237
100
AcDbEntity
100
AcDbLine
  8
Otwor
 62
256
370
-1
  6
ByLayer
 10
172.1999999999999034
 20
6.6499999999999204
 30
0.0
 11
160.1999999999999034
 21
6.6499999999999204
 31
0.0
  0
LINE
  5
238
100
AcDbEntity
100
AcDbLine
  8
Otwor
 62
256
370
-1
  6
ByLayer
 10
160.1999999999999886
 20
13.1499999999999631
 30
0.0
 11
172.1999999999999318
 21
13.1499999999999346
 31
0.0
  0
LINE
  5
239
100
AcDbEntity
100
AcDbLine
  8
Otwor
 62
256
370
-1
  6
ByLayer
 10
173.399999999999892
 20
13.149999999999892
 30
0.0
 11
185.399999999999892
 21
13.1499999999998778
 31
0.0
  0
LINE
  5
23A
100
AcDbEntity
100
AcDbLine
  8
Otwor
 62
256
370
-1
  6
ByLayer
 10
186.5999999999998522
 20
6.6499999999998778
 30
0.0
 11
186.5999999999999375
 21
13.1499999999999773
 31
0.0
  0
LINE
  5
23B
100
AcDbEntity
100
AcDbLine
  8
Otwor
 62
256
370
-1
  6
ByLayer
 10
198.5999999999999091
 20
6.6499999999999346
 30
0.0
 11
198.5999999999999091
 21
13.1499999999999062
 31
0.0
  0
LINE
  5
23C
100
AcDbEntity
100
AcDbLine
  8
Otwor
 62
256
370
-1
  6
ByLayer
 10
198.5999999999999091
 20
6.6499999999999346
 30
0.0
 11
186.5999999999998522
 21
6.6499999999998778
 31
0.0
  0
LINE
  5
23D
100
AcDbEntity
100
AcDbLine
  8
Otwor
 62
256
370
-1
  6
ByLayer
 10
186.5999999999999375
 20
13.1499999999999773
 30
0.0
 11
198.5999999999999091
 21
13.1499999999999062
 31
0.0
  0
LINE
  5
23E
100
AcDbEntity
100
AcDbLine
  8
Otwor
 62
256
370
-1
  6
ByLayer
 10
158.9999999999999432
 20
6.6499999999999631
 30
0.0
 11
146.9999999999999147
 21
6.6499999999999204
 31
0.0
  0
LINE
  5
23F
100
AcDbEntity
100
AcDbLine
  8
Otwor
 62
256
370
-1
  6
ByLayer
 10
158.9999999999998863
 20
13.1499999999999062
 30
0.0
 11
146.9999999999999432
 21
13.1499999999999488
 31
0.0
  0
LINE
  5
240
100
AcDbEntity
100
AcDbLine
  8
Otwor
 62
256
370
-1
  6
ByLayer
 10
158.9999999999998863
 20
-8.7500000000000853
 30
0.0
 11
158.9999999999999432
 21
-2.2500000000000426
 31
0.0
  0
LINE
  5
241
100
AcDbEntity
100
AcDbLine
  8
Otwor
 62
256
370
-1
  6
ByLayer
 10
160.1999999999999318
 20
-8.7500000000000568
 30
0.0
 11
160.2000000000000171
 21
-2.2500000000000284
 31
0.0
  0
LINE
  5
242
100
AcDbEntity
100
AcDbLine
  8
Otwor
 62
256
370
-1
  6
ByLayer
 10
172.1999999999998749
 20
-8.7500000000001137
 30
0.0
 11
172.1999999999998749
 21
-2.2500000000000853
 31
0.0
  0
LINE
  5
243
100
AcDbEntity
100
AcDbLine
  8
Otwor
 62
256
370
-1
  6
ByLayer
 10
173.3999999999998636
 20
-8.7500000000001137
 30
0.0
 11
173.3999999999999488
 21
-2.2500000000000568
 31
0.0
  0
LINE
  5
244
100
AcDbEntity
100
AcDbLine
  8
Otwor
 62
256
370
-1
  6
ByLayer
 10
185.3999999999999204
 20
-8.7500000000001137
 30
0.0
 11
185.3999999999999488
 21
-2.2500000000000426
 31
0.0
  0
LINE
  5
245
100
AcDbEntity
100
AcDbLine
  8
Otwor
 62
256
370
-1
  6
ByLayer
 10
185.3999999999999204
 20
-8.7500000000001137
 30
0.0
 11
173.3999999999998636
 21
-8.7500000000001137
 31
0.0
  0
LINE
  5
246
100
AcDbEntity
100
AcDbLine
  8
Otwor
 62
256
370
-1
  6
ByLayer
 10
172.1999999999998749
 20
-8.7500000000001137
 30
0.0
 11
160.1999999999999318
 21
-8.7500000000000568
 31
0.0
  0
LINE
  5
247
100
AcDbEntity
100
AcDbLine
  8
Otwor
 62
256
370
-1
  6
ByLayer
 10
160.2000000000000171
 20
-2.2500000000000284
 30
0.0
 11
172.1999999999998749
 21
-2.2500000000000853
 31
0.0
  0
LINE
  5
248
100
AcDbEntity
100
AcDbLine
  8
Otwor
 62
256
370
-1
  6
ByLayer
 10
173.3999999999999488
 20
-2.2500000000000568
 30
0.0
 11
185.3999999999999488
 21
-2.2500000000000426
 31
0.0
  0
LINE
  5
249
100
AcDbEntity
100
AcDbLine
  8
Otwor
 62
256
370
-1
  6
ByLayer
 10
186.5999999999999091
 20
-8.7500000000000568
 30
0.0
 11
186.5999999999999943
 21
-2.25
 31
0.0
  0
LINE
  5
24A
100
AcDbEntity
100
AcDbLine
  8
Otwor
 62
256
370
-1
  6
ByLayer
 10
198.5999999999999943
 20
-8.7500000000000284
 30
0.0
 11
198.5999999999999091
 21
-2.2500000000000711
 31
0.0
  0
LINE
  5
24B
100
AcDbEntity
100
AcDbLine
  8
Otwor
 62
256
370
-1
  6
ByLayer
 10
198.5999999999999943
 20
-8.7500000000000284
 30
0.0
 11
186.5999999999999091
 21
-8.7500000000000568
 31
0.0
  0
LINE
  5
24C
100
AcDbEntity
100
AcDbLine
  8
Otwor
 62
256
370
-1
  6
ByLayer
 10
186.5999999999999943
 20
-2.25
 30
0.0
 11
198.5999999999999091
 21
-2.2500000000000711
 31
0.0
  0
LINE
  5
24D
100
AcDbEntity
100
AcDbLine
  8
Otwor
 62
256
370
-1
  6
ByLayer
 10
158.9999999999998863
 20
-8.7500000000000853
 30
0.0
 11
146.9999999999999147
 21
-8.7500000000000568
 31
0.0
  0
LINE
  5
24E
100
AcDbEntity
100
AcDbLine
  8
Otwor
 62
256
370
-1
  6
ByLayer
 10
158.9999999999999432
 20
-2.2500000000000426
 30
0.0
 11
146.9999999999999147
 21
-2.2500000000000568
 31
0.0
  0
LINE
  5
24F
100
AcDbEntity
100
AcDbLine
  8
Otwor
 62
256
370
-1
  6
ByLayer
 10
158.9999999999998863
 20
-24.1500000000000909
 30
0.0
 11
158.9999999999998863
 21
-17.6500000000001194
 31
0.0
  0
LINE
  5
250
100
AcDbEntity
100
AcDbLine
  8
Otwor
 62
256
370
-1
  6
ByLayer
 10
160.1999999999999318
 20
-24.1500000000000625
 30
0.0
 11
160.1999999999998749
 21
-17.6500000000000909
 31
0.0
  0
LINE
  5
251
100
AcDbEntity
100
AcDbLine
  8
Otwor
 62
256
370
-1
  6
ByLayer
 10
172.1999999999998465
 20
-24.1500000000001194
 30
0.0
 11
172.1999999999999602
 21
-17.6500000000000625
 31
0.0
  0
LINE
  5
252
100
AcDbEntity
100
AcDbLine
  8
Otwor
 62
256
370
-1
  6
ByLayer
 10
173.3999999999999204
 20
-24.1500000000000909
 30
0.0
 11
173.3999999999998636
 21
-17.6500000000001478
 31
0.0
  0
LINE
  5
253
100
AcDbEntity
100
AcDbLine
  8
Otwor
 62
256
370
-1
  6
ByLayer
 10
185.3999999999999204
 20
-24.1500000000000909
 30
0.0
 11
185.399999999999892
 21
-17.6500000000001194
 31
0.0
  0
LINE
  5
254
100
AcDbEntity
100
AcDbLine
  8
Otwor
 62
256
370
-1
  6
ByLayer
 10
185.3999999999999204
 20
-24.1500000000000909
 30
0.0
 11
173.3999999999999204
 21
-24.1500000000000909
 31
0.0
  0
LINE
  5
255
100
AcDbEntity
100
AcDbLine
  8
Otwor
 62
256
370
-1
  6
ByLayer
 10
172.1999999999998465
 20
-24.1500000000001194
 30
0.0
 11
160.1999999999999318
 21
-24.1500000000000625
 31
0.0
  0
LINE
  5
256
100
AcDbEntity
100
AcDbLine
  8
Otwor
 62
256
370
-1
  6
ByLayer
 10
160.1999999999998749
 20
-17.6500000000000909
 30
0.0
 11
172.1999999999999602
 21
-17.6500000000000625
 31
0.0
  0
LINE
  5
257
100
AcDbEntity
100
AcDbLine
  8
Otwor
 62
256
370
-1
  6
ByLayer
 10
173.3999999999998636
 20
-17.6500000000001478
 30
0.0
 11
185.399999999999892
 21
-17.6500000000001194
 31
0.0
  0
LINE
  5
258
100
AcDbEntity
100
AcDbLine
  8
Otwor
 62
256
370
-1
  6
ByLayer
 10
186.5999999999999375
 20
-24.1500000000000909
 30
0.0
 11
186.5999999999999375
 21
-17.6500000000000909
 31
0.0
  0
LINE
  5
259
100
AcDbEntity
100
AcDbLine
  8
Otwor
 62
256
370
-1
  6
ByLayer
 10
198.5999999999998522
 20
-24.1500000000001194
 30
0.0
 11
198.5999999999999091
 21
-17.6500000000000909
 31
0.0
  0
LINE
  5
25A
100
AcDbEntity
100
AcDbLine
  8
Otwor
 62
256
370
-1
  6
ByLayer
 10
198.5999999999998522
 20
-24.1500000000001194
 30
0.0
 11
186.5999999999999375
 21
-24.1500000000000909
 31
0.0
  0
LINE
  5
25B
100
AcDbEntity
100
AcDbLine
  8
Otwor
 62
256
370
-1
  6
ByLayer
 10
186.5999999999999375
 20
-17.6500000000000909
 30
0.0
 11
198.5999999999999091
 21
-17.6500000000000909
 31
0.0
  0
LINE
  5
25C
100
AcDbEntity
100
AcDbLine
  8
Otwor
 62
256
370
-1
  6
ByLayer
 10
158.9999999999998863
 20
-24.1500000000000909
 30
0.0
 11
147.0
 21
-24.1500000000000341
 31
0.0
  0
LINE
  5
25D
100
AcDbEntity
100
AcDbLine
  8
Otwor
 62
256
370
-1
  6
ByLayer
 10
158.9999999999998863
 20
-17.6500000000001194
 30
0.0
 11
146.9999999999999432
 21
-17.6500000000000625
 31
0.0
  0
LINE
  5
25E
100
AcDbEntity
100
AcDbLine
  8
Otwor
 62
256
370
-1
  6
ByLayer
 10
166.7999999999999545
 20
91.3499999999999801
 30
0.0
 11
166.7999999999999261
 21
97.8499999999999517
 31
0.0
  0
LINE
  5
25F
100
AcDbEntity
100
AcDbLine
  8
Otwor
 62
256
370
-1
  6
ByLayer
 10
165.5999999999999375
 20
91.3499999999999659
 30
0.0
 11
165.5999999999999375
 21
97.8500000000000085
 31
0.0
  0
LINE
  5
260
100
AcDbEntity
100
AcDbLine
  8
Otwor
 62
256
370
-1
  6
ByLayer
 10
191.7999999999999545
 20
91.3499999999999659
 30
0.0
 11
191.7999999999999545
 21
97.8499999999999375
 31
0.0
  0
LINE
  5
261
100
AcDbEntity
100
AcDbLine
  8
Otwor
 62
256
370
-1
  6
ByLayer
 10
191.7999999999999545
 20
97.8499999999999375
 30
0.0
 11
166.7999999999999261
 21
97.8499999999999517
 31
0.0
  0
LINE
  5
262
100
AcDbEntity
100
AcDbLine
  8
Otwor
 62
256
370
-1
  6
ByLayer
 10
166.7999999999999545
 20
91.3499999999999801
 30
0.0
 11
191.7999999999999545
 21
91.3499999999999659
 31
0.0
  0
LINE
  5
263
100
AcDbEntity
100
AcDbLine
  8
Otwor
 62
256
370
-1
  6
ByLayer
 10
165.5999999999999375
 20
97.8500000000000085
 30
0.0
 11
146.9999999999999432
 21
97.8500000000000085
 31
0.0
  0
LINE
  5
264
100
AcDbEntity
100
AcDbLine
  8
Otwor
 62
256
370
-1
  6
ByLayer
 10
165.5999999999999375
 20
91.3499999999999659
 30
0.0
 11
146.9999999999999432
 21
91.3499999999999943
 31
0.0
  0
LINE
  5
265
100
AcDbEntity
100
AcDbLine
  8
Otwor
 62
256
370
-1
  6
ByLayer
 10
146.9999999999999432
 20
97.8500000000000085
 30
0.0
 11
146.9999999999999432
 21
91.3499999999999943
 31
0.0
  0
LINE
  5
266
100
AcDbEntity
100
AcDbLine
  8
Otwor
 62
256
370
-1
  6
ByLayer
 10
166.7999999999999261
 20
60.5499999999999901
 30
0.0
 11
166.7999999999999545
 21
67.0499999999999972
 31
0.0
  0
LINE
  5
267
100
AcDbEntity
100
AcDbLine
  8
Otwor
 62
256
370
-1
  6
ByLayer
 10
165.5999999999999659
 20
60.5500000000000114
 30
0.0
 11
165.5999999999999375
 21
67.0499999999999687
 31
0.0
  0
LINE
  5
268
100
AcDbEntity
100
AcDbLine
  8
Otwor
 62
256
370
-1
  6
ByLayer
 10
191.7999999999999829
 20
60.5500000000000398
 30
0.0
 11
191.7999999999999545
 21
67.0499999999999972
 31
0.0
  0
LINE
  5
269
100
AcDbEntity
100
AcDbLine
  8
Otwor
 62
256
370
-1
  6
ByLayer
 10
191.7999999999999545
 20
67.0499999999999972
 30
0.0
 11
166.7999999999999545
 21
67.0499999999999972
 31
0.0
  0
LINE
  5
26A
100
AcDbEntity
100
AcDbLine
  8
Otwor
 62
256
370
-1
  6
ByLayer
 10
166.7999999999999261
 20
60.5499999999999901
 30
0.0
 11
191.7999999999999829
 21
60.5500000000000398
 31
0.0
  0
LINE
  5
26B
100
AcDbEntity
100
AcDbLine
  8
Otwor
 62
256
370
-1
  6
ByLayer
 10
165.5999999999999375
 20
67.0499999999999687
 30
0.0
 11
146.9999999999999716
 21
67.0500000000000114
 31
0.0
  0
LINE
  5
26C
100
AcDbEntity
100
AcDbLine
  8
Otwor
 62
256
370
-1
  6
ByLayer
 10
165.5999999999999659
 20
60.5500000000000114
 30
0.0
 11
146.9999999999999432
 21
60.5499999999999901
 31
0.0
  0
LINE
  5
26D
100
AcDbEntity
100
AcDbLine
  8
Otwor
 62
256
370
-1
  6
ByLayer
 10
146.9999999999999716
 20
67.0500000000000114
 30
0.0
 11
146.9999999999999432
 21
60.5499999999999901
 31
0.0
  0
LINE
  5
26E
100
AcDbEntity
100
AcDbLine
  8
Otwor
 62
256
370
-1
  6
ByLayer
 10
166.7999999999999829
 20
29.7500000000000284
 30
0.0
 11
166.7999999999999545
 21
36.25
 31
0.0
  0
LINE
  5
26F
100
AcDbEntity
100
AcDbLine
  8
Otwor
 62
256
370
-1
  6
ByLayer
 10
165.5999999999999659
 20
29.7500000000000142
 30
0.0
 11
165.5999999999999375
 21
36.2499999999999858
 31
0.0
  0
LINE
  5
270
100
AcDbEntity
100
AcDbLine
  8
Otwor
 62
256
370
-1
  6
ByLayer
 10
191.7999999999999829
 20
29.7500000000000426
 30
0.0
 11
191.7999999999999545
 21
36.2499999999999716
 31
0.0
  0
LINE
  5
271
100
AcDbEntity
100
AcDbLine
  8
Otwor
 62
256
370
-1
  6
ByLayer
 10
191.7999999999999545
 20
36.2499999999999716
 30
0.0
 11
166.7999999999999545
 21
36.25
 31
0.0
  0
LINE
  5
272
100
AcDbEntity
100
AcDbLine
  8
Otwor
 62
256
370
-1
  6
ByLayer
 10
166.7999999999999829
 20
29.7500000000000284
 30
0.0
 11
191.7999999999999829
 21
29.7500000000000426
 31
0.0
  0
LINE
  5
273
100
AcDbEntity
100
AcDbLine
  8
Otwor
 62
256
370
-1
  6
ByLayer
 10
165.5999999999999375
 20
36.2499999999999858
 30
0.0
 11
146.9999999999999147
 21
36.2499999999999716
 31
0.0
  0
LINE
  5
274
100
AcDbEntity
100
AcDbLine
  8
Otwor
 62
256
370
-1
  6
ByLayer
 10
165.5999999999999659
 20
29.7500000000000142
 30
0.0
 11
146.9999999999999432
 21
29.7499999999999858
 31
0.0
  0
LINE
  5
275
100
AcDbEntity
100
AcDbLine
  8
Otwor
 62
256
370
-1
  6
ByLayer
 10
146.9999999999999147
 20
36.2499999999999716
 30
0.0
 11
146.9999999999999432
 21
29.7499999999999858
 31
0.0
  0
LINE
  5
276
100
AcDbEntity
100
AcDbLine
  8
Otwor
 62
256
370
-1
  6
ByLayer
 10
166.8000000000000114
 20
-1.0499999999999829
 30
0.0
 11
166.7999999999999829
 21
5.4500000000000028
 31
0.0
  0
LINE
  5
277
100
AcDbEntity
100
AcDbLine
  8
Otwor
 62
256
370
-1
  6
ByLayer
 10
165.5999999999999375
 20
-1.0500000000000114
 30
0.0
 11
165.5999999999999091
 21
5.4499999999999744
 31
0.0
  0
LINE
  5
278
100
AcDbEntity
100
AcDbLine
  8
Otwor
 62
256
370
-1
  6
ByLayer
 10
191.7999999999999545
 20
-1.0499999999999972
 30
0.0
 11
191.7999999999998977
 21
5.449999999999946
 31
0.0
  0
LINE
  5
279
100
AcDbEntity
100
AcDbLine
  8
Otwor
 62
256
370
-1
  6
ByLayer
 10
191.7999999999998977
 20
5.449999999999946
 30
0.0
 11
166.7999999999999829
 21
5.4500000000000028
 31
0.0
  0
LINE
  5
27A
100
AcDbEntity
100
AcDbLine
  8
Otwor
 62
256
370
-1
  6
ByLayer
 10
166.8000000000000114
 20
-1.0499999999999829
 30
0.0
 11
191.7999999999999545
 21
-1.0499999999999972
 31
0.0
  0
LINE
  5
27B
100
AcDbEntity
100
AcDbLine
  8
Otwor
 62
256
370
-1
  6
ByLayer
 10
165.5999999999999091
 20
5.4499999999999744
 30
0.0
 11
146.9999999999999432
 21
5.4499999999999886
 31
0.0
  0
LINE
  5
27C
100
AcDbEntity
100
AcDbLine
  8
Otwor
 62
256
370
-1
  6
ByLayer
 10
165.5999999999999375
 20
-1.0500000000000114
 30
0.0
 11
146.9999999999999716
 21
-1.0500000000000114
 31
0.0
  0
LINE
  5
27D
100
AcDbEntity
100
AcDbLine
  8
Otwor
 62
256
370
-1
  6
ByLayer
 10
146.9999999999999432
 20
5.4499999999999886
 30
0.0
 11
146.9999999999999716
 21
-1.0500000000000114
 31
0.0
  0
LINE
  5
27E
100
AcDbEntity
100
AcDbLine
  8
Otwor
 62
256
370
-1
  6
ByLayer
 10
166.7999999999999545
 20
-31.8499999999999943
 30
0.0
 11
166.8000000000000114
 21
-25.3499999999999659
 31
0.0
  0
LINE
  5
27F
100
AcDbEntity
100
AcDbLine
  8
Otwor
 62
256
370
-1
  6
ByLayer
 10
165.5999999999999943
 20
-31.8499999999999375
 30
0.0
 11
165.5999999999999659
 21
-25.3499999999999943
 31
0.0
  0
LINE
  5
280
100
AcDbEntity
100
AcDbLine
  8
Otwor
 62
256
370
-1
  6
ByLayer
 10
191.8000000000000114
 20
-31.8499999999999659
 30
0.0
 11
191.8000000000000114
 21
-25.3499999999999659
 31
0.0
  0
LINE
  5
281
100
AcDbEntity
100
AcDbLine
  8
Otwor
 62
256
370
-1
  6
ByLayer
 10
191.8000000000000114
 20
-25.3499999999999659
 30
0.0
 11
166.8000000000000114
 21
-25.3499999999999659
 31
0.0
  0
LINE
  5
282
100
AcDbEntity
100
AcDbLine
  8
Otwor
 62
256
370
-1
  6
ByLayer
 10
166.7999999999999545
 20
-31.8499999999999943
 30
0.0
 11
191.8000000000000114
 21
-31.8499999999999659
 31
0.0
  0
LINE
  5
283
100
AcDbEntity
100
AcDbLine
  8
Otwor
 62
256
370
-1
  6
ByLayer
 10
165.5999999999999659
 20
-25.3499999999999943
 30
0.0
 11
146.9999999999999716
 21
-25.3499999999999659
 31
0.0
  0
LINE
  5
284
100
AcDbEntity
100
AcDbLine
  8
Otwor
 62
256
370
-1
  6
ByLayer
 10
165.5999999999999943
 20
-31.8499999999999375
 30
0.0
 11
146.9999999999999716
 21
-31.8499999999999943
 31
0.0
  0
LINE
  5
285
100
AcDbEntity
100
AcDbLine
  8
Otwor
 62
256
370
-1
  6
ByLayer
 10
146.9999999999999716
 20
-25.3499999999999659
 30
0.0
 11
146.9999999999999716
 21
-31.8499999999999943
 31
0.0
  0
LINE
  5
286
100
AcDbEntity
100
AcDbLine
  8
Otwor
 62
256
370
-1
  6
ByLayer
 10
146.9999999999999432
 20
99.0499999999999972
 30
0.0
 11
146.9999999999999432
 21
105.5499999999999829
 31
0.0
  0
LINE
  5
287
100
AcDbEntity
100
AcDbLine
  8
Otwor
 62
256
370
-1
  6
ByLayer
 10
146.9999999999999432
 20
83.6499999999999773
 30
0.0
 11
146.9999999999999432
 21
90.1499999999999631
 31
0.0
  0
LINE
  5
288
100
AcDbEntity
100
AcDbLine
  8
Otwor
 62
256
370
-1
  6
ByLayer
 10
146.9999999999999432
 20
68.2499999999999716
 30
0.0
 11
146.9999999999999716
 21
74.75
 31
0.0
  0
LINE
  5
289
100
AcDbEntity
100
AcDbLine
  8
Otwor
 62
256
370
-1
  6
ByLayer
 10
146.9999999999999432
 20
52.8499999999999801
 30
0.0
 11
146.9999999999999716
 21
59.3499999999999801
 31
0.0
  0
LINE
  5
28A
100
AcDbEntity
100
AcDbLine
  8
Otwor
 62
256
370
-1
  6
ByLayer
 10
146.9999999999999716
 20
37.4499999999999744
 30
0.0
 11
146.9999999999998863
 21
43.9499999999999176
 31
0.0
  0
LINE
  5
28B
100
AcDbEntity
100
AcDbLine
  8
Otwor
 62
256
370
-1
  6
ByLayer
 10
146.9999999999999432
 20
22.0499999999999545
 30
0.0
 11
146.9999999999998863
 21
28.5499999999999119
 31
0.0
  0
LINE
  5
28C
100
AcDbEntity
100
AcDbLine
  8
Otwor
 62
256
370
-1
  6
ByLayer
 10
146.9999999999999147
 20
6.6499999999999204
 30
0.0
 11
146.9999999999999432
 21
13.1499999999999488
 31
0.0
  0
LINE
  5
28D
100
AcDbEntity
100
AcDbLine
  8
Otwor
 62
256
370
-1
  6
ByLayer
 10
146.9999999999999147
 20
-8.7500000000000568
 30
0.0
 11
146.9999999999999147
 21
-2.2500000000000568
 31
0.0
  0
LINE
  5
28E
100
AcDbEntity
100
AcDbLine
  8
Otwor
 62
256
370
-1
  6
ByLayer
 10
147.0
 20
-24.1500000000000341
 30
0.0
 11
146.9999999999999432
 21
-17.6500000000000625
 31
0.0
  0
LINE
  5
28F
100
AcDbEntity
100
AcDbLine
  8
Otwor
 62
256
370
-1
  6
ByLayer
 10
158.9999999999999432
 20
145.25
 30
0.0
 11
158.9999999999999432
 21
151.75
 31
0.0
  0
LINE
  5
290
100
AcDbEntity
100
AcDbLine
  8
Otwor
 62
256
370
-1
  6
ByLayer
 10
160.1999999999999602
 20
145.25
 30
0.0
 11
160.1999999999999602
 21
151.7500000000000284
 31
0.0
  0
LINE
  5
291
100
AcDbEntity
100
AcDbLine
  8
Otwor
 62
256
370
-1
  6
ByLayer
 10
172.1999999999999602
 20
145.2499999999999716
 30
0.0
 11
172.1999999999999602
 21
151.7499999999999716
 31
0.0
  0
LINE
  5
292
100
AcDbEntity
100
AcDbLine
  8
Otwor
 62
256
370
-1
  6
ByLayer
 10
173.3999999999999773
 20
145.2499999999999716
 30
0.0
 11
173.3999999999999773
 21
151.75
 31
0.0
  0
LINE
  5
293
100
AcDbEntity
100
AcDbLine
  8
Otwor
 62
256
370
-1
  6
ByLayer
 10
185.3999999999999773
 20
145.2499999999998863
 30
0.0
 11
185.3999999999999773
 21
151.7499999999999432
 31
0.0
  0
LINE
  5
294
100
AcDbEntity
100
AcDbLine
  8
Otwor
 62
256
370
-1
  6
ByLayer
 10
185.3999999999999773
 20
145.2499999999998863
 30
0.0
 11
173.3999999999999773
 21
145.2499999999999716
 31
0.0
  0
LINE
  5
295
100
AcDbEntity
100
AcDbLine
  8
Otwor
 62
256
370
-1
  6
ByLayer
 10
172.1999999999999602
 20
145.2499999999999716
 30
0.0
 11
160.1999999999999602
 21
145.25
 31
0.0
  0
LINE
  5
296
100
AcDbEntity
100
AcDbLine
  8
Otwor
 62
256
370
-1
  6
ByLayer
 10
160.1999999999999602
 20
151.7500000000000284
 30
0.0
 11
172.1999999999999602
 21
151.7499999999999716
 31
0.0
  0
LINE
  5
297
100
AcDbEntity
100
AcDbLine
  8
Otwor
 62
256
370
-1
  6
ByLayer
 10
173.3999999999999773
 20
151.75
 30
0.0
 11
185.3999999999999773
 21
151.7499999999999432
 31
0.0
  0
LINE
  5
298
100
AcDbEntity
100
AcDbLine
  8
Otwor
 62
256
370
-1
  6
ByLayer
 10
186.5999999999999659
 20
145.2499999999999716
 30
0.0
 11
186.5999999999999659
 21
151.75
 31
0.0
  0
LINE
  5
299
100
AcDbEntity
100
AcDbLine
  8
Otwor
 62
256
370
-1
  6
ByLayer
 10
198.5999999999999659
 20
145.2499999999999432
 30
0.0
 11
198.5999999999999659
 21
151.7499999999999432
 31
0.0
  0
LINE
  5
29A
100
AcDbEntity
100
AcDbLine
  8
Otwor
 62
256
370
-1
  6
ByLayer
 10
198.5999999999999659
 20
145.2499999999999432
 30
0.0
 11
186.5999999999999659
 21
145.2499999999999716
 31
0.0
  0
LINE
  5
29B
100
AcDbEntity
100
AcDbLine
  8
Otwor
 62
256
370
-1
  6
ByLayer
 10
186.5999999999999659
 20
151.75
 30
0.0
 11
198.5999999999999659
 21
151.7499999999999432
 31
0.0
  0
LINE
  5
29C
100
AcDbEntity
100
AcDbLine
  8
Otwor
 62
256
370
-1
  6
ByLayer
 10
158.9999999999999432
 20
151.75
 30
0.0
 11
146.9999999999999432
 21
151.7499999999999716
 31
0.0
  0
LINE
  5
29D
100
AcDbEntity
100
AcDbLine
  8
Otwor
 62
256
370
-1
  6
ByLayer
 10
145.7999999999999545
 20
151.75
 30
0.0
 11
133.7999999999999545
 21
151.75
 31
0.0
  0
LINE
  5
29E
100
AcDbEntity
100
AcDbLine
  8
Otwor
 62
256
370
-1
  6
ByLayer
 10
146.9999999999999432
 20
110.0000000000000284
 30
0.0
 11
146.9999999999999432
 21
106.7499999999999716
 31
0.0
  0
LINE
  5
29F
100
AcDbEntity
100
AcDbLine
  8
Otwor
 62
256
370
-1
  6
ByLayer
 10
146.9999999999999432
 20
110.0000000000000284
 30
0.0
 11
151.5091341318492937
 21
113.2500000000000142
 31
0.0
  0
LINE
  5
2A0
100
AcDbEntity
100
AcDbLine
  8
Otwor
 62
256
370
-1
  6
ByLayer
 10
165.5999999999999375
 20
113.25
 30
0.0
 11
151.5091341318492937
 21
113.2500000000000142
 31
0.0
  0
LINE
  5
2A1
100
AcDbEntity
100
AcDbLine
  8
Otwor
 62
256
370
-1
  6
ByLayer
 10
158.9999999999999432
 20
114.4500000000000881
 30
0.0
 11
152.1163526532979517
 21
114.4500000000000455
 31
0.0
  0
LINE
  5
2A2
100
AcDbEntity
100
AcDbLine
  8
Otwor
 62
256
370
-1
  6
ByLayer
 10
154.2409304515003896
 20
120.949999999999477
 30
0.0
 11
152.1163526532979517
 21
114.4500000000000455
 31
0.0
  0
LINE
  5
2A3
100
AcDbEntity
100
AcDbLine
  8
Otwor
 62
256
370
-1
  6
ByLayer
 10
154.2409304515003896
 20
120.949999999999477
 30
0.0
 11
158.9999999999999432
 21
120.949999999999477
 31
0.0
  0
LINE
  5
2A4
100
AcDbEntity
100
AcDbLine
  8
Otwor
 62
256
370
-1
  6
ByLayer
 10
158.9999999999999432
 20
114.4500000000000881
 30
0.0
 11
158.9999999999999432
 21
120.949999999999477
 31
0.0
  0
LINE
  5
2A5
100
AcDbEntity
100
AcDbLine
  8
Otwor
 62
256
370
-1
  6
ByLayer
 10
165.5999999999999375
 20
122.1500000000010004
 30
0.0
 11
154.6331601988611339
 21
122.1500000000002899
 31
0.0
  0
LINE
  5
2A6
100
AcDbEntity
100
AcDbLine
  8
Otwor
 62
256
370
-1
  6
ByLayer
 10
156.7577379970636571
 20
128.6499999999999773
 30
0.0
 11
154.6331601988611339
 21
122.1500000000002899
 31
0.0
  0
LINE
  5
2A7
100
AcDbEntity
100
AcDbLine
  8
Otwor
 62
256
370
-1
  6
ByLayer
 10
165.5999999999999659
 20
128.6499999999999773
 30
0.0
 11
156.7577379970636571
 21
128.6499999999999773
 31
0.0
  0
LINE
  5
2A8
100
AcDbEntity
100
AcDbLine
  8
Otwor
 62
256
370
-1
  6
ByLayer
 10
127.5999999999999517
 20
144.0499999999999261
 30
0.0
 11
152.5999999999999659
 21
144.0499999999999261
 31
0.0
  0
LINE
  5
2A9
100
AcDbEntity
100
AcDbLine
  8
Otwor
 62
256
370
-1
  6
ByLayer
 10
120.5999999999999517
 20
151.75
 30
0.0
 11
132.5999999999999659
 21
151.75
 31
0.0
  0
LINE
  5
2AA
100
AcDbEntity
100
AcDbLine
  8
Otwor
 62
256
370
-1
  6
ByLayer
 10
158.9999999999999432
 20
145.25
 30
0.0
 11
146.9999999999999432
 21
145.2499999999999716
 31
0.0
  0
LINE
  5
2AB
100
AcDbEntity
100
AcDbLine
  8
Otwor
 62
256
370
-1
  6
ByLayer
 10
146.9999999999999432
 20
145.2499999999999716
 30
0.0
 11
146.9999999999999432
 21
151.7499999999999716
 31
0.0
  0
LINE
  5
2AC
100
AcDbEntity
100
AcDbLine
  8
Otwor
 62
256
370
-1
  6
ByLayer
 10
178.7999999999999545
 20
144.0499999999999261
 30
0.0
 11
153.7999999999999545
 21
144.0499999999999261
 31
0.0
  0
LINE
  5
2AD
100
AcDbEntity
100
AcDbLine
  8
Otwor
 62
256
370
-1
  6
ByLayer
 10
153.7999999999999545
 20
137.5499999999999261
 30
0.0
 11
153.7999999999999545
 21
144.0499999999999261
 31
0.0
  0
LINE
  5
2AE
100
AcDbEntity
100
AcDbLine
  8
Otwor
 62
256
370
-1
  6
ByLayer
 10
178.7999999999999545
 20
137.5499999999999545
 30
0.0
 11
153.7999999999999545
 21
137.5499999999999261
 31
0.0
  0
LINE
  5
2AF
100
AcDbEntity
100
AcDbLine
  8
Otwor
 62
256
370
-1
  6
ByLayer
 10
145.7999999999999545
 20
145.2499999999999716
 30
0.0
 11
145.7999999999999545
 21
151.75
 31
0.0
  0
LINE
  5
2B0
100
AcDbEntity
100
AcDbLine
  8
Otwor
 62
256
370
-1
  6
ByLayer
 10
133.7999999999999545
 20
145.2499999999999432
 30
0.0
 11
133.7999999999999545
 21
151.75
 31
0.0
  0
LINE
  5
2B1
100
AcDbEntity
100
AcDbLine
  8
Otwor
 62
256
370
-1
  6
ByLayer
 10
132.5999999999999659
 20
145.2499999999999432
 30
0.0
 11
132.5999999999999659
 21
151.75
 31
0.0
  0
LINE
  5
2B2
100
AcDbEntity
100
AcDbLine
  8
Otwor
 62
256
370
-1
  6
ByLayer
 10
120.5999999999999517
 20
145.2499999999999147
 30
0.0
 11
120.5999999999999517
 21
151.75
 31
0.0
  0
LINE
  5
2B3
100
AcDbEntity
100
AcDbLine
  8
Otwor
 62
256
370
-1
  6
ByLayer
 10
119.3999999999999488
 20
145.2499999999999147
 30
0.0
 11
119.3999999999999488
 21
151.75
 31
0.0
  0
LINE
  5
2B4
100
AcDbEntity
100
AcDbLine
  8
Otwor
 62
256
370
-1
  6
ByLayer
 10
107.3999999999999488
 20
151.75
 30
0.0
 11
119.3999999999999488
 21
151.75
 31
0.0
  0
LINE
  5
2B5
100
AcDbEntity
100
AcDbLine
  8
Otwor
 62
256
370
-1
  6
ByLayer
 10
119.3999999999999488
 20
151.75
 30
0.0
 11
119.3999999999999488
 21
145.2499999999999147
 31
0.0
  0
LINE
  5
2B6
100
AcDbEntity
100
AcDbLine
  8
Otwor
 62
256
370
-1
  6
ByLayer
 10
120.5999999999999517
 20
145.2499999999999147
 30
0.0
 11
132.5999999999999659
 21
145.2499999999999432
 31
0.0
  0
LINE
  5
2B7
100
AcDbEntity
100
AcDbLine
  8
Otwor
 62
256
370
-1
  6
ByLayer
 10
133.7999999999999545
 20
145.2499999999999432
 30
0.0
 11
145.7999999999999545
 21
145.2499999999999716
 31
0.0
  0
LINE
  5
2B8
100
AcDbEntity
100
AcDbLine
  8
Otwor
 62
256
370
-1
  6
ByLayer
 10
152.5999999999999659
 20
137.5499999999999545
 30
0.0
 11
152.5999999999999659
 21
144.0499999999999261
 31
0.0
  0
LINE
  5
2B9
100
AcDbEntity
100
AcDbLine
  8
Otwor
 62
256
370
-1
  6
ByLayer
 10
172.1999999999999602
 20
136.3500000000000227
 30
0.0
 11
159.2745455426268109
 21
136.3500000000000227
 31
0.0
  0
LINE
  5
2BA
100
AcDbEntity
100
AcDbLine
  8
Otwor
 62
256
370
-1
  6
ByLayer
 10
159.2745455426268109
 20
136.3500000000000227
 30
0.0
 11
157.149967744424174
 21
129.8500000000000227
 31
0.0
  0
LINE
  5
2BB
100
AcDbEntity
100
AcDbLine
  8
Otwor
 62
256
370
-1
  6
ByLayer
 10
172.1999999999999602
 20
129.8499999999999943
 30
0.0
 11
157.149967744424174
 21
129.8500000000000227
 31
0.0
  0
LINE
  5
2BC
100
AcDbEntity
100
AcDbLine
  8
Otwor wym.
 62
256
370
-1
  6
ByLayer
 10
66.9999999999999432
 20
-110.4999999999999716
 30
0.0
 11
79.9999999999999432
 21
-110.4999999999999716
 31
0.0
  0
LINE
  5
2BD
100
AcDbEntity
100
AcDbLine
  8
Otwor wym.
 62
256
370
-1
  6
ByLayer
 10
73.4999999999999432
 20
-116.9999999999999716
 30
0.0
 11
73.4999999999999432
 21
-103.9999999999999716
 31
0.0
  0
LINE
  5
2BE
100
AcDbEntity
100
AcDbLine
  8
Otwor
 62
256
370
-1
  6
ByLayer
 10
70.2499999999999432
 20
122.6310928859130343
 30
0.0
 11
70.2499999999999432
 21
147.6310928859130343
 31
0.0
  0
LINE
  5
2BF
100
AcDbEntity
100
AcDbLine
  8
Otwor
 62
256
370
-1
  6
ByLayer
 10
76.7499999999999432
 20
122.6310928859130343
 30
0.0
 11
76.7499999999999432
 21
147.6310928859130343
 31
0.0
  0
LINE
  5
2C0
100
AcDbEntity
100
AcDbLine
  8
Otwor
 62
256
370
-1
  6
ByLayer
 10
61.9460875362732537
 20
122.367292845003746
 30
0.0
 11
60.3592808399576839
 21
147.3168829119472889
 31
0.0
  0
LINE
  5
2C1
100
AcDbEntity
100
AcDbLine
  8
Otwor
 62
256
370
-1
  6
ByLayer
 10
55.4591941188679272
 20
121.9547231039617117
 30
0.0
 11
53.8723874225523574
 21
146.9043131709052545
 31
0.0
  0
LINE
  5
2C2
100
AcDbEntity
100
AcDbLine
  8
Otwor
 62
256
370
-1
  6
ByLayer
 10
47.188769628853386
 20
121.1643868326261497
 30
0.0
 11
44.021555501769015
 21
145.9629503933084038
 31
0.0
  0
LINE
  5
2C3
100
AcDbEntity
100
AcDbLine
  8
Otwor
 62
256
370
-1
  6
ByLayer
 10
40.7411431030760056
 20
120.3409111595842091
 30
0.0
 11
37.5739289759916346
 21
145.1394747202664917
 31
0.0
  0
LINE
  5
2C4
100
AcDbEntity
100
AcDbLine
  8
Otwor
 62
256
370
-1
  6
ByLayer
 10
32.5375595103649147
 20
119.027225921704769
 30
0.0
 11
27.8027106766814853
 21
143.5747554618065465
 31
0.0
  0
LINE
  5
2C5
100
AcDbEntity
100
AcDbLine
  8
Otwor
 62
256
370
-1
  6
ByLayer
 10
26.1552018299384628
 20
117.7961652249470887
 30
0.0
 11
21.4203529962550334
 21
142.3436947650488378
 31
0.0
  0
LINE
  5
2C6
100
AcDbEntity
100
AcDbLine
  8
Otwor
 62
256
370
-1
  6
ByLayer
 10
18.0515425025094096
 20
115.9644288433156589
 30
0.0
 11
11.7681536352459979
 21
140.1619292171714903
 31
0.0
  0
LINE
  5
2C7
100
AcDbEntity
100
AcDbLine
  8
Otwor
 62
256
370
-1
  6
ByLayer
 10
11.7601924053069062
 20
114.3307477378271813
 30
0.0
 11
5.4768035380434945
 21
138.5282481116829842
 31
0.0
  0
LINE
  5
2C8
100
AcDbEntity
100
AcDbLine
  8
Otwor
 62
256
370
-1
  6
ByLayer
 10
-4.0174515467736533
 20
135.7382348868052304
 30
0.0
 11
3.7891377370964068
 21
111.9883472291137991
 31
0.0
  0
LINE
  5
2C9
100
AcDbEntity
100
AcDbLine
  8
Otwor
 62
256
370
-1
  6
ByLayer
 10
-10.1924223377734329
 20
133.7085216729990407
 30
0.0
 11
-4.0174515467736533
 21
135.7382348868052304
 31
0.0
  0
LINE
  5
2CA
100
AcDbEntity
100
AcDbLine
  8
Otwor
 62
256
370
-1
  6
ByLayer
 10
-2.3960782101564075
 20
136.2427991386854842
 30
0.0
 11
3.8402267438697959
 21
138.0754203544276493
 31
0.0
  0
LINE
  5
2CB
100
AcDbEntity
100
AcDbLine
  8
Otwor
 62
256
370
-1
  6
ByLayer
 10
5.4768035380434945
 20
138.5282481116829842
 30
0.0
 11
11.7681536352459979
 21
140.1619292171714903
 31
0.0
  0
LINE
  5
2CC
100
AcDbEntity
100
AcDbLine
  8
Otwor
 62
256
370
-1
  6
ByLayer
 10
13.4182834763530536
 20
140.5625638243344326
 30
0.0
 11
19.7583341864471578
 21
141.9956573291118787
 31
0.0
  0
LINE
  5
2CD
100
AcDbEntity
100
AcDbLine
  8
Otwor
 62
256
370
-1
  6
ByLayer
 10
21.4203529962550334
 20
142.3436947650488378
 30
0.0
 11
27.8027106766814853
 21
143.5747554618065465
 31
0.0
  0
LINE
  5
2CE
100
AcDbEntity
100
AcDbLine
  8
Otwor
 62
256
370
-1
  6
ByLayer
 10
29.4749423874924794
 20
143.8698447471540476
 30
0.0
 11
35.8931707311048598
 21
144.897631169155602
 31
0.0
  0
LINE
  5
2CF
100
AcDbEntity
100
AcDbLine
  8
Otwor
 62
256
370
-1
  6
ByLayer
 10
37.5739289759916346
 20
145.1394747202664917
 30
0.0
 11
44.021555501769015
 21
145.9629503933084038
 31
0.0
  0
LINE
  5
2D0
100
AcDbEntity
100
AcDbLine
  8
Otwor
 62
256
370
-1
  6
ByLayer
 10
45.7091453151961531
 20
146.1513043223508816
 30
0.0
 11
52.1796678954354007
 21
146.7696388099981846
 31
0.0
  0
LINE
  5
2D1
100
AcDbEntity
100
AcDbLine
  8
Otwor
 62
256
370
-1
  6
ByLayer
 10
53.8723874225523574
 20
146.9043131709052545
 30
0.0
 11
60.3592808399576839
 21
147.3168829119472889
 31
0.0
  0
LINE
  5
2D2
100
AcDbEntity
100
AcDbLine
  8
Otwor
 62
256
370
-1
  6
ByLayer
 10
62.055423052839167
 20
147.3977418919684226
 30
0.0
 11
68.5521455808964788
 21
147.6041308292511474
 31
0.0
  0
LINE
  5
2D3
100
AcDbEntity
100
AcDbLine
  8
Otwor
 62
256
370
-1
  6
ByLayer
 10
70.2499999999999432
 20
147.6310928859130343
 30
0.0
 11
76.7499999999999432
 21
147.6310928859130343
 31
0.0
  0
LINE
  5
2D4
100
AcDbEntity
100
AcDbLine
  8
Otwor
 62
256
370
-1
  6
ByLayer
 10
0.7016523415965258
 20
110.9734906222106758
 30
0.0
 11
3.7891377370964068
 21
111.9883472291137991
 31
0.0
  0
LINE
  5
2D5
100
AcDbEntity
100
AcDbLine
  8
Otwor
 62
256
370
-1
  6
ByLayer
 10
4.6524649273134138
 20
112.257010853969291
 30
0.0
 11
10.8887698813396163
 21
114.0896320697114277
 31
0.0
  0
LINE
  5
2D6
100
AcDbEntity
100
AcDbLine
  8
Otwor
 62
256
370
-1
  6
ByLayer
 10
11.7601924053069062
 20
114.3307477378271813
 30
0.0
 11
18.0515425025094096
 21
115.9644288433156589
 31
0.0
  0
LINE
  5
2D7
100
AcDbEntity
100
AcDbLine
  8
Otwor
 62
256
370
-1
  6
ByLayer
 10
18.9301815716508344
 20
116.1777534008955399
 30
0.0
 11
25.2702322817449385
 21
117.6108469056729575
 31
0.0
  0
LINE
  5
2D8
100
AcDbEntity
100
AcDbLine
  8
Otwor
 62
256
370
-1
  6
ByLayer
 10
26.1552018299384628
 20
117.7961652249470887
 30
0.0
 11
32.5375595103649147
 21
119.027225921704769
 31
0.0
  0
LINE
  5
2D9
100
AcDbEntity
100
AcDbLine
  8
Otwor
 62
256
370
-1
  6
ByLayer
 10
33.4279670874983807
 20
119.1843511178756785
 30
0.0
 11
39.8461954311107647
 21
120.2121375398772045
 31
0.0
  0
LINE
  5
2DA
100
AcDbEntity
100
AcDbLine
  8
Otwor
 62
256
370
-1
  6
ByLayer
 10
40.7411431030760056
 20
120.3409111595842091
 30
0.0
 11
47.188769628853386
 21
121.1643868326261497
 31
0.0
  0
LINE
  5
2DB
100
AcDbEntity
100
AcDbLine
  8
Otwor
 62
256
370
-1
  6
ByLayer
 10
48.0873548830703612
 20
121.2646790137383874
 30
0.0
 11
54.5578774633096089
 21
121.8830135013856903
 31
0.0
  0
LINE
  5
2DC
100
AcDbEntity
100
AcDbLine
  8
Otwor
 62
256
370
-1
  6
ByLayer
 10
55.4591941188679272
 20
121.9547231039617117
 30
0.0
 11
61.9460875362732537
 21
122.367292845003746
 31
0.0
  0
LINE
  5
2DD
100
AcDbEntity
100
AcDbLine
  8
Otwor
 62
256
370
-1
  6
ByLayer
 10
62.8492266577728245
 20
122.4103475532864707
 30
0.0
 11
69.3459491858301362
 21
122.6167364905692239
 31
0.0
  0
LINE
  5
2DE
100
AcDbEntity
100
AcDbLine
  8
Otwor
 62
256
370
-1
  6
ByLayer
 10
70.2499999999999432
 20
122.6310928859130343
 30
0.0
 11
76.7499999999999432
 21
122.6310928859130343
 31
0.0
  0
LINE
  5
2DF
100
AcDbEntity
100
AcDbLine
  8
Otwor
 62
256
370
-1
  6
ByLayer
 10
0.7016523415965258
 20
110.9734906222106758
 30
0.0
 11
-3.7815474372921418
 21
114.2047981981982758
 31
0.0
  0
LINE
  5
2E0
100
AcDbEntity
100
AcDbLine
  8
Otwor
 62
256
370
-1
  6
ByLayer
 10
-10.1924223377734329
 20
133.7085216729990407
 30
0.0
 11
-3.7815474372921418
 21
114.2047981981982758
 31
0.0
  0
LINE
  5
2E1
100
AcDbEntity
100
AcDbLine
  8
Otwor
 62
256
370
-1
  6
ByLayer
 10
85.0539124637266468
 20
122.3672928450037602
 30
0.0
 11
86.6407191600422095
 21
147.3168829119472889
 31
0.0
  0
LINE
  5
2E2
100
AcDbEntity
100
AcDbLine
  8
Otwor
 62
256
370
-1
  6
ByLayer
 10
91.5408058811319734
 20
121.9547231039617259
 30
0.0
 11
93.1276125774475361
 21
146.9043131709052545
 31
0.0
  0
LINE
  5
2E3
100
AcDbEntity
100
AcDbLine
  8
Otwor
 62
256
370
-1
  6
ByLayer
 10
99.8112303711464932
 20
121.1643868326261497
 30
0.0
 11
102.9784444982308713
 21
145.9629503933084038
 31
0.0
  0
LINE
  5
2E4
100
AcDbEntity
100
AcDbLine
  8
Otwor
 62
256
370
-1
  6
ByLayer
 10
106.2588568969238736
 20
120.3409111595842091
 30
0.0
 11
109.4260710240082517
 21
145.1394747202664348
 31
0.0
  0
LINE
  5
2E5
100
AcDbEntity
100
AcDbLine
  8
Otwor
 62
256
370
-1
  6
ByLayer
 10
114.4624404896349574
 20
119.027225921704769
 30
0.0
 11
119.197289323318401
 21
143.5747554618066033
 31
0.0
  0
LINE
  5
2E6
100
AcDbEntity
100
AcDbLine
  8
Otwor
 62
256
370
-1
  6
ByLayer
 10
120.8447981700614093
 20
117.7961652249470603
 30
0.0
 11
125.5796470037448529
 21
142.3436947650487241
 31
0.0
  0
LINE
  5
2E7
100
AcDbEntity
100
AcDbLine
  8
Otwor
 62
256
370
-1
  6
ByLayer
 10
128.948457497490466
 20
115.9644288433156305
 30
0.0
 11
135.231846364753892
 21
140.1619292171714335
 31
0.0
  0
LINE
  5
2E8
100
AcDbEntity
100
AcDbLine
  8
Otwor
 62
256
370
-1
  6
ByLayer
 10
135.2398075946929623
 20
114.3307477378271528
 30
0.0
 11
141.5231964619563882
 21
138.5282481116829842
 31
0.0
  0
LINE
  5
2E9
100
AcDbEntity
100
AcDbLine
  8
Otwor
 62
256
370
-1
  6
ByLayer
 10
151.0174515467735432
 20
135.7382348868053157
 30
0.0
 11
143.2108622629034755
 21
111.9883472291137849
 31
0.0
  0
LINE
  5
2EA
100
AcDbEntity
100
AcDbLine
  8
Otwor
 62
256
370
-1
  6
ByLayer
 10
157.1924223377733369
 20
133.7085216729990407
 30
0.0
 11
151.0174515467735432
 21
135.7382348868053157
 31
0.0
  0
LINE
  5
2EB
100
AcDbEntity
100
AcDbLine
  8
Otwor
 62
256
370
-1
  6
ByLayer
 10
149.3960782101563041
 20
136.242799138685541
 30
0.0
 11
143.1597732561301086
 21
138.0754203544276493
 31
0.0
  0
LINE
  5
2EC
100
AcDbEntity
100
AcDbLine
  8
Otwor
 62
256
370
-1
  6
ByLayer
 10
141.5231964619563882
 20
138.5282481116829842
 30
0.0
 11
135.231846364753892
 21
140.1619292171714335
 31
0.0
  0
LINE
  5
2ED
100
AcDbEntity
100
AcDbLine
  8
Otwor
 62
256
370
-1
  6
ByLayer
 10
133.5817165236468327
 20
140.5625638243345463
 30
0.0
 11
127.2416658135527285
 21
141.9956573291119923
 31
0.0
  0
LINE
  5
2EE
100
AcDbEntity
100
AcDbLine
  8
Otwor
 62
256
370
-1
  6
ByLayer
 10
125.5796470037448529
 20
142.3436947650487241
 30
0.0
 11
119.197289323318401
 21
143.5747554618066033
 31
0.0
  0
LINE
  5
2EF
100
AcDbEntity
100
AcDbLine
  8
Otwor
 62
256
370
-1
  6
ByLayer
 10
117.5250576125074105
 20
143.8698447471540192
 30
0.0
 11
111.1068292688950265
 21
144.8976311691555452
 31
0.0
  0
LINE
  5
2F0
100
AcDbEntity
100
AcDbLine
  8
Otwor
 62
256
370
-1
  6
ByLayer
 10
109.4260710240082517
 20
145.1394747202664348
 30
0.0
 11
102.9784444982308713
 21
145.9629503933084038
 31
0.0
  0
LINE
  5
2F1
100
AcDbEntity
100
AcDbLine
  8
Otwor
 62
256
370
-1
  6
ByLayer
 10
101.2908546848037332
 20
146.1513043223508816
 30
0.0
 11
94.8203321045644856
 21
146.7696388099981561
 31
0.0
  0
LINE
  5
2F2
100
AcDbEntity
100
AcDbLine
  8
Otwor
 62
256
370
-1
  6
ByLayer
 10
93.1276125774475361
 20
146.9043131709052545
 30
0.0
 11
86.6407191600422095
 21
147.3168829119472889
 31
0.0
  0
LINE
  5
2F3
100
AcDbEntity
100
AcDbLine
  8
Otwor
 62
256
370
-1
  6
ByLayer
 10
84.9445769471607264
 20
147.3977418919684226
 30
0.0
 11
78.4478544191034075
 21
147.6041308292511474
 31
0.0
  0
LINE
  5
2F4
100
AcDbEntity
100
AcDbLine
  8
Otwor
 62
256
370
-1
  6
ByLayer
 10
146.2983476584033724
 20
110.9734906222107327
 30
0.0
 11
143.2108622629034755
 21
111.9883472291137849
 31
0.0
  0
LINE
  5
2F5
100
AcDbEntity
100
AcDbLine
  8
Otwor
 62
256
370
-1
  6
ByLayer
 10
142.347535072686469
 20
112.2570108539692626
 30
0.0
 11
136.1112301186602735
 21
114.0896320697113993
 31
0.0
  0
LINE
  5
2F6
100
AcDbEntity
100
AcDbLine
  8
Otwor
 62
256
370
-1
  6
ByLayer
 10
135.2398075946929623
 20
114.3307477378271528
 30
0.0
 11
128.948457497490466
 21
115.9644288433156305
 31
0.0
  0
LINE
  5
2F7
100
AcDbEntity
100
AcDbLine
  8
Otwor
 62
256
370
-1
  6
ByLayer
 10
128.0698184283490377
 20
116.1777534008955399
 30
0.0
 11
121.7297677182549478
 21
117.6108469056729575
 31
0.0
  0
LINE
  5
2F8
100
AcDbEntity
100
AcDbLine
  8
Otwor
 62
256
370
-1
  6
ByLayer
 10
120.8447981700614093
 20
117.7961652249470603
 30
0.0
 11
114.4624404896349574
 21
119.027225921704769
 31
0.0
  0
LINE
  5
2F9
100
AcDbEntity
100
AcDbLine
  8
Otwor
 62
256
370
-1
  6
ByLayer
 10
113.5720329125014985
 20
119.1843511178756643
 30
0.0
 11
107.1538045688891145
 21
120.2121375398771761
 31
0.0
  0
LINE
  5
2FA
100
AcDbEntity
100
AcDbLine
  8
Otwor
 62
256
370
-1
  6
ByLayer
 10
106.2588568969238736
 20
120.3409111595842091
 30
0.0
 11
99.8112303711464932
 21
121.1643868326261497
 31
0.0
  0
LINE
  5
2FB
100
AcDbEntity
100
AcDbLine
  8
Otwor
 62
256
370
-1
  6
ByLayer
 10
98.9126451169295109
 20
121.2646790137383732
 30
0.0
 11
92.4421225366902775
 21
121.8830135013856903
 31
0.0
  0
LINE
  5
2FC
100
AcDbEntity
100
AcDbLine
  8
Otwor
 62
256
370
-1
  6
ByLayer
 10
91.5408058811319734
 20
121.9547231039617259
 30
0.0
 11
85.0539124637266468
 21
122.3672928450037602
 31
0.0
  0
LINE
  5
2FD
100
AcDbEntity
100
AcDbLine
  8
Otwor
 62
256
370
-1
  6
ByLayer
 10
84.1507733422270547
 20
122.4103475532864707
 30
0.0
 11
77.6540508141697501
 21
122.6167364905692239
 31
0.0
  0
LINE
  5
2FE
100
AcDbEntity
100
AcDbLine
  8
Otwor
 62
256
370
-1
  6
ByLayer
 10
146.2983476584033724
 20
110.9734906222107327
 30
0.0
 11
150.7815474372920335
 21
114.2047981981982332
 31
0.0
  0
LINE
  5
2FF
100
AcDbEntity
100
AcDbLine
  8
Otwor
 62
256
370
-1
  6
ByLayer
 10
157.1924223377733369
 20
133.7085216729990407
 30
0.0
 11
150.7815474372920335
 21
114.2047981981982332
 31
0.0
  0
LINE
  5
300
100
AcDbEntity
100
AcDbLine
  8
Otwor
 62
256
370
-1
  6
ByLayer
 10
107.3999999999999488
 20
146.607987228283406
 30
0.0
 11
107.3999999999999488
 21
151.75
 31
0.0
  0
LINE
  5
301
100
AcDbEntity
100
AcDbLine
  8
Otwor
 62
256
370
-1
  6
ByLayer
 10
110.4392992186659228
 20
146.2198150908835714
 30
0.0
 11
107.3999999999999488
 21
146.607987228283406
 31
0.0
  0
LINE
  5
302
100
AcDbEntity
100
AcDbLine
  8
Otwor
 62
256
370
-1
  6
ByLayer
 10
116.4955134000625776
 20
145.2499999999999147
 30
0.0
 11
110.4392992186659228
 21
146.2198150908835714
 31
0.0
  0
LINE
  5
303
100
AcDbEntity
100
AcDbLine
  8
Otwor
 62
256
370
-1
  6
ByLayer
 10
119.3999999999999488
 20
145.2499999999999147
 30
0.0
 11
116.4955134000625776
 21
145.2499999999999147
 31
0.0
  0
LINE
  5
304
100
AcDbEntity
100
AcDbLine
  8
Otwor
 62
256
370
-1
  6
ByLayer
 10
33.8000000000000114
 20
145.8672248896851897
 30
0.0
 11
33.8000000000000114
 21
151.75
 31
0.0
  0
LINE
  5
305
100
AcDbEntity
100
AcDbLine
  8
Otwor
 62
256
370
-1
  6
ByLayer
 10
33.8000000000000114
 20
145.8672248896851897
 30
0.0
 11
44.730731140226105
 21
147.2632721245167033
 31
0.0
  0
LINE
  5
306
100
AcDbEntity
100
AcDbLine
  8
Otwor
 62
256
370
-1
  6
ByLayer
 10
44.730731140226105
 20
147.2632721245167033
 30
0.0
 11
52.9297739518887198
 21
148.0467870374590689
 31
0.0
  0
LINE
  5
307
100
AcDbEntity
100
AcDbLine
  8
Otwor
 62
256
370
-1
  6
ByLayer
 10
58.8000000000000114
 20
148.4201364182318912
 30
0.0
 11
58.8000000000000114
 21
151.75
 31
0.0
  0
LINE
  5
308
100
AcDbEntity
100
AcDbLine
  8
Otwor
 62
256
370
-1
  6
ByLayer
 10
52.9297739518887198
 20
148.0467870374590689
 30
0.0
 11
58.8000000000000114
 21
148.4201364182318912
 31
0.0
  0
LINE
  5
309
100
AcDbEntity
100
AcDbLine
  8
Krazyna
 62
5
370
13
  6
ByLayer
 10
0.2000000000000068
 20
100.0
 30
0.0
 11
0.2000000000000068
 21
110.8079674801163037
 31
0.0
  0
ARC
  5
30A
100
AcDbEntity
  8
Krazyna
 62
256
370
-1
  6
ByLayer
100
AcDbCircle
 10
73.4999999999999432
 20
-110.4999999999999716
 30
0.0
 40
233.1310928859130058
100
AcDbArc
 50
71.6744758660435934
 51
108.3255241339563781
  0
LINE
  5
30B
100
AcDbEntity
100
AcDbLine
  8
Krazyna
 62
5
370
13
  6
ByLayer
 10
146.7999999999999545
 20
110.8079674801162895
 30
0.0
 11
146.7999999999999545
 21
100.0
 31
0.0
  0
LINE
  5
30C
100
AcDbEntity
100
AcDbLine
  8
Krazyna
 62
5
370
13
  6
ByLayer
 10
0.2000000000000068
 20
100.0
 30
0.0
 11
146.7999999999999545
 21
100.0
 31
0.0
  0
LINE
  5
30D
100
AcDbEntity
100
AcDbLine
  8
Otwor
 62
256
370
13
  6
ByLayer
 10
60.0000000000000142
 20
151.75
 30
0.0
 11
85.0000000000000142
 21
151.75
 31
0.0
  0
LINE
  5
30E
100
AcDbEntity
100
AcDbLine
  8
Otwor
 62
256
370
-1
  6
ByLayer
 10
127.5999999999999517
 20
143.1449341942420688
 30
0.0
 11
127.5999999999999517
 21
144.0499999999999261
 31
0.0
  0
LINE
  5
30F
100
AcDbEntity
100
AcDbLine
  8
Otwor
 62
256
370
-1
  6
ByLayer
 10
134.693120773184063
 20
141.5416181052290767
 30
0.0
 11
127.5999999999999517
 21
143.1449341942420688
 31
0.0
  0
LINE
  5
310
100
AcDbEntity
100
AcDbLine
  8
Otwor
 62
256
370
-1
  6
ByLayer
 10
142.6651273847791401
 20
139.47151925951664
 30
0.0
 11
134.693120773184063
 21
141.5416181052290767
 31
0.0
  0
LINE
  5
311
100
AcDbEntity
100
AcDbLine
  8
Otwor
 62
256
370
-1
  6
ByLayer
 10
149.2039472862654748
 20
137.5499999999999545
 30
0.0
 11
152.5999999999999659
 21
137.5499999999999545
 31
0.0
  0
LINE
  5
312
100
AcDbEntity
100
AcDbLine
  8
Otwor
 62
256
370
-1
  6
ByLayer
 10
149.2039472862654748
 20
137.5499999999999545
 30
0.0
 11
142.6651273847791401
 21
139.47151925951664
 31
0.0
  0
LINE
  5
313
100
AcDbEntity
100
AcDbLine
  8
Otwor
 62
256
370
13
  6
ByLayer
 10
85.0000000000000142
 20
148.5965865804074326
 30
0.0
 11
85.0000000000000142
 21
151.75
 31
0.0
  0
LINE
  5
314
100
AcDbEntity
100
AcDbLine
  8
Otwor
 62
256
370
-1
  6
ByLayer
 10
85.0000000000000142
 20
148.5965865804074326
 30
0.0
 11
77.6181973801113259
 21
148.8310928859130229
 31
0.0
  0
LINE
  5
315
100
AcDbEntity
100
AcDbLine
  8
Otwor
 62
256
370
-1
  6
ByLayer
 10
69.3818026198885605
 20
148.8310928859130229
 30
0.0
 11
77.6181973801113259
 21
148.8310928859130229
 31
0.0
  0
LINE
  5
316
100
AcDbEntity
100
AcDbLine
  8
Otwor
 62
256
370
13
  6
ByLayer
 10
60.0000000000000142
 20
148.5330502553169367
 30
0.0
 11
60.0000000000000142
 21
151.75
 31
0.0
  0
LINE
  5
317
100
AcDbEntity
100
AcDbLine
  8
Otwor
 62
256
370
-1
  6
ByLayer
 10
60.0000000000000142
 20
148.5330502553169367
 30
0.0
 11
69.3818026198885605
 21
148.8310928859130229
 31
0.0
  0
LINE
  5
318
100
AcDbEntity
100
AcDbLine
  8
Otwor
 62
256
370
-1
  6
ByLayer
 10
0.0
 20
0.0
 30
0.0
 11
0.0
 21
0.0
 31
0.0
  0
LINE
  5
319
100
AcDbEntity
100
AcDbLine
  8
Otwor
 62
256
370
-1
  6
ByLayer
 10
94.199999999999946
 20
151.75
 30
0.0
 11
106.199999999999946
 21
151.75
 31
0.0
  0
LINE
  5
31A
100
AcDbEntity
100
AcDbLine
  8
Otwor
 62
256
370
-1
  6
ByLayer
 10
94.199999999999946
 20
148.0343856109813316
 30
0.0
 11
94.199999999999946
 21
151.75
 31
0.0
  0
LINE
  5
31B
100
AcDbEntity
100
AcDbLine
  8
Otwor
 62
256
370
-1
  6
ByLayer
 10
106.199999999999946
 20
146.7612484017865313
 30
0.0
 11
106.199999999999946
 21
151.75
 31
0.0
  0
LINE
  5
31C
100
AcDbEntity
100
AcDbLine
  8
Otwor
 62
256
370
-1
  6
ByLayer
 10
102.2692688597737884
 20
147.2632721245167033
 30
0.0
 11
94.199999999999946
 21
148.0343856109813316
 31
0.0
  0
LINE
  5
31D
100
AcDbEntity
100
AcDbLine
  8
Otwor
 62
256
370
-1
  6
ByLayer
 10
106.199999999999946
 20
146.7612484017865313
 30
0.0
 11
102.2692688597737884
 21
147.2632721245167033
 31
0.0
  0
LINE
  5
31E
100
AcDbEntity
100
AcDbLine
  8
Krazyna
 62
256
370
-1
  6
ByLayer
 10
139.0066742631804857
 20
100.0
 30
0.0
 11
142.7725979465712385
 21
112.101468198017244
 31
0.0
  0
LINE
  5
31F
100
AcDbEntity
100
AcDbLine
  8
Krazyna
 62
256
370
-1
  6
ByLayer
 10
131.7436725496750114
 20
100.0
 30
0.0
 11
135.6695949534733074
 21
114.1887801682613457
 31
0.0
  0
LINE
  5
320
100
AcDbEntity
100
AcDbLine
  8
Krazyna
 62
256
370
-1
  6
ByLayer
 10
124.6072418102719297
 20
100.0
 30
0.0
 11
128.5038968517141882
 21
116.0495040853238606
 31
0.0
  0
LINE
  5
321
100
AcDbEntity
100
AcDbLine
  8
Krazyna
 62
256
370
-1
  6
ByLayer
 10
117.5800548299482529
 20
100.0
 30
0.0
 11
121.2827299103642105
 21
117.6817634967645461
 31
0.0
  0
LINE
  5
322
100
AcDbEntity
100
AcDbLine
  8
Krazyna
 62
256
370
-1
  6
ByLayer
 10
110.6457461092699646
 20
100.0
 30
0.0
 11
114.0133763362060222
 21
119.0839123458373479
 31
0.0
  0
LINE
  5
323
100
AcDbEntity
100
AcDbLine
  8
Krazyna
 62
256
370
-1
  6
ByLayer
 10
103.7887507252856807
 20
100.0
 30
0.0
 11
106.7031669299722125
 21
120.2545366314617041
 31
0.0
  0
LINE
  5
324
100
AcDbEntity
100
AcDbLine
  8
Krazyna
 62
256
370
-1
  6
ByLayer
 10
96.9941582059713312
 20
100.0
 30
0.0
 11
99.3594736935778968
 21
121.1924558341754903
 31
0.0
  0
LINE
  5
325
100
AcDbEntity
100
AcDbLine
  8
Krazyna
 62
256
370
-1
  6
ByLayer
 10
90.2475783889746026
 20
100.0
 30
0.0
 11
91.989702395804045
 21
121.8967241066336555
 31
0.0
  0
LINE
  5
326
100
AcDbEntity
100
AcDbLine
  8
Krazyna
 62
256
370
-1
  6
ByLayer
 10
83.5350166189952716
 20
100.0
 30
0.0
 11
84.6012851039283333
 21
122.3666312274506964
 31
0.0
  0
LINE
  5
327
100
AcDbEntity
100
AcDbLine
  8
Krazyna
 62
256
370
-1
  6
ByLayer
 10
76.8427559297530394
 20
100.0
 30
0.0
 11
77.2016726888354299
 21
122.6017033174252333
 31
0.0
  0
LINE
  5
328
100
AcDbEntity
100
AcDbLine
  8
Krazyna
 62
256
370
-1
  6
ByLayer
 10
70.1572440702468469
 20
100.0
 30
0.0
 11
69.7983273111644564
 21
122.6017033174252333
 31
0.0
  0
LINE
  5
329
100
AcDbEntity
100
AcDbLine
  8
Krazyna
 62
256
370
-1
  6
ByLayer
 10
63.4649833810046076
 20
100.0
 30
0.0
 11
62.398714896071553
 21
122.3666312274506964
 31
0.0
  0
LINE
  5
32A
100
AcDbEntity
100
AcDbLine
  8
Krazyna
 62
256
370
-1
  6
ByLayer
 10
56.7524216110252979
 20
100.0
 30
0.0
 11
55.0102976041958556
 21
121.8967241066336413
 31
0.0
  0
LINE
  5
32B
100
AcDbEntity
100
AcDbLine
  8
Krazyna
 62
256
370
-1
  6
ByLayer
 10
50.0058417940285409
 20
100.0
 30
0.0
 11
47.6405263064219753
 21
121.1924558341754903
 31
0.0
  0
LINE
  5
32C
100
AcDbEntity
100
AcDbLine
  8
Krazyna
 62
256
370
-1
  6
ByLayer
 10
43.2112492747141914
 20
100.0
 30
0.0
 11
40.2968330700276667
 21
120.2545366314617326
 31
0.0
  0
LINE
  5
32D
100
AcDbEntity
100
AcDbLine
  8
Krazyna
 62
256
370
-1
  6
ByLayer
 10
36.3542538907299075
 20
100.0
 30
0.0
 11
32.9866236637938499
 21
119.0839123458373905
 31
0.0
  0
LINE
  5
32E
100
AcDbEntity
100
AcDbLine
  8
Krazyna
 62
256
370
-1
  6
ByLayer
 10
29.4199451700516228
 20
100.0
 30
0.0
 11
25.7172700896356687
 21
117.6817634967645176
 31
0.0
  0
LINE
  5
32F
100
AcDbEntity
100
AcDbLine
  8
Krazyna
 62
256
370
-1
  6
ByLayer
 10
22.3927581897279495
 20
100.0
 30
0.0
 11
18.496103148285691
 21
116.0495040853238606
 31
0.0
  0
LINE
  5
330
100
AcDbEntity
100
AcDbLine
  8
Krazyna
 62
256
370
-1
  6
ByLayer
 10
15.2563274503248749
 20
100.0
 30
0.0
 11
11.3304050465265949
 21
114.1887801682613457
 31
0.0
  0
LINE
  5
331
100
AcDbEntity
100
AcDbLine
  8
Krazyna
 62
256
370
-1
  6
ByLayer
 10
7.9933257368193944
 20
100.0
 30
0.0
 11
4.227402053428623
 21
112.1014681980172725
 31
0.0
  0
DIMENSION
  5
332
100
AcDbEntity
  8
Otwor wym.
 62
256
370
-1
  6
ByLayer
100
AcDbDimension
 10
73.4999999999999432
 20
-110.4999999999999716
 30
0.0
 11
78.8995007217781819
 21
5.9555178362132022
 31
0.0
 70
4
 71
5
 72
0
 41
1.0
 42
0.0
  1

  3
Standard
100
AcDbRadialDimension
 15
88.0416992349443746
 25
122.1771270527909508
 35
0.0
 40
0.0
  0
LINE
  5
333
100
AcDbEntity
100
AcDbLine
  8
Otwor
 62
256
370
-1
  6
ByLayer
 10
1.2000000000000068
 20
144.0500000000000114
 30
0.0
 11
13.2000000000000064
 21
144.0500000000000114
 31
0.0
  0
LINE
  5
334
100
AcDbEntity
100
AcDbLine
  8
Otwor
 62
256
370
-1
  6
ByLayer
 10
13.2000000000000064
 20
141.7735356602097738
 30
0.0
 11
13.2000000000000064
 21
144.0500000000000114
 31
0.0
  0
LINE
  5
335
100
AcDbEntity
100
AcDbLine
  8
Otwor
 62
256
370
-1
  6
ByLayer
 10
1.2000000000000064
 20
138.6574837853380586
 30
0.0
 11
13.2000000000000064
 21
141.7735356602097738
 31
0.0
  0
LINE
  5
336
100
AcDbEntity
100
AcDbLine
  8
Otwor
 62
256
370
-1
  6
ByLayer
 10
1.2000000000000064
 20
138.6574837853380586
 30
0.0
 11
1.2000000000000068
 21
144.0500000000000114
 31
0.0
  0
DIMENSION
  5
337
100
AcDbEntity
  8
Otwor wym.
 62
256
370
-1
  6
ByLayer
100
AcDbDimension
 10
209.1369353877911692
 20
113.2499999999996589
 30
0.0
 11
207.2619353877911692
 21
112.0289837400579813
 31
0.0
 70
0
 71
5
 72
1
 41
1.0
 42
0.0
  1

  3
Standard
100
AcDbAlignedDimension
 13
146.7999999999999545
 23
110.8079674801163037
 33
0.0
 14
151.5091341318488105
 24
113.2499999999996732
 34
0.0
 50
90.0
100
AcDbRotatedDimension
  0
DIMENSION
  5
338
100
AcDbEntity
  8
Otwor wym.
 62
256
370
-1
  6
ByLayer
100
AcDbDimension
 10
74.8828736137952973
 20
136.3500000000000227
 30
0.0
 11
73.0078736137952973
 21
129.4905464429565427
 31
0.0
 70
0
 71
5
 72
1
 41
1.0
 42
0.0
  1

  3
Standard
100
AcDbAlignedDimension
 13
73.4999999999999432
 23
122.6310928859130343
 33
0.0
 14
159.2745455426268109
 24
136.3500000000000227
 34
0.0
 50
90.0
100
AcDbRotatedDimension
  0
DIMENSION
  5
339
100
AcDbEntity
  8
Otwor wym.
 62
256
370
-1
  6
ByLayer
100
AcDbDimension
 10
70.1526076972039334
 20
153.7640802081533309
 30
0.0
 11
69.2739090993501776
 21
155.6253628087736729
 31
0.0
 70
1
 71
5
 72
1
 41
1.0
 42
0.0
  1

  3
Standard
100
AcDbAlignedDimension
 13
68.5521455808964788
 23
147.6041308292511474
 33
0.0
 14
70.2499999999999432
 24
147.6310928859130343
 34
0.0
  0
DIMENSION
  5
33A
100
AcDbEntity
  8
Otwor wym.
 62
256
370
-1
  6
ByLayer
100
AcDbDimension
 10
70.3358268429904996
 20
117.2264056071752094
 30
0.0
 11
69.8540300476035583
 21
119.0939910384545897
 31
0.0
 70
1
 71
5
 72
1
 41
1.0
 42
0.0
  1

  3
Standard
100
AcDbAlignedDimension
 13
69.3459491858301362
 23
122.6167364905692239
 33
0.0
 14
70.2499999999999432
 24
122.6310928859130343
 34
0.0
  0
LINE
  5
33B
100
AcDbEntity
100
AcDbLine
  8
Krazyna wym.
 62
256
370
-1
  6
DASHDOT
 10
73.4999999999999858
 20
100.0
 30
0.0
 11
73.4999999999999858
 21
122.63109288591302
 31
0.0
  0
DIMENSION
  5
33C
100
AcDbEntity
  8
Krazyna wym.
 62
256
370
-1
  6
ByLayer
100
AcDbDimension
 10
69.7572512255630812
 20
127.7753153185002475
 30
0.0
 11
71.5932014066680722
 21
129.6649510090507249
 31
0.0
 70
1
 71
5
 72
1
 41
1.0
 42
0.0
  1

  3
Standard
100
AcDbAlignedDimension
 13
73.4999999999999858
 23
122.63109288591302
 33
0.0
 14
69.7983273111644564
 24
122.6017033174252333
 34
0.0
  0
DIMENSION
  5
33D
100
AcDbEntity
  8
Krazyna wym.
 62
256
370
-1
  6
ByLayer
100
AcDbDimension
 10
146.7999999999999545
 20
93.4812343806205064
 30
0.0
 11
73.4999999999999716
 21
95.3562343806205064
 31
0.0
 70
0
 71
5
 72
1
 41
1.0
 42
0.0
  1

  3
Standard
100
AcDbAlignedDimension
 13
0.2000000000000068
 23
100.0
 33
0.0
 14
146.7999999999999545
 24
100.0
 34
0.0
 50
0.0
100
AcDbRotatedDimension
  0
DIMENSION
  5
33E
100
AcDbEntity
  8
Krazyna wym.
 62
256
370
-1
  6
ByLayer
100
AcDbDimension
 10
114.854331865541198
 20
124.335435910028238
 30
0.0
 11
111.4957040149247263
 21
126.7721600750362683
 31
0.0
 70
1
 71
5
 72
1
 41
1.0
 42
0.0
  1

  3
Standard
100
AcDbAlignedDimension
 13
106.7031669299722125
 23
120.2545366314617183
 33
0.0
 14
114.0133763362060364
 24
119.0839123458373905
 34
0.0
  0
DIMENSION
  5
33F
100
AcDbEntity
  8
Krazyna wym.
 62
256
370
-1
  6
ByLayer
100
AcDbDimension
 10
2.8628647069536304
 20
116.3500476035944473
 30
0.0
 11
0.2758068200794197
 21
117.4884826442334571
 31
0.0
 70
1
 71
5
 72
1
 41
1.0
 42
0.0
  1

  3
Standard
100
AcDbAlignedDimension
 13
0.2000000000000068
 23
110.8079674801163037
 33
0.0
 14
4.2274020534286176
 24
112.1014681980172867
 34
0.0
  0
MTEXT
  5
340
100
AcDbEntity
100
AcDbMText
  8
Otwor
 62
256
370
-1
  6
ByLayer
 10
-40.0707915738329845
 20
-42.6149688166160345
 30
0.0
 40
3.0
 41
100.0
 71
1
 72
2
  1
Okno 147
  7
iso
 50
0.0
 73
0
 44
1.0
  0
LINE
  5
341
100
AcDbEntity
100
AcDbLine
  8
Otwor
 62
256
370
-1
  6
ByLayer
 10
0.9872224958291012
 20
124.7296207620217245
 30
0.0
 11
-2.3960782101564075
 21
136.2427991386854842
 31
0.0
  0
LINE
  5
342
100
AcDbEntity
100
AcDbLine
  8
Otwor
 62
256
370
-1
  6
ByLayer
 10
4.6524649273134138
 20
112.257010853969291
 30
0.0
 11
1.2691642213279017
 21
123.7701892306330507
 31
0.0
  0
LINE
  5
343
100
AcDbEntity
100
AcDbLine
  8
Otwor
 62
256
370
-1
  6
ByLayer
 10
1.2691642213279017
 20
123.7701892306330507
 30
0.0
 11
7.5054691753541078
 21
125.6028104463751873
 31
0.0
  0
LINE
  5
344
100
AcDbEntity
100
AcDbLine
  8
Otwor
 62
256
370
-1
  6
ByLayer
 10
10.8887698813396163
 20
114.0896320697114277
 30
0.0
 11
7.5054691753541078
 21
125.6028104463751873
 31
0.0
  0
LINE
  5
345
100
AcDbEntity
100
AcDbLine
  8
Otwor
 62
256
370
-1
  6
ByLayer
 10
0.9872224958291012
 20
124.7296207620217245
 30
0.0
 11
7.2235274498553004
 21
126.5622419777638896
 31
0.0
  0
LINE
  5
346
100
AcDbEntity
100
AcDbLine
  8
Otwor
 62
256
370
-1
  6
ByLayer
 10
7.2235274498553004
 20
126.5622419777638896
 30
0.0
 11
3.8402267438697959
 21
138.0754203544276493
 31
0.0
  0
LINE
  5
347
100
AcDbEntity
100
AcDbLine
  8
Otwor
 62
256
370
-1
  6
ByLayer
 10
16.0639945620959885
 20
128.8578548210837766
 30
0.0
 11
13.4182834763530536
 21
140.5625638243344326
 31
0.0
  0
LINE
  5
348
100
AcDbEntity
100
AcDbLine
  8
Otwor
 62
256
370
-1
  6
ByLayer
 10
22.4040452721900891
 20
130.2909483258612227
 30
0.0
 11
19.7583341864471578
 21
141.9956573291118787
 31
0.0
  0
LINE
  5
349
100
AcDbEntity
100
AcDbLine
  8
Otwor
 62
256
370
-1
  6
ByLayer
 10
16.0639945620959885
 20
128.8578548210837766
 30
0.0
 11
22.4040452721900891
 21
130.2909483258612227
 31
0.0
  0
LINE
  5
34A
100
AcDbEntity
100
AcDbLine
  8
Otwor
 62
256
370
-1
  6
ByLayer
 10
25.2702322817449385
 20
117.6108469056729575
 30
0.0
 11
22.6245211960020107
 21
129.3155559089236135
 31
0.0
  0
LINE
  5
34B
100
AcDbEntity
100
AcDbLine
  8
Otwor
 62
256
370
-1
  6
ByLayer
 10
16.2844704859079066
 20
127.8824624041461959
 30
0.0
 11
22.6245211960020107
 21
129.3155559089236135
 31
0.0
  0
LINE
  5
34C
100
AcDbEntity
100
AcDbLine
  8
Otwor
 62
256
370
-1
  6
ByLayer
 10
18.9301815716508344
 20
116.1777534008955399
 30
0.0
 11
16.2844704859079066
 21
127.8824624041461959
 31
0.0
  0
LINE
  5
34D
100
AcDbEntity
100
AcDbLine
  8
Otwor
 62
256
370
-1
  6
ByLayer
 10
31.3723942434953109
 20
132.0208078051004463
 30
0.0
 11
29.4749423874924794
 21
143.8698447471540476
 31
0.0
  0
LINE
  5
34E
100
AcDbEntity
100
AcDbLine
  8
Otwor
 62
256
370
-1
  6
ByLayer
 10
33.4279670874983807
 20
119.1843511178756785
 30
0.0
 11
31.5305152314955492
 21
131.0333880599293082
 31
0.0
  0
LINE
  5
34F
100
AcDbEntity
100
AcDbLine
  8
Otwor
 62
256
370
-1
  6
ByLayer
 10
31.5305152314955492
 20
131.0333880599293082
 30
0.0
 11
37.9487435751079261
 21
132.0611744819308342
 31
0.0
  0
LINE
  5
350
100
AcDbEntity
100
AcDbLine
  8
Otwor
 62
256
370
-1
  6
ByLayer
 10
39.8461954311107647
 20
120.2121375398772045
 30
0.0
 11
37.9487435751079261
 21
132.0611744819308342
 31
0.0
  0
LINE
  5
351
100
AcDbEntity
100
AcDbLine
  8
Otwor
 62
256
370
-1
  6
ByLayer
 10
31.3723942434953109
 20
132.0208078051004463
 30
0.0
 11
37.7906225871076842
 21
133.0485942271020008
 31
0.0
  0
LINE
  5
352
100
AcDbEntity
100
AcDbLine
  8
Otwor
 62
256
370
-1
  6
ByLayer
 10
37.7906225871076842
 20
133.0485942271020008
 30
0.0
 11
35.8931707311048598
 21
144.897631169155602
 31
0.0
  0
LINE
  5
353
100
AcDbEntity
100
AcDbLine
  8
Otwor
 62
256
370
-1
  6
ByLayer
 10
46.8506859077757696
 20
134.2057241742168969
 30
0.0
 11
45.7091453151961531
 21
146.1513043223508816
 31
0.0
  0
LINE
  5
354
100
AcDbEntity
100
AcDbLine
  8
Otwor
 62
256
370
-1
  6
ByLayer
 10
46.8506859077757696
 20
134.2057241742168969
 30
0.0
 11
53.3212084880150172
 21
134.8240586618641998
 31
0.0
  0
LINE
  5
355
100
AcDbEntity
100
AcDbLine
  8
Otwor
 62
256
370
-1
  6
ByLayer
 10
53.3212084880150172
 20
134.8240586618641998
 30
0.0
 11
52.1796678954354007
 21
146.7696388099981846
 31
0.0
  0
LINE
  5
356
100
AcDbEntity
100
AcDbLine
  8
Otwor
 62
256
370
-1
  6
ByLayer
 10
54.5578774633096089
 20
121.8830135013856903
 30
0.0
 11
53.4163368707299853
 21
133.8285936495196893
 31
0.0
  0
LINE
  5
357
100
AcDbEntity
100
AcDbLine
  8
Otwor
 62
256
370
-1
  6
ByLayer
 10
48.0873548830703612
 20
121.2646790137383874
 30
0.0
 11
46.9458142904907376
 21
133.2102591618723864
 31
0.0
  0
LINE
  5
358
100
AcDbEntity
100
AcDbLine
  8
Otwor
 62
256
370
-1
  6
ByLayer
 10
46.9458142904907376
 20
133.2102591618723864
 30
0.0
 11
53.4163368707299853
 21
133.8285936495196893
 31
0.0
  0
LINE
  5
359
100
AcDbEntity
100
AcDbLine
  8
Otwor
 62
256
370
-1
  6
ByLayer
 10
62.4364487832073252
 20
135.40379260940108
 30
0.0
 11
62.055423052839167
 21
147.3977418919684226
 31
0.0
  0
LINE
  5
35A
100
AcDbEntity
100
AcDbLine
  8
Otwor
 62
256
370
-1
  6
ByLayer
 10
62.4364487832073252
 20
135.40379260940108
 30
0.0
 11
68.9331713112646298
 21
135.6101815466838048
 31
0.0
  0
LINE
  5
35B
100
AcDbEntity
100
AcDbLine
  8
Otwor
 62
256
370
-1
  6
ByLayer
 10
68.9331713112646298
 20
135.6101815466838048
 30
0.0
 11
68.5521455808964788
 21
147.6041308292511474
 31
0.0
  0
LINE
  5
35C
100
AcDbEntity
100
AcDbLine
  8
Otwor
 62
256
370
-1
  6
ByLayer
 10
62.8492266577728245
 20
122.4103475532864707
 30
0.0
 11
62.4682009274046663
 21
134.4042968358538133
 31
0.0
  0
LINE
  5
35D
100
AcDbEntity
100
AcDbLine
  8
Otwor
 62
256
370
-1
  6
ByLayer
 10
62.4682009274046663
 20
134.4042968358538133
 30
0.0
 11
68.9649234554619852
 21
134.6106857731365665
 31
0.0
  0
LINE
  5
35E
100
AcDbEntity
100
AcDbLine
  8
Otwor
 62
256
370
-1
  6
ByLayer
 10
69.3459491858301362
 20
122.6167364905692239
 30
0.0
 11
68.9649234554619852
 21
134.6106857731365665
 31
0.0
  0
LINE
  5
35F
100
AcDbEntity
100
AcDbLine
  8
Otwor
 62
256
370
-1
  6
ByLayer
 10
78.0668286887352565
 20
135.6101815466838048
 30
0.0
 11
78.4478544191034075
 21
147.6041308292511474
 31
0.0
  0
LINE
  5
360
100
AcDbEntity
100
AcDbLine
  8
Otwor
 62
256
370
-1
  6
ByLayer
 10
84.5635512167925754
 20
135.40379260940108
 30
0.0
 11
84.9445769471607264
 21
147.3977418919684226
 31
0.0
  0
LINE
  5
361
100
AcDbEntity
100
AcDbLine
  8
Otwor
 62
256
370
-1
  6
ByLayer
 10
84.5635512167925754
 20
135.40379260940108
 30
0.0
 11
78.0668286887352565
 21
135.6101815466838048
 31
0.0
  0
LINE
  5
362
100
AcDbEntity
100
AcDbLine
  8
Otwor
 62
256
370
-1
  6
ByLayer
 10
84.1507733422270547
 20
122.4103475532864707
 30
0.0
 11
84.53179907259522
 21
134.4042968358538133
 31
0.0
  0
LINE
  5
363
100
AcDbEntity
100
AcDbLine
  8
Otwor
 62
256
370
-1
  6
ByLayer
 10
77.6540508141697501
 20
122.6167364905692239
 30
0.0
 11
78.0350765445379011
 21
134.6106857731365665
 31
0.0
  0
LINE
  5
364
100
AcDbEntity
100
AcDbLine
  8
Otwor
 62
256
370
-1
  6
ByLayer
 10
84.53179907259522
 20
134.4042968358538133
 30
0.0
 11
78.0350765445379011
 21
134.6106857731365665
 31
0.0
  0
LINE
  5
365
100
AcDbEntity
100
AcDbLine
  8
Otwor
 62
256
370
-1
  6
ByLayer
 10
92.4421225366902775
 20
121.8830135013856903
 30
0.0
 11
93.5836631292698939
 21
133.8285936495196893
 31
0.0
  0
LINE
  5
366
100
AcDbEntity
100
AcDbLine
  8
Otwor
 62
256
370
-1
  6
ByLayer
 10
100.0541857095091416
 20
133.2102591618723579
 30
0.0
 11
93.5836631292698939
 21
133.8285936495196893
 31
0.0
  0
LINE
  5
367
100
AcDbEntity
100
AcDbLine
  8
Otwor
 62
256
370
-1
  6
ByLayer
 10
98.9126451169295109
 20
121.2646790137383732
 30
0.0
 11
100.0541857095091416
 21
133.2102591618723579
 31
0.0
  0
LINE
  5
368
100
AcDbEntity
100
AcDbLine
  8
Otwor
 62
256
370
-1
  6
ByLayer
 10
100.1493140922241025
 20
134.2057241742168969
 30
0.0
 11
101.2908546848037332
 21
146.1513043223508816
 31
0.0
  0
LINE
  5
369
100
AcDbEntity
100
AcDbLine
  8
Otwor
 62
256
370
-1
  6
ByLayer
 10
100.1493140922241025
 20
134.2057241742168969
 30
0.0
 11
93.6787915119848549
 21
134.8240586618641714
 31
0.0
  0
LINE
  5
36A
100
AcDbEntity
100
AcDbLine
  8
Otwor
 62
256
370
-1
  6
ByLayer
 10
93.6787915119848549
 20
134.8240586618641714
 30
0.0
 11
94.8203321045644856
 21
146.7696388099981561
 31
0.0
  0
LINE
  5
36B
100
AcDbEntity
100
AcDbLine
  8
Otwor
 62
256
370
-1
  6
ByLayer
 10
107.1538045688891145
 20
120.2121375398771761
 30
0.0
 11
109.0512564248919603
 21
132.0611744819308058
 31
0.0
  0
LINE
  5
36C
100
AcDbEntity
100
AcDbLine
  8
Otwor
 62
256
370
-1
  6
ByLayer
 10
109.209377412892195
 20
133.0485942271019155
 30
0.0
 11
111.1068292688950265
 21
144.8976311691555452
 31
0.0
  0
LINE
  5
36D
100
AcDbEntity
100
AcDbLine
  8
Otwor
 62
256
370
-1
  6
ByLayer
 10
115.4694847685043442
 20
131.0333880599292797
 30
0.0
 11
109.0512564248919603
 21
132.0611744819308058
 31
0.0
  0
LINE
  5
36E
100
AcDbEntity
100
AcDbLine
  8
Otwor
 62
256
370
-1
  6
ByLayer
 10
113.5720329125014985
 20
119.1843511178756643
 30
0.0
 11
115.4694847685043442
 21
131.0333880599292797
 31
0.0
  0
LINE
  5
36F
100
AcDbEntity
100
AcDbLine
  8
Otwor
 62
256
370
-1
  6
ByLayer
 10
115.6276057565045789
 20
132.0208078051003895
 30
0.0
 11
109.209377412892195
 21
133.0485942271019155
 31
0.0
  0
LINE
  5
370
100
AcDbEntity
100
AcDbLine
  8
Otwor
 62
256
370
-1
  6
ByLayer
 10
115.6276057565045789
 20
132.0208078051003895
 30
0.0
 11
117.5250576125074105
 21
143.8698447471540192
 31
0.0
  0
LINE
  5
371
100
AcDbEntity
100
AcDbLine
  8
Otwor
 62
256
370
-1
  6
ByLayer
 10
124.5959547278098114
 20
130.2909483258613363
 30
0.0
 11
127.2416658135527285
 21
141.9956573291119923
 31
0.0
  0
LINE
  5
372
100
AcDbEntity
100
AcDbLine
  8
Otwor
 62
256
370
-1
  6
ByLayer
 10
121.7297677182549478
 20
117.6108469056729575
 30
0.0
 11
124.3754788039978649
 21
129.3155559089236135
 31
0.0
  0
LINE
  5
373
100
AcDbEntity
100
AcDbLine
  8
Otwor
 62
256
370
-1
  6
ByLayer
 10
130.7155295140919691
 20
127.8824624041461959
 30
0.0
 11
124.3754788039978649
 21
129.3155559089236135
 31
0.0
  0
LINE
  5
374
100
AcDbEntity
100
AcDbLine
  8
Otwor
 62
256
370
-1
  6
ByLayer
 10
128.0698184283490377
 20
116.1777534008955399
 30
0.0
 11
130.7155295140919691
 21
127.8824624041461959
 31
0.0
  0
LINE
  5
375
100
AcDbEntity
100
AcDbLine
  8
Otwor
 62
256
370
-1
  6
ByLayer
 10
130.9360054379039013
 20
128.8578548210838903
 30
0.0
 11
124.5959547278098114
 21
130.2909483258613363
 31
0.0
  0
LINE
  5
376
100
AcDbEntity
100
AcDbLine
  8
Otwor
 62
256
370
-1
  6
ByLayer
 10
130.9360054379039013
 20
128.8578548210838903
 30
0.0
 11
133.5817165236468327
 21
140.5625638243345463
 31
0.0
  0
LINE
  5
377
100
AcDbEntity
100
AcDbLine
  8
Otwor
 62
256
370
-1
  6
ByLayer
 10
139.7764725501446037
 20
126.5622419777638896
 30
0.0
 11
143.1597732561301086
 21
138.0754203544276493
 31
0.0
  0
LINE
  5
378
100
AcDbEntity
100
AcDbLine
  8
Otwor
 62
256
370
-1
  6
ByLayer
 10
146.0127775041707991
 20
124.7296207620217814
 30
0.0
 11
139.7764725501446037
 21
126.5622419777638896
 31
0.0
  0
LINE
  5
379
100
AcDbEntity
100
AcDbLine
  8
Otwor
 62
256
370
-1
  6
ByLayer
 10
146.0127775041707991
 20
124.7296207620217814
 30
0.0
 11
149.3960782101563041
 21
136.242799138685541
 31
0.0
  0
LINE
  5
37A
100
AcDbEntity
100
AcDbLine
  8
Otwor
 62
256
370
-1
  6
ByLayer
 10
142.347535072686469
 20
112.2570108539692626
 30
0.0
 11
145.7308357786719739
 21
123.7701892306330222
 31
0.0
  0
LINE
  5
37B
100
AcDbEntity
100
AcDbLine
  8
Otwor
 62
256
370
-1
  6
ByLayer
 10
136.1112301186602735
 20
114.0896320697113993
 30
0.0
 11
139.4945308246457785
 21
125.6028104463751589
 31
0.0
  0
LINE
  5
37C
100
AcDbEntity
100
AcDbLine
  8
Otwor
 62
256
370
-1
  6
ByLayer
 10
145.7308357786719739
 20
123.7701892306330222
 30
0.0
 11
139.4945308246457785
 21
125.6028104463751589
 31
0.0
  0
DIMENSION
  5
37D
100
AcDbEntity
  8
Otwor wym.
 62
256
370
-1
  6
ByLayer
100
AcDbDimension
 10
131.925466508828066
 20
113.2499999999996732
 30
0.0
 11
130.050466508828066
 21
1.3749999999998155
 31
0.0
 70
0
 71
5
 72
1
 41
1.0
 42
0.0
  1

  3
Standard
100
AcDbAlignedDimension
 13
73.4999999999999432
 23
-110.4999999999999716
 33
0.0
 14
151.5091341318488105
 24
113.2499999999996732
 34
0.0
 50
90.0
100
AcDbRotatedDimension
  0
DIMENSION
  5
37E
100
AcDbEntity
  8
Otwor wym.
 62
256
370
-1
  6
ByLayer
100
AcDbDimension
 10
8.5980457848819558
 20
103.8028792260816147
 30
0.0
 11
7.4277928584760398
 21
105.3859563209315127
 31
0.0
 70
1
 71
5
 72
1
 41
1.0
 42
0.0
  1

  3
Standard
100
AcDbAlignedDimension
 13
0.7016523415965258
 23
110.9734906222106758
 33
0.0
 14
0.0000000000000067
 24
110.0
 34
0.0
  0
LINE
  5
37F
100
AcDbEntity
100
AcDbLine
  8
Otwor
 62
256
370
-1
  6
ByLayer
 10
-31.7999999999999901
 20
136.3499999999999943
 30
0.0
 11
-12.3238402682808612
 21
136.3499999999999943
 31
0.0
  0
LINE
  5
380
100
AcDbEntity
100
AcDbLine
  8
Otwor
 62
256
370
-1
  6
ByLayer
 10
-31.7999999999999901
 20
129.8499999999999943
 30
0.0
 11
-10.1872899369060423
 21
129.8499999999999943
 31
0.0
  0
LINE
  5
381
100
AcDbEntity
100
AcDbLine
  8
Otwor
 62
256
370
-1
  6
ByLayer
 10
-12.3238402682808612
 20
136.3499999999999943
 30
0.0
 11
-10.1872899369060423
 21
129.8499999999999943
 31
0.0
  0
LINE
  5
382
100
AcDbEntity
100
AcDbLine
  8
Otwor
 62
256
370
-1
  6
ByLayer
 10
-11.9999999999999929
 20
128.6500000000000057
 30
0.0
 11
-9.7928498757291553
 21
128.6500000000000057
 31
0.0
  0
LINE
  5
383
100
AcDbEntity
100
AcDbLine
  8
Otwor
 62
256
370
-1
  6
ByLayer
 10
-11.9999999999999929
 20
122.1500000000000057
 30
0.0
 11
-7.6562995443543409
 21
122.1500000000000057
 31
0.0
  0
LINE
  5
384
100
AcDbEntity
100
AcDbLine
  8
Otwor
 62
256
370
-1
  6
ByLayer
 10
-9.7928498757291553
 20
128.6500000000000057
 30
0.0
 11
-7.6562995443543409
 21
122.1500000000000057
 31
0.0
  0
LINE
  5
385
100
AcDbEntity
100
AcDbLine
  8
Otwor
 62
256
370
-1
  6
ByLayer
 10
-18.5999999999999908
 20
120.9500000000000028
 30
0.0
 11
-7.2618594831774503
 21
120.9500000000000028
 31
0.0
  0
LINE
  5
386
100
AcDbEntity
100
AcDbLine
  8
Otwor
 62
256
370
-1
  6
ByLayer
 10
-18.5999999999999908
 20
114.4500000000000028
 30
0.0
 11
-5.1253091518026324
 21
114.4500000000000028
 31
0.0
  0
LINE
  5
387
100
AcDbEntity
100
AcDbLine
  8
Otwor
 62
256
370
-1
  6
ByLayer
 10
-7.2618594831774503
 20
120.9500000000000028
 30
0.0
 11
-5.1253091518026324
 21
114.4500000000000028
 31
0.0
  0
LINE
  5
388
100
AcDbEntity
100
AcDbLine
  8
Kraz-zewn
 62
256
370
-1
  6
ByLayer
 10
2.7000000000000068
 20
100.0
 30
0.0
 11
2.7000000000000068
 21
111.620387335742393
 31
0.0
  0
ARC
  5
389
100
AcDbEntity
  8
Kraz-zewn
 62
256
370
-1
  6
ByLayer
100
AcDbCircle
 10
73.4999999999999432
 20
-110.4999999999999716
 30
0.0
 40
233.1310928859130058
100
AcDbArc
 50
72.3205235515198694
 51
107.6794764484800737
  0
LINE
  5
38A
100
AcDbEntity
100
AcDbLine
  8
Kraz-zewn
 62
256
370
13
  6
ByLayer
 10
2.7000000000000068
 20
100.0
 30
0.0
 11
144.2999999999999545
 21
100.0
 31
0.0
  0
LINE
  5
38B
100
AcDbEntity
100
AcDbLine
  8
Kraz-zewn
 62
256
370
-1
  6
ByLayer
 10
144.2999999999999545
 20
111.6203873357423646
 30
0.0
 11
144.2999999999999545
 21
100.0
 31
0.0
  0
LINE
  5
38C
100
AcDbEntity
100
AcDbLine
  8
Kraz-zewn
 62
256
370
-1
  6
ByLayer
 10
2.7000000000000068
 20
111.6203873357423788
 30
0.0
 11
73.4999999999999432
 21
-110.4999999999999716
 31
0.0
  0
LINE
  5
38D
100
AcDbEntity
100
AcDbLine
  8
Kraz-zewn
 62
256
370
-1
  6
ByLayer
 10
73.4999999999999432
 20
-110.4999999999999716
 30
0.0
 11
144.2999999999999545
 21
111.620387335742322
 31
0.0
  0
LINE
  5
38E
100
AcDbEntity
100
AcDbLine
  8
Kraz-zewn
 62
256
370
-1
  6
ByLayer
 10
73.4999999999999432
 20
-110.4999999999999716
 30
0.0
 11
5.3523585948014727
 21
130.0325320427748181
 31
0.0
  0
LINE
  5
38F
100
AcDbEntity
100
AcDbLine
  8
Kraz-zewn
 62
256
370
-1
  6
ByLayer
 10
73.4999999999999432
 20
-110.4999999999999716
 30
0.0
 11
13.1995542913719177
 21
132.1187466939453543
 31
0.0
  0
LINE
  5
390
100
AcDbEntity
100
AcDbLine
  8
Kraz-zewn
 62
256
370
-1
  6
ByLayer
 10
73.4999999999999432
 20
-110.4999999999999716
 30
0.0
 11
21.1103604668181504
 21
133.9490246852772657
 31
0.0
  0
LINE
  5
391
100
AcDbEntity
100
AcDbLine
  8
Kraz-zewn
 62
256
370
-1
  6
ByLayer
 10
73.4999999999999432
 20
-110.4999999999999716
 30
0.0
 11
29.0764320722238807
 21
135.5214352705192198
 31
0.0
  0
LINE
  5
392
100
AcDbEntity
100
AcDbLine
  8
Kraz-zewn
 62
256
370
-1
  6
ByLayer
 10
73.4999999999999432
 20
-110.4999999999999716
 30
0.0
 11
37.0893657595934982
 21
136.8343197257739234
 31
0.0
  0
LINE
  5
393
100
AcDbEntity
100
AcDbLine
  8
Kraz-zewn
 62
256
370
-1
  6
ByLayer
 10
73.4999999999999432
 20
-110.4999999999999716
 30
0.0
 11
45.1407087464796604
 21
137.8862930992731322
 31
0.0
  0
LINE
  5
394
100
AcDbEntity
100
AcDbLine
  8
Kraz-zewn
 62
256
370
-1
  6
ByLayer
 10
73.4999999999999432
 20
-110.4999999999999716
 30
0.0
 11
53.2219677327587277
 21
138.6762456723528203
 31
0.0
  0
LINE
  5
395
100
AcDbEntity
100
AcDbLine
  8
Kraz-zewn
 62
256
370
-1
  6
ByLayer
 10
73.4999999999999432
 20
-110.4999999999999716
 30
0.0
 11
61.3246178601483862
 21
139.2033441300868901
 31
0.0
  0
LINE
  5
396
100
AcDbEntity
100
AcDbLine
  8
Kraz-zewn
 62
256
370
-1
  6
ByLayer
 10
73.4999999999999432
 20
-110.4999999999999716
 30
0.0
 11
69.4401117050148144
 21
139.4670324403445534
 31
0.0
  0
LINE
  5
397
100
AcDbEntity
100
AcDbLine
  8
Kraz-zewn
 62
256
370
-1
  6
ByLayer
 10
73.4999999999999432
 20
-110.4999999999999716
 30
0.0
 11
77.5598882949853277
 21
139.467032440344525
 31
0.0
  0
LINE
  5
398
100
AcDbEntity
100
AcDbLine
  8
Kraz-zewn
 62
256
370
-1
  6
ByLayer
 10
73.4999999999999432
 20
-110.4999999999999716
 30
0.0
 11
85.675382139851763
 21
139.2033441300868901
 31
0.0
  0
LINE
  5
399
100
AcDbEntity
100
AcDbLine
  8
Kraz-zewn
 62
256
370
-1
  6
ByLayer
 10
73.4999999999999432
 20
-110.4999999999999716
 30
0.0
 11
93.7780322672413575
 21
138.6762456723528203
 31
0.0
  0
LINE
  5
39A
100
AcDbEntity
100
AcDbLine
  8
Kraz-zewn
 62
256
370
-1
  6
ByLayer
 10
73.4999999999999432
 20
-110.4999999999999716
 30
0.0
 11
101.8592912535204675
 21
137.8862930992731037
 31
0.0
  0
LINE
  5
39B
100
AcDbEntity
100
AcDbLine
  8
Kraz-zewn
 62
256
370
-1
  6
ByLayer
 10
73.4999999999999432
 20
-110.4999999999999716
 30
0.0
 11
109.9106342404066368
 21
136.834319725773895
 31
0.0
  0
LINE
  5
39C
100
AcDbEntity
100
AcDbLine
  8
Kraz-zewn
 62
256
370
-1
  6
ByLayer
 10
73.4999999999999432
 20
-110.4999999999999716
 30
0.0
 11
117.9235679277762472
 21
135.5214352705191629
 31
0.0
  0
LINE
  5
39D
100
AcDbEntity
100
AcDbLine
  8
Kraz-zewn
 62
256
370
-1
  6
ByLayer
 10
73.4999999999999432
 20
-110.4999999999999716
 30
0.0
 11
125.8896395331819775
 21
133.9490246852772088
 31
0.0
  0
LINE
  5
39E
100
AcDbEntity
100
AcDbLine
  8
Kraz-zewn
 62
256
370
-1
  6
ByLayer
 10
73.4999999999999432
 20
-110.4999999999999716
 30
0.0
 11
133.8004457086282173
 21
132.1187466939452975
 31
0.0
  0
LINE
  5
39F
100
AcDbEntity
100
AcDbLine
  8
Kraz-zewn
 62
256
370
-1
  6
ByLayer
 10
73.4999999999999432
 20
-110.4999999999999716
 30
0.0
 11
141.6476414051986694
 21
130.0325320427747613
 31
0.0
  0
LINE
  5
3A0
100
AcDbEntity
100
AcDbLine
  8
Kraz-zewn
 62
256
370
-1
  6
ByLayer
 10
73.5000000000000568
 20
122.6310928859130343
 30
0.0
 11
73.5000000000000568
 21
132.6310928859130343
 31
0.0
  0
ENDSEC
  0
SECTION
  2
OBJECTS
  0
DICTIONARY
  5
C
100
AcDbDictionary
280
0
281
1
  3
ACAD_GROUP
350
D
  3
ACAD_LAYOUT
350
1A
  3
ACAD_MLINESTYLE
350
17
  3
ACAD_PLOTSETTINGS
350
19
  3
ACAD_PLOTSTYLENAME
350
E
  3
AcDbVariableDictionary
350
3A1
  0
DICTIONARY
  5
D
100
AcDbDictionary
280
0
281
1
  0
ACDBDICTIONARYWDFLT
  5
E
100
AcDbDictionary
281
1
  3
Normal
350
F
100
AcDbDictionaryWithDefault
340
F
  0
ACDBPLACEHOLDER
  5
F
  0
DICTIONARY
  5
17
100
AcDbDictionary
280
0
281
1
  3
Standard
350
18
  0
MLINESTYLE
  5
18
100
AcDbMlineStyle
  2
STANDARD
 70
0
  3

 62
256
 51
90.0
 52
90.0
 71
2
 49
0.5
 62
256
  6
BYLAYER
 49
-0.5
 62
256
  6
BYLAYER
  0
DICTIONARY
  5
19
100
AcDbDictionary
280
0
281
1
  0
DICTIONARY
  5
1A
100
AcDbDictionary
281
1
  3
Layout1
350
1E
  3
Layout2
350
26
  3
Model
350
22
  0
LAYOUT
  5
1E
100
AcDbPlotSettings
  1

  2
C:\Program Files\AutoCAD 2002\plotters\DWF ePlot (optimized for plotting).pc3
  4

  6

 40
0.0
 41
0.0
 42
0.0
 43
0.0
 44
0.0
 45
0.0
 46
0.0
 47
0.0
 48
0.0
 49
0.0
140
0.0
141
0.0
142
1.0
143
1.0
 70
688
 72
0
 73
0
 74
5
  7

 75
16
147
1.0
148
0.0
149
0.0
100
AcDbLayout
  1
Layout1
 70
1
 71
1
 10
0.0
 20
0.0
 11
420.0
 21
297.0
 12
0.0
 22
0.0
 32
0.0
 14
100000000000000000000.0
 24
100000000000000000000.0
 34
100000000000000000000.0
 15
-100000000000000000000.0
 25
-100000000000000000000.0
 35
-100000000000000000000.0
146
0.0
 13
0.0
 23
0.0
 33
0.0
 16
1.0
 26
0.0
 36
0.0
 17
0.0
 27
1.0
 37
0.0
 76
0
330
1B
  0
LAYOUT
  5
22
100
AcDbPlotSettings
  1

  2
C:\Program Files\AutoCAD 2002\plotters\DWF ePlot (optimized for plotting).pc3
  4

  6

 40
0.0
 41
0.0
 42
0.0
 43
0.0
 44
0.0
 45
0.0
 46
0.0
 47
0.0
 48
0.0
 49
0.0
140
0.0
141
0.0
142
1.0
143
1.0
 70
1712
 72
0
 73
0
 74
0
  7

 75
0
147
1.0
148
0.0
149
0.0
100
AcDbLayout
  1
Model
 70
1
 71
0
 10
0.0
 20
0.0
 11
12.0
 21
9.0
 12
0.0
 22
0.0
 32
0.0
 14
0.0
 24
0.0
 34
0.0
 15
0.0
 25
0.0
 35
0.0
146
0.0
 13
0.0
 23
0.0
 33
0.0
 16
1.0
 26
0.0
 36
0.0
 17
0.0
 27
1.0
 37
0.0
 76
0
330
1F
  0
LAYOUT
  5
26
100
AcDbPlotSettings
  1

  2
C:\Program Files\AutoCAD 2002\plotters\DWF ePlot (optimized for plotting).pc3
  4

  6

 40
0.0
 41
0.0
 42
0.0
 43
0.0
 44
0.0
 45
0.0
 46
0.0
 47
0.0
 48
0.0
 49
0.0
140
0.0
141
0.0
142
1.0
143
1.0
 70
688
 72
0
 73
0
 74
5
  7

 75
16
147
1.0
148
0.0
149
0.0
100
AcDbLayout
  1
Layout2
 70
1
 71
2
 10
0.0
 20
0.0
 11
12.0
 21
9.0
 12
0.0
 22
0.0
 32
0.0
 14
0.0
 24
0.0
 34
0.0
 15
0.0
 25
0.0
 35
0.0
146
0.0
 13
0.0
 23
0.0
 33
0.0
 16
1.0
 26
0.0
 36
0.0
 17
0.0
 27
1.0
 37
0.0
 76
0
330
23
  0
DICTIONARY
  5
3A1
100
AcDbDictionary
281
1
  3
DIMASSOC
350
3A3
  3
HIDETEXT
350
3A2
  0
DICTIONARYVAR
  5
3A2
100
DictionaryVariables
280
0
  1
2
  0
DICTIONARYVAR
  5
3A3
100
DictionaryVariables
280
0
  1
1
  0
ENDSEC
  0
EOF
