999
dxflib 2.2.0.0
  0
SECTION
  2
HEADER
  9
$ACADVER
  1
AC1015
  9
$HANDSEED
  5
FFFF
  9
$SPLINESEGS
 70
8
  9
$DIMEXE
 40
1.25
  9
$PSVPSCALE
 40
0.2453274181239236
  9
$DIMLUNIT
 70
2
  9
$GRIDMODE
 70
1
  9
$INSUNITS
 70
5
  9
$DIMADEC
 70
2
  9
$DIMASZ
 40
2.5
  9
$DIMGAP
 40
0.625
  9
$DIMTXT
 40
2.5
  9
$GRIDUNIT
 10
0.0
 20
0.0
  9
$DIMEXO
 40
0.625
  9
$LUPREC
 70
2
  9
$PINSBASE
 10
2.7396865806128261
 20
-16.8242494086346852
 30
0.0
  9
$DIMAUNIT
 70
0
  9
$AUPREC
 70
2
  9
$PLIMMIN
 10
0.0
 20
0.0
  9
$LUNITS
 70
2
  9
$PLIMMAX
 10
29.6999999999999993
 20
21.0
  9
$DIMSTYLE
  2
Standard
  9
$AUNITS
 70
0
  0
ENDSEC
  0
SECTION
  2
TABLES
  0
TABLE
  2
VPORT
  5
8
100
AcDbSymbolTable
 70
1
  0
VPORT
  5
30
100
AcDbSymbolTableRecord
100
AcDbViewportTableRecord
  2
*Active
 70
0
 10
0.0
 20
0.0
 11
1.0
 21
1.0
 12
286.3055555555554861
 22
148.5
 13
0.0
 23
0.0
 14
10.0
 24
10.0
 15
10.0
 25
10.0
 16
0.0
 26
0.0
 36
1.0
 17
0.0
 27
0.0
 37
0.0
 40
297.0
 41
1.92798353909465
 42
50.0
 43
0.0
 44
0.0
 50
0.0
 51
0.0
 71
0
 72
100
 73
1
 74
3
 75
1
 76
1
 77
0
 78
0
281
0
 65
1
110
0.0
120
0.0
130
0.0
111
1.0
121
0.0
131
0.0
112
0.0
122
1.0
132
0.0
 79
0
146
0.0
  0
ENDTAB
  0
TABLE
  2
LTYPE
  5
5
100
AcDbSymbolTable
 70
21
  0
LTYPE
  5
14
100
AcDbSymbolTableRecord
100
AcDbLinetypeTableRecord
  2
ByBlock
 70
0
  3

 72
65
 73
0
 40
0.0
  0
LTYPE
  5
15
100
AcDbSymbolTableRecord
100
AcDbLinetypeTableRecord
  2
ByLayer
 70
0
  3

 72
65
 73
0
 40
0.0
  0
LTYPE
  5
16
100
AcDbSymbolTableRecord
100
AcDbLinetypeTableRecord
  2
CONTINUOUS
 70
0
  3
Solid line
 72
65
 73
0
 40
0.0
  0
LTYPE
  5
31
100
AcDbSymbolTableRecord
100
AcDbLinetypeTableRecord
  2
DOT
 70
0
  3
Dot . . . . . . . . . . . . . . . . . . . . . .
 72
65
 73
2
 40
6.3499999999999996
 49
0.0
 74
0
 49
-6.3499999999999996
 74
0
  0
LTYPE
  5
32
100
AcDbSymbolTableRecord
100
AcDbLinetypeTableRecord
  2
DOT2
 70
0
  3
Dot (.5x) .....................................
 72
65
 73
2
 40
3.1749999999999998
 49
0.0
 74
0
 49
-3.1749999999999998
 74
0
  0
LTYPE
  5
33
100
AcDbSymbolTableRecord
100
AcDbLinetypeTableRecord
  2
DOTX2
 70
0
  3
Dot (2x) .  .  .  .  .  .  .  .  .  .  .  .  .
 72
65
 73
2
 40
12.6999999999999993
 49
0.0
 74
0
 49
-12.6999999999999993
 74
0
  0
LTYPE
  5
34
100
AcDbSymbolTableRecord
100
AcDbLinetypeTableRecord
  2
DASHED
 70
0
  3
Dashed __ __ __ __ __ __ __ __ __ __ __ __ __ _
 72
65
 73
2
 40
19.0500000000000007
 49
12.6999999999999993
 74
0
 49
-6.3499999999999996
 74
0
  0
LTYPE
  5
35
100
AcDbSymbolTableRecord
100
AcDbLinetypeTableRecord
  2
DASHED2
 70
0
  3
Dashed (.5x) _ _ _ _ _ _ _ _ _ _ _ _ _ _ _ _ _
 72
65
 73
2
 40
9.5250000000000004
 49
6.3499999999999996
 74
0
 49
-3.1749999999999998
 74
0
  0
LTYPE
  5
36
100
AcDbSymbolTableRecord
100
AcDbLinetypeTableRecord
  2
DASHEDX2
 70
0
  3
Dashed (2x) ____  ____  ____  ____  ____  ___
 72
65
 73
2
 40
38.1000000000000014
 49
25.3999999999999986
 74
0
 49
-12.6999999999999993
 74
0
  0
LTYPE
  5
37
100
AcDbSymbolTableRecord
100
AcDbLinetypeTableRecord
  2
DASHDOT
 70
0
  3
Dash dot __ . __ . __ . __ . __ . __ . __ . __
 72
65
 73
4
 40
25.3999999999999986
 49
12.6999999999999993
 74
0
 49
-6.3499999999999996
 74
0
 49
0.0
 74
0
 49
-6.3499999999999996
 74
0
  0
LTYPE
  5
38
100
AcDbSymbolTableRecord
100
AcDbLinetypeTableRecord
  2
DASHDOT2
 70
0
  3
Dash dot (.5x) _._._._._._._._._._._._._._._.
 72
65
 73
4
 40
12.6999999999999993
 49
6.3499999999999996
 74
0
 49
-3.1749999999999998
 74
0
 49
0.0
 74
0
 49
-3.1749999999999998
 74
0
  0
LTYPE
  5
39
100
AcDbSymbolTableRecord
100
AcDbLinetypeTableRecord
  2
DASHDOTX2
 70
0
  3
Dash dot (2x) ____  .  ____  .  ____  .  ___
 72
65
 73
4
 40
50.7999999999999972
 49
25.3999999999999986
 74
0
 49
-12.6999999999999993
 74
0
 49
0.0
 74
0
 49
-12.6999999999999993
 74
0
  0
LTYPE
  5
3A
100
AcDbSymbolTableRecord
100
AcDbLinetypeTableRecord
  2
DIVIDE
 70
0
  3
Divide ____ . . ____ . . ____ . . ____ . . ____
 72
65
 73
6
 40
31.75
 49
12.6999999999999993
 74
0
 49
-6.3499999999999996
 74
0
 49
0.0
 74
0
 49
-6.3499999999999996
 74
0
 49
0.0
 74
0
 49
-6.3499999999999996
 74
0
  0
LTYPE
  5
3B
100
AcDbSymbolTableRecord
100
AcDbLinetypeTableRecord
  2
DIVIDE2
 70
0
  3
Divide (.5x) __..__..__..__..__..__..__..__.._
 72
65
 73
6
 40
15.875
 49
6.3499999999999996
 74
0
 49
-3.1749999999999998
 74
0
 49
0.0
 74
0
 49
-3.1749999999999998
 74
0
 49
0.0
 74
0
 49
-3.1749999999999998
 74
0
  0
LTYPE
  5
3C
100
AcDbSymbolTableRecord
100
AcDbLinetypeTableRecord
  2
DIVIDEX2
 70
0
  3
Divide (2x) ________  .  .  ________  .  .  _
 72
65
 73
6
 40
63.5
 49
25.3999999999999986
 74
0
 49
-12.6999999999999993
 74
0
 49
0.0
 74
0
 49
-12.6999999999999993
 74
0
 49
0.0
 74
0
 49
-12.6999999999999993
 74
0
  0
LTYPE
  5
3D
100
AcDbSymbolTableRecord
100
AcDbLinetypeTableRecord
  2
CENTER
 70
0
  3
Center ____ _ ____ _ ____ _ ____ _ ____ _ ____
 72
65
 73
4
 40
50.7999999999999972
 49
31.75
 74
0
 49
-6.3499999999999996
 74
0
 49
6.3499999999999996
 74
0
 49
-6.3499999999999996
 74
0
  0
LTYPE
  5
3E
100
AcDbSymbolTableRecord
100
AcDbLinetypeTableRecord
  2
CENTER2
 70
0
  3
Center (.5x) ___ _ ___ _ ___ _ ___ _ ___ _ ___
 72
65
 73
4
 40
28.5749999999999993
 49
19.0500000000000007
 74
0
 49
-3.1749999999999998
 74
0
 49
3.1749999999999998
 74
0
 49
-3.1749999999999998
 74
0
  0
LTYPE
  5
3F
100
AcDbSymbolTableRecord
100
AcDbLinetypeTableRecord
  2
CENTERX2
 70
0
  3
Center (2x) ________  __  ________  __  _____
 72
65
 73
4
 40
101.5999999999999943
 49
63.5
 74
0
 49
-12.6999999999999993
 74
0
 49
12.6999999999999993
 74
0
 49
-12.6999999999999993
 74
0
  0
LTYPE
  5
40
100
AcDbSymbolTableRecord
100
AcDbLinetypeTableRecord
  2
BORDER
 70
0
  3
Border __ __ . __ __ . __ __ . __ __ . __ __ .
 72
65
 73
6
 40
44.4500000000000028
 49
12.6999999999999993
 74
0
 49
-6.3499999999999996
 74
0
 49
12.6999999999999993
 74
0
 49
-6.3499999999999996
 74
0
 49
0.0
 74
0
 49
-6.3499999999999996
 74
0
  0
LTYPE
  5
41
100
AcDbSymbolTableRecord
100
AcDbLinetypeTableRecord
  2
BORDER2
 70
0
  3
Border (.5x) __.__.__.__.__.__.__.__.__.__.__.
 72
65
 73
6
 40
22.2250000000000014
 49
6.3499999999999996
 74
0
 49
-3.1749999999999998
 74
0
 49
6.3499999999999996
 74
0
 49
-3.1749999999999998
 74
0
 49
0.0
 74
0
 49
-3.1749999999999998
 74
0
  0
LTYPE
  5
42
100
AcDbSymbolTableRecord
100
AcDbLinetypeTableRecord
  2
BORDERX2
 70
0
  3
Border (2x) ____  ____  .  ____  ____  .  ___
 72
65
 73
6
 40
88.9000000000000057
 49
25.3999999999999986
 74
0
 49
-12.6999999999999993
 74
0
 49
25.3999999999999986
 74
0
 49
-12.6999999999999993
 74
0
 49
0.0
 74
0
 49
-12.6999999999999993
 74
0
  0
ENDTAB
  0
TABLE
  2
LAYER
  5
2
100
AcDbSymbolTable
 70
6
  0
LAYER
  5
10
100
AcDbSymbolTableRecord
100
AcDbLayerTableRecord
  2
0
 70
1
 62
7
  6
CONTINUOUS
370
0
390
F
  0
LAYER
  5
43
100
AcDbSymbolTableRecord
100
AcDbLayerTableRecord
  2
Otwor
 70
1
 62
7
  6
CONTINUOUS
370
18
390
F
  0
LAYER
  5
44
100
AcDbSymbolTableRecord
100
AcDbLayerTableRecord
  2
Otwor wym.
 70
1
 62
1
  6
CONTINUOUS
370
0
390
F
  0
LAYER
  5
45
100
AcDbSymbolTableRecord
100
AcDbLayerTableRecord
  2
Krazyna wym.
 70
1
 62
1
  6
CONTINUOUS
370
0
390
F
  0
LAYER
  5
46
100
AcDbSymbolTableRecord
100
AcDbLayerTableRecord
  2
Krazyna
 70
1
 62
5
  6
CONTINUOUS
370
0
390
F
  0
LAYER
  5
47
100
AcDbSymbolTableRecord
100
AcDbLayerTableRecord
  2
Kraz-zewn
 70
0
 62
7
  6
CONTINUOUS
370
0
390
F
  0
ENDTAB
  0
TABLE
  2
STYLE
  5
3
100
AcDbSymbolTable
 70
1
  0
STYLE
  5
11
100
AcDbSymbolTableRecord
100
AcDbTextStyleTableRecord
  2
Standard
 70
0
 40
0.0
 41
0.75
 50
0.0
 71
0
 42
2.5
  3
txt
  4

  0
ENDTAB
  0
TABLE
  2
VIEW
  5
6
100
AcDbSymbolTable
 70
0
  0
ENDTAB
  0
TABLE
  2
UCS
  5
7
100
AcDbSymbolTable
 70
0
  0
ENDTAB
  0
TABLE
  2
APPID
  5
9
100
AcDbSymbolTable
 70
1
  0
APPID
  5
12
100
AcDbSymbolTableRecord
100
AcDbRegAppTableRecord
  2
ACAD
 70
0
  0
ENDTAB
  0
TABLE
  2
DIMSTYLE
  5
A
100
AcDbSymbolTable
 70
1
100
AcDbDimStyleTable
 71
0
  0
DIMSTYLE
105
27
100
AcDbSymbolTableRecord
100
AcDbDimStyleTableRecord
  2
Standard
 41
2.5
 42
0.625
 43
3.75
 44
1.25
 70
0
 73
0
 74
0
 77
1
 78
8
140
2.5
141
2.5
143
0.03937007874016
147
0.625
171
3
172
1
271
2
272
2
274
3
278
44
283
0
284
8
340
11
  0
ENDTAB
  0
TABLE
  2
BLOCK_RECORD
  5
1
100
AcDbSymbolTable
 70
1
  0
BLOCK_RECORD
  5
1F
100
AcDbSymbolTableRecord
100
AcDbBlockTableRecord
  2
*Model_Space
340
22
  0
BLOCK_RECORD
  5
1B
100
AcDbSymbolTableRecord
100
AcDbBlockTableRecord
  2
*Paper_Space
340
1E
  0
BLOCK_RECORD
  5
23
100
AcDbSymbolTableRecord
100
AcDbBlockTableRecord
  2
*Paper_Space0
340
26
  0
ENDTAB
  0
ENDSEC
  0
SECTION
  2
BLOCKS
  0
BLOCK
  5
20
100
AcDbEntity
  8
0
100
AcDbBlockBegin
  2
*Model_Space
 70
0
 10
0.0
 20
0.0
 30
0.0
  3
*Model_Space
  1

  0
ENDBLK
  5
21
100
AcDbEntity
  8
0
100
AcDbBlockEnd
  0
BLOCK
  5
1C
100
AcDbEntity
 67
1
  8
0
100
AcDbBlockBegin
  2
*Paper_Space
 70
0
 10
0.0
 20
0.0
 30
0.0
  3
*Paper_Space
  1

  0
ENDBLK
  5
1D
100
AcDbEntity
 67
1
  8
0
100
AcDbBlockEnd
  0
BLOCK
  5
24
100
AcDbEntity
  8
0
100
AcDbBlockBegin
  2
*Paper_Space0
 70
0
 10
0.0
 20
0.0
 30
0.0
  3
*Paper_Space0
  1

  0
ENDBLK
  5
25
100
AcDbEntity
  8
0
100
AcDbBlockEnd
  0
ENDSEC
  0
SECTION
  2
ENTITIES
  0
LINE
  5
48
100
AcDbEntity
100
AcDbLine
  8
Otwor
 62
256
370
-1
  6
ByLayer
 10
-11.9999999999999929
 20
113.25
 30
0.0
 11
-4.509134131849061
 21
113.25
 31
0.0
  0
LINE
  5
49
100
AcDbEntity
100
AcDbLine
  8
Otwor
 62
256
370
-1
  6
ByLayer
 10
-11.9999999999999929
 20
106.75
 30
0.0
 11
-11.9999999999999929
 21
113.25
 31
0.0
  0
LINE
  5
4A
100
AcDbEntity
100
AcDbLine
  8
Otwor
 62
256
370
-1
  6
ByLayer
 10
0.0000000000000067
 20
110.0
 30
0.0
 11
-4.509134131849061
 21
113.25
 31
0.0
  0
LINE
  5
4B
100
AcDbEntity
100
AcDbLine
  8
Otwor
 62
256
370
-1
  6
ByLayer
 10
-13.1999999999999922
 20
106.75
 30
0.0
 11
-13.1999999999999922
 21
113.25
 31
0.0
  0
LINE
  5
4C
100
AcDbEntity
100
AcDbLine
  8
Otwor
 62
256
370
-1
  6
ByLayer
 10
-25.1999999999999922
 20
106.75
 30
0.0
 11
-25.1999999999999922
 21
113.25
 31
0.0
  0
LINE
  5
4D
100
AcDbEntity
100
AcDbLine
  8
Otwor
 62
256
370
-1
  6
ByLayer
 10
-26.3999999999999915
 20
106.75
 30
0.0
 11
-26.3999999999999915
 21
113.25
 31
0.0
  0
LINE
  5
4E
100
AcDbEntity
100
AcDbLine
  8
Otwor
 62
256
370
-1
  6
ByLayer
 10
-38.3999999999999915
 20
106.75
 30
0.0
 11
-38.3999999999999915
 21
113.25
 31
0.0
  0
LINE
  5
4F
100
AcDbEntity
100
AcDbLine
  8
Otwor
 62
256
370
-1
  6
ByLayer
 10
-38.3999999999999915
 20
106.75
 30
0.0
 11
-26.3999999999999915
 21
106.75
 31
0.0
  0
LINE
  5
50
100
AcDbEntity
100
AcDbLine
  8
Otwor
 62
256
370
-1
  6
ByLayer
 10
-25.1999999999999922
 20
106.75
 30
0.0
 11
-13.1999999999999922
 21
106.75
 31
0.0
  0
LINE
  5
51
100
AcDbEntity
100
AcDbLine
  8
Otwor
 62
256
370
-1
  6
ByLayer
 10
-13.1999999999999922
 20
113.25
 30
0.0
 11
-25.1999999999999922
 21
113.25
 31
0.0
  0
LINE
  5
52
100
AcDbEntity
100
AcDbLine
  8
Otwor
 62
256
370
-1
  6
ByLayer
 10
-26.3999999999999915
 20
113.25
 30
0.0
 11
-38.3999999999999915
 21
113.25
 31
0.0
  0
LINE
  5
53
100
AcDbEntity
100
AcDbLine
  8
Otwor
 62
256
370
-1
  6
ByLayer
 10
-19.7999999999999936
 20
114.4500000000000028
 30
0.0
 11
-19.7999999999999936
 21
120.9500000000000028
 31
0.0
  0
LINE
  5
54
100
AcDbEntity
100
AcDbLine
  8
Otwor
 62
256
370
-1
  6
ByLayer
 10
-18.5999999999999908
 20
114.4500000000000028
 30
0.0
 11
-18.5999999999999908
 21
120.9500000000000028
 31
0.0
  0
LINE
  5
55
100
AcDbEntity
100
AcDbLine
  8
Otwor
 62
256
370
-1
  6
ByLayer
 10
-44.7999999999999972
 20
114.4500000000000028
 30
0.0
 11
-44.7999999999999972
 21
120.9500000000000028
 31
0.0
  0
LINE
  5
56
100
AcDbEntity
100
AcDbLine
  8
Otwor
 62
256
370
-1
  6
ByLayer
 10
-44.7999999999999972
 20
120.9500000000000028
 30
0.0
 11
-19.7999999999999936
 21
120.9500000000000028
 31
0.0
  0
LINE
  5
57
100
AcDbEntity
100
AcDbLine
  8
Otwor
 62
256
370
-1
  6
ByLayer
 10
-19.7999999999999936
 20
114.4500000000000028
 30
0.0
 11
-44.7999999999999972
 21
114.4500000000000028
 31
0.0
  0
LINE
  5
58
100
AcDbEntity
100
AcDbLine
  8
Otwor
 62
256
370
-1
  6
ByLayer
 10
-18.5999999999999908
 20
120.9500000000000028
 30
0.0
 11
-7.4232770192873563
 21
120.9500000000000028
 31
0.0
  0
LINE
  5
59
100
AcDbEntity
100
AcDbLine
  8
Otwor
 62
256
370
-1
  6
ByLayer
 10
-5.2917203560216315
 20
114.4500000000000028
 30
0.0
 11
-7.4232770192873563
 21
120.9500000000000028
 31
0.0
  0
LINE
  5
5A
100
AcDbEntity
100
AcDbLine
  8
Otwor
 62
256
370
-1
  6
ByLayer
 10
-18.5999999999999908
 20
114.4500000000000028
 30
0.0
 11
-5.2917203560216315
 21
114.4500000000000028
 31
0.0
  0
LINE
  5
5B
100
AcDbEntity
100
AcDbLine
  8
Otwor
 62
256
370
-1
  6
ByLayer
 10
-38.3999999999999915
 20
122.1500000000000057
 30
0.0
 11
-26.3999999999999915
 21
122.1500000000000057
 31
0.0
  0
LINE
  5
5C
100
AcDbEntity
100
AcDbLine
  8
Otwor
 62
256
370
-1
  6
ByLayer
 10
-25.1999999999999922
 20
122.1500000000000057
 30
0.0
 11
-13.1999999999999922
 21
122.1500000000000057
 31
0.0
  0
LINE
  5
5D
100
AcDbEntity
100
AcDbLine
  8
Otwor
 62
256
370
-1
  6
ByLayer
 10
-38.3999999999999915
 20
122.1500000000000057
 30
0.0
 11
-38.3999999999999915
 21
128.6500000000000057
 31
0.0
  0
LINE
  5
5E
100
AcDbEntity
100
AcDbLine
  8
Otwor
 62
256
370
-1
  6
ByLayer
 10
-38.3999999999999915
 20
128.6500000000000057
 30
0.0
 11
-26.3999999999999915
 21
128.6500000000000057
 31
0.0
  0
LINE
  5
5F
100
AcDbEntity
100
AcDbLine
  8
Otwor
 62
256
370
-1
  6
ByLayer
 10
-26.3999999999999915
 20
122.1500000000000057
 30
0.0
 11
-26.3999999999999915
 21
128.6500000000000057
 31
0.0
  0
LINE
  5
60
100
AcDbEntity
100
AcDbLine
  8
Otwor
 62
256
370
-1
  6
ByLayer
 10
-25.1999999999999922
 20
122.1500000000000057
 30
0.0
 11
-25.1999999999999922
 21
128.6500000000000057
 31
0.0
  0
LINE
  5
61
100
AcDbEntity
100
AcDbLine
  8
Otwor
 62
256
370
-1
  6
ByLayer
 10
-13.1999999999999922
 20
122.1500000000000057
 30
0.0
 11
-13.1999999999999922
 21
128.6500000000000057
 31
0.0
  0
LINE
  5
62
100
AcDbEntity
100
AcDbLine
  8
Otwor
 62
256
370
-1
  6
ByLayer
 10
-31.7999999999999901
 20
129.8499999999999943
 30
0.0
 11
-31.7999999999999901
 21
136.3499999999999943
 31
0.0
  0
LINE
  5
63
100
AcDbEntity
100
AcDbLine
  8
Otwor
 62
256
370
-1
  6
ByLayer
 10
-57.9999999999999929
 20
129.8499999999999943
 30
0.0
 11
-57.9999999999999929
 21
136.3499999999999943
 31
0.0
  0
LINE
  5
64
100
AcDbEntity
100
AcDbLine
  8
Otwor
 62
256
370
-1
  6
ByLayer
 10
-57.9999999999999929
 20
129.8499999999999943
 30
0.0
 11
-32.9999999999999929
 21
129.8499999999999943
 31
0.0
  0
LINE
  5
65
100
AcDbEntity
100
AcDbLine
  8
Otwor
 62
256
370
-1
  6
ByLayer
 10
-57.9999999999999929
 20
136.3499999999999943
 30
0.0
 11
-32.9999999999999929
 21
136.3499999999999943
 31
0.0
  0
LINE
  5
66
100
AcDbEntity
100
AcDbLine
  8
Otwor
 62
256
370
-1
  6
ByLayer
 10
-32.9999999999999929
 20
129.8499999999999943
 30
0.0
 11
-32.9999999999999929
 21
136.3499999999999943
 31
0.0
  0
LINE
  5
67
100
AcDbEntity
100
AcDbLine
  8
Otwor
 62
256
370
-1
  6
ByLayer
 10
-11.9999999999999929
 20
128.6500000000000057
 30
0.0
 11
-9.7577379970636677
 21
128.6500000000000057
 31
0.0
  0
LINE
  5
68
100
AcDbEntity
100
AcDbLine
  8
Otwor
 62
256
370
-1
  6
ByLayer
 10
-11.9999999999999929
 20
122.1500000000000057
 30
0.0
 11
-11.9999999999999929
 21
128.6500000000000057
 31
0.0
  0
LINE
  5
69
100
AcDbEntity
100
AcDbLine
  8
Otwor
 62
256
370
-1
  6
ByLayer
 10
-25.1999999999999922
 20
128.6500000000000057
 30
0.0
 11
-13.1999999999999922
 21
128.6500000000000057
 31
0.0
  0
LINE
  5
6A
100
AcDbEntity
100
AcDbLine
  8
Otwor
 62
256
370
-1
  6
ByLayer
 10
-11.9999999999999929
 20
122.1500000000000057
 30
0.0
 11
-7.6331601988610354
 21
122.1500000000000057
 31
0.0
  0
LINE
  5
6B
100
AcDbEntity
100
AcDbLine
  8
Otwor
 62
256
370
-1
  6
ByLayer
 10
-9.7577379970636677
 20
128.6500000000000057
 30
0.0
 11
-7.6331601988610354
 21
122.1500000000000057
 31
0.0
  0
LINE
  5
6C
100
AcDbEntity
100
AcDbLine
  8
Otwor
 62
256
370
-1
  6
ByLayer
 10
-31.7999999999999901
 20
136.3499999999999943
 30
0.0
 11
-12.2745455426267807
 21
136.3499999999999943
 31
0.0
  0
LINE
  5
6D
100
AcDbEntity
100
AcDbLine
  8
Otwor
 62
256
370
-1
  6
ByLayer
 10
-12.2745455426267807
 20
136.3499999999999943
 30
0.0
 11
-10.1499677444241492
 21
129.8499999999999943
 31
0.0
  0
LINE
  5
6E
100
AcDbEntity
100
AcDbLine
  8
Otwor
 62
256
370
-1
  6
ByLayer
 10
-31.7999999999999901
 20
129.8499999999999943
 30
0.0
 11
-10.1499677444241492
 21
129.8499999999999943
 31
0.0
  0
LINE
  5
6F
100
AcDbEntity
100
AcDbLine
  8
Otwor
 62
256
370
-1
  6
ByLayer
 10
-18.5999999999999908
 20
99.0499999999999972
 30
0.0
 11
0.0000000000000051
 21
99.0499999999999972
 31
0.0
  0
LINE
  5
70
100
AcDbEntity
100
AcDbLine
  8
Otwor
 62
256
370
-1
  6
ByLayer
 10
-18.5999999999999908
 20
99.0499999999999972
 30
0.0
 11
-18.5999999999999908
 21
105.5499999999999972
 31
0.0
  0
LINE
  5
71
100
AcDbEntity
100
AcDbLine
  8
Otwor
 62
256
370
-1
  6
ByLayer
 10
-18.5999999999999908
 20
105.5499999999999972
 30
0.0
 11
0.0000000000000063
 21
105.5499999999999972
 31
0.0
  0
LINE
  5
72
100
AcDbEntity
100
AcDbLine
  8
Otwor
 62
256
370
-1
  6
ByLayer
 10
-19.7999999999999936
 20
99.0499999999999972
 30
0.0
 11
-19.7999999999999936
 21
105.5499999999999972
 31
0.0
  0
LINE
  5
73
100
AcDbEntity
100
AcDbLine
  8
Otwor
 62
256
370
-1
  6
ByLayer
 10
-32.9999999999999929
 20
99.0499999999999972
 30
0.0
 11
-32.9999999999999929
 21
105.5499999999999972
 31
0.0
  0
LINE
  5
74
100
AcDbEntity
100
AcDbLine
  8
Otwor
 62
256
370
-1
  6
ByLayer
 10
-31.7999999999999901
 20
99.0499999999999972
 30
0.0
 11
-19.7999999999999936
 21
99.0499999999999972
 31
0.0
  0
LINE
  5
75
100
AcDbEntity
100
AcDbLine
  8
Otwor
 62
256
370
-1
  6
ByLayer
 10
-31.7999999999999901
 20
99.0499999999999972
 30
0.0
 11
-31.7999999999999901
 21
105.5499999999999972
 31
0.0
  0
LINE
  5
76
100
AcDbEntity
100
AcDbLine
  8
Otwor
 62
256
370
-1
  6
ByLayer
 10
-31.7999999999999901
 20
105.5499999999999972
 30
0.0
 11
-19.7999999999999936
 21
105.5499999999999972
 31
0.0
  0
LINE
  5
77
100
AcDbEntity
100
AcDbLine
  8
Otwor
 62
256
370
-1
  6
ByLayer
 10
-57.9999999999999929
 20
105.5499999999999972
 30
0.0
 11
-32.9999999999999929
 21
105.5499999999999972
 31
0.0
  0
LINE
  5
78
100
AcDbEntity
100
AcDbLine
  8
Otwor
 62
256
370
-1
  6
ByLayer
 10
-57.9999999999999929
 20
99.0499999999999972
 30
0.0
 11
-32.9999999999999929
 21
99.0499999999999972
 31
0.0
  0
LINE
  5
79
100
AcDbEntity
100
AcDbLine
  8
Otwor
 62
256
370
-1
  6
ByLayer
 10
-57.9999999999999929
 20
105.5499999999999972
 30
0.0
 11
-57.9999999999999929
 21
99.0499999999999972
 31
0.0
  0
LINE
  5
7A
100
AcDbEntity
100
AcDbLine
  8
Otwor
 62
256
370
-1
  6
ByLayer
 10
-51.5999999999999943
 20
122.1500000000000057
 30
0.0
 11
-39.5999999999999943
 21
122.1500000000000057
 31
0.0
  0
LINE
  5
7B
100
AcDbEntity
100
AcDbLine
  8
Otwor
 62
256
370
-1
  6
ByLayer
 10
-51.5999999999999943
 20
122.1500000000000057
 30
0.0
 11
-51.5999999999999943
 21
128.6500000000000057
 31
0.0
  0
LINE
  5
7C
100
AcDbEntity
100
AcDbLine
  8
Otwor
 62
256
370
-1
  6
ByLayer
 10
-51.5999999999999943
 20
128.6500000000000057
 30
0.0
 11
-39.5999999999999943
 21
128.6500000000000057
 31
0.0
  0
LINE
  5
7D
100
AcDbEntity
100
AcDbLine
  8
Otwor
 62
256
370
-1
  6
ByLayer
 10
-39.5999999999999943
 20
122.1500000000000057
 30
0.0
 11
-39.5999999999999943
 21
128.6500000000000057
 31
0.0
  0
LINE
  5
7E
100
AcDbEntity
100
AcDbLine
  8
Otwor
 62
256
370
-1
  6
ByLayer
 10
-39.5999999999999943
 20
106.75
 30
0.0
 11
-39.5999999999999943
 21
113.25
 31
0.0
  0
LINE
  5
7F
100
AcDbEntity
100
AcDbLine
  8
Otwor
 62
256
370
-1
  6
ByLayer
 10
-51.5999999999999943
 20
106.75
 30
0.0
 11
-51.5999999999999943
 21
113.25
 31
0.0
  0
LINE
  5
80
100
AcDbEntity
100
AcDbLine
  8
Otwor
 62
256
370
-1
  6
ByLayer
 10
-51.5999999999999943
 20
106.75
 30
0.0
 11
-39.5999999999999943
 21
106.75
 31
0.0
  0
LINE
  5
81
100
AcDbEntity
100
AcDbLine
  8
Otwor
 62
256
370
-1
  6
ByLayer
 10
-39.5999999999999943
 20
113.25
 30
0.0
 11
-51.5999999999999943
 21
113.25
 31
0.0
  0
LINE
  5
82
100
AcDbEntity
100
AcDbLine
  8
Otwor
 62
256
370
-1
  6
ByLayer
 10
-11.9999999999999929
 20
106.75
 30
0.0
 11
0.0000000000000065
 21
106.75
 31
0.0
  0
LINE
  5
83
100
AcDbEntity
100
AcDbLine
  8
Otwor
 62
256
370
-1
  6
ByLayer
 10
0.0000000000000063
 20
105.5499999999999972
 30
0.0
 11
0.0000000000000051
 21
99.0499999999999972
 31
0.0
  0
LINE
  5
84
100
AcDbEntity
100
AcDbLine
  8
Otwor
 62
256
370
-1
  6
ByLayer
 10
-18.5999999999999908
 20
68.25
 30
0.0
 11
0.0000000000000051
 21
68.25
 31
0.0
  0
LINE
  5
85
100
AcDbEntity
100
AcDbLine
  8
Otwor
 62
256
370
-1
  6
ByLayer
 10
-18.5999999999999908
 20
68.25
 30
0.0
 11
-18.5999999999999908
 21
74.75
 31
0.0
  0
LINE
  5
86
100
AcDbEntity
100
AcDbLine
  8
Otwor
 62
256
370
-1
  6
ByLayer
 10
-18.5999999999999908
 20
74.75
 30
0.0
 11
0.0000000000000063
 21
74.75
 31
0.0
  0
LINE
  5
87
100
AcDbEntity
100
AcDbLine
  8
Otwor
 62
256
370
-1
  6
ByLayer
 10
-19.7999999999999936
 20
68.25
 30
0.0
 11
-19.7999999999999936
 21
74.75
 31
0.0
  0
LINE
  5
88
100
AcDbEntity
100
AcDbLine
  8
Otwor
 62
256
370
-1
  6
ByLayer
 10
-32.9999999999999929
 20
68.25
 30
0.0
 11
-32.9999999999999929
 21
74.75
 31
0.0
  0
LINE
  5
89
100
AcDbEntity
100
AcDbLine
  8
Otwor
 62
256
370
-1
  6
ByLayer
 10
-31.7999999999999901
 20
68.25
 30
0.0
 11
-19.7999999999999936
 21
68.25
 31
0.0
  0
LINE
  5
8A
100
AcDbEntity
100
AcDbLine
  8
Otwor
 62
256
370
-1
  6
ByLayer
 10
-31.7999999999999901
 20
68.25
 30
0.0
 11
-31.7999999999999901
 21
74.75
 31
0.0
  0
LINE
  5
8B
100
AcDbEntity
100
AcDbLine
  8
Otwor
 62
256
370
-1
  6
ByLayer
 10
-31.7999999999999901
 20
74.75
 30
0.0
 11
-19.7999999999999936
 21
74.75
 31
0.0
  0
LINE
  5
8C
100
AcDbEntity
100
AcDbLine
  8
Otwor
 62
256
370
-1
  6
ByLayer
 10
-57.9999999999999929
 20
74.75
 30
0.0
 11
-32.9999999999999929
 21
74.75
 31
0.0
  0
LINE
  5
8D
100
AcDbEntity
100
AcDbLine
  8
Otwor
 62
256
370
-1
  6
ByLayer
 10
-57.9999999999999929
 20
68.25
 30
0.0
 11
-32.9999999999999929
 21
68.25
 31
0.0
  0
LINE
  5
8E
100
AcDbEntity
100
AcDbLine
  8
Otwor
 62
256
370
-1
  6
ByLayer
 10
-57.9999999999999929
 20
74.75
 30
0.0
 11
-57.9999999999999929
 21
68.25
 31
0.0
  0
LINE
  5
8F
100
AcDbEntity
100
AcDbLine
  8
Otwor
 62
256
370
-1
  6
ByLayer
 10
0.0000000000000063
 20
74.75
 30
0.0
 11
0.0000000000000051
 21
68.25
 31
0.0
  0
LINE
  5
90
100
AcDbEntity
100
AcDbLine
  8
Otwor
 62
256
370
-1
  6
ByLayer
 10
-18.5999999999999908
 20
37.4500000000000028
 30
0.0
 11
0.0000000000000051
 21
37.4500000000000028
 31
0.0
  0
LINE
  5
91
100
AcDbEntity
100
AcDbLine
  8
Otwor
 62
256
370
-1
  6
ByLayer
 10
-18.5999999999999908
 20
37.4500000000000028
 30
0.0
 11
-18.5999999999999908
 21
43.9500000000000028
 31
0.0
  0
LINE
  5
92
100
AcDbEntity
100
AcDbLine
  8
Otwor
 62
256
370
-1
  6
ByLayer
 10
-18.5999999999999908
 20
43.9500000000000028
 30
0.0
 11
0.0000000000000063
 21
43.9500000000000028
 31
0.0
  0
LINE
  5
93
100
AcDbEntity
100
AcDbLine
  8
Otwor
 62
256
370
-1
  6
ByLayer
 10
-19.7999999999999936
 20
37.4500000000000028
 30
0.0
 11
-19.7999999999999936
 21
43.9500000000000028
 31
0.0
  0
LINE
  5
94
100
AcDbEntity
100
AcDbLine
  8
Otwor
 62
256
370
-1
  6
ByLayer
 10
-32.9999999999999929
 20
37.4500000000000028
 30
0.0
 11
-32.9999999999999929
 21
43.9500000000000028
 31
0.0
  0
LINE
  5
95
100
AcDbEntity
100
AcDbLine
  8
Otwor
 62
256
370
-1
  6
ByLayer
 10
-31.7999999999999901
 20
37.4500000000000028
 30
0.0
 11
-19.7999999999999936
 21
37.4500000000000028
 31
0.0
  0
LINE
  5
96
100
AcDbEntity
100
AcDbLine
  8
Otwor
 62
256
370
-1
  6
ByLayer
 10
-31.7999999999999901
 20
37.4500000000000028
 30
0.0
 11
-31.7999999999999901
 21
43.9500000000000028
 31
0.0
  0
LINE
  5
97
100
AcDbEntity
100
AcDbLine
  8
Otwor
 62
256
370
-1
  6
ByLayer
 10
-31.7999999999999901
 20
43.9500000000000028
 30
0.0
 11
-19.7999999999999936
 21
43.9500000000000028
 31
0.0
  0
LINE
  5
98
100
AcDbEntity
100
AcDbLine
  8
Otwor
 62
256
370
-1
  6
ByLayer
 10
-57.9999999999999929
 20
43.9500000000000028
 30
0.0
 11
-32.9999999999999929
 21
43.9500000000000028
 31
0.0
  0
LINE
  5
99
100
AcDbEntity
100
AcDbLine
  8
Otwor
 62
256
370
-1
  6
ByLayer
 10
-57.9999999999999929
 20
37.4500000000000028
 30
0.0
 11
-32.9999999999999929
 21
37.4500000000000028
 31
0.0
  0
LINE
  5
9A
100
AcDbEntity
100
AcDbLine
  8
Otwor
 62
256
370
-1
  6
ByLayer
 10
-57.9999999999999929
 20
43.9500000000000028
 30
0.0
 11
-57.9999999999999929
 21
37.4500000000000028
 31
0.0
  0
LINE
  5
9B
100
AcDbEntity
100
AcDbLine
  8
Otwor
 62
256
370
-1
  6
ByLayer
 10
0.0000000000000063
 20
43.9500000000000028
 30
0.0
 11
0.0000000000000051
 21
37.4500000000000028
 31
0.0
  0
LINE
  5
9C
100
AcDbEntity
100
AcDbLine
  8
Otwor
 62
256
370
-1
  6
ByLayer
 10
-18.5999999999999908
 20
6.6500000000000057
 30
0.0
 11
0.0000000000000051
 21
6.6500000000000057
 31
0.0
  0
LINE
  5
9D
100
AcDbEntity
100
AcDbLine
  8
Otwor
 62
256
370
-1
  6
ByLayer
 10
-18.5999999999999908
 20
6.6500000000000057
 30
0.0
 11
-18.5999999999999908
 21
13.1500000000000057
 31
0.0
  0
LINE
  5
9E
100
AcDbEntity
100
AcDbLine
  8
Otwor
 62
256
370
-1
  6
ByLayer
 10
-18.5999999999999908
 20
13.1500000000000057
 30
0.0
 11
0.0000000000000063
 21
13.1500000000000057
 31
0.0
  0
LINE
  5
9F
100
AcDbEntity
100
AcDbLine
  8
Otwor
 62
256
370
-1
  6
ByLayer
 10
-19.7999999999999936
 20
6.6500000000000057
 30
0.0
 11
-19.7999999999999936
 21
13.1500000000000057
 31
0.0
  0
LINE
  5
A0
100
AcDbEntity
100
AcDbLine
  8
Otwor
 62
256
370
-1
  6
ByLayer
 10
-32.9999999999999929
 20
6.6500000000000057
 30
0.0
 11
-32.9999999999999929
 21
13.1500000000000057
 31
0.0
  0
LINE
  5
A1
100
AcDbEntity
100
AcDbLine
  8
Otwor
 62
256
370
-1
  6
ByLayer
 10
-31.7999999999999901
 20
6.6500000000000057
 30
0.0
 11
-19.7999999999999936
 21
6.6500000000000057
 31
0.0
  0
LINE
  5
A2
100
AcDbEntity
100
AcDbLine
  8
Otwor
 62
256
370
-1
  6
ByLayer
 10
-31.7999999999999901
 20
6.6500000000000057
 30
0.0
 11
-31.7999999999999901
 21
13.1500000000000057
 31
0.0
  0
LINE
  5
A3
100
AcDbEntity
100
AcDbLine
  8
Otwor
 62
256
370
-1
  6
ByLayer
 10
-31.7999999999999901
 20
13.1500000000000057
 30
0.0
 11
-19.7999999999999936
 21
13.1500000000000057
 31
0.0
  0
LINE
  5
A4
100
AcDbEntity
100
AcDbLine
  8
Otwor
 62
256
370
-1
  6
ByLayer
 10
-57.9999999999999929
 20
13.1500000000000057
 30
0.0
 11
-32.9999999999999929
 21
13.1500000000000057
 31
0.0
  0
LINE
  5
A5
100
AcDbEntity
100
AcDbLine
  8
Otwor
 62
256
370
-1
  6
ByLayer
 10
-57.9999999999999929
 20
6.6500000000000057
 30
0.0
 11
-32.9999999999999929
 21
6.6500000000000057
 31
0.0
  0
LINE
  5
A6
100
AcDbEntity
100
AcDbLine
  8
Otwor
 62
256
370
-1
  6
ByLayer
 10
-57.9999999999999929
 20
13.1500000000000057
 30
0.0
 11
-57.9999999999999929
 21
6.6500000000000057
 31
0.0
  0
LINE
  5
A7
100
AcDbEntity
100
AcDbLine
  8
Otwor
 62
256
370
-1
  6
ByLayer
 10
0.0000000000000063
 20
13.1500000000000057
 30
0.0
 11
0.0000000000000051
 21
6.6500000000000057
 31
0.0
  0
LINE
  5
A8
100
AcDbEntity
100
AcDbLine
  8
Otwor
 62
256
370
-1
  6
ByLayer
 10
-18.5999999999999908
 20
-24.1499999999999915
 30
0.0
 11
0.0000000000000051
 21
-24.1499999999999915
 31
0.0
  0
LINE
  5
A9
100
AcDbEntity
100
AcDbLine
  8
Otwor
 62
256
370
-1
  6
ByLayer
 10
-18.5999999999999908
 20
-24.1499999999999915
 30
0.0
 11
-18.5999999999999908
 21
-17.6499999999999915
 31
0.0
  0
LINE
  5
AA
100
AcDbEntity
100
AcDbLine
  8
Otwor
 62
256
370
-1
  6
ByLayer
 10
-18.5999999999999908
 20
-17.6499999999999915
 30
0.0
 11
0.0000000000000063
 21
-17.6499999999999915
 31
0.0
  0
LINE
  5
AB
100
AcDbEntity
100
AcDbLine
  8
Otwor
 62
256
370
-1
  6
ByLayer
 10
-19.7999999999999936
 20
-24.1499999999999915
 30
0.0
 11
-19.7999999999999936
 21
-17.6499999999999915
 31
0.0
  0
LINE
  5
AC
100
AcDbEntity
100
AcDbLine
  8
Otwor
 62
256
370
-1
  6
ByLayer
 10
-32.9999999999999929
 20
-24.1499999999999915
 30
0.0
 11
-32.9999999999999929
 21
-17.6499999999999915
 31
0.0
  0
LINE
  5
AD
100
AcDbEntity
100
AcDbLine
  8
Otwor
 62
256
370
-1
  6
ByLayer
 10
-31.7999999999999901
 20
-24.1499999999999915
 30
0.0
 11
-19.7999999999999936
 21
-24.1499999999999915
 31
0.0
  0
LINE
  5
AE
100
AcDbEntity
100
AcDbLine
  8
Otwor
 62
256
370
-1
  6
ByLayer
 10
-31.7999999999999901
 20
-24.1499999999999915
 30
0.0
 11
-31.7999999999999901
 21
-17.6499999999999915
 31
0.0
  0
LINE
  5
AF
100
AcDbEntity
100
AcDbLine
  8
Otwor
 62
256
370
-1
  6
ByLayer
 10
-31.7999999999999901
 20
-17.6499999999999915
 30
0.0
 11
-19.7999999999999936
 21
-17.6499999999999915
 31
0.0
  0
LINE
  5
B0
100
AcDbEntity
100
AcDbLine
  8
Otwor
 62
256
370
-1
  6
ByLayer
 10
-57.9999999999999929
 20
-17.6499999999999915
 30
0.0
 11
-32.9999999999999929
 21
-17.6499999999999915
 31
0.0
  0
LINE
  5
B1
100
AcDbEntity
100
AcDbLine
  8
Otwor
 62
256
370
-1
  6
ByLayer
 10
-57.9999999999999929
 20
-24.1499999999999915
 30
0.0
 11
-32.9999999999999929
 21
-24.1499999999999915
 31
0.0
  0
LINE
  5
B2
100
AcDbEntity
100
AcDbLine
  8
Otwor
 62
256
370
-1
  6
ByLayer
 10
-57.9999999999999929
 20
-17.6499999999999915
 30
0.0
 11
-57.9999999999999929
 21
-24.1499999999999915
 31
0.0
  0
LINE
  5
B3
100
AcDbEntity
100
AcDbLine
  8
Otwor
 62
256
370
-1
  6
ByLayer
 10
0.0000000000000063
 20
-17.6499999999999915
 30
0.0
 11
0.0000000000000051
 21
-24.1499999999999915
 31
0.0
  0
LINE
  5
B4
100
AcDbEntity
100
AcDbLine
  8
Otwor
 62
256
370
-1
  6
ByLayer
 10
-11.9999999999999929
 20
91.3499999999999943
 30
0.0
 11
-11.9999999999999929
 21
97.8499999999999943
 31
0.0
  0
LINE
  5
B5
100
AcDbEntity
100
AcDbLine
  8
Otwor
 62
256
370
-1
  6
ByLayer
 10
-13.1999999999999922
 20
91.3499999999999943
 30
0.0
 11
-13.1999999999999922
 21
97.8499999999999943
 31
0.0
  0
LINE
  5
B6
100
AcDbEntity
100
AcDbLine
  8
Otwor
 62
256
370
-1
  6
ByLayer
 10
-25.1999999999999922
 20
91.3499999999999943
 30
0.0
 11
-25.1999999999999922
 21
97.8499999999999943
 31
0.0
  0
LINE
  5
B7
100
AcDbEntity
100
AcDbLine
  8
Otwor
 62
256
370
-1
  6
ByLayer
 10
-26.3999999999999915
 20
91.3499999999999943
 30
0.0
 11
-26.3999999999999915
 21
97.8499999999999943
 31
0.0
  0
LINE
  5
B8
100
AcDbEntity
100
AcDbLine
  8
Otwor
 62
256
370
-1
  6
ByLayer
 10
-38.3999999999999915
 20
91.3499999999999943
 30
0.0
 11
-38.3999999999999915
 21
97.8499999999999943
 31
0.0
  0
LINE
  5
B9
100
AcDbEntity
100
AcDbLine
  8
Otwor
 62
256
370
-1
  6
ByLayer
 10
-38.3999999999999915
 20
91.3499999999999943
 30
0.0
 11
-26.3999999999999915
 21
91.3499999999999943
 31
0.0
  0
LINE
  5
BA
100
AcDbEntity
100
AcDbLine
  8
Otwor
 62
256
370
-1
  6
ByLayer
 10
-25.1999999999999922
 20
91.3499999999999943
 30
0.0
 11
-13.1999999999999922
 21
91.3499999999999943
 31
0.0
  0
LINE
  5
BB
100
AcDbEntity
100
AcDbLine
  8
Otwor
 62
256
370
-1
  6
ByLayer
 10
-13.1999999999999922
 20
97.8499999999999943
 30
0.0
 11
-25.1999999999999922
 21
97.8499999999999943
 31
0.0
  0
LINE
  5
BC
100
AcDbEntity
100
AcDbLine
  8
Otwor
 62
256
370
-1
  6
ByLayer
 10
-26.3999999999999915
 20
97.8499999999999943
 30
0.0
 11
-38.3999999999999915
 21
97.8499999999999943
 31
0.0
  0
LINE
  5
BD
100
AcDbEntity
100
AcDbLine
  8
Otwor
 62
256
370
-1
  6
ByLayer
 10
-39.5999999999999943
 20
91.3499999999999943
 30
0.0
 11
-39.5999999999999943
 21
97.8499999999999943
 31
0.0
  0
LINE
  5
BE
100
AcDbEntity
100
AcDbLine
  8
Otwor
 62
256
370
-1
  6
ByLayer
 10
-51.5999999999999943
 20
91.3499999999999943
 30
0.0
 11
-51.5999999999999943
 21
97.8499999999999943
 31
0.0
  0
LINE
  5
BF
100
AcDbEntity
100
AcDbLine
  8
Otwor
 62
256
370
-1
  6
ByLayer
 10
-51.5999999999999943
 20
91.3499999999999943
 30
0.0
 11
-39.5999999999999943
 21
91.3499999999999943
 31
0.0
  0
LINE
  5
C0
100
AcDbEntity
100
AcDbLine
  8
Otwor
 62
256
370
-1
  6
ByLayer
 10
-39.5999999999999943
 20
97.8499999999999943
 30
0.0
 11
-51.5999999999999943
 21
97.8499999999999943
 31
0.0
  0
LINE
  5
C1
100
AcDbEntity
100
AcDbLine
  8
Otwor
 62
256
370
-1
  6
ByLayer
 10
-11.9999999999999929
 20
91.3499999999999943
 30
0.0
 11
0.0000000000000065
 21
91.3499999999999943
 31
0.0
  0
LINE
  5
C2
100
AcDbEntity
100
AcDbLine
  8
Otwor
 62
256
370
-1
  6
ByLayer
 10
-11.9999999999999929
 20
97.8499999999999943
 30
0.0
 11
0.0000000000000069
 21
97.8499999999999943
 31
0.0
  0
LINE
  5
C3
100
AcDbEntity
100
AcDbLine
  8
Otwor
 62
256
370
-1
  6
ByLayer
 10
-11.9999999999999929
 20
75.9499999999999886
 30
0.0
 11
-11.9999999999999929
 21
82.4499999999999886
 31
0.0
  0
LINE
  5
C4
100
AcDbEntity
100
AcDbLine
  8
Otwor
 62
256
370
-1
  6
ByLayer
 10
-13.1999999999999922
 20
75.9499999999999886
 30
0.0
 11
-13.1999999999999922
 21
82.4499999999999886
 31
0.0
  0
LINE
  5
C5
100
AcDbEntity
100
AcDbLine
  8
Otwor
 62
256
370
-1
  6
ByLayer
 10
-25.1999999999999922
 20
75.9499999999999886
 30
0.0
 11
-25.1999999999999922
 21
82.4499999999999886
 31
0.0
  0
LINE
  5
C6
100
AcDbEntity
100
AcDbLine
  8
Otwor
 62
256
370
-1
  6
ByLayer
 10
-26.3999999999999915
 20
75.9499999999999886
 30
0.0
 11
-26.3999999999999915
 21
82.4499999999999886
 31
0.0
  0
LINE
  5
C7
100
AcDbEntity
100
AcDbLine
  8
Otwor
 62
256
370
-1
  6
ByLayer
 10
-38.3999999999999915
 20
75.9499999999999886
 30
0.0
 11
-38.3999999999999915
 21
82.4499999999999886
 31
0.0
  0
LINE
  5
C8
100
AcDbEntity
100
AcDbLine
  8
Otwor
 62
256
370
-1
  6
ByLayer
 10
-38.3999999999999915
 20
75.9499999999999886
 30
0.0
 11
-26.3999999999999915
 21
75.9499999999999886
 31
0.0
  0
LINE
  5
C9
100
AcDbEntity
100
AcDbLine
  8
Otwor
 62
256
370
-1
  6
ByLayer
 10
-25.1999999999999922
 20
75.9499999999999886
 30
0.0
 11
-13.1999999999999922
 21
75.9499999999999886
 31
0.0
  0
LINE
  5
CA
100
AcDbEntity
100
AcDbLine
  8
Otwor
 62
256
370
-1
  6
ByLayer
 10
-13.1999999999999922
 20
82.4499999999999886
 30
0.0
 11
-25.1999999999999922
 21
82.4499999999999886
 31
0.0
  0
LINE
  5
CB
100
AcDbEntity
100
AcDbLine
  8
Otwor
 62
256
370
-1
  6
ByLayer
 10
-26.3999999999999915
 20
82.4499999999999886
 30
0.0
 11
-38.3999999999999915
 21
82.4499999999999886
 31
0.0
  0
LINE
  5
CC
100
AcDbEntity
100
AcDbLine
  8
Otwor
 62
256
370
-1
  6
ByLayer
 10
-39.5999999999999943
 20
75.9499999999999886
 30
0.0
 11
-39.5999999999999943
 21
82.4499999999999886
 31
0.0
  0
LINE
  5
CD
100
AcDbEntity
100
AcDbLine
  8
Otwor
 62
256
370
-1
  6
ByLayer
 10
-51.5999999999999943
 20
75.9499999999999886
 30
0.0
 11
-51.5999999999999943
 21
82.4499999999999886
 31
0.0
  0
LINE
  5
CE
100
AcDbEntity
100
AcDbLine
  8
Otwor
 62
256
370
-1
  6
ByLayer
 10
-51.5999999999999943
 20
75.9499999999999886
 30
0.0
 11
-39.5999999999999943
 21
75.9499999999999886
 31
0.0
  0
LINE
  5
CF
100
AcDbEntity
100
AcDbLine
  8
Otwor
 62
256
370
-1
  6
ByLayer
 10
-39.5999999999999943
 20
82.4499999999999886
 30
0.0
 11
-51.5999999999999943
 21
82.4499999999999886
 31
0.0
  0
LINE
  5
D0
100
AcDbEntity
100
AcDbLine
  8
Otwor
 62
256
370
-1
  6
ByLayer
 10
-11.9999999999999929
 20
75.9499999999999886
 30
0.0
 11
0.0000000000000065
 21
75.9499999999999886
 31
0.0
  0
LINE
  5
D1
100
AcDbEntity
100
AcDbLine
  8
Otwor
 62
256
370
-1
  6
ByLayer
 10
-11.9999999999999929
 20
82.4499999999999886
 30
0.0
 11
0.0000000000000069
 21
82.4499999999999886
 31
0.0
  0
LINE
  5
D2
100
AcDbEntity
100
AcDbLine
  8
Otwor
 62
256
370
-1
  6
ByLayer
 10
-11.9999999999999929
 20
60.5499999999999829
 30
0.0
 11
-11.9999999999999929
 21
67.0499999999999829
 31
0.0
  0
LINE
  5
D3
100
AcDbEntity
100
AcDbLine
  8
Otwor
 62
256
370
-1
  6
ByLayer
 10
-13.1999999999999922
 20
60.5499999999999829
 30
0.0
 11
-13.1999999999999922
 21
67.0499999999999829
 31
0.0
  0
LINE
  5
D4
100
AcDbEntity
100
AcDbLine
  8
Otwor
 62
256
370
-1
  6
ByLayer
 10
-25.1999999999999922
 20
60.5499999999999829
 30
0.0
 11
-25.1999999999999922
 21
67.0499999999999829
 31
0.0
  0
LINE
  5
D5
100
AcDbEntity
100
AcDbLine
  8
Otwor
 62
256
370
-1
  6
ByLayer
 10
-26.3999999999999915
 20
60.5499999999999829
 30
0.0
 11
-26.3999999999999915
 21
67.0499999999999829
 31
0.0
  0
LINE
  5
D6
100
AcDbEntity
100
AcDbLine
  8
Otwor
 62
256
370
-1
  6
ByLayer
 10
-38.3999999999999915
 20
60.5499999999999829
 30
0.0
 11
-38.3999999999999915
 21
67.0499999999999829
 31
0.0
  0
LINE
  5
D7
100
AcDbEntity
100
AcDbLine
  8
Otwor
 62
256
370
-1
  6
ByLayer
 10
-38.3999999999999915
 20
60.5499999999999829
 30
0.0
 11
-26.3999999999999915
 21
60.5499999999999829
 31
0.0
  0
LINE
  5
D8
100
AcDbEntity
100
AcDbLine
  8
Otwor
 62
256
370
-1
  6
ByLayer
 10
-25.1999999999999922
 20
60.5499999999999829
 30
0.0
 11
-13.1999999999999922
 21
60.5499999999999829
 31
0.0
  0
LINE
  5
D9
100
AcDbEntity
100
AcDbLine
  8
Otwor
 62
256
370
-1
  6
ByLayer
 10
-13.1999999999999922
 20
67.0499999999999829
 30
0.0
 11
-25.1999999999999922
 21
67.0499999999999829
 31
0.0
  0
LINE
  5
DA
100
AcDbEntity
100
AcDbLine
  8
Otwor
 62
256
370
-1
  6
ByLayer
 10
-26.3999999999999915
 20
67.0499999999999829
 30
0.0
 11
-38.3999999999999915
 21
67.0499999999999829
 31
0.0
  0
LINE
  5
DB
100
AcDbEntity
100
AcDbLine
  8
Otwor
 62
256
370
-1
  6
ByLayer
 10
-39.5999999999999943
 20
60.5499999999999829
 30
0.0
 11
-39.5999999999999943
 21
67.0499999999999829
 31
0.0
  0
LINE
  5
DC
100
AcDbEntity
100
AcDbLine
  8
Otwor
 62
256
370
-1
  6
ByLayer
 10
-51.5999999999999943
 20
60.5499999999999829
 30
0.0
 11
-51.5999999999999943
 21
67.0499999999999829
 31
0.0
  0
LINE
  5
DD
100
AcDbEntity
100
AcDbLine
  8
Otwor
 62
256
370
-1
  6
ByLayer
 10
-51.5999999999999943
 20
60.5499999999999829
 30
0.0
 11
-39.5999999999999943
 21
60.5499999999999829
 31
0.0
  0
LINE
  5
DE
100
AcDbEntity
100
AcDbLine
  8
Otwor
 62
256
370
-1
  6
ByLayer
 10
-39.5999999999999943
 20
67.0499999999999829
 30
0.0
 11
-51.5999999999999943
 21
67.0499999999999829
 31
0.0
  0
LINE
  5
DF
100
AcDbEntity
100
AcDbLine
  8
Otwor
 62
256
370
-1
  6
ByLayer
 10
-11.9999999999999929
 20
60.5499999999999829
 30
0.0
 11
0.0000000000000065
 21
60.5499999999999829
 31
0.0
  0
LINE
  5
E0
100
AcDbEntity
100
AcDbLine
  8
Otwor
 62
256
370
-1
  6
ByLayer
 10
-11.9999999999999929
 20
67.0499999999999829
 30
0.0
 11
0.0000000000000069
 21
67.0499999999999829
 31
0.0
  0
LINE
  5
E1
100
AcDbEntity
100
AcDbLine
  8
Otwor
 62
256
370
-1
  6
ByLayer
 10
-11.9999999999999929
 20
45.1499999999999773
 30
0.0
 11
-11.9999999999999929
 21
51.6499999999999773
 31
0.0
  0
LINE
  5
E2
100
AcDbEntity
100
AcDbLine
  8
Otwor
 62
256
370
-1
  6
ByLayer
 10
-13.1999999999999922
 20
45.1499999999999773
 30
0.0
 11
-13.1999999999999922
 21
51.6499999999999773
 31
0.0
  0
LINE
  5
E3
100
AcDbEntity
100
AcDbLine
  8
Otwor
 62
256
370
-1
  6
ByLayer
 10
-25.1999999999999922
 20
45.1499999999999773
 30
0.0
 11
-25.1999999999999922
 21
51.6499999999999773
 31
0.0
  0
LINE
  5
E4
100
AcDbEntity
100
AcDbLine
  8
Otwor
 62
256
370
-1
  6
ByLayer
 10
-26.3999999999999915
 20
45.1499999999999773
 30
0.0
 11
-26.3999999999999915
 21
51.6499999999999773
 31
0.0
  0
LINE
  5
E5
100
AcDbEntity
100
AcDbLine
  8
Otwor
 62
256
370
-1
  6
ByLayer
 10
-38.3999999999999915
 20
45.1499999999999773
 30
0.0
 11
-38.3999999999999915
 21
51.6499999999999773
 31
0.0
  0
LINE
  5
E6
100
AcDbEntity
100
AcDbLine
  8
Otwor
 62
256
370
-1
  6
ByLayer
 10
-38.3999999999999915
 20
45.1499999999999773
 30
0.0
 11
-26.3999999999999915
 21
45.1499999999999773
 31
0.0
  0
LINE
  5
E7
100
AcDbEntity
100
AcDbLine
  8
Otwor
 62
256
370
-1
  6
ByLayer
 10
-25.1999999999999922
 20
45.1499999999999773
 30
0.0
 11
-13.1999999999999922
 21
45.1499999999999773
 31
0.0
  0
LINE
  5
E8
100
AcDbEntity
100
AcDbLine
  8
Otwor
 62
256
370
-1
  6
ByLayer
 10
-13.1999999999999922
 20
51.6499999999999773
 30
0.0
 11
-25.1999999999999922
 21
51.6499999999999773
 31
0.0
  0
LINE
  5
E9
100
AcDbEntity
100
AcDbLine
  8
Otwor
 62
256
370
-1
  6
ByLayer
 10
-26.3999999999999915
 20
51.6499999999999773
 30
0.0
 11
-38.3999999999999915
 21
51.6499999999999773
 31
0.0
  0
LINE
  5
EA
100
AcDbEntity
100
AcDbLine
  8
Otwor
 62
256
370
-1
  6
ByLayer
 10
-39.5999999999999943
 20
45.1499999999999773
 30
0.0
 11
-39.5999999999999943
 21
51.6499999999999773
 31
0.0
  0
LINE
  5
EB
100
AcDbEntity
100
AcDbLine
  8
Otwor
 62
256
370
-1
  6
ByLayer
 10
-51.5999999999999943
 20
45.1499999999999773
 30
0.0
 11
-51.5999999999999943
 21
51.6499999999999773
 31
0.0
  0
LINE
  5
EC
100
AcDbEntity
100
AcDbLine
  8
Otwor
 62
256
370
-1
  6
ByLayer
 10
-51.5999999999999943
 20
45.1499999999999773
 30
0.0
 11
-39.5999999999999943
 21
45.1499999999999773
 31
0.0
  0
LINE
  5
ED
100
AcDbEntity
100
AcDbLine
  8
Otwor
 62
256
370
-1
  6
ByLayer
 10
-39.5999999999999943
 20
51.6499999999999773
 30
0.0
 11
-51.5999999999999943
 21
51.6499999999999773
 31
0.0
  0
LINE
  5
EE
100
AcDbEntity
100
AcDbLine
  8
Otwor
 62
256
370
-1
  6
ByLayer
 10
-11.9999999999999929
 20
45.1499999999999773
 30
0.0
 11
0.0000000000000065
 21
45.1499999999999773
 31
0.0
  0
LINE
  5
EF
100
AcDbEntity
100
AcDbLine
  8
Otwor
 62
256
370
-1
  6
ByLayer
 10
-11.9999999999999929
 20
51.6499999999999773
 30
0.0
 11
0.0000000000000069
 21
51.6499999999999773
 31
0.0
  0
LINE
  5
F0
100
AcDbEntity
100
AcDbLine
  8
Otwor
 62
256
370
-1
  6
ByLayer
 10
-11.9999999999999929
 20
29.7499999999999716
 30
0.0
 11
-11.9999999999999929
 21
36.2499999999999716
 31
0.0
  0
LINE
  5
F1
100
AcDbEntity
100
AcDbLine
  8
Otwor
 62
256
370
-1
  6
ByLayer
 10
-13.1999999999999922
 20
29.7499999999999716
 30
0.0
 11
-13.1999999999999922
 21
36.2499999999999716
 31
0.0
  0
LINE
  5
F2
100
AcDbEntity
100
AcDbLine
  8
Otwor
 62
256
370
-1
  6
ByLayer
 10
-25.1999999999999922
 20
29.7499999999999716
 30
0.0
 11
-25.1999999999999922
 21
36.2499999999999716
 31
0.0
  0
LINE
  5
F3
100
AcDbEntity
100
AcDbLine
  8
Otwor
 62
256
370
-1
  6
ByLayer
 10
-26.3999999999999915
 20
29.7499999999999716
 30
0.0
 11
-26.3999999999999915
 21
36.2499999999999716
 31
0.0
  0
LINE
  5
F4
100
AcDbEntity
100
AcDbLine
  8
Otwor
 62
256
370
-1
  6
ByLayer
 10
-38.3999999999999915
 20
29.7499999999999716
 30
0.0
 11
-38.3999999999999915
 21
36.2499999999999716
 31
0.0
  0
LINE
  5
F5
100
AcDbEntity
100
AcDbLine
  8
Otwor
 62
256
370
-1
  6
ByLayer
 10
-38.3999999999999915
 20
29.7499999999999716
 30
0.0
 11
-26.3999999999999915
 21
29.7499999999999716
 31
0.0
  0
LINE
  5
F6
100
AcDbEntity
100
AcDbLine
  8
Otwor
 62
256
370
-1
  6
ByLayer
 10
-25.1999999999999922
 20
29.7499999999999716
 30
0.0
 11
-13.1999999999999922
 21
29.7499999999999716
 31
0.0
  0
LINE
  5
F7
100
AcDbEntity
100
AcDbLine
  8
Otwor
 62
256
370
-1
  6
ByLayer
 10
-13.1999999999999922
 20
36.2499999999999716
 30
0.0
 11
-25.1999999999999922
 21
36.2499999999999716
 31
0.0
  0
LINE
  5
F8
100
AcDbEntity
100
AcDbLine
  8
Otwor
 62
256
370
-1
  6
ByLayer
 10
-26.3999999999999915
 20
36.2499999999999716
 30
0.0
 11
-38.3999999999999915
 21
36.2499999999999716
 31
0.0
  0
LINE
  5
F9
100
AcDbEntity
100
AcDbLine
  8
Otwor
 62
256
370
-1
  6
ByLayer
 10
-39.5999999999999943
 20
29.7499999999999716
 30
0.0
 11
-39.5999999999999943
 21
36.2499999999999716
 31
0.0
  0
LINE
  5
FA
100
AcDbEntity
100
AcDbLine
  8
Otwor
 62
256
370
-1
  6
ByLayer
 10
-51.5999999999999943
 20
29.7499999999999716
 30
0.0
 11
-51.5999999999999943
 21
36.2499999999999716
 31
0.0
  0
LINE
  5
FB
100
AcDbEntity
100
AcDbLine
  8
Otwor
 62
256
370
-1
  6
ByLayer
 10
-51.5999999999999943
 20
29.7499999999999716
 30
0.0
 11
-39.5999999999999943
 21
29.7499999999999716
 31
0.0
  0
LINE
  5
FC
100
AcDbEntity
100
AcDbLine
  8
Otwor
 62
256
370
-1
  6
ByLayer
 10
-39.5999999999999943
 20
36.2499999999999716
 30
0.0
 11
-51.5999999999999943
 21
36.2499999999999716
 31
0.0
  0
LINE
  5
FD
100
AcDbEntity
100
AcDbLine
  8
Otwor
 62
256
370
-1
  6
ByLayer
 10
-11.9999999999999929
 20
29.7499999999999716
 30
0.0
 11
0.0000000000000065
 21
29.7499999999999716
 31
0.0
  0
LINE
  5
FE
100
AcDbEntity
100
AcDbLine
  8
Otwor
 62
256
370
-1
  6
ByLayer
 10
-11.9999999999999929
 20
36.2499999999999716
 30
0.0
 11
0.0000000000000069
 21
36.2499999999999716
 31
0.0
  0
LINE
  5
FF
100
AcDbEntity
100
AcDbLine
  8
Otwor
 62
256
370
-1
  6
ByLayer
 10
-11.9999999999999929
 20
14.3499999999999659
 30
0.0
 11
-11.9999999999999929
 21
20.8499999999999659
 31
0.0
  0
LINE
  5
100
100
AcDbEntity
100
AcDbLine
  8
Otwor
 62
256
370
-1
  6
ByLayer
 10
-13.1999999999999922
 20
14.3499999999999659
 30
0.0
 11
-13.1999999999999922
 21
20.8499999999999659
 31
0.0
  0
LINE
  5
101
100
AcDbEntity
100
AcDbLine
  8
Otwor
 62
256
370
-1
  6
ByLayer
 10
-25.1999999999999922
 20
14.3499999999999659
 30
0.0
 11
-25.1999999999999922
 21
20.8499999999999659
 31
0.0
  0
LINE
  5
102
100
AcDbEntity
100
AcDbLine
  8
Otwor
 62
256
370
-1
  6
ByLayer
 10
-26.3999999999999915
 20
14.3499999999999659
 30
0.0
 11
-26.3999999999999915
 21
20.8499999999999659
 31
0.0
  0
LINE
  5
103
100
AcDbEntity
100
AcDbLine
  8
Otwor
 62
256
370
-1
  6
ByLayer
 10
-38.3999999999999915
 20
14.3499999999999659
 30
0.0
 11
-38.3999999999999915
 21
20.8499999999999659
 31
0.0
  0
LINE
  5
104
100
AcDbEntity
100
AcDbLine
  8
Otwor
 62
256
370
-1
  6
ByLayer
 10
-38.3999999999999915
 20
14.3499999999999659
 30
0.0
 11
-26.3999999999999915
 21
14.3499999999999659
 31
0.0
  0
LINE
  5
105
100
AcDbEntity
100
AcDbLine
  8
Otwor
 62
256
370
-1
  6
ByLayer
 10
-25.1999999999999922
 20
14.3499999999999659
 30
0.0
 11
-13.1999999999999922
 21
14.3499999999999659
 31
0.0
  0
LINE
  5
106
100
AcDbEntity
100
AcDbLine
  8
Otwor
 62
256
370
-1
  6
ByLayer
 10
-13.1999999999999922
 20
20.8499999999999659
 30
0.0
 11
-25.1999999999999922
 21
20.8499999999999659
 31
0.0
  0
LINE
  5
107
100
AcDbEntity
100
AcDbLine
  8
Otwor
 62
256
370
-1
  6
ByLayer
 10
-26.3999999999999915
 20
20.8499999999999659
 30
0.0
 11
-38.3999999999999915
 21
20.8499999999999659
 31
0.0
  0
LINE
  5
108
100
AcDbEntity
100
AcDbLine
  8
Otwor
 62
256
370
-1
  6
ByLayer
 10
-39.5999999999999943
 20
14.3499999999999659
 30
0.0
 11
-39.5999999999999943
 21
20.8499999999999659
 31
0.0
  0
LINE
  5
109
100
AcDbEntity
100
AcDbLine
  8
Otwor
 62
256
370
-1
  6
ByLayer
 10
-51.5999999999999943
 20
14.3499999999999659
 30
0.0
 11
-51.5999999999999943
 21
20.8499999999999659
 31
0.0
  0
LINE
  5
10A
100
AcDbEntity
100
AcDbLine
  8
Otwor
 62
256
370
-1
  6
ByLayer
 10
-51.5999999999999943
 20
14.3499999999999659
 30
0.0
 11
-39.5999999999999943
 21
14.3499999999999659
 31
0.0
  0
LINE
  5
10B
100
AcDbEntity
100
AcDbLine
  8
Otwor
 62
256
370
-1
  6
ByLayer
 10
-39.5999999999999943
 20
20.8499999999999659
 30
0.0
 11
-51.5999999999999943
 21
20.8499999999999659
 31
0.0
  0
LINE
  5
10C
100
AcDbEntity
100
AcDbLine
  8
Otwor
 62
256
370
-1
  6
ByLayer
 10
-11.9999999999999929
 20
14.3499999999999659
 30
0.0
 11
0.0000000000000065
 21
14.3499999999999659
 31
0.0
  0
LINE
  5
10D
100
AcDbEntity
100
AcDbLine
  8
Otwor
 62
256
370
-1
  6
ByLayer
 10
-11.9999999999999929
 20
20.8499999999999659
 30
0.0
 11
0.0000000000000069
 21
20.8499999999999659
 31
0.0
  0
LINE
  5
10E
100
AcDbEntity
100
AcDbLine
  8
Otwor
 62
256
370
-1
  6
ByLayer
 10
-11.9999999999999929
 20
-1.0500000000000398
 30
0.0
 11
-11.9999999999999929
 21
5.4499999999999602
 31
0.0
  0
LINE
  5
10F
100
AcDbEntity
100
AcDbLine
  8
Otwor
 62
256
370
-1
  6
ByLayer
 10
-13.1999999999999922
 20
-1.0500000000000398
 30
0.0
 11
-13.1999999999999922
 21
5.4499999999999602
 31
0.0
  0
LINE
  5
110
100
AcDbEntity
100
AcDbLine
  8
Otwor
 62
256
370
-1
  6
ByLayer
 10
-25.1999999999999922
 20
-1.0500000000000398
 30
0.0
 11
-25.1999999999999922
 21
5.4499999999999602
 31
0.0
  0
LINE
  5
111
100
AcDbEntity
100
AcDbLine
  8
Otwor
 62
256
370
-1
  6
ByLayer
 10
-26.3999999999999915
 20
-1.0500000000000398
 30
0.0
 11
-26.3999999999999915
 21
5.4499999999999602
 31
0.0
  0
LINE
  5
112
100
AcDbEntity
100
AcDbLine
  8
Otwor
 62
256
370
-1
  6
ByLayer
 10
-38.3999999999999915
 20
-1.0500000000000398
 30
0.0
 11
-38.3999999999999915
 21
5.4499999999999602
 31
0.0
  0
LINE
  5
113
100
AcDbEntity
100
AcDbLine
  8
Otwor
 62
256
370
-1
  6
ByLayer
 10
-38.3999999999999915
 20
-1.0500000000000398
 30
0.0
 11
-26.3999999999999915
 21
-1.0500000000000398
 31
0.0
  0
LINE
  5
114
100
AcDbEntity
100
AcDbLine
  8
Otwor
 62
256
370
-1
  6
ByLayer
 10
-25.1999999999999922
 20
-1.0500000000000398
 30
0.0
 11
-13.1999999999999922
 21
-1.0500000000000398
 31
0.0
  0
LINE
  5
115
100
AcDbEntity
100
AcDbLine
  8
Otwor
 62
256
370
-1
  6
ByLayer
 10
-13.1999999999999922
 20
5.4499999999999602
 30
0.0
 11
-25.1999999999999922
 21
5.4499999999999602
 31
0.0
  0
LINE
  5
116
100
AcDbEntity
100
AcDbLine
  8
Otwor
 62
256
370
-1
  6
ByLayer
 10
-26.3999999999999915
 20
5.4499999999999602
 30
0.0
 11
-38.3999999999999915
 21
5.4499999999999602
 31
0.0
  0
LINE
  5
117
100
AcDbEntity
100
AcDbLine
  8
Otwor
 62
256
370
-1
  6
ByLayer
 10
-39.5999999999999943
 20
-1.0500000000000398
 30
0.0
 11
-39.5999999999999943
 21
5.4499999999999602
 31
0.0
  0
LINE
  5
118
100
AcDbEntity
100
AcDbLine
  8
Otwor
 62
256
370
-1
  6
ByLayer
 10
-51.5999999999999943
 20
-1.0500000000000398
 30
0.0
 11
-51.5999999999999943
 21
5.4499999999999602
 31
0.0
  0
LINE
  5
119
100
AcDbEntity
100
AcDbLine
  8
Otwor
 62
256
370
-1
  6
ByLayer
 10
-51.5999999999999943
 20
-1.0500000000000398
 30
0.0
 11
-39.5999999999999943
 21
-1.0500000000000398
 31
0.0
  0
LINE
  5
11A
100
AcDbEntity
100
AcDbLine
  8
Otwor
 62
256
370
-1
  6
ByLayer
 10
-39.5999999999999943
 20
5.4499999999999602
 30
0.0
 11
-51.5999999999999943
 21
5.4499999999999602
 31
0.0
  0
LINE
  5
11B
100
AcDbEntity
100
AcDbLine
  8
Otwor
 62
256
370
-1
  6
ByLayer
 10
-11.9999999999999929
 20
-1.0500000000000398
 30
0.0
 11
0.0000000000000065
 21
-1.0500000000000398
 31
0.0
  0
LINE
  5
11C
100
AcDbEntity
100
AcDbLine
  8
Otwor
 62
256
370
-1
  6
ByLayer
 10
-11.9999999999999929
 20
5.4499999999999602
 30
0.0
 11
0.0000000000000069
 21
5.4499999999999602
 31
0.0
  0
LINE
  5
11D
100
AcDbEntity
100
AcDbLine
  8
Otwor
 62
256
370
-1
  6
ByLayer
 10
-11.9999999999999929
 20
-16.4500000000000455
 30
0.0
 11
-11.9999999999999929
 21
-9.9500000000000455
 31
0.0
  0
LINE
  5
11E
100
AcDbEntity
100
AcDbLine
  8
Otwor
 62
256
370
-1
  6
ByLayer
 10
-13.1999999999999922
 20
-16.4500000000000455
 30
0.0
 11
-13.1999999999999922
 21
-9.9500000000000455
 31
0.0
  0
LINE
  5
11F
100
AcDbEntity
100
AcDbLine
  8
Otwor
 62
256
370
-1
  6
ByLayer
 10
-25.1999999999999922
 20
-16.4500000000000455
 30
0.0
 11
-25.1999999999999922
 21
-9.9500000000000455
 31
0.0
  0
LINE
  5
120
100
AcDbEntity
100
AcDbLine
  8
Otwor
 62
256
370
-1
  6
ByLayer
 10
-26.3999999999999915
 20
-16.4500000000000455
 30
0.0
 11
-26.3999999999999915
 21
-9.9500000000000455
 31
0.0
  0
LINE
  5
121
100
AcDbEntity
100
AcDbLine
  8
Otwor
 62
256
370
-1
  6
ByLayer
 10
-38.3999999999999915
 20
-16.4500000000000455
 30
0.0
 11
-38.3999999999999915
 21
-9.9500000000000455
 31
0.0
  0
LINE
  5
122
100
AcDbEntity
100
AcDbLine
  8
Otwor
 62
256
370
-1
  6
ByLayer
 10
-38.3999999999999915
 20
-16.4500000000000455
 30
0.0
 11
-26.3999999999999915
 21
-16.4500000000000455
 31
0.0
  0
LINE
  5
123
100
AcDbEntity
100
AcDbLine
  8
Otwor
 62
256
370
-1
  6
ByLayer
 10
-25.1999999999999922
 20
-16.4500000000000455
 30
0.0
 11
-13.1999999999999922
 21
-16.4500000000000455
 31
0.0
  0
LINE
  5
124
100
AcDbEntity
100
AcDbLine
  8
Otwor
 62
256
370
-1
  6
ByLayer
 10
-13.1999999999999922
 20
-9.9500000000000455
 30
0.0
 11
-25.1999999999999922
 21
-9.9500000000000455
 31
0.0
  0
LINE
  5
125
100
AcDbEntity
100
AcDbLine
  8
Otwor
 62
256
370
-1
  6
ByLayer
 10
-26.3999999999999915
 20
-9.9500000000000455
 30
0.0
 11
-38.3999999999999915
 21
-9.9500000000000455
 31
0.0
  0
LINE
  5
126
100
AcDbEntity
100
AcDbLine
  8
Otwor
 62
256
370
-1
  6
ByLayer
 10
-39.5999999999999943
 20
-16.4500000000000455
 30
0.0
 11
-39.5999999999999943
 21
-9.9500000000000455
 31
0.0
  0
LINE
  5
127
100
AcDbEntity
100
AcDbLine
  8
Otwor
 62
256
370
-1
  6
ByLayer
 10
-51.5999999999999943
 20
-16.4500000000000455
 30
0.0
 11
-51.5999999999999943
 21
-9.9500000000000455
 31
0.0
  0
LINE
  5
128
100
AcDbEntity
100
AcDbLine
  8
Otwor
 62
256
370
-1
  6
ByLayer
 10
-51.5999999999999943
 20
-16.4500000000000455
 30
0.0
 11
-39.5999999999999943
 21
-16.4500000000000455
 31
0.0
  0
LINE
  5
129
100
AcDbEntity
100
AcDbLine
  8
Otwor
 62
256
370
-1
  6
ByLayer
 10
-39.5999999999999943
 20
-9.9500000000000455
 30
0.0
 11
-51.5999999999999943
 21
-9.9500000000000455
 31
0.0
  0
LINE
  5
12A
100
AcDbEntity
100
AcDbLine
  8
Otwor
 62
256
370
-1
  6
ByLayer
 10
-11.9999999999999929
 20
-16.4500000000000455
 30
0.0
 11
0.0000000000000065
 21
-16.4500000000000455
 31
0.0
  0
LINE
  5
12B
100
AcDbEntity
100
AcDbLine
  8
Otwor
 62
256
370
-1
  6
ByLayer
 10
-11.9999999999999929
 20
-9.9500000000000455
 30
0.0
 11
0.0000000000000069
 21
-9.9500000000000455
 31
0.0
  0
LINE
  5
12C
100
AcDbEntity
100
AcDbLine
  8
Otwor
 62
256
370
-1
  6
ByLayer
 10
-11.9999999999999929
 20
-31.8500000000000512
 30
0.0
 11
-11.9999999999999929
 21
-25.3500000000000512
 31
0.0
  0
LINE
  5
12D
100
AcDbEntity
100
AcDbLine
  8
Otwor
 62
256
370
-1
  6
ByLayer
 10
-13.1999999999999922
 20
-31.8500000000000512
 30
0.0
 11
-13.1999999999999922
 21
-25.3500000000000512
 31
0.0
  0
LINE
  5
12E
100
AcDbEntity
100
AcDbLine
  8
Otwor
 62
256
370
-1
  6
ByLayer
 10
-25.1999999999999922
 20
-31.8500000000000512
 30
0.0
 11
-25.1999999999999922
 21
-25.3500000000000512
 31
0.0
  0
LINE
  5
12F
100
AcDbEntity
100
AcDbLine
  8
Otwor
 62
256
370
-1
  6
ByLayer
 10
-26.3999999999999915
 20
-31.8500000000000512
 30
0.0
 11
-26.3999999999999915
 21
-25.3500000000000512
 31
0.0
  0
LINE
  5
130
100
AcDbEntity
100
AcDbLine
  8
Otwor
 62
256
370
-1
  6
ByLayer
 10
-38.3999999999999915
 20
-31.8500000000000512
 30
0.0
 11
-38.3999999999999915
 21
-25.3500000000000512
 31
0.0
  0
LINE
  5
131
100
AcDbEntity
100
AcDbLine
  8
Otwor
 62
256
370
-1
  6
ByLayer
 10
-38.3999999999999915
 20
-31.8500000000000512
 30
0.0
 11
-26.3999999999999915
 21
-31.8500000000000512
 31
0.0
  0
LINE
  5
132
100
AcDbEntity
100
AcDbLine
  8
Otwor
 62
256
370
-1
  6
ByLayer
 10
-25.1999999999999922
 20
-31.8500000000000512
 30
0.0
 11
-13.1999999999999922
 21
-31.8500000000000512
 31
0.0
  0
LINE
  5
133
100
AcDbEntity
100
AcDbLine
  8
Otwor
 62
256
370
-1
  6
ByLayer
 10
-13.1999999999999922
 20
-25.3500000000000512
 30
0.0
 11
-25.1999999999999922
 21
-25.3500000000000512
 31
0.0
  0
LINE
  5
134
100
AcDbEntity
100
AcDbLine
  8
Otwor
 62
256
370
-1
  6
ByLayer
 10
-26.3999999999999915
 20
-25.3500000000000512
 30
0.0
 11
-38.3999999999999915
 21
-25.3500000000000512
 31
0.0
  0
LINE
  5
135
100
AcDbEntity
100
AcDbLine
  8
Otwor
 62
256
370
-1
  6
ByLayer
 10
-39.5999999999999943
 20
-31.8500000000000512
 30
0.0
 11
-39.5999999999999943
 21
-25.3500000000000512
 31
0.0
  0
LINE
  5
136
100
AcDbEntity
100
AcDbLine
  8
Otwor
 62
256
370
-1
  6
ByLayer
 10
-51.5999999999999943
 20
-31.8500000000000512
 30
0.0
 11
-51.5999999999999943
 21
-25.3500000000000512
 31
0.0
  0
LINE
  5
137
100
AcDbEntity
100
AcDbLine
  8
Otwor
 62
256
370
-1
  6
ByLayer
 10
-51.5999999999999943
 20
-31.8500000000000512
 30
0.0
 11
-39.5999999999999943
 21
-31.8500000000000512
 31
0.0
  0
LINE
  5
138
100
AcDbEntity
100
AcDbLine
  8
Otwor
 62
256
370
-1
  6
ByLayer
 10
-39.5999999999999943
 20
-25.3500000000000512
 30
0.0
 11
-51.5999999999999943
 21
-25.3500000000000512
 31
0.0
  0
LINE
  5
139
100
AcDbEntity
100
AcDbLine
  8
Otwor
 62
256
370
-1
  6
ByLayer
 10
-11.9999999999999929
 20
-31.8500000000000512
 30
0.0
 11
0.0000000000000065
 21
-31.8500000000000512
 31
0.0
  0
LINE
  5
13A
100
AcDbEntity
100
AcDbLine
  8
Otwor
 62
256
370
-1
  6
ByLayer
 10
-11.9999999999999929
 20
-25.3500000000000512
 30
0.0
 11
0.0000000000000069
 21
-25.3500000000000512
 31
0.0
  0
LINE
  5
13B
100
AcDbEntity
100
AcDbLine
  8
Otwor
 62
256
370
-1
  6
ByLayer
 10
-19.7999999999999936
 20
83.6500000000000057
 30
0.0
 11
-19.7999999999999936
 21
90.1500000000000057
 31
0.0
  0
LINE
  5
13C
100
AcDbEntity
100
AcDbLine
  8
Otwor
 62
256
370
-1
  6
ByLayer
 10
-18.5999999999999908
 20
83.6500000000000057
 30
0.0
 11
-18.5999999999999908
 21
90.1500000000000057
 31
0.0
  0
LINE
  5
13D
100
AcDbEntity
100
AcDbLine
  8
Otwor
 62
256
370
-1
  6
ByLayer
 10
-44.7999999999999972
 20
83.6500000000000057
 30
0.0
 11
-44.7999999999999972
 21
90.1500000000000057
 31
0.0
  0
LINE
  5
13E
100
AcDbEntity
100
AcDbLine
  8
Otwor
 62
256
370
-1
  6
ByLayer
 10
-44.7999999999999972
 20
90.1500000000000057
 30
0.0
 11
-19.7999999999999936
 21
90.1500000000000057
 31
0.0
  0
LINE
  5
13F
100
AcDbEntity
100
AcDbLine
  8
Otwor
 62
256
370
-1
  6
ByLayer
 10
-19.7999999999999936
 20
83.6500000000000057
 30
0.0
 11
-44.7999999999999972
 21
83.6500000000000057
 31
0.0
  0
LINE
  5
140
100
AcDbEntity
100
AcDbLine
  8
Otwor
 62
256
370
-1
  6
ByLayer
 10
-18.5999999999999908
 20
90.1500000000000057
 30
0.0
 11
0.0000000000000064
 21
90.1500000000000057
 31
0.0
  0
LINE
  5
141
100
AcDbEntity
100
AcDbLine
  8
Otwor
 62
256
370
-1
  6
ByLayer
 10
-18.5999999999999908
 20
83.6500000000000057
 30
0.0
 11
0.000000000000006
 21
83.6500000000000057
 31
0.0
  0
LINE
  5
142
100
AcDbEntity
100
AcDbLine
  8
Otwor
 62
256
370
-1
  6
ByLayer
 10
0.0000000000000064
 20
90.1500000000000057
 30
0.0
 11
0.000000000000006
 21
83.6500000000000057
 31
0.0
  0
LINE
  5
143
100
AcDbEntity
100
AcDbLine
  8
Otwor
 62
256
370
-1
  6
ByLayer
 10
-19.7999999999999936
 20
52.8500000000000085
 30
0.0
 11
-19.7999999999999936
 21
59.3500000000000085
 31
0.0
  0
LINE
  5
144
100
AcDbEntity
100
AcDbLine
  8
Otwor
 62
256
370
-1
  6
ByLayer
 10
-18.5999999999999908
 20
52.8500000000000085
 30
0.0
 11
-18.5999999999999908
 21
59.3500000000000085
 31
0.0
  0
LINE
  5
145
100
AcDbEntity
100
AcDbLine
  8
Otwor
 62
256
370
-1
  6
ByLayer
 10
-44.7999999999999972
 20
52.8500000000000085
 30
0.0
 11
-44.7999999999999972
 21
59.3500000000000085
 31
0.0
  0
LINE
  5
146
100
AcDbEntity
100
AcDbLine
  8
Otwor
 62
256
370
-1
  6
ByLayer
 10
-44.7999999999999972
 20
59.3500000000000085
 30
0.0
 11
-19.7999999999999936
 21
59.3500000000000085
 31
0.0
  0
LINE
  5
147
100
AcDbEntity
100
AcDbLine
  8
Otwor
 62
256
370
-1
  6
ByLayer
 10
-19.7999999999999936
 20
52.8500000000000085
 30
0.0
 11
-44.7999999999999972
 21
52.8500000000000085
 31
0.0
  0
LINE
  5
148
100
AcDbEntity
100
AcDbLine
  8
Otwor
 62
256
370
-1
  6
ByLayer
 10
-18.5999999999999908
 20
59.3500000000000085
 30
0.0
 11
0.0000000000000064
 21
59.3500000000000085
 31
0.0
  0
LINE
  5
149
100
AcDbEntity
100
AcDbLine
  8
Otwor
 62
256
370
-1
  6
ByLayer
 10
-18.5999999999999908
 20
52.8500000000000085
 30
0.0
 11
0.000000000000006
 21
52.8500000000000085
 31
0.0
  0
LINE
  5
14A
100
AcDbEntity
100
AcDbLine
  8
Otwor
 62
256
370
-1
  6
ByLayer
 10
0.0000000000000064
 20
59.3500000000000085
 30
0.0
 11
0.000000000000006
 21
52.8500000000000085
 31
0.0
  0
LINE
  5
14B
100
AcDbEntity
100
AcDbLine
  8
Otwor
 62
256
370
-1
  6
ByLayer
 10
-19.7999999999999936
 20
22.0500000000000114
 30
0.0
 11
-19.7999999999999936
 21
28.5500000000000114
 31
0.0
  0
LINE
  5
14C
100
AcDbEntity
100
AcDbLine
  8
Otwor
 62
256
370
-1
  6
ByLayer
 10
-18.5999999999999908
 20
22.0500000000000114
 30
0.0
 11
-18.5999999999999908
 21
28.5500000000000114
 31
0.0
  0
LINE
  5
14D
100
AcDbEntity
100
AcDbLine
  8
Otwor
 62
256
370
-1
  6
ByLayer
 10
-44.7999999999999972
 20
22.0500000000000114
 30
0.0
 11
-44.7999999999999972
 21
28.5500000000000114
 31
0.0
  0
LINE
  5
14E
100
AcDbEntity
100
AcDbLine
  8
Otwor
 62
256
370
-1
  6
ByLayer
 10
-44.7999999999999972
 20
28.5500000000000114
 30
0.0
 11
-19.7999999999999936
 21
28.5500000000000114
 31
0.0
  0
LINE
  5
14F
100
AcDbEntity
100
AcDbLine
  8
Otwor
 62
256
370
-1
  6
ByLayer
 10
-19.7999999999999936
 20
22.0500000000000114
 30
0.0
 11
-44.7999999999999972
 21
22.0500000000000114
 31
0.0
  0
LINE
  5
150
100
AcDbEntity
100
AcDbLine
  8
Otwor
 62
256
370
-1
  6
ByLayer
 10
-18.5999999999999908
 20
28.5500000000000114
 30
0.0
 11
0.0000000000000064
 21
28.5500000000000114
 31
0.0
  0
LINE
  5
151
100
AcDbEntity
100
AcDbLine
  8
Otwor
 62
256
370
-1
  6
ByLayer
 10
-18.5999999999999908
 20
22.0500000000000114
 30
0.0
 11
0.000000000000006
 21
22.0500000000000114
 31
0.0
  0
LINE
  5
152
100
AcDbEntity
100
AcDbLine
  8
Otwor
 62
256
370
-1
  6
ByLayer
 10
0.0000000000000064
 20
28.5500000000000114
 30
0.0
 11
0.000000000000006
 21
22.0500000000000114
 31
0.0
  0
LINE
  5
153
100
AcDbEntity
100
AcDbLine
  8
Otwor
 62
256
370
-1
  6
ByLayer
 10
-19.7999999999999936
 20
-8.7499999999999858
 30
0.0
 11
-19.7999999999999936
 21
-2.2499999999999858
 31
0.0
  0
LINE
  5
154
100
AcDbEntity
100
AcDbLine
  8
Otwor
 62
256
370
-1
  6
ByLayer
 10
-18.5999999999999908
 20
-8.7499999999999858
 30
0.0
 11
-18.5999999999999908
 21
-2.2499999999999858
 31
0.0
  0
LINE
  5
155
100
AcDbEntity
100
AcDbLine
  8
Otwor
 62
256
370
-1
  6
ByLayer
 10
-44.7999999999999972
 20
-8.7499999999999858
 30
0.0
 11
-44.7999999999999972
 21
-2.2499999999999858
 31
0.0
  0
LINE
  5
156
100
AcDbEntity
100
AcDbLine
  8
Otwor
 62
256
370
-1
  6
ByLayer
 10
-44.7999999999999972
 20
-2.2499999999999858
 30
0.0
 11
-19.7999999999999936
 21
-2.2499999999999858
 31
0.0
  0
LINE
  5
157
100
AcDbEntity
100
AcDbLine
  8
Otwor
 62
256
370
-1
  6
ByLayer
 10
-19.7999999999999936
 20
-8.7499999999999858
 30
0.0
 11
-44.7999999999999972
 21
-8.7499999999999858
 31
0.0
  0
LINE
  5
158
100
AcDbEntity
100
AcDbLine
  8
Otwor
 62
256
370
-1
  6
ByLayer
 10
-18.5999999999999908
 20
-2.2499999999999858
 30
0.0
 11
0.0000000000000064
 21
-2.2499999999999858
 31
0.0
  0
LINE
  5
159
100
AcDbEntity
100
AcDbLine
  8
Otwor
 62
256
370
-1
  6
ByLayer
 10
-18.5999999999999908
 20
-8.7499999999999858
 30
0.0
 11
0.000000000000006
 21
-8.7499999999999858
 31
0.0
  0
LINE
  5
15A
100
AcDbEntity
100
AcDbLine
  8
Otwor
 62
256
370
-1
  6
ByLayer
 10
0.0000000000000064
 20
-2.2499999999999858
 30
0.0
 11
0.000000000000006
 21
-8.7499999999999858
 31
0.0
  0
LINE
  5
15B
100
AcDbEntity
100
AcDbLine
  8
Otwor
 62
256
370
-1
  6
ByLayer
 10
0.0000000000000065
 20
106.75
 30
0.0
 11
0.0000000000000067
 21
110.0
 31
0.0
  0
LINE
  5
15C
100
AcDbEntity
100
AcDbLine
  8
Otwor
 62
256
370
-1
  6
ByLayer
 10
0.0000000000000065
 20
91.3499999999999943
 30
0.0
 11
0.0000000000000069
 21
97.8499999999999943
 31
0.0
  0
LINE
  5
15D
100
AcDbEntity
100
AcDbLine
  8
Otwor
 62
256
370
-1
  6
ByLayer
 10
0.0000000000000065
 20
75.9499999999999886
 30
0.0
 11
0.0000000000000069
 21
82.4499999999999886
 31
0.0
  0
LINE
  5
15E
100
AcDbEntity
100
AcDbLine
  8
Otwor
 62
256
370
-1
  6
ByLayer
 10
0.0000000000000065
 20
60.5499999999999829
 30
0.0
 11
0.0000000000000069
 21
67.0499999999999829
 31
0.0
  0
LINE
  5
15F
100
AcDbEntity
100
AcDbLine
  8
Otwor
 62
256
370
-1
  6
ByLayer
 10
0.0000000000000065
 20
45.1499999999999773
 30
0.0
 11
0.0000000000000069
 21
51.6499999999999773
 31
0.0
  0
LINE
  5
160
100
AcDbEntity
100
AcDbLine
  8
Otwor
 62
256
370
-1
  6
ByLayer
 10
0.0000000000000065
 20
29.7499999999999716
 30
0.0
 11
0.0000000000000069
 21
36.2499999999999716
 31
0.0
  0
LINE
  5
161
100
AcDbEntity
100
AcDbLine
  8
Otwor
 62
256
370
-1
  6
ByLayer
 10
0.0000000000000065
 20
14.3499999999999659
 30
0.0
 11
0.0000000000000069
 21
20.8499999999999659
 31
0.0
  0
LINE
  5
162
100
AcDbEntity
100
AcDbLine
  8
Otwor
 62
256
370
-1
  6
ByLayer
 10
0.0000000000000065
 20
-1.0500000000000398
 30
0.0
 11
0.0000000000000069
 21
5.4499999999999602
 31
0.0
  0
LINE
  5
163
100
AcDbEntity
100
AcDbLine
  8
Otwor
 62
256
370
-1
  6
ByLayer
 10
0.0000000000000065
 20
-16.4500000000000455
 30
0.0
 11
0.0000000000000069
 21
-9.9500000000000455
 31
0.0
  0
LINE
  5
164
100
AcDbEntity
100
AcDbLine
  8
Otwor
 62
256
370
-1
  6
ByLayer
 10
0.0000000000000065
 20
-31.8500000000000512
 30
0.0
 11
0.0000000000000069
 21
-25.3500000000000512
 31
0.0
  0
LINE
  5
165
100
AcDbEntity
100
AcDbLine
  8
Otwor
 62
256
370
-1
  6
ByLayer
 10
-11.9999999999999929
 20
137.5500000000000114
 30
0.0
 11
-11.9999999999999929
 21
144.0500000000000114
 31
0.0
  0
LINE
  5
166
100
AcDbEntity
100
AcDbLine
  8
Otwor
 62
256
370
-1
  6
ByLayer
 10
-13.1999999999999922
 20
137.5500000000000114
 30
0.0
 11
-13.1999999999999922
 21
144.0500000000000114
 31
0.0
  0
LINE
  5
167
100
AcDbEntity
100
AcDbLine
  8
Otwor
 62
256
370
-1
  6
ByLayer
 10
-25.1999999999999922
 20
137.5500000000000114
 30
0.0
 11
-25.1999999999999922
 21
144.0500000000000114
 31
0.0
  0
LINE
  5
168
100
AcDbEntity
100
AcDbLine
  8
Otwor
 62
256
370
-1
  6
ByLayer
 10
-26.3999999999999915
 20
137.5500000000000114
 30
0.0
 11
-26.3999999999999915
 21
144.0500000000000114
 31
0.0
  0
LINE
  5
169
100
AcDbEntity
100
AcDbLine
  8
Otwor
 62
256
370
-1
  6
ByLayer
 10
-38.3999999999999915
 20
137.5500000000000114
 30
0.0
 11
-38.3999999999999915
 21
144.0500000000000114
 31
0.0
  0
LINE
  5
16A
100
AcDbEntity
100
AcDbLine
  8
Otwor
 62
256
370
-1
  6
ByLayer
 10
-38.3999999999999915
 20
137.5500000000000114
 30
0.0
 11
-26.3999999999999915
 21
137.5500000000000114
 31
0.0
  0
LINE
  5
16B
100
AcDbEntity
100
AcDbLine
  8
Otwor
 62
256
370
-1
  6
ByLayer
 10
-25.1999999999999922
 20
137.5500000000000114
 30
0.0
 11
-13.1999999999999922
 21
137.5500000000000114
 31
0.0
  0
LINE
  5
16C
100
AcDbEntity
100
AcDbLine
  8
Otwor
 62
256
370
-1
  6
ByLayer
 10
-13.1999999999999922
 20
144.0500000000000114
 30
0.0
 11
-25.1999999999999922
 21
144.0500000000000114
 31
0.0
  0
LINE
  5
16D
100
AcDbEntity
100
AcDbLine
  8
Otwor
 62
256
370
-1
  6
ByLayer
 10
-26.3999999999999915
 20
144.0500000000000114
 30
0.0
 11
-38.3999999999999915
 21
144.0500000000000114
 31
0.0
  0
LINE
  5
16E
100
AcDbEntity
100
AcDbLine
  8
Otwor
 62
256
370
-1
  6
ByLayer
 10
-39.5999999999999943
 20
137.5500000000000114
 30
0.0
 11
-39.5999999999999943
 21
144.0500000000000114
 31
0.0
  0
LINE
  5
16F
100
AcDbEntity
100
AcDbLine
  8
Otwor
 62
256
370
-1
  6
ByLayer
 10
-51.5999999999999943
 20
137.5500000000000114
 30
0.0
 11
-51.5999999999999943
 21
144.0500000000000114
 31
0.0
  0
LINE
  5
170
100
AcDbEntity
100
AcDbLine
  8
Otwor
 62
256
370
-1
  6
ByLayer
 10
-51.5999999999999943
 20
137.5500000000000114
 30
0.0
 11
-39.5999999999999943
 21
137.5500000000000114
 31
0.0
  0
LINE
  5
171
100
AcDbEntity
100
AcDbLine
  8
Otwor
 62
256
370
-1
  6
ByLayer
 10
-39.5999999999999943
 20
144.0500000000000114
 30
0.0
 11
-51.5999999999999943
 21
144.0500000000000114
 31
0.0
  0
LINE
  5
172
100
AcDbEntity
100
AcDbLine
  8
Otwor
 62
256
370
-1
  6
ByLayer
 10
-11.9999999999999929
 20
144.0500000000000114
 30
0.0
 11
0.0000000000000069
 21
144.0500000000000114
 31
0.0
  0
LINE
  5
173
100
AcDbEntity
100
AcDbLine
  8
Otwor
 62
256
370
-1
  6
ByLayer
 10
1.2000000000000068
 20
144.0500000000000114
 30
0.0
 11
13.2000000000000064
 21
144.0500000000000114
 31
0.0
  0
LINE
  5
174
100
AcDbEntity
100
AcDbLine
  8
Otwor
 62
256
370
-1
  6
ByLayer
 10
-19.7999999999999936
 20
145.25
 30
0.0
 11
-19.7999999999999936
 21
151.75
 31
0.0
  0
LINE
  5
175
100
AcDbEntity
100
AcDbLine
  8
Otwor
 62
256
370
-1
  6
ByLayer
 10
-18.5999999999999908
 20
145.25
 30
0.0
 11
-18.5999999999999908
 21
151.75
 31
0.0
  0
LINE
  5
176
100
AcDbEntity
100
AcDbLine
  8
Otwor
 62
256
370
-1
  6
ByLayer
 10
-44.7999999999999972
 20
145.25
 30
0.0
 11
-44.7999999999999972
 21
151.75
 31
0.0
  0
LINE
  5
177
100
AcDbEntity
100
AcDbLine
  8
Otwor
 62
256
370
-1
  6
ByLayer
 10
-44.7999999999999972
 20
151.75
 30
0.0
 11
-19.7999999999999936
 21
151.75
 31
0.0
  0
LINE
  5
178
100
AcDbEntity
100
AcDbLine
  8
Otwor
 62
256
370
-1
  6
ByLayer
 10
-19.7999999999999936
 20
145.25
 30
0.0
 11
-44.7999999999999972
 21
145.25
 31
0.0
  0
LINE
  5
179
100
AcDbEntity
100
AcDbLine
  8
Otwor
 62
256
370
-1
  6
ByLayer
 10
7.6000000000000094
 20
145.25
 30
0.0
 11
7.6000000000000094
 21
151.75
 31
0.0
  0
LINE
  5
17A
100
AcDbEntity
100
AcDbLine
  8
Otwor
 62
256
370
-1
  6
ByLayer
 10
32.6000000000000085
 20
145.25
 30
0.0
 11
32.6000000000000085
 21
151.75
 31
0.0
  0
LINE
  5
17B
100
AcDbEntity
100
AcDbLine
  8
Otwor
 62
256
370
-1
  6
ByLayer
 10
-18.5999999999999908
 20
151.75
 30
0.0
 11
6.4000000000000092
 21
151.75
 31
0.0
  0
LINE
  5
17C
100
AcDbEntity
100
AcDbLine
  8
Otwor
 62
256
370
-1
  6
ByLayer
 10
-18.5999999999999908
 20
145.25
 30
0.0
 11
6.4000000000000092
 21
145.25
 31
0.0
  0
LINE
  5
17D
100
AcDbEntity
100
AcDbLine
  8
Otwor
 62
256
370
-1
  6
ByLayer
 10
6.4000000000000092
 20
145.25
 30
0.0
 11
6.4000000000000092
 21
151.75
 31
0.0
  0
LINE
  5
17E
100
AcDbEntity
100
AcDbLine
  8
Otwor
 62
256
370
-1
  6
ByLayer
 10
7.6000000000000094
 20
151.75
 30
0.0
 11
32.6000000000000085
 21
151.75
 31
0.0
  0
LINE
  5
17F
100
AcDbEntity
100
AcDbLine
  8
Otwor
 62
256
370
-1
  6
ByLayer
 10
32.6000000000000085
 20
151.75
 30
0.0
 11
32.6000000000000085
 21
145.25
 31
0.0
  0
LINE
  5
180
100
AcDbEntity
100
AcDbLine
  8
Otwor
 62
256
370
-1
  6
ByLayer
 10
32.6000000000000085
 20
145.25
 30
0.0
 11
7.6000000000000094
 21
145.25
 31
0.0
  0
LINE
  5
181
100
AcDbEntity
100
AcDbLine
  8
Otwor
 62
256
370
-1
  6
ByLayer
 10
33.8000000000000114
 20
151.75
 30
0.0
 11
58.8000000000000114
 21
151.75
 31
0.0
  0
DIMENSION
  5
182
100
AcDbEntity
  8
Otwor wym.
 62
256
370
-1
  6
ByLayer
100
AcDbDimension
 10
-62.1055272151831019
 20
110.0000000000000142
 30
0.0
 11
-63.9805272151831019
 21
108.375
 31
0.0
 70
0
 71
5
 72
0
 41
1.0
 42
0.0
  1

  3
Standard
100
AcDbAlignedDimension
 13
0.0000000000000065
 23
106.75
 33
0.0
 14
0.0000000000000067
 24
110.0
 34
0.0
 50
90.0
100
AcDbRotatedDimension
  0
LINE
  5
183
100
AcDbEntity
100
AcDbLine
  8
Otwor
 62
256
370
-1
  6
ByLayer
 10
14.4000000000000057
 20
141.6572684350962561
 30
0.0
 11
14.4000000000000057
 21
144.0500000000000114
 31
0.0
  0
LINE
  5
184
100
AcDbEntity
100
AcDbLine
  8
Otwor
 62
256
370
-1
  6
ByLayer
 10
132.4999999999999432
 20
113.2499999999994884
 30
0.0
 11
125.0091341318490095
 21
113.2499999999996732
 31
0.0
  0
LINE
  5
185
100
AcDbEntity
100
AcDbLine
  8
Otwor
 62
256
370
-1
  6
ByLayer
 10
133.6999999999999602
 20
114.449999999999946
 30
0.0
 11
133.6999999999999602
 21
120.9500000000001876
 31
0.0
  0
LINE
  5
186
100
AcDbEntity
100
AcDbLine
  8
Otwor
 62
256
370
-1
  6
ByLayer
 10
145.6999999999999602
 20
114.4499999999999034
 30
0.0
 11
145.6999999999999602
 21
120.949999999998866
 31
0.0
  0
LINE
  5
187
100
AcDbEntity
100
AcDbLine
  8
Otwor
 62
256
370
-1
  6
ByLayer
 10
146.8999999999999488
 20
114.4500000000000028
 30
0.0
 11
146.8999999999999488
 21
120.9500000000005571
 31
0.0
  0
LINE
  5
188
100
AcDbEntity
100
AcDbLine
  8
Otwor
 62
256
370
-1
  6
ByLayer
 10
158.8999999999999488
 20
114.4499999999999744
 30
0.0
 11
158.8999999999999488
 21
120.9499999999991076
 31
0.0
  0
LINE
  5
189
100
AcDbEntity
100
AcDbLine
  8
Otwor
 62
256
370
-1
  6
ByLayer
 10
158.8999999999999488
 20
114.4499999999999744
 30
0.0
 11
146.8999999999999488
 21
114.4500000000000028
 31
0.0
  0
LINE
  5
18A
100
AcDbEntity
100
AcDbLine
  8
Otwor
 62
256
370
-1
  6
ByLayer
 10
145.6999999999999602
 20
114.4499999999999034
 30
0.0
 11
133.6999999999999602
 21
114.449999999999946
 31
0.0
  0
LINE
  5
18B
100
AcDbEntity
100
AcDbLine
  8
Otwor
 62
256
370
-1
  6
ByLayer
 10
133.6999999999999602
 20
120.9500000000001876
 30
0.0
 11
145.6999999999999602
 21
120.949999999998866
 31
0.0
  0
LINE
  5
18C
100
AcDbEntity
100
AcDbLine
  8
Otwor
 62
256
370
-1
  6
ByLayer
 10
146.8999999999999488
 20
120.9500000000005571
 30
0.0
 11
158.8999999999999488
 21
120.9499999999991076
 31
0.0
  0
LINE
  5
18D
100
AcDbEntity
100
AcDbLine
  8
Otwor
 62
256
370
-1
  6
ByLayer
 10
140.2999999999999545
 20
122.1499999999991957
 30
0.0
 11
140.2999999999999545
 21
128.6500000000000341
 31
0.0
  0
LINE
  5
18E
100
AcDbEntity
100
AcDbLine
  8
Otwor
 62
256
370
-1
  6
ByLayer
 10
139.0999999999999375
 20
122.1500000000010004
 30
0.0
 11
139.0999999999999659
 21
128.6499999999999773
 31
0.0
  0
LINE
  5
18F
100
AcDbEntity
100
AcDbLine
  8
Otwor
 62
256
370
-1
  6
ByLayer
 10
165.2999999999999545
 20
122.1500000000013415
 30
0.0
 11
165.2999999999999545
 21
128.6499999999999773
 31
0.0
  0
LINE
  5
190
100
AcDbEntity
100
AcDbLine
  8
Otwor
 62
256
370
-1
  6
ByLayer
 10
165.2999999999999545
 20
128.6499999999999773
 30
0.0
 11
140.2999999999999545
 21
128.6500000000000341
 31
0.0
  0
LINE
  5
191
100
AcDbEntity
100
AcDbLine
  8
Otwor
 62
256
370
-1
  6
ByLayer
 10
140.2999999999999545
 20
122.1499999999991957
 30
0.0
 11
165.2999999999999545
 21
122.1500000000013415
 31
0.0
  0
LINE
  5
192
100
AcDbEntity
100
AcDbLine
  8
Otwor
 62
256
370
-1
  6
ByLayer
 10
158.8999999999999488
 20
129.8499999999999659
 30
0.0
 11
146.8999999999999488
 21
129.8499999999999659
 31
0.0
  0
LINE
  5
193
100
AcDbEntity
100
AcDbLine
  8
Otwor
 62
256
370
-1
  6
ByLayer
 10
158.8999999999999488
 20
129.8499999999999659
 30
0.0
 11
158.8999999999999488
 21
136.3499999999999091
 31
0.0
  0
LINE
  5
194
100
AcDbEntity
100
AcDbLine
  8
Otwor
 62
256
370
-1
  6
ByLayer
 10
158.8999999999999488
 20
136.3499999999999091
 30
0.0
 11
146.8999999999999488
 21
136.3499999999999943
 31
0.0
  0
LINE
  5
195
100
AcDbEntity
100
AcDbLine
  8
Otwor
 62
256
370
-1
  6
ByLayer
 10
146.8999999999999488
 20
129.8499999999999659
 30
0.0
 11
146.8999999999999488
 21
136.3499999999999943
 31
0.0
  0
LINE
  5
196
100
AcDbEntity
100
AcDbLine
  8
Otwor
 62
256
370
-1
  6
ByLayer
 10
145.6999999999999602
 20
129.8499999999999943
 30
0.0
 11
145.6999999999999602
 21
136.3500000000000227
 31
0.0
  0
LINE
  5
197
100
AcDbEntity
100
AcDbLine
  8
Otwor
 62
256
370
-1
  6
ByLayer
 10
152.2999999999999545
 20
137.5499999999999545
 30
0.0
 11
152.2999999999999545
 21
144.0499999999999261
 31
0.0
  0
LINE
  5
198
100
AcDbEntity
100
AcDbLine
  8
Otwor
 62
256
370
-1
  6
ByLayer
 10
178.4999999999999716
 20
137.5499999999998977
 30
0.0
 11
178.4999999999999716
 21
144.0499999999999829
 31
0.0
  0
LINE
  5
199
100
AcDbEntity
100
AcDbLine
  8
Otwor
 62
256
370
-1
  6
ByLayer
 10
178.4999999999999716
 20
137.5499999999998977
 30
0.0
 11
153.4999999999999432
 21
137.5499999999999545
 31
0.0
  0
LINE
  5
19A
100
AcDbEntity
100
AcDbLine
  8
Otwor
 62
256
370
-1
  6
ByLayer
 10
178.4999999999999716
 20
144.0499999999999829
 30
0.0
 11
153.4999999999999432
 21
144.0499999999999829
 31
0.0
  0
LINE
  5
19B
100
AcDbEntity
100
AcDbLine
  8
Otwor
 62
256
370
-1
  6
ByLayer
 10
153.4999999999999432
 20
137.5499999999999545
 30
0.0
 11
153.4999999999999432
 21
144.0499999999999829
 31
0.0
  0
LINE
  5
19C
100
AcDbEntity
100
AcDbLine
  8
Otwor
 62
256
370
-1
  6
ByLayer
 10
139.0999999999999375
 20
106.7499999999999432
 30
0.0
 11
120.4999999999999432
 21
106.7499999999999716
 31
0.0
  0
LINE
  5
19D
100
AcDbEntity
100
AcDbLine
  8
Otwor
 62
256
370
-1
  6
ByLayer
 10
139.0999999999999375
 20
106.7499999999999432
 30
0.0
 11
139.0999999999999375
 21
113.25
 31
0.0
  0
LINE
  5
19E
100
AcDbEntity
100
AcDbLine
  8
Otwor
 62
256
370
-1
  6
ByLayer
 10
140.2999999999999545
 20
106.7500000000000284
 30
0.0
 11
140.2999999999999545
 21
113.2499999999999574
 31
0.0
  0
LINE
  5
19F
100
AcDbEntity
100
AcDbLine
  8
Otwor
 62
256
370
-1
  6
ByLayer
 10
153.4999999999999716
 20
106.7499999999999716
 30
0.0
 11
153.4999999999999432
 21
113.2499999999998863
 31
0.0
  0
LINE
  5
1A0
100
AcDbEntity
100
AcDbLine
  8
Otwor
 62
256
370
-1
  6
ByLayer
 10
152.2999999999999545
 20
106.7499999999999858
 30
0.0
 11
140.2999999999999545
 21
106.7500000000000284
 31
0.0
  0
LINE
  5
1A1
100
AcDbEntity
100
AcDbLine
  8
Otwor
 62
256
370
-1
  6
ByLayer
 10
152.2999999999999545
 20
106.7499999999999858
 30
0.0
 11
152.2999999999999545
 21
113.2499999999999716
 31
0.0
  0
LINE
  5
1A2
100
AcDbEntity
100
AcDbLine
  8
Otwor
 62
256
370
-1
  6
ByLayer
 10
152.2999999999999545
 20
113.2499999999999716
 30
0.0
 11
140.2999999999999545
 21
113.2499999999999574
 31
0.0
  0
LINE
  5
1A3
100
AcDbEntity
100
AcDbLine
  8
Otwor
 62
256
370
-1
  6
ByLayer
 10
178.4999999999999432
 20
113.2499999999999716
 30
0.0
 11
153.4999999999999432
 21
113.2499999999998863
 31
0.0
  0
LINE
  5
1A4
100
AcDbEntity
100
AcDbLine
  8
Otwor
 62
256
370
-1
  6
ByLayer
 10
178.4999999999999432
 20
106.7499999999999574
 30
0.0
 11
153.4999999999999716
 21
106.7499999999999716
 31
0.0
  0
LINE
  5
1A5
100
AcDbEntity
100
AcDbLine
  8
Otwor
 62
256
370
-1
  6
ByLayer
 10
178.4999999999999432
 20
113.2499999999999716
 30
0.0
 11
178.4999999999999432
 21
106.7499999999999574
 31
0.0
  0
LINE
  5
1A6
100
AcDbEntity
100
AcDbLine
  8
Otwor
 62
256
370
-1
  6
ByLayer
 10
172.0999999999999375
 20
129.8499999999999091
 30
0.0
 11
160.0999999999999375
 21
129.850000000000108
 31
0.0
  0
LINE
  5
1A7
100
AcDbEntity
100
AcDbLine
  8
Otwor
 62
256
370
-1
  6
ByLayer
 10
172.0999999999999375
 20
129.8499999999999091
 30
0.0
 11
172.0999999999999375
 21
136.3500000000000227
 31
0.0
  0
LINE
  5
1A8
100
AcDbEntity
100
AcDbLine
  8
Otwor
 62
256
370
-1
  6
ByLayer
 10
172.0999999999999375
 20
136.3500000000000227
 30
0.0
 11
160.0999999999999659
 21
136.3500000000000227
 31
0.0
  0
LINE
  5
1A9
100
AcDbEntity
100
AcDbLine
  8
Otwor
 62
256
370
-1
  6
ByLayer
 10
160.0999999999999375
 20
129.850000000000108
 30
0.0
 11
160.0999999999999659
 21
136.3500000000000227
 31
0.0
  0
LINE
  5
1AA
100
AcDbEntity
100
AcDbLine
  8
Otwor
 62
256
370
-1
  6
ByLayer
 10
160.0999999999999375
 20
114.4500000000000313
 30
0.0
 11
160.0999999999999375
 21
120.9500000000003581
 31
0.0
  0
LINE
  5
1AB
100
AcDbEntity
100
AcDbLine
  8
Otwor
 62
256
370
-1
  6
ByLayer
 10
172.0999999999999375
 20
114.4499999999999176
 30
0.0
 11
172.0999999999999375
 21
120.9500000000011397
 31
0.0
  0
LINE
  5
1AC
100
AcDbEntity
100
AcDbLine
  8
Otwor
 62
256
370
-1
  6
ByLayer
 10
172.0999999999999375
 20
114.4499999999999176
 30
0.0
 11
160.0999999999999375
 21
114.4500000000000313
 31
0.0
  0
LINE
  5
1AD
100
AcDbEntity
100
AcDbLine
  8
Otwor
 62
256
370
-1
  6
ByLayer
 10
160.0999999999999375
 20
120.9500000000003581
 30
0.0
 11
172.0999999999999375
 21
120.9500000000011397
 31
0.0
  0
LINE
  5
1AE
100
AcDbEntity
100
AcDbLine
  8
Otwor
 62
256
370
-1
  6
ByLayer
 10
139.0999999999999659
 20
75.9500000000000028
 30
0.0
 11
120.4999999999999147
 21
75.9499999999999602
 31
0.0
  0
LINE
  5
1AF
100
AcDbEntity
100
AcDbLine
  8
Otwor
 62
256
370
-1
  6
ByLayer
 10
139.0999999999999659
 20
75.9500000000000028
 30
0.0
 11
139.0999999999999375
 21
82.4499999999999744
 31
0.0
  0
LINE
  5
1B0
100
AcDbEntity
100
AcDbLine
  8
Otwor
 62
256
370
-1
  6
ByLayer
 10
139.0999999999999375
 20
82.4499999999999744
 30
0.0
 11
120.4999999999999432
 21
82.4499999999999886
 31
0.0
  0
LINE
  5
1B1
100
AcDbEntity
100
AcDbLine
  8
Otwor
 62
256
370
-1
  6
ByLayer
 10
140.2999999999999261
 20
75.9499999999999602
 30
0.0
 11
140.2999999999999545
 21
82.4499999999999886
 31
0.0
  0
LINE
  5
1B2
100
AcDbEntity
100
AcDbLine
  8
Otwor
 62
256
370
-1
  6
ByLayer
 10
153.4999999999999716
 20
75.9500000000000313
 30
0.0
 11
153.4999999999999716
 21
82.4500000000000171
 31
0.0
  0
LINE
  5
1B3
100
AcDbEntity
100
AcDbLine
  8
Otwor
 62
256
370
-1
  6
ByLayer
 10
152.2999999999999545
 20
75.9500000000000455
 30
0.0
 11
140.2999999999999261
 21
75.9499999999999602
 31
0.0
  0
LINE
  5
1B4
100
AcDbEntity
100
AcDbLine
  8
Otwor
 62
256
370
-1
  6
ByLayer
 10
152.2999999999999545
 20
75.9500000000000455
 30
0.0
 11
152.2999999999999261
 21
82.4499999999999602
 31
0.0
  0
LINE
  5
1B5
100
AcDbEntity
100
AcDbLine
  8
Otwor
 62
256
370
-1
  6
ByLayer
 10
152.2999999999999261
 20
82.4499999999999602
 30
0.0
 11
140.2999999999999545
 21
82.4499999999999886
 31
0.0
  0
LINE
  5
1B6
100
AcDbEntity
100
AcDbLine
  8
Otwor
 62
256
370
-1
  6
ByLayer
 10
178.4999999999999432
 20
82.4499999999999886
 30
0.0
 11
153.4999999999999716
 21
82.4500000000000171
 31
0.0
  0
LINE
  5
1B7
100
AcDbEntity
100
AcDbLine
  8
Otwor
 62
256
370
-1
  6
ByLayer
 10
178.4999999999999432
 20
75.9499999999999886
 30
0.0
 11
153.4999999999999716
 21
75.9500000000000313
 31
0.0
  0
LINE
  5
1B8
100
AcDbEntity
100
AcDbLine
  8
Otwor
 62
256
370
-1
  6
ByLayer
 10
178.4999999999999432
 20
82.4499999999999886
 30
0.0
 11
178.4999999999999432
 21
75.9499999999999886
 31
0.0
  0
LINE
  5
1B9
100
AcDbEntity
100
AcDbLine
  8
Otwor
 62
256
370
-1
  6
ByLayer
 10
120.4999999999999432
 20
82.4499999999999886
 30
0.0
 11
120.4999999999999147
 21
75.9499999999999602
 31
0.0
  0
LINE
  5
1BA
100
AcDbEntity
100
AcDbLine
  8
Otwor
 62
256
370
-1
  6
ByLayer
 10
139.0999999999999943
 20
45.1500000000000341
 30
0.0
 11
120.4999999999998863
 21
45.1499999999999488
 31
0.0
  0
LINE
  5
1BB
100
AcDbEntity
100
AcDbLine
  8
Otwor
 62
256
370
-1
  6
ByLayer
 10
139.0999999999999943
 20
45.1500000000000341
 30
0.0
 11
139.0999999999999375
 21
51.6499999999999915
 31
0.0
  0
LINE
  5
1BC
100
AcDbEntity
100
AcDbLine
  8
Otwor
 62
256
370
-1
  6
ByLayer
 10
139.0999999999999375
 20
51.6499999999999915
 30
0.0
 11
120.4999999999999716
 21
51.6500000000000057
 31
0.0
  0
LINE
  5
1BD
100
AcDbEntity
100
AcDbLine
  8
Otwor
 62
256
370
-1
  6
ByLayer
 10
140.2999999999999261
 20
45.1499999999999773
 30
0.0
 11
140.2999999999999545
 21
51.6499999999999773
 31
0.0
  0
LINE
  5
1BE
100
AcDbEntity
100
AcDbLine
  8
Otwor
 62
256
370
-1
  6
ByLayer
 10
153.4999999999998863
 20
45.1499999999999204
 30
0.0
 11
153.4999999999999432
 21
51.6499999999999773
 31
0.0
  0
LINE
  5
1BF
100
AcDbEntity
100
AcDbLine
  8
Otwor
 62
256
370
-1
  6
ByLayer
 10
152.2999999999999261
 20
45.1499999999999915
 30
0.0
 11
140.2999999999999261
 21
45.1499999999999773
 31
0.0
  0
LINE
  5
1C0
100
AcDbEntity
100
AcDbLine
  8
Otwor
 62
256
370
-1
  6
ByLayer
 10
152.2999999999999261
 20
45.1499999999999915
 30
0.0
 11
152.2999999999999545
 21
51.6500000000000057
 31
0.0
  0
LINE
  5
1C1
100
AcDbEntity
100
AcDbLine
  8
Otwor
 62
256
370
-1
  6
ByLayer
 10
152.2999999999999545
 20
51.6500000000000057
 30
0.0
 11
140.2999999999999545
 21
51.6499999999999773
 31
0.0
  0
LINE
  5
1C2
100
AcDbEntity
100
AcDbLine
  8
Otwor
 62
256
370
-1
  6
ByLayer
 10
178.4999999999999147
 20
51.6499999999999204
 30
0.0
 11
153.4999999999999432
 21
51.6499999999999773
 31
0.0
  0
LINE
  5
1C3
100
AcDbEntity
100
AcDbLine
  8
Otwor
 62
256
370
-1
  6
ByLayer
 10
178.4999999999999716
 20
45.1500000000000341
 30
0.0
 11
153.4999999999998863
 21
45.1499999999999204
 31
0.0
  0
LINE
  5
1C4
100
AcDbEntity
100
AcDbLine
  8
Otwor
 62
256
370
-1
  6
ByLayer
 10
178.4999999999999147
 20
51.6499999999999204
 30
0.0
 11
178.4999999999999716
 21
45.1500000000000341
 31
0.0
  0
LINE
  5
1C5
100
AcDbEntity
100
AcDbLine
  8
Otwor
 62
256
370
-1
  6
ByLayer
 10
120.4999999999999716
 20
51.6500000000000057
 30
0.0
 11
120.4999999999998863
 21
45.1499999999999488
 31
0.0
  0
LINE
  5
1C6
100
AcDbEntity
100
AcDbLine
  8
Otwor
 62
256
370
-1
  6
ByLayer
 10
139.0999999999999659
 20
14.3500000000000085
 30
0.0
 11
120.4999999999999147
 21
14.3499999999999801
 31
0.0
  0
LINE
  5
1C7
100
AcDbEntity
100
AcDbLine
  8
Otwor
 62
256
370
-1
  6
ByLayer
 10
139.0999999999999659
 20
14.3500000000000085
 30
0.0
 11
139.0999999999999091
 21
20.8499999999999801
 31
0.0
  0
LINE
  5
1C8
100
AcDbEntity
100
AcDbLine
  8
Otwor
 62
256
370
-1
  6
ByLayer
 10
139.0999999999999091
 20
20.8499999999999801
 30
0.0
 11
120.4999999999999432
 21
20.8499999999999943
 31
0.0
  0
LINE
  5
1C9
100
AcDbEntity
100
AcDbLine
  8
Otwor
 62
256
370
-1
  6
ByLayer
 10
140.2999999999999545
 20
14.3500000000000085
 30
0.0
 11
140.2999999999999261
 21
20.8499999999999801
 31
0.0
  0
LINE
  5
1CA
100
AcDbEntity
100
AcDbLine
  8
Otwor
 62
256
370
-1
  6
ByLayer
 10
153.4999999999998863
 20
14.3499999999999375
 30
0.0
 11
153.4999999999999432
 21
20.8499999999999943
 31
0.0
  0
LINE
  5
1CB
100
AcDbEntity
100
AcDbLine
  8
Otwor
 62
256
370
-1
  6
ByLayer
 10
152.2999999999999545
 20
14.3499999999999801
 30
0.0
 11
140.2999999999999545
 21
14.3500000000000085
 31
0.0
  0
LINE
  5
1CC
100
AcDbEntity
100
AcDbLine
  8
Otwor
 62
256
370
-1
  6
ByLayer
 10
152.2999999999999545
 20
14.3499999999999801
 30
0.0
 11
152.2999999999999261
 21
20.8499999999999659
 31
0.0
  0
LINE
  5
1CD
100
AcDbEntity
100
AcDbLine
  8
Otwor
 62
256
370
-1
  6
ByLayer
 10
152.2999999999999261
 20
20.8499999999999659
 30
0.0
 11
140.2999999999999261
 21
20.8499999999999801
 31
0.0
  0
LINE
  5
1CE
100
AcDbEntity
100
AcDbLine
  8
Otwor
 62
256
370
-1
  6
ByLayer
 10
178.4999999999999432
 20
20.8500000000000085
 30
0.0
 11
153.4999999999999432
 21
20.8499999999999943
 31
0.0
  0
LINE
  5
1CF
100
AcDbEntity
100
AcDbLine
  8
Otwor
 62
256
370
-1
  6
ByLayer
 10
178.4999999999999432
 20
14.3499999999999801
 30
0.0
 11
153.4999999999998863
 21
14.3499999999999375
 31
0.0
  0
LINE
  5
1D0
100
AcDbEntity
100
AcDbLine
  8
Otwor
 62
256
370
-1
  6
ByLayer
 10
178.4999999999999432
 20
20.8500000000000085
 30
0.0
 11
178.4999999999999432
 21
14.3499999999999801
 31
0.0
  0
LINE
  5
1D1
100
AcDbEntity
100
AcDbLine
  8
Otwor
 62
256
370
-1
  6
ByLayer
 10
120.4999999999999432
 20
20.8499999999999943
 30
0.0
 11
120.4999999999999147
 21
14.3499999999999801
 31
0.0
  0
LINE
  5
1D2
100
AcDbEntity
100
AcDbLine
  8
Otwor
 62
256
370
-1
  6
ByLayer
 10
139.0999999999999091
 20
-16.4499999999999886
 30
0.0
 11
120.4999999999999289
 21
-16.4500000000000171
 31
0.0
  0
LINE
  5
1D3
100
AcDbEntity
100
AcDbLine
  8
Otwor
 62
256
370
-1
  6
ByLayer
 10
139.0999999999999091
 20
-16.4499999999999886
 30
0.0
 11
139.0999999999998806
 21
-9.9500000000000455
 31
0.0
  0
LINE
  5
1D4
100
AcDbEntity
100
AcDbLine
  8
Otwor
 62
256
370
-1
  6
ByLayer
 10
139.0999999999998806
 20
-9.9500000000000455
 30
0.0
 11
120.4999999999999005
 21
-9.9499999999999886
 31
0.0
  0
LINE
  5
1D5
100
AcDbEntity
100
AcDbLine
  8
Otwor
 62
256
370
-1
  6
ByLayer
 10
140.2999999999999261
 20
-16.4500000000000171
 30
0.0
 11
140.2999999999999261
 21
-9.9499999999999886
 31
0.0
  0
LINE
  5
1D6
100
AcDbEntity
100
AcDbLine
  8
Otwor
 62
256
370
-1
  6
ByLayer
 10
153.5000000000000284
 20
-16.4499999999999602
 30
0.0
 11
153.4999999999998579
 21
-9.9500000000000739
 31
0.0
  0
LINE
  5
1D7
100
AcDbEntity
100
AcDbLine
  8
Otwor
 62
256
370
-1
  6
ByLayer
 10
152.2999999999999829
 20
-16.4499999999999602
 30
0.0
 11
140.2999999999999261
 21
-16.4500000000000171
 31
0.0
  0
LINE
  5
1D8
100
AcDbEntity
100
AcDbLine
  8
Otwor
 62
256
370
-1
  6
ByLayer
 10
152.2999999999999829
 20
-16.4499999999999602
 30
0.0
 11
152.2999999999999829
 21
-9.9499999999999886
 31
0.0
  0
LINE
  5
1D9
100
AcDbEntity
100
AcDbLine
  8
Otwor
 62
256
370
-1
  6
ByLayer
 10
152.2999999999999829
 20
-9.9499999999999886
 30
0.0
 11
140.2999999999999261
 21
-9.9499999999999886
 31
0.0
  0
LINE
  5
1DA
100
AcDbEntity
100
AcDbLine
  8
Otwor
 62
256
370
-1
  6
ByLayer
 10
178.4999999999999716
 20
-9.9500000000000171
 30
0.0
 11
153.4999999999998579
 21
-9.9500000000000739
 31
0.0
  0
LINE
  5
1DB
100
AcDbEntity
100
AcDbLine
  8
Otwor
 62
256
370
-1
  6
ByLayer
 10
178.5000000000000284
 20
-16.4499999999999318
 30
0.0
 11
153.5000000000000284
 21
-16.4499999999999602
 31
0.0
  0
LINE
  5
1DC
100
AcDbEntity
100
AcDbLine
  8
Otwor
 62
256
370
-1
  6
ByLayer
 10
178.4999999999999716
 20
-9.9500000000000171
 30
0.0
 11
178.5000000000000284
 21
-16.4499999999999318
 31
0.0
  0
LINE
  5
1DD
100
AcDbEntity
100
AcDbLine
  8
Otwor
 62
256
370
-1
  6
ByLayer
 10
120.4999999999999005
 20
-9.9499999999999886
 30
0.0
 11
120.4999999999999289
 21
-16.4500000000000171
 31
0.0
  0
LINE
  5
1DE
100
AcDbEntity
100
AcDbLine
  8
Otwor
 62
256
370
-1
  6
ByLayer
 10
132.4999999999999432
 20
99.0499999999999829
 30
0.0
 11
132.4999999999999432
 21
105.5499999999999403
 31
0.0
  0
LINE
  5
1DF
100
AcDbEntity
100
AcDbLine
  8
Otwor
 62
256
370
-1
  6
ByLayer
 10
133.6999999999999318
 20
99.0499999999999403
 30
0.0
 11
133.6999999999999318
 21
105.5499999999999261
 31
0.0
  0
LINE
  5
1E0
100
AcDbEntity
100
AcDbLine
  8
Otwor
 62
256
370
-1
  6
ByLayer
 10
145.6999999999999318
 20
99.0499999999999261
 30
0.0
 11
145.6999999999999602
 21
105.5500000000000256
 31
0.0
  0
LINE
  5
1E1
100
AcDbEntity
100
AcDbLine
  8
Otwor
 62
256
370
-1
  6
ByLayer
 10
146.8999999999999488
 20
99.0499999999999829
 30
0.0
 11
146.8999999999999488
 21
105.5499999999999829
 31
0.0
  0
LINE
  5
1E2
100
AcDbEntity
100
AcDbLine
  8
Otwor
 62
256
370
-1
  6
ByLayer
 10
158.8999999999999488
 20
99.0499999999999972
 30
0.0
 11
158.8999999999999488
 21
105.5499999999999829
 31
0.0
  0
LINE
  5
1E3
100
AcDbEntity
100
AcDbLine
  8
Otwor
 62
256
370
-1
  6
ByLayer
 10
158.8999999999999488
 20
99.0499999999999972
 30
0.0
 11
146.8999999999999488
 21
99.0499999999999829
 31
0.0
  0
LINE
  5
1E4
100
AcDbEntity
100
AcDbLine
  8
Otwor
 62
256
370
-1
  6
ByLayer
 10
145.6999999999999318
 20
99.0499999999999261
 30
0.0
 11
133.6999999999999318
 21
99.0499999999999403
 31
0.0
  0
LINE
  5
1E5
100
AcDbEntity
100
AcDbLine
  8
Otwor
 62
256
370
-1
  6
ByLayer
 10
133.6999999999999318
 20
105.5499999999999261
 30
0.0
 11
145.6999999999999602
 21
105.5500000000000256
 31
0.0
  0
LINE
  5
1E6
100
AcDbEntity
100
AcDbLine
  8
Otwor
 62
256
370
-1
  6
ByLayer
 10
146.8999999999999488
 20
105.5499999999999829
 30
0.0
 11
158.8999999999999488
 21
105.5499999999999829
 31
0.0
  0
LINE
  5
1E7
100
AcDbEntity
100
AcDbLine
  8
Otwor
 62
256
370
-1
  6
ByLayer
 10
160.0999999999999659
 20
99.0500000000000256
 30
0.0
 11
160.0999999999999659
 21
105.5500000000000398
 31
0.0
  0
LINE
  5
1E8
100
AcDbEntity
100
AcDbLine
  8
Otwor
 62
256
370
-1
  6
ByLayer
 10
172.0999999999999659
 20
99.0500000000000682
 30
0.0
 11
172.0999999999999375
 21
105.5500000000000114
 31
0.0
  0
LINE
  5
1E9
100
AcDbEntity
100
AcDbLine
  8
Otwor
 62
256
370
-1
  6
ByLayer
 10
172.0999999999999659
 20
99.0500000000000682
 30
0.0
 11
160.0999999999999659
 21
99.0500000000000256
 31
0.0
  0
LINE
  5
1EA
100
AcDbEntity
100
AcDbLine
  8
Otwor
 62
256
370
-1
  6
ByLayer
 10
160.0999999999999659
 20
105.5500000000000398
 30
0.0
 11
172.0999999999999375
 21
105.5500000000000114
 31
0.0
  0
LINE
  5
1EB
100
AcDbEntity
100
AcDbLine
  8
Otwor
 62
256
370
-1
  6
ByLayer
 10
132.4999999999999432
 20
99.0499999999999829
 30
0.0
 11
120.4999999999999432
 21
99.0499999999999972
 31
0.0
  0
LINE
  5
1EC
100
AcDbEntity
100
AcDbLine
  8
Otwor
 62
256
370
-1
  6
ByLayer
 10
132.4999999999999432
 20
105.5499999999999403
 30
0.0
 11
120.4999999999999432
 21
105.5499999999999829
 31
0.0
  0
LINE
  5
1ED
100
AcDbEntity
100
AcDbLine
  8
Otwor
 62
256
370
-1
  6
ByLayer
 10
132.4999999999999432
 20
83.6499999999999773
 30
0.0
 11
132.4999999999999432
 21
90.1499999999999631
 31
0.0
  0
LINE
  5
1EE
100
AcDbEntity
100
AcDbLine
  8
Otwor
 62
256
370
-1
  6
ByLayer
 10
133.6999999999999602
 20
83.6499999999999488
 30
0.0
 11
133.6999999999999318
 21
90.1499999999999631
 31
0.0
  0
LINE
  5
1EF
100
AcDbEntity
100
AcDbLine
  8
Otwor
 62
256
370
-1
  6
ByLayer
 10
145.6999999999999318
 20
83.6499999999999346
 30
0.0
 11
145.6999999999999318
 21
90.1499999999999204
 31
0.0
  0
LINE
  5
1F0
100
AcDbEntity
100
AcDbLine
  8
Otwor
 62
256
370
-1
  6
ByLayer
 10
146.8999999999999488
 20
83.6499999999999488
 30
0.0
 11
146.8999999999999488
 21
90.1499999999999773
 31
0.0
  0
LINE
  5
1F1
100
AcDbEntity
100
AcDbLine
  8
Otwor
 62
256
370
-1
  6
ByLayer
 10
158.8999999999999488
 20
83.6499999999999488
 30
0.0
 11
158.8999999999999488
 21
90.1499999999999773
 31
0.0
  0
LINE
  5
1F2
100
AcDbEntity
100
AcDbLine
  8
Otwor
 62
256
370
-1
  6
ByLayer
 10
158.8999999999999488
 20
83.6499999999999488
 30
0.0
 11
146.8999999999999488
 21
83.6499999999999488
 31
0.0
  0
LINE
  5
1F3
100
AcDbEntity
100
AcDbLine
  8
Otwor
 62
256
370
-1
  6
ByLayer
 10
145.6999999999999318
 20
83.6499999999999346
 30
0.0
 11
133.6999999999999602
 21
83.6499999999999488
 31
0.0
  0
LINE
  5
1F4
100
AcDbEntity
100
AcDbLine
  8
Otwor
 62
256
370
-1
  6
ByLayer
 10
133.6999999999999318
 20
90.1499999999999631
 30
0.0
 11
145.6999999999999318
 21
90.1499999999999204
 31
0.0
  0
LINE
  5
1F5
100
AcDbEntity
100
AcDbLine
  8
Otwor
 62
256
370
-1
  6
ByLayer
 10
146.8999999999999488
 20
90.1499999999999773
 30
0.0
 11
158.8999999999999488
 21
90.1499999999999773
 31
0.0
  0
LINE
  5
1F6
100
AcDbEntity
100
AcDbLine
  8
Otwor
 62
256
370
-1
  6
ByLayer
 10
160.0999999999999375
 20
83.6499999999999773
 30
0.0
 11
160.0999999999999375
 21
90.1499999999999346
 31
0.0
  0
LINE
  5
1F7
100
AcDbEntity
100
AcDbLine
  8
Otwor
 62
256
370
-1
  6
ByLayer
 10
172.0999999999999375
 20
83.6499999999999631
 30
0.0
 11
172.0999999999999375
 21
90.1499999999999915
 31
0.0
  0
LINE
  5
1F8
100
AcDbEntity
100
AcDbLine
  8
Otwor
 62
256
370
-1
  6
ByLayer
 10
172.0999999999999375
 20
83.6499999999999631
 30
0.0
 11
160.0999999999999375
 21
83.6499999999999773
 31
0.0
  0
LINE
  5
1F9
100
AcDbEntity
100
AcDbLine
  8
Otwor
 62
256
370
-1
  6
ByLayer
 10
160.0999999999999375
 20
90.1499999999999346
 30
0.0
 11
172.0999999999999375
 21
90.1499999999999915
 31
0.0
  0
LINE
  5
1FA
100
AcDbEntity
100
AcDbLine
  8
Otwor
 62
256
370
-1
  6
ByLayer
 10
132.4999999999999432
 20
83.6499999999999773
 30
0.0
 11
120.4999999999999432
 21
83.6499999999999773
 31
0.0
  0
LINE
  5
1FB
100
AcDbEntity
100
AcDbLine
  8
Otwor
 62
256
370
-1
  6
ByLayer
 10
132.4999999999999432
 20
90.1499999999999631
 30
0.0
 11
120.4999999999999432
 21
90.1499999999999631
 31
0.0
  0
LINE
  5
1FC
100
AcDbEntity
100
AcDbLine
  8
Otwor
 62
256
370
-1
  6
ByLayer
 10
132.4999999999999716
 20
68.2499999999999858
 30
0.0
 11
132.4999999999999432
 21
74.7499999999999432
 31
0.0
  0
LINE
  5
1FD
100
AcDbEntity
100
AcDbLine
  8
Otwor
 62
256
370
-1
  6
ByLayer
 10
133.6999999999999886
 20
68.25
 30
0.0
 11
133.6999999999999318
 21
74.7499999999999432
 31
0.0
  0
LINE
  5
1FE
100
AcDbEntity
100
AcDbLine
  8
Otwor
 62
256
370
-1
  6
ByLayer
 10
145.6999999999999318
 20
68.2499999999999289
 30
0.0
 11
145.6999999999999318
 21
74.7499999999999289
 31
0.0
  0
LINE
  5
1FF
100
AcDbEntity
100
AcDbLine
  8
Otwor
 62
256
370
-1
  6
ByLayer
 10
146.8999999999999204
 20
68.2499999999999432
 30
0.0
 11
146.8999999999999488
 21
74.7499999999999574
 31
0.0
  0
LINE
  5
200
100
AcDbEntity
100
AcDbLine
  8
Otwor
 62
256
370
-1
  6
ByLayer
 10
158.8999999999999488
 20
68.2499999999999716
 30
0.0
 11
158.8999999999999773
 21
74.7500000000000284
 31
0.0
  0
LINE
  5
201
100
AcDbEntity
100
AcDbLine
  8
Otwor
 62
256
370
-1
  6
ByLayer
 10
158.8999999999999488
 20
68.2499999999999716
 30
0.0
 11
146.8999999999999204
 21
68.2499999999999432
 31
0.0
  0
LINE
  5
202
100
AcDbEntity
100
AcDbLine
  8
Otwor
 62
256
370
-1
  6
ByLayer
 10
145.6999999999999318
 20
68.2499999999999289
 30
0.0
 11
133.6999999999999886
 21
68.25
 31
0.0
  0
LINE
  5
203
100
AcDbEntity
100
AcDbLine
  8
Otwor
 62
256
370
-1
  6
ByLayer
 10
133.6999999999999318
 20
74.7499999999999432
 30
0.0
 11
145.6999999999999318
 21
74.7499999999999289
 31
0.0
  0
LINE
  5
204
100
AcDbEntity
100
AcDbLine
  8
Otwor
 62
256
370
-1
  6
ByLayer
 10
146.8999999999999488
 20
74.7499999999999574
 30
0.0
 11
158.8999999999999773
 21
74.7500000000000284
 31
0.0
  0
LINE
  5
205
100
AcDbEntity
100
AcDbLine
  8
Otwor
 62
256
370
-1
  6
ByLayer
 10
160.0999999999999375
 20
68.2499999999999574
 30
0.0
 11
160.0999999999999091
 21
74.7499999999999432
 31
0.0
  0
LINE
  5
206
100
AcDbEntity
100
AcDbLine
  8
Otwor
 62
256
370
-1
  6
ByLayer
 10
172.0999999999999091
 20
68.2499999999999574
 30
0.0
 11
172.0999999999999375
 21
74.7499999999999432
 31
0.0
  0
LINE
  5
207
100
AcDbEntity
100
AcDbLine
  8
Otwor
 62
256
370
-1
  6
ByLayer
 10
172.0999999999999091
 20
68.2499999999999574
 30
0.0
 11
160.0999999999999375
 21
68.2499999999999574
 31
0.0
  0
LINE
  5
208
100
AcDbEntity
100
AcDbLine
  8
Otwor
 62
256
370
-1
  6
ByLayer
 10
160.0999999999999091
 20
74.7499999999999432
 30
0.0
 11
172.0999999999999375
 21
74.7499999999999432
 31
0.0
  0
LINE
  5
209
100
AcDbEntity
100
AcDbLine
  8
Otwor
 62
256
370
-1
  6
ByLayer
 10
132.4999999999999716
 20
68.2499999999999858
 30
0.0
 11
120.4999999999999574
 21
68.2499999999999716
 31
0.0
  0
LINE
  5
20A
100
AcDbEntity
100
AcDbLine
  8
Otwor
 62
256
370
-1
  6
ByLayer
 10
132.4999999999999432
 20
74.7499999999999432
 30
0.0
 11
120.4999999999999716
 21
74.75
 31
0.0
  0
LINE
  5
20B
100
AcDbEntity
100
AcDbLine
  8
Otwor
 62
256
370
-1
  6
ByLayer
 10
132.4999999999999432
 20
52.8499999999999517
 30
0.0
 11
132.4999999999999147
 21
59.3499999999999304
 31
0.0
  0
LINE
  5
20C
100
AcDbEntity
100
AcDbLine
  8
Otwor
 62
256
370
-1
  6
ByLayer
 10
133.6999999999999034
 20
52.8499999999999233
 30
0.0
 11
133.6999999999999034
 21
59.3499999999999091
 31
0.0
  0
LINE
  5
20D
100
AcDbEntity
100
AcDbLine
  8
Otwor
 62
256
370
-1
  6
ByLayer
 10
145.6999999999999318
 20
52.8499999999999233
 30
0.0
 11
145.6999999999999318
 21
59.3499999999999375
 31
0.0
  0
LINE
  5
20E
100
AcDbEntity
100
AcDbLine
  8
Otwor
 62
256
370
-1
  6
ByLayer
 10
146.8999999999999488
 20
52.8499999999999517
 30
0.0
 11
146.8999999999999204
 21
59.3499999999999162
 31
0.0
  0
LINE
  5
20F
100
AcDbEntity
100
AcDbLine
  8
Otwor
 62
256
370
-1
  6
ByLayer
 10
158.8999999999999204
 20
52.8499999999999091
 30
0.0
 11
158.9000000000000057
 21
59.3500000000000298
 31
0.0
  0
LINE
  5
210
100
AcDbEntity
100
AcDbLine
  8
Otwor
 62
256
370
-1
  6
ByLayer
 10
158.8999999999999204
 20
52.8499999999999091
 30
0.0
 11
146.8999999999999488
 21
52.8499999999999517
 31
0.0
  0
LINE
  5
211
100
AcDbEntity
100
AcDbLine
  8
Otwor
 62
256
370
-1
  6
ByLayer
 10
145.6999999999999318
 20
52.8499999999999233
 30
0.0
 11
133.6999999999999034
 21
52.8499999999999233
 31
0.0
  0
LINE
  5
212
100
AcDbEntity
100
AcDbLine
  8
Otwor
 62
256
370
-1
  6
ByLayer
 10
133.6999999999999034
 20
59.3499999999999091
 30
0.0
 11
145.6999999999999318
 21
59.3499999999999375
 31
0.0
  0
LINE
  5
213
100
AcDbEntity
100
AcDbLine
  8
Otwor
 62
256
370
-1
  6
ByLayer
 10
146.8999999999999204
 20
59.3499999999999162
 30
0.0
 11
158.9000000000000057
 21
59.3500000000000298
 31
0.0
  0
LINE
  5
214
100
AcDbEntity
100
AcDbLine
  8
Otwor
 62
256
370
-1
  6
ByLayer
 10
160.0999999999999375
 20
52.8499999999999801
 30
0.0
 11
160.0999999999999375
 21
59.3499999999999446
 31
0.0
  0
LINE
  5
215
100
AcDbEntity
100
AcDbLine
  8
Otwor
 62
256
370
-1
  6
ByLayer
 10
172.0999999999999091
 20
52.8499999999999091
 30
0.0
 11
172.0999999999999091
 21
59.3499999999998948
 31
0.0
  0
LINE
  5
216
100
AcDbEntity
100
AcDbLine
  8
Otwor
 62
256
370
-1
  6
ByLayer
 10
172.0999999999999091
 20
52.8499999999999091
 30
0.0
 11
160.0999999999999375
 21
52.8499999999999801
 31
0.0
  0
LINE
  5
217
100
AcDbEntity
100
AcDbLine
  8
Otwor
 62
256
370
-1
  6
ByLayer
 10
160.0999999999999375
 20
59.3499999999999446
 30
0.0
 11
172.0999999999999091
 21
59.3499999999998948
 31
0.0
  0
LINE
  5
218
100
AcDbEntity
100
AcDbLine
  8
Otwor
 62
256
370
-1
  6
ByLayer
 10
132.4999999999999432
 20
52.8499999999999517
 30
0.0
 11
120.4999999999999432
 21
52.8499999999999801
 31
0.0
  0
LINE
  5
219
100
AcDbEntity
100
AcDbLine
  8
Otwor
 62
256
370
-1
  6
ByLayer
 10
132.4999999999999147
 20
59.3499999999999304
 30
0.0
 11
120.4999999999999716
 21
59.3499999999999801
 31
0.0
  0
LINE
  5
21A
100
AcDbEntity
100
AcDbLine
  8
Otwor
 62
256
370
-1
  6
ByLayer
 10
132.4999999999999147
 20
37.4499999999999318
 30
0.0
 11
132.4999999999999432
 21
43.9499999999999602
 31
0.0
  0
LINE
  5
21B
100
AcDbEntity
100
AcDbLine
  8
Otwor
 62
256
370
-1
  6
ByLayer
 10
133.6999999999999034
 20
37.4499999999999176
 30
0.0
 11
133.6999999999999034
 21
43.9499999999999318
 31
0.0
  0
LINE
  5
21C
100
AcDbEntity
100
AcDbLine
  8
Otwor
 62
256
370
-1
  6
ByLayer
 10
145.6999999999999602
 20
37.4499999999999602
 30
0.0
 11
145.6999999999999602
 21
43.9499999999999744
 31
0.0
  0
LINE
  5
21D
100
AcDbEntity
100
AcDbLine
  8
Otwor
 62
256
370
-1
  6
ByLayer
 10
146.8999999999999773
 20
37.4499999999999744
 30
0.0
 11
146.8999999999999204
 21
43.9499999999999318
 31
0.0
  0
LINE
  5
21E
100
AcDbEntity
100
AcDbLine
  8
Otwor
 62
256
370
-1
  6
ByLayer
 10
158.8999999999999204
 20
37.4499999999999318
 30
0.0
 11
158.8999999999999773
 21
43.9499999999999886
 31
0.0
  0
LINE
  5
21F
100
AcDbEntity
100
AcDbLine
  8
Otwor
 62
256
370
-1
  6
ByLayer
 10
158.8999999999999204
 20
37.4499999999999318
 30
0.0
 11
146.8999999999999773
 21
37.4499999999999744
 31
0.0
  0
LINE
  5
220
100
AcDbEntity
100
AcDbLine
  8
Otwor
 62
256
370
-1
  6
ByLayer
 10
145.6999999999999602
 20
37.4499999999999602
 30
0.0
 11
133.6999999999999034
 21
37.4499999999999176
 31
0.0
  0
LINE
  5
221
100
AcDbEntity
100
AcDbLine
  8
Otwor
 62
256
370
-1
  6
ByLayer
 10
133.6999999999999034
 20
43.9499999999999318
 30
0.0
 11
145.6999999999999602
 21
43.9499999999999744
 31
0.0
  0
LINE
  5
222
100
AcDbEntity
100
AcDbLine
  8
Otwor
 62
256
370
-1
  6
ByLayer
 10
146.8999999999999204
 20
43.9499999999999318
 30
0.0
 11
158.8999999999999773
 21
43.9499999999999886
 31
0.0
  0
LINE
  5
223
100
AcDbEntity
100
AcDbLine
  8
Otwor
 62
256
370
-1
  6
ByLayer
 10
160.0999999999999375
 20
37.4499999999999602
 30
0.0
 11
160.0999999999999659
 21
43.9500000000000028
 31
0.0
  0
LINE
  5
224
100
AcDbEntity
100
AcDbLine
  8
Otwor
 62
256
370
-1
  6
ByLayer
 10
172.0999999999999091
 20
37.4499999999999176
 30
0.0
 11
172.0999999999999375
 21
43.9499999999999602
 31
0.0
  0
LINE
  5
225
100
AcDbEntity
100
AcDbLine
  8
Otwor
 62
256
370
-1
  6
ByLayer
 10
172.0999999999999091
 20
37.4499999999999176
 30
0.0
 11
160.0999999999999375
 21
37.4499999999999602
 31
0.0
  0
LINE
  5
226
100
AcDbEntity
100
AcDbLine
  8
Otwor
 62
256
370
-1
  6
ByLayer
 10
160.0999999999999659
 20
43.9500000000000028
 30
0.0
 11
172.0999999999999375
 21
43.9499999999999602
 31
0.0
  0
LINE
  5
227
100
AcDbEntity
100
AcDbLine
  8
Otwor
 62
256
370
-1
  6
ByLayer
 10
132.4999999999999147
 20
37.4499999999999318
 30
0.0
 11
120.4999999999999716
 21
37.4499999999999744
 31
0.0
  0
LINE
  5
228
100
AcDbEntity
100
AcDbLine
  8
Otwor
 62
256
370
-1
  6
ByLayer
 10
132.4999999999999432
 20
43.9499999999999602
 30
0.0
 11
120.4999999999998863
 21
43.9499999999999176
 31
0.0
  0
LINE
  5
229
100
AcDbEntity
100
AcDbLine
  8
Otwor
 62
256
370
-1
  6
ByLayer
 10
132.4999999999999147
 20
22.0499999999999261
 30
0.0
 11
132.4999999999999147
 21
28.5499999999999261
 31
0.0
  0
LINE
  5
22A
100
AcDbEntity
100
AcDbLine
  8
Otwor
 62
256
370
-1
  6
ByLayer
 10
133.6999999999999318
 20
22.0499999999999261
 30
0.0
 11
133.6999999999999034
 21
28.5499999999999403
 31
0.0
  0
LINE
  5
22B
100
AcDbEntity
100
AcDbLine
  8
Otwor
 62
256
370
-1
  6
ByLayer
 10
145.6999999999999602
 20
22.0499999999999403
 30
0.0
 11
145.6999999999999318
 21
28.5499999999999403
 31
0.0
  0
LINE
  5
22C
100
AcDbEntity
100
AcDbLine
  8
Otwor
 62
256
370
-1
  6
ByLayer
 10
146.9000000000000057
 20
22.0499999999999972
 30
0.0
 11
146.899999999999892
 21
28.5499999999999119
 31
0.0
  0
LINE
  5
22D
100
AcDbEntity
100
AcDbLine
  8
Otwor
 62
256
370
-1
  6
ByLayer
 10
158.9000000000000057
 20
22.0499999999999829
 30
0.0
 11
158.8999999999999204
 21
28.5499999999999403
 31
0.0
  0
LINE
  5
22E
100
AcDbEntity
100
AcDbLine
  8
Otwor
 62
256
370
-1
  6
ByLayer
 10
158.9000000000000057
 20
22.0499999999999829
 30
0.0
 11
146.9000000000000057
 21
22.0499999999999972
 31
0.0
  0
LINE
  5
22F
100
AcDbEntity
100
AcDbLine
  8
Otwor
 62
256
370
-1
  6
ByLayer
 10
145.6999999999999602
 20
22.0499999999999403
 30
0.0
 11
133.6999999999999318
 21
22.0499999999999261
 31
0.0
  0
LINE
  5
230
100
AcDbEntity
100
AcDbLine
  8
Otwor
 62
256
370
-1
  6
ByLayer
 10
133.6999999999999034
 20
28.5499999999999403
 30
0.0
 11
145.6999999999999318
 21
28.5499999999999403
 31
0.0
  0
LINE
  5
231
100
AcDbEntity
100
AcDbLine
  8
Otwor
 62
256
370
-1
  6
ByLayer
 10
146.899999999999892
 20
28.5499999999999119
 30
0.0
 11
158.8999999999999204
 21
28.5499999999999403
 31
0.0
  0
LINE
  5
232
100
AcDbEntity
100
AcDbLine
  8
Otwor
 62
256
370
-1
  6
ByLayer
 10
160.0999999999999091
 20
22.0499999999999261
 30
0.0
 11
160.0999999999999091
 21
28.5499999999999119
 31
0.0
  0
LINE
  5
233
100
AcDbEntity
100
AcDbLine
  8
Otwor
 62
256
370
-1
  6
ByLayer
 10
172.0999999999998806
 20
22.0499999999999119
 30
0.0
 11
172.0999999999999375
 21
28.5499999999999261
 31
0.0
  0
LINE
  5
234
100
AcDbEntity
100
AcDbLine
  8
Otwor
 62
256
370
-1
  6
ByLayer
 10
172.0999999999998806
 20
22.0499999999999119
 30
0.0
 11
160.0999999999999091
 21
22.0499999999999261
 31
0.0
  0
LINE
  5
235
100
AcDbEntity
100
AcDbLine
  8
Otwor
 62
256
370
-1
  6
ByLayer
 10
160.0999999999999091
 20
28.5499999999999119
 30
0.0
 11
172.0999999999999375
 21
28.5499999999999261
 31
0.0
  0
LINE
  5
236
100
AcDbEntity
100
AcDbLine
  8
Otwor
 62
256
370
-1
  6
ByLayer
 10
132.4999999999999147
 20
22.0499999999999261
 30
0.0
 11
120.4999999999999574
 21
22.0499999999999545
 31
0.0
  0
LINE
  5
237
100
AcDbEntity
100
AcDbLine
  8
Otwor
 62
256
370
-1
  6
ByLayer
 10
132.4999999999999147
 20
28.5499999999999261
 30
0.0
 11
120.4999999999998863
 21
28.5499999999999119
 31
0.0
  0
LINE
  5
238
100
AcDbEntity
100
AcDbLine
  8
Otwor
 62
256
370
-1
  6
ByLayer
 10
132.4999999999999432
 20
6.6499999999999631
 30
0.0
 11
132.4999999999998863
 21
13.1499999999999062
 31
0.0
  0
LINE
  5
239
100
AcDbEntity
100
AcDbLine
  8
Otwor
 62
256
370
-1
  6
ByLayer
 10
133.6999999999999034
 20
6.6499999999999204
 30
0.0
 11
133.6999999999999886
 21
13.1499999999999631
 31
0.0
  0
LINE
  5
23A
100
AcDbEntity
100
AcDbLine
  8
Otwor
 62
256
370
-1
  6
ByLayer
 10
145.6999999999999034
 20
6.6499999999999204
 30
0.0
 11
145.6999999999999318
 21
13.1499999999999346
 31
0.0
  0
LINE
  5
23B
100
AcDbEntity
100
AcDbLine
  8
Otwor
 62
256
370
-1
  6
ByLayer
 10
146.8999999999999488
 20
6.6499999999999204
 30
0.0
 11
146.899999999999892
 21
13.149999999999892
 31
0.0
  0
LINE
  5
23C
100
AcDbEntity
100
AcDbLine
  8
Otwor
 62
256
370
-1
  6
ByLayer
 10
158.8999999999999773
 20
6.6499999999999773
 30
0.0
 11
158.899999999999892
 21
13.1499999999998778
 31
0.0
  0
LINE
  5
23D
100
AcDbEntity
100
AcDbLine
  8
Otwor
 62
256
370
-1
  6
ByLayer
 10
158.8999999999999773
 20
6.6499999999999773
 30
0.0
 11
146.8999999999999488
 21
6.6499999999999204
 31
0.0
  0
LINE
  5
23E
100
AcDbEntity
100
AcDbLine
  8
Otwor
 62
256
370
-1
  6
ByLayer
 10
145.6999999999999034
 20
6.6499999999999204
 30
0.0
 11
133.6999999999999034
 21
6.6499999999999204
 31
0.0
  0
LINE
  5
23F
100
AcDbEntity
100
AcDbLine
  8
Otwor
 62
256
370
-1
  6
ByLayer
 10
133.6999999999999886
 20
13.1499999999999631
 30
0.0
 11
145.6999999999999318
 21
13.1499999999999346
 31
0.0
  0
LINE
  5
240
100
AcDbEntity
100
AcDbLine
  8
Otwor
 62
256
370
-1
  6
ByLayer
 10
146.899999999999892
 20
13.149999999999892
 30
0.0
 11
158.899999999999892
 21
13.1499999999998778
 31
0.0
  0
LINE
  5
241
100
AcDbEntity
100
AcDbLine
  8
Otwor
 62
256
370
-1
  6
ByLayer
 10
160.0999999999998522
 20
6.6499999999998778
 30
0.0
 11
160.0999999999999375
 21
13.1499999999999773
 31
0.0
  0
LINE
  5
242
100
AcDbEntity
100
AcDbLine
  8
Otwor
 62
256
370
-1
  6
ByLayer
 10
172.0999999999999091
 20
6.6499999999999346
 30
0.0
 11
172.0999999999999091
 21
13.1499999999999062
 31
0.0
  0
LINE
  5
243
100
AcDbEntity
100
AcDbLine
  8
Otwor
 62
256
370
-1
  6
ByLayer
 10
172.0999999999999091
 20
6.6499999999999346
 30
0.0
 11
160.0999999999998522
 21
6.6499999999998778
 31
0.0
  0
LINE
  5
244
100
AcDbEntity
100
AcDbLine
  8
Otwor
 62
256
370
-1
  6
ByLayer
 10
160.0999999999999375
 20
13.1499999999999773
 30
0.0
 11
172.0999999999999091
 21
13.1499999999999062
 31
0.0
  0
LINE
  5
245
100
AcDbEntity
100
AcDbLine
  8
Otwor
 62
256
370
-1
  6
ByLayer
 10
132.4999999999999432
 20
6.6499999999999631
 30
0.0
 11
120.4999999999999147
 21
6.6499999999999204
 31
0.0
  0
LINE
  5
246
100
AcDbEntity
100
AcDbLine
  8
Otwor
 62
256
370
-1
  6
ByLayer
 10
132.4999999999998863
 20
13.1499999999999062
 30
0.0
 11
120.4999999999999432
 21
13.1499999999999488
 31
0.0
  0
LINE
  5
247
100
AcDbEntity
100
AcDbLine
  8
Otwor
 62
256
370
-1
  6
ByLayer
 10
132.4999999999998863
 20
-8.7500000000000853
 30
0.0
 11
132.4999999999999432
 21
-2.2500000000000426
 31
0.0
  0
LINE
  5
248
100
AcDbEntity
100
AcDbLine
  8
Otwor
 62
256
370
-1
  6
ByLayer
 10
133.6999999999999318
 20
-8.7500000000000568
 30
0.0
 11
133.7000000000000171
 21
-2.2500000000000284
 31
0.0
  0
LINE
  5
249
100
AcDbEntity
100
AcDbLine
  8
Otwor
 62
256
370
-1
  6
ByLayer
 10
145.6999999999998749
 20
-8.7500000000001137
 30
0.0
 11
145.6999999999998749
 21
-2.2500000000000853
 31
0.0
  0
LINE
  5
24A
100
AcDbEntity
100
AcDbLine
  8
Otwor
 62
256
370
-1
  6
ByLayer
 10
146.8999999999998636
 20
-8.7500000000001137
 30
0.0
 11
146.8999999999999488
 21
-2.2500000000000568
 31
0.0
  0
LINE
  5
24B
100
AcDbEntity
100
AcDbLine
  8
Otwor
 62
256
370
-1
  6
ByLayer
 10
158.8999999999999204
 20
-8.7500000000001137
 30
0.0
 11
158.8999999999999488
 21
-2.2500000000000426
 31
0.0
  0
LINE
  5
24C
100
AcDbEntity
100
AcDbLine
  8
Otwor
 62
256
370
-1
  6
ByLayer
 10
158.8999999999999204
 20
-8.7500000000001137
 30
0.0
 11
146.8999999999998636
 21
-8.7500000000001137
 31
0.0
  0
LINE
  5
24D
100
AcDbEntity
100
AcDbLine
  8
Otwor
 62
256
370
-1
  6
ByLayer
 10
145.6999999999998749
 20
-8.7500000000001137
 30
0.0
 11
133.6999999999999318
 21
-8.7500000000000568
 31
0.0
  0
LINE
  5
24E
100
AcDbEntity
100
AcDbLine
  8
Otwor
 62
256
370
-1
  6
ByLayer
 10
133.7000000000000171
 20
-2.2500000000000284
 30
0.0
 11
145.6999999999998749
 21
-2.2500000000000853
 31
0.0
  0
LINE
  5
24F
100
AcDbEntity
100
AcDbLine
  8
Otwor
 62
256
370
-1
  6
ByLayer
 10
146.8999999999999488
 20
-2.2500000000000568
 30
0.0
 11
158.8999999999999488
 21
-2.2500000000000426
 31
0.0
  0
LINE
  5
250
100
AcDbEntity
100
AcDbLine
  8
Otwor
 62
256
370
-1
  6
ByLayer
 10
160.0999999999999091
 20
-8.7500000000000568
 30
0.0
 11
160.0999999999999943
 21
-2.25
 31
0.0
  0
LINE
  5
251
100
AcDbEntity
100
AcDbLine
  8
Otwor
 62
256
370
-1
  6
ByLayer
 10
172.0999999999999943
 20
-8.7500000000000284
 30
0.0
 11
172.0999999999999091
 21
-2.2500000000000711
 31
0.0
  0
LINE
  5
252
100
AcDbEntity
100
AcDbLine
  8
Otwor
 62
256
370
-1
  6
ByLayer
 10
172.0999999999999943
 20
-8.7500000000000284
 30
0.0
 11
160.0999999999999091
 21
-8.7500000000000568
 31
0.0
  0
LINE
  5
253
100
AcDbEntity
100
AcDbLine
  8
Otwor
 62
256
370
-1
  6
ByLayer
 10
160.0999999999999943
 20
-2.25
 30
0.0
 11
172.0999999999999091
 21
-2.2500000000000711
 31
0.0
  0
LINE
  5
254
100
AcDbEntity
100
AcDbLine
  8
Otwor
 62
256
370
-1
  6
ByLayer
 10
132.4999999999998863
 20
-8.7500000000000853
 30
0.0
 11
120.4999999999999147
 21
-8.7500000000000568
 31
0.0
  0
LINE
  5
255
100
AcDbEntity
100
AcDbLine
  8
Otwor
 62
256
370
-1
  6
ByLayer
 10
132.4999999999999432
 20
-2.2500000000000426
 30
0.0
 11
120.4999999999999147
 21
-2.2500000000000568
 31
0.0
  0
LINE
  5
256
100
AcDbEntity
100
AcDbLine
  8
Otwor
 62
256
370
-1
  6
ByLayer
 10
132.4999999999998863
 20
-24.1500000000000909
 30
0.0
 11
132.4999999999998863
 21
-17.6500000000001194
 31
0.0
  0
LINE
  5
257
100
AcDbEntity
100
AcDbLine
  8
Otwor
 62
256
370
-1
  6
ByLayer
 10
133.6999999999999318
 20
-24.1500000000000625
 30
0.0
 11
133.6999999999998749
 21
-17.6500000000000909
 31
0.0
  0
LINE
  5
258
100
AcDbEntity
100
AcDbLine
  8
Otwor
 62
256
370
-1
  6
ByLayer
 10
145.6999999999998465
 20
-24.1500000000001194
 30
0.0
 11
145.6999999999999602
 21
-17.6500000000000625
 31
0.0
  0
LINE
  5
259
100
AcDbEntity
100
AcDbLine
  8
Otwor
 62
256
370
-1
  6
ByLayer
 10
146.8999999999999204
 20
-24.1500000000000909
 30
0.0
 11
146.8999999999998636
 21
-17.6500000000001478
 31
0.0
  0
LINE
  5
25A
100
AcDbEntity
100
AcDbLine
  8
Otwor
 62
256
370
-1
  6
ByLayer
 10
158.8999999999999204
 20
-24.1500000000000909
 30
0.0
 11
158.899999999999892
 21
-17.6500000000001194
 31
0.0
  0
LINE
  5
25B
100
AcDbEntity
100
AcDbLine
  8
Otwor
 62
256
370
-1
  6
ByLayer
 10
158.8999999999999204
 20
-24.1500000000000909
 30
0.0
 11
146.8999999999999204
 21
-24.1500000000000909
 31
0.0
  0
LINE
  5
25C
100
AcDbEntity
100
AcDbLine
  8
Otwor
 62
256
370
-1
  6
ByLayer
 10
145.6999999999998465
 20
-24.1500000000001194
 30
0.0
 11
133.6999999999999318
 21
-24.1500000000000625
 31
0.0
  0
LINE
  5
25D
100
AcDbEntity
100
AcDbLine
  8
Otwor
 62
256
370
-1
  6
ByLayer
 10
133.6999999999998749
 20
-17.6500000000000909
 30
0.0
 11
145.6999999999999602
 21
-17.6500000000000625
 31
0.0
  0
LINE
  5
25E
100
AcDbEntity
100
AcDbLine
  8
Otwor
 62
256
370
-1
  6
ByLayer
 10
146.8999999999998636
 20
-17.6500000000001478
 30
0.0
 11
158.899999999999892
 21
-17.6500000000001194
 31
0.0
  0
LINE
  5
25F
100
AcDbEntity
100
AcDbLine
  8
Otwor
 62
256
370
-1
  6
ByLayer
 10
160.0999999999999375
 20
-24.1500000000000909
 30
0.0
 11
160.0999999999999375
 21
-17.6500000000000909
 31
0.0
  0
LINE
  5
260
100
AcDbEntity
100
AcDbLine
  8
Otwor
 62
256
370
-1
  6
ByLayer
 10
172.0999999999998522
 20
-24.1500000000001194
 30
0.0
 11
172.0999999999999091
 21
-17.6500000000000909
 31
0.0
  0
LINE
  5
261
100
AcDbEntity
100
AcDbLine
  8
Otwor
 62
256
370
-1
  6
ByLayer
 10
172.0999999999998522
 20
-24.1500000000001194
 30
0.0
 11
160.0999999999999375
 21
-24.1500000000000909
 31
0.0
  0
LINE
  5
262
100
AcDbEntity
100
AcDbLine
  8
Otwor
 62
256
370
-1
  6
ByLayer
 10
160.0999999999999375
 20
-17.6500000000000909
 30
0.0
 11
172.0999999999999091
 21
-17.6500000000000909
 31
0.0
  0
LINE
  5
263
100
AcDbEntity
100
AcDbLine
  8
Otwor
 62
256
370
-1
  6
ByLayer
 10
132.4999999999998863
 20
-24.1500000000000909
 30
0.0
 11
120.4999999999999858
 21
-24.1500000000000341
 31
0.0
  0
LINE
  5
264
100
AcDbEntity
100
AcDbLine
  8
Otwor
 62
256
370
-1
  6
ByLayer
 10
132.4999999999998863
 20
-17.6500000000001194
 30
0.0
 11
120.4999999999999432
 21
-17.6500000000000625
 31
0.0
  0
LINE
  5
265
100
AcDbEntity
100
AcDbLine
  8
Otwor
 62
256
370
-1
  6
ByLayer
 10
140.2999999999999545
 20
91.3499999999999801
 30
0.0
 11
140.2999999999999261
 21
97.8499999999999517
 31
0.0
  0
LINE
  5
266
100
AcDbEntity
100
AcDbLine
  8
Otwor
 62
256
370
-1
  6
ByLayer
 10
139.0999999999999375
 20
91.3499999999999659
 30
0.0
 11
139.0999999999999375
 21
97.8500000000000085
 31
0.0
  0
LINE
  5
267
100
AcDbEntity
100
AcDbLine
  8
Otwor
 62
256
370
-1
  6
ByLayer
 10
165.2999999999999545
 20
91.3499999999999659
 30
0.0
 11
165.2999999999999545
 21
97.8499999999999375
 31
0.0
  0
LINE
  5
268
100
AcDbEntity
100
AcDbLine
  8
Otwor
 62
256
370
-1
  6
ByLayer
 10
165.2999999999999545
 20
97.8499999999999375
 30
0.0
 11
140.2999999999999261
 21
97.8499999999999517
 31
0.0
  0
LINE
  5
269
100
AcDbEntity
100
AcDbLine
  8
Otwor
 62
256
370
-1
  6
ByLayer
 10
140.2999999999999545
 20
91.3499999999999801
 30
0.0
 11
165.2999999999999545
 21
91.3499999999999659
 31
0.0
  0
LINE
  5
26A
100
AcDbEntity
100
AcDbLine
  8
Otwor
 62
256
370
-1
  6
ByLayer
 10
139.0999999999999375
 20
97.8500000000000085
 30
0.0
 11
120.4999999999999432
 21
97.8500000000000085
 31
0.0
  0
LINE
  5
26B
100
AcDbEntity
100
AcDbLine
  8
Otwor
 62
256
370
-1
  6
ByLayer
 10
139.0999999999999375
 20
91.3499999999999659
 30
0.0
 11
120.4999999999999574
 21
91.3499999999999943
 31
0.0
  0
LINE
  5
26C
100
AcDbEntity
100
AcDbLine
  8
Otwor
 62
256
370
-1
  6
ByLayer
 10
120.4999999999999432
 20
97.8500000000000085
 30
0.0
 11
120.4999999999999574
 21
91.3499999999999943
 31
0.0
  0
LINE
  5
26D
100
AcDbEntity
100
AcDbLine
  8
Otwor
 62
256
370
-1
  6
ByLayer
 10
140.2999999999999261
 20
60.5499999999999901
 30
0.0
 11
140.2999999999999545
 21
67.0499999999999972
 31
0.0
  0
LINE
  5
26E
100
AcDbEntity
100
AcDbLine
  8
Otwor
 62
256
370
-1
  6
ByLayer
 10
139.0999999999999659
 20
60.5500000000000114
 30
0.0
 11
139.0999999999999375
 21
67.0499999999999687
 31
0.0
  0
LINE
  5
26F
100
AcDbEntity
100
AcDbLine
  8
Otwor
 62
256
370
-1
  6
ByLayer
 10
165.2999999999999829
 20
60.5500000000000398
 30
0.0
 11
165.2999999999999545
 21
67.0499999999999972
 31
0.0
  0
LINE
  5
270
100
AcDbEntity
100
AcDbLine
  8
Otwor
 62
256
370
-1
  6
ByLayer
 10
165.2999999999999545
 20
67.0499999999999972
 30
0.0
 11
140.2999999999999545
 21
67.0499999999999972
 31
0.0
  0
LINE
  5
271
100
AcDbEntity
100
AcDbLine
  8
Otwor
 62
256
370
-1
  6
ByLayer
 10
140.2999999999999261
 20
60.5499999999999901
 30
0.0
 11
165.2999999999999829
 21
60.5500000000000398
 31
0.0
  0
LINE
  5
272
100
AcDbEntity
100
AcDbLine
  8
Otwor
 62
256
370
-1
  6
ByLayer
 10
139.0999999999999375
 20
67.0499999999999687
 30
0.0
 11
120.4999999999999716
 21
67.0500000000000114
 31
0.0
  0
LINE
  5
273
100
AcDbEntity
100
AcDbLine
  8
Otwor
 62
256
370
-1
  6
ByLayer
 10
139.0999999999999659
 20
60.5500000000000114
 30
0.0
 11
120.4999999999999432
 21
60.5499999999999901
 31
0.0
  0
LINE
  5
274
100
AcDbEntity
100
AcDbLine
  8
Otwor
 62
256
370
-1
  6
ByLayer
 10
120.4999999999999716
 20
67.0500000000000114
 30
0.0
 11
120.4999999999999432
 21
60.5499999999999901
 31
0.0
  0
LINE
  5
275
100
AcDbEntity
100
AcDbLine
  8
Otwor
 62
256
370
-1
  6
ByLayer
 10
140.2999999999999829
 20
29.7500000000000284
 30
0.0
 11
140.2999999999999545
 21
36.25
 31
0.0
  0
LINE
  5
276
100
AcDbEntity
100
AcDbLine
  8
Otwor
 62
256
370
-1
  6
ByLayer
 10
139.0999999999999659
 20
29.7500000000000142
 30
0.0
 11
139.0999999999999375
 21
36.2499999999999858
 31
0.0
  0
LINE
  5
277
100
AcDbEntity
100
AcDbLine
  8
Otwor
 62
256
370
-1
  6
ByLayer
 10
165.2999999999999829
 20
29.7500000000000426
 30
0.0
 11
165.2999999999999545
 21
36.2499999999999716
 31
0.0
  0
LINE
  5
278
100
AcDbEntity
100
AcDbLine
  8
Otwor
 62
256
370
-1
  6
ByLayer
 10
165.2999999999999545
 20
36.2499999999999716
 30
0.0
 11
140.2999999999999545
 21
36.25
 31
0.0
  0
LINE
  5
279
100
AcDbEntity
100
AcDbLine
  8
Otwor
 62
256
370
-1
  6
ByLayer
 10
140.2999999999999829
 20
29.7500000000000284
 30
0.0
 11
165.2999999999999829
 21
29.7500000000000426
 31
0.0
  0
LINE
  5
27A
100
AcDbEntity
100
AcDbLine
  8
Otwor
 62
256
370
-1
  6
ByLayer
 10
139.0999999999999375
 20
36.2499999999999858
 30
0.0
 11
120.4999999999999147
 21
36.2499999999999716
 31
0.0
  0
LINE
  5
27B
100
AcDbEntity
100
AcDbLine
  8
Otwor
 62
256
370
-1
  6
ByLayer
 10
139.0999999999999659
 20
29.7500000000000142
 30
0.0
 11
120.4999999999999432
 21
29.7499999999999858
 31
0.0
  0
LINE
  5
27C
100
AcDbEntity
100
AcDbLine
  8
Otwor
 62
256
370
-1
  6
ByLayer
 10
120.4999999999999147
 20
36.2499999999999716
 30
0.0
 11
120.4999999999999432
 21
29.7499999999999858
 31
0.0
  0
LINE
  5
27D
100
AcDbEntity
100
AcDbLine
  8
Otwor
 62
256
370
-1
  6
ByLayer
 10
140.3000000000000114
 20
-1.0499999999999829
 30
0.0
 11
140.2999999999999829
 21
5.4500000000000028
 31
0.0
  0
LINE
  5
27E
100
AcDbEntity
100
AcDbLine
  8
Otwor
 62
256
370
-1
  6
ByLayer
 10
139.0999999999999375
 20
-1.0500000000000114
 30
0.0
 11
139.0999999999999091
 21
5.4499999999999744
 31
0.0
  0
LINE
  5
27F
100
AcDbEntity
100
AcDbLine
  8
Otwor
 62
256
370
-1
  6
ByLayer
 10
165.2999999999999545
 20
-1.0499999999999972
 30
0.0
 11
165.2999999999998977
 21
5.449999999999946
 31
0.0
  0
LINE
  5
280
100
AcDbEntity
100
AcDbLine
  8
Otwor
 62
256
370
-1
  6
ByLayer
 10
165.2999999999998977
 20
5.449999999999946
 30
0.0
 11
140.2999999999999829
 21
5.4500000000000028
 31
0.0
  0
LINE
  5
281
100
AcDbEntity
100
AcDbLine
  8
Otwor
 62
256
370
-1
  6
ByLayer
 10
140.3000000000000114
 20
-1.0499999999999829
 30
0.0
 11
165.2999999999999545
 21
-1.0499999999999972
 31
0.0
  0
LINE
  5
282
100
AcDbEntity
100
AcDbLine
  8
Otwor
 62
256
370
-1
  6
ByLayer
 10
139.0999999999999091
 20
5.4499999999999744
 30
0.0
 11
120.4999999999999289
 21
5.4499999999999886
 31
0.0
  0
LINE
  5
283
100
AcDbEntity
100
AcDbLine
  8
Otwor
 62
256
370
-1
  6
ByLayer
 10
139.0999999999999375
 20
-1.0500000000000114
 30
0.0
 11
120.4999999999999716
 21
-1.0500000000000114
 31
0.0
  0
LINE
  5
284
100
AcDbEntity
100
AcDbLine
  8
Otwor
 62
256
370
-1
  6
ByLayer
 10
120.4999999999999289
 20
5.4499999999999886
 30
0.0
 11
120.4999999999999716
 21
-1.0500000000000114
 31
0.0
  0
LINE
  5
285
100
AcDbEntity
100
AcDbLine
  8
Otwor
 62
256
370
-1
  6
ByLayer
 10
140.2999999999999545
 20
-31.8499999999999943
 30
0.0
 11
140.3000000000000114
 21
-25.3499999999999659
 31
0.0
  0
LINE
  5
286
100
AcDbEntity
100
AcDbLine
  8
Otwor
 62
256
370
-1
  6
ByLayer
 10
139.0999999999999943
 20
-31.8499999999999375
 30
0.0
 11
139.0999999999999659
 21
-25.3499999999999943
 31
0.0
  0
LINE
  5
287
100
AcDbEntity
100
AcDbLine
  8
Otwor
 62
256
370
-1
  6
ByLayer
 10
165.3000000000000114
 20
-31.8499999999999659
 30
0.0
 11
165.3000000000000114
 21
-25.3499999999999659
 31
0.0
  0
LINE
  5
288
100
AcDbEntity
100
AcDbLine
  8
Otwor
 62
256
370
-1
  6
ByLayer
 10
165.3000000000000114
 20
-25.3499999999999659
 30
0.0
 11
140.3000000000000114
 21
-25.3499999999999659
 31
0.0
  0
LINE
  5
289
100
AcDbEntity
100
AcDbLine
  8
Otwor
 62
256
370
-1
  6
ByLayer
 10
140.2999999999999545
 20
-31.8499999999999943
 30
0.0
 11
165.3000000000000114
 21
-31.8499999999999659
 31
0.0
  0
LINE
  5
28A
100
AcDbEntity
100
AcDbLine
  8
Otwor
 62
256
370
-1
  6
ByLayer
 10
139.0999999999999659
 20
-25.3499999999999943
 30
0.0
 11
120.4999999999999716
 21
-25.3499999999999659
 31
0.0
  0
LINE
  5
28B
100
AcDbEntity
100
AcDbLine
  8
Otwor
 62
256
370
-1
  6
ByLayer
 10
139.0999999999999943
 20
-31.8499999999999375
 30
0.0
 11
120.4999999999999716
 21
-31.8499999999999943
 31
0.0
  0
LINE
  5
28C
100
AcDbEntity
100
AcDbLine
  8
Otwor
 62
256
370
-1
  6
ByLayer
 10
120.4999999999999716
 20
-25.3499999999999659
 30
0.0
 11
120.4999999999999716
 21
-31.8499999999999943
 31
0.0
  0
LINE
  5
28D
100
AcDbEntity
100
AcDbLine
  8
Otwor
 62
256
370
-1
  6
ByLayer
 10
120.4999999999999432
 20
99.0499999999999972
 30
0.0
 11
120.4999999999999432
 21
105.5499999999999829
 31
0.0
  0
LINE
  5
28E
100
AcDbEntity
100
AcDbLine
  8
Otwor
 62
256
370
-1
  6
ByLayer
 10
120.4999999999999432
 20
83.6499999999999773
 30
0.0
 11
120.4999999999999432
 21
90.1499999999999631
 31
0.0
  0
LINE
  5
28F
100
AcDbEntity
100
AcDbLine
  8
Otwor
 62
256
370
-1
  6
ByLayer
 10
120.4999999999999574
 20
68.2499999999999716
 30
0.0
 11
120.4999999999999716
 21
74.75
 31
0.0
  0
LINE
  5
290
100
AcDbEntity
100
AcDbLine
  8
Otwor
 62
256
370
-1
  6
ByLayer
 10
120.4999999999999432
 20
52.8499999999999801
 30
0.0
 11
120.4999999999999716
 21
59.3499999999999801
 31
0.0
  0
LINE
  5
291
100
AcDbEntity
100
AcDbLine
  8
Otwor
 62
256
370
-1
  6
ByLayer
 10
120.4999999999999716
 20
37.4499999999999744
 30
0.0
 11
120.4999999999998863
 21
43.9499999999999176
 31
0.0
  0
LINE
  5
292
100
AcDbEntity
100
AcDbLine
  8
Otwor
 62
256
370
-1
  6
ByLayer
 10
120.4999999999999574
 20
22.0499999999999545
 30
0.0
 11
120.4999999999998863
 21
28.5499999999999119
 31
0.0
  0
LINE
  5
293
100
AcDbEntity
100
AcDbLine
  8
Otwor
 62
256
370
-1
  6
ByLayer
 10
120.4999999999999147
 20
6.6499999999999204
 30
0.0
 11
120.4999999999999432
 21
13.1499999999999488
 31
0.0
  0
LINE
  5
294
100
AcDbEntity
100
AcDbLine
  8
Otwor
 62
256
370
-1
  6
ByLayer
 10
120.4999999999999147
 20
-8.7500000000000568
 30
0.0
 11
120.4999999999999147
 21
-2.2500000000000568
 31
0.0
  0
LINE
  5
295
100
AcDbEntity
100
AcDbLine
  8
Otwor
 62
256
370
-1
  6
ByLayer
 10
120.4999999999999858
 20
-24.1500000000000341
 30
0.0
 11
120.4999999999999432
 21
-17.6500000000000625
 31
0.0
  0
LINE
  5
296
100
AcDbEntity
100
AcDbLine
  8
Otwor
 62
256
370
-1
  6
ByLayer
 10
132.4999999999999432
 20
145.25
 30
0.0
 11
132.4999999999999432
 21
151.75
 31
0.0
  0
LINE
  5
297
100
AcDbEntity
100
AcDbLine
  8
Otwor
 62
256
370
-1
  6
ByLayer
 10
133.6999999999999602
 20
145.25
 30
0.0
 11
133.6999999999999602
 21
151.7500000000000284
 31
0.0
  0
LINE
  5
298
100
AcDbEntity
100
AcDbLine
  8
Otwor
 62
256
370
-1
  6
ByLayer
 10
145.6999999999999602
 20
145.2499999999999716
 30
0.0
 11
145.6999999999999602
 21
151.7499999999999716
 31
0.0
  0
LINE
  5
299
100
AcDbEntity
100
AcDbLine
  8
Otwor
 62
256
370
-1
  6
ByLayer
 10
146.8999999999999773
 20
145.2499999999999716
 30
0.0
 11
146.8999999999999773
 21
151.75
 31
0.0
  0
LINE
  5
29A
100
AcDbEntity
100
AcDbLine
  8
Otwor
 62
256
370
-1
  6
ByLayer
 10
158.8999999999999773
 20
145.2499999999998863
 30
0.0
 11
158.8999999999999773
 21
151.7499999999999432
 31
0.0
  0
LINE
  5
29B
100
AcDbEntity
100
AcDbLine
  8
Otwor
 62
256
370
-1
  6
ByLayer
 10
158.8999999999999773
 20
145.2499999999998863
 30
0.0
 11
146.8999999999999773
 21
145.2499999999999716
 31
0.0
  0
LINE
  5
29C
100
AcDbEntity
100
AcDbLine
  8
Otwor
 62
256
370
-1
  6
ByLayer
 10
145.6999999999999602
 20
145.2499999999999716
 30
0.0
 11
133.6999999999999602
 21
145.25
 31
0.0
  0
LINE
  5
29D
100
AcDbEntity
100
AcDbLine
  8
Otwor
 62
256
370
-1
  6
ByLayer
 10
133.6999999999999602
 20
151.7500000000000284
 30
0.0
 11
145.6999999999999602
 21
151.7499999999999716
 31
0.0
  0
LINE
  5
29E
100
AcDbEntity
100
AcDbLine
  8
Otwor
 62
256
370
-1
  6
ByLayer
 10
146.8999999999999773
 20
151.75
 30
0.0
 11
158.8999999999999773
 21
151.7499999999999432
 31
0.0
  0
LINE
  5
29F
100
AcDbEntity
100
AcDbLine
  8
Otwor
 62
256
370
-1
  6
ByLayer
 10
160.0999999999999659
 20
145.2499999999999716
 30
0.0
 11
160.0999999999999659
 21
151.75
 31
0.0
  0
LINE
  5
2A0
100
AcDbEntity
100
AcDbLine
  8
Otwor
 62
256
370
-1
  6
ByLayer
 10
172.0999999999999659
 20
145.2499999999999432
 30
0.0
 11
172.0999999999999659
 21
151.7499999999999432
 31
0.0
  0
LINE
  5
2A1
100
AcDbEntity
100
AcDbLine
  8
Otwor
 62
256
370
-1
  6
ByLayer
 10
172.0999999999999659
 20
145.2499999999999432
 30
0.0
 11
160.0999999999999659
 21
145.2499999999999716
 31
0.0
  0
LINE
  5
2A2
100
AcDbEntity
100
AcDbLine
  8
Otwor
 62
256
370
-1
  6
ByLayer
 10
160.0999999999999659
 20
151.75
 30
0.0
 11
172.0999999999999659
 21
151.7499999999999432
 31
0.0
  0
LINE
  5
2A3
100
AcDbEntity
100
AcDbLine
  8
Otwor
 62
256
370
-1
  6
ByLayer
 10
132.4999999999999432
 20
151.75
 30
0.0
 11
120.4999999999999574
 21
151.7499999999999716
 31
0.0
  0
LINE
  5
2A4
100
AcDbEntity
100
AcDbLine
  8
Otwor
 62
256
370
-1
  6
ByLayer
 10
119.2999999999999545
 20
151.75
 30
0.0
 11
107.2999999999999545
 21
151.75
 31
0.0
  0
LINE
  5
2A5
100
AcDbEntity
100
AcDbLine
  8
Otwor
 62
256
370
-1
  6
ByLayer
 10
120.4999999999999432
 20
110.0000000000000284
 30
0.0
 11
120.4999999999999432
 21
106.7499999999999716
 31
0.0
  0
LINE
  5
2A6
100
AcDbEntity
100
AcDbLine
  8
Otwor
 62
256
370
-1
  6
ByLayer
 10
120.4999999999999432
 20
110.0000000000000284
 30
0.0
 11
125.0091341318493079
 21
113.2500000000000142
 31
0.0
  0
LINE
  5
2A7
100
AcDbEntity
100
AcDbLine
  8
Otwor
 62
256
370
-1
  6
ByLayer
 10
139.0999999999999375
 20
113.25
 30
0.0
 11
125.0091341318493079
 21
113.2500000000000142
 31
0.0
  0
LINE
  5
2A8
100
AcDbEntity
100
AcDbLine
  8
Otwor
 62
256
370
-1
  6
ByLayer
 10
132.4999999999999432
 20
114.4500000000000881
 30
0.0
 11
125.6163526532979375
 21
114.4500000000000455
 31
0.0
  0
LINE
  5
2A9
100
AcDbEntity
100
AcDbLine
  8
Otwor
 62
256
370
-1
  6
ByLayer
 10
127.7409304515003754
 20
120.949999999999477
 30
0.0
 11
125.6163526532979375
 21
114.4500000000000455
 31
0.0
  0
LINE
  5
2AA
100
AcDbEntity
100
AcDbLine
  8
Otwor
 62
256
370
-1
  6
ByLayer
 10
127.7409304515003754
 20
120.949999999999477
 30
0.0
 11
132.4999999999999432
 21
120.949999999999477
 31
0.0
  0
LINE
  5
2AB
100
AcDbEntity
100
AcDbLine
  8
Otwor
 62
256
370
-1
  6
ByLayer
 10
132.4999999999999432
 20
114.4500000000000881
 30
0.0
 11
132.4999999999999432
 21
120.949999999999477
 31
0.0
  0
LINE
  5
2AC
100
AcDbEntity
100
AcDbLine
  8
Otwor
 62
256
370
-1
  6
ByLayer
 10
139.0999999999999375
 20
122.1500000000010004
 30
0.0
 11
128.1331601988611339
 21
122.1500000000002899
 31
0.0
  0
LINE
  5
2AD
100
AcDbEntity
100
AcDbLine
  8
Otwor
 62
256
370
-1
  6
ByLayer
 10
130.2577379970636571
 20
128.6499999999999773
 30
0.0
 11
128.1331601988611339
 21
122.1500000000002899
 31
0.0
  0
LINE
  5
2AE
100
AcDbEntity
100
AcDbLine
  8
Otwor
 62
256
370
-1
  6
ByLayer
 10
139.0999999999999659
 20
128.6499999999999773
 30
0.0
 11
130.2577379970636571
 21
128.6499999999999773
 31
0.0
  0
LINE
  5
2AF
100
AcDbEntity
100
AcDbLine
  8
Otwor
 62
256
370
-1
  6
ByLayer
 10
101.0999999999999517
 20
144.0499999999999261
 30
0.0
 11
126.0999999999999517
 21
144.0499999999999261
 31
0.0
  0
LINE
  5
2B0
100
AcDbEntity
100
AcDbLine
  8
Otwor
 62
256
370
-1
  6
ByLayer
 10
94.0999999999999517
 20
151.75
 30
0.0
 11
106.0999999999999517
 21
151.75
 31
0.0
  0
LINE
  5
2B1
100
AcDbEntity
100
AcDbLine
  8
Otwor
 62
256
370
-1
  6
ByLayer
 10
132.4999999999999432
 20
145.25
 30
0.0
 11
120.4999999999999574
 21
145.2499999999999716
 31
0.0
  0
LINE
  5
2B2
100
AcDbEntity
100
AcDbLine
  8
Otwor
 62
256
370
-1
  6
ByLayer
 10
120.4999999999999574
 20
145.2499999999999716
 30
0.0
 11
120.4999999999999574
 21
151.7499999999999716
 31
0.0
  0
LINE
  5
2B3
100
AcDbEntity
100
AcDbLine
  8
Otwor
 62
256
370
-1
  6
ByLayer
 10
152.2999999999999545
 20
144.0499999999999261
 30
0.0
 11
127.2999999999999545
 21
144.0499999999999261
 31
0.0
  0
LINE
  5
2B4
100
AcDbEntity
100
AcDbLine
  8
Otwor
 62
256
370
-1
  6
ByLayer
 10
127.2999999999999545
 20
137.5499999999999261
 30
0.0
 11
127.2999999999999545
 21
144.0499999999999261
 31
0.0
  0
LINE
  5
2B5
100
AcDbEntity
100
AcDbLine
  8
Otwor
 62
256
370
-1
  6
ByLayer
 10
152.2999999999999545
 20
137.5499999999999545
 30
0.0
 11
127.2999999999999545
 21
137.5499999999999261
 31
0.0
  0
LINE
  5
2B6
100
AcDbEntity
100
AcDbLine
  8
Otwor
 62
256
370
-1
  6
ByLayer
 10
119.2999999999999545
 20
145.2499999999999716
 30
0.0
 11
119.2999999999999545
 21
151.75
 31
0.0
  0
LINE
  5
2B7
100
AcDbEntity
100
AcDbLine
  8
Otwor
 62
256
370
-1
  6
ByLayer
 10
107.2999999999999545
 20
145.2499999999999432
 30
0.0
 11
107.2999999999999545
 21
151.75
 31
0.0
  0
LINE
  5
2B8
100
AcDbEntity
100
AcDbLine
  8
Otwor
 62
256
370
-1
  6
ByLayer
 10
106.0999999999999517
 20
145.2499999999999432
 30
0.0
 11
106.0999999999999517
 21
151.75
 31
0.0
  0
LINE
  5
2B9
100
AcDbEntity
100
AcDbLine
  8
Otwor
 62
256
370
-1
  6
ByLayer
 10
94.0999999999999517
 20
145.2499999999999147
 30
0.0
 11
94.0999999999999517
 21
151.75
 31
0.0
  0
LINE
  5
2BA
100
AcDbEntity
100
AcDbLine
  8
Otwor
 62
256
370
-1
  6
ByLayer
 10
92.8999999999999488
 20
145.2499999999999147
 30
0.0
 11
92.8999999999999488
 21
151.75
 31
0.0
  0
LINE
  5
2BB
100
AcDbEntity
100
AcDbLine
  8
Otwor
 62
256
370
-1
  6
ByLayer
 10
80.8999999999999488
 20
151.75
 30
0.0
 11
92.8999999999999488
 21
151.75
 31
0.0
  0
LINE
  5
2BC
100
AcDbEntity
100
AcDbLine
  8
Otwor
 62
256
370
-1
  6
ByLayer
 10
92.8999999999999488
 20
151.75
 30
0.0
 11
92.8999999999999488
 21
145.2499999999999147
 31
0.0
  0
LINE
  5
2BD
100
AcDbEntity
100
AcDbLine
  8
Otwor
 62
256
370
-1
  6
ByLayer
 10
94.0999999999999517
 20
145.2499999999999147
 30
0.0
 11
106.0999999999999517
 21
145.2499999999999432
 31
0.0
  0
LINE
  5
2BE
100
AcDbEntity
100
AcDbLine
  8
Otwor
 62
256
370
-1
  6
ByLayer
 10
107.2999999999999545
 20
145.2499999999999432
 30
0.0
 11
119.2999999999999545
 21
145.2499999999999716
 31
0.0
  0
LINE
  5
2BF
100
AcDbEntity
100
AcDbLine
  8
Otwor
 62
256
370
-1
  6
ByLayer
 10
126.0999999999999517
 20
137.5499999999999545
 30
0.0
 11
126.0999999999999517
 21
144.0499999999999261
 31
0.0
  0
LINE
  5
2C0
100
AcDbEntity
100
AcDbLine
  8
Otwor
 62
256
370
-1
  6
ByLayer
 10
122.6457593059458873
 20
137.5499999999999545
 30
0.0
 11
126.0999999999999517
 21
137.5499999999999545
 31
0.0
  0
LINE
  5
2C1
100
AcDbEntity
100
AcDbLine
  8
Otwor
 62
256
370
-1
  6
ByLayer
 10
122.6457593059458873
 20
137.5499999999999545
 30
0.0
 11
115.4087422369139233
 21
139.5589925231253972
 31
0.0
  0
LINE
  5
2C2
100
AcDbEntity
100
AcDbLine
  8
Otwor
 62
256
370
-1
  6
ByLayer
 10
115.4087422369139233
 20
139.5589925231253972
 30
0.0
 11
106.9213214707434645
 21
141.5073709124167465
 31
0.0
  0
LINE
  5
2C3
100
AcDbEntity
100
AcDbLine
  8
Otwor
 62
256
370
-1
  6
ByLayer
 10
101.0999999999999517
 20
142.5698071182979447
 30
0.0
 11
101.0999999999999517
 21
144.0499999999999261
 31
0.0
  0
LINE
  5
2C4
100
AcDbEntity
100
AcDbLine
  8
Otwor
 62
256
370
-1
  6
ByLayer
 10
106.9213214707434645
 20
141.5073709124167465
 30
0.0
 11
101.0999999999999517
 21
142.5698071182979447
 31
0.0
  0
LINE
  5
2C5
100
AcDbEntity
100
AcDbLine
  8
Otwor
 62
256
370
-1
  6
ByLayer
 10
145.6999999999999602
 20
136.3500000000000227
 30
0.0
 11
132.7745455426268109
 21
136.3500000000000227
 31
0.0
  0
LINE
  5
2C6
100
AcDbEntity
100
AcDbLine
  8
Otwor
 62
256
370
-1
  6
ByLayer
 10
132.7745455426268109
 20
136.3500000000000227
 30
0.0
 11
130.649967744424174
 21
129.8500000000000227
 31
0.0
  0
LINE
  5
2C7
100
AcDbEntity
100
AcDbLine
  8
Otwor
 62
256
370
-1
  6
ByLayer
 10
145.6999999999999602
 20
129.8499999999999943
 30
0.0
 11
130.649967744424174
 21
129.8500000000000227
 31
0.0
  0
LINE
  5
2C8
100
AcDbEntity
100
AcDbLine
  8
Otwor wym.
 62
256
370
-1
  6
ByLayer
 10
53.7499999999999432
 20
-70.75
 30
0.0
 11
66.7499999999999432
 21
-70.75
 31
0.0
  0
LINE
  5
2C9
100
AcDbEntity
100
AcDbLine
  8
Otwor wym.
 62
256
370
-1
  6
ByLayer
 10
60.2499999999999432
 20
-77.25
 30
0.0
 11
60.2499999999999432
 21
-64.25
 31
0.0
  0
LINE
  5
2CA
100
AcDbEntity
100
AcDbLine
  8
Otwor
 62
256
370
-1
  6
ByLayer
 10
-3.9947915395558815
 20
135.7425421759376718
 30
0.0
 11
3.7900649685933252
 21
111.9855219682700493
 31
0.0
  0
LINE
  5
2CB
100
AcDbEntity
100
AcDbLine
  8
Otwor
 62
256
370
-1
  6
ByLayer
 10
12.1004919180229074
 20
114.3489468479775013
 30
0.0
 11
6.2187768986353573
 21
138.6472066299189407
 31
0.0
  0
LINE
  5
2CC
100
AcDbEntity
100
AcDbLine
  8
Otwor
 62
256
370
-1
  6
ByLayer
 10
18.4180394613276697
 20
115.8781927530182685
 30
0.0
 11
12.5363244419401205
 21
140.1764525349596795
 31
0.0
  0
LINE
  5
2CD
100
AcDbEntity
100
AcDbLine
  8
Otwor
 62
256
370
-1
  6
ByLayer
 10
26.8893439965034524
 20
117.5770078448206846
 30
0.0
 11
22.9476124729018132
 21
142.2643072636685702
 31
0.0
  0
LINE
  5
2CE
100
AcDbEntity
100
AcDbLine
  8
Otwor
 62
256
370
-1
  6
ByLayer
 10
33.308041845403892
 20
118.6018580409570973
 30
0.0
 11
29.3663103218022563
 21
143.2891574598049829
 31
0.0
  0
LINE
  5
2CF
100
AcDbEntity
100
AcDbLine
  8
Otwor
 62
256
370
-1
  6
ByLayer
 10
41.8871612354453902
 20
119.6254222720825595
 30
0.0
 11
39.9101035062928133
 21
144.5471245160224498
 31
0.0
  0
LINE
  5
2D0
100
AcDbEntity
100
AcDbLine
  8
Otwor
 62
256
370
-1
  6
ByLayer
 10
48.3668038188697551
 20
120.1394572816622173
 30
0.0
 11
46.3897460897171783
 21
145.061159525602136
 31
0.0
  0
LINE
  5
2D1
100
AcDbEntity
100
AcDbLine
  8
Otwor
 62
256
370
-1
  6
ByLayer
 10
56.9999999999999574
 20
120.4813592295122362
 30
0.0
 11
56.9999999999999574
 21
145.4813592295122646
 31
0.0
  0
LINE
  5
2D2
100
AcDbEntity
100
AcDbLine
  8
Otwor
 62
256
370
-1
  6
ByLayer
 10
63.4999999999999574
 20
120.4813592295122362
 30
0.0
 11
63.4999999999999574
 21
145.4813592295122646
 31
0.0
  0
LINE
  5
2D3
100
AcDbEntity
100
AcDbLine
  8
Otwor
 62
256
370
-1
  6
ByLayer
 10
119.7983476584033582
 20
110.9734906222106616
 30
0.0
 11
124.2713220879585947
 21
114.1974281833876574
 31
0.0
  0
LINE
  5
2D4
100
AcDbEntity
100
AcDbLine
  8
Otwor
 62
256
370
-1
  6
ByLayer
 10
-10.171616793549461
 20
133.7184794838188964
 30
0.0
 11
-3.9947915395558815
 21
135.7425421759376718
 31
0.0
  0
LINE
  5
2D5
100
AcDbEntity
100
AcDbLine
  8
Otwor
 62
256
370
-1
  6
ByLayer
 10
-2.0251991349481986
 20
136.3450573696652839
 30
0.0
 11
4.2268844227676432
 21
138.1231043846059094
 31
0.0
  0
LINE
  5
2D6
100
AcDbEntity
100
AcDbLine
  8
Otwor
 62
256
370
-1
  6
ByLayer
 10
6.2187768986353573
 20
138.6472066299189407
 30
0.0
 11
12.5363244419401205
 21
140.1764525349596795
 31
0.0
  0
LINE
  5
2D7
100
AcDbEntity
100
AcDbLine
  8
Otwor
 62
256
370
-1
  6
ByLayer
 10
14.5473965527500351
 20
140.6213207897084487
 30
0.0
 11
20.9205112096824948
 21
141.8993699161478901
 31
0.0
  0
LINE
  5
2D8
100
AcDbEntity
100
AcDbLine
  8
Otwor
 62
256
370
-1
  6
ByLayer
 10
22.9476124729018132
 20
142.2643072636685702
 30
0.0
 11
29.3663103218022563
 21
143.2891574598049829
 31
0.0
  0
LINE
  5
2D9
100
AcDbEntity
100
AcDbLine
  8
Otwor
 62
256
370
-1
  6
ByLayer
 10
31.4062651441303835
 20
143.5735922006877558
 30
0.0
 11
37.8604908541393286
 21
144.3436379683272435
 31
0.0
  0
LINE
  5
2DA
100
AcDbEntity
100
AcDbLine
  8
Otwor
 62
256
370
-1
  6
ByLayer
 10
39.9101035062928133
 20
144.5471245160224498
 30
0.0
 11
46.3897460897171783
 21
145.061159525602136
 31
0.0
  0
LINE
  5
2DB
100
AcDbEntity
100
AcDbLine
  8
Otwor
 62
256
370
-1
  6
ByLayer
 10
48.4458057127592312
 20
145.1833791044623752
 30
0.0
 11
54.9407143646287253
 21
145.4405980848483466
 31
0.0
  0
LINE
  5
2DC
100
AcDbEntity
100
AcDbLine
  8
Otwor
 62
256
370
-1
  6
ByLayer
 10
55.9300181353440209
 20
120.4601801930425324
 30
0.0
 11
49.4351094834745268
 21
120.202961212656561
 31
0.0
  0
LINE
  5
2DD
100
AcDbEntity
100
AcDbLine
  8
Otwor
 62
256
370
-1
  6
ByLayer
 10
48.3668038188697551
 20
120.1394572816622173
 30
0.0
 11
41.8871612354453902
 21
119.6254222720825595
 31
0.0
  0
LINE
  5
2DE
100
AcDbEntity
100
AcDbLine
  8
Otwor
 62
256
370
-1
  6
ByLayer
 10
40.8222053450605031
 20
119.5196929298312654
 30
0.0
 11
34.3679796350515616
 21
118.7496471621917493
 31
0.0
  0
LINE
  5
2DF
100
AcDbEntity
100
AcDbLine
  8
Otwor
 62
256
370
-1
  6
ByLayer
 10
33.308041845403892
 20
118.6018580409570973
 30
0.0
 11
26.8893439965034524
 21
117.5770078448206846
 31
0.0
  0
LINE
  5
2E0
100
AcDbEntity
100
AcDbLine
  8
Otwor
 62
256
370
-1
  6
ByLayer
 10
25.8360847729111782
 20
117.3873904664075667
 30
0.0
 11
19.4629701159787203
 21
116.1093413399681253
 31
0.0
  0
LINE
  5
2E1
100
AcDbEntity
100
AcDbLine
  8
Otwor
 62
256
370
-1
  6
ByLayer
 10
18.4180394613276697
 20
115.8781927530182685
 30
0.0
 11
12.1004919180229074
 21
114.3489468479775013
 31
0.0
  0
LINE
  5
2E2
100
AcDbEntity
100
AcDbLine
  8
Otwor
 62
256
370
-1
  6
ByLayer
 10
11.0655267879238686
 20
114.076629162621856
 30
0.0
 11
4.8134432302080263
 21
112.2985821476812305
 31
0.0
  0
LINE
  5
2E3
100
AcDbEntity
100
AcDbLine
  8
Otwor
 62
256
370
-1
  6
ByLayer
 10
3.7900649685933252
 20
111.9855219682700493
 30
0.0
 11
0.7016523415965258
 21
110.9734906222106758
 31
0.0
  0
LINE
  5
2E4
100
AcDbEntity
100
AcDbLine
  8
Otwor
 62
256
370
-1
  6
ByLayer
 10
0.7016523415965258
 20
110.9734906222106758
 30
0.0
 11
-3.7759152398098439
 21
114.2007387399337262
 31
0.0
  0
LINE
  5
2E5
100
AcDbEntity
100
AcDbLine
  8
Otwor
 62
256
370
-1
  6
ByLayer
 10
-10.171616793549461
 20
133.7184794838188964
 30
0.0
 11
-3.7759152398098439
 21
114.2007387399337262
 31
0.0
  0
LINE
  5
2E6
100
AcDbEntity
100
AcDbLine
  8
Otwor
 62
256
370
-1
  6
ByLayer
 10
33.8000000000000114
 20
145.0676963470083933
 30
0.0
 11
33.8000000000000114
 21
151.75
 31
0.0
  0
LINE
  5
2E7
100
AcDbEntity
100
AcDbLine
  8
Otwor
 62
256
370
-1
  6
ByLayer
 10
33.8000000000000114
 20
145.0676963470083933
 30
0.0
 11
38.7647063183779537
 21
145.6600293796309415
 31
0.0
  0
LINE
  5
2E8
100
AcDbEntity
100
AcDbLine
  8
Otwor
 62
256
370
-1
  6
ByLayer
 10
38.7647063183779537
 20
145.6600293796309415
 30
0.0
 11
47.3453457356322147
 21
146.3407380774117712
 31
0.0
  0
LINE
  5
2E9
100
AcDbEntity
100
AcDbLine
  8
Otwor
 62
256
370
-1
  6
ByLayer
 10
47.3453457356322147
 20
146.3407380774117712
 30
0.0
 11
58.8000000000000114
 21
146.7943787132514331
 31
0.0
  0
LINE
  5
2EA
100
AcDbEntity
100
AcDbLine
  8
Otwor
 62
256
370
-1
  6
ByLayer
 10
58.8000000000000114
 20
146.7943787132514331
 30
0.0
 11
58.8000000000000114
 21
151.75
 31
0.0
  0
LINE
  5
2EB
100
AcDbEntity
100
AcDbLine
  8
Otwor
 62
256
370
-1
  6
ByLayer
 10
-11.9999999999999929
 20
137.5500000000000114
 30
0.0
 11
-2.1751377983542963
 21
137.5500000000000114
 31
0.0
  0
LINE
  5
2EC
100
AcDbEntity
100
AcDbLine
  8
Otwor
 62
256
370
-1
  6
ByLayer
 10
0.0000000000000065
 20
138.1685933431224669
 30
0.0
 11
0.0000000000000069
 21
144.0500000000000114
 31
0.0
  0
LINE
  5
2ED
100
AcDbEntity
100
AcDbLine
  8
Otwor
 62
256
370
-1
  6
ByLayer
 10
-2.1751377983542963
 20
137.5500000000000114
 30
0.0
 11
0.0000000000000065
 21
138.1685933431224669
 31
0.0
  0
LINE
  5
2EE
100
AcDbEntity
100
AcDbLine
  8
Otwor
 62
256
370
-1
  6
ByLayer
 10
1.2000000000000064
 20
138.6670016498363509
 30
0.0
 11
1.2000000000000068
 21
144.0500000000000114
 31
0.0
  0
LINE
  5
2EF
100
AcDbEntity
100
AcDbLine
  8
Otwor
 62
256
370
-1
  6
ByLayer
 10
1.2000000000000064
 20
138.6670016498363509
 30
0.0
 11
13.2000000000000064
 21
141.5717602978241985
 31
0.0
  0
LINE
  5
2F0
100
AcDbEntity
100
AcDbLine
  8
Otwor
 62
256
370
-1
  6
ByLayer
 10
13.2000000000000064
 20
141.5717602978241985
 30
0.0
 11
13.2000000000000064
 21
144.0500000000000114
 31
0.0
  0
LINE
  5
2F1
100
AcDbEntity
100
AcDbLine
  8
Otwor
 62
256
370
-1
  6
ByLayer
 10
25.5417827921702525
 20
144.0500000000000114
 30
0.0
 11
14.4000000000000057
 21
144.0500000000000114
 31
0.0
  0
LINE
  5
2F2
100
AcDbEntity
100
AcDbLine
  8
Otwor
 62
256
370
-1
  6
ByLayer
 10
14.3114490217150614
 20
141.7978958032959724
 30
0.0
 11
25.5417827921702525
 21
144.0500000000000114
 31
0.0
  0
LINE
  5
2F3
100
AcDbEntity
100
AcDbLine
  8
Otwor
 62
256
370
-1
  6
ByLayer
 10
124.4947915395558198
 20
135.7425421759376718
 30
0.0
 11
116.7099350314065731
 21
111.9855219682700636
 31
0.0
  0
LINE
  5
2F4
100
AcDbEntity
100
AcDbLine
  8
Otwor
 62
256
370
-1
  6
ByLayer
 10
108.399508081977018
 20
114.3489468479775439
 30
0.0
 11
114.2812231013645743
 21
138.6472066299189407
 31
0.0
  0
LINE
  5
2F5
100
AcDbEntity
100
AcDbLine
  8
Otwor
 62
256
370
-1
  6
ByLayer
 10
102.0819605386722344
 20
115.8781927530182543
 30
0.0
 11
107.9636755580597907
 21
140.1764525349596795
 31
0.0
  0
LINE
  5
2F6
100
AcDbEntity
100
AcDbLine
  8
Otwor
 62
256
370
-1
  6
ByLayer
 10
93.6106560034964446
 20
117.577007844820713
 30
0.0
 11
97.5523875270981193
 21
142.2643072636685702
 31
0.0
  0
LINE
  5
2F7
100
AcDbEntity
100
AcDbLine
  8
Otwor
 62
256
370
-1
  6
ByLayer
 10
87.1919581545960369
 20
118.6018580409570973
 30
0.0
 11
91.1336896781976407
 21
143.2891574598049829
 31
0.0
  0
LINE
  5
2F8
100
AcDbEntity
100
AcDbLine
  8
Otwor
 62
256
370
-1
  6
ByLayer
 10
78.6128387645544962
 20
119.6254222720825737
 30
0.0
 11
80.5898964937070872
 21
144.5471245160224498
 31
0.0
  0
LINE
  5
2F9
100
AcDbEntity
100
AcDbLine
  8
Otwor
 62
256
370
-1
  6
ByLayer
 10
72.1331961811301454
 20
120.1394572816622031
 30
0.0
 11
74.1102539102827222
 21
145.061159525602136
 31
0.0
  0
LINE
  5
2FA
100
AcDbEntity
100
AcDbLine
  8
Otwor
 62
256
370
-1
  6
ByLayer
 10
130.67161679354939
 20
133.7184794838188679
 30
0.0
 11
124.4947915395558198
 21
135.7425421759376718
 31
0.0
  0
LINE
  5
2FB
100
AcDbEntity
100
AcDbLine
  8
Otwor
 62
256
370
-1
  6
ByLayer
 10
122.5251991349481102
 20
136.3450573696652839
 30
0.0
 11
116.2731155772322893
 21
138.1231043846059094
 31
0.0
  0
LINE
  5
2FC
100
AcDbEntity
100
AcDbLine
  8
Otwor
 62
256
370
-1
  6
ByLayer
 10
114.2812231013645743
 20
138.6472066299189407
 30
0.0
 11
107.9636755580597907
 21
140.1764525349596795
 31
0.0
  0
LINE
  5
2FD
100
AcDbEntity
100
AcDbLine
  8
Otwor
 62
256
370
-1
  6
ByLayer
 10
105.9526034472498708
 20
140.6213207897084203
 30
0.0
 11
99.5794887903174128
 21
141.8993699161478901
 31
0.0
  0
LINE
  5
2FE
100
AcDbEntity
100
AcDbLine
  8
Otwor
 62
256
370
-1
  6
ByLayer
 10
97.5523875270981193
 20
142.2643072636685702
 30
0.0
 11
91.1336896781976407
 21
143.2891574598049829
 31
0.0
  0
LINE
  5
2FF
100
AcDbEntity
100
AcDbLine
  8
Otwor
 62
256
370
-1
  6
ByLayer
 10
89.0937348558695135
 20
143.5735922006877558
 30
0.0
 11
82.6395091458605719
 21
144.3436379683272435
 31
0.0
  0
LINE
  5
300
100
AcDbEntity
100
AcDbLine
  8
Otwor
 62
256
370
-1
  6
ByLayer
 10
80.5898964937070872
 20
144.5471245160224498
 30
0.0
 11
74.1102539102827222
 21
145.061159525602136
 31
0.0
  0
LINE
  5
301
100
AcDbEntity
100
AcDbLine
  8
Otwor
 62
256
370
-1
  6
ByLayer
 10
72.0541942872406622
 20
145.1833791044623752
 30
0.0
 11
65.5592856353711824
 21
145.4405980848483182
 31
0.0
  0
LINE
  5
302
100
AcDbEntity
100
AcDbLine
  8
Otwor
 62
256
370
-1
  6
ByLayer
 10
63.4999999999999574
 20
145.4813592295122646
 30
0.0
 11
56.9999999999999574
 21
145.4813592295122646
 31
0.0
  0
LINE
  5
303
100
AcDbEntity
100
AcDbLine
  8
Otwor
 62
256
370
-1
  6
ByLayer
 10
56.9999999999999645
 20
120.4813592295122078
 30
0.0
 11
63.4999999999999432
 21
120.4813592295122078
 31
0.0
  0
LINE
  5
304
100
AcDbEntity
100
AcDbLine
  8
Otwor
 62
256
370
-1
  6
ByLayer
 10
64.5699818646559009
 20
120.4601801930425324
 30
0.0
 11
71.0648905165253808
 21
120.202961212656561
 31
0.0
  0
LINE
  5
305
100
AcDbEntity
100
AcDbLine
  8
Otwor
 62
256
370
-1
  6
ByLayer
 10
72.1331961811301454
 20
120.1394572816622031
 30
0.0
 11
78.6128387645544962
 21
119.6254222720825737
 31
0.0
  0
LINE
  5
306
100
AcDbEntity
100
AcDbLine
  8
Otwor
 62
256
370
-1
  6
ByLayer
 10
79.6777946549393903
 20
119.5196929298312511
 30
0.0
 11
86.132020364948346
 21
118.7496471621917635
 31
0.0
  0
LINE
  5
307
100
AcDbEntity
100
AcDbLine
  8
Otwor
 62
256
370
-1
  6
ByLayer
 10
87.1919581545960369
 20
118.6018580409570973
 30
0.0
 11
93.6106560034964446
 21
117.577007844820713
 31
0.0
  0
LINE
  5
308
100
AcDbEntity
100
AcDbLine
  8
Otwor
 62
256
370
-1
  6
ByLayer
 10
94.6639152270887507
 20
117.3873904664075383
 30
0.0
 11
101.0370298840211944
 21
116.1093413399681253
 31
0.0
  0
LINE
  5
309
100
AcDbEntity
100
AcDbLine
  8
Otwor
 62
256
370
-1
  6
ByLayer
 10
102.0819605386722344
 20
115.8781927530182543
 30
0.0
 11
108.399508081977018
 21
114.3489468479775439
 31
0.0
  0
LINE
  5
30A
100
AcDbEntity
100
AcDbLine
  8
Otwor
 62
256
370
-1
  6
ByLayer
 10
109.4344732120760142
 20
114.0766291626218276
 30
0.0
 11
115.6865567697919062
 21
112.2985821476812021
 31
0.0
  0
LINE
  5
30B
100
AcDbEntity
100
AcDbLine
  8
Otwor
 62
256
370
-1
  6
ByLayer
 10
116.7099350314065731
 20
111.9855219682700636
 30
0.0
 11
119.7983476584033724
 21
110.9734906222106758
 31
0.0
  0
LINE
  5
30C
100
AcDbEntity
100
AcDbLine
  8
Otwor
 62
256
370
-1
  6
ByLayer
 10
130.67161679354939
 20
133.7184794838188679
 30
0.0
 11
124.2759152398097626
 21
114.2007387399337404
 31
0.0
  0
LINE
  5
30D
100
AcDbEntity
100
AcDbLine
  8
Krazyna
 62
256
370
-1
  6
ByLayer
 10
0.2000000000000073
 20
110.8083384280842125
 30
0.0
 11
0.2000000000000055
 21
100.822691118801643
 31
0.0
  0
LINE
  5
30E
100
AcDbEntity
100
AcDbLine
  8
Krazyna
 62
256
370
-1
  6
ByLayer
 10
0.2000000000000055
 20
100.822691118801643
 30
0.0
 11
120.2999999999999403
 21
100.822691118801643
 31
0.0
  0
ARC
  5
30F
100
AcDbEntity
  8
Krazyna
 62
256
370
-1
  6
ByLayer
100
AcDbCircle
 10
60.2499999999999432
 20
-70.75
 30
0.0
 40
191.2313592295122646
100
AcDbArc
 50
71.6984865404790241
 51
108.3015134595209616
  0
LINE
  5
310
100
AcDbEntity
100
AcDbLine
  8
Krazyna
 62
256
370
-1
  6
ByLayer
 10
120.2999999999999403
 20
100.822691118801643
 30
0.0
 11
120.2999999999999403
 21
110.8083384280842267
 31
0.0
  0
LINE
  5
311
100
AcDbEntity
100
AcDbLine
  8
Krazyna
 62
256
370
-1
  6
ByLayer
 10
112.7355563953068298
 20
100.822691118801643
 30
0.0
 11
116.1903867044696455
 21
112.1163607340649122
 31
0.0
  0
LINE
  5
312
100
AcDbEntity
100
AcDbLine
  8
Krazyna
 62
256
370
-1
  6
ByLayer
 10
105.3938186243420887
 20
100.822691118801643
 30
0.0
 11
108.9101542678268402
 21
114.1868057997056667
 31
0.0
  0
LINE
  5
313
100
AcDbEntity
100
AcDbLine
  8
Krazyna
 62
256
370
-1
  6
ByLayer
 10
98.203509101085146
 20
100.822691118801643
 30
0.0
 11
101.5536923587343523
 21
115.9675346621248622
 31
0.0
  0
LINE
  5
314
100
AcDbEntity
100
AcDbLine
  8
Krazyna
 62
256
370
-1
  6
ByLayer
 10
91.1380882963099452
 20
100.822691118801643
 30
0.0
 11
94.1325253798345756
 21
117.4557576873025084
 31
0.0
  0
LINE
  5
315
100
AcDbEntity
100
AcDbLine
  8
Krazyna
 62
256
370
-1
  6
ByLayer
 10
84.1727032906735815
 20
100.822691118801643
 30
0.0
 11
86.658279098704142
 21
118.6491434716949982
 31
0.0
  0
LINE
  5
316
100
AcDbEntity
100
AcDbLine
  8
Krazyna
 62
256
370
-1
  6
ByLayer
 10
77.2838207845576051
 20
100.822691118801643
 30
0.0
 11
79.14266243529093
 21
119.5458224945384984
 31
0.0
  0
LINE
  5
317
100
AcDbEntity
100
AcDbLine
  8
Krazyna
 62
256
370
-1
  6
ByLayer
 10
70.4488978419970238
 20
100.822691118801643
 30
0.0
 11
71.5974491190869315
 21
120.1443900465817478
 31
0.0
  0
LINE
  5
318
100
AcDbEntity
100
AcDbLine
  8
Krazyna
 62
256
370
-1
  6
ByLayer
 10
63.6460802537312773
 20
100.822691118801643
 30
0.0
 11
64.0344592447726342
 21
120.4439084306595049
 31
0.0
  0
LINE
  5
319
100
AcDbEntity
100
AcDbLine
  8
Krazyna
 62
256
370
-1
  6
ByLayer
 10
56.8539197462686445
 20
100.822691118801643
 30
0.0
 11
56.4655407552272806
 21
120.4439084306595333
 31
0.0
  0
LINE
  5
31A
100
AcDbEntity
100
AcDbLine
  8
Krazyna
 62
256
370
-1
  6
ByLayer
 10
50.0511021580028839
 20
100.822691118801643
 30
0.0
 11
48.902550880912969
 21
120.1443900465817478
 31
0.0
  0
LINE
  5
31B
100
AcDbEntity
100
AcDbLine
  8
Krazyna
 62
256
370
-1
  6
ByLayer
 10
43.2161792154422812
 20
100.822691118801643
 30
0.0
 11
41.3573375647089634
 21
119.5458224945384984
 31
0.0
  0
LINE
  5
31C
100
AcDbEntity
100
AcDbLine
  8
Krazyna
 62
256
370
-1
  6
ByLayer
 10
36.3272967093263546
 20
100.822691118801643
 30
0.0
 11
33.8417209012957656
 21
118.6491434716949982
 31
0.0
  0
LINE
  5
31D
100
AcDbEntity
100
AcDbLine
  8
Krazyna
 62
256
370
-1
  6
ByLayer
 10
29.3619117036899731
 20
100.822691118801643
 30
0.0
 11
26.3674746201653463
 21
117.4557576873025084
 31
0.0
  0
LINE
  5
31E
100
AcDbEntity
100
AcDbLine
  8
Krazyna
 62
256
370
-1
  6
ByLayer
 10
22.2964908989147617
 20
100.822691118801643
 30
0.0
 11
18.9463076412655589
 21
115.9675346621248195
 31
0.0
  0
LINE
  5
31F
100
AcDbEntity
100
AcDbLine
  8
Krazyna
 62
256
370
-1
  6
ByLayer
 10
15.1061813756577976
 20
100.822691118801643
 30
0.0
 11
11.5898457321730568
 21
114.1868057997056809
 31
0.0
  0
LINE
  5
320
100
AcDbEntity
100
AcDbLine
  8
Krazyna
 62
256
370
-1
  6
ByLayer
 10
7.7644436046930867
 20
100.822691118801643
 30
0.0
 11
4.3096132955302888
 21
112.116360734064898
 31
0.0
  0
LINE
  5
321
100
AcDbEntity
100
AcDbLine
  8
Krazyna wym.
 62
256
370
-1
  6
DASHDOT
 10
60.2499999999999716
 20
100.822691118801643
 30
0.0
 11
60.2499999999999716
 21
120.4813592295122646
 31
0.0
  0
DIMENSION
  5
322
100
AcDbEntity
  8
Krazyna wym.
 62
256
370
-1
  6
ByLayer
100
AcDbDimension
 10
120.2999999999999403
 20
95.7726987553733409
 30
0.0
 11
60.2499999999999716
 21
97.6476987553733409
 31
0.0
 70
0
 71
5
 72
0
 41
1.0
 42
0.0
  1

  3
Standard
100
AcDbAlignedDimension
 13
0.2000000000000055
 23
100.822691118801643
 33
0.0
 14
120.2999999999999403
 24
100.822691118801643
 34
0.0
 50
0.0
100
AcDbRotatedDimension
  0
DIMENSION
  5
323
100
AcDbEntity
  8
Krazyna wym.
 62
256
370
-1
  6
ByLayer
100
AcDbDimension
 10
60.2092601699679335
 20
124.5981799948398816
 30
0.0
 11
58.2984765600141799
 21
126.4543627930448793
 31
0.0
 70
1
 71
5
 72
0
 41
1.0
 42
0.0
  1

  3
Standard
100
AcDbAlignedDimension
 13
56.4655407552272806
 23
120.4439084306595191
 33
0.0
 14
60.2499999999999716
 24
120.481359229512293
 34
0.0
  0
DIMENSION
  5
324
100
AcDbEntity
  8
Krazyna wym.
 62
256
370
-1
  6
ByLayer
100
AcDbDimension
 10
-0.948930698928117
 20
114.4181093428225893
 30
0.0
 11
0.5372040423279172
 21
116.8588038093151482
 31
0.0
 70
1
 71
5
 72
0
 41
1.0
 42
0.0
  1

  3
Standard
100
AcDbAlignedDimension
 13
4.3096132955302746
 23
112.1163607340649406
 33
0.0
 14
0.2000000000000073
 24
110.8083384280842836
 34
0.0
  0
DIMENSION
  5
325
100
AcDbEntity
  8
Krazyna wym.
 62
256
370
-1
  6
ByLayer
100
AcDbDimension
 10
94.9200446191403273
 20
122.3880376110959531
 30
0.0
 11
91.4785513428452361
 21
124.8362779597057965
 31
0.0
 70
1
 71
5
 72
0
 41
1.0
 42
0.0
  1

  3
Standard
100
AcDbAlignedDimension
 13
86.658279098704142
 23
118.6491434716950408
 33
0.0
 14
94.1325253798345756
 24
117.4557576873025226
 34
0.0
  0
DIMENSION
  5
326
100
AcDbEntity
  8
Otwor wym.
 62
256
370
-1
  6
ByLayer
100
AcDbDimension
 10
0.0000000000000095
 20
155.9885951095161545
 30
0.0
 11
-2.2545670659245269
 21
157.8635951095161545
 31
0.0
 70
0
 71
5
 72
0
 41
1.0
 42
0.0
  1

  3
Standard
100
AcDbAlignedDimension
 13
-4.509134131849061
 23
113.25
 33
0.0
 14
0.0000000000000067
 24
110.0
 34
0.0
 50
0.0
100
AcDbRotatedDimension
  0
LINE
  5
327
100
AcDbEntity
100
AcDbLine
  8
Otwor
 62
256
370
-1
  6
ByLayer
 10
80.8999999999999488
 20
145.7596872461464272
 30
0.0
 11
80.8999999999999488
 21
151.75
 31
0.0
  0
LINE
  5
328
100
AcDbEntity
100
AcDbLine
  8
Otwor
 62
256
370
-1
  6
ByLayer
 10
85.1720013100338633
 20
145.25
 30
0.0
 11
80.8999999999999488
 21
145.7596872461464272
 31
0.0
  0
LINE
  5
329
100
AcDbEntity
100
AcDbLine
  8
Otwor
 62
256
370
-1
  6
ByLayer
 10
85.1720013100338633
 20
145.25
 30
0.0
 11
92.8999999999999488
 21
145.25
 31
0.0
  0
LINE
  5
32A
100
AcDbEntity
100
AcDbLine
  8
Otwor
 62
256
370
-1
  6
ByLayer
 10
67.699999999999946
 20
151.75
 30
0.0
 11
79.699999999999946
 21
151.75
 31
0.0
  0
LINE
  5
32B
100
AcDbEntity
100
AcDbLine
  8
Otwor
 62
256
370
-1
  6
ByLayer
 10
79.699999999999946
 20
146.0815216285540714
 30
0.0
 11
79.699999999999946
 21
151.75
 31
0.0
  0
LINE
  5
32C
100
AcDbEntity
100
AcDbLine
  8
Otwor
 62
256
370
-1
  6
ByLayer
 10
67.699999999999946
 20
146.5567596850189318
 30
0.0
 11
67.699999999999946
 21
151.75
 31
0.0
  0
LINE
  5
32D
100
AcDbEntity
100
AcDbLine
  8
Otwor
 62
256
370
-1
  6
ByLayer
 10
79.699999999999946
 20
146.0815216285540714
 30
0.0
 11
67.699999999999946
 21
146.5567596850189318
 31
0.0
  0
DIMENSION
  5
32E
100
AcDbEntity
  8
Otwor wym.
 62
256
370
-1
  6
ByLayer
100
AcDbDimension
 10
182.2615815868282425
 20
113.2499999999996589
 30
0.0
 11
180.3865815868282425
 21
112.029169214041957
 31
0.0
 70
0
 71
5
 72
0
 41
1.0
 42
0.0
  1

  3
Standard
100
AcDbAlignedDimension
 13
120.2999999999999403
 23
110.8083384280842267
 33
0.0
 14
125.0091341318488389
 24
113.2499999999996732
 34
0.0
 50
90.0
100
AcDbRotatedDimension
  0
DIMENSION
  5
32F
100
AcDbEntity
  8
Otwor wym.
 62
256
370
-1
  6
ByLayer
100
AcDbDimension
 10
61.6253298398087566
 20
136.3500000000000227
 30
0.0
 11
59.7503298398087566
 21
128.4156796147561295
 31
0.0
 70
0
 71
5
 72
0
 41
1.0
 42
0.0
  1

  3
Standard
100
AcDbAlignedDimension
 13
60.2499999999999574
 23
120.4813592295122078
 33
0.0
 14
132.7745455426268109
 24
136.3500000000000227
 34
0.0
 50
90.0
100
AcDbRotatedDimension
  0
DIMENSION
  5
330
100
AcDbEntity
  8
Otwor wym.
 62
256
370
-1
  6
ByLayer
100
AcDbDimension
 10
48.3074799283844172
 20
147.510388105237098
 30
0.0
 11
47.1681897713635223
 21
149.3209743743376237
 31
0.0
 70
1
 71
5
 72
0
 41
1.0
 42
0.0
  1

  3
Standard
100
AcDbAlignedDimension
 13
46.3897460897171783
 23
145.061159525602136
 33
0.0
 14
48.4458057127592312
 24
145.1833791044623752
 34
0.0
  0
DIMENSION
  5
331
100
AcDbEntity
  8
Otwor wym.
 62
256
370
-1
  6
ByLayer
100
AcDbDimension
 10
48.6690943790229653
 20
115.0541229927188169
 30
0.0
 11
49.0919868658255538
 21
116.9575710167466553
 31
0.0
 70
1
 71
5
 72
0
 41
1.0
 42
0.0
  1

  3
Standard
100
AcDbAlignedDimension
 13
49.4351094834745268
 23
120.202961212656561
 33
0.0
 14
48.3668038188697551
 24
120.1394572816622173
 34
0.0
  0
DIMENSION
  5
332
100
AcDbEntity
  8
Otwor wym.
 62
256
370
-1
  6
ByLayer
100
AcDbDimension
 10
9.3690328379421022
 20
104.7263962157349653
 30
0.0
 11
7.4971275699396598
 21
105.3359826883741732
 31
0.0
 70
1
 71
5
 72
0
 41
1.0
 42
0.0
  1

  3
Standard
100
AcDbAlignedDimension
 13
0.0000000000000067
 23
110.0
 33
0.0
 14
0.7016523415965258
 24
110.9734906222106758
 34
0.0
  0
DIMENSION
  5
333
100
AcDbEntity
  8
Otwor wym.
 62
256
370
-1
  6
ByLayer
100
AcDbDimension
 10
60.2499999999999432
 20
-70.75
 30
0.0
 11
77.418570056567944
 21
23.3303593498898358
 31
0.0
 70
4
 71
5
 72
0
 41
1.0
 42
0.0
  1

  3
Standard
100
AcDbRadialDimension
 15
98.2623082593943025
 25
116.6653066682642645
 35
0.0
 40
0.0
  0
MTEXT
  5
334
100
AcDbEntity
100
AcDbMText
  8
Otwor
 62
256
370
-1
  6
ByLayer
 10
-40.0707915738329845
 20
-42.6149688166160345
 30
0.0
 40
3.0
 41
100.0
 71
1
 72
2
  1
Okno 120,5
  7
iso
 50
0.0
 73
1
 44
1.0
  0
LINE
  5
335
100
AcDbEntity
100
AcDbLine
  8
Otwor
 62
256
370
-1
  6
ByLayer
 10
1.2573492003267845
 20
124.8027492631129576
 30
0.0
 11
-2.0251991349481986
 21
136.3450573696652839
 31
0.0
  0
LINE
  5
336
100
AcDbEntity
100
AcDbLine
  8
Otwor
 62
256
370
-1
  6
ByLayer
 10
7.5094327580426263
 20
126.5807962780535831
 30
0.0
 11
4.2268844227676432
 21
138.1231043846059094
 31
0.0
  0
LINE
  5
337
100
AcDbEntity
100
AcDbLine
  8
Otwor
 62
256
370
-1
  6
ByLayer
 10
1.2573492003267845
 20
124.8027492631129576
 30
0.0
 11
7.5094327580426263
 21
126.5807962780535831
 31
0.0
  0
LINE
  5
338
100
AcDbEntity
100
AcDbLine
  8
Otwor
 62
256
370
-1
  6
ByLayer
 10
11.0655267879238686
 20
114.076629162621856
 30
0.0
 11
7.7829784526488881
 21
125.6189372691741681
 31
0.0
  0
LINE
  5
339
100
AcDbEntity
100
AcDbLine
  8
Otwor
 62
256
370
-1
  6
ByLayer
 10
4.8134432302080263
 20
112.2985821476812305
 30
0.0
 11
1.5308948949330459
 21
123.8408902542335426
 31
0.0
  0
LINE
  5
33A
100
AcDbEntity
100
AcDbLine
  8
Otwor
 62
256
370
-1
  6
ByLayer
 10
7.7829784526488881
 20
125.6189372691741681
 30
0.0
 11
1.5308948949330459
 21
123.8408902542335426
 31
0.0
  0
LINE
  5
33B
100
AcDbEntity
100
AcDbLine
  8
Otwor
 62
256
370
-1
  6
ByLayer
 10
16.9068718630997985
 20
128.8555706538331265
 30
0.0
 11
14.5473965527500351
 21
140.6213207897084487
 31
0.0
  0
LINE
  5
33C
100
AcDbEntity
100
AcDbLine
  8
Otwor
 62
256
370
-1
  6
ByLayer
 10
19.4629701159787203
 20
116.1093413399681253
 30
0.0
 11
17.1034948056289657
 21
127.8750914758434334
 31
0.0
  0
LINE
  5
33D
100
AcDbEntity
100
AcDbLine
  8
Otwor
 62
256
370
-1
  6
ByLayer
 10
23.4766094625614201
 20
129.1531406022828889
 30
0.0
 11
17.1034948056289657
 21
127.8750914758434334
 31
0.0
  0
LINE
  5
33E
100
AcDbEntity
100
AcDbLine
  8
Otwor
 62
256
370
-1
  6
ByLayer
 10
25.8360847729111782
 20
117.3873904664075667
 30
0.0
 11
23.4766094625614201
 21
129.1531406022828889
 31
0.0
  0
LINE
  5
33F
100
AcDbEntity
100
AcDbLine
  8
Otwor
 62
256
370
-1
  6
ByLayer
 10
23.2799865200322564
 20
130.1336197802725678
 30
0.0
 11
20.9205112096824948
 21
141.8993699161478901
 31
0.0
  0
LINE
  5
340
100
AcDbEntity
100
AcDbLine
  8
Otwor
 62
256
370
-1
  6
ByLayer
 10
16.9068718630997985
 20
128.8555706538331265
 30
0.0
 11
23.2799865200322564
 21
130.1336197802725678
 31
0.0
  0
LINE
  5
341
100
AcDbEntity
100
AcDbLine
  8
Otwor
 62
256
370
-1
  6
ByLayer
 10
34.3679796350515616
 20
118.7496471621917493
 30
0.0
 11
32.9463566794093978
 21
130.665140780669816
 31
0.0
  0
LINE
  5
342
100
AcDbEntity
100
AcDbLine
  8
Otwor
 62
256
370
-1
  6
ByLayer
 10
40.8222053450605031
 20
119.5196929298312654
 30
0.0
 11
39.4005823894183322
 21
131.435186548309332
 31
0.0
  0
LINE
  5
343
100
AcDbEntity
100
AcDbLine
  8
Otwor
 62
256
370
-1
  6
ByLayer
 10
39.4005823894183322
 20
131.435186548309332
 30
0.0
 11
32.9463566794093978
 21
130.665140780669816
 31
0.0
  0
LINE
  5
344
100
AcDbEntity
100
AcDbLine
  8
Otwor
 62
256
370
-1
  6
ByLayer
 10
39.2821138097814853
 20
132.428144349849191
 30
0.0
 11
37.8604908541393286
 21
144.3436379683272435
 31
0.0
  0
LINE
  5
345
100
AcDbEntity
100
AcDbLine
  8
Otwor
 62
256
370
-1
  6
ByLayer
 10
32.8278880997725437
 20
131.6580985822097034
 30
0.0
 11
31.4062651441303835
 21
143.5735922006877558
 31
0.0
  0
LINE
  5
346
100
AcDbEntity
100
AcDbLine
  8
Otwor
 62
256
370
-1
  6
ByLayer
 10
32.8278880997725437
 20
131.6580985822097034
 30
0.0
 11
39.2821138097814853
 21
132.428144349849191
 31
0.0
  0
LINE
  5
347
100
AcDbEntity
100
AcDbLine
  8
Otwor
 62
256
370
-1
  6
ByLayer
 10
48.9206715227025697
 20
133.1927785163956059
 30
0.0
 11
48.4458057127592312
 21
145.1833791044623752
 31
0.0
  0
LINE
  5
348
100
AcDbEntity
100
AcDbLine
  8
Otwor
 62
256
370
-1
  6
ByLayer
 10
49.4351094834745268
 20
120.202961212656561
 30
0.0
 11
48.9602436735311883
 21
132.1935618007233302
 31
0.0
  0
LINE
  5
349
100
AcDbEntity
100
AcDbLine
  8
Otwor
 62
256
370
-1
  6
ByLayer
 10
55.4551523254006824
 20
132.4507807811093016
 30
0.0
 11
48.9602436735311883
 21
132.1935618007233302
 31
0.0
  0
LINE
  5
34A
100
AcDbEntity
100
AcDbLine
  8
Otwor
 62
256
370
-1
  6
ByLayer
 10
55.9300181353440209
 20
120.4601801930425324
 30
0.0
 11
55.4551523254006824
 21
132.4507807811093016
 31
0.0
  0
LINE
  5
34B
100
AcDbEntity
100
AcDbLine
  8
Otwor
 62
256
370
-1
  6
ByLayer
 10
55.4155801745720638
 20
133.4499974967815774
 30
0.0
 11
54.9407143646287253
 21
145.4405980848483466
 31
0.0
  0
LINE
  5
34C
100
AcDbEntity
100
AcDbLine
  8
Otwor
 62
256
370
-1
  6
ByLayer
 10
48.9206715227025697
 20
133.1927785163956059
 30
0.0
 11
55.4155801745720638
 21
133.4499974967815774
 31
0.0
  0
LINE
  5
34D
100
AcDbEntity
100
AcDbLine
  8
Otwor
 62
256
370
-1
  6
ByLayer
 10
65.0844198254278439
 20
133.449997496781549
 30
0.0
 11
65.5592856353711824
 21
145.4405980848483182
 31
0.0
  0
LINE
  5
34E
100
AcDbEntity
100
AcDbLine
  8
Otwor
 62
256
370
-1
  6
ByLayer
 10
71.5793284772973237
 20
133.1927785163956059
 30
0.0
 11
72.0541942872406622
 21
145.1833791044623752
 31
0.0
  0
LINE
  5
34F
100
AcDbEntity
100
AcDbLine
  8
Otwor
 62
256
370
-1
  6
ByLayer
 10
71.5793284772973237
 20
133.1927785163956059
 30
0.0
 11
65.0844198254278439
 21
133.449997496781549
 31
0.0
  0
LINE
  5
350
100
AcDbEntity
100
AcDbLine
  8
Otwor
 62
256
370
-1
  6
ByLayer
 10
71.0648905165253808
 20
120.202961212656561
 30
0.0
 11
71.5397563264687193
 21
132.1935618007233302
 31
0.0
  0
LINE
  5
351
100
AcDbEntity
100
AcDbLine
  8
Otwor
 62
256
370
-1
  6
ByLayer
 10
65.0448476745992394
 20
132.4507807811093016
 30
0.0
 11
71.5397563264687193
 21
132.1935618007233302
 31
0.0
  0
LINE
  5
352
100
AcDbEntity
100
AcDbLine
  8
Otwor
 62
256
370
-1
  6
ByLayer
 10
64.5699818646559009
 20
120.4601801930425324
 30
0.0
 11
65.0448476745992394
 21
132.4507807811093016
 31
0.0
  0
LINE
  5
353
100
AcDbEntity
100
AcDbLine
  8
Otwor
 62
256
370
-1
  6
ByLayer
 10
81.2178861902184082
 20
132.428144349849191
 30
0.0
 11
82.6395091458605719
 21
144.3436379683272435
 31
0.0
  0
LINE
  5
354
100
AcDbEntity
100
AcDbLine
  8
Otwor
 62
256
370
-1
  6
ByLayer
 10
87.6721119002273497
 20
131.6580985822097034
 30
0.0
 11
89.0937348558695135
 21
143.5735922006877558
 31
0.0
  0
LINE
  5
355
100
AcDbEntity
100
AcDbLine
  8
Otwor
 62
256
370
-1
  6
ByLayer
 10
87.6721119002273497
 20
131.6580985822097034
 30
0.0
 11
81.2178861902184082
 21
132.428144349849191
 31
0.0
  0
LINE
  5
356
100
AcDbEntity
100
AcDbLine
  8
Otwor
 62
256
370
-1
  6
ByLayer
 10
86.132020364948346
 20
118.7496471621917635
 30
0.0
 11
87.5536433205905098
 21
130.665140780669816
 31
0.0
  0
LINE
  5
357
100
AcDbEntity
100
AcDbLine
  8
Otwor
 62
256
370
-1
  6
ByLayer
 10
81.0994176105815541
 20
131.4351865483093036
 30
0.0
 11
87.5536433205905098
 21
130.665140780669816
 31
0.0
  0
LINE
  5
358
100
AcDbEntity
100
AcDbLine
  8
Otwor
 62
256
370
-1
  6
ByLayer
 10
79.6777946549393903
 20
119.5196929298312511
 30
0.0
 11
81.0994176105815541
 21
131.4351865483093036
 31
0.0
  0
LINE
  5
359
100
AcDbEntity
100
AcDbLine
  8
Otwor
 62
256
370
-1
  6
ByLayer
 10
97.2200134799676619
 20
130.1336197802725962
 30
0.0
 11
99.5794887903174128
 21
141.8993699161478901
 31
0.0
  0
LINE
  5
35A
100
AcDbEntity
100
AcDbLine
  8
Otwor
 62
256
370
-1
  6
ByLayer
 10
94.6639152270887507
 20
117.3873904664075383
 30
0.0
 11
97.0233905374385017
 21
129.1531406022828605
 31
0.0
  0
LINE
  5
35B
100
AcDbEntity
100
AcDbLine
  8
Otwor
 62
256
370
-1
  6
ByLayer
 10
97.0233905374385017
 20
129.1531406022828605
 30
0.0
 11
103.3965051943709597
 21
127.8750914758434334
 31
0.0
  0
LINE
  5
35C
100
AcDbEntity
100
AcDbLine
  8
Otwor
 62
256
370
-1
  6
ByLayer
 10
101.0370298840211944
 20
116.1093413399681253
 30
0.0
 11
103.3965051943709597
 21
127.8750914758434334
 31
0.0
  0
LINE
  5
35D
100
AcDbEntity
100
AcDbLine
  8
Otwor
 62
256
370
-1
  6
ByLayer
 10
103.5931281369001198
 20
128.8555706538331265
 30
0.0
 11
105.9526034472498708
 21
140.6213207897084203
 31
0.0
  0
LINE
  5
35E
100
AcDbEntity
100
AcDbLine
  8
Otwor
 62
256
370
-1
  6
ByLayer
 10
103.5931281369001198
 20
128.8555706538331265
 30
0.0
 11
97.2200134799676619
 21
130.1336197802725962
 31
0.0
  0
LINE
  5
35F
100
AcDbEntity
100
AcDbLine
  8
Otwor
 62
256
370
-1
  6
ByLayer
 10
112.9905672419572937
 20
126.5807962780535831
 30
0.0
 11
116.2731155772322893
 21
138.1231043846059094
 31
0.0
  0
LINE
  5
360
100
AcDbEntity
100
AcDbLine
  8
Otwor
 62
256
370
-1
  6
ByLayer
 10
119.2426507996731431
 20
124.8027492631129576
 30
0.0
 11
112.9905672419572937
 21
126.5807962780535831
 31
0.0
  0
LINE
  5
361
100
AcDbEntity
100
AcDbLine
  8
Otwor
 62
256
370
-1
  6
ByLayer
 10
119.2426507996731431
 20
124.8027492631129576
 30
0.0
 11
122.5251991349481102
 21
136.3450573696652839
 31
0.0
  0
LINE
  5
362
100
AcDbEntity
100
AcDbLine
  8
Otwor
 62
256
370
-1
  6
ByLayer
 10
109.4344732120760142
 20
114.0766291626218276
 30
0.0
 11
112.717021547351024
 21
125.6189372691741397
 31
0.0
  0
LINE
  5
363
100
AcDbEntity
100
AcDbLine
  8
Otwor
 62
256
370
-1
  6
ByLayer
 10
112.717021547351024
 20
125.6189372691741397
 30
0.0
 11
118.9691051050668733
 21
123.8408902542335284
 31
0.0
  0
LINE
  5
364
100
AcDbEntity
100
AcDbLine
  8
Otwor
 62
256
370
-1
  6
ByLayer
 10
115.6865567697919062
 20
112.2985821476812021
 30
0.0
 11
118.9691051050668733
 21
123.8408902542335284
 31
0.0
  0
DIMENSION
  5
365
100
AcDbEntity
  8
Otwor wym.
 62
256
370
-1
  6
ByLayer
100
AcDbDimension
 10
106.8147373610065074
 20
-70.75
 30
0.0
 11
104.9397373610065074
 21
21.2499999999998437
 31
0.0
 70
0
 71
5
 72
0
 41
1.0
 42
0.0
  1

  3
Standard
100
AcDbAlignedDimension
 13
125.0091341318488389
 23
113.2499999999996732
 33
0.0
 14
60.2499999999999432
 24
-70.75
 34
0.0
 50
90.0
100
AcDbRotatedDimension
  0
LINE
  5
366
100
AcDbEntity
100
AcDbLine
  8
Kraz-zewn
 62
256
370
-1
  6
ByLayer
 10
2.7000000000000073
 20
111.6161982187674369
 30
0.0
 11
2.7000000000000055
 21
100.822691118801643
 31
0.0
  0
LINE
  5
367
100
AcDbEntity
100
AcDbLine
  8
Kraz-zewn
 62
256
370
-1
  6
ByLayer
 10
2.7000000000000055
 20
100.822691118801643
 30
0.0
 11
117.7999999999999403
 21
100.822691118801643
 31
0.0
  0
ARC
  5
368
100
AcDbEntity
  8
Kraz-zewn
 62
256
370
-1
  6
ByLayer
100
AcDbCircle
 10
60.2499999999999432
 20
-70.75
 30
0.0
 40
191.2313592295122646
100
AcDbArc
 50
72.4856672948823189
 51
107.5143327051176811
  0
LINE
  5
369
100
AcDbEntity
100
AcDbLine
  8
Kraz-zewn
 62
256
370
-1
  6
ByLayer
 10
117.7999999999999403
 20
100.822691118801643
 30
0.0
 11
117.7999999999999403
 21
111.6161982187674369
 31
0.0
  0
LINE
  5
36A
100
AcDbEntity
100
AcDbLine
  8
Kraz-zewn
 62
256
370
-1
  6
ByLayer
 10
2.7000000000000073
 20
111.6161982187674226
 30
0.0
 11
60.2499999999999432
 21
-70.75
 31
0.0
  0
LINE
  5
36B
100
AcDbEntity
100
AcDbLine
  8
Kraz-zewn
 62
256
370
-1
  6
ByLayer
 10
60.2499999999999432
 20
-70.75
 30
0.0
 11
117.7999999999999403
 21
111.6161982187674084
 31
0.0
  0
LINE
  5
36C
100
AcDbEntity
100
AcDbLine
  8
Kraz-zewn
 62
256
370
-1
  6
ByLayer
 10
60.2499999999999432
 20
-70.7499999999999858
 30
0.0
 11
1.6284348085003728
 21
141.2960140971736678
 31
0.0
  0
LINE
  5
36D
100
AcDbEntity
100
AcDbLine
  8
Kraz-zewn
 62
256
370
-1
  6
ByLayer
 10
60.2499999999999432
 20
-70.7499999999999858
 30
0.0
 11
9.2904378867432627
 21
143.2666419445579891
 31
0.0
  0
LINE
  5
36E
100
AcDbEntity
100
AcDbLine
  8
Kraz-zewn
 62
256
370
-1
  6
ByLayer
 10
60.2499999999999432
 20
-70.7499999999999858
 30
0.0
 11
17.0183405917565054
 21
144.9605088418495029
 31
0.0
  0
LINE
  5
36F
100
AcDbEntity
100
AcDbLine
  8
Kraz-zewn
 62
256
370
-1
  6
ByLayer
 10
60.2499999999999432
 20
-70.7499999999999858
 30
0.0
 11
24.8021493937124546
 21
146.3754243228883638
 31
0.0
  0
LINE
  5
370
100
AcDbEntity
100
AcDbLine
  8
Kraz-zewn
 62
256
370
-1
  6
ByLayer
 10
60.2499999999999432
 20
-70.7499999999999858
 30
0.0
 11
32.6317984664221825
 21
147.5095586544852608
 31
0.0
  0
LINE
  5
371
100
AcDbEntity
100
AcDbLine
  8
Kraz-zewn
 62
256
370
-1
  6
ByLayer
 10
60.2499999999999432
 20
-70.7499999999999858
 30
0.0
 11
40.497162704208975
 21
148.361445202586367
 31
0.0
  0
LINE
  5
372
100
AcDbEntity
100
AcDbLine
  8
Kraz-zewn
 62
256
370
-1
  6
ByLayer
 10
60.2499999999999432
 20
-70.7499999999999858
 30
0.0
 11
48.3880708154409689
 21
148.9299823288879452
 31
0.0
  0
LINE
  5
373
100
AcDbEntity
100
AcDbLine
  8
Kraz-zewn
 62
256
370
-1
  6
ByLayer
 10
60.2499999999999432
 20
-70.7499999999999858
 30
0.0
 11
56.2943184757904334
 21
149.2144348154470208
 31
0.0
  0
LINE
  5
374
100
AcDbEntity
100
AcDbLine
  8
Kraz-zewn
 62
256
370
-1
  6
ByLayer
 10
60.2499999999999432
 20
-70.7499999999999858
 30
0.0
 11
64.2056815242094814
 21
149.2144348154470208
 31
0.0
  0
LINE
  5
375
100
AcDbEntity
100
AcDbLine
  8
Kraz-zewn
 62
256
370
-1
  6
ByLayer
 10
60.2499999999999432
 20
-70.7499999999999858
 30
0.0
 11
72.1119291845589458
 21
148.9299823288879452
 31
0.0
  0
LINE
  5
376
100
AcDbEntity
100
AcDbLine
  8
Kraz-zewn
 62
256
370
-1
  6
ByLayer
 10
60.2499999999999432
 20
-70.7499999999999858
 30
0.0
 11
80.0028372957909397
 21
148.361445202586367
 31
0.0
  0
LINE
  5
377
100
AcDbEntity
100
AcDbLine
  8
Kraz-zewn
 62
256
370
-1
  6
ByLayer
 10
60.2499999999999432
 20
-70.7499999999999858
 30
0.0
 11
87.8682015335777322
 21
147.5095586544852608
 31
0.0
  0
LINE
  5
378
100
AcDbEntity
100
AcDbLine
  8
Kraz-zewn
 62
256
370
-1
  6
ByLayer
 10
60.2499999999999432
 20
-70.7499999999999858
 30
0.0
 11
95.6978506062874601
 21
146.3754243228883638
 31
0.0
  0
LINE
  5
379
100
AcDbEntity
100
AcDbLine
  8
Kraz-zewn
 62
256
370
-1
  6
ByLayer
 10
60.2499999999999432
 20
-70.7499999999999858
 30
0.0
 11
103.4816594082434023
 21
144.9605088418495029
 31
0.0
  0
LINE
  5
37A
100
AcDbEntity
100
AcDbLine
  8
Kraz-zewn
 62
256
370
-1
  6
ByLayer
 10
60.2499999999999432
 20
-70.7499999999999858
 30
0.0
 11
111.2095621132566521
 21
143.2666419445579891
 31
0.0
  0
LINE
  5
37B
100
AcDbEntity
100
AcDbLine
  8
Kraz-zewn
 62
256
370
-1
  6
ByLayer
 10
60.2499999999999432
 20
-70.7499999999999858
 30
0.0
 11
118.8715651914995846
 21
141.2960140971736678
 31
0.0
  0
ENDSEC
  0
SECTION
  2
OBJECTS
  0
DICTIONARY
  5
C
100
AcDbDictionary
280
0
281
1
  3
ACAD_GROUP
350
D
  3
ACAD_LAYOUT
350
1A
  3
ACAD_MLINESTYLE
350
17
  3
ACAD_PLOTSETTINGS
350
19
  3
ACAD_PLOTSTYLENAME
350
E
  3
AcDbVariableDictionary
350
37C
  0
DICTIONARY
  5
D
100
AcDbDictionary
280
0
281
1
  0
ACDBDICTIONARYWDFLT
  5
E
100
AcDbDictionary
281
1
  3
Normal
350
F
100
AcDbDictionaryWithDefault
340
F
  0
ACDBPLACEHOLDER
  5
F
  0
DICTIONARY
  5
17
100
AcDbDictionary
280
0
281
1
  3
Standard
350
18
  0
MLINESTYLE
  5
18
100
AcDbMlineStyle
  2
STANDARD
 70
0
  3

 62
256
 51
90.0
 52
90.0
 71
2
 49
0.5
 62
256
  6
BYLAYER
 49
-0.5
 62
256
  6
BYLAYER
  0
DICTIONARY
  5
19
100
AcDbDictionary
280
0
281
1
  0
DICTIONARY
  5
1A
100
AcDbDictionary
281
1
  3
Layout1
350
1E
  3
Layout2
350
26
  3
Model
350
22
  0
LAYOUT
  5
1E
100
AcDbPlotSettings
  1

  2
C:\Program Files\AutoCAD 2002\plotters\DWF ePlot (optimized for plotting).pc3
  4

  6

 40
0.0
 41
0.0
 42
0.0
 43
0.0
 44
0.0
 45
0.0
 46
0.0
 47
0.0
 48
0.0
 49
0.0
140
0.0
141
0.0
142
1.0
143
1.0
 70
688
 72
0
 73
0
 74
5
  7

 75
16
147
1.0
148
0.0
149
0.0
100
AcDbLayout
  1
Layout1
 70
1
 71
1
 10
0.0
 20
0.0
 11
420.0
 21
297.0
 12
0.0
 22
0.0
 32
0.0
 14
100000000000000000000.0
 24
100000000000000000000.0
 34
100000000000000000000.0
 15
-100000000000000000000.0
 25
-100000000000000000000.0
 35
-100000000000000000000.0
146
0.0
 13
0.0
 23
0.0
 33
0.0
 16
1.0
 26
0.0
 36
0.0
 17
0.0
 27
1.0
 37
0.0
 76
0
330
1B
  0
LAYOUT
  5
22
100
AcDbPlotSettings
  1

  2
C:\Program Files\AutoCAD 2002\plotters\DWF ePlot (optimized for plotting).pc3
  4

  6

 40
0.0
 41
0.0
 42
0.0
 43
0.0
 44
0.0
 45
0.0
 46
0.0
 47
0.0
 48
0.0
 49
0.0
140
0.0
141
0.0
142
1.0
143
1.0
 70
1712
 72
0
 73
0
 74
0
  7

 75
0
147
1.0
148
0.0
149
0.0
100
AcDbLayout
  1
Model
 70
1
 71
0
 10
0.0
 20
0.0
 11
12.0
 21
9.0
 12
0.0
 22
0.0
 32
0.0
 14
0.0
 24
0.0
 34
0.0
 15
0.0
 25
0.0
 35
0.0
146
0.0
 13
0.0
 23
0.0
 33
0.0
 16
1.0
 26
0.0
 36
0.0
 17
0.0
 27
1.0
 37
0.0
 76
0
330
1F
  0
LAYOUT
  5
26
100
AcDbPlotSettings
  1

  2
C:\Program Files\AutoCAD 2002\plotters\DWF ePlot (optimized for plotting).pc3
  4

  6

 40
0.0
 41
0.0
 42
0.0
 43
0.0
 44
0.0
 45
0.0
 46
0.0
 47
0.0
 48
0.0
 49
0.0
140
0.0
141
0.0
142
1.0
143
1.0
 70
688
 72
0
 73
0
 74
5
  7

 75
16
147
1.0
148
0.0
149
0.0
100
AcDbLayout
  1
Layout2
 70
1
 71
2
 10
0.0
 20
0.0
 11
12.0
 21
9.0
 12
0.0
 22
0.0
 32
0.0
 14
0.0
 24
0.0
 34
0.0
 15
0.0
 25
0.0
 35
0.0
146
0.0
 13
0.0
 23
0.0
 33
0.0
 16
1.0
 26
0.0
 36
0.0
 17
0.0
 27
1.0
 37
0.0
 76
0
330
23
  0
DICTIONARY
  5
37C
100
AcDbDictionary
281
1
  3
DIMASSOC
350
37E
  3
HIDETEXT
350
37D
  0
DICTIONARYVAR
  5
37D
100
DictionaryVariables
280
0
  1
2
  0
DICTIONARYVAR
  5
37E
100
DictionaryVariables
280
0
  1
1
  0
ENDSEC
  0
EOF
