999
dxflib 2.2.0.0
  0
SECTION
  2
HEADER
  9
$ACADVER
  1
AC1015
  9
$HANDSEED
  5
FFFF
  9
$SPLINESEGS
 70
8
  9
$DIMEXE
 40
1.0
  9
$DIMLUNIT
 70
2
  9
$GRIDMODE
 70
1
  9
$INSUNITS
 70
4
  9
$DIMADEC
 70
2
  9
$DIMASZ
 40
4.0
  9
$DIMGAP
 40
0.5
  9
$DIMTXT
 40
6.0
  9
$GRIDUNIT
 10
0.0
 20
0.0
  9
$DIMEXO
 40
0.5
  9
$LUPREC
 70
4
  9
$DIMAUNIT
 70
0
  9
$AUPREC
 70
2
  9
$PLIMMIN
 10
0.0
 20
0.0
  9
$LUNITS
 70
2
  9
$PLIMMAX
 10
210.0
 20
297.0
  9
$DIMSTYLE
  2
Standard
  9
$AUNITS
 70
0
  0
ENDSEC
  0
SECTION
  2
TABLES
  0
TABLE
  2
VPORT
  5
8
100
AcDbSymbolTable
 70
1
  0
VPORT
  5
30
100
AcDbSymbolTableRecord
100
AcDbViewportTableRecord
  2
*Active
 70
0
 10
0.0
 20
0.0
 11
1.0
 21
1.0
 12
286.3055555555554861
 22
148.5
 13
0.0
 23
0.0
 14
10.0
 24
10.0
 15
10.0
 25
10.0
 16
0.0
 26
0.0
 36
1.0
 17
0.0
 27
0.0
 37
0.0
 40
297.0
 41
1.92798353909465
 42
50.0
 43
0.0
 44
0.0
 50
0.0
 51
0.0
 71
0
 72
100
 73
1
 74
3
 75
1
 76
1
 77
0
 78
0
281
0
 65
1
110
0.0
120
0.0
130
0.0
111
1.0
121
0.0
131
0.0
112
0.0
122
1.0
132
0.0
 79
0
146
0.0
  0
ENDTAB
  0
TABLE
  2
LTYPE
  5
5
100
AcDbSymbolTable
 70
21
  0
LTYPE
  5
14
100
AcDbSymbolTableRecord
100
AcDbLinetypeTableRecord
  2
ByBlock
 70
0
  3

 72
65
 73
0
 40
0.0
  0
LTYPE
  5
15
100
AcDbSymbolTableRecord
100
AcDbLinetypeTableRecord
  2
ByLayer
 70
0
  3

 72
65
 73
0
 40
0.0
  0
LTYPE
  5
16
100
AcDbSymbolTableRecord
100
AcDbLinetypeTableRecord
  2
CONTINUOUS
 70
0
  3
Solid line
 72
65
 73
0
 40
0.0
  0
LTYPE
  5
31
100
AcDbSymbolTableRecord
100
AcDbLinetypeTableRecord
  2
DOT
 70
0
  3
Dot . . . . . . . . . . . . . . . . . . . . . .
 72
65
 73
2
 40
6.3499999999999996
 49
0.0
 74
0
 49
-6.3499999999999996
 74
0
  0
LTYPE
  5
32
100
AcDbSymbolTableRecord
100
AcDbLinetypeTableRecord
  2
DOT2
 70
0
  3
Dot (.5x) .....................................
 72
65
 73
2
 40
3.1749999999999998
 49
0.0
 74
0
 49
-3.1749999999999998
 74
0
  0
LTYPE
  5
33
100
AcDbSymbolTableRecord
100
AcDbLinetypeTableRecord
  2
DOTX2
 70
0
  3
Dot (2x) .  .  .  .  .  .  .  .  .  .  .  .  .
 72
65
 73
2
 40
12.6999999999999993
 49
0.0
 74
0
 49
-12.6999999999999993
 74
0
  0
LTYPE
  5
34
100
AcDbSymbolTableRecord
100
AcDbLinetypeTableRecord
  2
DASHED
 70
0
  3
Dashed __ __ __ __ __ __ __ __ __ __ __ __ __ _
 72
65
 73
2
 40
19.0500000000000007
 49
12.6999999999999993
 74
0
 49
-6.3499999999999996
 74
0
  0
LTYPE
  5
35
100
AcDbSymbolTableRecord
100
AcDbLinetypeTableRecord
  2
DASHED2
 70
0
  3
Dashed (.5x) _ _ _ _ _ _ _ _ _ _ _ _ _ _ _ _ _
 72
65
 73
2
 40
9.5250000000000004
 49
6.3499999999999996
 74
0
 49
-3.1749999999999998
 74
0
  0
LTYPE
  5
36
100
AcDbSymbolTableRecord
100
AcDbLinetypeTableRecord
  2
DASHEDX2
 70
0
  3
Dashed (2x) ____  ____  ____  ____  ____  ___
 72
65
 73
2
 40
38.1000000000000014
 49
25.3999999999999986
 74
0
 49
-12.6999999999999993
 74
0
  0
LTYPE
  5
37
100
AcDbSymbolTableRecord
100
AcDbLinetypeTableRecord
  2
DASHDOT
 70
0
  3
Dash dot __ . __ . __ . __ . __ . __ . __ . __
 72
65
 73
4
 40
25.3999999999999986
 49
12.6999999999999993
 74
0
 49
-6.3499999999999996
 74
0
 49
0.0
 74
0
 49
-6.3499999999999996
 74
0
  0
LTYPE
  5
38
100
AcDbSymbolTableRecord
100
AcDbLinetypeTableRecord
  2
DASHDOT2
 70
0
  3
Dash dot (.5x) _._._._._._._._._._._._._._._.
 72
65
 73
4
 40
12.6999999999999993
 49
6.3499999999999996
 74
0
 49
-3.1749999999999998
 74
0
 49
0.0
 74
0
 49
-3.1749999999999998
 74
0
  0
LTYPE
  5
39
100
AcDbSymbolTableRecord
100
AcDbLinetypeTableRecord
  2
DASHDOTX2
 70
0
  3
Dash dot (2x) ____  .  ____  .  ____  .  ___
 72
65
 73
4
 40
50.7999999999999972
 49
25.3999999999999986
 74
0
 49
-12.6999999999999993
 74
0
 49
0.0
 74
0
 49
-12.6999999999999993
 74
0
  0
LTYPE
  5
3A
100
AcDbSymbolTableRecord
100
AcDbLinetypeTableRecord
  2
DIVIDE
 70
0
  3
Divide ____ . . ____ . . ____ . . ____ . . ____
 72
65
 73
6
 40
31.75
 49
12.6999999999999993
 74
0
 49
-6.3499999999999996
 74
0
 49
0.0
 74
0
 49
-6.3499999999999996
 74
0
 49
0.0
 74
0
 49
-6.3499999999999996
 74
0
  0
LTYPE
  5
3B
100
AcDbSymbolTableRecord
100
AcDbLinetypeTableRecord
  2
DIVIDE2
 70
0
  3
Divide (.5x) __..__..__..__..__..__..__..__.._
 72
65
 73
6
 40
15.875
 49
6.3499999999999996
 74
0
 49
-3.1749999999999998
 74
0
 49
0.0
 74
0
 49
-3.1749999999999998
 74
0
 49
0.0
 74
0
 49
-3.1749999999999998
 74
0
  0
LTYPE
  5
3C
100
AcDbSymbolTableRecord
100
AcDbLinetypeTableRecord
  2
DIVIDEX2
 70
0
  3
Divide (2x) ________  .  .  ________  .  .  _
 72
65
 73
6
 40
63.5
 49
25.3999999999999986
 74
0
 49
-12.6999999999999993
 74
0
 49
0.0
 74
0
 49
-12.6999999999999993
 74
0
 49
0.0
 74
0
 49
-12.6999999999999993
 74
0
  0
LTYPE
  5
3D
100
AcDbSymbolTableRecord
100
AcDbLinetypeTableRecord
  2
CENTER
 70
0
  3
Center ____ _ ____ _ ____ _ ____ _ ____ _ ____
 72
65
 73
4
 40
50.7999999999999972
 49
31.75
 74
0
 49
-6.3499999999999996
 74
0
 49
6.3499999999999996
 74
0
 49
-6.3499999999999996
 74
0
  0
LTYPE
  5
3E
100
AcDbSymbolTableRecord
100
AcDbLinetypeTableRecord
  2
CENTER2
 70
0
  3
Center (.5x) ___ _ ___ _ ___ _ ___ _ ___ _ ___
 72
65
 73
4
 40
28.5749999999999993
 49
19.0500000000000007
 74
0
 49
-3.1749999999999998
 74
0
 49
3.1749999999999998
 74
0
 49
-3.1749999999999998
 74
0
  0
LTYPE
  5
3F
100
AcDbSymbolTableRecord
100
AcDbLinetypeTableRecord
  2
CENTERX2
 70
0
  3
Center (2x) ________  __  ________  __  _____
 72
65
 73
4
 40
101.5999999999999943
 49
63.5
 74
0
 49
-12.6999999999999993
 74
0
 49
12.6999999999999993
 74
0
 49
-12.6999999999999993
 74
0
  0
LTYPE
  5
40
100
AcDbSymbolTableRecord
100
AcDbLinetypeTableRecord
  2
BORDER
 70
0
  3
Border __ __ . __ __ . __ __ . __ __ . __ __ .
 72
65
 73
6
 40
44.4500000000000028
 49
12.6999999999999993
 74
0
 49
-6.3499999999999996
 74
0
 49
12.6999999999999993
 74
0
 49
-6.3499999999999996
 74
0
 49
0.0
 74
0
 49
-6.3499999999999996
 74
0
  0
LTYPE
  5
41
100
AcDbSymbolTableRecord
100
AcDbLinetypeTableRecord
  2
BORDER2
 70
0
  3
Border (.5x) __.__.__.__.__.__.__.__.__.__.__.
 72
65
 73
6
 40
22.2250000000000014
 49
6.3499999999999996
 74
0
 49
-3.1749999999999998
 74
0
 49
6.3499999999999996
 74
0
 49
-3.1749999999999998
 74
0
 49
0.0
 74
0
 49
-3.1749999999999998
 74
0
  0
LTYPE
  5
42
100
AcDbSymbolTableRecord
100
AcDbLinetypeTableRecord
  2
BORDERX2
 70
0
  3
Border (2x) ____  ____  .  ____  ____  .  ___
 72
65
 73
6
 40
88.9000000000000057
 49
25.3999999999999986
 74
0
 49
-12.6999999999999993
 74
0
 49
25.3999999999999986
 74
0
 49
-12.6999999999999993
 74
0
 49
0.0
 74
0
 49
-12.6999999999999993
 74
0
  0
ENDTAB
  0
TABLE
  2
LAYER
  5
2
100
AcDbSymbolTable
 70
4
  0
LAYER
  5
10
100
AcDbSymbolTableRecord
100
AcDbLayerTableRecord
  2
0
 70
0
 62
7
  6
CONTINUOUS
290
1
370
0
390
F
  0
LAYER
  5
43
100
AcDbSymbolTableRecord
100
AcDbLayerTableRecord
  2
Stal
 70
0
 62
1
  6
CONTINUOUS
290
1
370
0
390
F
  0
LAYER
  5
44
100
AcDbSymbolTableRecord
100
AcDbLayerTableRecord
  2
wymiary
 70
0
 62
87
  6
CONTINUOUS
290
1
370
0
390
F
  0
LAYER
  5
45
100
AcDbSymbolTableRecord
100
AcDbLayerTableRecord
  2
blacha
 70
0
 62
6
  6
CONTINUOUS
290
1
370
0
390
F
  0
ENDTAB
  0
TABLE
  2
STYLE
  5
3
100
AcDbSymbolTable
 70
1
  0
STYLE
  5
11
100
AcDbSymbolTableRecord
100
AcDbTextStyleTableRecord
  2
Standard
 70
0
 40
0.0
 41
0.75
 50
0.0
 71
0
 42
2.5
  3
txt
  4

  0
ENDTAB
  0
TABLE
  2
VIEW
  5
6
100
AcDbSymbolTable
 70
0
  0
ENDTAB
  0
TABLE
  2
UCS
  5
7
100
AcDbSymbolTable
 70
0
  0
ENDTAB
  0
TABLE
  2
APPID
  5
9
100
AcDbSymbolTable
 70
1
  0
APPID
  5
12
100
AcDbSymbolTableRecord
100
AcDbRegAppTableRecord
  2
ACAD
 70
0
  0
ENDTAB
  0
TABLE
  2
DIMSTYLE
  5
A
100
AcDbSymbolTable
 70
1
100
AcDbDimStyleTable
 71
0
  0
DIMSTYLE
105
27
100
AcDbSymbolTableRecord
100
AcDbDimStyleTableRecord
  2
Standard
 41
4.0
 42
0.5
 43
3.75
 44
1.0
 70
0
 73
0
 74
0
 77
1
 78
8
140
6.0
141
2.5
143
0.03937007874016
147
0.5
171
3
172
1
271
2
272
2
274
3
278
44
283
0
284
8
340
11
  0
ENDTAB
  0
TABLE
  2
BLOCK_RECORD
  5
1
100
AcDbSymbolTable
 70
1
  0
BLOCK_RECORD
  5
1F
100
AcDbSymbolTableRecord
100
AcDbBlockTableRecord
  2
*Model_Space
340
22
  0
BLOCK_RECORD
  5
1B
100
AcDbSymbolTableRecord
100
AcDbBlockTableRecord
  2
*Paper_Space
340
1E
  0
BLOCK_RECORD
  5
23
100
AcDbSymbolTableRecord
100
AcDbBlockTableRecord
  2
*Paper_Space0
340
26
  0
ENDTAB
  0
ENDSEC
  0
SECTION
  2
BLOCKS
  0
BLOCK
  5
20
100
AcDbEntity
  8
0
100
AcDbBlockBegin
  2
*Model_Space
 70
0
 10
0.0
 20
0.0
 30
0.0
  3
*Model_Space
  1

  0
ENDBLK
  5
21
100
AcDbEntity
  8
0
100
AcDbBlockEnd
  0
BLOCK
  5
1C
100
AcDbEntity
 67
1
  8
0
100
AcDbBlockBegin
  2
*Paper_Space
 70
0
 10
0.0
 20
0.0
 30
0.0
  3
*Paper_Space
  1

  0
ENDBLK
  5
1D
100
AcDbEntity
 67
1
  8
0
100
AcDbBlockEnd
  0
BLOCK
  5
24
100
AcDbEntity
  8
0
100
AcDbBlockBegin
  2
*Paper_Space0
 70
0
 10
0.0
 20
0.0
 30
0.0
  3
*Paper_Space0
  1

  0
ENDBLK
  5
25
100
AcDbEntity
  8
0
100
AcDbBlockEnd
  0
ENDSEC
  0
SECTION
  2
ENTITIES
  0
LINE
  5
46
100
AcDbEntity
100
AcDbLine
  8
0
 62
256
370
-1
  6
ByLayer
 10
-0.9999999999999845
 20
-251.0
 30
0.0
 11
-0.9999999999999726
 21
-73.0
 31
0.0
  0
LINE
  5
47
100
AcDbEntity
100
AcDbLine
  8
0
 62
256
370
-1
  6
ByLayer
 10
247.0000000000000284
 20
-263.0000000000000568
 30
0.0
 11
247.0000000000000284
 21
-251.0
 31
0.0
  0
LINE
  5
48
100
AcDbEntity
100
AcDbLine
  8
0
 62
256
370
-1
  6
ByLayer
 10
-0.9999999999999845
 20
-251.0
 30
0.0
 11
247.0000000000000284
 21
-251.0
 31
0.0
  0
LINE
  5
49
100
AcDbEntity
100
AcDbLine
  8
0
 62
256
370
-1
  6
DASHED
 10
206.0000000000000284
 20
-251.0
 30
0.0
 11
206.0000000000000284
 21
-72.9999999999999716
 31
0.0
  0
DIMENSION
  5
4A
100
AcDbEntity
  8
wymiary
 62
256
370
-1
  6
CONTINUOUS
100
AcDbDimension
 10
-20.0000000000000071
 20
-73.0
 30
0.0
 11
-25.6250000000000142
 21
-162.0
 31
0.0
 70
0
 71
5
 72
1
 41
1.0
 42
0.0
  1

  3
Standard
100
AcDbAlignedDimension
 13
-0.9999999999999845
 23
-251.0
 33
0.0
 14
-0.9999999999999726
 24
-73.0
 34
0.0
 50
90.0
100
AcDbRotatedDimension
  0
LINE
  5
4B
100
AcDbEntity
100
AcDbLine
  8
0
 62
256
370
-1
  6
CONTINUOUS
 10
208.0000000000000284
 20
-73.0
 30
0.0
 11
208.0000000000000284
 21
-61.0000000000000568
 31
0.0
  0
LINE
  5
4C
100
AcDbEntity
100
AcDbLine
  8
0
 62
256
370
-1
  6
ByLayer
 10
-0.9999999999999726
 20
-73.0
 30
0.0
 11
208.0000000000000284
 21
-73.0
 31
0.0
  0
LINE
  5
4D
100
AcDbEntity
100
AcDbLine
  8
0
 62
256
370
-1
  6
DASHED
 10
218.0000000000000284
 20
-251.0
 30
0.0
 11
218.0000000000000284
 21
-73.0
 31
0.0
  0
DIMENSION
  5
4E
100
AcDbEntity
  8
wymiary
 62
256
370
-1
  6
CONTINUOUS
100
AcDbDimension
 10
208.0000000000000284
 20
-61.0000000000000568
 30
0.0
 11
103.5000000000000426
 21
-56.3750000000000568
 31
0.0
 70
0
 71
5
 72
1
 41
1.0
 42
0.0
  1

  3
Standard
100
AcDbAlignedDimension
 13
-0.9999999999999726
 23
-73.0
 33
0.0
 14
208.0000000000000284
 24
-61.0000000000000568
 34
0.0
 50
0.0
100
AcDbRotatedDimension
  0
DIMENSION
  5
4F
100
AcDbEntity
  8
wymiary
 62
256
370
-1
  6
CONTINUOUS
100
AcDbDimension
 10
218.0000000000000284
 20
-47.5080000000013527
 30
0.0
 11
108.5000000000000426
 21
-42.8830000000013527
 31
0.0
 70
0
 71
5
 72
1
 41
1.0
 42
0.0
  1

  3
Standard
100
AcDbAlignedDimension
 13
-0.9999999999999726
 23
-73.0
 33
0.0
 14
218.0000000000000284
 24
-73.0
 34
0.0
 50
0.0
100
AcDbRotatedDimension
  0
DIMENSION
  5
50
100
AcDbEntity
  8
wymiary
 62
256
370
-1
  6
CONTINUOUS
100
AcDbDimension
 10
247.0000000000000284
 20
-263.0000000000000568
 30
0.0
 11
123.0000000000000284
 21
-258.3750000000000568
 31
0.0
 70
0
 71
5
 72
1
 41
1.0
 42
0.0
  1

  3
Standard
100
AcDbAlignedDimension
 13
-0.9999999999999845
 23
-251.0
 33
0.0
 14
247.0000000000000284
 24
-263.0000000000000568
 34
0.0
 50
0.0
100
AcDbRotatedDimension
  0
LINE
  5
51
100
AcDbEntity
100
AcDbLine
  8
0
 62
256
370
-3
  6
ByLayer
 10
220.0000000000000284
 20
-0.9999999999999964
 30
0.0
 11
220.0000000000000284
 21
-0.9999999999999964
 31
0.0
  0
LINE
  5
52
100
AcDbEntity
100
AcDbLine
  8
0
 62
256
370
-1
  6
ByLayer
 10
-0.9999999999999691
 20
-24.0
 30
0.0
 11
-0.9999999999999999
 21
297.0
 31
0.0
  0
LINE
  5
53
100
AcDbEntity
100
AcDbLine
  8
0
 62
256
370
-1
  6
ByLayer
 10
-0.9999999999999714
 20
-1.0
 30
0.0
 11
262.3333333333333712
 21
-0.9999999999999964
 31
0.0
  0
LINE
  5
54
100
AcDbEntity
100
AcDbLine
  8
0
 62
256
370
-1
  6
ByLayer
 10
-0.9999999999999727
 20
-8.0
 30
0.0
 11
262.3333333333333712
 21
-7.9999999999999964
 31
0.0
  0
LINE
  5
55
100
AcDbEntity
100
AcDbLine
  8
0
 62
256
370
-1
  6
ByLayer
 10
-0.9999999999999691
 20
-24.0
 30
0.0
 11
262.3333333333333712
 21
-23.9999999999999964
 31
0.0
  0
LINE
  5
56
100
AcDbEntity
100
AcDbLine
  8
0
 62
256
370
-1
  6
CONTINUOUS
 10
218.0
 20
287.0
 30
0.0
 11
262.3333333333333712
 21
287.0
 31
0.0
  0
LINE
  5
57
100
AcDbEntity
100
AcDbLine
  8
0
 62
256
370
-1
  6
CONTINUOUS
 10
218.0000000000000284
 20
254.5
 30
0.0
 11
247.0000000000000284
 21
254.5
 31
0.0
  0
LINE
  5
58
100
AcDbEntity
100
AcDbLine
  8
0
 62
256
370
-1
  6
DASHED
 10
247.0000000000000284
 20
-0.9999999999999964
 30
0.0
 11
247.0000000000000284
 21
254.5
 31
0.0
  0
LINE
  5
59
100
AcDbEntity
100
AcDbLine
  8
0
 62
256
370
-1
  6
CONTINUOUS
 10
247.0000000000000284
 20
270.5
 30
0.0
 11
262.3333333333333712
 21
270.5
 31
0.0
  0
LINE
  5
5A
100
AcDbEntity
100
AcDbLine
  8
0
 62
256
370
-1
  6
CONTINUOUS
 10
247.0000000000000284
 20
254.5
 30
0.0
 11
247.0000000000000284
 21
270.5
 31
0.0
  0
LINE
  5
5B
100
AcDbEntity
100
AcDbLine
  8
0
 62
256
370
-1
  6
ByLayer
 10
218.0000000000000284
 20
254.5
 30
0.0
 11
218.0000000000000284
 21
295.5
 31
0.0
  0
DIMENSION
  5
5C
100
AcDbEntity
  8
wymiary
 62
256
370
-1
  6
CONTINUOUS
100
AcDbDimension
 10
269.3939208984467086
 20
287.0
 30
0.0
 11
264.7689208984467086
 21
131.5
 31
0.0
 70
0
 71
5
 72
1
 41
1.0
 42
0.0
  1

  3
Standard
100
AcDbAlignedDimension
 13
262.3333333333333712
 23
-23.9999999999999964
 33
0.0
 14
262.3333333333333712
 24
287.0
 34
0.0
 50
90.0
100
AcDbRotatedDimension
  0
DIMENSION
  5
5D
100
AcDbEntity
  8
wymiary
 62
256
370
-1
  6
CONTINUOUS
100
AcDbDimension
 10
269.3939208984467086
 20
299.0
 30
0.0
 11
264.7689208984467086
 21
293.0
 31
0.0
 70
0
 71
5
 72
1
 41
1.0
 42
0.0
  1

  3
Standard
100
AcDbAlignedDimension
 13
262.3333333333333712
 23
287.0
 33
0.0
 14
262.3333333333333712
 24
299.0
 34
0.0
 50
90.0
100
AcDbRotatedDimension
  0
LINE
  5
5E
100
AcDbEntity
100
AcDbLine
  8
0
 62
256
370
-1
  6
ByLayer
 10
-0.9999999999999712
 20
0.0
 30
0.0
 11
262.3333333333333712
 21
0.0000000000000036
 31
0.0
  0
DIMENSION
  5
5F
100
AcDbEntity
  8
wymiary
 62
256
370
-1
  6
ByLayer
100
AcDbDimension
 10
-10.0196889395201616
 20
-0.0000000000000024
 30
0.0
 11
-14.6446889395201616
 21
-12.0
 31
0.0
 70
0
 71
5
 72
1
 41
1.0
 42
0.0
  1

  3
Standard
100
AcDbAlignedDimension
 13
-0.9999999999999691
 23
-24.0
 33
0.0
 14
-0.9999999999999715
 24
-0.0000000000000036
 34
0.0
 50
90.0
100
AcDbRotatedDimension
  0
DIMENSION
  5
60
100
AcDbEntity
  8
wymiary
 62
256
370
-1
  6
ByLayer
100
AcDbDimension
 10
218.0000000000000284
 20
312.966250000006255
 30
0.0
 11
108.5000000000000142
 21
317.591250000006255
 31
0.0
 70
0
 71
5
 72
1
 41
1.0
 42
0.0
  1

  3
Standard
100
AcDbAlignedDimension
 13
-0.9999999999999999
 23
297.0
 33
0.0
 14
218.0000000000000284
 24
295.5
 34
0.0
 50
0.0
100
AcDbRotatedDimension
  0
DIMENSION
  5
61
100
AcDbEntity
  8
wymiary
 62
256
370
-1
  6
ByLayer
100
AcDbDimension
 10
285.0779136000062408
 20
299.0
 30
0.0
 11
280.4529136000062408
 21
137.5
 31
0.0
 70
0
 71
5
 72
1
 41
1.0
 42
0.0
  1

  3
Standard
100
AcDbAlignedDimension
 13
262.3333333333333712
 23
-23.9999999999999964
 33
0.0
 14
262.9583333333333712
 24
299.0
 34
0.0
 50
90.0
100
AcDbRotatedDimension
  0
DIMENSION
  5
62
100
AcDbEntity
  8
wymiary
 62
256
370
-1
  6
ByLayer
100
AcDbDimension
 10
259.5347307025215855
 20
0.0000000000000034
 30
0.0
 11
254.9097307025215855
 21
149.5
 31
0.0
 70
0
 71
5
 72
1
 41
1.0
 42
0.0
  1

  3
Standard
100
AcDbAlignedDimension
 13
259.5610000000064588
 23
299.0
 33
0.0
 14
258.3665600000065297
 24
0.0000000000000035
 34
0.0
 50
90.0
100
AcDbRotatedDimension
  0
LINE
  5
63
100
AcDbEntity
100
AcDbLine
  8
0
 62
256
370
-1
  6
CONTINUOUS
 10
216.0
 20
299.0
 30
0.0
 11
262.3333333333333712
 21
299.0
 31
0.0
  0
LINE
  5
64
100
AcDbEntity
100
AcDbLine
  8
0
 62
256
370
-1
  6
ByLayer
 10
193.0
 20
280.3125
 30
0.0
 11
218.0000000000000284
 21
280.3125
 31
0.0
  0
LINE
  5
65
100
AcDbEntity
100
AcDbLine
  8
0
 62
256
370
-1
  6
ByLayer
 10
78.0000000000000142
 20
168.1875000000000284
 30
0.0
 11
78.0000000000000142
 21
186.875
 31
0.0
  0
LINE
  5
66
100
AcDbEntity
100
AcDbLine
  8
0
 62
256
370
-1
  6
ByLayer
 10
101.0000000000000142
 20
186.875
 30
0.0
 11
101.0000000000000142
 21
205.5625
 31
0.0
  0
LINE
  5
67
100
AcDbEntity
100
AcDbLine
  8
0
 62
256
370
-1
  6
ByLayer
 10
124.0000000000000142
 20
205.5625
 30
0.0
 11
124.0000000000000142
 21
224.25
 31
0.0
  0
LINE
  5
68
100
AcDbEntity
100
AcDbLine
  8
0
 62
256
370
-1
  6
ByLayer
 10
147.0
 20
224.25
 30
0.0
 11
147.0
 21
242.9375
 31
0.0
  0
LINE
  5
69
100
AcDbEntity
100
AcDbLine
  8
0
 62
256
370
-1
  6
ByLayer
 10
170.0
 20
242.9375
 30
0.0
 11
170.0
 21
261.625
 31
0.0
  0
LINE
  5
6A
100
AcDbEntity
100
AcDbLine
  8
0
 62
256
370
-1
  6
ByLayer
 10
193.0
 20
261.625
 30
0.0
 11
193.0
 21
280.3125
 31
0.0
  0
LINE
  5
6B
100
AcDbEntity
100
AcDbLine
  8
0
 62
256
370
-1
  6
ByLayer
 10
193.0
 20
276.3125
 30
0.0
 11
218.0000000000000284
 21
276.3125
 31
0.0
  0
LINE
  5
6C
100
AcDbEntity
100
AcDbLine
  8
0
 62
256
370
-1
  6
ByLayer
 10
216.0
 20
280.3125
 30
0.0
 11
216.0
 21
299.0
 31
0.0
  0
LINE
  5
6D
100
AcDbEntity
100
AcDbLine
  8
0
 62
256
370
-1
  6
CONTINUOUS
 10
216.0
 20
295.5
 30
0.0
 11
262.3333333333333712
 21
295.5
 31
0.0
  0
LINE
  5
6E
100
AcDbEntity
100
AcDbLine
  8
0
 62
256
370
-1
  6
ByLayer
 10
170.0
 20
261.625
 30
0.0
 11
195.0
 21
261.625
 31
0.0
  0
LINE
  5
6F
100
AcDbEntity
100
AcDbLine
  8
0
 62
256
370
-1
  6
ByLayer
 10
170.0
 20
257.625
 30
0.0
 11
195.0
 21
257.625
 31
0.0
  0
LINE
  5
70
100
AcDbEntity
100
AcDbLine
  8
0
 62
256
370
-1
  6
ByLayer
 10
195.0
 20
257.625
 30
0.0
 11
195.0
 21
261.625
 31
0.0
  0
LINE
  5
71
100
AcDbEntity
100
AcDbLine
  8
0
 62
256
370
-1
  6
ByLayer
 10
147.0
 20
242.9375
 30
0.0
 11
172.0
 21
242.9375
 31
0.0
  0
LINE
  5
72
100
AcDbEntity
100
AcDbLine
  8
0
 62
256
370
-1
  6
ByLayer
 10
147.0
 20
238.9375
 30
0.0
 11
172.0
 21
238.9375
 31
0.0
  0
LINE
  5
73
100
AcDbEntity
100
AcDbLine
  8
0
 62
256
370
-1
  6
ByLayer
 10
172.0
 20
238.9375
 30
0.0
 11
172.0
 21
242.9375
 31
0.0
  0
LINE
  5
74
100
AcDbEntity
100
AcDbLine
  8
0
 62
256
370
-1
  6
ByLayer
 10
124.0000000000000142
 20
224.25
 30
0.0
 11
149.0
 21
224.25
 31
0.0
  0
LINE
  5
75
100
AcDbEntity
100
AcDbLine
  8
0
 62
256
370
-1
  6
ByLayer
 10
124.0000000000000142
 20
220.25
 30
0.0
 11
149.0
 21
220.25
 31
0.0
  0
LINE
  5
76
100
AcDbEntity
100
AcDbLine
  8
0
 62
256
370
-1
  6
ByLayer
 10
149.0
 20
220.25
 30
0.0
 11
149.0
 21
224.25
 31
0.0
  0
LINE
  5
77
100
AcDbEntity
100
AcDbLine
  8
0
 62
256
370
-1
  6
ByLayer
 10
101.0000000000000142
 20
205.5625
 30
0.0
 11
126.0000000000000142
 21
205.5625
 31
0.0
  0
LINE
  5
78
100
AcDbEntity
100
AcDbLine
  8
0
 62
256
370
-1
  6
ByLayer
 10
101.0000000000000142
 20
201.5625
 30
0.0
 11
126.0000000000000142
 21
201.5625
 31
0.0
  0
LINE
  5
79
100
AcDbEntity
100
AcDbLine
  8
0
 62
256
370
-1
  6
ByLayer
 10
126.0000000000000142
 20
201.5625
 30
0.0
 11
126.0000000000000142
 21
205.5625
 31
0.0
  0
LINE
  5
7A
100
AcDbEntity
100
AcDbLine
  8
0
 62
256
370
-1
  6
ByLayer
 10
78.0000000000000142
 20
186.875
 30
0.0
 11
103.0000000000000142
 21
186.875
 31
0.0
  0
LINE
  5
7B
100
AcDbEntity
100
AcDbLine
  8
0
 62
256
370
-1
  6
ByLayer
 10
78.0000000000000142
 20
182.875
 30
0.0
 11
103.0000000000000142
 21
182.875
 31
0.0
  0
LINE
  5
7C
100
AcDbEntity
100
AcDbLine
  8
0
 62
256
370
-1
  6
ByLayer
 10
103.0000000000000142
 20
182.875
 30
0.0
 11
103.0000000000000142
 21
186.875
 31
0.0
  0
LINE
  5
7D
100
AcDbEntity
100
AcDbLine
  8
0
 62
256
370
-1
  6
ByLayer
 10
126.00000000000027
 20
93.4375000000000142
 30
0.0
 11
126.0000000000002132
 21
112.1249999999999858
 31
0.0
  0
LINE
  5
7E
100
AcDbEntity
100
AcDbLine
  8
0
 62
256
370
-1
  6
ByLayer
 10
149.0000000000003126
 20
74.75
 30
0.0
 11
149.0000000000002558
 21
93.4375
 31
0.0
  0
LINE
  5
7F
100
AcDbEntity
100
AcDbLine
  8
0
 62
256
370
-1
  6
ByLayer
 10
172.0000000000003979
 20
56.0625
 30
0.0
 11
172.0000000000003411
 21
74.75
 31
0.0
  0
LINE
  5
80
100
AcDbEntity
100
AcDbLine
  8
0
 62
256
370
-1
  6
ByLayer
 10
195.0000000000004547
 20
37.3749999999999929
 30
0.0
 11
195.0000000000003979
 21
56.0625
 31
0.0
  0
LINE
  5
81
100
AcDbEntity
100
AcDbLine
  8
0
 62
256
370
-1
  6
ByLayer
 10
218.0000000000005116
 20
18.6875000000000036
 30
0.0
 11
218.0000000000004547
 21
37.375
 31
0.0
  0
LINE
  5
82
100
AcDbEntity
100
AcDbLine
  8
0
 62
256
370
-1
  6
ByLayer
 10
241.00000000000054
 20
0.0000000000000036
 30
0.0
 11
241.00000000000054
 21
18.6875000000000036
 31
0.0
  0
LINE
  5
83
100
AcDbEntity
100
AcDbLine
  8
0
 62
256
370
-1
  6
ByLayer
 10
78.0000000000001421
 20
130.8125
 30
0.0
 11
103.0000000000001421
 21
130.8125
 31
0.0
  0
LINE
  5
84
100
AcDbEntity
100
AcDbLine
  8
0
 62
256
370
-1
  6
ByLayer
 10
78.0000000000001563
 20
126.8125
 30
0.0
 11
103.0000000000001563
 21
126.8125
 31
0.0
  0
LINE
  5
85
100
AcDbEntity
100
AcDbLine
  8
0
 62
256
370
-1
  6
ByLayer
 10
78.0000000000001563
 20
126.8125
 30
0.0
 11
78.0000000000001421
 21
130.8125
 31
0.0
  0
LINE
  5
86
100
AcDbEntity
100
AcDbLine
  8
0
 62
256
370
-1
  6
ByLayer
 10
101.0000000000002274
 20
108.125
 30
0.0
 11
101.0000000000002132
 21
112.125
 31
0.0
  0
LINE
  5
87
100
AcDbEntity
100
AcDbLine
  8
0
 62
256
370
-1
  6
ByLayer
 10
101.0000000000002132
 20
112.125
 30
0.0
 11
126.0000000000002132
 21
112.1249999999999858
 31
0.0
  0
LINE
  5
88
100
AcDbEntity
100
AcDbLine
  8
0
 62
256
370
-1
  6
ByLayer
 10
101.0000000000002274
 20
108.125
 30
0.0
 11
126.0000000000002274
 21
108.125
 31
0.0
  0
LINE
  5
89
100
AcDbEntity
100
AcDbLine
  8
0
 62
256
370
-1
  6
ByLayer
 10
103.0000000000002132
 20
112.125
 30
0.0
 11
103.0000000000001421
 21
130.8125
 31
0.0
  0
LINE
  5
8A
100
AcDbEntity
100
AcDbLine
  8
0
 62
256
370
-1
  6
ByLayer
 10
124.0000000000002558
 20
93.4375
 30
0.0
 11
149.0000000000002558
 21
93.4375
 31
0.0
  0
LINE
  5
8B
100
AcDbEntity
100
AcDbLine
  8
0
 62
256
370
-1
  6
ByLayer
 10
124.00000000000027
 20
89.4375
 30
0.0
 11
149.0000000000002842
 21
89.4375
 31
0.0
  0
LINE
  5
8C
100
AcDbEntity
100
AcDbLine
  8
0
 62
256
370
-1
  6
ByLayer
 10
124.00000000000027
 20
89.4375
 30
0.0
 11
124.0000000000002558
 21
93.4375
 31
0.0
  0
LINE
  5
8D
100
AcDbEntity
100
AcDbLine
  8
0
 62
256
370
-1
  6
ByLayer
 10
147.0000000000003411
 20
74.75
 30
0.0
 11
172.0000000000003411
 21
74.75
 31
0.0
  0
LINE
  5
8E
100
AcDbEntity
100
AcDbLine
  8
0
 62
256
370
-1
  6
ByLayer
 10
147.0000000000003411
 20
70.75
 30
0.0
 11
172.0000000000003411
 21
70.75
 31
0.0
  0
LINE
  5
8F
100
AcDbEntity
100
AcDbLine
  8
0
 62
256
370
-1
  6
ByLayer
 10
147.0000000000003411
 20
70.75
 30
0.0
 11
147.0000000000003411
 21
74.7499999999999147
 31
0.0
  0
LINE
  5
90
100
AcDbEntity
100
AcDbLine
  8
0
 62
256
370
-1
  6
ByLayer
 10
170.0000000000003979
 20
56.0625
 30
0.0
 11
195.0000000000003979
 21
56.0625
 31
0.0
  0
LINE
  5
91
100
AcDbEntity
100
AcDbLine
  8
0
 62
256
370
-1
  6
ByLayer
 10
170.0000000000003979
 20
52.0625
 30
0.0
 11
195.0000000000003979
 21
52.0625
 31
0.0
  0
LINE
  5
92
100
AcDbEntity
100
AcDbLine
  8
0
 62
256
370
-1
  6
ByLayer
 10
170.0000000000003979
 20
52.0625
 30
0.0
 11
170.0000000000003979
 21
56.0625
 31
0.0
  0
LINE
  5
93
100
AcDbEntity
100
AcDbLine
  8
0
 62
256
370
-1
  6
ByLayer
 10
193.0000000000004547
 20
37.375
 30
0.0
 11
218.0000000000004547
 21
37.375
 31
0.0
  0
LINE
  5
94
100
AcDbEntity
100
AcDbLine
  8
0
 62
256
370
-1
  6
ByLayer
 10
193.0000000000004547
 20
33.375
 30
0.0
 11
218.0000000000004832
 21
33.375
 31
0.0
  0
LINE
  5
95
100
AcDbEntity
100
AcDbLine
  8
0
 62
256
370
-1
  6
ByLayer
 10
193.0000000000004547
 20
33.375
 30
0.0
 11
193.0000000000004547
 21
37.375
 31
0.0
  0
LINE
  5
96
100
AcDbEntity
100
AcDbLine
  8
0
 62
256
370
-1
  6
ByLayer
 10
216.00000000000054
 20
18.6875000000000036
 30
0.0
 11
241.00000000000054
 21
18.6875000000000036
 31
0.0
  0
LINE
  5
97
100
AcDbEntity
100
AcDbLine
  8
0
 62
256
370
-1
  6
ByLayer
 10
216.00000000000054
 20
14.6875000000000036
 30
0.0
 11
216.00000000000054
 21
18.6875000000000036
 31
0.0
  0
LINE
  5
98
100
AcDbEntity
100
AcDbLine
  8
0
 62
256
370
-1
  6
ByLayer
 10
216.00000000000054
 20
14.6875000000000036
 30
0.0
 11
241.00000000000054
 21
14.6875000000000036
 31
0.0
  0
DIMENSION
  5
99
100
AcDbEntity
  8
wymiary
 62
256
370
-1
  6
ByLayer
100
AcDbDimension
 10
-12.9202482221033961
 20
164.1875
 30
0.0
 11
-17.5452482221033961
 21
166.1875
 31
0.0
 70
0
 71
5
 72
0
 41
1.0
 42
0.0
  1

  3
Standard
100
AcDbAlignedDimension
 13
-0.9999999999999876
 23
168.1875000000000284
 33
0.0
 14
-0.9999999999999871
 24
164.1875
 34
0.0
 50
90.0
100
AcDbRotatedDimension
  0
LINE
  5
9A
100
AcDbEntity
100
AcDbLine
  8
Stal
 62
256
370
-1
  6
ByLayer
 10
4.4000000000000163
 20
135.9000000000000057
 30
0.0
 11
4.4000000000000146
 21
145.0999999999999943
 31
0.0
  0
LINE
  5
9B
100
AcDbEntity
100
AcDbLine
  8
Stal
 62
256
370
-1
  6
ByLayer
 10
4.000000000000016
 20
135.5
 30
0.0
 11
4.0000000000000142
 21
145.5
 31
0.0
  0
LINE
  5
9C
100
AcDbEntity
100
AcDbLine
  8
Stal
 62
256
370
-1
  6
ByLayer
 10
4.4000000000000146
 20
154.5875000000000057
 30
0.0
 11
4.4000000000000128
 21
163.7874999999999943
 31
0.0
  0
LINE
  5
9D
100
AcDbEntity
100
AcDbLine
  8
Stal
 62
256
370
-1
  6
ByLayer
 10
4.0000000000000142
 20
154.1875
 30
0.0
 11
4.0000000000000124
 21
164.1875
 31
0.0
  0
LINE
  5
9E
100
AcDbEntity
100
AcDbLine
  8
0
 62
256
370
-1
  6
ByLayer
 10
80.0000000000000142
 20
164.1875
 30
0.0
 11
80.0000000000000142
 21
168.1875000000000284
 31
0.0
  0
LINE
  5
9F
100
AcDbEntity
100
AcDbLine
  8
0
 62
256
370
-1
  6
ByLayer
 10
80.0000000000001421
 20
130.8125
 30
0.0
 11
80.0000000000000853
 21
149.5
 31
0.0
  0
LINE
  5
A0
100
AcDbEntity
100
AcDbLine
  8
Stal
 62
256
370
-1
  6
ByLayer
 10
4.4000000000000128
 20
163.7874999999999943
 30
0.0
 11
9.0000000000000124
 21
163.7874999999999943
 31
0.0
  0
LINE
  5
A1
100
AcDbEntity
100
AcDbLine
  8
Stal
 62
256
370
-1
  6
ByLayer
 10
4.4000000000000146
 20
154.5875000000000057
 30
0.0
 11
9.0000000000000142
 21
154.5875000000000341
 31
0.0
  0
LINE
  5
A2
100
AcDbEntity
100
AcDbLine
  8
Stal
 62
256
370
-1
  6
ByLayer
 10
4.4000000000000146
 20
145.0999999999999943
 30
0.0
 11
9.0000000000000142
 21
145.0999999999999943
 31
0.0
  0
LINE
  5
A3
100
AcDbEntity
100
AcDbLine
  8
Stal
 62
256
370
-1
  6
ByLayer
 10
4.4000000000000163
 20
135.9000000000000057
 30
0.0
 11
9.000000000000016
 21
135.9000000000000341
 31
0.0
  0
LINE
  5
A4
100
AcDbEntity
100
AcDbLine
  8
0
 62
256
370
-1
  6
ByLayer
 10
2.0000000000000124
 20
168.1875
 30
0.0
 11
80.0000000000000142
 21
168.1875000000000284
 31
0.0
  0
LINE
  5
A5
100
AcDbEntity
100
AcDbLine
  8
0
 62
256
370
-1
  6
ByLayer
 10
2.0000000000000129
 20
164.1875
 30
0.0
 11
80.0000000000000142
 21
164.1875
 31
0.0
  0
LINE
  5
A6
100
AcDbEntity
100
AcDbLine
  8
0
 62
256
370
-1
  6
ByLayer
 10
2.0000000000000129
 20
164.1875
 30
0.0
 11
2.0000000000000124
 21
168.1875
 31
0.0
  0
LINE
  5
A7
100
AcDbEntity
100
AcDbLine
  8
0
 62
256
370
-1
  6
ByLayer
 10
2.0000000000000142
 20
149.5
 30
0.0
 11
80.0000000000000853
 21
149.5
 31
0.0
  0
LINE
  5
A8
100
AcDbEntity
100
AcDbLine
  8
0
 62
256
370
-1
  6
ByLayer
 10
2.0000000000000142
 20
145.5
 30
0.0
 11
80.0000000000000853
 21
145.5
 31
0.0
  0
LINE
  5
A9
100
AcDbEntity
100
AcDbLine
  8
0
 62
256
370
-1
  6
ByLayer
 10
2.0000000000000142
 20
145.5
 30
0.0
 11
2.0000000000000142
 21
149.5
 31
0.0
  0
LINE
  5
AA
100
AcDbEntity
100
AcDbLine
  8
Stal
 62
256
370
-1
  6
ByLayer
 10
77.6000000000001222
 20
135.9000000000001478
 30
0.0
 11
77.600000000000108
 21
145.1000000000001364
 31
0.0
  0
LINE
  5
AB
100
AcDbEntity
100
AcDbLine
  8
Stal
 62
256
370
-1
  6
ByLayer
 10
77.6000000000000512
 20
154.5875000000001194
 30
0.0
 11
77.6000000000000227
 21
163.787500000000108
 31
0.0
  0
LINE
  5
AC
100
AcDbEntity
100
AcDbLine
  8
Stal
 62
256
370
-1
  6
ByLayer
 10
77.6000000000000227
 20
163.787500000000108
 30
0.0
 11
73.0000000000000284
 21
163.787500000000108
 31
0.0
  0
LINE
  5
AD
100
AcDbEntity
100
AcDbLine
  8
Stal
 62
256
370
-1
  6
ByLayer
 10
73.0000000000000284
 20
163.787500000000108
 30
0.0
 11
73.0000000000000284
 21
164.1875000000000853
 31
0.0
  0
LINE
  5
AE
100
AcDbEntity
100
AcDbLine
  8
Stal
 62
256
370
-1
  6
ByLayer
 10
77.6000000000000512
 20
154.5875000000001194
 30
0.0
 11
73.0000000000000568
 21
154.5875000000001478
 31
0.0
  0
LINE
  5
AF
100
AcDbEntity
100
AcDbLine
  8
Stal
 62
256
370
-1
  6
ByLayer
 10
78.0000000000000568
 20
154.1875000000001421
 30
0.0
 11
73.0000000000000568
 21
154.1875000000001137
 31
0.0
  0
LINE
  5
B0
100
AcDbEntity
100
AcDbLine
  8
Stal
 62
256
370
-1
  6
ByLayer
 10
73.0000000000000568
 20
154.1875000000001137
 30
0.0
 11
73.0000000000000568
 21
154.5875000000001478
 31
0.0
  0
LINE
  5
B1
100
AcDbEntity
100
AcDbLine
  8
Stal
 62
256
370
-1
  6
ByLayer
 10
78.0000000000000853
 20
145.5000000000001137
 30
0.0
 11
73.0000000000000853
 21
145.5000000000001137
 31
0.0
  0
LINE
  5
B2
100
AcDbEntity
100
AcDbLine
  8
Stal
 62
256
370
-1
  6
ByLayer
 10
77.600000000000108
 20
145.1000000000001364
 30
0.0
 11
73.0000000000000853
 21
145.100000000000108
 31
0.0
  0
LINE
  5
B3
100
AcDbEntity
100
AcDbLine
  8
Stal
 62
256
370
-1
  6
ByLayer
 10
73.0000000000000853
 20
145.100000000000108
 30
0.0
 11
73.0000000000000853
 21
145.5000000000001137
 31
0.0
  0
LINE
  5
B4
100
AcDbEntity
100
AcDbLine
  8
Stal
 62
256
370
-1
  6
ByLayer
 10
77.6000000000001222
 20
135.9000000000001478
 30
0.0
 11
73.0000000000001421
 21
135.9000000000001478
 31
0.0
  0
LINE
  5
B5
100
AcDbEntity
100
AcDbLine
  8
Stal
 62
256
370
-1
  6
ByLayer
 10
73.0000000000001137
 20
135.5000000000001137
 30
0.0
 11
73.0000000000001421
 21
135.9000000000001478
 31
0.0
  0
LINE
  5
B6
100
AcDbEntity
100
AcDbLine
  8
Stal
 62
256
370
-1
  6
ByLayer
 10
238.75384615384678
 20
0.1999999999999886
 30
0.0
 11
239.9527951951590694
 21
0.1999999999999993
 31
0.0
  0
LINE
  5
B7
100
AcDbEntity
100
AcDbLine
  8
Stal
 62
256
370
-1
  6
ByLayer
 10
239.9527951951590694
 20
0.1999999999999993
 30
0.0
 11
239.9527951951590694
 21
14.6874999999999716
 31
0.0
  0
LINE
  5
B8
100
AcDbEntity
100
AcDbLine
  8
Stal
 62
256
370
-1
  6
ByLayer
 10
217.8000000000000398
 20
280.1500000000000341
 30
0.0
 11
217.8000000000000398
 21
295.611646096066238
 31
0.0
  0
DIMENSION
  5
B9
100
AcDbEntity
  8
wymiary
 62
256
370
-1
  6
ByLayer
100
AcDbDimension
 10
-0.9999999999999881
 20
174.1037643357027491
 30
0.0
 11
0.5000000000000128
 21
178.7287643357027491
 31
0.0
 70
0
 71
5
 72
1
 41
1.0
 42
0.0
  1

  3
Standard
100
AcDbAlignedDimension
 13
2.0000000000000124
 23
168.1875
 33
0.0
 14
-0.9999999999999881
 24
174.1593081074735494
 34
0.0
 50
0.0
100
AcDbRotatedDimension
  0
LINE
  5
BA
100
AcDbEntity
100
AcDbLine
  8
Stal
 62
256
370
-1
  6
ByLayer
 10
3.9999999999999973
 20
-77.0
 30
0.0
 11
78.0000000000001279
 21
-77.0
 31
0.0
  0
LINE
  5
BB
100
AcDbEntity
100
AcDbLine
  8
Stal
 62
256
370
-1
  6
ByLayer
 10
3.9999999999999827
 20
-247.0
 30
0.0
 11
78.0000000000001421
 21
-247.0
 31
0.0
  0
LINE
  5
BC
100
AcDbEntity
100
AcDbLine
  8
Stal
 62
256
370
-1
  6
ByLayer
 10
8.9999999999999964
 20
-82.0
 30
0.0
 11
73.0000000000001279
 21
-81.9999999999999716
 31
0.0
  0
LINE
  5
BD
100
AcDbEntity
100
AcDbLine
  8
Stal
 62
256
370
-1
  6
ByLayer
 10
8.9999999999999822
 20
-242.0
 30
0.0
 11
73.0000000000001421
 21
-242.0
 31
0.0
  0
LINE
  5
BE
100
AcDbEntity
100
AcDbLine
  8
Stal
 62
256
370
-1
  6
ByLayer
 10
78.0000000000001563
 20
-243.0
 30
0.0
 11
239.9527951951590694
 21
-243.0
 31
0.0
  0
LINE
  5
BF
100
AcDbEntity
100
AcDbLine
  8
Stal
 62
256
370
-1
  6
ByLayer
 10
78.0000000000001563
 20
-247.0
 30
0.0
 11
239.9527951951590694
 21
-247.0
 31
0.0
  0
LINE
  5
C0
100
AcDbEntity
100
AcDbLine
  8
Stal
 62
256
370
-1
  6
ByLayer
 10
239.9527951951590694
 20
-247.0
 30
0.0
 11
239.9527951951590694
 21
-243.0
 31
0.0
  0
LINE
  5
C1
100
AcDbEntity
100
AcDbLine
  8
Stal
 62
256
370
-1
  6
ByLayer
 10
78.0000000000001279
 20
-77.0
 30
0.0
 11
217.8000000000000966
 21
-77.0
 31
0.0
  0
LINE
  5
C2
100
AcDbEntity
100
AcDbLine
  8
Stal
 62
256
370
-1
  6
ByLayer
 10
78.0000000000001279
 20
-81.0
 30
0.0
 11
217.8000000000000682
 21
-81.0
 31
0.0
  0
LINE
  5
C3
100
AcDbEntity
100
AcDbLine
  8
Stal
 62
256
370
-1
  6
ByLayer
 10
217.8000000000000682
 20
-81.0
 30
0.0
 11
217.8000000000000966
 21
-77.0
 31
0.0
  0
LINE
  5
C4
100
AcDbEntity
100
AcDbLine
  8
0
 62
256
370
-1
  6
ByLayer
 10
1.9999999999999827
 20
-248.0
 30
0.0
 11
80.0000000000001421
 21
-248.0
 31
0.0
  0
LINE
  5
C5
100
AcDbEntity
100
AcDbLine
  8
0
 62
256
370
-1
  6
ByLayer
 10
80.0000000000001421
 20
-248.0
 30
0.0
 11
80.0000000000001279
 21
-76.0
 31
0.0
  0
LINE
  5
C6
100
AcDbEntity
100
AcDbLine
  8
0
 62
256
370
-1
  6
ByLayer
 10
1.9999999999999827
 20
-248.0
 30
0.0
 11
1.9999999999999973
 21
-76.0
 31
0.0
  0
LINE
  5
C7
100
AcDbEntity
100
AcDbLine
  8
0
 62
256
370
-1
  6
ByLayer
 10
1.9999999999999973
 20
-76.0
 30
0.0
 11
80.0000000000001279
 21
-76.0
 31
0.0
  0
LINE
  5
C8
100
AcDbEntity
100
AcDbLine
  8
0
 62
256
370
-1
  6
DASHED
 10
2.0
 20
-161.0
 30
0.0
 11
80.0000000000001421
 21
-161.0
 31
0.0
  0
LINE
  5
C9
100
AcDbEntity
100
AcDbLine
  8
0
 62
256
370
-1
  6
ByLayer
 10
2.0
 20
-163.0
 30
0.0
 11
80.0000000000001421
 21
-163.0
 31
0.0
  0
LINE
  5
CA
100
AcDbEntity
100
AcDbLine
  8
Stal
 62
256
370
-1
  6
ByLayer
 10
8.9999999999999893
 20
-156.0
 30
0.0
 11
8.9999999999999964
 21
-82.0
 31
0.0
  0
LINE
  5
CB
100
AcDbEntity
100
AcDbLine
  8
Stal
 62
256
370
-1
  6
ByLayer
 10
73.0000000000001279
 20
-156.0
 30
0.0
 11
73.0000000000001279
 21
-81.9999999999999716
 31
0.0
  0
LINE
  5
CC
100
AcDbEntity
100
AcDbLine
  8
Stal
 62
256
370
-1
  6
ByLayer
 10
8.9999999999999893
 20
-156.0
 30
0.0
 11
73.0000000000001279
 21
-156.0
 31
0.0
  0
LINE
  5
CD
100
AcDbEntity
100
AcDbLine
  8
Stal
 62
256
370
-1
  6
ByLayer
 10
78.0000000000001279
 20
-161.0
 30
0.0
 11
78.0000000000001279
 21
-77.0
 31
0.0
  0
LINE
  5
CE
100
AcDbEntity
100
AcDbLine
  8
Stal
 62
256
370
-1
  6
ByLayer
 10
3.9999999999999902
 20
-161.0
 30
0.0
 11
3.9999999999999973
 21
-77.0
 31
0.0
  0
LINE
  5
CF
100
AcDbEntity
100
AcDbLine
  8
Stal
 62
256
370
-1
  6
ByLayer
 10
3.9999999999999827
 20
-247.0
 30
0.0
 11
3.9999999999999907
 21
-162.0
 31
0.0
  0
LINE
  5
D0
100
AcDbEntity
100
AcDbLine
  8
Stal
 62
256
370
-1
  6
ByLayer
 10
78.0000000000001421
 20
-247.0
 30
0.0
 11
78.0000000000001279
 21
-162.0
 31
0.0
  0
LINE
  5
D1
100
AcDbEntity
100
AcDbLine
  8
Stal
 62
256
370
-1
  6
ByLayer
 10
8.9999999999999822
 20
-242.0
 30
0.0
 11
8.9999999999999893
 21
-167.0
 31
0.0
  0
LINE
  5
D2
100
AcDbEntity
100
AcDbLine
  8
Stal
 62
256
370
-1
  6
ByLayer
 10
73.0000000000001421
 20
-242.0
 30
0.0
 11
73.0000000000001279
 21
-167.0
 31
0.0
  0
LINE
  5
D3
100
AcDbEntity
100
AcDbLine
  8
Stal
 62
256
370
-1
  6
ByLayer
 10
8.9999999999999893
 20
-167.0
 30
0.0
 11
73.0000000000001279
 21
-167.0
 31
0.0
  0
LINE
  5
D4
100
AcDbEntity
100
AcDbLine
  8
0
 62
256
370
-1
  6
ByLayer
 10
-50.0
 20
-24.0000000000000142
 30
0.0
 11
-50.0
 21
299.0
 31
0.0
  0
LINE
  5
D5
100
AcDbEntity
100
AcDbLine
  8
0
 62
256
370
-1
  6
ByLayer
 10
-228.0
 20
-23.9999999999999929
 30
0.0
 11
-228.0
 21
299.0
 31
0.0
  0
LINE
  5
D6
100
AcDbEntity
100
AcDbLine
  8
Stal
 62
256
370
-1
  6
ByLayer
 10
-224.0
 20
135.5
 30
0.0
 11
-224.0
 21
145.5
 31
0.0
  0
LINE
  5
D7
100
AcDbEntity
100
AcDbLine
  8
Stal
 62
256
370
-1
  6
ByLayer
 10
-54.0
 20
154.1875
 30
0.0
 11
-54.0
 21
164.1875
 31
0.0
  0
LINE
  5
D8
100
AcDbEntity
100
AcDbLine
  8
Stal
 62
256
370
-1
  6
ByLayer
 10
-138.0
 20
154.1875
 30
0.0
 11
-54.0
 21
154.1875
 31
0.0
  0
LINE
  5
D9
100
AcDbEntity
100
AcDbLine
  8
Stal
 62
256
370
-1
  6
ByLayer
 10
-138.0
 20
154.1875
 30
0.0
 11
-138.0
 21
164.1875
 31
0.0
  0
LINE
  5
DA
100
AcDbEntity
100
AcDbLine
  8
Stal
 62
256
370
-1
  6
ByLayer
 10
-224.0
 20
145.5
 30
0.0
 11
-139.0
 21
145.5
 31
0.0
  0
LINE
  5
DB
100
AcDbEntity
100
AcDbLine
  8
Stal
 62
256
370
-1
  6
ByLayer
 10
-139.0
 20
135.5
 30
0.0
 11
-139.0
 21
145.5
 31
0.0
  0
LINE
  5
DC
100
AcDbEntity
100
AcDbLine
  8
0
 62
256
370
-1
  6
ByLayer
 10
-140.0
 20
164.1875
 30
0.0
 11
-140.0
 21
168.1875
 31
0.0
  0
LINE
  5
DD
100
AcDbEntity
100
AcDbLine
  8
0
 62
256
370
-1
  6
ByLayer
 10
-140.0
 20
168.1875
 30
0.0
 11
-53.0
 21
168.1875
 31
0.0
  0
LINE
  5
DE
100
AcDbEntity
100
AcDbLine
  8
0
 62
256
370
-1
  6
ByLayer
 10
-140.0
 20
164.1875
 30
0.0
 11
-53.0
 21
164.1875
 31
0.0
  0
LINE
  5
DF
100
AcDbEntity
100
AcDbLine
  8
0
 62
256
370
-1
  6
ByLayer
 10
-53.0
 20
164.1875
 30
0.0
 11
-53.0
 21
168.1875
 31
0.0
  0
LINE
  5
E0
100
AcDbEntity
100
AcDbLine
  8
0
 62
256
370
-1
  6
ByLayer
 10
-225.0
 20
145.5
 30
0.0
 11
-225.0
 21
149.5
 31
0.0
  0
LINE
  5
E1
100
AcDbEntity
100
AcDbLine
  8
0
 62
256
370
-1
  6
ByLayer
 10
-225.0
 20
149.5
 30
0.0
 11
-138.0
 21
149.5
 31
0.0
  0
LINE
  5
E2
100
AcDbEntity
100
AcDbLine
  8
0
 62
256
370
-1
  6
ByLayer
 10
-225.0
 20
145.5
 30
0.0
 11
-138.0
 21
145.5
 31
0.0
  0
LINE
  5
E3
100
AcDbEntity
100
AcDbLine
  8
0
 62
256
370
-1
  6
ByLayer
 10
-138.0
 20
145.5
 30
0.0
 11
-138.0
 21
149.5
 31
0.0
  0
LINE
  5
E4
100
AcDbEntity
100
AcDbLine
  8
Stal
 62
256
370
-1
  6
ByLayer
 10
-138.4000000000000057
 20
135.5
 30
0.0
 11
-138.4000000000000057
 21
164.1875
 31
0.0
  0
LINE
  5
E5
100
AcDbEntity
100
AcDbLine
  8
Stal
 62
256
370
-1
  6
ByLayer
 10
-138.5999999999999943
 20
135.5
 30
0.0
 11
-138.5999999999999943
 21
164.1875
 31
0.0
  0
LINE
  5
E6
100
AcDbEntity
100
AcDbLine
  8
Stal
 62
256
370
-1
  6
ByLayer
 10
-133.4000000000000057
 20
135.5
 30
0.0
 11
-133.4000000000000057
 21
164.1875
 31
0.0
  0
LINE
  5
E7
100
AcDbEntity
100
AcDbLine
  8
Stal
 62
256
370
-1
  6
ByLayer
 10
-224.0
 20
135.5
 30
0.0
 11
-133.4000000000000057
 21
135.5
 31
0.0
  0
LINE
  5
E8
100
AcDbEntity
100
AcDbLine
  8
Stal
 62
256
370
-1
  6
ByLayer
 10
-143.5999999999999943
 20
135.5
 30
0.0
 11
-143.5999999999999943
 21
164.1875
 31
0.0
  0
LINE
  5
E9
100
AcDbEntity
100
AcDbLine
  8
Stal
 62
256
370
-1
  6
ByLayer
 10
-143.5999999999999943
 20
164.1875
 30
0.0
 11
-54.0
 21
164.1875
 31
0.0
  0
LINE
  5
EA
100
AcDbEntity
100
AcDbLine
  8
Stal
 62
256
370
-1
  6
ByLayer
 10
-0.5999999999999843
 20
135.5
 30
0.0
 11
-0.5999999999999871
 21
164.1875
 31
0.0
  0
LINE
  5
EB
100
AcDbEntity
100
AcDbLine
  8
Stal
 62
256
370
-1
  6
ByLayer
 10
-0.999999999999984
 20
135.5
 30
0.0
 11
-0.9999999999999867
 21
164.1875
 31
0.0
  0
LINE
  5
EC
100
AcDbEntity
100
AcDbLine
  8
Stal
 62
256
370
-1
  6
ByLayer
 10
9.0000000000000142
 20
154.1875
 30
0.0
 11
9.0000000000000142
 21
164.1875
 31
0.0
  0
LINE
  5
ED
100
AcDbEntity
100
AcDbLine
  8
Stal
 62
256
370
-1
  6
ByLayer
 10
-0.9999999999999867
 20
164.1875
 30
0.0
 11
9.0000000000000142
 21
164.1875
 31
0.0
  0
LINE
  5
EE
100
AcDbEntity
100
AcDbLine
  8
Stal
 62
256
370
-1
  6
ByLayer
 10
9.0000000000000142
 20
135.5
 30
0.0
 11
9.0000000000000142
 21
145.5
 31
0.0
  0
LINE
  5
EF
100
AcDbEntity
100
AcDbLine
  8
Stal
 62
256
370
-1
  6
ByLayer
 10
-0.999999999999984
 20
135.5
 30
0.0
 11
9.0000000000000142
 21
135.5
 31
0.0
  0
LINE
  5
F0
100
AcDbEntity
100
AcDbLine
  8
Stal
 62
256
370
-1
  6
ByLayer
 10
-0.5999999999999779
 20
-162.0
 30
0.0
 11
78.0000000000001279
 21
-162.0
 31
0.0
  0
LINE
  5
F1
100
AcDbEntity
100
AcDbLine
  8
Stal
 62
256
370
-1
  6
ByLayer
 10
-0.5999999999999783
 20
-161.0
 30
0.0
 11
78.0000000000001279
 21
-161.0
 31
0.0
  0
LINE
  5
F2
100
AcDbEntity
100
AcDbLine
  8
Stal
 62
256
370
-1
  6
ByLayer
 10
-0.9999999999999784
 20
-161.4000000000000057
 30
0.0
 11
-0.999999999999978
 21
-156.4000000000000057
 31
0.0
  0
LINE
  5
F3
100
AcDbEntity
100
AcDbLine
  8
Stal
 62
256
370
-1
  6
ByLayer
 10
-0.5999999999999783
 20
-161.0
 30
0.0
 11
-0.599999999999978
 21
-156.4000000000000057
 31
0.0
  0
LINE
  5
F4
100
AcDbEntity
100
AcDbLine
  8
Stal
 62
256
370
-1
  6
ByLayer
 10
-0.999999999999978
 20
-156.4000000000000057
 30
0.0
 11
-0.599999999999978
 21
-156.4000000000000057
 31
0.0
  0
LINE
  5
F5
100
AcDbEntity
100
AcDbLine
  8
Stal
 62
256
370
-1
  6
ByLayer
 10
-0.9999999999999782
 20
-166.5999999999999943
 30
0.0
 11
-0.9999999999999779
 21
-161.5999999999999943
 31
0.0
  0
LINE
  5
F6
100
AcDbEntity
100
AcDbLine
  8
Stal
 62
256
370
-1
  6
ByLayer
 10
-0.5999999999999782
 20
-166.6000000000000227
 30
0.0
 11
-0.5999999999999779
 21
-162.0
 31
0.0
  0
LINE
  5
F7
100
AcDbEntity
100
AcDbLine
  8
Stal
 62
256
370
-1
  6
ByLayer
 10
-0.9999999999999782
 20
-166.5999999999999943
 30
0.0
 11
-0.5999999999999782
 21
-166.6000000000000227
 31
0.0
  0
LINE
  5
F8
100
AcDbEntity
100
AcDbLine
  8
Stal
 62
256
370
-1
  6
ByLayer
 10
-0.9999999999999784
 20
-161.4000000000000057
 30
0.0
 11
9.0000000000000213
 21
-161.4000000000000057
 31
0.0
  0
LINE
  5
F9
100
AcDbEntity
100
AcDbLine
  8
Stal
 62
256
370
-1
  6
ByLayer
 10
-0.9999999999999779
 20
-161.5999999999999943
 30
0.0
 11
9.0000000000000213
 21
-161.5999999999999943
 31
0.0
  0
LINE
  5
FA
100
AcDbEntity
100
AcDbLine
  8
Stal
 62
256
370
-1
  6
ByLayer
 10
9.0000000000000213
 20
-161.4000000000000057
 30
0.0
 11
9.0000000000000213
 21
-161.0
 31
0.0
  0
LINE
  5
FB
100
AcDbEntity
100
AcDbLine
  8
Stal
 62
256
370
-1
  6
ByLayer
 10
9.0000000000000213
 20
-162.0
 30
0.0
 11
9.0000000000000213
 21
-161.5999999999999943
 31
0.0
  0
LINE
  5
FC
100
AcDbEntity
100
AcDbLine
  8
Stal
 62
256
370
-1
  6
ByLayer
 10
78.0000000000001137
 20
135.5000000000001421
 30
0.0
 11
78.0000000000000284
 21
164.1875000000001137
 31
0.0
  0
LINE
  5
FD
100
AcDbEntity
100
AcDbLine
  8
Stal
 62
256
370
-1
  6
ByLayer
 10
78.4000000000000341
 20
164.1875000000001137
 30
0.0
 11
73.0000000000000284
 21
164.1875000000000853
 31
0.0
  0
LINE
  5
FE
100
AcDbEntity
100
AcDbLine
  8
Stal
 62
256
370
-1
  6
ByLayer
 10
78.4000000000001194
 20
135.5000000000001421
 30
0.0
 11
73.0000000000001137
 21
135.5000000000001137
 31
0.0
  0
LINE
  5
FF
100
AcDbEntity
100
AcDbLine
  8
Stal
 62
256
370
-1
  6
ByLayer
 10
78.4000000000001194
 20
135.5000000000001421
 30
0.0
 11
78.4000000000000341
 21
164.1875000000001137
 31
0.0
  0
LINE
  5
100
100
AcDbEntity
100
AcDbLine
  8
Stal
 62
256
370
-1
  6
ByLayer
 10
1.8000000000000143
 20
154.1875
 30
0.0
 11
9.0000000000000142
 21
154.1875
 31
0.0
  0
LINE
  5
101
100
AcDbEntity
100
AcDbLine
  8
Stal
 62
256
370
-1
  6
ByLayer
 10
1.8000000000000138
 20
145.5
 30
0.0
 11
9.0000000000000142
 21
145.5
 31
0.0
  0
LINE
  5
102
100
AcDbEntity
100
AcDbLine
  8
Stal
 62
256
370
-1
  6
ByLayer
 10
1.8000000000000138
 20
145.5
 30
0.0
 11
1.8000000000000143
 21
154.1875
 31
0.0
  0
LINE
  5
103
100
AcDbEntity
100
AcDbLine
  8
Stal
 62
256
370
-1
  6
ByLayer
 10
217.8000000000000398
 20
295.611646096066238
 30
0.0
 11
80.2000000000000455
 21
183.8116460960662266
 31
0.0
  0
LINE
  5
104
100
AcDbEntity
100
AcDbLine
  8
Stal
 62
256
370
-1
  6
ByLayer
 10
217.8000000000000398
 20
280.1500000000000341
 30
0.0
 11
80.6000000000000227
 21
168.6750000000000114
 31
0.0
  0
DIMENSION
  5
105
100
AcDbEntity
  8
wymiary
 62
256
370
-1
  6
ByLayer
100
AcDbDimension
 10
87.3669794929788281
 20
-77.0
 30
0.0
 11
82.7419794929788281
 21
-75.0
 31
0.0
 70
0
 71
5
 72
1
 41
1.0
 42
0.0
  1

  3
Standard
100
AcDbAlignedDimension
 13
87.3669794929788281
 23
-73.0
 33
0.0
 14
87.3669794929788281
 24
-77.0
 34
0.0
 50
90.0
100
AcDbRotatedDimension
  0
DIMENSION
  5
106
100
AcDbEntity
  8
wymiary
 62
256
370
-1
  6
ByLayer
100
AcDbDimension
 10
3.999999999999996
 20
-93.5797424791462049
 30
0.0
 11
1.5000000000000118
 21
-88.9547424791462049
 31
0.0
 70
0
 71
5
 72
1
 41
1.0
 42
0.0
  1

  3
Standard
100
AcDbAlignedDimension
 13
-0.9999999999999739
 23
-93.5797424791462049
 33
0.0
 14
3.999999999999996
 24
-93.5797424791462049
 34
0.0
 50
0.0
100
AcDbRotatedDimension
  0
DIMENSION
  5
107
100
AcDbEntity
  8
wymiary
 62
256
370
-1
  6
ByLayer
100
AcDbDimension
 10
78.0000000000001279
 20
-98.8864775298308984
 30
0.0
 11
38.5000000000000711
 21
-94.2614775298308984
 31
0.0
 70
0
 71
5
 72
1
 41
1.0
 42
0.0
  1

  3
Standard
100
AcDbAlignedDimension
 13
-0.9999999999999744
 23
-98.8864775298308984
 33
0.0
 14
78.0000000000001279
 24
-98.8864775298308984
 34
0.0
 50
0.0
100
AcDbRotatedDimension
  0
DIMENSION
  5
108
100
AcDbEntity
  8
wymiary
 62
256
370
-1
  6
ByLayer
100
AcDbDimension
 10
95.3917983501117419
 20
-81.0
 30
0.0
 11
90.7667983501117419
 21
-77.0
 31
0.0
 70
0
 71
5
 72
1
 41
1.0
 42
0.0
  1

  3
Standard
100
AcDbAlignedDimension
 13
95.1329332256881202
 23
-73.0
 33
0.0
 14
95.2623657878999239
 24
-81.0
 34
0.0
 50
90.0
100
AcDbRotatedDimension
  0
DIMENSION
  5
109
100
AcDbEntity
  8
wymiary
 62
256
370
-1
  6
ByLayer
100
AcDbDimension
 10
-133.4000000000000057
 20
126.0155425694287317
 30
0.0
 11
-138.5
 21
130.6405425694287317
 31
0.0
 70
0
 71
5
 72
1
 41
1.0
 42
0.0
  1

  3
Standard
100
AcDbAlignedDimension
 13
-143.5999999999999659
 23
135.5
 33
0.0
 14
-133.4000000000000057
 24
135.5
 34
0.0
 50
0.0
100
AcDbRotatedDimension
  0
DIMENSION
  5
10A
100
AcDbEntity
  8
wymiary
 62
256
370
-1
  6
ByLayer
100
AcDbDimension
 10
-133.4000000000000057
 20
155.4019114940036559
 30
0.0
 11
-135.6999999999999886
 21
160.0269114940036559
 31
0.0
 70
0
 71
5
 72
1
 41
1.0
 42
0.0
  1

  3
Standard
100
AcDbAlignedDimension
 13
-138.0
 23
154.1875
 33
0.0
 14
-133.4000000000000057
 24
154.1875
 34
0.0
 50
0.0
100
AcDbRotatedDimension
  0
DIMENSION
  5
10B
100
AcDbEntity
  8
wymiary
 62
256
370
-1
  6
ByLayer
100
AcDbDimension
 10
221.6823290000062343
 20
-23.9999999999999964
 30
0.0
 11
217.0573290000062343
 21
115.25
 31
0.0
 70
0
 71
5
 72
0
 41
1.0
 42
0.0
  1

  3
Standard
100
AcDbAlignedDimension
 13
218.0000000000000284
 23
254.5
 33
0.0
 14
221.2136560000062389
 24
-23.9999999999999964
 34
0.0
 50
90.0
100
AcDbRotatedDimension
  0
DIMENSION
  5
10C
100
AcDbEntity
  8
wymiary
 62
256
370
-1
  6
ByLayer
100
AcDbDimension
 10
221.7235722240063467
 20
287.0
 30
0.0
 11
217.0985722240063467
 21
270.75
 31
0.0
 70
0
 71
5
 72
0
 41
1.0
 42
0.0
  1

  3
Standard
100
AcDbAlignedDimension
 13
221.6823290000062343
 23
254.5
 33
0.0
 14
221.7235722240063467
 24
287.0
 34
0.0
 50
90.0
100
AcDbRotatedDimension
  0
DIMENSION
  5
10D
100
AcDbEntity
  8
wymiary
 62
256
370
-1
  6
ByLayer
100
AcDbDimension
 10
230.938058342406606
 20
295.5
 30
0.0
 11
226.313058342406606
 21
275.0
 31
0.0
 70
0
 71
5
 72
0
 41
1.0
 42
0.0
  1

  3
Standard
100
AcDbAlignedDimension
 13
230.7460898816065935
 23
254.5
 33
0.0
 14
230.938058342406606
 24
295.5
 34
0.0
 50
90.0
100
AcDbRotatedDimension
  0
DIMENSION
  5
10E
100
AcDbEntity
  8
wymiary
 62
256
370
-1
  6
ByLayer
100
AcDbDimension
 10
239.9605760000068528
 20
299.0
 30
0.0
 11
235.3355760000068528
 21
276.75
 31
0.0
 70
0
 71
5
 72
0
 41
1.0
 42
0.0
  1

  3
Standard
100
AcDbAlignedDimension
 13
239.5766390784068562
 23
254.5
 33
0.0
 14
239.5766390784068562
 24
299.0
 34
0.0
 50
90.0
100
AcDbRotatedDimension
  0
DIMENSION
  5
10F
100
AcDbEntity
  8
wymiary
 62
256
370
-1
  6
ByLayer
100
AcDbDimension
 10
250.5188413440071713
 20
295.5
 30
0.0
 11
245.8938413440071713
 21
291.25
 31
0.0
 70
0
 71
5
 72
0
 41
1.0
 42
0.0
  1

  3
Standard
100
AcDbAlignedDimension
 13
250.3268728832071588
 23
287.0
 33
0.0
 14
250.3268728832071588
 24
295.5
 34
0.0
 50
90.0
100
AcDbRotatedDimension
  0
LINE
  5
110
100
AcDbEntity
100
AcDbLine
  8
0
 62
256
370
-1
  6
ByLayer
 10
206.0000000000000284
 20
-24.0000000000000036
 30
0.0
 11
206.0000000000000284
 21
-12.9999999999999947
 31
0.0
  0
LINE
  5
111
100
AcDbEntity
100
AcDbLine
  8
0
 62
256
370
-1
  6
ByLayer
 10
-0.9999999999999685
 20
-13.0
 30
0.0
 11
206.0000000000000284
 21
-12.9999999999999947
 31
0.0
  0
DIMENSION
  5
112
100
AcDbEntity
  8
wymiary
 62
256
370
-1
  6
ByLayer
100
AcDbDimension
 10
-5.279132672000074
 20
164.1875
 30
0.0
 11
-9.9041326720000793
 21
75.59375
 31
0.0
 70
0
 71
5
 72
0
 41
1.0
 42
0.0
  1

  3
Standard
100
AcDbAlignedDimension
 13
-0.9999999999999701
 23
-13.0
 33
0.0
 14
-0.9999999999999871
 24
164.1875
 34
0.0
 50
90.0
100
AcDbRotatedDimension
  0
DIMENSION
  5
113
100
AcDbEntity
  8
wymiary
 62
256
370
-1
  6
ByLayer
100
AcDbDimension
 10
-5.279132672000074
 20
164.1875
 30
0.0
 11
-9.9041326720000704
 21
229.84375
 31
0.0
 70
0
 71
5
 72
0
 41
1.0
 42
0.0
  1

  3
Standard
100
AcDbAlignedDimension
 13
216.0
 23
295.5
 33
0.0
 14
-0.9999999999999867
 24
164.1875
 34
0.0
 50
90.0
100
AcDbRotatedDimension
  0
DIMENSION
  5
114
100
AcDbEntity
  8
wymiary
 62
256
370
-1
  6
ByLayer
100
AcDbDimension
 10
-6.9108645888000977
 20
-161.0
 30
0.0
 11
-11.535864588800095
 21
-119.0
 31
0.0
 70
0
 71
5
 72
1
 41
1.0
 42
0.0
  1

  3
Standard
100
AcDbAlignedDimension
 13
3.9999999999999973
 23
-77.0
 33
0.0
 14
3.9999999999999902
 24
-161.0
 34
0.0
 50
90.0
100
AcDbRotatedDimension
  0
DIMENSION
  5
115
100
AcDbEntity
  8
wymiary
 62
256
370
-1
  6
ByLayer
100
AcDbDimension
 10
-6.9108645888000968
 20
-162.0
 30
0.0
 11
-11.5358645888000986
 21
-204.5
 31
0.0
 70
0
 71
5
 72
1
 41
1.0
 42
0.0
  1

  3
Standard
100
AcDbAlignedDimension
 13
3.9999999999999827
 23
-247.0
 33
0.0
 14
3.9999999999999907
 24
-162.0
 34
0.0
 50
90.0
100
AcDbRotatedDimension
  0
LINE
  5
116
100
AcDbEntity
100
AcDbLine
  8
Stal
 62
256
370
-1
  6
ByLayer
 10
-0.9999999999999784
 20
-161.5
 30
0.0
 11
9.0000000000000213
 21
-161.5
 31
0.0
  0
DIMENSION
  5
117
100
AcDbEntity
  8
wymiary
 62
256
370
-1
  6
ByLayer
100
AcDbDimension
 10
-16.5092876288010757
 20
-161.5
 30
0.0
 11
-21.1342876288010721
 21
-117.25
 31
0.0
 70
0
 71
5
 72
1
 41
1.0
 42
0.0
  1

  3
Standard
100
AcDbAlignedDimension
 13
-0.9999999999999726
 23
-73.0
 33
0.0
 14
-0.9999999999999785
 24
-161.5
 34
0.0
 50
90.0
100
AcDbRotatedDimension
  0
DIMENSION
  5
118
100
AcDbEntity
  8
wymiary
 62
256
370
-1
  6
ByLayer
100
AcDbDimension
 10
-16.5092876288010757
 20
-161.5
 30
0.0
 11
-21.1342876288010793
 21
-206.25
 31
0.0
 70
0
 71
5
 72
1
 41
1.0
 42
0.0
  1

  3
Standard
100
AcDbAlignedDimension
 13
-0.9999999999999845
 23
-251.0
 33
0.0
 14
-0.9999999999999785
 24
-161.5
 34
0.0
 50
90.0
100
AcDbRotatedDimension
  0
LINE
  5
119
100
AcDbEntity
100
AcDbLine
  8
blacha
 62
256
370
-1
  6
ByLayer
 10
-137.8000000000000114
 20
163.9439999999999884
 30
0.0
 11
-128.0
 21
163.9439999999999884
 31
0.0
  0
LINE
  5
11A
100
AcDbEntity
100
AcDbLine
  8
blacha
 62
256
370
-1
  6
ByLayer
 10
-137.8000000000000114
 20
145.3000000000000114
 30
0.0
 11
-137.8000000000000114
 21
163.9439999999999884
 31
0.0
  0
LINE
  5
11B
100
AcDbEntity
100
AcDbLine
  8
blacha
 62
256
370
-1
  6
ByLayer
 10
-143.5
 20
135.9439999999999884
 30
0.0
 11
-143.5
 21
145.3000000000000114
 31
0.0
  0
LINE
  5
11C
100
AcDbEntity
100
AcDbLine
  8
blacha
 62
256
370
-1
  6
ByLayer
 10
-143.5
 20
145.3000000000000114
 30
0.0
 11
-137.8000000000000114
 21
145.3000000000000114
 31
0.0
  0
LINE
  5
11D
100
AcDbEntity
100
AcDbLine
  8
blacha
 62
256
370
-1
  6
ByLayer
 10
-143.5
 20
135.9439999999999884
 30
0.0
 11
-132.4774316612280245
 21
135.9439999999999884
 31
0.0
  0
LINE
  5
11E
100
AcDbEntity
100
AcDbLine
  8
blacha
 62
256
370
-1
  6
ByLayer
 10
-128.0
 20
140.4214316612280129
 30
0.0
 11
-128.0
 21
163.9439999999999884
 31
0.0
  0
LINE
  5
11F
100
AcDbEntity
100
AcDbLine
  8
blacha
 62
256
370
-1
  6
ByLayer
 10
-132.4774316612280245
 20
135.9439999999999884
 30
0.0
 11
-128.0
 21
140.4214316612280129
 31
0.0
  0
DIMENSION
  5
120
100
AcDbEntity
  8
blacha
 62
256
370
-1
  6
ByLayer
100
AcDbDimension
 10
-132.4774316612280245
 20
126.9879046930655448
 30
0.0
 11
-137.9887158306140122
 21
131.6129046930655591
 31
0.0
 70
0
 71
5
 72
0
 41
1.0
 42
0.0
  1

  3
Standard
100
AcDbAlignedDimension
 13
-143.5
 23
135.9439999999999884
 33
0.0
 14
-132.4774316612280245
 24
135.9439999999999884
 34
0.0
 50
0.0
100
AcDbRotatedDimension
  0
DIMENSION
  5
121
100
AcDbEntity
  8
blacha
 62
256
370
-1
  6
ByLayer
100
AcDbDimension
 10
-143.5
 20
145.3000000000000114
 30
0.0
 11
-140.6500000000000057
 21
149.9250000000000114
 31
0.0
 70
0
 71
5
 72
0
 41
1.0
 42
0.0
  1

  3
Standard
100
AcDbAlignedDimension
 13
-137.8000000000000114
 23
145.3000000000000114
 33
0.0
 14
-143.5
 24
145.3000000000000114
 34
0.0
 50
0.0
100
AcDbRotatedDimension
  0
LINE
  5
122
100
AcDbEntity
100
AcDbLine
  8
blacha
 62
256
370
-1
  6
DASHED
 10
249.8000000000000398
 20
-0.9999999999999971
 30
0.0
 11
249.8000000000000398
 21
254.5
 31
0.0
  0
DIMENSION
  5
123
100
AcDbEntity
  8
wymiary
 62
256
370
-1
  6
ByLayer
100
AcDbDimension
 10
78.5000000000001421
 20
-153.2781759856469534
 30
0.0
 11
79.3500000000001364
 21
-148.6531759856469534
 31
0.0
 70
0
 71
5
 72
1
 41
1.0
 42
0.0
  1

  3
Standard
100
AcDbAlignedDimension
 13
80.2000000000001307
 23
-155.5
 33
0.0
 14
78.5000000000001421
 24
-155.5354450664319756
 34
0.0
 50
0.0
100
AcDbRotatedDimension
  0
LINE
  5
124
100
AcDbEntity
100
AcDbLine
  8
Stal
 62
256
370
-1
  6
ByLayer
 10
217.8000000000000966
 20
-160.5
 30
0.0
 11
217.8000000000000966
 21
-156.5
 31
0.0
  0
LINE
  5
125
100
AcDbEntity
100
AcDbLine
  8
Stal
 62
256
370
-1
  6
ByLayer
 10
80.2000000000001307
 20
-156.0
 30
0.0
 11
80.7000000000001307
 21
-156.0
 31
0.0
  0
LINE
  5
126
100
AcDbEntity
100
AcDbLine
  8
Stal
 62
256
370
-1
  6
ByLayer
 10
80.2000000000001307
 20
-161.0
 30
0.0
 11
80.2000000000001307
 21
-156.0
 31
0.0
  0
LINE
  5
127
100
AcDbEntity
100
AcDbLine
  8
Stal
 62
256
370
-1
  6
ByLayer
 10
80.7000000000001307
 20
-161.0
 30
0.0
 11
80.7000000000001307
 21
-156.0
 31
0.0
  0
LINE
  5
128
100
AcDbEntity
100
AcDbLine
  8
Stal
 62
256
370
-1
  6
ByLayer
 10
80.2000000000001307
 20
-161.0
 30
0.0
 11
80.7000000000001307
 21
-161.0
 31
0.0
  0
LINE
  5
129
100
AcDbEntity
100
AcDbLine
  8
Stal
 62
256
370
-1
  6
ByLayer
 10
80.7000000000001307
 20
-156.5
 30
0.0
 11
217.8000000000000966
 21
-156.5
 31
0.0
  0
LINE
  5
12A
100
AcDbEntity
100
AcDbLine
  8
Stal
 62
256
370
-1
  6
ByLayer
 10
80.7000000000001307
 20
-160.5
 30
0.0
 11
217.8000000000000966
 21
-160.5
 31
0.0
  0
LINE
  5
12B
100
AcDbEntity
100
AcDbLine
  8
Stal
 62
256
370
-1
  6
ByLayer
 10
239.9527951951590694
 20
-167.5
 30
0.0
 11
239.9527951951590694
 21
-163.5
 31
0.0
  0
LINE
  5
12C
100
AcDbEntity
100
AcDbLine
  8
Stal
 62
256
370
-1
  6
ByLayer
 10
78.0000000000001421
 20
-163.5
 30
0.0
 11
239.9527951951590694
 21
-163.5
 31
0.0
  0
LINE
  5
12D
100
AcDbEntity
100
AcDbLine
  8
Stal
 62
256
370
-1
  6
ByLayer
 10
78.0000000000001421
 20
-167.5
 30
0.0
 11
239.9527951951590694
 21
-167.5
 31
0.0
  0
LINE
  5
12E
100
AcDbEntity
100
AcDbLine
  8
blacha
 62
256
370
-1
  6
DASHED
 10
-135.5
 20
154.1875
 30
0.0
 11
-135.5
 21
164.1875
 31
0.0
  0
DIMENSION
  5
12F
100
AcDbEntity
  8
blacha
 62
256
370
-1
  6
DASHED
100
AcDbDimension
 10
-135.5
 20
168.8918292866551099
 30
0.0
 11
-136.6500000000000057
 21
172.3918292866551099
 31
0.0
 70
0
 71
5
 72
1
 41
1.0
 42
0.0
  1

  3
Standard
100
AcDbAlignedDimension
 13
-137.8000000000000114
 23
163.9439999999999884
 33
0.0
 14
-135.5
 24
163.9439999999999884
 34
0.0
 50
0.0
100
AcDbRotatedDimension
  0
DIMENSION
  5
130
100
AcDbEntity
  8
blacha
 62
256
370
-1
  6
DASHED
100
AcDbDimension
 10
-153.0706784671363607
 20
145.3000000000000114
 30
0.0
 11
-156.5706784671363607
 21
140.6220000000000141
 31
0.0
 70
0
 71
5
 72
1
 41
1.0
 42
0.0
  1

  3
Standard
100
AcDbAlignedDimension
 13
-135.5
 23
135.9439999999999884
 33
0.0
 14
-135.5
 24
145.3000000000000114
 34
0.0
 50
90.0
100
AcDbRotatedDimension
  0
DIMENSION
  5
131
100
AcDbEntity
  8
wymiary
 62
256
370
-1
  6
ByLayer
100
AcDbDimension
 10
102.3219316862913502
 20
-160.5
 30
0.0
 11
98.8219316862913502
 21
-116.75
 31
0.0
 70
0
 71
5
 72
1
 41
1.0
 42
0.0
  1

  3
Standard
100
AcDbAlignedDimension
 13
102.3167431651077806
 23
-73.0
 33
0.0
 14
102.3219316862913502
 24
-160.5
 34
0.0
 50
90.0
100
AcDbRotatedDimension
  0
DIMENSION
  5
132
100
AcDbEntity
  8
wymiary
 62
256
370
-1
  6
ByLayer
100
AcDbDimension
 10
102.3219316862913502
 20
-163.5
 30
0.0
 11
98.8219316862913502
 21
-207.25
 31
0.0
 70
0
 71
5
 72
1
 41
1.0
 42
0.0
  1

  3
Standard
100
AcDbAlignedDimension
 13
102.3866316508764243
 23
-251.0
 33
0.0
 14
102.3866316508764243
 24
-163.5
 34
0.0
 50
90.0
100
AcDbRotatedDimension
  0
LINE
  5
133
100
AcDbEntity
100
AcDbLine
  8
wymiary
 62
256
370
-1
  6
DASHED
 10
78.0000000000001137
 20
-24.0
 30
0.0
 11
78.0000000000001137
 21
140.5000000000001421
 31
0.0
  0
DIMENSION
  5
134
100
AcDbEntity
  8
wymiary
 62
256
370
-1
  6
ByLayer
100
AcDbDimension
 10
-0.9999999999999712
 20
4.0004365371305486
 30
0.0
 11
38.5000000000000711
 21
7.5004365371305486
 31
0.0
 70
0
 71
5
 72
0
 41
1.0
 42
0.0
  1

  3
Standard
100
AcDbAlignedDimension
 13
78.0000000000001137
 23
0.0
 33
0.0
 14
-0.9999999999999715
 24
-0.0000000000000036
 34
0.0
 50
0.0
100
AcDbRotatedDimension
  0
DIMENSION
  5
135
100
AcDbEntity
  8
wymiary
 62
256
370
-1
  6
ByLayer
100
AcDbDimension
 10
239.9527951951590694
 20
4.0004365371305433
 30
0.0
 11
158.9763975975795915
 21
7.5004365371305433
 31
0.0
 70
0
 71
5
 72
0
 41
1.0
 42
0.0
  1

  3
Standard
100
AcDbAlignedDimension
 13
78.0000000000001279
 23
0.0000000000000011
 33
0.0
 14
239.9527951951590694
 24
0.1999999999999993
 34
0.0
 50
0.0
100
AcDbRotatedDimension
  0
LINE
  5
136
100
AcDbEntity
100
AcDbLine
  8
blacha
 62
256
370
-1
  6
ByLayer
 10
78.0000000000001279
 20
-166.6999999999999886
 30
0.0
 11
78.5000000000001137
 21
-166.6999999999999886
 31
0.0
  0
LINE
  5
137
100
AcDbEntity
100
AcDbLine
  8
blacha
 62
256
370
-1
  6
ByLayer
 10
78.9000000000001194
 20
-168.0999999999999943
 30
0.0
 11
78.9000000000001336
 21
-162.9000000000000057
 31
0.0
  0
LINE
  5
138
100
AcDbEntity
100
AcDbLine
  8
blacha
 62
256
370
-1
  6
ByLayer
 10
78.9000000000001336
 20
-162.9000000000000057
 30
0.0
 11
83.5000000000001279
 21
-162.9000000000000057
 31
0.0
  0
LINE
  5
139
100
AcDbEntity
100
AcDbLine
  8
blacha
 62
256
370
-1
  6
ByLayer
 10
78.5000000000001137
 20
-168.5
 30
0.0
 11
83.5000000000001279
 21
-168.5
 31
0.0
  0
LINE
  5
13A
100
AcDbEntity
100
AcDbLine
  8
blacha
 62
256
370
-1
  6
ByLayer
 10
78.9000000000001194
 20
-168.0999999999999943
 30
0.0
 11
83.5000000000001279
 21
-168.0999999999999943
 31
0.0
  0
LINE
  5
13B
100
AcDbEntity
100
AcDbLine
  8
blacha
 62
256
370
-1
  6
ByLayer
 10
83.5000000000001279
 20
-168.5
 30
0.0
 11
83.5000000000001279
 21
-168.0999999999999943
 31
0.0
  0
LINE
  5
13C
100
AcDbEntity
100
AcDbLine
  8
blacha
 62
256
370
-1
  6
ByLayer
 10
78.5000000000001279
 20
-162.5
 30
0.0
 11
83.5000000000001279
 21
-162.5
 31
0.0
  0
LINE
  5
13D
100
AcDbEntity
100
AcDbLine
  8
blacha
 62
256
370
-1
  6
ByLayer
 10
83.5000000000001279
 20
-162.9000000000000057
 30
0.0
 11
83.5000000000001279
 21
-162.5
 31
0.0
  0
LINE
  5
13E
100
AcDbEntity
100
AcDbLine
  8
blacha
 62
256
370
-1
  6
ByLayer
 10
78.0000000000001279
 20
-161.0
 30
0.0
 11
78.5000000000001279
 21
-161.0
 31
0.0
  0
LINE
  5
13F
100
AcDbEntity
100
AcDbLine
  8
blacha
 62
256
370
-1
  6
ByLayer
 10
78.5000000000001137
 20
-168.5
 30
0.0
 11
78.5000000000001421
 21
-151.1999999999999886
 31
0.0
  0
LINE
  5
140
100
AcDbEntity
100
AcDbLine
  8
blacha
 62
256
370
-1
  6
ByLayer
 10
78.0000000000001279
 20
-151.1999999999999886
 30
0.0
 11
78.5000000000001421
 21
-151.1999999999999886
 31
0.0
  0
LINE
  5
141
100
AcDbEntity
100
AcDbLine
  8
blacha
 62
256
370
-1
  6
ByLayer
 10
78.9000000000001194
 20
-168.5
 30
0.0
 11
78.9000000000001478
 21
-151.1999999999999886
 31
0.0
  0
LINE
  5
142
100
AcDbEntity
100
AcDbLine
  8
blacha
 62
256
370
-1
  6
ByLayer
 10
82.5000000000001137
 20
-168.5
 30
0.0
 11
82.5000000000001421
 21
-151.1999999999999886
 31
0.0
  0
LINE
  5
143
100
AcDbEntity
100
AcDbLine
  8
blacha
 62
256
370
-1
  6
ByLayer
 10
78.8000000000000682
 20
154.3875000000001307
 30
0.0
 11
78.8000000000000398
 21
163.9875000000000114
 31
0.0
  0
LINE
  5
144
100
AcDbEntity
100
AcDbLine
  8
blacha
 62
256
370
-1
  6
ByLayer
 10
78.4000000000000483
 20
163.9875000000000114
 30
0.0
 11
78.8000000000000398
 21
163.9875000000000114
 31
0.0
  0
LINE
  5
145
100
AcDbEntity
100
AcDbLine
  8
blacha
 62
256
370
-1
  6
ByLayer
 10
78.8000000000000682
 20
154.3875000000001307
 30
0.0
 11
78.4000000000000625
 21
154.3875000000001307
 31
0.0
  0
CIRCLE
  5
146
100
AcDbEntity
100
AcDbCircle
  8
blacha
 62
256
370
-1
  6
ByLayer
 10
80.4499999999999886
 20
159.1875000000000568
 30
0.0
 40
0.8
  0
CIRCLE
  5
147
100
AcDbEntity
100
AcDbCircle
  8
Stal
 62
256
370
-1
  6
ByLayer
 10
80.4499999999999886
 20
159.1875000000000568
 30
0.0
 40
1.1000000000000001
  0
LINE
  5
148
100
AcDbEntity
100
AcDbLine
  8
blacha
 62
256
370
-1
  6
ByLayer
 10
118.5547109460133299
 20
153.6560274813225249
 30
0.0
 11
118.5547109460133157
 21
163.2560274813224055
 31
0.0
  0
LINE
  5
149
100
AcDbEntity
100
AcDbLine
  8
blacha
 62
256
370
-1
  6
ByLayer
 10
118.5547109460133299
 20
153.6560274813225249
 30
0.0
 11
118.1547109460133242
 21
153.6560274813225249
 31
0.0
  0
CIRCLE
  5
14A
100
AcDbEntity
100
AcDbCircle
  8
blacha
 62
256
370
-1
  6
ByLayer
 10
120.8547109460133129
 20
161.1023006446742443
 30
0.0
 40
0.8
  0
CIRCLE
  5
14B
100
AcDbEntity
100
AcDbCircle
  8
Stal
 62
256
370
-1
  6
ByLayer
 10
120.8547109460133129
 20
161.1023006446742443
 30
0.0
 40
1.1000000000000001
  0
LINE
  5
14C
100
AcDbEntity
100
AcDbLine
  8
blacha
 62
256
370
-1
  6
ByLayer
 10
118.1547109460132816
 20
163.2560274813224055
 30
0.0
 11
121.6193717277327551
 21
163.2560274813224055
 31
0.0
  0
LINE
  5
14D
100
AcDbEntity
100
AcDbLine
  8
blacha
 62
256
370
-1
  6
ByLayer
 10
123.1547109460132958
 20
162.0085643664694715
 30
0.0
 11
121.6193717277327551
 21
163.2560274813224055
 31
0.0
  0
LINE
  5
14E
100
AcDbEntity
100
AcDbLine
  8
blacha
 62
256
370
-1
  6
ByLayer
 10
123.15471094601331
 20
157.8935274813224794
 30
0.0
 11
123.1547109460132958
 21
162.0085643664694715
 31
0.0
  0
LINE
  5
14F
100
AcDbEntity
100
AcDbLine
  8
blacha
 62
256
370
-1
  6
ByLayer
 10
123.15471094601331
 20
157.8935274813224794
 30
0.0
 11
118.5547109460133015
 21
154.1560274813224964
 31
0.0
  0
LINE
  5
150
100
AcDbEntity
100
AcDbLine
  8
blacha
 62
256
370
-1
  6
ByLayer
 10
2.0000000000000142
 20
145.3000000000000114
 30
0.0
 11
80.0000000000000853
 21
145.3000000000000114
 31
0.0
  0
LINE
  5
151
100
AcDbEntity
100
AcDbLine
  8
blacha
 62
256
370
-1
  6
ByLayer
 10
78.8000000000001251
 20
135.7000000000001307
 30
0.0
 11
78.8000000000000966
 21
145.3000000000000114
 31
0.0
  0
LINE
  5
152
100
AcDbEntity
100
AcDbLine
  8
blacha
 62
256
370
-1
  6
ByLayer
 10
78.4000000000001052
 20
145.3000000000000114
 30
0.0
 11
78.8000000000000966
 21
145.3000000000000114
 31
0.0
  0
LINE
  5
153
100
AcDbEntity
100
AcDbLine
  8
blacha
 62
256
370
-1
  6
ByLayer
 10
78.8000000000001251
 20
135.7000000000001307
 30
0.0
 11
78.4000000000001194
 21
135.7000000000001307
 31
0.0
  0
LINE
  5
154
100
AcDbEntity
100
AcDbLine
  8
Stal
 62
256
370
-1
  6
ByLayer
 10
80.4500000000000455
 20
128.8218750000001194
 30
0.0
 11
238.75384615384678
 21
0.1999999999999886
 31
0.0
  0
LINE
  5
155
100
AcDbEntity
100
AcDbLine
  8
blacha
 62
256
370
-1
  6
ByLayer
 10
82.5
 20
142.2937500000001023
 30
0.0
 11
78.8000000000000966
 21
145.3000000000000114
 31
0.0
  0
LINE
  5
156
100
AcDbEntity
100
AcDbLine
  8
blacha
 62
256
370
-1
  6
ByLayer
 10
82.5
 20
138.7062500000000114
 30
0.0
 11
78.8000000000000966
 21
135.7000000000001023
 31
0.0
  0
LINE
  5
157
100
AcDbEntity
100
AcDbLine
  8
blacha
 62
256
370
-1
  6
ByLayer
 10
82.5
 20
138.7062500000000114
 30
0.0
 11
82.5
 21
142.2937500000001023
 31
0.0
  0
LINE
  5
158
100
AcDbEntity
100
AcDbLine
  8
Stal
 62
256
370
-1
  6
ByLayer
 10
80.1999999999999886
 20
160.2587142642814797
 30
0.0
 11
80.2000000000000455
 21
183.8116460960662266
 31
0.0
  0
LINE
  5
159
100
AcDbEntity
100
AcDbLine
  8
Stal
 62
256
370
-1
  6
ByLayer
 10
80.6999999999999886
 20
160.2587142642814797
 30
0.0
 11
80.7000000000000455
 21
183.8116460960662266
 31
0.0
  0
LINE
  5
15A
100
AcDbEntity
100
AcDbLine
  8
blacha
 62
256
370
-1
  6
ByLayer
 10
82.4999999999999432
 20
160.9812500000001023
 30
0.0
 11
78.8000000000000398
 21
163.9875000000000114
 31
0.0
  0
LINE
  5
15B
100
AcDbEntity
100
AcDbLine
  8
blacha
 62
256
370
-1
  6
ByLayer
 10
82.4999999999999432
 20
157.3937500000000114
 30
0.0
 11
78.8000000000000398
 21
154.3875000000001023
 31
0.0
  0
LINE
  5
15C
100
AcDbEntity
100
AcDbLine
  8
blacha
 62
256
370
-1
  6
ByLayer
 10
82.4999999999999432
 20
157.3937500000000114
 30
0.0
 11
82.4999999999999432
 21
160.9812500000001023
 31
0.0
  0
LINE
  5
15D
100
AcDbEntity
100
AcDbLine
  8
Stal
 62
256
370
-1
  6
ByLayer
 10
80.4500000000000455
 20
143.8772710960663233
 30
0.0
 11
80.9500000000000313
 21
143.8772710960663233
 31
0.0
  0
LINE
  5
15E
100
AcDbEntity
100
AcDbLine
  8
Stal
 62
256
370
-1
  6
ByLayer
 10
80.9500000000000313
 20
143.8772710960663233
 30
0.0
 11
239.9527951951590694
 21
14.6874999999999716
 31
0.0
  0
DIMENSION
  5
15F
100
AcDbEntity
  8
blacha
 62
256
370
-1
  6
ByLayer
100
AcDbDimension
 10
101.713920017361616
 20
154.3875000000001307
 30
0.0
 11
98.213920017361616
 21
159.1875000000000568
 31
0.0
 70
0
 71
5
 72
0
 41
1.0
 42
0.0
  1

  3
Standard
100
AcDbAlignedDimension
 13
78.8000000000000398
 23
163.9875000000000114
 33
0.0
 14
78.8000000000000682
 24
154.3875000000001307
 34
0.0
 50
90.0
100
AcDbRotatedDimension
  0
DIMENSION
  5
160
100
AcDbEntity
  8
blacha
 62
256
370
-1
  6
ByLayer
100
AcDbDimension
 10
91.2680376767480226
 20
160.9812500000001023
 30
0.0
 11
87.7680376767480226
 21
162.4843750000000568
 31
0.0
 70
0
 71
5
 72
0
 41
1.0
 42
0.0
  1

  3
Standard
100
AcDbAlignedDimension
 13
78.8000000000000398
 23
163.9875000000000114
 33
0.0
 14
82.4999999999999432
 24
160.9812500000001023
 34
0.0
 50
90.0
100
AcDbRotatedDimension
  0
LINE
  5
161
100
AcDbEntity
100
AcDbLine
  8
blacha
 62
256
370
-1
  6
ByLayer
 10
82.8000000000001251
 20
135.5000000000001705
 30
0.0
 11
82.8000000000000398
 21
164.1875000000001421
 31
0.0
  0
LINE
  5
162
100
AcDbEntity
100
AcDbLine
  8
blacha
 62
256
370
-1
  6
ByLayer
 10
81.0500000000000398
 20
128.8218750000001194
 30
0.0
 11
81.0500000000000398
 21
143.8772710960663233
 31
0.0
  0
CIRCLE
  5
163
100
AcDbEntity
100
AcDbCircle
  8
blacha
 62
256
370
-1
  6
ByLayer
 10
80.550000000000054
 20
140.5000000000000568
 30
0.0
 40
0.8
  0
CIRCLE
  5
164
100
AcDbEntity
100
AcDbCircle
  8
Stal
 62
256
370
-1
  6
ByLayer
 10
80.550000000000054
 20
140.5000000000000568
 30
0.0
 40
1.1000000000000001
  0
LINE
  5
165
100
AcDbEntity
100
AcDbLine
  8
Stal
 62
256
370
-1
  6
ByLayer
 10
80.550000000000054
 20
128.8218750000001194
 30
0.0
 11
80.550000000000054
 21
143.8772710960663233
 31
0.0
  0
LINE
  5
166
100
AcDbEntity
100
AcDbLine
  8
Stal
 62
256
370
-1
  6
ByLayer
 10
81.050000000000054
 20
128.8218750000001194
 30
0.0
 11
81.050000000000054
 21
143.8772710960663233
 31
0.0
  0
LINE
  5
167
100
AcDbEntity
100
AcDbLine
  8
blacha
 62
256
370
-1
  6
ByLayer
 10
82.7000000000000028
 20
138.7062500000000114
 30
0.0
 11
82.7000000000000028
 21
142.2937500000001023
 31
0.0
  0
ENDSEC
  0
SECTION
  2
OBJECTS
  0
DICTIONARY
  5
C
100
AcDbDictionary
280
0
281
1
  3
ACAD_GROUP
350
D
  3
ACAD_LAYOUT
350
1A
  3
ACAD_MLINESTYLE
350
17
  3
ACAD_PLOTSETTINGS
350
19
  3
ACAD_PLOTSTYLENAME
350
E
  3
AcDbVariableDictionary
350
168
  0
DICTIONARY
  5
D
100
AcDbDictionary
280
0
281
1
  0
ACDBDICTIONARYWDFLT
  5
E
100
AcDbDictionary
281
1
  3
Normal
350
F
100
AcDbDictionaryWithDefault
340
F
  0
ACDBPLACEHOLDER
  5
F
  0
DICTIONARY
  5
17
100
AcDbDictionary
280
0
281
1
  3
Standard
350
18
  0
MLINESTYLE
  5
18
100
AcDbMlineStyle
  2
STANDARD
 70
0
  3

 62
256
 51
90.0
 52
90.0
 71
2
 49
0.5
 62
256
  6
BYLAYER
 49
-0.5
 62
256
  6
BYLAYER
  0
DICTIONARY
  5
19
100
AcDbDictionary
280
0
281
1
  0
DICTIONARY
  5
1A
100
AcDbDictionary
281
1
  3
Layout1
350
1E
  3
Layout2
350
26
  3
Model
350
22
  0
LAYOUT
  5
1E
100
AcDbPlotSettings
  1

  2
C:\Program Files\AutoCAD 2002\plotters\DWF ePlot (optimized for plotting).pc3
  4

  6

 40
0.0
 41
0.0
 42
0.0
 43
0.0
 44
0.0
 45
0.0
 46
0.0
 47
0.0
 48
0.0
 49
0.0
140
0.0
141
0.0
142
1.0
143
1.0
 70
688
 72
0
 73
0
 74
5
  7

 75
16
147
1.0
148
0.0
149
0.0
100
AcDbLayout
  1
Layout1
 70
1
 71
1
 10
0.0
 20
0.0
 11
420.0
 21
297.0
 12
0.0
 22
0.0
 32
0.0
 14
100000000000000000000.0
 24
100000000000000000000.0
 34
100000000000000000000.0
 15
-100000000000000000000.0
 25
-100000000000000000000.0
 35
-100000000000000000000.0
146
0.0
 13
0.0
 23
0.0
 33
0.0
 16
1.0
 26
0.0
 36
0.0
 17
0.0
 27
1.0
 37
0.0
 76
0
330
1B
  0
LAYOUT
  5
22
100
AcDbPlotSettings
  1

  2
C:\Program Files\AutoCAD 2002\plotters\DWF ePlot (optimized for plotting).pc3
  4

  6

 40
0.0
 41
0.0
 42
0.0
 43
0.0
 44
0.0
 45
0.0
 46
0.0
 47
0.0
 48
0.0
 49
0.0
140
0.0
141
0.0
142
1.0
143
1.0
 70
1712
 72
0
 73
0
 74
0
  7

 75
0
147
1.0
148
0.0
149
0.0
100
AcDbLayout
  1
Model
 70
1
 71
0
 10
0.0
 20
0.0
 11
12.0
 21
9.0
 12
0.0
 22
0.0
 32
0.0
 14
0.0
 24
0.0
 34
0.0
 15
0.0
 25
0.0
 35
0.0
146
0.0
 13
0.0
 23
0.0
 33
0.0
 16
1.0
 26
0.0
 36
0.0
 17
0.0
 27
1.0
 37
0.0
 76
0
330
1F
  0
LAYOUT
  5
26
100
AcDbPlotSettings
  1

  2
C:\Program Files\AutoCAD 2002\plotters\DWF ePlot (optimized for plotting).pc3
  4

  6

 40
0.0
 41
0.0
 42
0.0
 43
0.0
 44
0.0
 45
0.0
 46
0.0
 47
0.0
 48
0.0
 49
0.0
140
0.0
141
0.0
142
1.0
143
1.0
 70
688
 72
0
 73
0
 74
5
  7

 75
16
147
1.0
148
0.0
149
0.0
100
AcDbLayout
  1
Layout2
 70
1
 71
2
 10
0.0
 20
0.0
 11
12.0
 21
9.0
 12
0.0
 22
0.0
 32
0.0
 14
0.0
 24
0.0
 34
0.0
 15
0.0
 25
0.0
 35
0.0
146
0.0
 13
0.0
 23
0.0
 33
0.0
 16
1.0
 26
0.0
 36
0.0
 17
0.0
 27
1.0
 37
0.0
 76
0
330
23
  0
DICTIONARY
  5
168
100
AcDbDictionary
281
1
  3
DIMASSOC
350
16A
  3
HIDETEXT
350
169
  0
DICTIONARYVAR
  5
169
100
DictionaryVariables
280
0
  1
2
  0
DICTIONARYVAR
  5
16A
100
DictionaryVariables
280
0
  1
1
  0
ENDSEC
  0
EOF
