999
dxflib 2.2.0.0
  0
SECTION
  2
HEADER
  9
$ACADVER
  1
AC1015
  9
$HANDSEED
  5
FFFF
  9
$SPLINESEGS
 70
8
  9
$DIMEXE
 40
1.25
  9
$DIMLUNIT
 70
2
  9
$GRIDMODE
 70
0
  9
$INSUNITS
 70
4
  9
$DIMADEC
 70
2
  9
$DIMASZ
 40
5.0
  9
$DIMGAP
 40
0.625
  9
$DIMTXT
 40
8.0
  9
$GRIDUNIT
 10
0.0
 20
0.0
  9
$DIMEXO
 40
0.625
  9
$LUPREC
 70
4
  9
$DIMAUNIT
 70
0
  9
$AUPREC
 70
2
  9
$PLIMMIN
 10
0.0
 20
0.0
  9
$LUNITS
 70
2
  9
$PLIMMAX
 10
210.0
 20
297.0
  9
$DIMSTYLE
  2
Standard
  9
$AUNITS
 70
0
  0
ENDSEC
  0
SECTION
  2
TABLES
  0
TABLE
  2
VPORT
  5
8
100
AcDbSymbolTable
 70
1
  0
VPORT
  5
30
100
AcDbSymbolTableRecord
100
AcDbViewportTableRecord
  2
*Active
 70
0
 10
0.0
 20
0.0
 11
1.0
 21
1.0
 12
286.3055555555554861
 22
148.5
 13
0.0
 23
0.0
 14
10.0
 24
10.0
 15
10.0
 25
10.0
 16
0.0
 26
0.0
 36
1.0
 17
0.0
 27
0.0
 37
0.0
 40
297.0
 41
1.92798353909465
 42
50.0
 43
0.0
 44
0.0
 50
0.0
 51
0.0
 71
0
 72
100
 73
1
 74
3
 75
1
 76
1
 77
0
 78
0
281
0
 65
1
110
0.0
120
0.0
130
0.0
111
1.0
121
0.0
131
0.0
112
0.0
122
1.0
132
0.0
 79
0
146
0.0
  0
ENDTAB
  0
TABLE
  2
LTYPE
  5
5
100
AcDbSymbolTable
 70
21
  0
LTYPE
  5
14
100
AcDbSymbolTableRecord
100
AcDbLinetypeTableRecord
  2
ByBlock
 70
0
  3

 72
65
 73
0
 40
0.0
  0
LTYPE
  5
15
100
AcDbSymbolTableRecord
100
AcDbLinetypeTableRecord
  2
ByLayer
 70
0
  3

 72
65
 73
0
 40
0.0
  0
LTYPE
  5
16
100
AcDbSymbolTableRecord
100
AcDbLinetypeTableRecord
  2
CONTINUOUS
 70
0
  3
Solid line
 72
65
 73
0
 40
0.0
  0
LTYPE
  5
31
100
AcDbSymbolTableRecord
100
AcDbLinetypeTableRecord
  2
DOT
 70
0
  3
Dot . . . . . . . . . . . . . . . . . . . . . .
 72
65
 73
2
 40
6.3499999999999996
 49
0.0
 74
0
 49
-6.3499999999999996
 74
0
  0
LTYPE
  5
32
100
AcDbSymbolTableRecord
100
AcDbLinetypeTableRecord
  2
DOT2
 70
0
  3
Dot (.5x) .....................................
 72
65
 73
2
 40
3.1749999999999998
 49
0.0
 74
0
 49
-3.1749999999999998
 74
0
  0
LTYPE
  5
33
100
AcDbSymbolTableRecord
100
AcDbLinetypeTableRecord
  2
DOTX2
 70
0
  3
Dot (2x) .  .  .  .  .  .  .  .  .  .  .  .  .
 72
65
 73
2
 40
12.6999999999999993
 49
0.0
 74
0
 49
-12.6999999999999993
 74
0
  0
LTYPE
  5
34
100
AcDbSymbolTableRecord
100
AcDbLinetypeTableRecord
  2
DASHED
 70
0
  3
Dashed __ __ __ __ __ __ __ __ __ __ __ __ __ _
 72
65
 73
2
 40
19.0500000000000007
 49
12.6999999999999993
 74
0
 49
-6.3499999999999996
 74
0
  0
LTYPE
  5
35
100
AcDbSymbolTableRecord
100
AcDbLinetypeTableRecord
  2
DASHED2
 70
0
  3
Dashed (.5x) _ _ _ _ _ _ _ _ _ _ _ _ _ _ _ _ _
 72
65
 73
2
 40
9.5250000000000004
 49
6.3499999999999996
 74
0
 49
-3.1749999999999998
 74
0
  0
LTYPE
  5
36
100
AcDbSymbolTableRecord
100
AcDbLinetypeTableRecord
  2
DASHEDX2
 70
0
  3
Dashed (2x) ____  ____  ____  ____  ____  ___
 72
65
 73
2
 40
38.1000000000000014
 49
25.3999999999999986
 74
0
 49
-12.6999999999999993
 74
0
  0
LTYPE
  5
37
100
AcDbSymbolTableRecord
100
AcDbLinetypeTableRecord
  2
DASHDOT
 70
0
  3
Dash dot __ . __ . __ . __ . __ . __ . __ . __
 72
65
 73
4
 40
25.3999999999999986
 49
12.6999999999999993
 74
0
 49
-6.3499999999999996
 74
0
 49
0.0
 74
0
 49
-6.3499999999999996
 74
0
  0
LTYPE
  5
38
100
AcDbSymbolTableRecord
100
AcDbLinetypeTableRecord
  2
DASHDOT2
 70
0
  3
Dash dot (.5x) _._._._._._._._._._._._._._._.
 72
65
 73
4
 40
12.6999999999999993
 49
6.3499999999999996
 74
0
 49
-3.1749999999999998
 74
0
 49
0.0
 74
0
 49
-3.1749999999999998
 74
0
  0
LTYPE
  5
39
100
AcDbSymbolTableRecord
100
AcDbLinetypeTableRecord
  2
DASHDOTX2
 70
0
  3
Dash dot (2x) ____  .  ____  .  ____  .  ___
 72
65
 73
4
 40
50.7999999999999972
 49
25.3999999999999986
 74
0
 49
-12.6999999999999993
 74
0
 49
0.0
 74
0
 49
-12.6999999999999993
 74
0
  0
LTYPE
  5
3A
100
AcDbSymbolTableRecord
100
AcDbLinetypeTableRecord
  2
DIVIDE
 70
0
  3
Divide ____ . . ____ . . ____ . . ____ . . ____
 72
65
 73
6
 40
31.75
 49
12.6999999999999993
 74
0
 49
-6.3499999999999996
 74
0
 49
0.0
 74
0
 49
-6.3499999999999996
 74
0
 49
0.0
 74
0
 49
-6.3499999999999996
 74
0
  0
LTYPE
  5
3B
100
AcDbSymbolTableRecord
100
AcDbLinetypeTableRecord
  2
DIVIDE2
 70
0
  3
Divide (.5x) __..__..__..__..__..__..__..__.._
 72
65
 73
6
 40
15.875
 49
6.3499999999999996
 74
0
 49
-3.1749999999999998
 74
0
 49
0.0
 74
0
 49
-3.1749999999999998
 74
0
 49
0.0
 74
0
 49
-3.1749999999999998
 74
0
  0
LTYPE
  5
3C
100
AcDbSymbolTableRecord
100
AcDbLinetypeTableRecord
  2
DIVIDEX2
 70
0
  3
Divide (2x) ________  .  .  ________  .  .  _
 72
65
 73
6
 40
63.5
 49
25.3999999999999986
 74
0
 49
-12.6999999999999993
 74
0
 49
0.0
 74
0
 49
-12.6999999999999993
 74
0
 49
0.0
 74
0
 49
-12.6999999999999993
 74
0
  0
LTYPE
  5
3D
100
AcDbSymbolTableRecord
100
AcDbLinetypeTableRecord
  2
CENTER
 70
0
  3
Center ____ _ ____ _ ____ _ ____ _ ____ _ ____
 72
65
 73
4
 40
50.7999999999999972
 49
31.75
 74
0
 49
-6.3499999999999996
 74
0
 49
6.3499999999999996
 74
0
 49
-6.3499999999999996
 74
0
  0
LTYPE
  5
3E
100
AcDbSymbolTableRecord
100
AcDbLinetypeTableRecord
  2
CENTER2
 70
0
  3
Center (.5x) ___ _ ___ _ ___ _ ___ _ ___ _ ___
 72
65
 73
4
 40
28.5749999999999993
 49
19.0500000000000007
 74
0
 49
-3.1749999999999998
 74
0
 49
3.1749999999999998
 74
0
 49
-3.1749999999999998
 74
0
  0
LTYPE
  5
3F
100
AcDbSymbolTableRecord
100
AcDbLinetypeTableRecord
  2
CENTERX2
 70
0
  3
Center (2x) ________  __  ________  __  _____
 72
65
 73
4
 40
101.5999999999999943
 49
63.5
 74
0
 49
-12.6999999999999993
 74
0
 49
12.6999999999999993
 74
0
 49
-12.6999999999999993
 74
0
  0
LTYPE
  5
40
100
AcDbSymbolTableRecord
100
AcDbLinetypeTableRecord
  2
BORDER
 70
0
  3
Border __ __ . __ __ . __ __ . __ __ . __ __ .
 72
65
 73
6
 40
44.4500000000000028
 49
12.6999999999999993
 74
0
 49
-6.3499999999999996
 74
0
 49
12.6999999999999993
 74
0
 49
-6.3499999999999996
 74
0
 49
0.0
 74
0
 49
-6.3499999999999996
 74
0
  0
LTYPE
  5
41
100
AcDbSymbolTableRecord
100
AcDbLinetypeTableRecord
  2
BORDER2
 70
0
  3
Border (.5x) __.__.__.__.__.__.__.__.__.__.__.
 72
65
 73
6
 40
22.2250000000000014
 49
6.3499999999999996
 74
0
 49
-3.1749999999999998
 74
0
 49
6.3499999999999996
 74
0
 49
-3.1749999999999998
 74
0
 49
0.0
 74
0
 49
-3.1749999999999998
 74
0
  0
LTYPE
  5
42
100
AcDbSymbolTableRecord
100
AcDbLinetypeTableRecord
  2
BORDERX2
 70
0
  3
Border (2x) ____  ____  .  ____  ____  .  ___
 72
65
 73
6
 40
88.9000000000000057
 49
25.3999999999999986
 74
0
 49
-12.6999999999999993
 74
0
 49
25.3999999999999986
 74
0
 49
-12.6999999999999993
 74
0
 49
0.0
 74
0
 49
-12.6999999999999993
 74
0
  0
ENDTAB
  0
TABLE
  2
LAYER
  5
2
100
AcDbSymbolTable
 70
3
  0
LAYER
  5
10
100
AcDbSymbolTableRecord
100
AcDbLayerTableRecord
  2
0
 70
0
 62
7
  6
CONTINUOUS
290
1
370
0
390
F
  0
LAYER
  5
43
100
AcDbSymbolTableRecord
100
AcDbLayerTableRecord
  2
Stal
 70
0
 62
1
  6
CONTINUOUS
290
1
370
0
390
F
  0
LAYER
  5
44
100
AcDbSymbolTableRecord
100
AcDbLayerTableRecord
  2
wymiary
 70
0
 62
87
  6
CONTINUOUS
290
1
370
0
390
F
  0
ENDTAB
  0
TABLE
  2
STYLE
  5
3
100
AcDbSymbolTable
 70
1
  0
STYLE
  5
11
100
AcDbSymbolTableRecord
100
AcDbTextStyleTableRecord
  2
Standard
 70
0
 40
0.0
 41
0.75
 50
0.0
 71
0
 42
2.5
  3
txt
  4

  0
ENDTAB
  0
TABLE
  2
VIEW
  5
6
100
AcDbSymbolTable
 70
0
  0
ENDTAB
  0
TABLE
  2
UCS
  5
7
100
AcDbSymbolTable
 70
0
  0
ENDTAB
  0
TABLE
  2
APPID
  5
9
100
AcDbSymbolTable
 70
1
  0
APPID
  5
12
100
AcDbSymbolTableRecord
100
AcDbRegAppTableRecord
  2
ACAD
 70
0
  0
ENDTAB
  0
TABLE
  2
DIMSTYLE
  5
A
100
AcDbSymbolTable
 70
1
100
AcDbDimStyleTable
 71
0
  0
DIMSTYLE
105
27
100
AcDbSymbolTableRecord
100
AcDbDimStyleTableRecord
  2
Standard
 41
5.0
 42
0.625
 43
3.75
 44
1.25
 70
0
 73
0
 74
0
 77
1
 78
8
140
8.0
141
2.5
143
0.03937007874016
147
0.625
171
3
172
1
271
2
272
2
274
3
278
44
283
0
284
8
340
11
  0
ENDTAB
  0
TABLE
  2
BLOCK_RECORD
  5
1
100
AcDbSymbolTable
 70
1
  0
BLOCK_RECORD
  5
1F
100
AcDbSymbolTableRecord
100
AcDbBlockTableRecord
  2
*Model_Space
340
22
  0
BLOCK_RECORD
  5
1B
100
AcDbSymbolTableRecord
100
AcDbBlockTableRecord
  2
*Paper_Space
340
1E
  0
BLOCK_RECORD
  5
23
100
AcDbSymbolTableRecord
100
AcDbBlockTableRecord
  2
*Paper_Space0
340
26
  0
ENDTAB
  0
ENDSEC
  0
SECTION
  2
BLOCKS
  0
BLOCK
  5
20
100
AcDbEntity
  8
0
100
AcDbBlockBegin
  2
*Model_Space
 70
0
 10
0.0
 20
0.0
 30
0.0
  3
*Model_Space
  1

  0
ENDBLK
  5
21
100
AcDbEntity
  8
0
100
AcDbBlockEnd
  0
BLOCK
  5
1C
100
AcDbEntity
 67
1
  8
0
100
AcDbBlockBegin
  2
*Paper_Space
 70
0
 10
0.0
 20
0.0
 30
0.0
  3
*Paper_Space
  1

  0
ENDBLK
  5
1D
100
AcDbEntity
 67
1
  8
0
100
AcDbBlockEnd
  0
BLOCK
  5
24
100
AcDbEntity
  8
0
100
AcDbBlockBegin
  2
*Paper_Space0
 70
0
 10
0.0
 20
0.0
 30
0.0
  3
*Paper_Space0
  1

  0
ENDBLK
  5
25
100
AcDbEntity
  8
0
100
AcDbBlockEnd
  0
ENDSEC
  0
SECTION
  2
ENTITIES
  0
LINE
  5
45
100
AcDbEntity
100
AcDbLine
  8
0
 62
256
370
-1
  6
ByLayer
 10
-0.9999999999999845
 20
-251.0
 30
0.0
 11
-0.9999999999999726
 21
-73.0
 31
0.0
  0
LINE
  5
46
100
AcDbEntity
100
AcDbLine
  8
0
 62
256
370
-1
  6
ByLayer
 10
247.0000000000000284
 20
-263.0000000000000568
 30
0.0
 11
247.0000000000000284
 21
-251.0
 31
0.0
  0
LINE
  5
47
100
AcDbEntity
100
AcDbLine
  8
0
 62
256
370
-1
  6
ByLayer
 10
-0.9999999999999845
 20
-251.0
 30
0.0
 11
247.0000000000000284
 21
-251.0
 31
0.0
  0
LINE
  5
48
100
AcDbEntity
100
AcDbLine
  8
0
 62
256
370
-1
  6
DASHED
 10
206.0000000000000284
 20
-251.0
 30
0.0
 11
206.0000000000000284
 21
-72.9999999999999716
 31
0.0
  0
DIMENSION
  5
49
100
AcDbEntity
  8
wymiary
 62
256
370
-1
  6
CONTINUOUS
100
AcDbDimension
 10
-20.0000000000000071
 20
-73.0
 30
0.0
 11
-25.6250000000000142
 21
-162.0
 31
0.0
 70
0
 71
5
 72
0
 41
1.0
 42
0.0
  1

  3
Standard
100
AcDbAlignedDimension
 13
-0.9999999999999845
 23
-251.0
 33
0.0
 14
-0.9999999999999726
 24
-73.0
 34
0.0
 50
90.0
100
AcDbRotatedDimension
  0
LINE
  5
4A
100
AcDbEntity
100
AcDbLine
  8
0
 62
256
370
-1
  6
CONTINUOUS
 10
208.0000000000000284
 20
-73.0
 30
0.0
 11
208.0000000000000284
 21
-61.0000000000000568
 31
0.0
  0
LINE
  5
4B
100
AcDbEntity
100
AcDbLine
  8
0
 62
256
370
-1
  6
ByLayer
 10
-0.9999999999999726
 20
-73.0
 30
0.0
 11
208.0000000000000284
 21
-73.0
 31
0.0
  0
LINE
  5
4C
100
AcDbEntity
100
AcDbLine
  8
0
 62
256
370
-1
  6
DASHED
 10
218.0000000000000284
 20
-251.0
 30
0.0
 11
218.0000000000000284
 21
-73.0
 31
0.0
  0
DIMENSION
  5
4D
100
AcDbEntity
  8
wymiary
 62
256
370
-1
  6
CONTINUOUS
100
AcDbDimension
 10
208.0000000000000284
 20
-61.0000000000000568
 30
0.0
 11
103.5000000000000426
 21
-56.3750000000000568
 31
0.0
 70
0
 71
5
 72
0
 41
1.0
 42
0.0
  1

  3
Standard
100
AcDbAlignedDimension
 13
-0.9999999999999726
 23
-73.0
 33
0.0
 14
208.0000000000000284
 24
-61.0000000000000568
 34
0.0
 50
0.0
100
AcDbRotatedDimension
  0
DIMENSION
  5
4E
100
AcDbEntity
  8
wymiary
 62
256
370
-1
  6
CONTINUOUS
100
AcDbDimension
 10
218.0000000000000284
 20
-47.5080000000013527
 30
0.0
 11
108.5000000000000426
 21
-42.8830000000013527
 31
0.0
 70
0
 71
5
 72
0
 41
1.0
 42
0.0
  1

  3
Standard
100
AcDbAlignedDimension
 13
-0.9999999999999726
 23
-73.0
 33
0.0
 14
218.0000000000000284
 24
-73.0
 34
0.0
 50
0.0
100
AcDbRotatedDimension
  0
DIMENSION
  5
4F
100
AcDbEntity
  8
wymiary
 62
256
370
-1
  6
CONTINUOUS
100
AcDbDimension
 10
247.0000000000000284
 20
-263.0000000000000568
 30
0.0
 11
123.0000000000000284
 21
-258.3750000000000568
 31
0.0
 70
0
 71
5
 72
0
 41
1.0
 42
0.0
  1

  3
Standard
100
AcDbAlignedDimension
 13
-0.9999999999999845
 23
-251.0
 33
0.0
 14
247.0000000000000284
 24
-263.0000000000000568
 34
0.0
 50
0.0
100
AcDbRotatedDimension
  0
LINE
  5
50
100
AcDbEntity
100
AcDbLine
  8
0
 62
256
370
-3
  6
ByLayer
 10
220.0000000000000284
 20
-0.9999999999999964
 30
0.0
 11
220.0000000000000284
 21
-0.9999999999999964
 31
0.0
  0
LINE
  5
51
100
AcDbEntity
100
AcDbLine
  8
0
 62
256
370
-1
  6
ByLayer
 10
-0.9999999999999691
 20
-24.0
 30
0.0
 11
-0.9999999999999999
 21
297.0
 31
0.0
  0
LINE
  5
52
100
AcDbEntity
100
AcDbLine
  8
0
 62
256
370
-1
  6
ByLayer
 10
-0.9999999999999714
 20
-1.0
 30
0.0
 11
262.3333333333333712
 21
-0.9999999999999964
 31
0.0
  0
LINE
  5
53
100
AcDbEntity
100
AcDbLine
  8
0
 62
256
370
-1
  6
ByLayer
 10
-0.9999999999999727
 20
-8.0
 30
0.0
 11
262.3333333333333712
 21
-7.9999999999999964
 31
0.0
  0
LINE
  5
54
100
AcDbEntity
100
AcDbLine
  8
0
 62
256
370
-1
  6
ByLayer
 10
-0.9999999999999691
 20
-24.0
 30
0.0
 11
262.3333333333333712
 21
-23.9999999999999964
 31
0.0
  0
LINE
  5
55
100
AcDbEntity
100
AcDbLine
  8
0
 62
256
370
-1
  6
CONTINUOUS
 10
218.0
 20
287.0
 30
0.0
 11
262.3333333333333712
 21
287.0
 31
0.0
  0
LINE
  5
56
100
AcDbEntity
100
AcDbLine
  8
0
 62
256
370
-1
  6
CONTINUOUS
 10
218.0000000000000284
 20
254.5
 30
0.0
 11
247.0000000000000284
 21
254.5
 31
0.0
  0
LINE
  5
57
100
AcDbEntity
100
AcDbLine
  8
0
 62
256
370
-1
  6
DASHED
 10
247.0000000000000284
 20
-0.9999999999999964
 30
0.0
 11
247.0000000000000284
 21
254.5
 31
0.0
  0
LINE
  5
58
100
AcDbEntity
100
AcDbLine
  8
0
 62
256
370
-1
  6
CONTINUOUS
 10
247.0000000000000284
 20
270.5
 30
0.0
 11
262.3333333333333712
 21
270.5
 31
0.0
  0
LINE
  5
59
100
AcDbEntity
100
AcDbLine
  8
0
 62
256
370
-1
  6
CONTINUOUS
 10
247.0000000000000284
 20
254.5
 30
0.0
 11
247.0000000000000284
 21
270.5
 31
0.0
  0
LINE
  5
5A
100
AcDbEntity
100
AcDbLine
  8
0
 62
256
370
-1
  6
ByLayer
 10
218.0000000000000284
 20
254.5
 30
0.0
 11
218.0000000000000284
 21
295.5
 31
0.0
  0
DIMENSION
  5
5B
100
AcDbEntity
  8
wymiary
 62
256
370
-1
  6
CONTINUOUS
100
AcDbDimension
 10
269.3939208984467086
 20
287.0
 30
0.0
 11
264.7689208984467086
 21
131.5
 31
0.0
 70
0
 71
5
 72
0
 41
1.0
 42
0.0
  1

  3
Standard
100
AcDbAlignedDimension
 13
262.3333333333333712
 23
-23.9999999999999964
 33
0.0
 14
262.3333333333333712
 24
287.0
 34
0.0
 50
90.0
100
AcDbRotatedDimension
  0
DIMENSION
  5
5C
100
AcDbEntity
  8
wymiary
 62
256
370
-1
  6
CONTINUOUS
100
AcDbDimension
 10
269.3939208984467086
 20
299.0
 30
0.0
 11
264.7689208984467086
 21
293.0
 31
0.0
 70
0
 71
5
 72
0
 41
1.0
 42
0.0
  1

  3
Standard
100
AcDbAlignedDimension
 13
262.3333333333333712
 23
287.0
 33
0.0
 14
262.3333333333333712
 24
299.0
 34
0.0
 50
90.0
100
AcDbRotatedDimension
  0
LINE
  5
5D
100
AcDbEntity
100
AcDbLine
  8
0
 62
256
370
-1
  6
ByLayer
 10
-0.9999999999999686
 20
-14.5
 30
0.0
 11
206.0000000000000284
 21
-14.4999999999999822
 31
0.0
  0
LINE
  5
5E
100
AcDbEntity
100
AcDbLine
  8
0
 62
256
370
-1
  6
ByLayer
 10
206.0000000000000284
 20
-24.0000000000000036
 30
0.0
 11
206.0000000000000284
 21
-14.4999999999999822
 31
0.0
  0
LINE
  5
5F
100
AcDbEntity
100
AcDbLine
  8
0
 62
256
370
-1
  6
ByLayer
 10
-0.9999999999999712
 20
0.0
 30
0.0
 11
262.3333333333333712
 21
0.0000000000000036
 31
0.0
  0
DIMENSION
  5
60
100
AcDbEntity
  8
wymiary
 62
256
370
-1
  6
ByLayer
100
AcDbDimension
 10
-10.0196889395201616
 20
-0.0000000000000024
 30
0.0
 11
-14.6446889395201616
 21
-12.0
 31
0.0
 70
0
 71
5
 72
0
 41
1.0
 42
0.0
  1

  3
Standard
100
AcDbAlignedDimension
 13
-0.9999999999999691
 23
-24.0
 33
0.0
 14
-0.9999999999999715
 24
-0.0000000000000036
 34
0.0
 50
90.0
100
AcDbRotatedDimension
  0
DIMENSION
  5
61
100
AcDbEntity
  8
wymiary
 62
256
370
-1
  6
ByLayer
100
AcDbDimension
 10
218.0000000000000284
 20
312.966250000006255
 30
0.0
 11
108.5000000000000142
 21
317.591250000006255
 31
0.0
 70
0
 71
5
 72
0
 41
1.0
 42
0.0
  1

  3
Standard
100
AcDbAlignedDimension
 13
-0.9999999999999999
 23
297.0
 33
0.0
 14
218.0000000000000284
 24
295.5
 34
0.0
 50
0.0
100
AcDbRotatedDimension
  0
DIMENSION
  5
62
100
AcDbEntity
  8
wymiary
 62
256
370
-1
  6
ByLayer
100
AcDbDimension
 10
285.0779136000062408
 20
299.0
 30
0.0
 11
280.4529136000062408
 21
137.5
 31
0.0
 70
0
 71
5
 72
0
 41
1.0
 42
0.0
  1

  3
Standard
100
AcDbAlignedDimension
 13
262.3333333333333712
 23
-23.9999999999999964
 33
0.0
 14
262.9583333333333712
 24
299.0
 34
0.0
 50
90.0
100
AcDbRotatedDimension
  0
DIMENSION
  5
63
100
AcDbEntity
  8
wymiary
 62
256
370
-1
  6
ByLayer
100
AcDbDimension
 10
259.5347307025215855
 20
0.0000000000000034
 30
0.0
 11
254.9097307025215855
 21
149.5
 31
0.0
 70
0
 71
5
 72
0
 41
1.0
 42
0.0
  1

  3
Standard
100
AcDbAlignedDimension
 13
259.5610000000064588
 23
299.0
 33
0.0
 14
258.3665600000065297
 24
0.0000000000000035
 34
0.0
 50
90.0
100
AcDbRotatedDimension
  0
LINE
  5
64
100
AcDbEntity
100
AcDbLine
  8
0
 62
256
370
-1
  6
CONTINUOUS
 10
216.0
 20
299.0
 30
0.0
 11
262.3333333333333712
 21
299.0
 31
0.0
  0
LINE
  5
65
100
AcDbEntity
100
AcDbLine
  8
0
 62
256
370
-1
  6
ByLayer
 10
193.0
 20
280.3125
 30
0.0
 11
218.0000000000000284
 21
280.3125
 31
0.0
  0
LINE
  5
66
100
AcDbEntity
100
AcDbLine
  8
0
 62
256
370
-1
  6
ByLayer
 10
78.0000000000000142
 20
168.1875000000000284
 30
0.0
 11
78.0000000000000142
 21
186.875
 31
0.0
  0
LINE
  5
67
100
AcDbEntity
100
AcDbLine
  8
0
 62
256
370
-1
  6
ByLayer
 10
101.0000000000000142
 20
186.875
 30
0.0
 11
101.0000000000000142
 21
205.5625
 31
0.0
  0
LINE
  5
68
100
AcDbEntity
100
AcDbLine
  8
0
 62
256
370
-1
  6
ByLayer
 10
124.0000000000000142
 20
205.5625
 30
0.0
 11
124.0000000000000142
 21
224.25
 31
0.0
  0
LINE
  5
69
100
AcDbEntity
100
AcDbLine
  8
0
 62
256
370
-1
  6
ByLayer
 10
147.0
 20
224.25
 30
0.0
 11
147.0
 21
242.9375
 31
0.0
  0
LINE
  5
6A
100
AcDbEntity
100
AcDbLine
  8
0
 62
256
370
-1
  6
ByLayer
 10
170.0
 20
242.9375
 30
0.0
 11
170.0
 21
261.625
 31
0.0
  0
LINE
  5
6B
100
AcDbEntity
100
AcDbLine
  8
0
 62
256
370
-1
  6
ByLayer
 10
193.0
 20
261.625
 30
0.0
 11
193.0
 21
280.3125
 31
0.0
  0
LINE
  5
6C
100
AcDbEntity
100
AcDbLine
  8
0
 62
256
370
-1
  6
ByLayer
 10
193.0
 20
276.3125
 30
0.0
 11
218.0000000000000284
 21
276.3125
 31
0.0
  0
LINE
  5
6D
100
AcDbEntity
100
AcDbLine
  8
0
 62
256
370
-1
  6
ByLayer
 10
216.0
 20
280.3125
 30
0.0
 11
216.0
 21
299.0
 31
0.0
  0
LINE
  5
6E
100
AcDbEntity
100
AcDbLine
  8
0
 62
256
370
-1
  6
CONTINUOUS
 10
216.0
 20
295.5
 30
0.0
 11
262.3333333333333712
 21
295.5
 31
0.0
  0
LINE
  5
6F
100
AcDbEntity
100
AcDbLine
  8
0
 62
256
370
-1
  6
ByLayer
 10
170.0
 20
261.625
 30
0.0
 11
195.0
 21
261.625
 31
0.0
  0
LINE
  5
70
100
AcDbEntity
100
AcDbLine
  8
0
 62
256
370
-1
  6
ByLayer
 10
170.0
 20
257.625
 30
0.0
 11
195.0
 21
257.625
 31
0.0
  0
LINE
  5
71
100
AcDbEntity
100
AcDbLine
  8
0
 62
256
370
-1
  6
ByLayer
 10
195.0
 20
257.625
 30
0.0
 11
195.0
 21
261.625
 31
0.0
  0
LINE
  5
72
100
AcDbEntity
100
AcDbLine
  8
0
 62
256
370
-1
  6
ByLayer
 10
147.0
 20
242.9375
 30
0.0
 11
172.0
 21
242.9375
 31
0.0
  0
LINE
  5
73
100
AcDbEntity
100
AcDbLine
  8
0
 62
256
370
-1
  6
ByLayer
 10
147.0
 20
238.9375
 30
0.0
 11
172.0
 21
238.9375
 31
0.0
  0
LINE
  5
74
100
AcDbEntity
100
AcDbLine
  8
0
 62
256
370
-1
  6
ByLayer
 10
172.0
 20
238.9375
 30
0.0
 11
172.0
 21
242.9375
 31
0.0
  0
LINE
  5
75
100
AcDbEntity
100
AcDbLine
  8
0
 62
256
370
-1
  6
ByLayer
 10
124.0000000000000142
 20
224.25
 30
0.0
 11
149.0
 21
224.25
 31
0.0
  0
LINE
  5
76
100
AcDbEntity
100
AcDbLine
  8
0
 62
256
370
-1
  6
ByLayer
 10
124.0000000000000142
 20
220.25
 30
0.0
 11
149.0
 21
220.25
 31
0.0
  0
LINE
  5
77
100
AcDbEntity
100
AcDbLine
  8
0
 62
256
370
-1
  6
ByLayer
 10
149.0
 20
220.25
 30
0.0
 11
149.0
 21
224.25
 31
0.0
  0
LINE
  5
78
100
AcDbEntity
100
AcDbLine
  8
0
 62
256
370
-1
  6
ByLayer
 10
101.0000000000000142
 20
205.5625
 30
0.0
 11
126.0000000000000142
 21
205.5625
 31
0.0
  0
LINE
  5
79
100
AcDbEntity
100
AcDbLine
  8
0
 62
256
370
-1
  6
ByLayer
 10
101.0000000000000142
 20
201.5625
 30
0.0
 11
126.0000000000000142
 21
201.5625
 31
0.0
  0
LINE
  5
7A
100
AcDbEntity
100
AcDbLine
  8
0
 62
256
370
-1
  6
ByLayer
 10
126.0000000000000142
 20
201.5625
 30
0.0
 11
126.0000000000000142
 21
205.5625
 31
0.0
  0
LINE
  5
7B
100
AcDbEntity
100
AcDbLine
  8
0
 62
256
370
-1
  6
ByLayer
 10
78.0000000000000142
 20
186.875
 30
0.0
 11
103.0000000000000142
 21
186.875
 31
0.0
  0
LINE
  5
7C
100
AcDbEntity
100
AcDbLine
  8
0
 62
256
370
-1
  6
ByLayer
 10
78.0000000000000142
 20
182.875
 30
0.0
 11
103.0000000000000142
 21
182.875
 31
0.0
  0
LINE
  5
7D
100
AcDbEntity
100
AcDbLine
  8
0
 62
256
370
-1
  6
ByLayer
 10
103.0000000000000142
 20
182.875
 30
0.0
 11
103.0000000000000142
 21
186.875
 31
0.0
  0
LINE
  5
7E
100
AcDbEntity
100
AcDbLine
  8
0
 62
256
370
-1
  6
ByLayer
 10
126.00000000000027
 20
93.4375000000000142
 30
0.0
 11
126.0000000000002132
 21
112.1249999999999858
 31
0.0
  0
LINE
  5
7F
100
AcDbEntity
100
AcDbLine
  8
0
 62
256
370
-1
  6
ByLayer
 10
149.0000000000003126
 20
74.75
 30
0.0
 11
149.0000000000002558
 21
93.4375
 31
0.0
  0
LINE
  5
80
100
AcDbEntity
100
AcDbLine
  8
0
 62
256
370
-1
  6
ByLayer
 10
172.0000000000003979
 20
56.0625
 30
0.0
 11
172.0000000000003411
 21
74.75
 31
0.0
  0
LINE
  5
81
100
AcDbEntity
100
AcDbLine
  8
0
 62
256
370
-1
  6
ByLayer
 10
195.0000000000004547
 20
37.3749999999999929
 30
0.0
 11
195.0000000000003979
 21
56.0625
 31
0.0
  0
LINE
  5
82
100
AcDbEntity
100
AcDbLine
  8
0
 62
256
370
-1
  6
ByLayer
 10
218.0000000000005116
 20
18.6875000000000036
 30
0.0
 11
218.0000000000004547
 21
37.375
 31
0.0
  0
LINE
  5
83
100
AcDbEntity
100
AcDbLine
  8
0
 62
256
370
-1
  6
ByLayer
 10
241.00000000000054
 20
0.0000000000000036
 30
0.0
 11
241.00000000000054
 21
18.6875000000000036
 31
0.0
  0
LINE
  5
84
100
AcDbEntity
100
AcDbLine
  8
0
 62
256
370
-1
  6
ByLayer
 10
78.0000000000001421
 20
130.8125
 30
0.0
 11
103.0000000000001421
 21
130.8125
 31
0.0
  0
LINE
  5
85
100
AcDbEntity
100
AcDbLine
  8
0
 62
256
370
-1
  6
ByLayer
 10
78.0000000000001563
 20
126.8125
 30
0.0
 11
103.0000000000001563
 21
126.8125
 31
0.0
  0
LINE
  5
86
100
AcDbEntity
100
AcDbLine
  8
0
 62
256
370
-1
  6
ByLayer
 10
78.0000000000001563
 20
126.8125
 30
0.0
 11
78.0000000000001421
 21
130.8125
 31
0.0
  0
LINE
  5
87
100
AcDbEntity
100
AcDbLine
  8
0
 62
256
370
-1
  6
ByLayer
 10
101.0000000000002274
 20
108.125
 30
0.0
 11
101.0000000000002132
 21
112.125
 31
0.0
  0
LINE
  5
88
100
AcDbEntity
100
AcDbLine
  8
0
 62
256
370
-1
  6
ByLayer
 10
101.0000000000002132
 20
112.125
 30
0.0
 11
126.0000000000002132
 21
112.1249999999999858
 31
0.0
  0
LINE
  5
89
100
AcDbEntity
100
AcDbLine
  8
0
 62
256
370
-1
  6
ByLayer
 10
101.0000000000002274
 20
108.125
 30
0.0
 11
126.0000000000002274
 21
108.125
 31
0.0
  0
LINE
  5
8A
100
AcDbEntity
100
AcDbLine
  8
0
 62
256
370
-1
  6
ByLayer
 10
103.0000000000002132
 20
112.125
 30
0.0
 11
103.0000000000001421
 21
130.8125
 31
0.0
  0
LINE
  5
8B
100
AcDbEntity
100
AcDbLine
  8
0
 62
256
370
-1
  6
ByLayer
 10
124.0000000000002558
 20
93.4375
 30
0.0
 11
149.0000000000002558
 21
93.4375
 31
0.0
  0
LINE
  5
8C
100
AcDbEntity
100
AcDbLine
  8
0
 62
256
370
-1
  6
ByLayer
 10
124.00000000000027
 20
89.4375
 30
0.0
 11
149.0000000000002842
 21
89.4375
 31
0.0
  0
LINE
  5
8D
100
AcDbEntity
100
AcDbLine
  8
0
 62
256
370
-1
  6
ByLayer
 10
124.00000000000027
 20
89.4375
 30
0.0
 11
124.0000000000002558
 21
93.4375
 31
0.0
  0
LINE
  5
8E
100
AcDbEntity
100
AcDbLine
  8
0
 62
256
370
-1
  6
ByLayer
 10
147.0000000000003411
 20
74.75
 30
0.0
 11
172.0000000000003411
 21
74.75
 31
0.0
  0
LINE
  5
8F
100
AcDbEntity
100
AcDbLine
  8
0
 62
256
370
-1
  6
ByLayer
 10
147.0000000000003411
 20
70.75
 30
0.0
 11
172.0000000000003411
 21
70.75
 31
0.0
  0
LINE
  5
90
100
AcDbEntity
100
AcDbLine
  8
0
 62
256
370
-1
  6
ByLayer
 10
147.0000000000003411
 20
70.75
 30
0.0
 11
147.0000000000003411
 21
74.7499999999999147
 31
0.0
  0
LINE
  5
91
100
AcDbEntity
100
AcDbLine
  8
0
 62
256
370
-1
  6
ByLayer
 10
170.0000000000003979
 20
56.0625
 30
0.0
 11
195.0000000000003979
 21
56.0625
 31
0.0
  0
LINE
  5
92
100
AcDbEntity
100
AcDbLine
  8
0
 62
256
370
-1
  6
ByLayer
 10
170.0000000000003979
 20
52.0625
 30
0.0
 11
195.0000000000003979
 21
52.0625
 31
0.0
  0
LINE
  5
93
100
AcDbEntity
100
AcDbLine
  8
0
 62
256
370
-1
  6
ByLayer
 10
170.0000000000003979
 20
52.0625
 30
0.0
 11
170.0000000000003979
 21
56.0625
 31
0.0
  0
LINE
  5
94
100
AcDbEntity
100
AcDbLine
  8
0
 62
256
370
-1
  6
ByLayer
 10
193.0000000000004547
 20
37.375
 30
0.0
 11
218.0000000000004547
 21
37.375
 31
0.0
  0
LINE
  5
95
100
AcDbEntity
100
AcDbLine
  8
0
 62
256
370
-1
  6
ByLayer
 10
193.0000000000004547
 20
33.375
 30
0.0
 11
218.0000000000004832
 21
33.375
 31
0.0
  0
LINE
  5
96
100
AcDbEntity
100
AcDbLine
  8
0
 62
256
370
-1
  6
ByLayer
 10
193.0000000000004547
 20
33.375
 30
0.0
 11
193.0000000000004547
 21
37.375
 31
0.0
  0
LINE
  5
97
100
AcDbEntity
100
AcDbLine
  8
0
 62
256
370
-1
  6
ByLayer
 10
216.00000000000054
 20
18.6875000000000036
 30
0.0
 11
241.00000000000054
 21
18.6875000000000036
 31
0.0
  0
LINE
  5
98
100
AcDbEntity
100
AcDbLine
  8
0
 62
256
370
-1
  6
ByLayer
 10
216.00000000000054
 20
14.6875000000000036
 30
0.0
 11
216.00000000000054
 21
18.6875000000000036
 31
0.0
  0
LINE
  5
99
100
AcDbEntity
100
AcDbLine
  8
0
 62
256
370
-1
  6
ByLayer
 10
216.00000000000054
 20
14.6875000000000036
 30
0.0
 11
241.00000000000054
 21
14.6875000000000036
 31
0.0
  0
LINE
  5
9A
100
AcDbEntity
100
AcDbLine
  8
Stal
 62
256
370
-1
  6
ByLayer
 10
79.4763975975792647
 20
168.1875000000000284
 30
0.0
 11
218.0000000000000568
 21
280.7379269519669265
 31
0.0
  0
LINE
  5
9B
100
AcDbEntity
100
AcDbLine
  8
Stal
 62
256
370
-1
  6
ByLayer
 10
79.4763975975793215
 20
145.5
 30
0.0
 11
241.0000000000005116
 21
14.2620730480331588
 31
0.0
  0
LINE
  5
9C
100
AcDbEntity
100
AcDbLine
  8
Stal
 62
256
370
-1
  6
ByLayer
 10
80.0000000000001421
 20
129.6129269519668696
 30
0.0
 11
241.00000000000054
 21
-1.1995730480330735
 31
0.0
  0
LINE
  5
9D
100
AcDbEntity
100
AcDbLine
  8
Stal
 62
256
370
-1
  6
ByLayer
 10
78.0000000000000142
 20
182.4495730480331304
 30
0.0
 11
218.0000000000000284
 21
296.1995730480331304
 31
0.0
  0
DIMENSION
  5
9E
100
AcDbEntity
  8
wymiary
 62
256
370
-1
  6
ByLayer
100
AcDbDimension
 10
-12.9202482221033961
 20
164.1875
 30
0.0
 11
-17.5452482221033961
 21
166.1875
 31
0.0
 70
0
 71
5
 72
1
 41
1.0
 42
0.0
  1

  3
Standard
100
AcDbAlignedDimension
 13
-0.9999999999999876
 23
168.1875000000000284
 33
0.0
 14
-0.9999999999999871
 24
164.1875
 34
0.0
 50
90.0
100
AcDbRotatedDimension
  0
LINE
  5
9F
100
AcDbEntity
100
AcDbLine
  8
Stal
 62
256
370
-1
  6
ByLayer
 10
4.4000000000000163
 20
135.9000000000000057
 30
0.0
 11
4.4000000000000146
 21
145.0999999999999943
 31
0.0
  0
LINE
  5
A0
100
AcDbEntity
100
AcDbLine
  8
Stal
 62
256
370
-1
  6
ByLayer
 10
4.000000000000016
 20
135.5
 30
0.0
 11
4.0000000000000142
 21
145.5
 31
0.0
  0
LINE
  5
A1
100
AcDbEntity
100
AcDbLine
  8
Stal
 62
256
370
-1
  6
ByLayer
 10
4.4000000000000146
 20
154.5875000000000057
 30
0.0
 11
4.4000000000000128
 21
163.7874999999999943
 31
0.0
  0
LINE
  5
A2
100
AcDbEntity
100
AcDbLine
  8
Stal
 62
256
370
-1
  6
ByLayer
 10
4.0000000000000142
 20
154.1875
 30
0.0
 11
4.0000000000000124
 21
164.1875
 31
0.0
  0
LINE
  5
A3
100
AcDbEntity
100
AcDbLine
  8
0
 62
256
370
-1
  6
ByLayer
 10
80.0000000000000142
 20
164.1875
 30
0.0
 11
80.0000000000000142
 21
168.1875000000000284
 31
0.0
  0
LINE
  5
A4
100
AcDbEntity
100
AcDbLine
  8
0
 62
256
370
-1
  6
ByLayer
 10
80.0000000000001421
 20
130.8125
 30
0.0
 11
80.0000000000000853
 21
149.5
 31
0.0
  0
LINE
  5
A5
100
AcDbEntity
100
AcDbLine
  8
Stal
 62
256
370
-1
  6
ByLayer
 10
4.0000000000000124
 20
164.1875
 30
0.0
 11
9.0000000000000124
 21
164.1875
 31
0.0
  0
LINE
  5
A6
100
AcDbEntity
100
AcDbLine
  8
Stal
 62
256
370
-1
  6
ByLayer
 10
4.4000000000000128
 20
163.7874999999999943
 30
0.0
 11
9.0000000000000124
 21
163.7874999999999943
 31
0.0
  0
LINE
  5
A7
100
AcDbEntity
100
AcDbLine
  8
Stal
 62
256
370
-1
  6
ByLayer
 10
9.0000000000000124
 20
163.7874999999999943
 30
0.0
 11
9.0000000000000124
 21
164.1875
 31
0.0
  0
LINE
  5
A8
100
AcDbEntity
100
AcDbLine
  8
Stal
 62
256
370
-1
  6
ByLayer
 10
4.4000000000000146
 20
154.5875000000000057
 30
0.0
 11
9.0000000000000142
 21
154.5875000000000341
 31
0.0
  0
LINE
  5
A9
100
AcDbEntity
100
AcDbLine
  8
Stal
 62
256
370
-1
  6
ByLayer
 10
4.0000000000000142
 20
154.1875
 30
0.0
 11
9.0000000000000142
 21
154.1875
 31
0.0
  0
LINE
  5
AA
100
AcDbEntity
100
AcDbLine
  8
Stal
 62
256
370
-1
  6
ByLayer
 10
9.0000000000000142
 20
154.1875
 30
0.0
 11
9.0000000000000142
 21
154.5875000000000341
 31
0.0
  0
LINE
  5
AB
100
AcDbEntity
100
AcDbLine
  8
Stal
 62
256
370
-1
  6
ByLayer
 10
4.0000000000000142
 20
145.5
 30
0.0
 11
9.0000000000000142
 21
145.5
 31
0.0
  0
LINE
  5
AC
100
AcDbEntity
100
AcDbLine
  8
Stal
 62
256
370
-1
  6
ByLayer
 10
4.4000000000000146
 20
145.0999999999999943
 30
0.0
 11
9.0000000000000142
 21
145.0999999999999943
 31
0.0
  0
LINE
  5
AD
100
AcDbEntity
100
AcDbLine
  8
Stal
 62
256
370
-1
  6
ByLayer
 10
9.0000000000000142
 20
145.0999999999999943
 30
0.0
 11
9.0000000000000142
 21
145.5
 31
0.0
  0
LINE
  5
AE
100
AcDbEntity
100
AcDbLine
  8
Stal
 62
256
370
-1
  6
ByLayer
 10
4.4000000000000163
 20
135.9000000000000057
 30
0.0
 11
9.000000000000016
 21
135.9000000000000341
 31
0.0
  0
LINE
  5
AF
100
AcDbEntity
100
AcDbLine
  8
Stal
 62
256
370
-1
  6
ByLayer
 10
4.000000000000016
 20
135.5
 30
0.0
 11
9.000000000000016
 21
135.5
 31
0.0
  0
LINE
  5
B0
100
AcDbEntity
100
AcDbLine
  8
Stal
 62
256
370
-1
  6
ByLayer
 10
9.000000000000016
 20
135.5
 30
0.0
 11
9.000000000000016
 21
135.9000000000000341
 31
0.0
  0
LINE
  5
B1
100
AcDbEntity
100
AcDbLine
  8
0
 62
256
370
-1
  6
ByLayer
 10
2.0000000000000124
 20
168.1875
 30
0.0
 11
80.0000000000000142
 21
168.1875000000000284
 31
0.0
  0
LINE
  5
B2
100
AcDbEntity
100
AcDbLine
  8
0
 62
256
370
-1
  6
ByLayer
 10
2.0000000000000129
 20
164.1875
 30
0.0
 11
80.0000000000000142
 21
164.1875
 31
0.0
  0
LINE
  5
B3
100
AcDbEntity
100
AcDbLine
  8
0
 62
256
370
-1
  6
ByLayer
 10
2.0000000000000129
 20
164.1875
 30
0.0
 11
2.0000000000000124
 21
168.1875
 31
0.0
  0
LINE
  5
B4
100
AcDbEntity
100
AcDbLine
  8
0
 62
256
370
-1
  6
ByLayer
 10
2.0000000000000142
 20
149.5
 30
0.0
 11
80.0000000000000853
 21
149.5
 31
0.0
  0
LINE
  5
B5
100
AcDbEntity
100
AcDbLine
  8
0
 62
256
370
-1
  6
ByLayer
 10
2.0000000000000142
 20
145.5
 30
0.0
 11
80.0000000000000853
 21
145.5
 31
0.0
  0
LINE
  5
B6
100
AcDbEntity
100
AcDbLine
  8
0
 62
256
370
-1
  6
ByLayer
 10
2.0000000000000142
 20
145.5
 30
0.0
 11
2.0000000000000142
 21
149.5
 31
0.0
  0
LINE
  5
B7
100
AcDbEntity
100
AcDbLine
  8
Stal
 62
256
370
-1
  6
ByLayer
 10
77.6000000000001222
 20
135.9000000000001478
 30
0.0
 11
77.600000000000108
 21
145.1000000000001364
 31
0.0
  0
LINE
  5
B8
100
AcDbEntity
100
AcDbLine
  8
Stal
 62
256
370
-1
  6
ByLayer
 10
78.0000000000001279
 20
135.5000000000001421
 30
0.0
 11
78.0000000000000853
 21
145.5000000000001137
 31
0.0
  0
LINE
  5
B9
100
AcDbEntity
100
AcDbLine
  8
Stal
 62
256
370
-1
  6
ByLayer
 10
77.6000000000000512
 20
154.5875000000001194
 30
0.0
 11
77.6000000000000227
 21
163.787500000000108
 31
0.0
  0
LINE
  5
BA
100
AcDbEntity
100
AcDbLine
  8
Stal
 62
256
370
-1
  6
ByLayer
 10
78.0000000000000568
 20
154.1875000000001421
 30
0.0
 11
78.0000000000000284
 21
164.1875000000001137
 31
0.0
  0
LINE
  5
BB
100
AcDbEntity
100
AcDbLine
  8
Stal
 62
256
370
-1
  6
ByLayer
 10
78.0000000000000284
 20
164.1875000000001137
 30
0.0
 11
73.0000000000000284
 21
164.1875000000000853
 31
0.0
  0
LINE
  5
BC
100
AcDbEntity
100
AcDbLine
  8
Stal
 62
256
370
-1
  6
ByLayer
 10
77.6000000000000227
 20
163.787500000000108
 30
0.0
 11
73.0000000000000284
 21
163.787500000000108
 31
0.0
  0
LINE
  5
BD
100
AcDbEntity
100
AcDbLine
  8
Stal
 62
256
370
-1
  6
ByLayer
 10
73.0000000000000284
 20
163.787500000000108
 30
0.0
 11
73.0000000000000284
 21
164.1875000000000853
 31
0.0
  0
LINE
  5
BE
100
AcDbEntity
100
AcDbLine
  8
Stal
 62
256
370
-1
  6
ByLayer
 10
77.6000000000000512
 20
154.5875000000001194
 30
0.0
 11
73.0000000000000568
 21
154.5875000000001478
 31
0.0
  0
LINE
  5
BF
100
AcDbEntity
100
AcDbLine
  8
Stal
 62
256
370
-1
  6
ByLayer
 10
78.0000000000000568
 20
154.1875000000001421
 30
0.0
 11
73.0000000000000568
 21
154.1875000000001137
 31
0.0
  0
LINE
  5
C0
100
AcDbEntity
100
AcDbLine
  8
Stal
 62
256
370
-1
  6
ByLayer
 10
73.0000000000000568
 20
154.1875000000001137
 30
0.0
 11
73.0000000000000568
 21
154.5875000000001478
 31
0.0
  0
LINE
  5
C1
100
AcDbEntity
100
AcDbLine
  8
Stal
 62
256
370
-1
  6
ByLayer
 10
78.0000000000000853
 20
145.5000000000001137
 30
0.0
 11
73.0000000000000853
 21
145.5000000000001137
 31
0.0
  0
LINE
  5
C2
100
AcDbEntity
100
AcDbLine
  8
Stal
 62
256
370
-1
  6
ByLayer
 10
77.600000000000108
 20
145.1000000000001364
 30
0.0
 11
73.0000000000000853
 21
145.100000000000108
 31
0.0
  0
LINE
  5
C3
100
AcDbEntity
100
AcDbLine
  8
Stal
 62
256
370
-1
  6
ByLayer
 10
73.0000000000000853
 20
145.100000000000108
 30
0.0
 11
73.0000000000000853
 21
145.5000000000001137
 31
0.0
  0
LINE
  5
C4
100
AcDbEntity
100
AcDbLine
  8
Stal
 62
256
370
-1
  6
ByLayer
 10
77.6000000000001222
 20
135.9000000000001478
 30
0.0
 11
73.0000000000001421
 21
135.9000000000001478
 31
0.0
  0
LINE
  5
C5
100
AcDbEntity
100
AcDbLine
  8
Stal
 62
256
370
-1
  6
ByLayer
 10
78.0000000000001279
 20
135.5000000000001421
 30
0.0
 11
73.0000000000001137
 21
135.5000000000001137
 31
0.0
  0
LINE
  5
C6
100
AcDbEntity
100
AcDbLine
  8
Stal
 62
256
370
-1
  6
ByLayer
 10
73.0000000000001137
 20
135.5000000000001137
 30
0.0
 11
73.0000000000001421
 21
135.9000000000001478
 31
0.0
  0
ENDSEC
  0
SECTION
  2
OBJECTS
  0
DICTIONARY
  5
C
100
AcDbDictionary
280
0
281
1
  3
ACAD_GROUP
350
D
  3
ACAD_LAYOUT
350
1A
  3
ACAD_MLINESTYLE
350
17
  3
ACAD_PLOTSETTINGS
350
19
  3
ACAD_PLOTSTYLENAME
350
E
  3
AcDbVariableDictionary
350
C7
  0
DICTIONARY
  5
D
100
AcDbDictionary
280
0
281
1
  0
ACDBDICTIONARYWDFLT
  5
E
100
AcDbDictionary
281
1
  3
Normal
350
F
100
AcDbDictionaryWithDefault
340
F
  0
ACDBPLACEHOLDER
  5
F
  0
DICTIONARY
  5
17
100
AcDbDictionary
280
0
281
1
  3
Standard
350
18
  0
MLINESTYLE
  5
18
100
AcDbMlineStyle
  2
STANDARD
 70
0
  3

 62
256
 51
90.0
 52
90.0
 71
2
 49
0.5
 62
256
  6
BYLAYER
 49
-0.5
 62
256
  6
BYLAYER
  0
DICTIONARY
  5
19
100
AcDbDictionary
280
0
281
1
  0
DICTIONARY
  5
1A
100
AcDbDictionary
281
1
  3
Layout1
350
1E
  3
Layout2
350
26
  3
Model
350
22
  0
LAYOUT
  5
1E
100
AcDbPlotSettings
  1

  2
C:\Program Files\AutoCAD 2002\plotters\DWF ePlot (optimized for plotting).pc3
  4

  6

 40
0.0
 41
0.0
 42
0.0
 43
0.0
 44
0.0
 45
0.0
 46
0.0
 47
0.0
 48
0.0
 49
0.0
140
0.0
141
0.0
142
1.0
143
1.0
 70
688
 72
0
 73
0
 74
5
  7

 75
16
147
1.0
148
0.0
149
0.0
100
AcDbLayout
  1
Layout1
 70
1
 71
1
 10
0.0
 20
0.0
 11
420.0
 21
297.0
 12
0.0
 22
0.0
 32
0.0
 14
100000000000000000000.0
 24
100000000000000000000.0
 34
100000000000000000000.0
 15
-100000000000000000000.0
 25
-100000000000000000000.0
 35
-100000000000000000000.0
146
0.0
 13
0.0
 23
0.0
 33
0.0
 16
1.0
 26
0.0
 36
0.0
 17
0.0
 27
1.0
 37
0.0
 76
0
330
1B
  0
LAYOUT
  5
22
100
AcDbPlotSettings
  1

  2
C:\Program Files\AutoCAD 2002\plotters\DWF ePlot (optimized for plotting).pc3
  4

  6

 40
0.0
 41
0.0
 42
0.0
 43
0.0
 44
0.0
 45
0.0
 46
0.0
 47
0.0
 48
0.0
 49
0.0
140
0.0
141
0.0
142
1.0
143
1.0
 70
1712
 72
0
 73
0
 74
0
  7

 75
0
147
1.0
148
0.0
149
0.0
100
AcDbLayout
  1
Model
 70
1
 71
0
 10
0.0
 20
0.0
 11
12.0
 21
9.0
 12
0.0
 22
0.0
 32
0.0
 14
0.0
 24
0.0
 34
0.0
 15
0.0
 25
0.0
 35
0.0
146
0.0
 13
0.0
 23
0.0
 33
0.0
 16
1.0
 26
0.0
 36
0.0
 17
0.0
 27
1.0
 37
0.0
 76
0
330
1F
  0
LAYOUT
  5
26
100
AcDbPlotSettings
  1

  2
C:\Program Files\AutoCAD 2002\plotters\DWF ePlot (optimized for plotting).pc3
  4

  6

 40
0.0
 41
0.0
 42
0.0
 43
0.0
 44
0.0
 45
0.0
 46
0.0
 47
0.0
 48
0.0
 49
0.0
140
0.0
141
0.0
142
1.0
143
1.0
 70
688
 72
0
 73
0
 74
5
  7

 75
16
147
1.0
148
0.0
149
0.0
100
AcDbLayout
  1
Layout2
 70
1
 71
2
 10
0.0
 20
0.0
 11
12.0
 21
9.0
 12
0.0
 22
0.0
 32
0.0
 14
0.0
 24
0.0
 34
0.0
 15
0.0
 25
0.0
 35
0.0
146
0.0
 13
0.0
 23
0.0
 33
0.0
 16
1.0
 26
0.0
 36
0.0
 17
0.0
 27
1.0
 37
0.0
 76
0
330
23
  0
DICTIONARY
  5
C7
100
AcDbDictionary
281
1
  3
DIMASSOC
350
C9
  3
HIDETEXT
350
C8
  0
DICTIONARYVAR
  5
C8
100
DictionaryVariables
280
0
  1
2
  0
DICTIONARYVAR
  5
C9
100
DictionaryVariables
280
0
  1
1
  0
ENDSEC
  0
EOF
