999
dxflib 2.0.4.8
  0
SECTION
  2
HEADER
  9
$ACADVER
  1
AC1015
  9
$HANDSEED
  5
FFFF
  9
$DIMADEC
 70
2
  9
$GRIDUNIT
 10
0.0
 20
0.0
  9
$DIMASZ
 40
10.0
  9
$DIMGAP
 40
0.625
  9
$LUNITS
 70
2
  9
$AUPREC
 70
2
  9
$SPLINESEGS
 70
8
  9
$INSUNITS
 70
0
  9
$DIMEXO
 40
0.625
  9
$DIMLUNIT
 70
2
  9
$GRIDMODE
 70
1
  9
$DIMTXT
 40
10.0
  9
$LUPREC
 70
4
  9
$DIMSTYLE
  2
Standard
  9
$PLIMMIN
 10
0.0
 20
0.0
  9
$PLIMMAX
 10
210.0
 20
297.0
  9
$DIMEXE
 40
1.25
  9
$PINSBASE
 10
-307.3553390593273775
 20
-378.0
 30
0.0
  9
$DIMAUNIT
 70
0
  9
$AUNITS
 70
0
  0
ENDSEC
  0
SECTION
  2
TABLES
  0
TABLE
  2
VPORT
  5
8
100
AcDbSymbolTable
 70
1
  0
VPORT
  5
30
100
AcDbSymbolTableRecord
100
AcDbViewportTableRecord
  2
*Active
 70
0
 10
0.0
 20
0.0
 11
1.0
 21
1.0
 12
286.3055555555554861
 22
148.5
 13
0.0
 23
0.0
 14
10.0
 24
10.0
 15
10.0
 25
10.0
 16
0.0
 26
0.0
 36
1.0
 17
0.0
 27
0.0
 37
0.0
 40
297.0
 41
1.92798353909465
 42
50.0
 43
0.0
 44
0.0
 50
0.0
 51
0.0
 71
0
 72
100
 73
1
 74
3
 75
1
 76
1
 77
0
 78
0
281
0
 65
1
110
0.0
120
0.0
130
0.0
111
1.0
121
0.0
131
0.0
112
0.0
122
1.0
132
0.0
 79
0
146
0.0
  0
ENDTAB
  0
TABLE
  2
LTYPE
  5
5
100
AcDbSymbolTable
 70
21
  0
LTYPE
  5
14
100
AcDbSymbolTableRecord
100
AcDbLinetypeTableRecord
  2
ByBlock
 70
0
  3

 72
65
 73
0
 40
0.0
  0
LTYPE
  5
15
100
AcDbSymbolTableRecord
100
AcDbLinetypeTableRecord
  2
ByLayer
 70
0
  3

 72
65
 73
0
 40
0.0
  0
LTYPE
  5
16
100
AcDbSymbolTableRecord
100
AcDbLinetypeTableRecord
  2
CONTINUOUS
 70
0
  3
Solid line
 72
65
 73
0
 40
0.0
  0
LTYPE
  5
31
100
AcDbSymbolTableRecord
100
AcDbLinetypeTableRecord
  2
DOT
 70
0
  3
Dot . . . . . . . . . . . . . . . . . . . . . .
 72
65
 73
2
 40
6.3499999999999996
 49
0.0
 74
0
 49
-6.3499999999999996
 74
0
  0
LTYPE
  5
32
100
AcDbSymbolTableRecord
100
AcDbLinetypeTableRecord
  2
DOT2
 70
0
  3
Dot (.5x) .....................................
 72
65
 73
2
 40
3.1749999999999998
 49
0.0
 74
0
 49
-3.1749999999999998
 74
0
  0
LTYPE
  5
33
100
AcDbSymbolTableRecord
100
AcDbLinetypeTableRecord
  2
DOTX2
 70
0
  3
Dot (2x) .  .  .  .  .  .  .  .  .  .  .  .  .
 72
65
 73
2
 40
12.6999999999999993
 49
0.0
 74
0
 49
-12.6999999999999993
 74
0
  0
LTYPE
  5
34
100
AcDbSymbolTableRecord
100
AcDbLinetypeTableRecord
  2
DASHED
 70
0
  3
Dashed __ __ __ __ __ __ __ __ __ __ __ __ __ _
 72
65
 73
2
 40
19.0500000000000007
 49
12.6999999999999993
 74
0
 49
-6.3499999999999996
 74
0
  0
LTYPE
  5
35
100
AcDbSymbolTableRecord
100
AcDbLinetypeTableRecord
  2
DASHED2
 70
0
  3
Dashed (.5x) _ _ _ _ _ _ _ _ _ _ _ _ _ _ _ _ _
 72
65
 73
2
 40
9.5250000000000004
 49
6.3499999999999996
 74
0
 49
-3.1749999999999998
 74
0
  0
LTYPE
  5
36
100
AcDbSymbolTableRecord
100
AcDbLinetypeTableRecord
  2
DASHEDX2
 70
0
  3
Dashed (2x) ____  ____  ____  ____  ____  ___
 72
65
 73
2
 40
38.1000000000000014
 49
25.3999999999999986
 74
0
 49
-12.6999999999999993
 74
0
  0
LTYPE
  5
37
100
AcDbSymbolTableRecord
100
AcDbLinetypeTableRecord
  2
DASHDOT
 70
0
  3
Dash dot __ . __ . __ . __ . __ . __ . __ . __
 72
65
 73
4
 40
25.3999999999999986
 49
12.6999999999999993
 74
0
 49
-6.3499999999999996
 74
0
 49
0.0
 74
0
 49
-6.3499999999999996
 74
0
  0
LTYPE
  5
38
100
AcDbSymbolTableRecord
100
AcDbLinetypeTableRecord
  2
DASHDOT2
 70
0
  3
Dash dot (.5x) _._._._._._._._._._._._._._._.
 72
65
 73
4
 40
12.6999999999999993
 49
6.3499999999999996
 74
0
 49
-3.1749999999999998
 74
0
 49
0.0
 74
0
 49
-3.1749999999999998
 74
0
  0
LTYPE
  5
39
100
AcDbSymbolTableRecord
100
AcDbLinetypeTableRecord
  2
DASHDOTX2
 70
0
  3
Dash dot (2x) ____  .  ____  .  ____  .  ___
 72
65
 73
4
 40
50.7999999999999972
 49
25.3999999999999986
 74
0
 49
-12.6999999999999993
 74
0
 49
0.0
 74
0
 49
-12.6999999999999993
 74
0
  0
LTYPE
  5
3A
100
AcDbSymbolTableRecord
100
AcDbLinetypeTableRecord
  2
DIVIDE
 70
0
  3
Divide ____ . . ____ . . ____ . . ____ . . ____
 72
65
 73
6
 40
31.75
 49
12.6999999999999993
 74
0
 49
-6.3499999999999996
 74
0
 49
0.0
 74
0
 49
-6.3499999999999996
 74
0
 49
0.0
 74
0
 49
-6.3499999999999996
 74
0
  0
LTYPE
  5
3B
100
AcDbSymbolTableRecord
100
AcDbLinetypeTableRecord
  2
DIVIDE2
 70
0
  3
Divide (.5x) __..__..__..__..__..__..__..__.._
 72
65
 73
6
 40
15.875
 49
6.3499999999999996
 74
0
 49
-3.1749999999999998
 74
0
 49
0.0
 74
0
 49
-3.1749999999999998
 74
0
 49
0.0
 74
0
 49
-3.1749999999999998
 74
0
  0
LTYPE
  5
3C
100
AcDbSymbolTableRecord
100
AcDbLinetypeTableRecord
  2
DIVIDEX2
 70
0
  3
Divide (2x) ________  .  .  ________  .  .  _
 72
65
 73
6
 40
63.5
 49
25.3999999999999986
 74
0
 49
-12.6999999999999993
 74
0
 49
0.0
 74
0
 49
-12.6999999999999993
 74
0
 49
0.0
 74
0
 49
-12.6999999999999993
 74
0
  0
LTYPE
  5
3D
100
AcDbSymbolTableRecord
100
AcDbLinetypeTableRecord
  2
CENTER
 70
0
  3
Center ____ _ ____ _ ____ _ ____ _ ____ _ ____
 72
65
 73
4
 40
50.7999999999999972
 49
31.75
 74
0
 49
-6.3499999999999996
 74
0
 49
6.3499999999999996
 74
0
 49
-6.3499999999999996
 74
0
  0
LTYPE
  5
3E
100
AcDbSymbolTableRecord
100
AcDbLinetypeTableRecord
  2
CENTER2
 70
0
  3
Center (.5x) ___ _ ___ _ ___ _ ___ _ ___ _ ___
 72
65
 73
4
 40
28.5749999999999993
 49
19.0500000000000007
 74
0
 49
-3.1749999999999998
 74
0
 49
3.1749999999999998
 74
0
 49
-3.1749999999999998
 74
0
  0
LTYPE
  5
3F
100
AcDbSymbolTableRecord
100
AcDbLinetypeTableRecord
  2
CENTERX2
 70
0
  3
Center (2x) ________  __  ________  __  _____
 72
65
 73
4
 40
101.5999999999999943
 49
63.5
 74
0
 49
-12.6999999999999993
 74
0
 49
12.6999999999999993
 74
0
 49
-12.6999999999999993
 74
0
  0
LTYPE
  5
40
100
AcDbSymbolTableRecord
100
AcDbLinetypeTableRecord
  2
BORDER
 70
0
  3
Border __ __ . __ __ . __ __ . __ __ . __ __ .
 72
65
 73
6
 40
44.4500000000000028
 49
12.6999999999999993
 74
0
 49
-6.3499999999999996
 74
0
 49
12.6999999999999993
 74
0
 49
-6.3499999999999996
 74
0
 49
0.0
 74
0
 49
-6.3499999999999996
 74
0
  0
LTYPE
  5
41
100
AcDbSymbolTableRecord
100
AcDbLinetypeTableRecord
  2
BORDER2
 70
0
  3
Border (.5x) __.__.__.__.__.__.__.__.__.__.__.
 72
65
 73
6
 40
22.2250000000000014
 49
6.3499999999999996
 74
0
 49
-3.1749999999999998
 74
0
 49
6.3499999999999996
 74
0
 49
-3.1749999999999998
 74
0
 49
0.0
 74
0
 49
-3.1749999999999998
 74
0
  0
LTYPE
  5
42
100
AcDbSymbolTableRecord
100
AcDbLinetypeTableRecord
  2
BORDERX2
 70
0
  3
Border (2x) ____  ____  .  ____  ____  .  ___
 72
65
 73
6
 40
88.9000000000000057
 49
25.3999999999999986
 74
0
 49
-12.6999999999999993
 74
0
 49
25.3999999999999986
 74
0
 49
-12.6999999999999993
 74
0
 49
0.0
 74
0
 49
-12.6999999999999993
 74
0
  0
ENDTAB
  0
TABLE
  2
LAYER
  5
2
100
AcDbSymbolTable
 70
6
  0
LAYER
  5
10
100
AcDbSymbolTableRecord
100
AcDbLayerTableRecord
  2
0
 70
0
 62
7
  6
CONTINUOUS
370
0
390
F
  0
LAYER
  5
43
100
AcDbSymbolTableRecord
100
AcDbLayerTableRecord
  2
osie
 70
0
 62
3
  6
CONTINUOUS
370
0
390
F
  0
LAYER
  5
44
100
AcDbSymbolTableRecord
100
AcDbLayerTableRecord
  2
poludniowy
 70
0
 62
7
  6
CONTINUOUS
370
0
390
F
  0
LAYER
  5
45
100
AcDbSymbolTableRecord
100
AcDbLayerTableRecord
  2
szalunek
 70
0
 62
2
  6
DOT2
370
0
390
F
  0
LAYER
  5
46
100
AcDbSymbolTableRecord
100
AcDbLayerTableRecord
  2
polnocny
 70
0
 62
7
  6
CONTINUOUS
370
0
390
F
  0
LAYER
  5
47
100
AcDbSymbolTableRecord
100
AcDbLayerTableRecord
  2
poln-drew
 70
0
 62
11
  6
CONTINUOUS
370
0
390
F
  0
ENDTAB
  0
TABLE
  2
STYLE
  5
3
100
AcDbSymbolTable
 70
1
  0
STYLE
  5
11
100
AcDbSymbolTableRecord
100
AcDbTextStyleTableRecord
  2
Standard
 70
0
 40
0.0
 41
0.75
 50
0.0
 71
0
 42
2.5
  3
txt
  4

  0
ENDTAB
  0
TABLE
  2
VIEW
  5
6
100
AcDbSymbolTable
 70
0
  0
ENDTAB
  0
TABLE
  2
UCS
  5
7
100
AcDbSymbolTable
 70
0
  0
ENDTAB
  0
TABLE
  2
APPID
  5
9
100
AcDbSymbolTable
 70
1
  0
APPID
  5
12
100
AcDbSymbolTableRecord
100
AcDbRegAppTableRecord
  2
ACAD
 70
0
  0
ENDTAB
  0
TABLE
  2
DIMSTYLE
  5
A
100
AcDbSymbolTable
 70
1
100
AcDbDimStyleTable
 71
0
  0
DIMSTYLE
105
27
100
AcDbSymbolTableRecord
100
AcDbDimStyleTableRecord
  2
Standard
 41
10.0
 42
0.625
 43
3.75
 44
1.25
 70
0
 73
0
 74
0
 77
1
 78
8
140
10.0
141
2.5
143
0.03937007874016
147
0.625
171
3
172
1
271
2
272
2
274
3
278
44
283
0
284
8
340
11
  0
ENDTAB
  0
TABLE
  2
BLOCK_RECORD
  5
1
100
AcDbSymbolTable
 70
1
  0
BLOCK_RECORD
  5
1F
100
AcDbSymbolTableRecord
100
AcDbBlockTableRecord
  2
*Model_Space
340
22
  0
BLOCK_RECORD
  5
1B
100
AcDbSymbolTableRecord
100
AcDbBlockTableRecord
  2
*Paper_Space
340
1E
  0
BLOCK_RECORD
  5
23
100
AcDbSymbolTableRecord
100
AcDbBlockTableRecord
  2
*Paper_Space0
340
26
  0
ENDTAB
  0
ENDSEC
  0
SECTION
  2
BLOCKS
  0
BLOCK
  5
20
100
AcDbEntity
  8
0
100
AcDbBlockBegin
  2
*Model_Space
 70
0
 10
0.0
 20
0.0
 30
0.0
  3
*Model_Space
  1

  0
ENDBLK
  5
21
100
AcDbEntity
  8
0
100
AcDbBlockEnd
  0
BLOCK
  5
1C
100
AcDbEntity
 67
1
  8
0
100
AcDbBlockBegin
  2
*Paper_Space
 70
0
 10
0.0
 20
0.0
 30
0.0
  3
*Paper_Space
  1

  0
ENDBLK
  5
1D
100
AcDbEntity
 67
1
  8
0
100
AcDbBlockEnd
  0
BLOCK
  5
24
100
AcDbEntity
  8
0
100
AcDbBlockBegin
  2
*Paper_Space0
 70
0
 10
0.0
 20
0.0
 30
0.0
  3
*Paper_Space0
  1

  0
ENDBLK
  5
25
100
AcDbEntity
  8
0
100
AcDbBlockEnd
  0
ENDSEC
  0
SECTION
  2
ENTITIES
  0
LINE
  5
48
100
AcDbEntity
100
AcDbLine
  8
0
 62
256
370
-1
  6
ByLayer
 10
0.0000000000000486
 20
794.0
 30
0.0
 11
754.0
 21
794.0
 31
0.0
  0
LINE
  5
49
100
AcDbEntity
100
AcDbLine
  8
0
 62
256
370
-1
  6
ByLayer
 10
506.9999999999999432
 20
840.2000000000002728
 30
0.0
 11
682.7999999999996135
 21
840.2000000000002728
 31
0.0
  0
LINE
  5
4A
100
AcDbEntity
100
AcDbLine
  8
0
 62
256
370
-1
  6
ByLayer
 10
507.0
 20
832.5000000000002274
 30
0.0
 11
690.4999999999997726
 21
832.5000000000002274
 31
0.0
  0
LINE
  5
4B
100
AcDbEntity
100
AcDbLine
  8
0
 62
256
370
-1
  6
ByLayer
 10
507.0
 20
824.8000000000001819
 30
0.0
 11
698.1999999999997044
 21
824.8000000000001819
 31
0.0
  0
LINE
  5
4C
100
AcDbEntity
100
AcDbLine
  8
0
 62
256
370
-1
  6
ByLayer
 10
507.0
 20
817.1000000000001364
 30
0.0
 11
705.8999999999998636
 21
817.1000000000001364
 31
0.0
  0
LINE
  5
4D
100
AcDbEntity
100
AcDbLine
  8
0
 62
256
370
-1
  6
ByLayer
 10
507.0
 20
809.4000000000000909
 30
0.0
 11
713.5999999999997954
 21
809.4000000000000909
 31
0.0
  0
LINE
  5
4E
100
AcDbEntity
100
AcDbLine
  8
0
 62
256
370
-1
  6
ByLayer
 10
507.0
 20
801.7000000000000455
 30
0.0
 11
721.2999999999999545
 21
801.7000000000000455
 31
0.0
  0
LINE
  5
4F
100
AcDbEntity
100
AcDbLine
  8
0
 62
256
370
-1
  6
ByLayer
 10
506.9999999999999432
 20
847.9000000000003183
 30
0.0
 11
675.0999999999996817
 21
847.9000000000003183
 31
0.0
  0
LINE
  5
50
100
AcDbEntity
100
AcDbLine
  8
0
 62
256
370
-1
  6
ByLayer
 10
506.9999999999999432
 20
855.6000000000003638
 30
0.0
 11
667.3999999999996362
 21
855.6000000000003638
 31
0.0
  0
LINE
  5
51
100
AcDbEntity
100
AcDbLine
  8
0
 62
256
370
-1
  6
ByLayer
 10
506.9999999999999432
 20
863.3000000000004093
 30
0.0
 11
659.6999999999995907
 21
863.3000000000004093
 31
0.0
  0
LINE
  5
52
100
AcDbEntity
100
AcDbLine
  8
0
 62
256
370
-1
  6
ByLayer
 10
506.9999999999999432
 20
878.7000000000005002
 30
0.0
 11
644.2999999999994998
 21
878.7000000000005002
 31
0.0
  0
LINE
  5
53
100
AcDbEntity
100
AcDbLine
  8
0
 62
256
370
-1
  6
ByLayer
 10
506.9999999999999432
 20
886.4000000000005457
 30
0.0
 11
636.5999999999994543
 21
886.4000000000005457
 31
0.0
  0
LINE
  5
54
100
AcDbEntity
100
AcDbLine
  8
0
 62
256
370
-1
  6
ByLayer
 10
506.9999999999999432
 20
894.1000000000005912
 30
0.0
 11
628.8999999999994088
 21
894.1000000000005912
 31
0.0
  0
LINE
  5
55
100
AcDbEntity
100
AcDbLine
  8
0
 62
256
370
-1
  6
ByLayer
 10
506.9999999999999432
 20
901.8000000000006366
 30
0.0
 11
621.1999999999993634
 21
901.8000000000006366
 31
0.0
  0
LINE
  5
56
100
AcDbEntity
100
AcDbLine
  8
0
 62
256
370
-1
  6
ByLayer
 10
506.9999999999999432
 20
909.5000000000006821
 30
0.0
 11
613.4999999999993179
 21
909.5000000000006821
 31
0.0
  0
LINE
  5
57
100
AcDbEntity
100
AcDbLine
  8
0
 62
256
370
-1
  6
ByLayer
 10
506.9999999999999432
 20
917.2000000000007276
 30
0.0
 11
605.7999999999992724
 21
917.2000000000007276
 31
0.0
  0
LINE
  5
58
100
AcDbEntity
100
AcDbLine
  8
0
 62
256
370
-1
  6
ByLayer
 10
506.9999999999999432
 20
924.9000000000007731
 30
0.0
 11
598.0999999999992269
 21
924.9000000000007731
 31
0.0
  0
LINE
  5
59
100
AcDbEntity
100
AcDbLine
  8
0
 62
256
370
-1
  6
ByLayer
 10
506.9999999999999432
 20
932.6000000000008185
 30
0.0
 11
590.3999999999991815
 21
932.6000000000008185
 31
0.0
  0
LINE
  5
5A
100
AcDbEntity
100
AcDbLine
  8
0
 62
256
370
-1
  6
ByLayer
 10
506.9999999999999432
 20
940.300000000000864
 30
0.0
 11
582.699999999999136
 21
940.300000000000864
 31
0.0
  0
LINE
  5
5B
100
AcDbEntity
100
AcDbLine
  8
0
 62
256
370
-1
  6
ByLayer
 10
506.9999999999999432
 20
955.700000000000955
 30
0.0
 11
567.299999999999045
 21
955.700000000000955
 31
0.0
  0
LINE
  5
5C
100
AcDbEntity
100
AcDbLine
  8
0
 62
256
370
-1
  6
ByLayer
 10
506.9999999999999432
 20
963.4000000000010004
 30
0.0
 11
559.5999999999989996
 21
963.4000000000010004
 31
0.0
  0
LINE
  5
5D
100
AcDbEntity
100
AcDbLine
  8
0
 62
256
370
-1
  6
ByLayer
 10
506.9999999999999432
 20
971.1000000000010459
 30
0.0
 11
551.8999999999989541
 21
971.1000000000010459
 31
0.0
  0
LINE
  5
5E
100
AcDbEntity
100
AcDbLine
  8
0
 62
256
370
-1
  6
ByLayer
 10
506.9999999999999432
 20
978.8000000000010914
 30
0.0
 11
544.1999999999989086
 21
978.8000000000010914
 31
0.0
  0
LINE
  5
5F
100
AcDbEntity
100
AcDbLine
  8
0
 62
256
370
-1
  6
ByLayer
 10
506.9999999999999432
 20
986.5000000000011369
 30
0.0
 11
536.4999999999988631
 21
986.5000000000011369
 31
0.0
  0
LINE
  5
60
100
AcDbEntity
100
AcDbLine
  8
0
 62
256
370
-1
  6
ByLayer
 10
506.9999999999999432
 20
994.2000000000011823
 30
0.0
 11
528.7999999999988177
 21
994.2000000000011823
 31
0.0
  0
LINE
  5
61
100
AcDbEntity
100
AcDbLine
  8
0
 62
256
370
-1
  6
ByLayer
 10
506.9999999999999432
 20
1001.9000000000012278
 30
0.0
 11
521.0999999999987722
 21
1001.9000000000012278
 31
0.0
  0
LINE
  5
62
100
AcDbEntity
100
AcDbLine
  8
0
 62
256
370
-1
  6
ByLayer
 10
506.9999999999999432
 20
1009.6000000000012733
 30
0.0
 11
513.3999999999987267
 21
1009.6000000000012733
 31
0.0
  0
LINE
  5
63
100
AcDbEntity
100
AcDbLine
  8
0
 62
256
370
-1
  6
ByLayer
 10
507.0
 20
1027.3137084989848518
 30
0.0
 11
740.3137084989848518
 21
794.0
 31
0.0
  0
LINE
  5
64
100
AcDbEntity
100
AcDbLine
  8
osie
 62
256
370
-1
  6
ByLayer
 10
377.0
 20
754.0
 30
0.0
 11
377.0
 21
1041.0
 31
0.0
  0
LINE
  5
65
100
AcDbEntity
100
AcDbLine
  8
0
 62
256
370
-1
  6
ByLayer
 10
450.5
 20
794.0
 30
0.0
 11
450.5
 21
1011.0
 31
0.0
  0
LINE
  5
66
100
AcDbEntity
100
AcDbLine
  8
0
 62
256
370
-1
  6
ByLayer
 10
372.0
 20
1011.0
 30
0.0
 11
482.0
 21
1011.0
 31
0.0
  0
LINE
  5
67
100
AcDbEntity
100
AcDbLine
  8
0
 62
256
370
-1
  6
ByLayer
 10
482.0
 20
794.0
 30
0.0
 11
482.0
 21
1011.0
 31
0.0
  0
LINE
  5
68
100
AcDbEntity
100
AcDbLine
  8
0
 62
256
370
-1
  6
ByLayer
 10
450.5
 20
801.7000000000000455
 30
0.0
 11
482.0
 21
801.7000000000000455
 31
0.0
  0
LINE
  5
69
100
AcDbEntity
100
AcDbLine
  8
0
 62
256
370
-1
  6
ByLayer
 10
450.5
 20
809.4000000000000909
 30
0.0
 11
482.0
 21
809.4000000000000909
 31
0.0
  0
LINE
  5
6A
100
AcDbEntity
100
AcDbLine
  8
0
 62
256
370
-1
  6
ByLayer
 10
450.5
 20
817.1000000000001364
 30
0.0
 11
482.0
 21
817.1000000000001364
 31
0.0
  0
LINE
  5
6B
100
AcDbEntity
100
AcDbLine
  8
0
 62
256
370
-1
  6
ByLayer
 10
450.5
 20
824.8000000000001819
 30
0.0
 11
482.0
 21
824.8000000000001819
 31
0.0
  0
LINE
  5
6C
100
AcDbEntity
100
AcDbLine
  8
0
 62
256
370
-1
  6
ByLayer
 10
450.5
 20
832.5000000000002274
 30
0.0
 11
482.0
 21
832.5000000000002274
 31
0.0
  0
LINE
  5
6D
100
AcDbEntity
100
AcDbLine
  8
0
 62
256
370
-1
  6
ByLayer
 10
450.5
 20
840.2000000000002728
 30
0.0
 11
482.0
 21
840.2000000000002728
 31
0.0
  0
LINE
  5
6E
100
AcDbEntity
100
AcDbLine
  8
0
 62
256
370
-1
  6
ByLayer
 10
450.5
 20
847.9000000000003183
 30
0.0
 11
482.0
 21
847.9000000000003183
 31
0.0
  0
LINE
  5
6F
100
AcDbEntity
100
AcDbLine
  8
0
 62
256
370
-1
  6
ByLayer
 10
450.5
 20
855.6000000000003638
 30
0.0
 11
482.0
 21
855.6000000000003638
 31
0.0
  0
LINE
  5
70
100
AcDbEntity
100
AcDbLine
  8
0
 62
256
370
-1
  6
ByLayer
 10
450.5
 20
863.3000000000004093
 30
0.0
 11
482.0
 21
863.3000000000004093
 31
0.0
  0
LINE
  5
71
100
AcDbEntity
100
AcDbLine
  8
0
 62
256
370
-1
  6
ByLayer
 10
450.5
 20
878.7000000000005002
 30
0.0
 11
482.0
 21
878.7000000000005002
 31
0.0
  0
LINE
  5
72
100
AcDbEntity
100
AcDbLine
  8
0
 62
256
370
-1
  6
ByLayer
 10
450.5
 20
886.4000000000005457
 30
0.0
 11
482.0
 21
886.4000000000005457
 31
0.0
  0
LINE
  5
73
100
AcDbEntity
100
AcDbLine
  8
0
 62
256
370
-1
  6
ByLayer
 10
450.5
 20
894.1000000000005912
 30
0.0
 11
482.0
 21
894.1000000000005912
 31
0.0
  0
LINE
  5
74
100
AcDbEntity
100
AcDbLine
  8
0
 62
256
370
-1
  6
ByLayer
 10
450.5
 20
901.8000000000006366
 30
0.0
 11
482.0
 21
901.8000000000006366
 31
0.0
  0
LINE
  5
75
100
AcDbEntity
100
AcDbLine
  8
0
 62
256
370
-1
  6
ByLayer
 10
450.5
 20
909.5000000000006821
 30
0.0
 11
482.0
 21
909.5000000000006821
 31
0.0
  0
LINE
  5
76
100
AcDbEntity
100
AcDbLine
  8
0
 62
256
370
-1
  6
ByLayer
 10
450.5
 20
917.2000000000007276
 30
0.0
 11
482.0
 21
917.2000000000007276
 31
0.0
  0
LINE
  5
77
100
AcDbEntity
100
AcDbLine
  8
0
 62
256
370
-1
  6
ByLayer
 10
450.5
 20
924.9000000000007731
 30
0.0
 11
482.0
 21
924.9000000000007731
 31
0.0
  0
LINE
  5
78
100
AcDbEntity
100
AcDbLine
  8
0
 62
256
370
-1
  6
ByLayer
 10
450.5
 20
932.6000000000008185
 30
0.0
 11
482.0
 21
932.6000000000008185
 31
0.0
  0
LINE
  5
79
100
AcDbEntity
100
AcDbLine
  8
0
 62
256
370
-1
  6
ByLayer
 10
450.5
 20
940.300000000000864
 30
0.0
 11
482.0
 21
940.300000000000864
 31
0.0
  0
LINE
  5
7A
100
AcDbEntity
100
AcDbLine
  8
0
 62
256
370
-1
  6
ByLayer
 10
450.5
 20
955.700000000000955
 30
0.0
 11
482.0
 21
955.700000000000955
 31
0.0
  0
LINE
  5
7B
100
AcDbEntity
100
AcDbLine
  8
0
 62
256
370
-1
  6
ByLayer
 10
450.5
 20
963.4000000000010004
 30
0.0
 11
482.0
 21
963.4000000000010004
 31
0.0
  0
LINE
  5
7C
100
AcDbEntity
100
AcDbLine
  8
0
 62
256
370
-1
  6
ByLayer
 10
450.5
 20
971.1000000000010459
 30
0.0
 11
482.0
 21
971.1000000000010459
 31
0.0
  0
LINE
  5
7D
100
AcDbEntity
100
AcDbLine
  8
0
 62
256
370
-1
  6
ByLayer
 10
450.5
 20
978.8000000000010914
 30
0.0
 11
482.0
 21
978.8000000000010914
 31
0.0
  0
LINE
  5
7E
100
AcDbEntity
100
AcDbLine
  8
0
 62
256
370
-1
  6
ByLayer
 10
450.5
 20
986.5000000000011369
 30
0.0
 11
482.0
 21
986.5000000000011369
 31
0.0
  0
LINE
  5
7F
100
AcDbEntity
100
AcDbLine
  8
0
 62
256
370
-1
  6
ByLayer
 10
450.5
 20
994.2000000000011823
 30
0.0
 11
482.0
 21
994.2000000000011823
 31
0.0
  0
LINE
  5
80
100
AcDbEntity
100
AcDbLine
  8
0
 62
256
370
-1
  6
ByLayer
 10
450.5
 20
1001.9000000000012278
 30
0.0
 11
482.0
 21
1001.9000000000012278
 31
0.0
  0
LINE
  5
81
100
AcDbEntity
100
AcDbLine
  8
0
 62
256
370
-1
  6
ByLayer
 10
507.0
 20
766.2000000000000455
 30
0.0
 11
721.2999999999999545
 21
766.2000000000000455
 31
0.0
  0
LINE
  5
82
100
AcDbEntity
100
AcDbLine
  8
0
 62
256
370
-1
  6
ByLayer
 10
371.9999999999999432
 20
777.8690000000000282
 30
0.0
 11
381.9999999999999432
 21
777.8690000000000282
 31
0.0
  0
LINE
  5
83
100
AcDbEntity
100
AcDbLine
  8
0
 62
4
370
-1
  6
ByLayer
 10
506.9999999999999432
 20
871.0000000000004547
 30
0.0
 11
651.9999999999995453
 21
871.0000000000004547
 31
0.0
  0
LINE
  5
84
100
AcDbEntity
100
AcDbLine
  8
0
 62
4
370
-1
  6
ByLayer
 10
506.9999999999999432
 20
948.0000000000009095
 30
0.0
 11
574.9999999999990905
 21
948.0000000000009095
 31
0.0
  0
LINE
  5
85
100
AcDbEntity
100
AcDbLine
  8
0
 62
256
370
-1
  6
ByLayer
 10
450.5
 20
461.7000000000000455
 30
0.0
 11
450.5
 21
754.0
 31
0.0
  0
LINE
  5
86
100
AcDbEntity
100
AcDbLine
  8
0
 62
256
370
-1
  6
ByLayer
 10
450.5
 20
469.4000000000000341
 30
0.0
 11
754.0
 21
469.4000000000000341
 31
0.0
  0
LINE
  5
87
100
AcDbEntity
100
AcDbLine
  8
0
 62
256
370
-1
  6
ByLayer
 10
450.5
 20
477.1000000000000227
 30
0.0
 11
754.0
 21
477.1000000000000227
 31
0.0
  0
LINE
  5
88
100
AcDbEntity
100
AcDbLine
  8
0
 62
256
370
-1
  6
ByLayer
 10
450.5
 20
484.8000000000000114
 30
0.0
 11
754.0
 21
484.8000000000000114
 31
0.0
  0
LINE
  5
89
100
AcDbEntity
100
AcDbLine
  8
0
 62
256
370
-1
  6
ByLayer
 10
450.5
 20
492.5
 30
0.0
 11
754.0
 21
492.5
 31
0.0
  0
LINE
  5
8A
100
AcDbEntity
100
AcDbLine
  8
0
 62
256
370
-1
  6
ByLayer
 10
450.5
 20
500.1999999999999886
 30
0.0
 11
754.0
 21
500.1999999999999886
 31
0.0
  0
LINE
  5
8B
100
AcDbEntity
100
AcDbLine
  8
0
 62
256
370
-1
  6
ByLayer
 10
450.5
 20
507.8999999999999773
 30
0.0
 11
754.0
 21
507.8999999999999773
 31
0.0
  0
LINE
  5
8C
100
AcDbEntity
100
AcDbLine
  8
0
 62
256
370
-1
  6
ByLayer
 10
450.5
 20
515.6000000000000227
 30
0.0
 11
754.0
 21
515.6000000000000227
 31
0.0
  0
LINE
  5
8D
100
AcDbEntity
100
AcDbLine
  8
0
 62
256
370
-1
  6
ByLayer
 10
450.5
 20
523.3000000000000682
 30
0.0
 11
754.0
 21
523.3000000000000682
 31
0.0
  0
LINE
  5
8E
100
AcDbEntity
100
AcDbLine
  8
0
 62
256
370
-1
  6
ByLayer
 10
450.5
 20
531.0000000000001137
 30
0.0
 11
754.0
 21
531.0000000000001137
 31
0.0
  0
LINE
  5
8F
100
AcDbEntity
100
AcDbLine
  8
0
 62
256
370
-1
  6
ByLayer
 10
450.5
 20
546.4000000000002046
 30
0.0
 11
754.0
 21
546.4000000000002046
 31
0.0
  0
LINE
  5
90
100
AcDbEntity
100
AcDbLine
  8
0
 62
256
370
-1
  6
ByLayer
 10
450.5
 20
554.1000000000002501
 30
0.0
 11
754.0
 21
554.1000000000002501
 31
0.0
  0
LINE
  5
91
100
AcDbEntity
100
AcDbLine
  8
0
 62
256
370
-1
  6
ByLayer
 10
450.5
 20
561.8000000000002956
 30
0.0
 11
754.0
 21
561.8000000000002956
 31
0.0
  0
LINE
  5
92
100
AcDbEntity
100
AcDbLine
  8
0
 62
256
370
-1
  6
ByLayer
 10
450.5
 20
569.5000000000003411
 30
0.0
 11
754.0
 21
569.5000000000003411
 31
0.0
  0
LINE
  5
93
100
AcDbEntity
100
AcDbLine
  8
0
 62
256
370
-1
  6
ByLayer
 10
450.5
 20
577.2000000000003865
 30
0.0
 11
754.0
 21
577.2000000000003865
 31
0.0
  0
LINE
  5
94
100
AcDbEntity
100
AcDbLine
  8
0
 62
256
370
-1
  6
ByLayer
 10
450.5
 20
584.900000000000432
 30
0.0
 11
754.0
 21
584.900000000000432
 31
0.0
  0
LINE
  5
95
100
AcDbEntity
100
AcDbLine
  8
0
 62
256
370
-1
  6
ByLayer
 10
450.5
 20
592.6000000000004775
 30
0.0
 11
754.0
 21
592.6000000000004775
 31
0.0
  0
LINE
  5
96
100
AcDbEntity
100
AcDbLine
  8
0
 62
256
370
-1
  6
ByLayer
 10
450.5
 20
600.300000000000523
 30
0.0
 11
754.0
 21
600.300000000000523
 31
0.0
  0
LINE
  5
97
100
AcDbEntity
100
AcDbLine
  8
0
 62
256
370
-1
  6
ByLayer
 10
450.5
 20
608.0000000000005684
 30
0.0
 11
754.0
 21
608.0000000000005684
 31
0.0
  0
LINE
  5
98
100
AcDbEntity
100
AcDbLine
  8
0
 62
256
370
-1
  6
ByLayer
 10
450.5
 20
623.4000000000006594
 30
0.0
 11
754.0
 21
623.4000000000006594
 31
0.0
  0
LINE
  5
99
100
AcDbEntity
100
AcDbLine
  8
0
 62
256
370
-1
  6
ByLayer
 10
450.5
 20
631.1000000000007049
 30
0.0
 11
754.0
 21
631.1000000000007049
 31
0.0
  0
LINE
  5
9A
100
AcDbEntity
100
AcDbLine
  8
0
 62
256
370
-1
  6
ByLayer
 10
450.5
 20
638.8000000000007503
 30
0.0
 11
754.0
 21
638.8000000000007503
 31
0.0
  0
LINE
  5
9B
100
AcDbEntity
100
AcDbLine
  8
0
 62
256
370
-1
  6
ByLayer
 10
450.5
 20
646.5000000000007958
 30
0.0
 11
754.0
 21
646.5000000000007958
 31
0.0
  0
LINE
  5
9C
100
AcDbEntity
100
AcDbLine
  8
0
 62
256
370
-1
  6
ByLayer
 10
450.5
 20
654.2000000000008413
 30
0.0
 11
754.0
 21
654.2000000000008413
 31
0.0
  0
LINE
  5
9D
100
AcDbEntity
100
AcDbLine
  8
0
 62
256
370
-1
  6
ByLayer
 10
450.5
 20
661.9000000000008868
 30
0.0
 11
754.0
 21
661.9000000000008868
 31
0.0
  0
LINE
  5
9E
100
AcDbEntity
100
AcDbLine
  8
0
 62
256
370
-1
  6
ByLayer
 10
450.5
 20
669.6000000000009322
 30
0.0
 11
754.0
 21
669.6000000000009322
 31
0.0
  0
LINE
  5
9F
100
AcDbEntity
100
AcDbLine
  8
0
 62
256
370
-1
  6
ByLayer
 10
450.5
 20
677.3000000000009777
 30
0.0
 11
754.0
 21
677.3000000000009777
 31
0.0
  0
LINE
  5
A0
100
AcDbEntity
100
AcDbLine
  8
0
 62
256
370
-1
  6
ByLayer
 10
450.5
 20
685.0000000000010232
 30
0.0
 11
754.0
 21
685.0000000000010232
 31
0.0
  0
LINE
  5
A1
100
AcDbEntity
100
AcDbLine
  8
0
 62
256
370
-1
  6
ByLayer
 10
450.5
 20
700.4000000000011141
 30
0.0
 11
754.0
 21
700.4000000000011141
 31
0.0
  0
LINE
  5
A2
100
AcDbEntity
100
AcDbLine
  8
0
 62
256
370
-1
  6
ByLayer
 10
450.5
 20
708.1000000000011596
 30
0.0
 11
754.0
 21
708.1000000000011596
 31
0.0
  0
LINE
  5
A3
100
AcDbEntity
100
AcDbLine
  8
0
 62
256
370
-1
  6
ByLayer
 10
450.5
 20
715.8000000000012051
 30
0.0
 11
754.0
 21
715.8000000000012051
 31
0.0
  0
LINE
  5
A4
100
AcDbEntity
100
AcDbLine
  8
0
 62
256
370
-1
  6
ByLayer
 10
450.5
 20
723.5000000000012506
 30
0.0
 11
754.0
 21
723.5000000000012506
 31
0.0
  0
LINE
  5
A5
100
AcDbEntity
100
AcDbLine
  8
0
 62
256
370
-1
  6
ByLayer
 10
450.5
 20
731.200000000001296
 30
0.0
 11
754.0
 21
731.200000000001296
 31
0.0
  0
LINE
  5
A6
100
AcDbEntity
100
AcDbLine
  8
0
 62
256
370
-1
  6
ByLayer
 10
450.5
 20
738.9000000000013415
 30
0.0
 11
754.0
 21
738.9000000000013415
 31
0.0
  0
LINE
  5
A7
100
AcDbEntity
100
AcDbLine
  8
0
 62
256
370
-1
  6
ByLayer
 10
450.5
 20
746.600000000001387
 30
0.0
 11
754.0
 21
746.600000000001387
 31
0.0
  0
LINE
  5
A8
100
AcDbEntity
100
AcDbLine
  8
0
 62
4
370
-1
  6
ByLayer
 10
450.5
 20
461.7000000000000455
 30
0.0
 11
754.0
 21
461.7000000000000455
 31
0.0
  0
LINE
  5
A9
100
AcDbEntity
100
AcDbLine
  8
0
 62
4
370
-1
  6
ByLayer
 10
450.5
 20
538.7000000000001592
 30
0.0
 11
754.0
 21
538.7000000000001592
 31
0.0
  0
LINE
  5
AA
100
AcDbEntity
100
AcDbLine
  8
0
 62
4
370
-1
  6
ByLayer
 10
450.5
 20
615.7000000000006139
 30
0.0
 11
754.0
 21
615.7000000000006139
 31
0.0
  0
LINE
  5
AB
100
AcDbEntity
100
AcDbLine
  8
0
 62
4
370
-1
  6
ByLayer
 10
450.5
 20
692.7000000000010687
 30
0.0
 11
754.0
 21
692.7000000000010687
 31
0.0
  0
LINE
  5
AC
100
AcDbEntity
100
AcDbLine
  8
0
 62
4
370
-1
  6
ByLayer
 10
450.5
 20
871.0000000000004547
 30
0.0
 11
482.0
 21
871.0000000000004547
 31
0.0
  0
LINE
  5
AD
100
AcDbEntity
100
AcDbLine
  8
0
 62
4
370
-1
  6
ByLayer
 10
450.5
 20
948.0000000000009095
 30
0.0
 11
482.0
 21
948.0000000000009095
 31
0.0
  0
LINE
  5
AE
100
AcDbEntity
100
AcDbLine
  8
0
 62
256
370
-1
  6
ByLayer
 10
0.0
 20
754.3000000000014325
 30
0.0
 11
754.0
 21
754.3000000000014325
 31
0.0
  0
LINE
  5
AF
100
AcDbEntity
100
AcDbLine
  8
poludniowy
 62
256
370
-1
  6
ByLayer
 10
774.0
 20
461.7000000000000455
 30
0.0
 11
774.0
 21
840.2000000000002728
 31
0.0
  0
LINE
  5
B0
100
AcDbEntity
100
AcDbLine
  8
poludniowy
 62
256
370
-1
  6
ByLayer
 10
754.0
 20
840.2000000000002728
 30
0.0
 11
786.5
 21
840.2000000000002728
 31
0.0
  0
LINE
  5
B1
100
AcDbEntity
100
AcDbLine
  8
0
 62
256
370
-1
  6
ByLayer
 10
754.0
 20
461.7000000000000455
 30
0.0
 11
754.0
 21
840.2000000000002728
 31
0.0
  0
LINE
  5
B2
100
AcDbEntity
100
AcDbLine
  8
0
 62
256
370
-1
  6
ByLayer
 10
729.0
 20
754.3000000000014325
 30
0.0
 11
729.0
 21
794.0
 31
0.0
  0
LINE
  5
B3
100
AcDbEntity
100
AcDbLine
  8
poludniowy
 62
256
370
-1
  6
ByLayer
 10
-159.0091567746881083
 20
793.9999999999998863
 30
0.0
 11
-159.0091567746881083
 21
855.75
 31
0.0
  0
LINE
  5
B4
100
AcDbEntity
100
AcDbLine
  8
poludniowy
 62
256
370
-1
  6
ByLayer
 10
-641.0091567746881083
 20
840.2000000000002728
 30
0.0
 11
-159.0091567746881083
 21
840.2000000000002728
 31
0.0
  0
LINE
  5
B5
100
AcDbEntity
100
AcDbLine
  8
poludniowy
 62
256
370
-1
  6
ByLayer
 10
-641.0091567746881083
 20
832.5000000000002274
 30
0.0
 11
-159.0091567746881083
 21
832.5000000000002274
 31
0.0
  0
LINE
  5
B6
100
AcDbEntity
100
AcDbLine
  8
poludniowy
 62
256
370
-1
  6
ByLayer
 10
-641.0091567746881083
 20
824.8000000000001819
 30
0.0
 11
-159.0091567746881083
 21
824.8000000000001819
 31
0.0
  0
LINE
  5
B7
100
AcDbEntity
100
AcDbLine
  8
poludniowy
 62
256
370
-1
  6
ByLayer
 10
-641.0091567746881083
 20
817.1000000000001364
 30
0.0
 11
-159.0091567746881083
 21
817.1000000000001364
 31
0.0
  0
LINE
  5
B8
100
AcDbEntity
100
AcDbLine
  8
poludniowy
 62
256
370
-1
  6
ByLayer
 10
-641.0091567746881083
 20
809.4000000000000909
 30
0.0
 11
-159.0091567746881083
 21
809.4000000000000909
 31
0.0
  0
LINE
  5
B9
100
AcDbEntity
100
AcDbLine
  8
poludniowy
 62
256
370
-1
  6
ByLayer
 10
-641.0091567746881083
 20
801.7000000000000455
 30
0.0
 11
-159.0091567746881083
 21
801.7000000000000455
 31
0.0
  0
LINE
  5
BA
100
AcDbEntity
100
AcDbLine
  8
poludniowy
 62
256
370
-1
  6
ByLayer
 10
-641.0091567746881083
 20
794.0
 30
0.0
 11
-641.0091567746881083
 21
855.6000000000003638
 31
0.0
  0
LINE
  5
BB
100
AcDbEntity
100
AcDbLine
  8
poludniowy
 62
256
370
-1
  6
ByLayer
 10
-339.7591567746881651
 20
847.9000000000003183
 30
0.0
 11
-159.0091567746881083
 21
847.9000000000003183
 31
0.0
  0
LINE
  5
BC
100
AcDbEntity
100
AcDbLine
  8
poludniowy
 62
256
370
-1
  6
ByLayer
 10
-339.7591567746881651
 20
855.6000000000003638
 30
0.0
 11
-159.0091567746881083
 21
855.6000000000003638
 31
0.0
  0
LINE
  5
BD
100
AcDbEntity
100
AcDbLine
  8
poludniowy
 62
256
370
-1
  6
ByLayer
 10
-460.2591567746881651
 20
840.2000000000002728
 30
0.0
 11
-460.2591567746881651
 21
1041.0
 31
0.0
  0
ARC
  5
BE
100
AcDbEntity
  8
poludniowy
 62
256
370
-1
  6
ByLayer
100
AcDbCircle
 10
-400.0091567746881651
 20
819.7686410000000024
 30
0.0
 40
191.2313589999999976
100
AcDbArc
 50
71.6353594444760375
 51
108.3646405555239767
  0
LINE
  5
BF
100
AcDbEntity
100
AcDbLine
  8
poludniowy
 62
256
370
-1
  6
ByLayer
 10
-339.7591567746881083
 20
963.4000000000010004
 30
0.0
 11
-266.6591567746891087
 21
963.4000000000010004
 31
0.0
  0
LINE
  5
C0
100
AcDbEntity
100
AcDbLine
  8
poludniowy
 62
256
370
-1
  6
ByLayer
 10
-339.7591567746881083
 20
986.5000000000011369
 30
0.0
 11
-289.7591567746891883
 21
986.5000000000011369
 31
0.0
  0
LINE
  5
C1
100
AcDbEntity
100
AcDbLine
  8
poludniowy
 62
256
370
-1
  6
ByLayer
 10
-339.7591567746881083
 20
994.2000000000011823
 30
0.0
 11
-297.4591567746892338
 21
994.2000000000011823
 31
0.0
  0
LINE
  5
C2
100
AcDbEntity
100
AcDbLine
  8
poludniowy
 62
256
370
-1
  6
ByLayer
 10
786.5
 20
461.7000000000000455
 30
0.0
 11
786.5
 21
855.75
 31
0.0
  0
LINE
  5
C3
100
AcDbEntity
100
AcDbLine
  8
poludniowy
 62
256
370
-1
  6
ByLayer
 10
725.2327560572970242
 20
855.75
 30
0.0
 11
786.5
 21
855.75
 31
0.0
  0
LINE
  5
C4
100
AcDbEntity
100
AcDbLine
  8
poludniowy
 62
256
370
-1
  6
ByLayer
 10
-387.5091567746881651
 20
794.0
 30
0.0
 11
-387.5091567746881651
 21
801.7000000000000455
 31
0.0
  0
LINE
  5
C5
100
AcDbEntity
100
AcDbLine
  8
poludniowy
 62
256
370
-1
  6
ByLayer
 10
-361.0091567746881651
 20
794.0
 30
0.0
 11
-361.0091567746881651
 21
801.7000000000000455
 31
0.0
  0
LINE
  5
C6
100
AcDbEntity
100
AcDbLine
  8
poludniowy
 62
256
370
-1
  6
ByLayer
 10
-386.0091567746881651
 20
794.0
 30
0.0
 11
-386.0091567746881651
 21
801.7000000000000455
 31
0.0
  0
LINE
  5
C7
100
AcDbEntity
100
AcDbLine
  8
poludniowy
 62
256
370
-1
  6
ByLayer
 10
-334.5091567746881651
 20
794.0
 30
0.0
 11
-334.5091567746881651
 21
801.7000000000000455
 31
0.0
  0
LINE
  5
C8
100
AcDbEntity
100
AcDbLine
  8
poludniowy
 62
256
370
-1
  6
ByLayer
 10
-359.5091567746881651
 20
794.0
 30
0.0
 11
-359.5091567746881651
 21
801.7000000000000455
 31
0.0
  0
LINE
  5
C9
100
AcDbEntity
100
AcDbLine
  8
poludniowy
 62
256
370
-1
  6
ByLayer
 10
-308.0091567746881651
 20
794.0
 30
0.0
 11
-308.0091567746881651
 21
801.7000000000000455
 31
0.0
  0
LINE
  5
CA
100
AcDbEntity
100
AcDbLine
  8
poludniowy
 62
256
370
-1
  6
ByLayer
 10
-333.0091567746881651
 20
794.0
 30
0.0
 11
-333.0091567746881651
 21
801.7000000000000455
 31
0.0
  0
LINE
  5
CB
100
AcDbEntity
100
AcDbLine
  8
poludniowy
 62
256
370
-1
  6
ByLayer
 10
-281.5091567746881651
 20
794.0
 30
0.0
 11
-281.5091567746881651
 21
801.7000000000000455
 31
0.0
  0
LINE
  5
CC
100
AcDbEntity
100
AcDbLine
  8
poludniowy
 62
256
370
-1
  6
ByLayer
 10
-306.5091567746881651
 20
794.0
 30
0.0
 11
-306.5091567746881651
 21
801.7000000000000455
 31
0.0
  0
LINE
  5
CD
100
AcDbEntity
100
AcDbLine
  8
poludniowy
 62
256
370
-1
  6
ByLayer
 10
-255.0091567746881083
 20
794.0
 30
0.0
 11
-255.0091567746881083
 21
801.7000000000000455
 31
0.0
  0
LINE
  5
CE
100
AcDbEntity
100
AcDbLine
  8
poludniowy
 62
256
370
-1
  6
ByLayer
 10
-280.0091567746881083
 20
794.0
 30
0.0
 11
-280.0091567746881083
 21
801.7000000000000455
 31
0.0
  0
LINE
  5
CF
100
AcDbEntity
100
AcDbLine
  8
poludniowy
 62
256
370
-1
  6
ByLayer
 10
-228.5091567746881083
 20
794.0
 30
0.0
 11
-228.5091567746881083
 21
801.7000000000000455
 31
0.0
  0
LINE
  5
D0
100
AcDbEntity
100
AcDbLine
  8
poludniowy
 62
256
370
-1
  6
ByLayer
 10
-253.5091567746881083
 20
794.0
 30
0.0
 11
-253.5091567746881083
 21
801.7000000000000455
 31
0.0
  0
LINE
  5
D1
100
AcDbEntity
100
AcDbLine
  8
poludniowy
 62
256
370
-1
  6
ByLayer
 10
-202.0091567746881083
 20
794.0
 30
0.0
 11
-202.0091567746881083
 21
801.7000000000000455
 31
0.0
  0
LINE
  5
D2
100
AcDbEntity
100
AcDbLine
  8
poludniowy
 62
256
370
-1
  6
ByLayer
 10
-227.0091567746881083
 20
794.0
 30
0.0
 11
-227.0091567746881083
 21
801.7000000000000455
 31
0.0
  0
LINE
  5
D3
100
AcDbEntity
100
AcDbLine
  8
poludniowy
 62
256
370
-1
  6
ByLayer
 10
-175.5091567746881083
 20
794.0
 30
0.0
 11
-175.5091567746881083
 21
801.7000000000000455
 31
0.0
  0
LINE
  5
D4
100
AcDbEntity
100
AcDbLine
  8
poludniowy
 62
256
370
-1
  6
ByLayer
 10
-200.5091567746881083
 20
794.0
 30
0.0
 11
-200.5091567746881083
 21
801.7000000000000455
 31
0.0
  0
LINE
  5
D5
100
AcDbEntity
100
AcDbLine
  8
poludniowy
 62
256
370
-1
  6
ByLayer
 10
-174.0091567746881083
 20
794.0
 30
0.0
 11
-174.0091567746881083
 21
801.7000000000000455
 31
0.0
  0
LINE
  5
D6
100
AcDbEntity
100
AcDbLine
  8
poludniowy
 62
256
370
-1
  6
ByLayer
 10
-412.5091567746881651
 20
794.0
 30
0.0
 11
-412.5091567746881651
 21
801.7000000000000455
 31
0.0
  0
LINE
  5
D7
100
AcDbEntity
100
AcDbLine
  8
poludniowy
 62
256
370
-1
  6
ByLayer
 10
-439.0091567746881651
 20
794.0
 30
0.0
 11
-439.0091567746881651
 21
801.7000000000000455
 31
0.0
  0
LINE
  5
D8
100
AcDbEntity
100
AcDbLine
  8
poludniowy
 62
256
370
-1
  6
ByLayer
 10
-414.009156774688222
 20
794.0
 30
0.0
 11
-414.009156774688222
 21
801.7000000000000455
 31
0.0
  0
LINE
  5
D9
100
AcDbEntity
100
AcDbLine
  8
poludniowy
 62
256
370
-1
  6
ByLayer
 10
-465.5091567746881651
 20
794.0
 30
0.0
 11
-465.5091567746881651
 21
801.7000000000000455
 31
0.0
  0
LINE
  5
DA
100
AcDbEntity
100
AcDbLine
  8
poludniowy
 62
256
370
-1
  6
ByLayer
 10
-440.5091567746881651
 20
794.0
 30
0.0
 11
-440.509156774688222
 21
801.7000000000000455
 31
0.0
  0
LINE
  5
DB
100
AcDbEntity
100
AcDbLine
  8
poludniowy
 62
256
370
-1
  6
ByLayer
 10
-492.0091567746881651
 20
794.0
 30
0.0
 11
-492.009156774688222
 21
801.7000000000000455
 31
0.0
  0
LINE
  5
DC
100
AcDbEntity
100
AcDbLine
  8
poludniowy
 62
256
370
-1
  6
ByLayer
 10
-467.0091567746881651
 20
794.0
 30
0.0
 11
-467.0091567746881651
 21
801.7000000000000455
 31
0.0
  0
LINE
  5
DD
100
AcDbEntity
100
AcDbLine
  8
poludniowy
 62
256
370
-1
  6
ByLayer
 10
-518.5091567746881083
 20
794.0
 30
0.0
 11
-518.5091567746881083
 21
801.7000000000000455
 31
0.0
  0
LINE
  5
DE
100
AcDbEntity
100
AcDbLine
  8
poludniowy
 62
256
370
-1
  6
ByLayer
 10
-493.5091567746881651
 20
794.0
 30
0.0
 11
-493.509156774688222
 21
801.7000000000000455
 31
0.0
  0
LINE
  5
DF
100
AcDbEntity
100
AcDbLine
  8
poludniowy
 62
256
370
-1
  6
ByLayer
 10
-545.009156774688222
 20
794.0
 30
0.0
 11
-545.009156774688222
 21
801.7000000000000455
 31
0.0
  0
LINE
  5
E0
100
AcDbEntity
100
AcDbLine
  8
poludniowy
 62
256
370
-1
  6
ByLayer
 10
-520.009156774688222
 20
794.0
 30
0.0
 11
-520.009156774688222
 21
801.7000000000001592
 31
0.0
  0
LINE
  5
E1
100
AcDbEntity
100
AcDbLine
  8
poludniowy
 62
256
370
-1
  6
ByLayer
 10
-571.509156774688222
 20
794.0
 30
0.0
 11
-571.509156774688222
 21
801.7000000000000455
 31
0.0
  0
LINE
  5
E2
100
AcDbEntity
100
AcDbLine
  8
poludniowy
 62
256
370
-1
  6
ByLayer
 10
-546.509156774688222
 20
794.0
 30
0.0
 11
-546.509156774688222
 21
801.7000000000001592
 31
0.0
  0
LINE
  5
E3
100
AcDbEntity
100
AcDbLine
  8
poludniowy
 62
256
370
-1
  6
ByLayer
 10
-598.009156774688222
 20
794.0000000000001137
 30
0.0
 11
-598.009156774688222
 21
801.7000000000000455
 31
0.0
  0
LINE
  5
E4
100
AcDbEntity
100
AcDbLine
  8
poludniowy
 62
256
370
-1
  6
ByLayer
 10
-573.009156774688222
 20
794.0
 30
0.0
 11
-573.009156774688222
 21
801.7000000000000455
 31
0.0
  0
LINE
  5
E5
100
AcDbEntity
100
AcDbLine
  8
poludniowy
 62
256
370
-1
  6
ByLayer
 10
-624.509156774688222
 20
794.0
 30
0.0
 11
-624.509156774688222
 21
801.6999999999999318
 31
0.0
  0
LINE
  5
E6
100
AcDbEntity
100
AcDbLine
  8
poludniowy
 62
256
370
-1
  6
ByLayer
 10
-599.509156774688222
 20
794.0000000000001137
 30
0.0
 11
-599.509156774688222
 21
801.7000000000001592
 31
0.0
  0
LINE
  5
E7
100
AcDbEntity
100
AcDbLine
  8
poludniowy
 62
256
370
-1
  6
ByLayer
 10
-626.009156774688222
 20
793.9999999999998863
 30
0.0
 11
-626.009156774688222
 21
801.6999999999999318
 31
0.0
  0
LINE
  5
E8
100
AcDbEntity
100
AcDbLine
  8
poludniowy
 62
256
370
-1
  6
ByLayer
 10
-392.7591567746881651
 20
801.7000000000000455
 30
0.0
 11
-392.7591567746881651
 21
809.4000000000000909
 31
0.0
  0
LINE
  5
E9
100
AcDbEntity
100
AcDbLine
  8
poludniowy
 62
256
370
-1
  6
ByLayer
 10
-379.5091567746881651
 20
801.7000000000000455
 30
0.0
 11
-379.5091567746881651
 21
809.4000000000000909
 31
0.0
  0
LINE
  5
EA
100
AcDbEntity
100
AcDbLine
  8
poludniowy
 62
256
370
-1
  6
ByLayer
 10
-366.2591567746881651
 20
801.7000000000000455
 30
0.0
 11
-366.2591567746881651
 21
809.4000000000000909
 31
0.0
  0
LINE
  5
EB
100
AcDbEntity
100
AcDbLine
  8
poludniowy
 62
256
370
-1
  6
ByLayer
 10
-353.0091567746881651
 20
801.7000000000000455
 30
0.0
 11
-353.0091567746881651
 21
809.4000000000000909
 31
0.0
  0
LINE
  5
EC
100
AcDbEntity
100
AcDbLine
  8
poludniowy
 62
256
370
-1
  6
ByLayer
 10
-394.0091567746881651
 20
801.7000000000000455
 30
0.0
 11
-394.0091567746881651
 21
809.4000000000000909
 31
0.0
  0
LINE
  5
ED
100
AcDbEntity
100
AcDbLine
  8
poludniowy
 62
256
370
-1
  6
ByLayer
 10
-367.5091567746881651
 20
801.7000000000000455
 30
0.0
 11
-367.5091567746881651
 21
809.4000000000000909
 31
0.0
  0
LINE
  5
EE
100
AcDbEntity
100
AcDbLine
  8
poludniowy
 62
256
370
-1
  6
ByLayer
 10
-354.2591567746881651
 20
801.7000000000000455
 30
0.0
 11
-354.2591567746881651
 21
809.4000000000000909
 31
0.0
  0
LINE
  5
EF
100
AcDbEntity
100
AcDbLine
  8
poludniowy
 62
256
370
-1
  6
ByLayer
 10
-341.0091567746881651
 20
801.7000000000000455
 30
0.0
 11
-341.0091567746881651
 21
809.4000000000000909
 31
0.0
  0
LINE
  5
F0
100
AcDbEntity
100
AcDbLine
  8
poludniowy
 62
256
370
-1
  6
ByLayer
 10
-327.7591567746881651
 20
801.7000000000000455
 30
0.0
 11
-327.7591567746881651
 21
809.4000000000000909
 31
0.0
  0
LINE
  5
F1
100
AcDbEntity
100
AcDbLine
  8
poludniowy
 62
256
370
-1
  6
ByLayer
 10
-314.5091567746881651
 20
801.7000000000000455
 30
0.0
 11
-314.5091567746881651
 21
809.4000000000000909
 31
0.0
  0
LINE
  5
F2
100
AcDbEntity
100
AcDbLine
  8
poludniowy
 62
256
370
-1
  6
ByLayer
 10
-301.2591567746881651
 20
801.7000000000000455
 30
0.0
 11
-301.2591567746881651
 21
809.4000000000000909
 31
0.0
  0
LINE
  5
F3
100
AcDbEntity
100
AcDbLine
  8
poludniowy
 62
256
370
-1
  6
ByLayer
 10
-288.0091567746881651
 20
801.7000000000000455
 30
0.0
 11
-288.0091567746881651
 21
809.4000000000000909
 31
0.0
  0
LINE
  5
F4
100
AcDbEntity
100
AcDbLine
  8
poludniowy
 62
256
370
-1
  6
ByLayer
 10
-274.7591567746881651
 20
801.7000000000000455
 30
0.0
 11
-274.7591567746881651
 21
809.4000000000000909
 31
0.0
  0
LINE
  5
F5
100
AcDbEntity
100
AcDbLine
  8
poludniowy
 62
256
370
-1
  6
ByLayer
 10
-261.5091567746881651
 20
801.7000000000000455
 30
0.0
 11
-261.5091567746881651
 21
809.4000000000000909
 31
0.0
  0
LINE
  5
F6
100
AcDbEntity
100
AcDbLine
  8
poludniowy
 62
256
370
-1
  6
ByLayer
 10
-248.2591567746881651
 20
801.7000000000000455
 30
0.0
 11
-248.2591567746881651
 21
809.4000000000000909
 31
0.0
  0
LINE
  5
F7
100
AcDbEntity
100
AcDbLine
  8
poludniowy
 62
256
370
-1
  6
ByLayer
 10
-235.0091567746881651
 20
801.7000000000000455
 30
0.0
 11
-235.0091567746881651
 21
809.4000000000000909
 31
0.0
  0
LINE
  5
F8
100
AcDbEntity
100
AcDbLine
  8
poludniowy
 62
256
370
-1
  6
ByLayer
 10
-221.7591567746881651
 20
801.7000000000000455
 30
0.0
 11
-221.7591567746881651
 21
809.4000000000000909
 31
0.0
  0
LINE
  5
F9
100
AcDbEntity
100
AcDbLine
  8
poludniowy
 62
256
370
-1
  6
ByLayer
 10
-208.5091567746881651
 20
801.7000000000000455
 30
0.0
 11
-208.5091567746881651
 21
809.4000000000000909
 31
0.0
  0
LINE
  5
FA
100
AcDbEntity
100
AcDbLine
  8
poludniowy
 62
256
370
-1
  6
ByLayer
 10
-195.2591567746881651
 20
801.7000000000000455
 30
0.0
 11
-195.2591567746881651
 21
809.4000000000000909
 31
0.0
  0
LINE
  5
FB
100
AcDbEntity
100
AcDbLine
  8
poludniowy
 62
256
370
-1
  6
ByLayer
 10
-182.0091567746881651
 20
801.7000000000000455
 30
0.0
 11
-182.0091567746881651
 21
809.4000000000000909
 31
0.0
  0
LINE
  5
FC
100
AcDbEntity
100
AcDbLine
  8
poludniowy
 62
256
370
-1
  6
ByLayer
 10
-168.7591567746881651
 20
801.7000000000000455
 30
0.0
 11
-168.7591567746881651
 21
809.4000000000000909
 31
0.0
  0
LINE
  5
FD
100
AcDbEntity
100
AcDbLine
  8
poludniowy
 62
256
370
-1
  6
ByLayer
 10
-339.7591567746881651
 20
801.7000000000000455
 30
0.0
 11
-339.7591567746881651
 21
809.4000000000000909
 31
0.0
  0
LINE
  5
FE
100
AcDbEntity
100
AcDbLine
  8
poludniowy
 62
256
370
-1
  6
ByLayer
 10
-326.5091567746881651
 20
801.7000000000000455
 30
0.0
 11
-326.5091567746881651
 21
809.4000000000000909
 31
0.0
  0
LINE
  5
FF
100
AcDbEntity
100
AcDbLine
  8
poludniowy
 62
256
370
-1
  6
ByLayer
 10
-313.2591567746881651
 20
801.7000000000000455
 30
0.0
 11
-313.2591567746881651
 21
809.4000000000000909
 31
0.0
  0
LINE
  5
100
100
AcDbEntity
100
AcDbLine
  8
poludniowy
 62
256
370
-1
  6
ByLayer
 10
-300.0091567746881651
 20
801.7000000000000455
 30
0.0
 11
-300.0091567746881651
 21
809.4000000000000909
 31
0.0
  0
LINE
  5
101
100
AcDbEntity
100
AcDbLine
  8
poludniowy
 62
256
370
-1
  6
ByLayer
 10
-286.7591567746881651
 20
801.7000000000000455
 30
0.0
 11
-286.7591567746881651
 21
809.4000000000000909
 31
0.0
  0
LINE
  5
102
100
AcDbEntity
100
AcDbLine
  8
poludniowy
 62
256
370
-1
  6
ByLayer
 10
-273.5091567746881651
 20
801.7000000000000455
 30
0.0
 11
-273.5091567746881651
 21
809.4000000000000909
 31
0.0
  0
LINE
  5
103
100
AcDbEntity
100
AcDbLine
  8
poludniowy
 62
256
370
-1
  6
ByLayer
 10
-260.2591567746881651
 20
801.7000000000000455
 30
0.0
 11
-260.2591567746881651
 21
809.4000000000000909
 31
0.0
  0
LINE
  5
104
100
AcDbEntity
100
AcDbLine
  8
poludniowy
 62
256
370
-1
  6
ByLayer
 10
-247.0091567746881651
 20
801.7000000000000455
 30
0.0
 11
-247.0091567746881651
 21
809.4000000000000909
 31
0.0
  0
LINE
  5
105
100
AcDbEntity
100
AcDbLine
  8
poludniowy
 62
256
370
-1
  6
ByLayer
 10
-233.7591567746881651
 20
801.7000000000000455
 30
0.0
 11
-233.7591567746881651
 21
809.4000000000000909
 31
0.0
  0
LINE
  5
106
100
AcDbEntity
100
AcDbLine
  8
poludniowy
 62
256
370
-1
  6
ByLayer
 10
-220.5091567746881651
 20
801.7000000000000455
 30
0.0
 11
-220.5091567746881651
 21
809.4000000000000909
 31
0.0
  0
LINE
  5
107
100
AcDbEntity
100
AcDbLine
  8
poludniowy
 62
256
370
-1
  6
ByLayer
 10
-207.2591567746881651
 20
801.7000000000000455
 30
0.0
 11
-207.2591567746881651
 21
809.4000000000000909
 31
0.0
  0
LINE
  5
108
100
AcDbEntity
100
AcDbLine
  8
poludniowy
 62
256
370
-1
  6
ByLayer
 10
-194.0091567746881651
 20
801.7000000000000455
 30
0.0
 11
-194.0091567746881651
 21
809.4000000000000909
 31
0.0
  0
LINE
  5
109
100
AcDbEntity
100
AcDbLine
  8
poludniowy
 62
256
370
-1
  6
ByLayer
 10
-180.7591567746881651
 20
801.7000000000000455
 30
0.0
 11
-180.7591567746881651
 21
809.4000000000000909
 31
0.0
  0
LINE
  5
10A
100
AcDbEntity
100
AcDbLine
  8
poludniowy
 62
256
370
-1
  6
ByLayer
 10
-167.5091567746881651
 20
801.7000000000000455
 30
0.0
 11
-167.5091567746881651
 21
809.4000000000000909
 31
0.0
  0
LINE
  5
10B
100
AcDbEntity
100
AcDbLine
  8
poludniowy
 62
256
370
-1
  6
ByLayer
 10
-380.7591567746881651
 20
801.7000000000000455
 30
0.0
 11
-380.7591567746881651
 21
809.4000000000000909
 31
0.0
  0
LINE
  5
10C
100
AcDbEntity
100
AcDbLine
  8
poludniowy
 62
256
370
-1
  6
ByLayer
 10
-407.259156774688222
 20
801.7000000000000455
 30
0.0
 11
-407.2591567746881651
 21
809.4000000000000909
 31
0.0
  0
LINE
  5
10D
100
AcDbEntity
100
AcDbLine
  8
poludniowy
 62
256
370
-1
  6
ByLayer
 10
-420.5091567746881651
 20
801.7000000000000455
 30
0.0
 11
-420.5091567746881651
 21
809.4000000000000909
 31
0.0
  0
LINE
  5
10E
100
AcDbEntity
100
AcDbLine
  8
poludniowy
 62
256
370
-1
  6
ByLayer
 10
-433.7591567746881651
 20
801.7000000000000455
 30
0.0
 11
-433.759156774688222
 21
809.4000000000000909
 31
0.0
  0
LINE
  5
10F
100
AcDbEntity
100
AcDbLine
  8
poludniowy
 62
256
370
-1
  6
ByLayer
 10
-447.009156774688222
 20
801.7000000000000455
 30
0.0
 11
-447.0091567746881651
 21
809.4000000000000909
 31
0.0
  0
LINE
  5
110
100
AcDbEntity
100
AcDbLine
  8
poludniowy
 62
256
370
-1
  6
ByLayer
 10
-406.009156774688222
 20
801.7000000000000455
 30
0.0
 11
-406.0091567746881651
 21
809.4000000000000909
 31
0.0
  0
LINE
  5
111
100
AcDbEntity
100
AcDbLine
  8
poludniowy
 62
256
370
-1
  6
ByLayer
 10
-432.5091567746881651
 20
801.7000000000000455
 30
0.0
 11
-432.5091567746881651
 21
809.4000000000000909
 31
0.0
  0
LINE
  5
112
100
AcDbEntity
100
AcDbLine
  8
poludniowy
 62
256
370
-1
  6
ByLayer
 10
-445.7591567746881651
 20
801.7000000000000455
 30
0.0
 11
-445.7591567746881651
 21
809.4000000000000909
 31
0.0
  0
LINE
  5
113
100
AcDbEntity
100
AcDbLine
  8
poludniowy
 62
256
370
-1
  6
ByLayer
 10
-459.0091567746881651
 20
801.7000000000000455
 30
0.0
 11
-459.0091567746881651
 21
809.4000000000000909
 31
0.0
  0
LINE
  5
114
100
AcDbEntity
100
AcDbLine
  8
poludniowy
 62
256
370
-1
  6
ByLayer
 10
-472.2591567746881651
 20
801.7000000000000455
 30
0.0
 11
-472.2591567746881651
 21
809.4000000000000909
 31
0.0
  0
LINE
  5
115
100
AcDbEntity
100
AcDbLine
  8
poludniowy
 62
256
370
-1
  6
ByLayer
 10
-485.509156774688222
 20
801.7000000000000455
 30
0.0
 11
-485.5091567746881651
 21
809.4000000000000909
 31
0.0
  0
LINE
  5
116
100
AcDbEntity
100
AcDbLine
  8
poludniowy
 62
256
370
-1
  6
ByLayer
 10
-498.7591567746881651
 20
801.7000000000000455
 30
0.0
 11
-498.759156774688222
 21
809.4000000000000909
 31
0.0
  0
LINE
  5
117
100
AcDbEntity
100
AcDbLine
  8
poludniowy
 62
256
370
-1
  6
ByLayer
 10
-512.0091567746881083
 20
801.7000000000000455
 30
0.0
 11
-512.009156774688222
 21
809.4000000000000909
 31
0.0
  0
LINE
  5
118
100
AcDbEntity
100
AcDbLine
  8
poludniowy
 62
256
370
-1
  6
ByLayer
 10
-525.2591567746881083
 20
801.7000000000000455
 30
0.0
 11
-525.2591567746881083
 21
809.4000000000000909
 31
0.0
  0
LINE
  5
119
100
AcDbEntity
100
AcDbLine
  8
poludniowy
 62
256
370
-1
  6
ByLayer
 10
-538.509156774688222
 20
801.7000000000000455
 30
0.0
 11
-538.509156774688222
 21
809.4000000000000909
 31
0.0
  0
LINE
  5
11A
100
AcDbEntity
100
AcDbLine
  8
poludniowy
 62
256
370
-1
  6
ByLayer
 10
-551.7591567746881083
 20
801.7000000000000455
 30
0.0
 11
-551.759156774688222
 21
809.4000000000002046
 31
0.0
  0
LINE
  5
11B
100
AcDbEntity
100
AcDbLine
  8
poludniowy
 62
256
370
-1
  6
ByLayer
 10
-565.0091567746881083
 20
801.7000000000000455
 30
0.0
 11
-565.0091567746881083
 21
809.4000000000000909
 31
0.0
  0
LINE
  5
11C
100
AcDbEntity
100
AcDbLine
  8
poludniowy
 62
256
370
-1
  6
ByLayer
 10
-578.2591567746881083
 20
801.7000000000000455
 30
0.0
 11
-578.259156774688222
 21
809.4000000000000909
 31
0.0
  0
LINE
  5
11D
100
AcDbEntity
100
AcDbLine
  8
poludniowy
 62
256
370
-1
  6
ByLayer
 10
-591.509156774688222
 20
801.7000000000001592
 30
0.0
 11
-591.509156774688222
 21
809.4000000000000909
 31
0.0
  0
LINE
  5
11E
100
AcDbEntity
100
AcDbLine
  8
poludniowy
 62
256
370
-1
  6
ByLayer
 10
-604.759156774688222
 20
801.7000000000000455
 30
0.0
 11
-604.7591567746881083
 21
809.3999999999999773
 31
0.0
  0
LINE
  5
11F
100
AcDbEntity
100
AcDbLine
  8
poludniowy
 62
256
370
-1
  6
ByLayer
 10
-618.009156774688222
 20
801.7000000000000455
 30
0.0
 11
-618.0091567746881083
 21
809.3999999999999773
 31
0.0
  0
LINE
  5
120
100
AcDbEntity
100
AcDbLine
  8
poludniowy
 62
256
370
-1
  6
ByLayer
 10
-631.2591567746881083
 20
801.6999999999999318
 30
0.0
 11
-631.2591567746881083
 21
809.3999999999999773
 31
0.0
  0
LINE
  5
121
100
AcDbEntity
100
AcDbLine
  8
poludniowy
 62
256
370
-1
  6
ByLayer
 10
-460.2591567746881651
 20
801.7000000000000455
 30
0.0
 11
-460.2591567746881651
 21
809.4000000000000909
 31
0.0
  0
LINE
  5
122
100
AcDbEntity
100
AcDbLine
  8
poludniowy
 62
256
370
-1
  6
ByLayer
 10
-473.509156774688222
 20
801.7000000000000455
 30
0.0
 11
-473.5091567746881651
 21
809.4000000000000909
 31
0.0
  0
LINE
  5
123
100
AcDbEntity
100
AcDbLine
  8
poludniowy
 62
256
370
-1
  6
ByLayer
 10
-486.7591567746881651
 20
801.7000000000000455
 30
0.0
 11
-486.7591567746881651
 21
809.4000000000000909
 31
0.0
  0
LINE
  5
124
100
AcDbEntity
100
AcDbLine
  8
poludniowy
 62
256
370
-1
  6
ByLayer
 10
-500.0091567746881651
 20
801.7000000000000455
 30
0.0
 11
-500.0091567746881651
 21
809.4000000000000909
 31
0.0
  0
LINE
  5
125
100
AcDbEntity
100
AcDbLine
  8
poludniowy
 62
256
370
-1
  6
ByLayer
 10
-513.2591567746881083
 20
801.7000000000000455
 30
0.0
 11
-513.2591567746881083
 21
809.4000000000000909
 31
0.0
  0
LINE
  5
126
100
AcDbEntity
100
AcDbLine
  8
poludniowy
 62
256
370
-1
  6
ByLayer
 10
-526.509156774688222
 20
801.7000000000000455
 30
0.0
 11
-526.5091567746881083
 21
809.4000000000000909
 31
0.0
  0
LINE
  5
127
100
AcDbEntity
100
AcDbLine
  8
poludniowy
 62
256
370
-1
  6
ByLayer
 10
-539.7591567746881083
 20
801.7000000000000455
 30
0.0
 11
-539.759156774688222
 21
809.4000000000000909
 31
0.0
  0
LINE
  5
128
100
AcDbEntity
100
AcDbLine
  8
poludniowy
 62
256
370
-1
  6
ByLayer
 10
-553.009156774688222
 20
801.7000000000000455
 30
0.0
 11
-553.009156774688222
 21
809.4000000000002046
 31
0.0
  0
LINE
  5
129
100
AcDbEntity
100
AcDbLine
  8
poludniowy
 62
256
370
-1
  6
ByLayer
 10
-566.259156774688222
 20
801.7000000000000455
 30
0.0
 11
-566.2591567746881083
 21
809.4000000000000909
 31
0.0
  0
LINE
  5
12A
100
AcDbEntity
100
AcDbLine
  8
poludniowy
 62
256
370
-1
  6
ByLayer
 10
-579.5091567746881083
 20
801.7000000000000455
 30
0.0
 11
-579.5091567746881083
 21
809.4000000000000909
 31
0.0
  0
LINE
  5
12B
100
AcDbEntity
100
AcDbLine
  8
poludniowy
 62
256
370
-1
  6
ByLayer
 10
-592.759156774688222
 20
801.7000000000001592
 30
0.0
 11
-592.7591567746881083
 21
809.3999999999999773
 31
0.0
  0
LINE
  5
12C
100
AcDbEntity
100
AcDbLine
  8
poludniowy
 62
256
370
-1
  6
ByLayer
 10
-606.009156774688222
 20
801.7000000000001592
 30
0.0
 11
-606.009156774688222
 21
809.4000000000000909
 31
0.0
  0
LINE
  5
12D
100
AcDbEntity
100
AcDbLine
  8
poludniowy
 62
256
370
-1
  6
ByLayer
 10
-619.259156774688222
 20
801.7000000000001592
 30
0.0
 11
-619.259156774688222
 21
809.4000000000000909
 31
0.0
  0
LINE
  5
12E
100
AcDbEntity
100
AcDbLine
  8
poludniowy
 62
256
370
-1
  6
ByLayer
 10
-632.5091567746881083
 20
801.7000000000000455
 30
0.0
 11
-632.5091567746881083
 21
809.4000000000000909
 31
0.0
  0
LINE
  5
12F
100
AcDbEntity
100
AcDbLine
  8
poludniowy
 62
256
370
-1
  6
ByLayer
 10
-419.2591567746881651
 20
801.7000000000000455
 30
0.0
 11
-419.2591567746881651
 21
809.4000000000000909
 31
0.0
  0
LINE
  5
130
100
AcDbEntity
100
AcDbLine
  8
poludniowy
 62
256
370
-1
  6
ByLayer
 10
-374.2591567746881651
 20
809.4000000000000909
 30
0.0
 11
-374.2591567746881651
 21
817.1000000000001364
 31
0.0
  0
LINE
  5
131
100
AcDbEntity
100
AcDbLine
  8
poludniowy
 62
256
370
-1
  6
ByLayer
 10
-347.7591567746881651
 20
809.4000000000000909
 30
0.0
 11
-347.7591567746881651
 21
817.1000000000001364
 31
0.0
  0
LINE
  5
132
100
AcDbEntity
100
AcDbLine
  8
poludniowy
 62
256
370
-1
  6
ByLayer
 10
-372.7591567746881651
 20
809.4000000000000909
 30
0.0
 11
-372.7591567746881651
 21
817.1000000000001364
 31
0.0
  0
LINE
  5
133
100
AcDbEntity
100
AcDbLine
  8
poludniowy
 62
256
370
-1
  6
ByLayer
 10
-321.2591567746881651
 20
809.4000000000000909
 30
0.0
 11
-321.2591567746881651
 21
817.1000000000001364
 31
0.0
  0
LINE
  5
134
100
AcDbEntity
100
AcDbLine
  8
poludniowy
 62
256
370
-1
  6
ByLayer
 10
-346.2591567746881651
 20
809.4000000000000909
 30
0.0
 11
-346.2591567746881651
 21
817.1000000000001364
 31
0.0
  0
LINE
  5
135
100
AcDbEntity
100
AcDbLine
  8
poludniowy
 62
256
370
-1
  6
ByLayer
 10
-294.7591567746881651
 20
809.4000000000000909
 30
0.0
 11
-294.7591567746881651
 21
817.1000000000001364
 31
0.0
  0
LINE
  5
136
100
AcDbEntity
100
AcDbLine
  8
poludniowy
 62
256
370
-1
  6
ByLayer
 10
-319.7591567746881651
 20
809.4000000000000909
 30
0.0
 11
-319.7591567746881651
 21
817.1000000000001364
 31
0.0
  0
LINE
  5
137
100
AcDbEntity
100
AcDbLine
  8
poludniowy
 62
256
370
-1
  6
ByLayer
 10
-268.2591567746881651
 20
809.4000000000000909
 30
0.0
 11
-268.2591567746881651
 21
817.1000000000001364
 31
0.0
  0
LINE
  5
138
100
AcDbEntity
100
AcDbLine
  8
poludniowy
 62
256
370
-1
  6
ByLayer
 10
-293.2591567746881651
 20
809.4000000000000909
 30
0.0
 11
-293.2591567746881651
 21
817.1000000000001364
 31
0.0
  0
LINE
  5
139
100
AcDbEntity
100
AcDbLine
  8
poludniowy
 62
256
370
-1
  6
ByLayer
 10
-241.7591567746881083
 20
809.4000000000000909
 30
0.0
 11
-241.7591567746881083
 21
817.1000000000001364
 31
0.0
  0
LINE
  5
13A
100
AcDbEntity
100
AcDbLine
  8
poludniowy
 62
256
370
-1
  6
ByLayer
 10
-266.7591567746881083
 20
809.4000000000000909
 30
0.0
 11
-266.7591567746881083
 21
817.1000000000001364
 31
0.0
  0
LINE
  5
13B
100
AcDbEntity
100
AcDbLine
  8
poludniowy
 62
256
370
-1
  6
ByLayer
 10
-215.2591567746881083
 20
809.4000000000000909
 30
0.0
 11
-215.2591567746881083
 21
817.1000000000001364
 31
0.0
  0
LINE
  5
13C
100
AcDbEntity
100
AcDbLine
  8
poludniowy
 62
256
370
-1
  6
ByLayer
 10
-240.2591567746881083
 20
809.4000000000000909
 30
0.0
 11
-240.2591567746881083
 21
817.1000000000001364
 31
0.0
  0
LINE
  5
13D
100
AcDbEntity
100
AcDbLine
  8
poludniowy
 62
256
370
-1
  6
ByLayer
 10
-188.7591567746881083
 20
809.4000000000000909
 30
0.0
 11
-188.7591567746881083
 21
817.1000000000001364
 31
0.0
  0
LINE
  5
13E
100
AcDbEntity
100
AcDbLine
  8
poludniowy
 62
256
370
-1
  6
ByLayer
 10
-213.7591567746881083
 20
809.4000000000000909
 30
0.0
 11
-213.7591567746881083
 21
817.1000000000001364
 31
0.0
  0
LINE
  5
13F
100
AcDbEntity
100
AcDbLine
  8
poludniowy
 62
256
370
-1
  6
ByLayer
 10
-162.2591567746881083
 20
809.4000000000000909
 30
0.0
 11
-162.2591567746881083
 21
817.1000000000001364
 31
0.0
  0
LINE
  5
140
100
AcDbEntity
100
AcDbLine
  8
poludniowy
 62
256
370
-1
  6
ByLayer
 10
-187.2591567746881083
 20
809.4000000000000909
 30
0.0
 11
-187.2591567746881083
 21
817.1000000000001364
 31
0.0
  0
LINE
  5
141
100
AcDbEntity
100
AcDbLine
  8
poludniowy
 62
256
370
-1
  6
ByLayer
 10
-160.7591567746881083
 20
809.4000000000000909
 30
0.0
 11
-160.7591567746881083
 21
817.1000000000001364
 31
0.0
  0
LINE
  5
142
100
AcDbEntity
100
AcDbLine
  8
poludniowy
 62
256
370
-1
  6
ByLayer
 10
-399.2591567746881651
 20
809.4000000000000909
 30
0.0
 11
-399.2591567746881651
 21
817.1000000000001364
 31
0.0
  0
LINE
  5
143
100
AcDbEntity
100
AcDbLine
  8
poludniowy
 62
256
370
-1
  6
ByLayer
 10
-425.7591567746881651
 20
809.4000000000000909
 30
0.0
 11
-425.7591567746881651
 21
817.1000000000001364
 31
0.0
  0
LINE
  5
144
100
AcDbEntity
100
AcDbLine
  8
poludniowy
 62
256
370
-1
  6
ByLayer
 10
-400.759156774688222
 20
809.4000000000000909
 30
0.0
 11
-400.759156774688222
 21
817.1000000000001364
 31
0.0
  0
LINE
  5
145
100
AcDbEntity
100
AcDbLine
  8
poludniowy
 62
256
370
-1
  6
ByLayer
 10
-452.2591567746881651
 20
809.4000000000000909
 30
0.0
 11
-452.2591567746881651
 21
817.1000000000001364
 31
0.0
  0
LINE
  5
146
100
AcDbEntity
100
AcDbLine
  8
poludniowy
 62
256
370
-1
  6
ByLayer
 10
-427.2591567746881651
 20
809.4000000000000909
 30
0.0
 11
-427.259156774688222
 21
817.1000000000001364
 31
0.0
  0
LINE
  5
147
100
AcDbEntity
100
AcDbLine
  8
poludniowy
 62
256
370
-1
  6
ByLayer
 10
-478.7591567746881651
 20
809.4000000000000909
 30
0.0
 11
-478.759156774688222
 21
817.1000000000001364
 31
0.0
  0
LINE
  5
148
100
AcDbEntity
100
AcDbLine
  8
poludniowy
 62
256
370
-1
  6
ByLayer
 10
-453.7591567746881651
 20
809.4000000000000909
 30
0.0
 11
-453.7591567746881651
 21
817.1000000000001364
 31
0.0
  0
LINE
  5
149
100
AcDbEntity
100
AcDbLine
  8
poludniowy
 62
256
370
-1
  6
ByLayer
 10
-505.2591567746881083
 20
809.4000000000000909
 30
0.0
 11
-505.2591567746881083
 21
817.1000000000001364
 31
0.0
  0
LINE
  5
14A
100
AcDbEntity
100
AcDbLine
  8
poludniowy
 62
256
370
-1
  6
ByLayer
 10
-480.2591567746881651
 20
809.4000000000000909
 30
0.0
 11
-480.259156774688222
 21
817.1000000000001364
 31
0.0
  0
LINE
  5
14B
100
AcDbEntity
100
AcDbLine
  8
poludniowy
 62
256
370
-1
  6
ByLayer
 10
-531.759156774688222
 20
809.4000000000000909
 30
0.0
 11
-531.759156774688222
 21
817.1000000000001364
 31
0.0
  0
LINE
  5
14C
100
AcDbEntity
100
AcDbLine
  8
poludniowy
 62
256
370
-1
  6
ByLayer
 10
-506.759156774688222
 20
809.4000000000000909
 30
0.0
 11
-506.759156774688222
 21
817.1000000000002501
 31
0.0
  0
LINE
  5
14D
100
AcDbEntity
100
AcDbLine
  8
poludniowy
 62
256
370
-1
  6
ByLayer
 10
-558.259156774688222
 20
809.4000000000000909
 30
0.0
 11
-558.259156774688222
 21
817.1000000000001364
 31
0.0
  0
LINE
  5
14E
100
AcDbEntity
100
AcDbLine
  8
poludniowy
 62
256
370
-1
  6
ByLayer
 10
-533.259156774688222
 20
809.4000000000000909
 30
0.0
 11
-533.259156774688222
 21
817.1000000000002501
 31
0.0
  0
LINE
  5
14F
100
AcDbEntity
100
AcDbLine
  8
poludniowy
 62
256
370
-1
  6
ByLayer
 10
-584.759156774688222
 20
809.4000000000002046
 30
0.0
 11
-584.759156774688222
 21
817.1000000000001364
 31
0.0
  0
LINE
  5
150
100
AcDbEntity
100
AcDbLine
  8
poludniowy
 62
256
370
-1
  6
ByLayer
 10
-559.759156774688222
 20
809.4000000000000909
 30
0.0
 11
-559.759156774688222
 21
817.1000000000001364
 31
0.0
  0
LINE
  5
151
100
AcDbEntity
100
AcDbLine
  8
poludniowy
 62
256
370
-1
  6
ByLayer
 10
-611.259156774688222
 20
809.4000000000000909
 30
0.0
 11
-611.259156774688222
 21
817.1000000000000227
 31
0.0
  0
LINE
  5
152
100
AcDbEntity
100
AcDbLine
  8
poludniowy
 62
256
370
-1
  6
ByLayer
 10
-586.259156774688222
 20
809.4000000000002046
 30
0.0
 11
-586.259156774688222
 21
817.1000000000002501
 31
0.0
  0
LINE
  5
153
100
AcDbEntity
100
AcDbLine
  8
poludniowy
 62
256
370
-1
  6
ByLayer
 10
-612.759156774688222
 20
809.3999999999999773
 30
0.0
 11
-612.759156774688222
 21
817.1000000000000227
 31
0.0
  0
LINE
  5
154
100
AcDbEntity
100
AcDbLine
  8
poludniowy
 62
256
370
-1
  6
ByLayer
 10
-637.759156774688222
 20
809.3999999999999773
 30
0.0
 11
-637.759156774688222
 21
817.1000000000000227
 31
0.0
  0
LINE
  5
155
100
AcDbEntity
100
AcDbLine
  8
poludniowy
 62
256
370
-1
  6
ByLayer
 10
-639.259156774688222
 20
809.3999999999999773
 30
0.0
 11
-639.259156774688222
 21
817.1000000000000227
 31
0.0
  0
LINE
  5
156
100
AcDbEntity
100
AcDbLine
  8
poludniowy
 62
256
370
-1
  6
ByLayer
 10
-406.0091567746881651
 20
812.0686409999999569
 30
0.0
 11
-394.0091567746881651
 21
812.0686409999999569
 31
0.0
  0
LINE
  5
157
100
AcDbEntity
100
AcDbLine
  8
poludniowy
 62
256
370
-1
  6
ByLayer
 10
-392.7591567746881651
 20
817.1000000000001364
 30
0.0
 11
-392.7591567746881651
 21
824.8000000000001819
 31
0.0
  0
LINE
  5
158
100
AcDbEntity
100
AcDbLine
  8
poludniowy
 62
256
370
-1
  6
ByLayer
 10
-379.5091567746881651
 20
817.1000000000001364
 30
0.0
 11
-379.5091567746881651
 21
824.8000000000001819
 31
0.0
  0
LINE
  5
159
100
AcDbEntity
100
AcDbLine
  8
poludniowy
 62
256
370
-1
  6
ByLayer
 10
-366.2591567746881651
 20
817.1000000000001364
 30
0.0
 11
-366.2591567746881651
 21
824.8000000000001819
 31
0.0
  0
LINE
  5
15A
100
AcDbEntity
100
AcDbLine
  8
poludniowy
 62
256
370
-1
  6
ByLayer
 10
-353.0091567746881651
 20
817.1000000000001364
 30
0.0
 11
-353.0091567746881651
 21
824.8000000000001819
 31
0.0
  0
LINE
  5
15B
100
AcDbEntity
100
AcDbLine
  8
poludniowy
 62
256
370
-1
  6
ByLayer
 10
-394.0091567746881651
 20
817.1000000000001364
 30
0.0
 11
-394.0091567746881651
 21
824.8000000000001819
 31
0.0
  0
LINE
  5
15C
100
AcDbEntity
100
AcDbLine
  8
poludniowy
 62
256
370
-1
  6
ByLayer
 10
-367.5091567746881651
 20
817.1000000000001364
 30
0.0
 11
-367.5091567746881651
 21
824.8000000000001819
 31
0.0
  0
LINE
  5
15D
100
AcDbEntity
100
AcDbLine
  8
poludniowy
 62
256
370
-1
  6
ByLayer
 10
-354.2591567746881651
 20
817.1000000000001364
 30
0.0
 11
-354.2591567746881651
 21
824.8000000000001819
 31
0.0
  0
LINE
  5
15E
100
AcDbEntity
100
AcDbLine
  8
poludniowy
 62
256
370
-1
  6
ByLayer
 10
-341.0091567746881651
 20
817.1000000000001364
 30
0.0
 11
-341.0091567746881651
 21
824.8000000000001819
 31
0.0
  0
LINE
  5
15F
100
AcDbEntity
100
AcDbLine
  8
poludniowy
 62
256
370
-1
  6
ByLayer
 10
-327.7591567746881651
 20
817.1000000000001364
 30
0.0
 11
-327.7591567746881651
 21
824.8000000000001819
 31
0.0
  0
LINE
  5
160
100
AcDbEntity
100
AcDbLine
  8
poludniowy
 62
256
370
-1
  6
ByLayer
 10
-314.5091567746881651
 20
817.1000000000001364
 30
0.0
 11
-314.5091567746881651
 21
824.8000000000001819
 31
0.0
  0
LINE
  5
161
100
AcDbEntity
100
AcDbLine
  8
poludniowy
 62
256
370
-1
  6
ByLayer
 10
-301.2591567746881651
 20
817.1000000000001364
 30
0.0
 11
-301.2591567746881651
 21
824.8000000000001819
 31
0.0
  0
LINE
  5
162
100
AcDbEntity
100
AcDbLine
  8
poludniowy
 62
256
370
-1
  6
ByLayer
 10
-288.0091567746881651
 20
817.1000000000001364
 30
0.0
 11
-288.0091567746881651
 21
824.8000000000001819
 31
0.0
  0
LINE
  5
163
100
AcDbEntity
100
AcDbLine
  8
poludniowy
 62
256
370
-1
  6
ByLayer
 10
-274.7591567746881651
 20
817.1000000000001364
 30
0.0
 11
-274.7591567746881651
 21
824.8000000000001819
 31
0.0
  0
LINE
  5
164
100
AcDbEntity
100
AcDbLine
  8
poludniowy
 62
256
370
-1
  6
ByLayer
 10
-261.5091567746881651
 20
817.1000000000001364
 30
0.0
 11
-261.5091567746881651
 21
824.8000000000001819
 31
0.0
  0
LINE
  5
165
100
AcDbEntity
100
AcDbLine
  8
poludniowy
 62
256
370
-1
  6
ByLayer
 10
-248.2591567746881651
 20
817.1000000000001364
 30
0.0
 11
-248.2591567746881651
 21
824.8000000000001819
 31
0.0
  0
LINE
  5
166
100
AcDbEntity
100
AcDbLine
  8
poludniowy
 62
256
370
-1
  6
ByLayer
 10
-235.0091567746881651
 20
817.1000000000001364
 30
0.0
 11
-235.0091567746881651
 21
824.8000000000001819
 31
0.0
  0
LINE
  5
167
100
AcDbEntity
100
AcDbLine
  8
poludniowy
 62
256
370
-1
  6
ByLayer
 10
-221.7591567746881651
 20
817.1000000000001364
 30
0.0
 11
-221.7591567746881651
 21
824.8000000000001819
 31
0.0
  0
LINE
  5
168
100
AcDbEntity
100
AcDbLine
  8
poludniowy
 62
256
370
-1
  6
ByLayer
 10
-208.5091567746881651
 20
817.1000000000001364
 30
0.0
 11
-208.5091567746881651
 21
824.8000000000001819
 31
0.0
  0
LINE
  5
169
100
AcDbEntity
100
AcDbLine
  8
poludniowy
 62
256
370
-1
  6
ByLayer
 10
-195.2591567746881651
 20
817.1000000000001364
 30
0.0
 11
-195.2591567746881651
 21
824.8000000000001819
 31
0.0
  0
LINE
  5
16A
100
AcDbEntity
100
AcDbLine
  8
poludniowy
 62
256
370
-1
  6
ByLayer
 10
-182.0091567746881651
 20
817.1000000000001364
 30
0.0
 11
-182.0091567746881651
 21
824.8000000000001819
 31
0.0
  0
LINE
  5
16B
100
AcDbEntity
100
AcDbLine
  8
poludniowy
 62
256
370
-1
  6
ByLayer
 10
-168.7591567746881651
 20
817.1000000000001364
 30
0.0
 11
-168.7591567746881651
 21
824.8000000000001819
 31
0.0
  0
LINE
  5
16C
100
AcDbEntity
100
AcDbLine
  8
poludniowy
 62
256
370
-1
  6
ByLayer
 10
-339.7591567746881651
 20
817.1000000000001364
 30
0.0
 11
-339.7591567746881651
 21
824.8000000000001819
 31
0.0
  0
LINE
  5
16D
100
AcDbEntity
100
AcDbLine
  8
poludniowy
 62
256
370
-1
  6
ByLayer
 10
-326.5091567746881651
 20
817.1000000000001364
 30
0.0
 11
-326.5091567746881651
 21
824.8000000000001819
 31
0.0
  0
LINE
  5
16E
100
AcDbEntity
100
AcDbLine
  8
poludniowy
 62
256
370
-1
  6
ByLayer
 10
-313.2591567746881651
 20
817.1000000000001364
 30
0.0
 11
-313.2591567746881651
 21
824.8000000000001819
 31
0.0
  0
LINE
  5
16F
100
AcDbEntity
100
AcDbLine
  8
poludniowy
 62
256
370
-1
  6
ByLayer
 10
-300.0091567746881651
 20
817.1000000000001364
 30
0.0
 11
-300.0091567746881651
 21
824.8000000000001819
 31
0.0
  0
LINE
  5
170
100
AcDbEntity
100
AcDbLine
  8
poludniowy
 62
256
370
-1
  6
ByLayer
 10
-286.7591567746881651
 20
817.1000000000001364
 30
0.0
 11
-286.7591567746881651
 21
824.8000000000001819
 31
0.0
  0
LINE
  5
171
100
AcDbEntity
100
AcDbLine
  8
poludniowy
 62
256
370
-1
  6
ByLayer
 10
-273.5091567746881651
 20
817.1000000000001364
 30
0.0
 11
-273.5091567746881651
 21
824.8000000000001819
 31
0.0
  0
LINE
  5
172
100
AcDbEntity
100
AcDbLine
  8
poludniowy
 62
256
370
-1
  6
ByLayer
 10
-260.2591567746881651
 20
817.1000000000001364
 30
0.0
 11
-260.2591567746881651
 21
824.8000000000001819
 31
0.0
  0
LINE
  5
173
100
AcDbEntity
100
AcDbLine
  8
poludniowy
 62
256
370
-1
  6
ByLayer
 10
-247.0091567746881651
 20
817.1000000000001364
 30
0.0
 11
-247.0091567746881651
 21
824.8000000000001819
 31
0.0
  0
LINE
  5
174
100
AcDbEntity
100
AcDbLine
  8
poludniowy
 62
256
370
-1
  6
ByLayer
 10
-233.7591567746881651
 20
817.1000000000001364
 30
0.0
 11
-233.7591567746881651
 21
824.8000000000001819
 31
0.0
  0
LINE
  5
175
100
AcDbEntity
100
AcDbLine
  8
poludniowy
 62
256
370
-1
  6
ByLayer
 10
-220.5091567746881651
 20
817.1000000000001364
 30
0.0
 11
-220.5091567746881651
 21
824.8000000000001819
 31
0.0
  0
LINE
  5
176
100
AcDbEntity
100
AcDbLine
  8
poludniowy
 62
256
370
-1
  6
ByLayer
 10
-207.2591567746881651
 20
817.1000000000001364
 30
0.0
 11
-207.2591567746881651
 21
824.8000000000001819
 31
0.0
  0
LINE
  5
177
100
AcDbEntity
100
AcDbLine
  8
poludniowy
 62
256
370
-1
  6
ByLayer
 10
-194.0091567746881651
 20
817.1000000000001364
 30
0.0
 11
-194.0091567746881651
 21
824.8000000000001819
 31
0.0
  0
LINE
  5
178
100
AcDbEntity
100
AcDbLine
  8
poludniowy
 62
256
370
-1
  6
ByLayer
 10
-180.7591567746881651
 20
817.1000000000001364
 30
0.0
 11
-180.7591567746881651
 21
824.8000000000001819
 31
0.0
  0
LINE
  5
179
100
AcDbEntity
100
AcDbLine
  8
poludniowy
 62
256
370
-1
  6
ByLayer
 10
-167.5091567746881651
 20
817.1000000000001364
 30
0.0
 11
-167.5091567746881651
 21
824.8000000000001819
 31
0.0
  0
LINE
  5
17A
100
AcDbEntity
100
AcDbLine
  8
poludniowy
 62
256
370
-1
  6
ByLayer
 10
-380.7591567746881651
 20
817.1000000000001364
 30
0.0
 11
-380.7591567746881651
 21
824.8000000000001819
 31
0.0
  0
LINE
  5
17B
100
AcDbEntity
100
AcDbLine
  8
poludniowy
 62
256
370
-1
  6
ByLayer
 10
-387.5091567746881651
 20
824.8000000000001819
 30
0.0
 11
-387.5091567746881651
 21
832.5000000000002274
 31
0.0
  0
LINE
  5
17C
100
AcDbEntity
100
AcDbLine
  8
poludniowy
 62
256
370
-1
  6
ByLayer
 10
-361.0091567746881651
 20
824.8000000000001819
 30
0.0
 11
-361.0091567746881651
 21
832.5000000000002274
 31
0.0
  0
LINE
  5
17D
100
AcDbEntity
100
AcDbLine
  8
poludniowy
 62
256
370
-1
  6
ByLayer
 10
-386.0091567746881651
 20
824.8000000000001819
 30
0.0
 11
-386.0091567746881651
 21
832.5000000000002274
 31
0.0
  0
LINE
  5
17E
100
AcDbEntity
100
AcDbLine
  8
poludniowy
 62
256
370
-1
  6
ByLayer
 10
-334.5091567746881651
 20
824.8000000000001819
 30
0.0
 11
-334.5091567746881651
 21
832.5000000000002274
 31
0.0
  0
LINE
  5
17F
100
AcDbEntity
100
AcDbLine
  8
poludniowy
 62
256
370
-1
  6
ByLayer
 10
-359.5091567746881651
 20
824.8000000000001819
 30
0.0
 11
-359.5091567746881651
 21
832.5000000000002274
 31
0.0
  0
LINE
  5
180
100
AcDbEntity
100
AcDbLine
  8
poludniowy
 62
256
370
-1
  6
ByLayer
 10
-308.0091567746881651
 20
824.8000000000001819
 30
0.0
 11
-308.0091567746881651
 21
832.5000000000002274
 31
0.0
  0
LINE
  5
181
100
AcDbEntity
100
AcDbLine
  8
poludniowy
 62
256
370
-1
  6
ByLayer
 10
-333.0091567746881651
 20
824.8000000000001819
 30
0.0
 11
-333.0091567746881651
 21
832.5000000000002274
 31
0.0
  0
LINE
  5
182
100
AcDbEntity
100
AcDbLine
  8
poludniowy
 62
256
370
-1
  6
ByLayer
 10
-281.5091567746881651
 20
824.8000000000001819
 30
0.0
 11
-281.5091567746881651
 21
832.5000000000002274
 31
0.0
  0
LINE
  5
183
100
AcDbEntity
100
AcDbLine
  8
poludniowy
 62
256
370
-1
  6
ByLayer
 10
-306.5091567746881651
 20
824.8000000000001819
 30
0.0
 11
-306.5091567746881651
 21
832.5000000000002274
 31
0.0
  0
LINE
  5
184
100
AcDbEntity
100
AcDbLine
  8
poludniowy
 62
256
370
-1
  6
ByLayer
 10
-255.0091567746881083
 20
824.8000000000001819
 30
0.0
 11
-255.0091567746881083
 21
832.5000000000002274
 31
0.0
  0
LINE
  5
185
100
AcDbEntity
100
AcDbLine
  8
poludniowy
 62
256
370
-1
  6
ByLayer
 10
-280.0091567746881083
 20
824.8000000000001819
 30
0.0
 11
-280.0091567746881083
 21
832.5000000000002274
 31
0.0
  0
LINE
  5
186
100
AcDbEntity
100
AcDbLine
  8
poludniowy
 62
256
370
-1
  6
ByLayer
 10
-228.5091567746881083
 20
824.8000000000001819
 30
0.0
 11
-228.5091567746881083
 21
832.5000000000002274
 31
0.0
  0
LINE
  5
187
100
AcDbEntity
100
AcDbLine
  8
poludniowy
 62
256
370
-1
  6
ByLayer
 10
-253.5091567746881083
 20
824.8000000000001819
 30
0.0
 11
-253.5091567746881083
 21
832.5000000000002274
 31
0.0
  0
LINE
  5
188
100
AcDbEntity
100
AcDbLine
  8
poludniowy
 62
256
370
-1
  6
ByLayer
 10
-202.0091567746881083
 20
824.8000000000001819
 30
0.0
 11
-202.0091567746881083
 21
832.5000000000002274
 31
0.0
  0
LINE
  5
189
100
AcDbEntity
100
AcDbLine
  8
poludniowy
 62
256
370
-1
  6
ByLayer
 10
-227.0091567746881083
 20
824.8000000000001819
 30
0.0
 11
-227.0091567746881083
 21
832.5000000000002274
 31
0.0
  0
LINE
  5
18A
100
AcDbEntity
100
AcDbLine
  8
poludniowy
 62
256
370
-1
  6
ByLayer
 10
-175.5091567746881083
 20
824.8000000000001819
 30
0.0
 11
-175.5091567746881083
 21
832.5000000000002274
 31
0.0
  0
LINE
  5
18B
100
AcDbEntity
100
AcDbLine
  8
poludniowy
 62
256
370
-1
  6
ByLayer
 10
-200.5091567746881083
 20
824.8000000000001819
 30
0.0
 11
-200.5091567746881083
 21
832.5000000000002274
 31
0.0
  0
LINE
  5
18C
100
AcDbEntity
100
AcDbLine
  8
poludniowy
 62
256
370
-1
  6
ByLayer
 10
-174.0091567746881083
 20
824.8000000000001819
 30
0.0
 11
-174.0091567746881083
 21
832.5000000000002274
 31
0.0
  0
LINE
  5
18D
100
AcDbEntity
100
AcDbLine
  8
poludniowy
 62
256
370
-1
  6
ByLayer
 10
-407.259156774688222
 20
817.1000000000001364
 30
0.0
 11
-407.2591567746881651
 21
824.8000000000001819
 31
0.0
  0
LINE
  5
18E
100
AcDbEntity
100
AcDbLine
  8
poludniowy
 62
256
370
-1
  6
ByLayer
 10
-420.5091567746881651
 20
817.1000000000001364
 30
0.0
 11
-420.5091567746881651
 21
824.8000000000001819
 31
0.0
  0
LINE
  5
18F
100
AcDbEntity
100
AcDbLine
  8
poludniowy
 62
256
370
-1
  6
ByLayer
 10
-433.7591567746881651
 20
817.1000000000001364
 30
0.0
 11
-433.759156774688222
 21
824.8000000000001819
 31
0.0
  0
LINE
  5
190
100
AcDbEntity
100
AcDbLine
  8
poludniowy
 62
256
370
-1
  6
ByLayer
 10
-447.009156774688222
 20
817.1000000000001364
 30
0.0
 11
-447.0091567746881651
 21
824.8000000000001819
 31
0.0
  0
LINE
  5
191
100
AcDbEntity
100
AcDbLine
  8
poludniowy
 62
256
370
-1
  6
ByLayer
 10
-406.009156774688222
 20
817.1000000000001364
 30
0.0
 11
-406.0091567746881651
 21
824.8000000000001819
 31
0.0
  0
LINE
  5
192
100
AcDbEntity
100
AcDbLine
  8
poludniowy
 62
256
370
-1
  6
ByLayer
 10
-432.5091567746881651
 20
817.1000000000001364
 30
0.0
 11
-432.5091567746881651
 21
824.8000000000001819
 31
0.0
  0
LINE
  5
193
100
AcDbEntity
100
AcDbLine
  8
poludniowy
 62
256
370
-1
  6
ByLayer
 10
-445.7591567746881651
 20
817.1000000000001364
 30
0.0
 11
-445.7591567746881651
 21
824.8000000000001819
 31
0.0
  0
LINE
  5
194
100
AcDbEntity
100
AcDbLine
  8
poludniowy
 62
256
370
-1
  6
ByLayer
 10
-459.0091567746881651
 20
817.1000000000001364
 30
0.0
 11
-459.0091567746881651
 21
824.8000000000001819
 31
0.0
  0
LINE
  5
195
100
AcDbEntity
100
AcDbLine
  8
poludniowy
 62
256
370
-1
  6
ByLayer
 10
-472.2591567746881651
 20
817.1000000000001364
 30
0.0
 11
-472.2591567746881651
 21
824.8000000000001819
 31
0.0
  0
LINE
  5
196
100
AcDbEntity
100
AcDbLine
  8
poludniowy
 62
256
370
-1
  6
ByLayer
 10
-485.509156774688222
 20
817.1000000000001364
 30
0.0
 11
-485.5091567746881651
 21
824.8000000000001819
 31
0.0
  0
LINE
  5
197
100
AcDbEntity
100
AcDbLine
  8
poludniowy
 62
256
370
-1
  6
ByLayer
 10
-498.7591567746881651
 20
817.1000000000001364
 30
0.0
 11
-498.759156774688222
 21
824.8000000000001819
 31
0.0
  0
LINE
  5
198
100
AcDbEntity
100
AcDbLine
  8
poludniowy
 62
256
370
-1
  6
ByLayer
 10
-512.0091567746881083
 20
817.1000000000001364
 30
0.0
 11
-512.009156774688222
 21
824.8000000000001819
 31
0.0
  0
LINE
  5
199
100
AcDbEntity
100
AcDbLine
  8
poludniowy
 62
256
370
-1
  6
ByLayer
 10
-525.2591567746881083
 20
817.1000000000001364
 30
0.0
 11
-525.2591567746881083
 21
824.8000000000001819
 31
0.0
  0
LINE
  5
19A
100
AcDbEntity
100
AcDbLine
  8
poludniowy
 62
256
370
-1
  6
ByLayer
 10
-538.509156774688222
 20
817.1000000000001364
 30
0.0
 11
-538.509156774688222
 21
824.8000000000001819
 31
0.0
  0
LINE
  5
19B
100
AcDbEntity
100
AcDbLine
  8
poludniowy
 62
256
370
-1
  6
ByLayer
 10
-551.7591567746881083
 20
817.1000000000001364
 30
0.0
 11
-551.759156774688222
 21
824.8000000000002956
 31
0.0
  0
LINE
  5
19C
100
AcDbEntity
100
AcDbLine
  8
poludniowy
 62
256
370
-1
  6
ByLayer
 10
-565.0091567746881083
 20
817.1000000000001364
 30
0.0
 11
-565.0091567746881083
 21
824.8000000000001819
 31
0.0
  0
LINE
  5
19D
100
AcDbEntity
100
AcDbLine
  8
poludniowy
 62
256
370
-1
  6
ByLayer
 10
-578.2591567746881083
 20
817.1000000000001364
 30
0.0
 11
-578.259156774688222
 21
824.8000000000001819
 31
0.0
  0
LINE
  5
19E
100
AcDbEntity
100
AcDbLine
  8
poludniowy
 62
256
370
-1
  6
ByLayer
 10
-591.509156774688222
 20
817.1000000000002501
 30
0.0
 11
-591.509156774688222
 21
824.8000000000001819
 31
0.0
  0
LINE
  5
19F
100
AcDbEntity
100
AcDbLine
  8
poludniowy
 62
256
370
-1
  6
ByLayer
 10
-604.759156774688222
 20
817.1000000000001364
 30
0.0
 11
-604.7591567746881083
 21
824.8000000000000682
 31
0.0
  0
LINE
  5
1A0
100
AcDbEntity
100
AcDbLine
  8
poludniowy
 62
256
370
-1
  6
ByLayer
 10
-618.009156774688222
 20
817.1000000000001364
 30
0.0
 11
-618.0091567746881083
 21
824.8000000000000682
 31
0.0
  0
LINE
  5
1A1
100
AcDbEntity
100
AcDbLine
  8
poludniowy
 62
256
370
-1
  6
ByLayer
 10
-631.2591567746881083
 20
817.1000000000000227
 30
0.0
 11
-631.2591567746881083
 21
824.8000000000000682
 31
0.0
  0
LINE
  5
1A2
100
AcDbEntity
100
AcDbLine
  8
poludniowy
 62
256
370
-1
  6
ByLayer
 10
-460.2591567746881651
 20
817.1000000000001364
 30
0.0
 11
-460.2591567746881651
 21
824.8000000000001819
 31
0.0
  0
LINE
  5
1A3
100
AcDbEntity
100
AcDbLine
  8
poludniowy
 62
256
370
-1
  6
ByLayer
 10
-473.509156774688222
 20
817.1000000000001364
 30
0.0
 11
-473.5091567746881651
 21
824.8000000000001819
 31
0.0
  0
LINE
  5
1A4
100
AcDbEntity
100
AcDbLine
  8
poludniowy
 62
256
370
-1
  6
ByLayer
 10
-486.7591567746881651
 20
817.1000000000001364
 30
0.0
 11
-486.7591567746881651
 21
824.8000000000001819
 31
0.0
  0
LINE
  5
1A5
100
AcDbEntity
100
AcDbLine
  8
poludniowy
 62
256
370
-1
  6
ByLayer
 10
-500.0091567746881651
 20
817.1000000000001364
 30
0.0
 11
-500.0091567746881651
 21
824.8000000000001819
 31
0.0
  0
LINE
  5
1A6
100
AcDbEntity
100
AcDbLine
  8
poludniowy
 62
256
370
-1
  6
ByLayer
 10
-513.2591567746881083
 20
817.1000000000001364
 30
0.0
 11
-513.2591567746881083
 21
824.8000000000001819
 31
0.0
  0
LINE
  5
1A7
100
AcDbEntity
100
AcDbLine
  8
poludniowy
 62
256
370
-1
  6
ByLayer
 10
-526.509156774688222
 20
817.1000000000001364
 30
0.0
 11
-526.5091567746881083
 21
824.8000000000001819
 31
0.0
  0
LINE
  5
1A8
100
AcDbEntity
100
AcDbLine
  8
poludniowy
 62
256
370
-1
  6
ByLayer
 10
-539.7591567746881083
 20
817.1000000000001364
 30
0.0
 11
-539.759156774688222
 21
824.8000000000001819
 31
0.0
  0
LINE
  5
1A9
100
AcDbEntity
100
AcDbLine
  8
poludniowy
 62
256
370
-1
  6
ByLayer
 10
-553.009156774688222
 20
817.1000000000001364
 30
0.0
 11
-553.009156774688222
 21
824.8000000000002956
 31
0.0
  0
LINE
  5
1AA
100
AcDbEntity
100
AcDbLine
  8
poludniowy
 62
256
370
-1
  6
ByLayer
 10
-566.259156774688222
 20
817.1000000000001364
 30
0.0
 11
-566.2591567746881083
 21
824.8000000000001819
 31
0.0
  0
LINE
  5
1AB
100
AcDbEntity
100
AcDbLine
  8
poludniowy
 62
256
370
-1
  6
ByLayer
 10
-579.5091567746881083
 20
817.1000000000001364
 30
0.0
 11
-579.5091567746881083
 21
824.8000000000001819
 31
0.0
  0
LINE
  5
1AC
100
AcDbEntity
100
AcDbLine
  8
poludniowy
 62
256
370
-1
  6
ByLayer
 10
-592.759156774688222
 20
817.1000000000002501
 30
0.0
 11
-592.7591567746881083
 21
824.8000000000000682
 31
0.0
  0
LINE
  5
1AD
100
AcDbEntity
100
AcDbLine
  8
poludniowy
 62
256
370
-1
  6
ByLayer
 10
-606.009156774688222
 20
817.1000000000002501
 30
0.0
 11
-606.009156774688222
 21
824.8000000000001819
 31
0.0
  0
LINE
  5
1AE
100
AcDbEntity
100
AcDbLine
  8
poludniowy
 62
256
370
-1
  6
ByLayer
 10
-619.259156774688222
 20
817.1000000000002501
 30
0.0
 11
-619.259156774688222
 21
824.8000000000001819
 31
0.0
  0
LINE
  5
1AF
100
AcDbEntity
100
AcDbLine
  8
poludniowy
 62
256
370
-1
  6
ByLayer
 10
-632.5091567746881083
 20
817.1000000000001364
 30
0.0
 11
-632.5091567746881083
 21
824.8000000000001819
 31
0.0
  0
LINE
  5
1B0
100
AcDbEntity
100
AcDbLine
  8
poludniowy
 62
256
370
-1
  6
ByLayer
 10
-419.2591567746881651
 20
817.1000000000001364
 30
0.0
 11
-419.2591567746881651
 21
824.8000000000001819
 31
0.0
  0
LINE
  5
1B1
100
AcDbEntity
100
AcDbLine
  8
poludniowy
 62
256
370
-1
  6
ByLayer
 10
-412.5091567746881651
 20
824.8000000000001819
 30
0.0
 11
-412.5091567746881651
 21
832.5000000000002274
 31
0.0
  0
LINE
  5
1B2
100
AcDbEntity
100
AcDbLine
  8
poludniowy
 62
256
370
-1
  6
ByLayer
 10
-439.0091567746881651
 20
824.8000000000001819
 30
0.0
 11
-439.0091567746881651
 21
832.5000000000002274
 31
0.0
  0
LINE
  5
1B3
100
AcDbEntity
100
AcDbLine
  8
poludniowy
 62
256
370
-1
  6
ByLayer
 10
-414.009156774688222
 20
824.8000000000001819
 30
0.0
 11
-414.009156774688222
 21
832.5000000000002274
 31
0.0
  0
LINE
  5
1B4
100
AcDbEntity
100
AcDbLine
  8
poludniowy
 62
256
370
-1
  6
ByLayer
 10
-465.5091567746881651
 20
824.8000000000001819
 30
0.0
 11
-465.5091567746881651
 21
832.5000000000002274
 31
0.0
  0
LINE
  5
1B5
100
AcDbEntity
100
AcDbLine
  8
poludniowy
 62
256
370
-1
  6
ByLayer
 10
-440.5091567746881651
 20
824.8000000000001819
 30
0.0
 11
-440.509156774688222
 21
832.5000000000002274
 31
0.0
  0
LINE
  5
1B6
100
AcDbEntity
100
AcDbLine
  8
poludniowy
 62
256
370
-1
  6
ByLayer
 10
-492.0091567746881651
 20
824.8000000000001819
 30
0.0
 11
-492.009156774688222
 21
832.5000000000002274
 31
0.0
  0
LINE
  5
1B7
100
AcDbEntity
100
AcDbLine
  8
poludniowy
 62
256
370
-1
  6
ByLayer
 10
-467.0091567746881651
 20
824.8000000000001819
 30
0.0
 11
-467.0091567746881651
 21
832.5000000000002274
 31
0.0
  0
LINE
  5
1B8
100
AcDbEntity
100
AcDbLine
  8
poludniowy
 62
256
370
-1
  6
ByLayer
 10
-518.5091567746881083
 20
824.8000000000001819
 30
0.0
 11
-518.5091567746881083
 21
832.5000000000002274
 31
0.0
  0
LINE
  5
1B9
100
AcDbEntity
100
AcDbLine
  8
poludniowy
 62
256
370
-1
  6
ByLayer
 10
-493.5091567746881651
 20
824.8000000000001819
 30
0.0
 11
-493.509156774688222
 21
832.5000000000002274
 31
0.0
  0
LINE
  5
1BA
100
AcDbEntity
100
AcDbLine
  8
poludniowy
 62
256
370
-1
  6
ByLayer
 10
-545.009156774688222
 20
824.8000000000001819
 30
0.0
 11
-545.009156774688222
 21
832.5000000000002274
 31
0.0
  0
LINE
  5
1BB
100
AcDbEntity
100
AcDbLine
  8
poludniowy
 62
256
370
-1
  6
ByLayer
 10
-520.009156774688222
 20
824.8000000000001819
 30
0.0
 11
-520.009156774688222
 21
832.5000000000003411
 31
0.0
  0
LINE
  5
1BC
100
AcDbEntity
100
AcDbLine
  8
poludniowy
 62
256
370
-1
  6
ByLayer
 10
-571.509156774688222
 20
824.8000000000001819
 30
0.0
 11
-571.509156774688222
 21
832.5000000000002274
 31
0.0
  0
LINE
  5
1BD
100
AcDbEntity
100
AcDbLine
  8
poludniowy
 62
256
370
-1
  6
ByLayer
 10
-546.509156774688222
 20
824.8000000000001819
 30
0.0
 11
-546.509156774688222
 21
832.5000000000003411
 31
0.0
  0
LINE
  5
1BE
100
AcDbEntity
100
AcDbLine
  8
poludniowy
 62
256
370
-1
  6
ByLayer
 10
-598.009156774688222
 20
824.8000000000002956
 30
0.0
 11
-598.009156774688222
 21
832.5000000000002274
 31
0.0
  0
LINE
  5
1BF
100
AcDbEntity
100
AcDbLine
  8
poludniowy
 62
256
370
-1
  6
ByLayer
 10
-573.009156774688222
 20
824.8000000000001819
 30
0.0
 11
-573.009156774688222
 21
832.5000000000002274
 31
0.0
  0
LINE
  5
1C0
100
AcDbEntity
100
AcDbLine
  8
poludniowy
 62
256
370
-1
  6
ByLayer
 10
-624.509156774688222
 20
824.8000000000001819
 30
0.0
 11
-624.509156774688222
 21
832.5000000000001137
 31
0.0
  0
LINE
  5
1C1
100
AcDbEntity
100
AcDbLine
  8
poludniowy
 62
256
370
-1
  6
ByLayer
 10
-599.509156774688222
 20
824.8000000000002956
 30
0.0
 11
-599.509156774688222
 21
832.5000000000003411
 31
0.0
  0
LINE
  5
1C2
100
AcDbEntity
100
AcDbLine
  8
poludniowy
 62
256
370
-1
  6
ByLayer
 10
-626.009156774688222
 20
824.8000000000000682
 30
0.0
 11
-626.009156774688222
 21
832.5000000000001137
 31
0.0
  0
LINE
  5
1C3
100
AcDbEntity
100
AcDbLine
  8
poludniowy
 62
256
370
-1
  6
ByLayer
 10
-327.7591567746881083
 20
832.5000000000002274
 30
0.0
 11
-327.7591567746881083
 21
840.2000000000002728
 31
0.0
  0
LINE
  5
1C4
100
AcDbEntity
100
AcDbLine
  8
poludniowy
 62
256
370
-1
  6
ByLayer
 10
-314.5091567746881083
 20
832.5000000000002274
 30
0.0
 11
-314.5091567746881083
 21
840.2000000000002728
 31
0.0
  0
LINE
  5
1C5
100
AcDbEntity
100
AcDbLine
  8
poludniowy
 62
256
370
-1
  6
ByLayer
 10
-301.2591567746881083
 20
832.5000000000002274
 30
0.0
 11
-301.2591567746881083
 21
840.2000000000002728
 31
0.0
  0
LINE
  5
1C6
100
AcDbEntity
100
AcDbLine
  8
poludniowy
 62
256
370
-1
  6
ByLayer
 10
-288.0091567746881083
 20
832.5000000000002274
 30
0.0
 11
-288.0091567746881083
 21
840.2000000000002728
 31
0.0
  0
LINE
  5
1C7
100
AcDbEntity
100
AcDbLine
  8
poludniowy
 62
256
370
-1
  6
ByLayer
 10
-274.7591567746881083
 20
832.5000000000002274
 30
0.0
 11
-274.7591567746881083
 21
840.2000000000002728
 31
0.0
  0
LINE
  5
1C8
100
AcDbEntity
100
AcDbLine
  8
poludniowy
 62
256
370
-1
  6
ByLayer
 10
-261.5091567746881083
 20
832.5000000000002274
 30
0.0
 11
-261.5091567746881083
 21
840.2000000000002728
 31
0.0
  0
LINE
  5
1C9
100
AcDbEntity
100
AcDbLine
  8
poludniowy
 62
256
370
-1
  6
ByLayer
 10
-248.2591567746881083
 20
832.5000000000002274
 30
0.0
 11
-248.2591567746881083
 21
840.2000000000002728
 31
0.0
  0
LINE
  5
1CA
100
AcDbEntity
100
AcDbLine
  8
poludniowy
 62
256
370
-1
  6
ByLayer
 10
-235.0091567746881083
 20
832.5000000000002274
 30
0.0
 11
-235.0091567746881083
 21
840.2000000000002728
 31
0.0
  0
LINE
  5
1CB
100
AcDbEntity
100
AcDbLine
  8
poludniowy
 62
256
370
-1
  6
ByLayer
 10
-221.7591567746881083
 20
832.5000000000002274
 30
0.0
 11
-221.7591567746881083
 21
840.2000000000002728
 31
0.0
  0
LINE
  5
1CC
100
AcDbEntity
100
AcDbLine
  8
poludniowy
 62
256
370
-1
  6
ByLayer
 10
-208.5091567746881083
 20
832.5000000000002274
 30
0.0
 11
-208.5091567746881083
 21
840.2000000000002728
 31
0.0
  0
LINE
  5
1CD
100
AcDbEntity
100
AcDbLine
  8
poludniowy
 62
256
370
-1
  6
ByLayer
 10
-195.2591567746881083
 20
832.5000000000002274
 30
0.0
 11
-195.2591567746881083
 21
840.2000000000002728
 31
0.0
  0
LINE
  5
1CE
100
AcDbEntity
100
AcDbLine
  8
poludniowy
 62
256
370
-1
  6
ByLayer
 10
-182.0091567746881083
 20
832.5000000000002274
 30
0.0
 11
-182.0091567746881083
 21
840.2000000000002728
 31
0.0
  0
LINE
  5
1CF
100
AcDbEntity
100
AcDbLine
  8
poludniowy
 62
256
370
-1
  6
ByLayer
 10
-168.7591567746881083
 20
832.5000000000002274
 30
0.0
 11
-168.7591567746881083
 21
840.2000000000002728
 31
0.0
  0
LINE
  5
1D0
100
AcDbEntity
100
AcDbLine
  8
poludniowy
 62
256
370
-1
  6
ByLayer
 10
-326.5091567746881083
 20
832.5000000000002274
 30
0.0
 11
-326.5091567746881083
 21
840.2000000000002728
 31
0.0
  0
LINE
  5
1D1
100
AcDbEntity
100
AcDbLine
  8
poludniowy
 62
256
370
-1
  6
ByLayer
 10
-313.2591567746881083
 20
832.5000000000002274
 30
0.0
 11
-313.2591567746881083
 21
840.2000000000002728
 31
0.0
  0
LINE
  5
1D2
100
AcDbEntity
100
AcDbLine
  8
poludniowy
 62
256
370
-1
  6
ByLayer
 10
-300.0091567746881083
 20
832.5000000000002274
 30
0.0
 11
-300.0091567746881083
 21
840.2000000000002728
 31
0.0
  0
LINE
  5
1D3
100
AcDbEntity
100
AcDbLine
  8
poludniowy
 62
256
370
-1
  6
ByLayer
 10
-286.7591567746881083
 20
832.5000000000002274
 30
0.0
 11
-286.7591567746881083
 21
840.2000000000002728
 31
0.0
  0
LINE
  5
1D4
100
AcDbEntity
100
AcDbLine
  8
poludniowy
 62
256
370
-1
  6
ByLayer
 10
-273.5091567746881083
 20
832.5000000000002274
 30
0.0
 11
-273.5091567746881083
 21
840.2000000000002728
 31
0.0
  0
LINE
  5
1D5
100
AcDbEntity
100
AcDbLine
  8
poludniowy
 62
256
370
-1
  6
ByLayer
 10
-260.2591567746881083
 20
832.5000000000002274
 30
0.0
 11
-260.2591567746881083
 21
840.2000000000002728
 31
0.0
  0
LINE
  5
1D6
100
AcDbEntity
100
AcDbLine
  8
poludniowy
 62
256
370
-1
  6
ByLayer
 10
-247.0091567746881083
 20
832.5000000000002274
 30
0.0
 11
-247.0091567746881083
 21
840.2000000000002728
 31
0.0
  0
LINE
  5
1D7
100
AcDbEntity
100
AcDbLine
  8
poludniowy
 62
256
370
-1
  6
ByLayer
 10
-233.7591567746881083
 20
832.5000000000002274
 30
0.0
 11
-233.7591567746881083
 21
840.2000000000002728
 31
0.0
  0
LINE
  5
1D8
100
AcDbEntity
100
AcDbLine
  8
poludniowy
 62
256
370
-1
  6
ByLayer
 10
-220.5091567746881083
 20
832.5000000000002274
 30
0.0
 11
-220.5091567746881083
 21
840.2000000000002728
 31
0.0
  0
LINE
  5
1D9
100
AcDbEntity
100
AcDbLine
  8
poludniowy
 62
256
370
-1
  6
ByLayer
 10
-207.2591567746881083
 20
832.5000000000002274
 30
0.0
 11
-207.2591567746881083
 21
840.2000000000002728
 31
0.0
  0
LINE
  5
1DA
100
AcDbEntity
100
AcDbLine
  8
poludniowy
 62
256
370
-1
  6
ByLayer
 10
-194.0091567746881083
 20
832.5000000000002274
 30
0.0
 11
-194.0091567746881083
 21
840.2000000000002728
 31
0.0
  0
LINE
  5
1DB
100
AcDbEntity
100
AcDbLine
  8
poludniowy
 62
256
370
-1
  6
ByLayer
 10
-180.7591567746881083
 20
832.5000000000002274
 30
0.0
 11
-180.7591567746881083
 21
840.2000000000002728
 31
0.0
  0
LINE
  5
1DC
100
AcDbEntity
100
AcDbLine
  8
poludniowy
 62
256
370
-1
  6
ByLayer
 10
-167.5091567746881083
 20
832.5000000000002274
 30
0.0
 11
-167.5091567746881083
 21
840.2000000000002728
 31
0.0
  0
LINE
  5
1DD
100
AcDbEntity
100
AcDbLine
  8
poludniowy
 62
256
370
-1
  6
ByLayer
 10
-321.2591567746881083
 20
840.2000000000002728
 30
0.0
 11
-321.2591567746881083
 21
847.9000000000003183
 31
0.0
  0
LINE
  5
1DE
100
AcDbEntity
100
AcDbLine
  8
poludniowy
 62
256
370
-1
  6
ByLayer
 10
-294.7591567746881083
 20
840.2000000000002728
 30
0.0
 11
-294.7591567746881083
 21
847.9000000000003183
 31
0.0
  0
LINE
  5
1DF
100
AcDbEntity
100
AcDbLine
  8
poludniowy
 62
256
370
-1
  6
ByLayer
 10
-319.7591567746881083
 20
840.2000000000002728
 30
0.0
 11
-319.7591567746881083
 21
847.9000000000003183
 31
0.0
  0
LINE
  5
1E0
100
AcDbEntity
100
AcDbLine
  8
poludniowy
 62
256
370
-1
  6
ByLayer
 10
-268.2591567746881083
 20
840.2000000000002728
 30
0.0
 11
-268.2591567746881083
 21
847.9000000000003183
 31
0.0
  0
LINE
  5
1E1
100
AcDbEntity
100
AcDbLine
  8
poludniowy
 62
256
370
-1
  6
ByLayer
 10
-293.2591567746881083
 20
840.2000000000002728
 30
0.0
 11
-293.2591567746881083
 21
847.9000000000003183
 31
0.0
  0
LINE
  5
1E2
100
AcDbEntity
100
AcDbLine
  8
poludniowy
 62
256
370
-1
  6
ByLayer
 10
-241.7591567746880514
 20
840.2000000000002728
 30
0.0
 11
-241.7591567746880514
 21
847.9000000000003183
 31
0.0
  0
LINE
  5
1E3
100
AcDbEntity
100
AcDbLine
  8
poludniowy
 62
256
370
-1
  6
ByLayer
 10
-266.7591567746880514
 20
840.2000000000002728
 30
0.0
 11
-266.7591567746880514
 21
847.9000000000003183
 31
0.0
  0
LINE
  5
1E4
100
AcDbEntity
100
AcDbLine
  8
poludniowy
 62
256
370
-1
  6
ByLayer
 10
-215.2591567746880514
 20
840.2000000000002728
 30
0.0
 11
-215.2591567746880514
 21
847.9000000000003183
 31
0.0
  0
LINE
  5
1E5
100
AcDbEntity
100
AcDbLine
  8
poludniowy
 62
256
370
-1
  6
ByLayer
 10
-240.2591567746880514
 20
840.2000000000002728
 30
0.0
 11
-240.2591567746880514
 21
847.9000000000003183
 31
0.0
  0
LINE
  5
1E6
100
AcDbEntity
100
AcDbLine
  8
poludniowy
 62
256
370
-1
  6
ByLayer
 10
-188.7591567746880514
 20
840.2000000000002728
 30
0.0
 11
-188.7591567746880514
 21
847.9000000000003183
 31
0.0
  0
LINE
  5
1E7
100
AcDbEntity
100
AcDbLine
  8
poludniowy
 62
256
370
-1
  6
ByLayer
 10
-213.7591567746880514
 20
840.2000000000002728
 30
0.0
 11
-213.7591567746880514
 21
847.9000000000003183
 31
0.0
  0
LINE
  5
1E8
100
AcDbEntity
100
AcDbLine
  8
poludniowy
 62
256
370
-1
  6
ByLayer
 10
-162.2591567746880514
 20
840.2000000000002728
 30
0.0
 11
-162.2591567746880514
 21
847.9000000000003183
 31
0.0
  0
LINE
  5
1E9
100
AcDbEntity
100
AcDbLine
  8
poludniowy
 62
256
370
-1
  6
ByLayer
 10
-187.2591567746880514
 20
840.2000000000002728
 30
0.0
 11
-187.2591567746880514
 21
847.9000000000003183
 31
0.0
  0
LINE
  5
1EA
100
AcDbEntity
100
AcDbLine
  8
poludniowy
 62
256
370
-1
  6
ByLayer
 10
-160.7591567746880514
 20
840.2000000000002728
 30
0.0
 11
-160.7591567746880514
 21
847.9000000000003183
 31
0.0
  0
LINE
  5
1EB
100
AcDbEntity
100
AcDbLine
  8
poludniowy
 62
256
370
-1
  6
ByLayer
 10
-327.7591567746881083
 20
847.9000000000003183
 30
0.0
 11
-327.7591567746881083
 21
855.6000000000003638
 31
0.0
  0
LINE
  5
1EC
100
AcDbEntity
100
AcDbLine
  8
poludniowy
 62
256
370
-1
  6
ByLayer
 10
-314.5091567746881083
 20
847.9000000000003183
 30
0.0
 11
-314.5091567746881083
 21
855.6000000000003638
 31
0.0
  0
LINE
  5
1ED
100
AcDbEntity
100
AcDbLine
  8
poludniowy
 62
256
370
-1
  6
ByLayer
 10
-301.2591567746881083
 20
847.9000000000003183
 30
0.0
 11
-301.2591567746881083
 21
855.6000000000003638
 31
0.0
  0
LINE
  5
1EE
100
AcDbEntity
100
AcDbLine
  8
poludniowy
 62
256
370
-1
  6
ByLayer
 10
-288.0091567746881083
 20
847.9000000000003183
 30
0.0
 11
-288.0091567746881083
 21
855.6000000000003638
 31
0.0
  0
LINE
  5
1EF
100
AcDbEntity
100
AcDbLine
  8
poludniowy
 62
256
370
-1
  6
ByLayer
 10
-274.7591567746881083
 20
847.9000000000003183
 30
0.0
 11
-274.7591567746881083
 21
855.6000000000003638
 31
0.0
  0
LINE
  5
1F0
100
AcDbEntity
100
AcDbLine
  8
poludniowy
 62
256
370
-1
  6
ByLayer
 10
-261.5091567746881083
 20
847.9000000000003183
 30
0.0
 11
-261.5091567746881083
 21
855.6000000000003638
 31
0.0
  0
LINE
  5
1F1
100
AcDbEntity
100
AcDbLine
  8
poludniowy
 62
256
370
-1
  6
ByLayer
 10
-248.2591567746881083
 20
847.9000000000003183
 30
0.0
 11
-248.2591567746881083
 21
855.6000000000003638
 31
0.0
  0
LINE
  5
1F2
100
AcDbEntity
100
AcDbLine
  8
poludniowy
 62
256
370
-1
  6
ByLayer
 10
-235.0091567746881083
 20
847.9000000000003183
 30
0.0
 11
-235.0091567746881083
 21
855.6000000000003638
 31
0.0
  0
LINE
  5
1F3
100
AcDbEntity
100
AcDbLine
  8
poludniowy
 62
256
370
-1
  6
ByLayer
 10
-221.7591567746881083
 20
847.9000000000003183
 30
0.0
 11
-221.7591567746881083
 21
855.6000000000003638
 31
0.0
  0
LINE
  5
1F4
100
AcDbEntity
100
AcDbLine
  8
poludniowy
 62
256
370
-1
  6
ByLayer
 10
-208.5091567746881083
 20
847.9000000000003183
 30
0.0
 11
-208.5091567746881083
 21
855.6000000000003638
 31
0.0
  0
LINE
  5
1F5
100
AcDbEntity
100
AcDbLine
  8
poludniowy
 62
256
370
-1
  6
ByLayer
 10
-195.2591567746881083
 20
847.9000000000003183
 30
0.0
 11
-195.2591567746881083
 21
855.6000000000003638
 31
0.0
  0
LINE
  5
1F6
100
AcDbEntity
100
AcDbLine
  8
poludniowy
 62
256
370
-1
  6
ByLayer
 10
-182.0091567746881083
 20
847.9000000000003183
 30
0.0
 11
-182.0091567746881083
 21
855.6000000000003638
 31
0.0
  0
LINE
  5
1F7
100
AcDbEntity
100
AcDbLine
  8
poludniowy
 62
256
370
-1
  6
ByLayer
 10
-326.5091567746881083
 20
847.9000000000003183
 30
0.0
 11
-326.5091567746881083
 21
855.6000000000003638
 31
0.0
  0
LINE
  5
1F8
100
AcDbEntity
100
AcDbLine
  8
poludniowy
 62
256
370
-1
  6
ByLayer
 10
-313.2591567746881083
 20
847.9000000000003183
 30
0.0
 11
-313.2591567746881083
 21
855.6000000000003638
 31
0.0
  0
LINE
  5
1F9
100
AcDbEntity
100
AcDbLine
  8
poludniowy
 62
256
370
-1
  6
ByLayer
 10
-300.0091567746881083
 20
847.9000000000003183
 30
0.0
 11
-300.0091567746881083
 21
855.6000000000003638
 31
0.0
  0
LINE
  5
1FA
100
AcDbEntity
100
AcDbLine
  8
poludniowy
 62
256
370
-1
  6
ByLayer
 10
-286.7591567746881083
 20
847.9000000000003183
 30
0.0
 11
-286.7591567746881083
 21
855.6000000000003638
 31
0.0
  0
LINE
  5
1FB
100
AcDbEntity
100
AcDbLine
  8
poludniowy
 62
256
370
-1
  6
ByLayer
 10
-273.5091567746881083
 20
847.9000000000003183
 30
0.0
 11
-273.5091567746881083
 21
855.6000000000003638
 31
0.0
  0
LINE
  5
1FC
100
AcDbEntity
100
AcDbLine
  8
poludniowy
 62
256
370
-1
  6
ByLayer
 10
-260.2591567746881083
 20
847.9000000000003183
 30
0.0
 11
-260.2591567746881083
 21
855.6000000000003638
 31
0.0
  0
LINE
  5
1FD
100
AcDbEntity
100
AcDbLine
  8
poludniowy
 62
256
370
-1
  6
ByLayer
 10
-247.0091567746881083
 20
847.9000000000003183
 30
0.0
 11
-247.0091567746881083
 21
855.6000000000003638
 31
0.0
  0
LINE
  5
1FE
100
AcDbEntity
100
AcDbLine
  8
poludniowy
 62
256
370
-1
  6
ByLayer
 10
-233.7591567746881083
 20
847.9000000000003183
 30
0.0
 11
-233.7591567746881083
 21
855.6000000000003638
 31
0.0
  0
LINE
  5
1FF
100
AcDbEntity
100
AcDbLine
  8
poludniowy
 62
256
370
-1
  6
ByLayer
 10
-220.5091567746881083
 20
847.9000000000003183
 30
0.0
 11
-220.5091567746881083
 21
855.6000000000003638
 31
0.0
  0
LINE
  5
200
100
AcDbEntity
100
AcDbLine
  8
poludniowy
 62
256
370
-1
  6
ByLayer
 10
-207.2591567746881083
 20
847.9000000000003183
 30
0.0
 11
-207.2591567746881083
 21
855.6000000000003638
 31
0.0
  0
LINE
  5
201
100
AcDbEntity
100
AcDbLine
  8
poludniowy
 62
256
370
-1
  6
ByLayer
 10
-194.0091567746881083
 20
847.9000000000003183
 30
0.0
 11
-194.0091567746881083
 21
855.6000000000003638
 31
0.0
  0
LINE
  5
202
100
AcDbEntity
100
AcDbLine
  8
poludniowy
 62
256
370
-1
  6
ByLayer
 10
-180.7591567746881083
 20
847.9000000000003183
 30
0.0
 11
-180.7591567746881083
 21
855.6000000000003638
 31
0.0
  0
LINE
  5
203
100
AcDbEntity
100
AcDbLine
  8
poludniowy
 62
256
370
-1
  6
ByLayer
 10
-308.0091567746881083
 20
855.6000000000003638
 30
0.0
 11
-308.0091567746881083
 21
863.3000000000004093
 31
0.0
  0
LINE
  5
204
100
AcDbEntity
100
AcDbLine
  8
poludniowy
 62
256
370
-1
  6
ByLayer
 10
-281.5091567746881083
 20
855.6000000000003638
 30
0.0
 11
-281.5091567746881083
 21
863.3000000000004093
 31
0.0
  0
LINE
  5
205
100
AcDbEntity
100
AcDbLine
  8
poludniowy
 62
256
370
-1
  6
ByLayer
 10
-306.5091567746881083
 20
855.6000000000003638
 30
0.0
 11
-306.5091567746881083
 21
863.3000000000004093
 31
0.0
  0
LINE
  5
206
100
AcDbEntity
100
AcDbLine
  8
poludniowy
 62
256
370
-1
  6
ByLayer
 10
-255.0091567746880514
 20
855.6000000000003638
 30
0.0
 11
-255.0091567746880514
 21
863.3000000000004093
 31
0.0
  0
LINE
  5
207
100
AcDbEntity
100
AcDbLine
  8
poludniowy
 62
256
370
-1
  6
ByLayer
 10
-280.0091567746880514
 20
855.6000000000003638
 30
0.0
 11
-280.0091567746880514
 21
863.3000000000004093
 31
0.0
  0
LINE
  5
208
100
AcDbEntity
100
AcDbLine
  8
poludniowy
 62
256
370
-1
  6
ByLayer
 10
-228.5091567746880514
 20
855.6000000000003638
 30
0.0
 11
-228.5091567746880514
 21
863.3000000000004093
 31
0.0
  0
LINE
  5
209
100
AcDbEntity
100
AcDbLine
  8
poludniowy
 62
256
370
-1
  6
ByLayer
 10
-253.5091567746880514
 20
855.6000000000003638
 30
0.0
 11
-253.5091567746880514
 21
863.3000000000004093
 31
0.0
  0
LINE
  5
20A
100
AcDbEntity
100
AcDbLine
  8
poludniowy
 62
256
370
-1
  6
ByLayer
 10
-202.0091567746880514
 20
855.6000000000003638
 30
0.0
 11
-202.0091567746880514
 21
863.3000000000004093
 31
0.0
  0
LINE
  5
20B
100
AcDbEntity
100
AcDbLine
  8
poludniowy
 62
256
370
-1
  6
ByLayer
 10
-227.0091567746880514
 20
855.6000000000003638
 30
0.0
 11
-227.0091567746880514
 21
863.3000000000004093
 31
0.0
  0
LINE
  5
20C
100
AcDbEntity
100
AcDbLine
  8
poludniowy
 62
256
370
-1
  6
ByLayer
 10
-200.5091567746880514
 20
855.6000000000003638
 30
0.0
 11
-200.5091567746880514
 21
863.3000000000004093
 31
0.0
  0
LINE
  5
20D
100
AcDbEntity
100
AcDbLine
  8
poludniowy
 62
256
370
-1
  6
ByLayer
 10
-320.0091567746881083
 20
855.6000000000003638
 30
0.0
 11
-320.0091567746881083
 21
863.3000000000004093
 31
0.0
  0
LINE
  5
20E
100
AcDbEntity
100
AcDbLine
  8
poludniowy
 62
256
370
-1
  6
ByLayer
 10
-321.5091567746881083
 20
855.6000000000003638
 30
0.0
 11
-321.5091567746881083
 21
863.3000000000004093
 31
0.0
  0
LINE
  5
20F
100
AcDbEntity
100
AcDbLine
  8
poludniowy
 62
256
370
-1
  6
ByLayer
 10
-327.7591567746880514
 20
863.3000000000004093
 30
0.0
 11
-327.7591567746880514
 21
871.0000000000004547
 31
0.0
  0
LINE
  5
210
100
AcDbEntity
100
AcDbLine
  8
poludniowy
 62
256
370
-1
  6
ByLayer
 10
-314.5091567746880514
 20
863.3000000000004093
 30
0.0
 11
-314.5091567746880514
 21
871.0000000000004547
 31
0.0
  0
LINE
  5
211
100
AcDbEntity
100
AcDbLine
  8
poludniowy
 62
256
370
-1
  6
ByLayer
 10
-301.2591567746880514
 20
863.3000000000004093
 30
0.0
 11
-301.2591567746880514
 21
871.0000000000004547
 31
0.0
  0
LINE
  5
212
100
AcDbEntity
100
AcDbLine
  8
poludniowy
 62
256
370
-1
  6
ByLayer
 10
-288.0091567746880514
 20
863.3000000000004093
 30
0.0
 11
-288.0091567746880514
 21
871.0000000000004547
 31
0.0
  0
LINE
  5
213
100
AcDbEntity
100
AcDbLine
  8
poludniowy
 62
256
370
-1
  6
ByLayer
 10
-274.7591567746880514
 20
863.3000000000004093
 30
0.0
 11
-274.7591567746880514
 21
871.0000000000004547
 31
0.0
  0
LINE
  5
214
100
AcDbEntity
100
AcDbLine
  8
poludniowy
 62
256
370
-1
  6
ByLayer
 10
-261.5091567746880514
 20
863.3000000000004093
 30
0.0
 11
-261.5091567746880514
 21
871.0000000000004547
 31
0.0
  0
LINE
  5
215
100
AcDbEntity
100
AcDbLine
  8
poludniowy
 62
256
370
-1
  6
ByLayer
 10
-248.2591567746880514
 20
863.3000000000004093
 30
0.0
 11
-248.2591567746880514
 21
871.0000000000004547
 31
0.0
  0
LINE
  5
216
100
AcDbEntity
100
AcDbLine
  8
poludniowy
 62
256
370
-1
  6
ByLayer
 10
-235.0091567746880514
 20
863.3000000000004093
 30
0.0
 11
-235.0091567746880514
 21
871.0000000000004547
 31
0.0
  0
LINE
  5
217
100
AcDbEntity
100
AcDbLine
  8
poludniowy
 62
256
370
-1
  6
ByLayer
 10
-221.7591567746880514
 20
863.3000000000004093
 30
0.0
 11
-221.7591567746880514
 21
871.0000000000004547
 31
0.0
  0
LINE
  5
218
100
AcDbEntity
100
AcDbLine
  8
poludniowy
 62
256
370
-1
  6
ByLayer
 10
-208.5091567746880514
 20
863.3000000000004093
 30
0.0
 11
-208.5091567746880514
 21
871.0000000000004547
 31
0.0
  0
LINE
  5
219
100
AcDbEntity
100
AcDbLine
  8
poludniowy
 62
256
370
-1
  6
ByLayer
 10
-195.2591567746880514
 20
863.3000000000004093
 30
0.0
 11
-195.2591567746880514
 21
871.0000000000004547
 31
0.0
  0
LINE
  5
21A
100
AcDbEntity
100
AcDbLine
  8
poludniowy
 62
256
370
-1
  6
ByLayer
 10
-326.5091567746880514
 20
863.3000000000004093
 30
0.0
 11
-326.5091567746880514
 21
871.0000000000004547
 31
0.0
  0
LINE
  5
21B
100
AcDbEntity
100
AcDbLine
  8
poludniowy
 62
256
370
-1
  6
ByLayer
 10
-313.2591567746880514
 20
863.3000000000004093
 30
0.0
 11
-313.2591567746880514
 21
871.0000000000004547
 31
0.0
  0
LINE
  5
21C
100
AcDbEntity
100
AcDbLine
  8
poludniowy
 62
256
370
-1
  6
ByLayer
 10
-300.0091567746880514
 20
863.3000000000004093
 30
0.0
 11
-300.0091567746880514
 21
871.0000000000004547
 31
0.0
  0
LINE
  5
21D
100
AcDbEntity
100
AcDbLine
  8
poludniowy
 62
256
370
-1
  6
ByLayer
 10
-286.7591567746880514
 20
863.3000000000004093
 30
0.0
 11
-286.7591567746880514
 21
871.0000000000004547
 31
0.0
  0
LINE
  5
21E
100
AcDbEntity
100
AcDbLine
  8
poludniowy
 62
256
370
-1
  6
ByLayer
 10
-273.5091567746880514
 20
863.3000000000004093
 30
0.0
 11
-273.5091567746880514
 21
871.0000000000004547
 31
0.0
  0
LINE
  5
21F
100
AcDbEntity
100
AcDbLine
  8
poludniowy
 62
256
370
-1
  6
ByLayer
 10
-260.2591567746880514
 20
863.3000000000004093
 30
0.0
 11
-260.2591567746880514
 21
871.0000000000004547
 31
0.0
  0
LINE
  5
220
100
AcDbEntity
100
AcDbLine
  8
poludniowy
 62
256
370
-1
  6
ByLayer
 10
-247.0091567746880514
 20
863.3000000000004093
 30
0.0
 11
-247.0091567746880514
 21
871.0000000000004547
 31
0.0
  0
LINE
  5
221
100
AcDbEntity
100
AcDbLine
  8
poludniowy
 62
256
370
-1
  6
ByLayer
 10
-233.7591567746880514
 20
863.3000000000004093
 30
0.0
 11
-233.7591567746880514
 21
871.0000000000004547
 31
0.0
  0
LINE
  5
222
100
AcDbEntity
100
AcDbLine
  8
poludniowy
 62
256
370
-1
  6
ByLayer
 10
-220.5091567746880514
 20
863.3000000000004093
 30
0.0
 11
-220.5091567746880514
 21
871.0000000000004547
 31
0.0
  0
LINE
  5
223
100
AcDbEntity
100
AcDbLine
  8
poludniowy
 62
256
370
-1
  6
ByLayer
 10
-207.2591567746880514
 20
863.3000000000004093
 30
0.0
 11
-207.2591567746880514
 21
871.0000000000004547
 31
0.0
  0
LINE
  5
224
100
AcDbEntity
100
AcDbLine
  8
poludniowy
 62
256
370
-1
  6
ByLayer
 10
-194.0091567746880514
 20
863.3000000000004093
 30
0.0
 11
-194.0091567746880514
 21
871.0000000000004547
 31
0.0
  0
LINE
  5
225
100
AcDbEntity
100
AcDbLine
  8
poludniowy
 62
256
370
-1
  6
ByLayer
 10
-321.2591567746880514
 20
871.0000000000004547
 30
0.0
 11
-321.2591567746880514
 21
878.7000000000005002
 31
0.0
  0
LINE
  5
226
100
AcDbEntity
100
AcDbLine
  8
poludniowy
 62
256
370
-1
  6
ByLayer
 10
-294.7591567746880514
 20
871.0000000000004547
 30
0.0
 11
-294.7591567746880514
 21
878.7000000000005002
 31
0.0
  0
LINE
  5
227
100
AcDbEntity
100
AcDbLine
  8
poludniowy
 62
256
370
-1
  6
ByLayer
 10
-319.7591567746880514
 20
871.0000000000004547
 30
0.0
 11
-319.7591567746880514
 21
878.7000000000005002
 31
0.0
  0
LINE
  5
228
100
AcDbEntity
100
AcDbLine
  8
poludniowy
 62
256
370
-1
  6
ByLayer
 10
-268.2591567746880514
 20
871.0000000000004547
 30
0.0
 11
-268.2591567746880514
 21
878.7000000000005002
 31
0.0
  0
LINE
  5
229
100
AcDbEntity
100
AcDbLine
  8
poludniowy
 62
256
370
-1
  6
ByLayer
 10
-293.2591567746880514
 20
871.0000000000004547
 30
0.0
 11
-293.2591567746880514
 21
878.7000000000005002
 31
0.0
  0
LINE
  5
22A
100
AcDbEntity
100
AcDbLine
  8
poludniowy
 62
256
370
-1
  6
ByLayer
 10
-241.7591567746879946
 20
871.0000000000004547
 30
0.0
 11
-241.7591567746879946
 21
878.7000000000005002
 31
0.0
  0
LINE
  5
22B
100
AcDbEntity
100
AcDbLine
  8
poludniowy
 62
256
370
-1
  6
ByLayer
 10
-266.7591567746879946
 20
871.0000000000004547
 30
0.0
 11
-266.7591567746879946
 21
878.7000000000005002
 31
0.0
  0
LINE
  5
22C
100
AcDbEntity
100
AcDbLine
  8
poludniowy
 62
256
370
-1
  6
ByLayer
 10
-215.2591567746879946
 20
871.0000000000004547
 30
0.0
 11
-215.2591567746879946
 21
878.7000000000005002
 31
0.0
  0
LINE
  5
22D
100
AcDbEntity
100
AcDbLine
  8
poludniowy
 62
256
370
-1
  6
ByLayer
 10
-240.2591567746879946
 20
871.0000000000004547
 30
0.0
 11
-240.2591567746879946
 21
878.7000000000005002
 31
0.0
  0
LINE
  5
22E
100
AcDbEntity
100
AcDbLine
  8
poludniowy
 62
256
370
-1
  6
ByLayer
 10
-213.7591567746879946
 20
871.0000000000004547
 30
0.0
 11
-213.7591567746879946
 21
878.7000000000005002
 31
0.0
  0
LINE
  5
22F
100
AcDbEntity
100
AcDbLine
  8
poludniowy
 62
256
370
-1
  6
ByLayer
 10
-327.7591567746880514
 20
878.7000000000005002
 30
0.0
 11
-327.7591567746880514
 21
886.4000000000005457
 31
0.0
  0
LINE
  5
230
100
AcDbEntity
100
AcDbLine
  8
poludniowy
 62
256
370
-1
  6
ByLayer
 10
-314.5091567746880514
 20
878.7000000000005002
 30
0.0
 11
-314.5091567746880514
 21
886.4000000000005457
 31
0.0
  0
LINE
  5
231
100
AcDbEntity
100
AcDbLine
  8
poludniowy
 62
256
370
-1
  6
ByLayer
 10
-301.2591567746880514
 20
878.7000000000005002
 30
0.0
 11
-301.2591567746880514
 21
886.4000000000005457
 31
0.0
  0
LINE
  5
232
100
AcDbEntity
100
AcDbLine
  8
poludniowy
 62
256
370
-1
  6
ByLayer
 10
-288.0091567746880514
 20
878.7000000000005002
 30
0.0
 11
-288.0091567746880514
 21
886.4000000000005457
 31
0.0
  0
LINE
  5
233
100
AcDbEntity
100
AcDbLine
  8
poludniowy
 62
256
370
-1
  6
ByLayer
 10
-274.7591567746880514
 20
878.7000000000005002
 30
0.0
 11
-274.7591567746880514
 21
886.4000000000005457
 31
0.0
  0
LINE
  5
234
100
AcDbEntity
100
AcDbLine
  8
poludniowy
 62
256
370
-1
  6
ByLayer
 10
-261.5091567746880514
 20
878.7000000000005002
 30
0.0
 11
-261.5091567746880514
 21
886.4000000000005457
 31
0.0
  0
LINE
  5
235
100
AcDbEntity
100
AcDbLine
  8
poludniowy
 62
256
370
-1
  6
ByLayer
 10
-248.2591567746880514
 20
878.7000000000005002
 30
0.0
 11
-248.2591567746880514
 21
886.4000000000005457
 31
0.0
  0
LINE
  5
236
100
AcDbEntity
100
AcDbLine
  8
poludniowy
 62
256
370
-1
  6
ByLayer
 10
-235.0091567746880514
 20
878.7000000000005002
 30
0.0
 11
-235.0091567746880514
 21
886.4000000000005457
 31
0.0
  0
LINE
  5
237
100
AcDbEntity
100
AcDbLine
  8
poludniowy
 62
256
370
-1
  6
ByLayer
 10
-221.7591567746880514
 20
878.7000000000005002
 30
0.0
 11
-221.7591567746880514
 21
886.4000000000005457
 31
0.0
  0
LINE
  5
238
100
AcDbEntity
100
AcDbLine
  8
poludniowy
 62
256
370
-1
  6
ByLayer
 10
-208.5091567746880514
 20
878.7000000000005002
 30
0.0
 11
-208.5091567746880514
 21
886.4000000000005457
 31
0.0
  0
LINE
  5
239
100
AcDbEntity
100
AcDbLine
  8
poludniowy
 62
256
370
-1
  6
ByLayer
 10
-326.5091567746880514
 20
878.7000000000005002
 30
0.0
 11
-326.5091567746880514
 21
886.4000000000005457
 31
0.0
  0
LINE
  5
23A
100
AcDbEntity
100
AcDbLine
  8
poludniowy
 62
256
370
-1
  6
ByLayer
 10
-313.2591567746880514
 20
878.7000000000005002
 30
0.0
 11
-313.2591567746880514
 21
886.4000000000005457
 31
0.0
  0
LINE
  5
23B
100
AcDbEntity
100
AcDbLine
  8
poludniowy
 62
256
370
-1
  6
ByLayer
 10
-300.0091567746880514
 20
878.7000000000005002
 30
0.0
 11
-300.0091567746880514
 21
886.4000000000005457
 31
0.0
  0
LINE
  5
23C
100
AcDbEntity
100
AcDbLine
  8
poludniowy
 62
256
370
-1
  6
ByLayer
 10
-286.7591567746880514
 20
878.7000000000005002
 30
0.0
 11
-286.7591567746880514
 21
886.4000000000005457
 31
0.0
  0
LINE
  5
23D
100
AcDbEntity
100
AcDbLine
  8
poludniowy
 62
256
370
-1
  6
ByLayer
 10
-273.5091567746880514
 20
878.7000000000005002
 30
0.0
 11
-273.5091567746880514
 21
886.4000000000005457
 31
0.0
  0
LINE
  5
23E
100
AcDbEntity
100
AcDbLine
  8
poludniowy
 62
256
370
-1
  6
ByLayer
 10
-260.2591567746880514
 20
878.7000000000005002
 30
0.0
 11
-260.2591567746880514
 21
886.4000000000005457
 31
0.0
  0
LINE
  5
23F
100
AcDbEntity
100
AcDbLine
  8
poludniowy
 62
256
370
-1
  6
ByLayer
 10
-247.0091567746880514
 20
878.7000000000005002
 30
0.0
 11
-247.0091567746880514
 21
886.4000000000005457
 31
0.0
  0
LINE
  5
240
100
AcDbEntity
100
AcDbLine
  8
poludniowy
 62
256
370
-1
  6
ByLayer
 10
-233.7591567746880514
 20
878.7000000000005002
 30
0.0
 11
-233.7591567746880514
 21
886.4000000000005457
 31
0.0
  0
LINE
  5
241
100
AcDbEntity
100
AcDbLine
  8
poludniowy
 62
256
370
-1
  6
ByLayer
 10
-220.5091567746880514
 20
878.7000000000005002
 30
0.0
 11
-220.5091567746880514
 21
886.4000000000005457
 31
0.0
  0
LINE
  5
242
100
AcDbEntity
100
AcDbLine
  8
poludniowy
 62
256
370
-1
  6
ByLayer
 10
-207.2591567746880514
 20
878.7000000000005002
 30
0.0
 11
-207.2591567746880514
 21
886.4000000000005457
 31
0.0
  0
LINE
  5
243
100
AcDbEntity
100
AcDbLine
  8
poludniowy
 62
256
370
-1
  6
ByLayer
 10
-308.0091567746880514
 20
886.4000000000005457
 30
0.0
 11
-308.0091567746880514
 21
894.1000000000005912
 31
0.0
  0
LINE
  5
244
100
AcDbEntity
100
AcDbLine
  8
poludniowy
 62
256
370
-1
  6
ByLayer
 10
-281.5091567746880514
 20
886.4000000000005457
 30
0.0
 11
-281.5091567746880514
 21
894.1000000000005912
 31
0.0
  0
LINE
  5
245
100
AcDbEntity
100
AcDbLine
  8
poludniowy
 62
256
370
-1
  6
ByLayer
 10
-306.5091567746880514
 20
886.4000000000005457
 30
0.0
 11
-306.5091567746880514
 21
894.1000000000005912
 31
0.0
  0
LINE
  5
246
100
AcDbEntity
100
AcDbLine
  8
poludniowy
 62
256
370
-1
  6
ByLayer
 10
-255.0091567746879946
 20
886.4000000000005457
 30
0.0
 11
-255.0091567746879946
 21
894.1000000000005912
 31
0.0
  0
LINE
  5
247
100
AcDbEntity
100
AcDbLine
  8
poludniowy
 62
256
370
-1
  6
ByLayer
 10
-280.0091567746879946
 20
886.4000000000005457
 30
0.0
 11
-280.0091567746879946
 21
894.1000000000005912
 31
0.0
  0
LINE
  5
248
100
AcDbEntity
100
AcDbLine
  8
poludniowy
 62
256
370
-1
  6
ByLayer
 10
-228.5091567746879946
 20
886.4000000000005457
 30
0.0
 11
-228.5091567746879946
 21
894.1000000000005912
 31
0.0
  0
LINE
  5
249
100
AcDbEntity
100
AcDbLine
  8
poludniowy
 62
256
370
-1
  6
ByLayer
 10
-253.5091567746879946
 20
886.4000000000005457
 30
0.0
 11
-253.5091567746879946
 21
894.1000000000005912
 31
0.0
  0
LINE
  5
24A
100
AcDbEntity
100
AcDbLine
  8
poludniowy
 62
256
370
-1
  6
ByLayer
 10
-227.0091567746879946
 20
886.4000000000005457
 30
0.0
 11
-227.0091567746879946
 21
894.1000000000005912
 31
0.0
  0
LINE
  5
24B
100
AcDbEntity
100
AcDbLine
  8
poludniowy
 62
256
370
-1
  6
ByLayer
 10
-320.0091567746880514
 20
886.4000000000005457
 30
0.0
 11
-320.0091567746880514
 21
894.1000000000005912
 31
0.0
  0
LINE
  5
24C
100
AcDbEntity
100
AcDbLine
  8
poludniowy
 62
256
370
-1
  6
ByLayer
 10
-321.5091567746880514
 20
886.4000000000005457
 30
0.0
 11
-321.5091567746880514
 21
894.1000000000005912
 31
0.0
  0
LINE
  5
24D
100
AcDbEntity
100
AcDbLine
  8
poludniowy
 62
256
370
-1
  6
ByLayer
 10
-327.7591567746880514
 20
894.1000000000005912
 30
0.0
 11
-327.7591567746880514
 21
901.8000000000006366
 31
0.0
  0
LINE
  5
24E
100
AcDbEntity
100
AcDbLine
  8
poludniowy
 62
256
370
-1
  6
ByLayer
 10
-314.5091567746880514
 20
894.1000000000005912
 30
0.0
 11
-314.5091567746880514
 21
901.8000000000006366
 31
0.0
  0
LINE
  5
24F
100
AcDbEntity
100
AcDbLine
  8
poludniowy
 62
256
370
-1
  6
ByLayer
 10
-301.2591567746880514
 20
894.1000000000005912
 30
0.0
 11
-301.2591567746880514
 21
901.8000000000006366
 31
0.0
  0
LINE
  5
250
100
AcDbEntity
100
AcDbLine
  8
poludniowy
 62
256
370
-1
  6
ByLayer
 10
-288.0091567746880514
 20
894.1000000000005912
 30
0.0
 11
-288.0091567746880514
 21
901.8000000000006366
 31
0.0
  0
LINE
  5
251
100
AcDbEntity
100
AcDbLine
  8
poludniowy
 62
256
370
-1
  6
ByLayer
 10
-274.7591567746880514
 20
894.1000000000005912
 30
0.0
 11
-274.7591567746880514
 21
901.8000000000006366
 31
0.0
  0
LINE
  5
252
100
AcDbEntity
100
AcDbLine
  8
poludniowy
 62
256
370
-1
  6
ByLayer
 10
-261.5091567746880514
 20
894.1000000000005912
 30
0.0
 11
-261.5091567746880514
 21
901.8000000000006366
 31
0.0
  0
LINE
  5
253
100
AcDbEntity
100
AcDbLine
  8
poludniowy
 62
256
370
-1
  6
ByLayer
 10
-248.2591567746880514
 20
894.1000000000005912
 30
0.0
 11
-248.2591567746880514
 21
901.8000000000006366
 31
0.0
  0
LINE
  5
254
100
AcDbEntity
100
AcDbLine
  8
poludniowy
 62
256
370
-1
  6
ByLayer
 10
-235.0091567746880514
 20
894.1000000000005912
 30
0.0
 11
-235.0091567746880514
 21
901.8000000000006366
 31
0.0
  0
LINE
  5
255
100
AcDbEntity
100
AcDbLine
  8
poludniowy
 62
256
370
-1
  6
ByLayer
 10
-221.7591567746880514
 20
894.1000000000005912
 30
0.0
 11
-221.7591567746880514
 21
901.8000000000006366
 31
0.0
  0
LINE
  5
256
100
AcDbEntity
100
AcDbLine
  8
poludniowy
 62
256
370
-1
  6
ByLayer
 10
-326.5091567746880514
 20
894.1000000000005912
 30
0.0
 11
-326.5091567746880514
 21
901.8000000000006366
 31
0.0
  0
LINE
  5
257
100
AcDbEntity
100
AcDbLine
  8
poludniowy
 62
256
370
-1
  6
ByLayer
 10
-313.2591567746880514
 20
894.1000000000005912
 30
0.0
 11
-313.2591567746880514
 21
901.8000000000006366
 31
0.0
  0
LINE
  5
258
100
AcDbEntity
100
AcDbLine
  8
poludniowy
 62
256
370
-1
  6
ByLayer
 10
-300.0091567746880514
 20
894.1000000000005912
 30
0.0
 11
-300.0091567746880514
 21
901.8000000000006366
 31
0.0
  0
LINE
  5
259
100
AcDbEntity
100
AcDbLine
  8
poludniowy
 62
256
370
-1
  6
ByLayer
 10
-286.7591567746880514
 20
894.1000000000005912
 30
0.0
 11
-286.7591567746880514
 21
901.8000000000006366
 31
0.0
  0
LINE
  5
25A
100
AcDbEntity
100
AcDbLine
  8
poludniowy
 62
256
370
-1
  6
ByLayer
 10
-273.5091567746880514
 20
894.1000000000005912
 30
0.0
 11
-273.5091567746880514
 21
901.8000000000006366
 31
0.0
  0
LINE
  5
25B
100
AcDbEntity
100
AcDbLine
  8
poludniowy
 62
256
370
-1
  6
ByLayer
 10
-260.2591567746880514
 20
894.1000000000005912
 30
0.0
 11
-260.2591567746880514
 21
901.8000000000006366
 31
0.0
  0
LINE
  5
25C
100
AcDbEntity
100
AcDbLine
  8
poludniowy
 62
256
370
-1
  6
ByLayer
 10
-247.0091567746880514
 20
894.1000000000005912
 30
0.0
 11
-247.0091567746880514
 21
901.8000000000006366
 31
0.0
  0
LINE
  5
25D
100
AcDbEntity
100
AcDbLine
  8
poludniowy
 62
256
370
-1
  6
ByLayer
 10
-233.7591567746880514
 20
894.1000000000005912
 30
0.0
 11
-233.7591567746880514
 21
901.8000000000006366
 31
0.0
  0
LINE
  5
25E
100
AcDbEntity
100
AcDbLine
  8
poludniowy
 62
256
370
-1
  6
ByLayer
 10
-220.5091567746880514
 20
894.1000000000005912
 30
0.0
 11
-220.5091567746880514
 21
901.8000000000006366
 31
0.0
  0
LINE
  5
25F
100
AcDbEntity
100
AcDbLine
  8
poludniowy
 62
256
370
-1
  6
ByLayer
 10
-321.2591567746880514
 20
901.8000000000006366
 30
0.0
 11
-321.2591567746880514
 21
909.5000000000006821
 31
0.0
  0
LINE
  5
260
100
AcDbEntity
100
AcDbLine
  8
poludniowy
 62
256
370
-1
  6
ByLayer
 10
-294.7591567746880514
 20
901.8000000000006366
 30
0.0
 11
-294.7591567746880514
 21
909.5000000000006821
 31
0.0
  0
LINE
  5
261
100
AcDbEntity
100
AcDbLine
  8
poludniowy
 62
256
370
-1
  6
ByLayer
 10
-319.7591567746880514
 20
901.8000000000006366
 30
0.0
 11
-319.7591567746880514
 21
909.5000000000006821
 31
0.0
  0
LINE
  5
262
100
AcDbEntity
100
AcDbLine
  8
poludniowy
 62
256
370
-1
  6
ByLayer
 10
-268.2591567746880514
 20
901.8000000000006366
 30
0.0
 11
-268.2591567746880514
 21
909.5000000000006821
 31
0.0
  0
LINE
  5
263
100
AcDbEntity
100
AcDbLine
  8
poludniowy
 62
256
370
-1
  6
ByLayer
 10
-293.2591567746880514
 20
901.8000000000006366
 30
0.0
 11
-293.2591567746880514
 21
909.5000000000006821
 31
0.0
  0
LINE
  5
264
100
AcDbEntity
100
AcDbLine
  8
poludniowy
 62
256
370
-1
  6
ByLayer
 10
-241.7591567746879946
 20
901.8000000000006366
 30
0.0
 11
-241.7591567746879946
 21
909.5000000000006821
 31
0.0
  0
LINE
  5
265
100
AcDbEntity
100
AcDbLine
  8
poludniowy
 62
256
370
-1
  6
ByLayer
 10
-266.7591567746879946
 20
901.8000000000006366
 30
0.0
 11
-266.7591567746879946
 21
909.5000000000006821
 31
0.0
  0
LINE
  5
266
100
AcDbEntity
100
AcDbLine
  8
poludniowy
 62
256
370
-1
  6
ByLayer
 10
-240.2591567746879946
 20
901.8000000000006366
 30
0.0
 11
-240.2591567746879946
 21
909.5000000000006821
 31
0.0
  0
LINE
  5
267
100
AcDbEntity
100
AcDbLine
  8
poludniowy
 62
256
370
-1
  6
ByLayer
 10
-327.7591567746880514
 20
909.5000000000006821
 30
0.0
 11
-327.7591567746880514
 21
917.2000000000007276
 31
0.0
  0
LINE
  5
268
100
AcDbEntity
100
AcDbLine
  8
poludniowy
 62
256
370
-1
  6
ByLayer
 10
-314.5091567746880514
 20
909.5000000000006821
 30
0.0
 11
-314.5091567746880514
 21
917.2000000000007276
 31
0.0
  0
LINE
  5
269
100
AcDbEntity
100
AcDbLine
  8
poludniowy
 62
256
370
-1
  6
ByLayer
 10
-301.2591567746880514
 20
909.5000000000006821
 30
0.0
 11
-301.2591567746880514
 21
917.2000000000007276
 31
0.0
  0
LINE
  5
26A
100
AcDbEntity
100
AcDbLine
  8
poludniowy
 62
256
370
-1
  6
ByLayer
 10
-288.0091567746880514
 20
909.5000000000006821
 30
0.0
 11
-288.0091567746880514
 21
917.2000000000007276
 31
0.0
  0
LINE
  5
26B
100
AcDbEntity
100
AcDbLine
  8
poludniowy
 62
256
370
-1
  6
ByLayer
 10
-274.7591567746880514
 20
909.5000000000006821
 30
0.0
 11
-274.7591567746880514
 21
917.2000000000007276
 31
0.0
  0
LINE
  5
26C
100
AcDbEntity
100
AcDbLine
  8
poludniowy
 62
256
370
-1
  6
ByLayer
 10
-261.5091567746880514
 20
909.5000000000006821
 30
0.0
 11
-261.5091567746880514
 21
917.2000000000007276
 31
0.0
  0
LINE
  5
26D
100
AcDbEntity
100
AcDbLine
  8
poludniowy
 62
256
370
-1
  6
ByLayer
 10
-248.2591567746880514
 20
909.5000000000006821
 30
0.0
 11
-248.2591567746880514
 21
917.2000000000007276
 31
0.0
  0
LINE
  5
26E
100
AcDbEntity
100
AcDbLine
  8
poludniowy
 62
256
370
-1
  6
ByLayer
 10
-235.0091567746880514
 20
909.5000000000006821
 30
0.0
 11
-235.0091567746880514
 21
917.2000000000007276
 31
0.0
  0
LINE
  5
26F
100
AcDbEntity
100
AcDbLine
  8
poludniowy
 62
256
370
-1
  6
ByLayer
 10
-326.5091567746880514
 20
909.5000000000006821
 30
0.0
 11
-326.5091567746880514
 21
917.2000000000007276
 31
0.0
  0
LINE
  5
270
100
AcDbEntity
100
AcDbLine
  8
poludniowy
 62
256
370
-1
  6
ByLayer
 10
-313.2591567746880514
 20
909.5000000000006821
 30
0.0
 11
-313.2591567746880514
 21
917.2000000000007276
 31
0.0
  0
LINE
  5
271
100
AcDbEntity
100
AcDbLine
  8
poludniowy
 62
256
370
-1
  6
ByLayer
 10
-300.0091567746880514
 20
909.5000000000006821
 30
0.0
 11
-300.0091567746880514
 21
917.2000000000007276
 31
0.0
  0
LINE
  5
272
100
AcDbEntity
100
AcDbLine
  8
poludniowy
 62
256
370
-1
  6
ByLayer
 10
-286.7591567746880514
 20
909.5000000000006821
 30
0.0
 11
-286.7591567746880514
 21
917.2000000000007276
 31
0.0
  0
LINE
  5
273
100
AcDbEntity
100
AcDbLine
  8
poludniowy
 62
256
370
-1
  6
ByLayer
 10
-273.5091567746880514
 20
909.5000000000006821
 30
0.0
 11
-273.5091567746880514
 21
917.2000000000007276
 31
0.0
  0
LINE
  5
274
100
AcDbEntity
100
AcDbLine
  8
poludniowy
 62
256
370
-1
  6
ByLayer
 10
-260.2591567746880514
 20
909.5000000000006821
 30
0.0
 11
-260.2591567746880514
 21
917.2000000000007276
 31
0.0
  0
LINE
  5
275
100
AcDbEntity
100
AcDbLine
  8
poludniowy
 62
256
370
-1
  6
ByLayer
 10
-247.0091567746880514
 20
909.5000000000006821
 30
0.0
 11
-247.0091567746880514
 21
917.2000000000007276
 31
0.0
  0
LINE
  5
276
100
AcDbEntity
100
AcDbLine
  8
poludniowy
 62
256
370
-1
  6
ByLayer
 10
-233.7591567746880514
 20
909.5000000000006821
 30
0.0
 11
-233.7591567746880514
 21
917.2000000000007276
 31
0.0
  0
LINE
  5
277
100
AcDbEntity
100
AcDbLine
  8
poludniowy
 62
256
370
-1
  6
ByLayer
 10
-308.0091567746880514
 20
917.2000000000007276
 30
0.0
 11
-308.0091567746880514
 21
924.9000000000007731
 31
0.0
  0
LINE
  5
278
100
AcDbEntity
100
AcDbLine
  8
poludniowy
 62
256
370
-1
  6
ByLayer
 10
-281.5091567746880514
 20
917.2000000000007276
 30
0.0
 11
-281.5091567746880514
 21
924.9000000000007731
 31
0.0
  0
LINE
  5
279
100
AcDbEntity
100
AcDbLine
  8
poludniowy
 62
256
370
-1
  6
ByLayer
 10
-306.5091567746880514
 20
917.2000000000007276
 30
0.0
 11
-306.5091567746880514
 21
924.9000000000007731
 31
0.0
  0
LINE
  5
27A
100
AcDbEntity
100
AcDbLine
  8
poludniowy
 62
256
370
-1
  6
ByLayer
 10
-255.0091567746879946
 20
917.2000000000007276
 30
0.0
 11
-255.0091567746879946
 21
924.9000000000007731
 31
0.0
  0
LINE
  5
27B
100
AcDbEntity
100
AcDbLine
  8
poludniowy
 62
256
370
-1
  6
ByLayer
 10
-280.0091567746879946
 20
917.2000000000007276
 30
0.0
 11
-280.0091567746879946
 21
924.9000000000007731
 31
0.0
  0
LINE
  5
27C
100
AcDbEntity
100
AcDbLine
  8
poludniowy
 62
256
370
-1
  6
ByLayer
 10
-253.5091567746879946
 20
917.2000000000007276
 30
0.0
 11
-253.5091567746879946
 21
924.9000000000007731
 31
0.0
  0
LINE
  5
27D
100
AcDbEntity
100
AcDbLine
  8
poludniowy
 62
256
370
-1
  6
ByLayer
 10
-320.0091567746880514
 20
917.2000000000007276
 30
0.0
 11
-320.0091567746880514
 21
924.9000000000007731
 31
0.0
  0
LINE
  5
27E
100
AcDbEntity
100
AcDbLine
  8
poludniowy
 62
256
370
-1
  6
ByLayer
 10
-321.5091567746880514
 20
917.2000000000007276
 30
0.0
 11
-321.5091567746880514
 21
924.9000000000007731
 31
0.0
  0
LINE
  5
27F
100
AcDbEntity
100
AcDbLine
  8
poludniowy
 62
256
370
-1
  6
ByLayer
 10
-327.7591567746880514
 20
924.9000000000007731
 30
0.0
 11
-327.7591567746880514
 21
932.6000000000008185
 31
0.0
  0
LINE
  5
280
100
AcDbEntity
100
AcDbLine
  8
poludniowy
 62
256
370
-1
  6
ByLayer
 10
-314.5091567746880514
 20
924.9000000000007731
 30
0.0
 11
-314.5091567746880514
 21
932.6000000000008185
 31
0.0
  0
LINE
  5
281
100
AcDbEntity
100
AcDbLine
  8
poludniowy
 62
256
370
-1
  6
ByLayer
 10
-301.2591567746880514
 20
924.9000000000007731
 30
0.0
 11
-301.2591567746880514
 21
932.6000000000008185
 31
0.0
  0
LINE
  5
282
100
AcDbEntity
100
AcDbLine
  8
poludniowy
 62
256
370
-1
  6
ByLayer
 10
-288.0091567746880514
 20
924.9000000000007731
 30
0.0
 11
-288.0091567746880514
 21
932.6000000000008185
 31
0.0
  0
LINE
  5
283
100
AcDbEntity
100
AcDbLine
  8
poludniowy
 62
256
370
-1
  6
ByLayer
 10
-274.7591567746880514
 20
924.9000000000007731
 30
0.0
 11
-274.7591567746880514
 21
932.6000000000008185
 31
0.0
  0
LINE
  5
284
100
AcDbEntity
100
AcDbLine
  8
poludniowy
 62
256
370
-1
  6
ByLayer
 10
-261.5091567746880514
 20
924.9000000000007731
 30
0.0
 11
-261.5091567746880514
 21
932.6000000000008185
 31
0.0
  0
LINE
  5
285
100
AcDbEntity
100
AcDbLine
  8
poludniowy
 62
256
370
-1
  6
ByLayer
 10
-248.2591567746880514
 20
924.9000000000007731
 30
0.0
 11
-248.2591567746880514
 21
932.6000000000008185
 31
0.0
  0
LINE
  5
286
100
AcDbEntity
100
AcDbLine
  8
poludniowy
 62
256
370
-1
  6
ByLayer
 10
-326.5091567746880514
 20
924.9000000000007731
 30
0.0
 11
-326.5091567746880514
 21
932.6000000000008185
 31
0.0
  0
LINE
  5
287
100
AcDbEntity
100
AcDbLine
  8
poludniowy
 62
256
370
-1
  6
ByLayer
 10
-313.2591567746880514
 20
924.9000000000007731
 30
0.0
 11
-313.2591567746880514
 21
932.6000000000008185
 31
0.0
  0
LINE
  5
288
100
AcDbEntity
100
AcDbLine
  8
poludniowy
 62
256
370
-1
  6
ByLayer
 10
-300.0091567746880514
 20
924.9000000000007731
 30
0.0
 11
-300.0091567746880514
 21
932.6000000000008185
 31
0.0
  0
LINE
  5
289
100
AcDbEntity
100
AcDbLine
  8
poludniowy
 62
256
370
-1
  6
ByLayer
 10
-286.7591567746880514
 20
924.9000000000007731
 30
0.0
 11
-286.7591567746880514
 21
932.6000000000008185
 31
0.0
  0
LINE
  5
28A
100
AcDbEntity
100
AcDbLine
  8
poludniowy
 62
256
370
-1
  6
ByLayer
 10
-273.5091567746880514
 20
924.9000000000007731
 30
0.0
 11
-273.5091567746880514
 21
932.6000000000008185
 31
0.0
  0
LINE
  5
28B
100
AcDbEntity
100
AcDbLine
  8
poludniowy
 62
256
370
-1
  6
ByLayer
 10
-260.2591567746880514
 20
924.9000000000007731
 30
0.0
 11
-260.2591567746880514
 21
932.6000000000008185
 31
0.0
  0
LINE
  5
28C
100
AcDbEntity
100
AcDbLine
  8
poludniowy
 62
256
370
-1
  6
ByLayer
 10
-247.0091567746880514
 20
924.9000000000007731
 30
0.0
 11
-247.0091567746880514
 21
932.6000000000008185
 31
0.0
  0
LINE
  5
28D
100
AcDbEntity
100
AcDbLine
  8
poludniowy
 62
256
370
-1
  6
ByLayer
 10
-321.2591567746880514
 20
932.6000000000008185
 30
0.0
 11
-321.2591567746880514
 21
940.300000000000864
 31
0.0
  0
LINE
  5
28E
100
AcDbEntity
100
AcDbLine
  8
poludniowy
 62
256
370
-1
  6
ByLayer
 10
-294.7591567746880514
 20
932.6000000000008185
 30
0.0
 11
-294.7591567746880514
 21
940.300000000000864
 31
0.0
  0
LINE
  5
28F
100
AcDbEntity
100
AcDbLine
  8
poludniowy
 62
256
370
-1
  6
ByLayer
 10
-319.7591567746880514
 20
932.6000000000008185
 30
0.0
 11
-319.7591567746880514
 21
940.300000000000864
 31
0.0
  0
LINE
  5
290
100
AcDbEntity
100
AcDbLine
  8
poludniowy
 62
256
370
-1
  6
ByLayer
 10
-268.2591567746880514
 20
932.6000000000008185
 30
0.0
 11
-268.2591567746880514
 21
940.300000000000864
 31
0.0
  0
LINE
  5
291
100
AcDbEntity
100
AcDbLine
  8
poludniowy
 62
256
370
-1
  6
ByLayer
 10
-293.2591567746880514
 20
932.6000000000008185
 30
0.0
 11
-293.2591567746880514
 21
940.300000000000864
 31
0.0
  0
LINE
  5
292
100
AcDbEntity
100
AcDbLine
  8
poludniowy
 62
256
370
-1
  6
ByLayer
 10
-266.7591567746879946
 20
932.6000000000008185
 30
0.0
 11
-266.7591567746879946
 21
940.300000000000864
 31
0.0
  0
LINE
  5
293
100
AcDbEntity
100
AcDbLine
  8
poludniowy
 62
256
370
-1
  6
ByLayer
 10
-327.7591567746880514
 20
940.300000000000864
 30
0.0
 11
-327.7591567746880514
 21
948.0000000000009095
 31
0.0
  0
LINE
  5
294
100
AcDbEntity
100
AcDbLine
  8
poludniowy
 62
256
370
-1
  6
ByLayer
 10
-314.5091567746880514
 20
940.300000000000864
 30
0.0
 11
-314.5091567746880514
 21
948.0000000000009095
 31
0.0
  0
LINE
  5
295
100
AcDbEntity
100
AcDbLine
  8
poludniowy
 62
256
370
-1
  6
ByLayer
 10
-301.2591567746880514
 20
940.300000000000864
 30
0.0
 11
-301.2591567746880514
 21
948.0000000000009095
 31
0.0
  0
LINE
  5
296
100
AcDbEntity
100
AcDbLine
  8
poludniowy
 62
256
370
-1
  6
ByLayer
 10
-288.0091567746880514
 20
940.300000000000864
 30
0.0
 11
-288.0091567746880514
 21
948.0000000000009095
 31
0.0
  0
LINE
  5
297
100
AcDbEntity
100
AcDbLine
  8
poludniowy
 62
256
370
-1
  6
ByLayer
 10
-274.7591567746880514
 20
940.300000000000864
 30
0.0
 11
-274.7591567746880514
 21
948.0000000000009095
 31
0.0
  0
LINE
  5
298
100
AcDbEntity
100
AcDbLine
  8
poludniowy
 62
256
370
-1
  6
ByLayer
 10
-261.5091567746880514
 20
940.300000000000864
 30
0.0
 11
-261.5091567746880514
 21
948.0000000000009095
 31
0.0
  0
LINE
  5
299
100
AcDbEntity
100
AcDbLine
  8
poludniowy
 62
256
370
-1
  6
ByLayer
 10
-326.5091567746880514
 20
940.300000000000864
 30
0.0
 11
-326.5091567746880514
 21
948.0000000000009095
 31
0.0
  0
LINE
  5
29A
100
AcDbEntity
100
AcDbLine
  8
poludniowy
 62
256
370
-1
  6
ByLayer
 10
-313.2591567746880514
 20
940.300000000000864
 30
0.0
 11
-313.2591567746880514
 21
948.0000000000009095
 31
0.0
  0
LINE
  5
29B
100
AcDbEntity
100
AcDbLine
  8
poludniowy
 62
256
370
-1
  6
ByLayer
 10
-300.0091567746880514
 20
940.300000000000864
 30
0.0
 11
-300.0091567746880514
 21
948.0000000000009095
 31
0.0
  0
LINE
  5
29C
100
AcDbEntity
100
AcDbLine
  8
poludniowy
 62
256
370
-1
  6
ByLayer
 10
-286.7591567746880514
 20
940.300000000000864
 30
0.0
 11
-286.7591567746880514
 21
948.0000000000009095
 31
0.0
  0
LINE
  5
29D
100
AcDbEntity
100
AcDbLine
  8
poludniowy
 62
256
370
-1
  6
ByLayer
 10
-273.5091567746880514
 20
940.300000000000864
 30
0.0
 11
-273.5091567746880514
 21
948.0000000000009095
 31
0.0
  0
LINE
  5
29E
100
AcDbEntity
100
AcDbLine
  8
poludniowy
 62
256
370
-1
  6
ByLayer
 10
-260.2591567746880514
 20
940.300000000000864
 30
0.0
 11
-260.2591567746880514
 21
948.0000000000009095
 31
0.0
  0
LINE
  5
29F
100
AcDbEntity
100
AcDbLine
  8
poludniowy
 62
256
370
-1
  6
ByLayer
 10
-308.0091567746880514
 20
948.0000000000009095
 30
0.0
 11
-308.0091567746880514
 21
955.700000000000955
 31
0.0
  0
LINE
  5
2A0
100
AcDbEntity
100
AcDbLine
  8
poludniowy
 62
256
370
-1
  6
ByLayer
 10
-281.5091567746880514
 20
948.0000000000009095
 30
0.0
 11
-281.5091567746880514
 21
955.700000000000955
 31
0.0
  0
LINE
  5
2A1
100
AcDbEntity
100
AcDbLine
  8
poludniowy
 62
256
370
-1
  6
ByLayer
 10
-306.5091567746880514
 20
948.0000000000009095
 30
0.0
 11
-306.5091567746880514
 21
955.700000000000955
 31
0.0
  0
LINE
  5
2A2
100
AcDbEntity
100
AcDbLine
  8
poludniowy
 62
256
370
-1
  6
ByLayer
 10
-280.0091567746879946
 20
948.0000000000009095
 30
0.0
 11
-280.0091567746879946
 21
955.700000000000955
 31
0.0
  0
LINE
  5
2A3
100
AcDbEntity
100
AcDbLine
  8
poludniowy
 62
256
370
-1
  6
ByLayer
 10
-320.0091567746880514
 20
948.0000000000009095
 30
0.0
 11
-320.0091567746880514
 21
955.700000000000955
 31
0.0
  0
LINE
  5
2A4
100
AcDbEntity
100
AcDbLine
  8
poludniowy
 62
256
370
-1
  6
ByLayer
 10
-321.5091567746880514
 20
948.0000000000009095
 30
0.0
 11
-321.5091567746880514
 21
955.700000000000955
 31
0.0
  0
LINE
  5
2A5
100
AcDbEntity
100
AcDbLine
  8
poludniowy
 62
256
370
-1
  6
ByLayer
 10
-327.7591567746880514
 20
955.700000000000955
 30
0.0
 11
-327.7591567746880514
 21
963.4000000000010004
 31
0.0
  0
LINE
  5
2A6
100
AcDbEntity
100
AcDbLine
  8
poludniowy
 62
256
370
-1
  6
ByLayer
 10
-314.5091567746880514
 20
955.700000000000955
 30
0.0
 11
-314.5091567746880514
 21
963.4000000000010004
 31
0.0
  0
LINE
  5
2A7
100
AcDbEntity
100
AcDbLine
  8
poludniowy
 62
256
370
-1
  6
ByLayer
 10
-301.2591567746880514
 20
955.700000000000955
 30
0.0
 11
-301.2591567746880514
 21
963.4000000000010004
 31
0.0
  0
LINE
  5
2A8
100
AcDbEntity
100
AcDbLine
  8
poludniowy
 62
256
370
-1
  6
ByLayer
 10
-288.0091567746880514
 20
955.700000000000955
 30
0.0
 11
-288.0091567746880514
 21
963.4000000000010004
 31
0.0
  0
LINE
  5
2A9
100
AcDbEntity
100
AcDbLine
  8
poludniowy
 62
256
370
-1
  6
ByLayer
 10
-274.7591567746880514
 20
955.700000000000955
 30
0.0
 11
-274.7591567746880514
 21
963.4000000000010004
 31
0.0
  0
LINE
  5
2AA
100
AcDbEntity
100
AcDbLine
  8
poludniowy
 62
256
370
-1
  6
ByLayer
 10
-326.5091567746880514
 20
955.700000000000955
 30
0.0
 11
-326.5091567746880514
 21
963.4000000000010004
 31
0.0
  0
LINE
  5
2AB
100
AcDbEntity
100
AcDbLine
  8
poludniowy
 62
256
370
-1
  6
ByLayer
 10
-313.2591567746880514
 20
955.700000000000955
 30
0.0
 11
-313.2591567746880514
 21
963.4000000000010004
 31
0.0
  0
LINE
  5
2AC
100
AcDbEntity
100
AcDbLine
  8
poludniowy
 62
256
370
-1
  6
ByLayer
 10
-300.0091567746880514
 20
955.700000000000955
 30
0.0
 11
-300.0091567746880514
 21
963.4000000000010004
 31
0.0
  0
LINE
  5
2AD
100
AcDbEntity
100
AcDbLine
  8
poludniowy
 62
256
370
-1
  6
ByLayer
 10
-286.7591567746880514
 20
955.700000000000955
 30
0.0
 11
-286.7591567746880514
 21
963.4000000000010004
 31
0.0
  0
LINE
  5
2AE
100
AcDbEntity
100
AcDbLine
  8
poludniowy
 62
256
370
-1
  6
ByLayer
 10
-321.2591567746880514
 20
963.4000000000010004
 30
0.0
 11
-321.2591567746880514
 21
971.1000000000010459
 31
0.0
  0
LINE
  5
2AF
100
AcDbEntity
100
AcDbLine
  8
poludniowy
 62
256
370
-1
  6
ByLayer
 10
-294.7591567746880514
 20
963.4000000000010004
 30
0.0
 11
-294.7591567746880514
 21
971.1000000000010459
 31
0.0
  0
LINE
  5
2B0
100
AcDbEntity
100
AcDbLine
  8
poludniowy
 62
256
370
-1
  6
ByLayer
 10
-319.7591567746880514
 20
963.4000000000010004
 30
0.0
 11
-319.7591567746880514
 21
971.1000000000010459
 31
0.0
  0
LINE
  5
2B1
100
AcDbEntity
100
AcDbLine
  8
poludniowy
 62
256
370
-1
  6
ByLayer
 10
-293.2591567746880514
 20
963.4000000000010004
 30
0.0
 11
-293.2591567746880514
 21
971.1000000000010459
 31
0.0
  0
LINE
  5
2B2
100
AcDbEntity
100
AcDbLine
  8
poludniowy
 62
256
370
-1
  6
ByLayer
 10
-327.7591567746880514
 20
971.1000000000010459
 30
0.0
 11
-327.7591567746880514
 21
978.8000000000010914
 31
0.0
  0
LINE
  5
2B3
100
AcDbEntity
100
AcDbLine
  8
poludniowy
 62
256
370
-1
  6
ByLayer
 10
-314.5091567746880514
 20
971.1000000000010459
 30
0.0
 11
-314.5091567746880514
 21
978.8000000000010914
 31
0.0
  0
LINE
  5
2B4
100
AcDbEntity
100
AcDbLine
  8
poludniowy
 62
256
370
-1
  6
ByLayer
 10
-301.2591567746880514
 20
971.1000000000010459
 30
0.0
 11
-301.2591567746880514
 21
978.8000000000010914
 31
0.0
  0
LINE
  5
2B5
100
AcDbEntity
100
AcDbLine
  8
poludniowy
 62
256
370
-1
  6
ByLayer
 10
-326.5091567746880514
 20
971.1000000000010459
 30
0.0
 11
-326.5091567746880514
 21
978.8000000000010914
 31
0.0
  0
LINE
  5
2B6
100
AcDbEntity
100
AcDbLine
  8
poludniowy
 62
256
370
-1
  6
ByLayer
 10
-313.2591567746880514
 20
971.1000000000010459
 30
0.0
 11
-313.2591567746880514
 21
978.8000000000010914
 31
0.0
  0
LINE
  5
2B7
100
AcDbEntity
100
AcDbLine
  8
poludniowy
 62
256
370
-1
  6
ByLayer
 10
-300.0091567746880514
 20
971.1000000000010459
 30
0.0
 11
-300.0091567746880514
 21
978.8000000000010914
 31
0.0
  0
LINE
  5
2B8
100
AcDbEntity
100
AcDbLine
  8
poludniowy
 62
256
370
-1
  6
ByLayer
 10
-308.0091567746880514
 20
978.8000000000010914
 30
0.0
 11
-308.0091567746880514
 21
986.5000000000011369
 31
0.0
  0
LINE
  5
2B9
100
AcDbEntity
100
AcDbLine
  8
poludniowy
 62
256
370
-1
  6
ByLayer
 10
-306.5091567746880514
 20
978.8000000000010914
 30
0.0
 11
-306.5091567746880514
 21
986.5000000000011369
 31
0.0
  0
LINE
  5
2BA
100
AcDbEntity
100
AcDbLine
  8
poludniowy
 62
256
370
-1
  6
ByLayer
 10
-320.0091567746880514
 20
978.8000000000010914
 30
0.0
 11
-320.0091567746880514
 21
986.5000000000011369
 31
0.0
  0
LINE
  5
2BB
100
AcDbEntity
100
AcDbLine
  8
poludniowy
 62
256
370
-1
  6
ByLayer
 10
-321.5091567746880514
 20
978.8000000000010914
 30
0.0
 11
-321.5091567746880514
 21
986.5000000000011369
 31
0.0
  0
LINE
  5
2BC
100
AcDbEntity
100
AcDbLine
  8
poludniowy
 62
256
370
-1
  6
ByLayer
 10
-327.7591567746880514
 20
986.5000000000011369
 30
0.0
 11
-327.7591567746880514
 21
994.2000000000011823
 31
0.0
  0
LINE
  5
2BD
100
AcDbEntity
100
AcDbLine
  8
poludniowy
 62
256
370
-1
  6
ByLayer
 10
-314.5091567746880514
 20
986.5000000000011369
 30
0.0
 11
-314.5091567746880514
 21
994.2000000000011823
 31
0.0
  0
LINE
  5
2BE
100
AcDbEntity
100
AcDbLine
  8
poludniowy
 62
256
370
-1
  6
ByLayer
 10
-326.5091567746880514
 20
986.5000000000011369
 30
0.0
 11
-326.5091567746880514
 21
994.2000000000011823
 31
0.0
  0
LINE
  5
2BF
100
AcDbEntity
100
AcDbLine
  8
poludniowy
 62
256
370
-1
  6
ByLayer
 10
-313.2591567746880514
 20
986.5000000000011369
 30
0.0
 11
-313.2591567746880514
 21
994.2000000000011823
 31
0.0
  0
LINE
  5
2C0
100
AcDbEntity
100
AcDbLine
  8
poludniowy
 62
256
370
-1
  6
ByLayer
 10
-273.5091567746880514
 20
955.700000000000955
 30
0.0
 11
-273.5091567746880514
 21
962.5499999999999545
 31
0.0
  0
LINE
  5
2C1
100
AcDbEntity
100
AcDbLine
  8
poludniowy
 62
256
370
-1
  6
ByLayer
 10
-301.2591567746880514
 20
986.5000000000011369
 30
0.0
 11
-301.2591567746880514
 21
990.2999999999999545
 31
0.0
  0
LINE
  5
2C2
100
AcDbEntity
100
AcDbLine
  8
poludniowy
 62
256
370
-1
  6
ByLayer
 10
-300.0091567746880514
 20
986.5000000000011369
 30
0.0
 11
-300.0091567746880514
 21
989.0499999999999545
 31
0.0
  0
LINE
  5
2C3
100
AcDbEntity
100
AcDbLine
  8
poludniowy
 62
256
370
-1
  6
ByLayer
 10
-168.7591567746881083
 20
847.9000000000003183
 30
0.0
 11
-168.7591567746881083
 21
855.6000000000003638
 31
0.0
  0
LINE
  5
2C4
100
AcDbEntity
100
AcDbLine
  8
poludniowy
 62
256
370
-1
  6
ByLayer
 10
-175.5091567746880514
 20
855.6000000000003638
 30
0.0
 11
-175.5091567746880514
 21
863.3000000000004093
 31
0.0
  0
LINE
  5
2C5
100
AcDbEntity
100
AcDbLine
  8
poludniowy
 62
256
370
-1
  6
ByLayer
 10
-182.0091567746880514
 20
863.3000000000004093
 30
0.0
 11
-182.0091567746880514
 21
871.0000000000004547
 31
0.0
  0
LINE
  5
2C6
100
AcDbEntity
100
AcDbLine
  8
poludniowy
 62
256
370
-1
  6
ByLayer
 10
-188.7591567746879946
 20
871.0000000000004547
 30
0.0
 11
-188.7591567746879662
 21
878.7000000000005002
 31
0.0
  0
LINE
  5
2C7
100
AcDbEntity
100
AcDbLine
  8
poludniowy
 62
256
370
-1
  6
ByLayer
 10
-174.0091567746880514
 20
855.6000000000003638
 30
0.0
 11
-174.0091567746880514
 21
863.3000000000004093
 31
0.0
  0
LINE
  5
2C8
100
AcDbEntity
100
AcDbLine
  8
poludniowy
 62
256
370
-1
  6
ByLayer
 10
-180.5091567746880514
 20
863.3000000000004093
 30
0.0
 11
-180.5091567746880514
 21
871.0000000000004547
 31
0.0
  0
LINE
  5
2C9
100
AcDbEntity
100
AcDbLine
  8
poludniowy
 62
256
370
-1
  6
ByLayer
 10
-187.2591567746879946
 20
871.0000000000004547
 30
0.0
 11
-187.2591567746879662
 21
878.7000000000005002
 31
0.0
  0
LINE
  5
2CA
100
AcDbEntity
100
AcDbLine
  8
poludniowy
 62
256
370
-1
  6
ByLayer
 10
-175.2591567746879946
 20
871.0000000000004547
 30
0.0
 11
-175.2591567746879662
 21
878.7000000000005002
 31
0.0
  0
LINE
  5
2CB
100
AcDbEntity
100
AcDbLine
  8
poludniowy
 62
256
370
-1
  6
ByLayer
 10
-339.7591567746881083
 20
878.7000000000005002
 30
0.0
 11
-175.2591567746879662
 21
878.7000000000005002
 31
0.0
  0
LINE
  5
2CC
100
AcDbEntity
100
AcDbLine
  8
poludniowy
 62
256
370
-1
  6
ByLayer
 10
-168.5091567746880514
 20
863.3000000000004093
 30
0.0
 11
-168.5091567746880514
 21
871.0000000000004547
 31
0.0
  0
LINE
  5
2CD
100
AcDbEntity
100
AcDbLine
  8
poludniowy
 62
256
370
-1
  6
ByLayer
 10
-339.7591567746881651
 20
871.0000000000004547
 30
0.0
 11
-168.5091567746880514
 21
871.0000000000004547
 31
0.0
  0
LINE
  5
2CE
100
AcDbEntity
100
AcDbLine
  8
poludniowy
 62
256
370
-1
  6
ByLayer
 10
-162.0091567746880514
 20
855.6000000000003638
 30
0.0
 11
-162.0091567746880514
 21
863.3000000000004093
 31
0.0
  0
LINE
  5
2CF
100
AcDbEntity
100
AcDbLine
  8
poludniowy
 62
256
370
-1
  6
ByLayer
 10
-339.7591567746881651
 20
863.3000000000004093
 30
0.0
 11
-162.0091567746880514
 21
863.3000000000004093
 31
0.0
  0
LINE
  5
2D0
100
AcDbEntity
100
AcDbLine
  8
poludniowy
 62
256
370
-1
  6
ByLayer
 10
-339.7591567746881083
 20
886.4000000000005457
 30
0.0
 11
-195.2591567746880514
 21
886.4000000000005457
 31
0.0
  0
LINE
  5
2D1
100
AcDbEntity
100
AcDbLine
  8
poludniowy
 62
256
370
-1
  6
ByLayer
 10
-195.2591567746880514
 20
878.7000000000005002
 30
0.0
 11
-195.2591567746880514
 21
886.4000000000005457
 31
0.0
  0
LINE
  5
2D2
100
AcDbEntity
100
AcDbLine
  8
poludniowy
 62
256
370
-1
  6
ByLayer
 10
-339.7591567746881083
 20
894.1000000000005912
 30
0.0
 11
-202.0091567746879946
 21
894.1000000000005912
 31
0.0
  0
LINE
  5
2D3
100
AcDbEntity
100
AcDbLine
  8
poludniowy
 62
256
370
-1
  6
ByLayer
 10
-202.0091567746879946
 20
886.4000000000005457
 30
0.0
 11
-202.0091567746879946
 21
894.1000000000005912
 31
0.0
  0
LINE
  5
2D4
100
AcDbEntity
100
AcDbLine
  8
poludniowy
 62
256
370
-1
  6
ByLayer
 10
-339.7591567746881083
 20
901.8000000000006366
 30
0.0
 11
-208.5091567746880514
 21
901.8000000000006366
 31
0.0
  0
LINE
  5
2D5
100
AcDbEntity
100
AcDbLine
  8
poludniowy
 62
256
370
-1
  6
ByLayer
 10
-208.5091567746880514
 20
894.1000000000005912
 30
0.0
 11
-208.5091567746880514
 21
901.8000000000006366
 31
0.0
  0
LINE
  5
2D6
100
AcDbEntity
100
AcDbLine
  8
poludniowy
 62
256
370
-1
  6
ByLayer
 10
-339.7591567746881083
 20
909.5000000000006821
 30
0.0
 11
-215.2591567746879946
 21
909.5000000000006821
 31
0.0
  0
LINE
  5
2D7
100
AcDbEntity
100
AcDbLine
  8
poludniowy
 62
256
370
-1
  6
ByLayer
 10
-215.2591567746879946
 20
901.8000000000006366
 30
0.0
 11
-215.2591567746879946
 21
909.5000000000006821
 31
0.0
  0
LINE
  5
2D8
100
AcDbEntity
100
AcDbLine
  8
poludniowy
 62
256
370
-1
  6
ByLayer
 10
-241.7591567746879946
 20
932.6000000000008185
 30
0.0
 11
-241.7591567746879946
 21
940.300000000000864
 31
0.0
  0
LINE
  5
2D9
100
AcDbEntity
100
AcDbLine
  8
poludniowy
 62
256
370
-1
  6
ByLayer
 10
-339.7591567746881083
 20
940.300000000000864
 30
0.0
 11
-241.7591567746879946
 21
940.300000000000864
 31
0.0
  0
LINE
  5
2DA
100
AcDbEntity
100
AcDbLine
  8
poludniowy
 62
256
370
-1
  6
ByLayer
 10
-235.0091567746880514
 20
924.9000000000007731
 30
0.0
 11
-235.0091567746880514
 21
932.6000000000008185
 31
0.0
  0
LINE
  5
2DB
100
AcDbEntity
100
AcDbLine
  8
poludniowy
 62
256
370
-1
  6
ByLayer
 10
-339.7591567746881083
 20
932.6000000000008185
 30
0.0
 11
-235.0091567746880514
 21
932.6000000000008185
 31
0.0
  0
LINE
  5
2DC
100
AcDbEntity
100
AcDbLine
  8
poludniowy
 62
256
370
-1
  6
ByLayer
 10
-339.7591567746881083
 20
924.9000000000007731
 30
0.0
 11
-228.5091567746879946
 21
924.9000000000007731
 31
0.0
  0
LINE
  5
2DD
100
AcDbEntity
100
AcDbLine
  8
poludniowy
 62
256
370
-1
  6
ByLayer
 10
-228.5091567746879946
 20
917.2000000000007276
 30
0.0
 11
-228.5091567746879946
 21
924.9000000000007731
 31
0.0
  0
LINE
  5
2DE
100
AcDbEntity
100
AcDbLine
  8
poludniowy
 62
256
370
-1
  6
ByLayer
 10
-339.7591567746881083
 20
917.2000000000007276
 30
0.0
 11
-221.7591567746880514
 21
917.2000000000007276
 31
0.0
  0
LINE
  5
2DF
100
AcDbEntity
100
AcDbLine
  8
poludniowy
 62
256
370
-1
  6
ByLayer
 10
-221.7591567746880514
 20
909.5000000000006821
 30
0.0
 11
-221.7591567746880514
 21
917.2000000000007276
 31
0.0
  0
LINE
  5
2E0
100
AcDbEntity
100
AcDbLine
  8
poludniowy
 62
256
370
-1
  6
ByLayer
 10
-248.2591567746880514
 20
940.300000000000864
 30
0.0
 11
-248.2591567746880514
 21
948.0000000000009095
 31
0.0
  0
LINE
  5
2E1
100
AcDbEntity
100
AcDbLine
  8
poludniowy
 62
256
370
-1
  6
ByLayer
 10
-339.7591567746881083
 20
948.0000000000009095
 30
0.0
 11
-248.2591567746880514
 21
948.0000000000009095
 31
0.0
  0
LINE
  5
2E2
100
AcDbEntity
100
AcDbLine
  8
poludniowy
 62
256
370
-1
  6
ByLayer
 10
-255.0091567746879946
 20
948.0000000000009095
 30
0.0
 11
-255.0091567746879946
 21
955.700000000000955
 31
0.0
  0
LINE
  5
2E3
100
AcDbEntity
100
AcDbLine
  8
poludniowy
 62
256
370
-1
  6
ByLayer
 10
-339.7591567746881083
 20
955.700000000000955
 30
0.0
 11
-255.0091567746879946
 21
955.700000000000955
 31
0.0
  0
LINE
  5
2E4
100
AcDbEntity
100
AcDbLine
  8
poludniowy
 62
256
370
-1
  6
ByLayer
 10
-268.2591567746880514
 20
963.4000000000010004
 30
0.0
 11
-268.2591567746880514
 21
971.1000000000010459
 31
0.0
  0
LINE
  5
2E5
100
AcDbEntity
100
AcDbLine
  8
poludniowy
 62
256
370
-1
  6
ByLayer
 10
-339.7591567746881083
 20
971.1000000000010459
 30
0.0
 11
-268.2591567746880514
 21
971.1000000000010459
 31
0.0
  0
LINE
  5
2E6
100
AcDbEntity
100
AcDbLine
  8
poludniowy
 62
256
370
-1
  6
ByLayer
 10
-288.0091567746880514
 20
971.1000000000010459
 30
0.0
 11
-288.0091567746880514
 21
978.8000000000010914
 31
0.0
  0
LINE
  5
2E7
100
AcDbEntity
100
AcDbLine
  8
poludniowy
 62
256
370
-1
  6
ByLayer
 10
-286.7591567746880514
 20
971.1000000000010459
 30
0.0
 11
-286.7591567746880514
 21
978.8000000000010914
 31
0.0
  0
LINE
  5
2E8
100
AcDbEntity
100
AcDbLine
  8
poludniowy
 62
256
370
-1
  6
ByLayer
 10
-274.7591567746880514
 20
971.1000000000010459
 30
0.0
 11
-274.7591567746880514
 21
978.8000000000010914
 31
0.0
  0
LINE
  5
2E9
100
AcDbEntity
100
AcDbLine
  8
poludniowy
 62
256
370
-1
  6
ByLayer
 10
-339.7591567746881083
 20
978.8000000000010914
 30
0.0
 11
-274.7591567746880514
 21
978.8000000000010914
 31
0.0
  0
LINE
  5
2EA
100
AcDbEntity
100
AcDbLine
  8
szalunek
 62
256
370
-1
  6
DOT
 10
274.5
 20
1008.5
 30
0.0
 11
274.5
 21
1030.5
 31
0.0
  0
LINE
  5
2EB
100
AcDbEntity
100
AcDbLine
  8
szalunek
 62
256
370
-1
  6
DOT
 10
479.5
 20
1008.5
 30
0.0
 11
479.5
 21
1030.5
 31
0.0
  0
LINE
  5
2EC
100
AcDbEntity
100
AcDbLine
  8
szalunek
 62
256
370
-1
  6
DOT
 10
274.5
 20
1030.5
 30
0.0
 11
479.5
 21
1030.5
 31
0.0
  0
LINE
  5
2ED
100
AcDbEntity
100
AcDbLine
  8
szalunek
 62
256
370
-1
  6
DOT
 10
729.0
 20
754.3000000000014325
 30
0.0
 11
729.0
 21
792.9644660940673475
 31
0.0
  0
LINE
  5
2EE
100
AcDbEntity
100
AcDbLine
  8
szalunek
 62
256
370
-1
  6
ByLayer
 10
482.0
 20
1011.0
 30
0.0
 11
482.0
 21
1033.0
 31
0.0
  0
LINE
  5
2EF
100
AcDbEntity
100
AcDbLine
  8
szalunek
 62
256
370
-1
  6
DOT
 10
272.0
 20
1033.0
 30
0.0
 11
482.0
 21
1033.0
 31
0.0
  0
LINE
  5
2F0
100
AcDbEntity
100
AcDbLine
  8
0
 62
256
370
-1
  6
ByLayer
 10
507.0
 20
1016.0
 30
0.0
 11
729.0
 21
794.0
 31
0.0
  0
LINE
  5
2F1
100
AcDbEntity
100
AcDbLine
  8
szalunek
 62
256
370
-1
  6
DOT
 10
512.0
 20
1011.0
 30
0.0
 11
729.0
 21
794.0
 31
0.0
  0
LINE
  5
2F2
100
AcDbEntity
100
AcDbLine
  8
szalunek
 62
256
370
-1
  6
DOT
 10
482.0
 20
1011.0
 30
0.0
 11
512.0
 21
1011.0
 31
0.0
  0
LINE
  5
2F3
100
AcDbEntity
100
AcDbLine
  8
szalunek
 62
256
370
-1
  6
ByLayer
 10
272.0
 20
1011.0
 30
0.0
 11
272.0
 21
1033.0
 31
0.0
  0
LINE
  5
2F4
100
AcDbEntity
100
AcDbLine
  8
szalunek
 62
256
370
-1
  6
DOT
 10
243.0355339059325956
 20
1011.0
 30
0.0
 11
272.0
 21
1011.0
 31
0.0
  0
LINE
  5
2F5
100
AcDbEntity
100
AcDbLine
  8
szalunek
 62
256
370
-1
  6
DOT
 10
205.6862915010149777
 20
986.0
 30
0.0
 11
548.3137084989848518
 21
986.0
 31
0.0
  0
LINE
  5
2F6
100
AcDbEntity
100
AcDbLine
  8
szalunek
 62
256
370
-1
  6
DOT
 10
247.0
 20
1041.0
 30
0.0
 11
482.0
 21
1041.0
 31
0.0
  0
LINE
  5
2F7
100
AcDbEntity
100
AcDbLine
  8
szalunek
 62
256
370
-1
  6
ByLayer
 10
-457.7591567746881651
 20
1030.5
 30
0.0
 11
-342.2591567746881651
 21
1030.5
 31
0.0
  0
LINE
  5
2F8
100
AcDbEntity
100
AcDbLine
  8
szalunek
 62
256
370
-1
  6
ByLayer
 10
-460.2591567746881651
 20
1033.0
 30
0.0
 11
-339.7591567746881651
 21
1033.0
 31
0.0
  0
LINE
  5
2F9
100
AcDbEntity
100
AcDbLine
  8
szalunek
 62
256
370
-1
  6
ByLayer
 10
-484.7236228687555695
 20
1008.5
 30
0.0
 11
-499.0236228687543871
 21
994.2000000000011823
 31
0.0
  0
LINE
  5
2FA
100
AcDbEntity
100
AcDbLine
  8
szalunek
 62
256
370
-1
  6
ByLayer
 10
-484.7236228687555695
 20
1008.5
 30
0.0
 11
-315.2946906806207608
 21
1008.5
 31
0.0
  0
LINE
  5
2FB
100
AcDbEntity
100
AcDbLine
  8
szalunek
 62
256
370
-1
  6
ByLayer
 10
-314.2591567746879946
 20
1011.0
 30
0.0
 11
-299.22692372765556
 21
995.9677669529675086
 31
0.0
  0
LINE
  5
2FC
100
AcDbEntity
100
AcDbLine
  8
szalunek
 62
256
370
-1
  6
ByLayer
 10
-485.7591567746882788
 20
1011.0
 30
0.0
 11
-500.7913898217207702
 21
995.9677669529675086
 31
0.0
  0
LINE
  5
2FD
100
AcDbEntity
100
AcDbLine
  8
szalunek
 62
256
370
-1
  6
ByLayer
 10
-460.2591567746881651
 20
1011.0
 30
0.0
 11
-460.2591567746881651
 21
1033.0
 31
0.0
  0
LINE
  5
2FE
100
AcDbEntity
100
AcDbLine
  8
szalunek
 62
256
370
-1
  6
ByLayer
 10
-485.7591567746882788
 20
1011.0
 30
0.0
 11
-460.2591567746881651
 21
1011.0
 31
0.0
  0
LINE
  5
2FF
100
AcDbEntity
100
AcDbLine
  8
szalunek
 62
256
370
-1
  6
ByLayer
 10
-339.7591567746881651
 20
1011.0
 30
0.0
 11
-339.7591567746881651
 21
1033.0
 31
0.0
  0
LINE
  5
300
100
AcDbEntity
100
AcDbLine
  8
szalunek
 62
256
370
-1
  6
ByLayer
 10
-339.7591567746881651
 20
1011.0
 30
0.0
 11
-314.2591567746879946
 21
1011.0
 31
0.0
  0
LINE
  5
301
100
AcDbEntity
100
AcDbLine
  8
szalunek
 62
256
370
-1
  6
ByLayer
 10
-457.7591567746881651
 20
1008.5
 30
0.0
 11
-457.7591567746881651
 21
1030.5
 31
0.0
  0
LINE
  5
302
100
AcDbEntity
100
AcDbLine
  8
szalunek
 62
256
370
-1
  6
ByLayer
 10
-342.2591567746881651
 20
1008.5
 30
0.0
 11
-342.2591567746881651
 21
1030.5
 31
0.0
  0
LINE
  5
303
100
AcDbEntity
100
AcDbLine
  8
szalunek
 62
256
370
-1
  6
ByLayer
 10
-513.8728652736718914
 20
994.2000000000011823
 30
0.0
 11
-286.1454482757044389
 21
994.2000000000011823
 31
0.0
  0
LINE
  5
304
100
AcDbEntity
100
AcDbLine
  8
szalunek
 62
256
370
-1
  6
DOT
 10
726.5
 20
754.3000000000014325
 30
0.0
 11
726.5
 21
792.9644660940673475
 31
0.0
  0
LINE
  5
305
100
AcDbEntity
100
AcDbLine
  8
szalunek
 62
256
370
-1
  6
DOT
 10
510.9644660940673475
 20
1008.5
 30
0.0
 11
726.5
 21
792.9644660940673475
 31
0.0
  0
LINE
  5
306
100
AcDbEntity
100
AcDbLine
  8
szalunek
 62
256
370
-1
  6
DOT
 10
239.4999999999997726
 20
1008.5
 30
0.0
 11
510.9644660940673475
 21
1008.5
 31
0.0
  0
LINE
  5
307
100
AcDbEntity
100
AcDbLine
  8
poludniowy
 62
256
370
-1
  6
ByLayer
 10
-339.7591567746881651
 20
794.0
 30
0.0
 11
-339.7591567746881651
 21
1041.0
 31
0.0
  0
LINE
  5
308
100
AcDbEntity
100
AcDbLine
  8
polnocny
 62
256
370
-1
  6
ByLayer
 10
-1319.0
 20
754.3000000000014325
 30
0.0
 11
-800.0
 21
754.3000000000014325
 31
0.0
  0
LINE
  5
309
100
AcDbEntity
100
AcDbLine
  8
polnocny
 62
256
370
-1
  6
ByLayer
 10
-1319.0
 20
754.3000000000014325
 30
0.0
 11
-1319.0
 21
794.0
 31
0.0
  0
LINE
  5
30A
100
AcDbEntity
100
AcDbLine
  8
polnocny
 62
256
370
-1
  6
ByLayer
 10
-800.0
 20
754.3000000000014325
 30
0.0
 11
-800.0
 21
794.0
 31
0.0
  0
LINE
  5
30B
100
AcDbEntity
100
AcDbLine
  8
polnocny
 62
256
370
-1
  6
ByLayer
 10
-1319.0
 20
794.0
 30
0.0
 11
-800.0
 21
794.0
 31
0.0
  0
LINE
  5
30C
100
AcDbEntity
100
AcDbLine
  8
polnocny
 62
256
370
-1
  6
ByLayer
 10
-825.0
 20
754.3000000000014325
 30
0.0
 11
-825.0
 21
794.0
 31
0.0
  0
LINE
  5
30D
100
AcDbEntity
100
AcDbLine
  8
polnocny
 62
256
370
-1
  6
ByLayer
 10
-1294.0
 20
754.3000000000014325
 30
0.0
 11
-1294.0
 21
794.0
 31
0.0
  0
LINE
  5
30E
100
AcDbEntity
100
AcDbLine
  8
osie
 62
256
370
-1
  6
ByLayer
 10
-1059.5
 20
744.0
 30
0.0
 11
-1059.5
 21
1039.8137084989848518
 31
0.0
  0
LINE
  5
30F
100
AcDbEntity
100
AcDbLine
  8
polnocny
 62
256
370
-1
  6
ByLayer
 10
-1072.0
 20
1041.0
 30
0.0
 11
-1047.0
 21
1041.0
 31
0.0
  0
LINE
  5
310
100
AcDbEntity
100
AcDbLine
  8
polnocny
 62
256
370
-1
  6
ByLayer
 10
-1072.0
 20
1011.0
 30
0.0
 11
-1072.0
 21
1041.0
 31
0.0
  0
LINE
  5
311
100
AcDbEntity
100
AcDbLine
  8
polnocny
 62
256
370
-1
  6
ByLayer
 10
-1047.0
 20
1011.0
 30
0.0
 11
-1047.0
 21
1041.0
 31
0.0
  0
LINE
  5
312
100
AcDbEntity
100
AcDbLine
  8
polnocny
 62
256
370
-1
  6
ByLayer
 10
-1047.0
 20
1027.3137084989848518
 30
0.0
 11
-813.6862915010152619
 21
794.0
 31
0.0
  0
LINE
  5
313
100
AcDbEntity
100
AcDbLine
  8
polnocny
 62
256
370
-1
  6
ByLayer
 10
-1042.0
 20
1011.0
 30
0.0
 11
-825.0000000000001137
 21
794.0
 31
0.0
  0
LINE
  5
314
100
AcDbEntity
100
AcDbLine
  8
polnocny
 62
256
370
-1
  6
ByLayer
 10
-1072.0
 20
1011.0
 30
0.0
 11
-1042.0
 21
1011.0
 31
0.0
  0
LINE
  5
315
100
AcDbEntity
100
AcDbLine
  8
szalunek
 62
256
370
-1
  6
ByLayer
 10
-1043.0355339059328799
 20
1008.5
 30
0.0
 11
-827.5
 21
792.9644660940672338
 31
0.0
  0
LINE
  5
316
100
AcDbEntity
100
AcDbLine
  8
poludniowy
 62
256
370
-1
  6
ByLayer
 10
-1072.0
 20
1001.9000000000012278
 30
0.0
 11
-1021.5862915010163761
 21
1001.9000000000012278
 31
0.0
  0
LINE
  5
317
100
AcDbEntity
100
AcDbLine
  8
poludniowy
 62
256
370
-1
  6
ByLayer
 10
-339.759156774688222
 20
1001.9000000000012278
 30
0.0
 11
-305.1591567746892792
 21
1001.9000000000012278
 31
0.0
  0
LINE
  5
318
100
AcDbEntity
100
AcDbLine
  8
szalunek
 62
256
370
-1
  6
ByLayer
 10
-161.5091567746881083
 20
793.9999999999998863
 30
0.0
 11
-161.5091567746881083
 21
854.7144660940673475
 31
0.0
  0
LINE
  5
319
100
AcDbEntity
100
AcDbLine
  8
osie
 62
256
370
-1
  6
ByLayer
 10
-400.0091567746881651
 20
754.3000000000014325
 30
0.0
 11
-400.0091567746881651
 21
1061.0
 31
0.0
  0
LINE
  5
31A
100
AcDbEntity
100
AcDbLine
  8
0
 62
256
370
-1
  6
ByLayer
 10
-485.2591567746881651
 20
1041.0
 30
0.0
 11
-314.7591567746881651
 21
1041.0
 31
0.0
  0
LINE
  5
31B
100
AcDbEntity
100
AcDbLine
  8
poludniowy
 62
256
370
-1
  6
ByLayer
 10
-485.2591567746881651
 20
1022.8137084989848518
 30
0.0
 11
-652.3228652736730737
 21
855.7500000000001137
 31
0.0
  0
LINE
  5
31C
100
AcDbEntity
100
AcDbLine
  8
poludniowy
 62
256
370
-1
  6
ByLayer
 10
-485.2591567746881651
 20
1022.8137084989848518
 30
0.0
 11
-485.2591567746881651
 21
1041.0
 31
0.0
  0
LINE
  5
31D
100
AcDbEntity
100
AcDbLine
  8
poludniowy
 62
256
370
-1
  6
ByLayer
 10
-485.7591567746882788
 20
1011.0
 30
0.0
 11
-641.009156774688222
 21
855.75
 31
0.0
  0
LINE
  5
31E
100
AcDbEntity
100
AcDbLine
  8
poludniowy
 62
256
370
-1
  6
ByLayer
 10
-314.7591567746881651
 20
1022.8137084989848518
 30
0.0
 11
-314.7591567746881651
 21
1041.0
 31
0.0
  0
LINE
  5
31F
100
AcDbEntity
100
AcDbLine
  8
poludniowy
 62
256
370
-1
  6
ByLayer
 10
-314.2591567746880514
 20
1011.0
 30
0.0
 11
-159.0091567746881083
 21
855.75
 31
0.0
  0
LINE
  5
320
100
AcDbEntity
100
AcDbLine
  8
poludniowy
 62
256
370
-1
  6
ByLayer
 10
-485.7591567746882788
 20
1011.0
 30
0.0
 11
-314.2591567746880514
 21
1011.0
 31
0.0
  0
LINE
  5
321
100
AcDbEntity
100
AcDbLine
  8
poludniowy
 62
256
370
-1
  6
ByLayer
 10
-159.0091567746881083
 20
855.75
 30
0.0
 11
-134.0091567746881083
 21
855.75
 31
0.0
  0
LINE
  5
322
100
AcDbEntity
100
AcDbLine
  8
0
 62
256
370
-1
  6
ByLayer
 10
247.0
 20
1016.0000000000001137
 30
0.0
 11
86.7499999999998295
 21
855.75
 31
0.0
  0
LINE
  5
323
100
AcDbEntity
100
AcDbLine
  8
0
 62
256
370
-1
  6
ByLayer
 10
247.0
 20
1027.3137084989850791
 30
0.0
 11
75.4362915010150772
 21
855.75
 31
0.0
  0
LINE
  5
324
100
AcDbEntity
100
AcDbLine
  8
0
 62
256
370
-1
  6
ByLayer
 10
0.0000000000000279
 20
456.2000000000000455
 30
0.0
 11
0.0000000000000853
 21
1041.0
 31
0.0
  0
LINE
  5
325
100
AcDbEntity
100
AcDbLine
  8
poludniowy
 62
256
370
-1
  6
ByLayer
 10
25.0000000000000284
 20
456.2000000000000455
 30
0.0
 11
25.0000000000000711
 21
1041.0
 31
0.0
  0
LINE
  5
326
100
AcDbEntity
100
AcDbLine
  8
poludniowy
 62
256
370
-1
  6
ByLayer
 10
0.0000000000000853
 20
1041.0
 30
0.0
 11
25.0000000000000711
 21
1041.0
 31
0.0
  0
LINE
  5
327
100
AcDbEntity
100
AcDbLine
  8
0
 62
256
370
-1
  6
ByLayer
 10
247.0
 20
1041.0
 30
0.0
 11
507.0
 21
1041.0
 31
0.0
  0
LINE
  5
328
100
AcDbEntity
100
AcDbLine
  8
0
 62
256
370
-1
  6
ByLayer
 10
247.0
 20
794.0
 30
0.0
 11
247.0
 21
1041.0
 31
0.0
  0
ARC
  5
329
100
AcDbEntity
  8
0
 62
256
370
-1
  6
ByLayer
100
AcDbCircle
 10
377.0
 20
777.8690000000000282
 30
0.0
 40
233.1309999999999718
100
AcDbArc
 50
71.6226812945239288
 51
108.3773187054760854
  0
LINE
  5
32A
100
AcDbEntity
100
AcDbLine
  8
0
 62
256
370
-1
  6
ByLayer
 10
303.5
 20
754.0
 30
0.0
 11
303.5
 21
999.1105267552635496
 31
0.0
  0
LINE
  5
32B
100
AcDbEntity
100
AcDbLine
  8
szalunek
 62
256
370
-1
  6
DOT
 10
243.0355339059326525
 20
1008.5
 30
0.0
 11
89.2499999999998295
 21
854.7144660940671201
 31
0.0
  0
LINE
  5
32C
100
AcDbEntity
100
AcDbLine
  8
szalunek
 62
256
370
-1
  6
ByLayer
 10
89.2499999999998295
 20
794.0
 30
0.0
 11
89.2499999999998295
 21
854.7144660940671201
 31
0.0
  0
LINE
  5
32D
100
AcDbEntity
100
AcDbLine
  8
szalunek
 62
256
370
-1
  6
DOT
 10
242.0
 20
1011.0000000000002274
 30
0.0
 11
86.7499999999998295
 21
855.75
 31
0.0
  0
LINE
  5
32E
100
AcDbEntity
100
AcDbLine
  8
poludniowy
 62
256
370
-1
  6
ByLayer
 10
0.0000000000000568
 20
855.75
 30
0.0
 11
86.7499999999998437
 21
855.75
 31
0.0
  0
LINE
  5
32F
100
AcDbEntity
100
AcDbLine
  8
poludniowy
 62
256
370
-1
  6
ByLayer
 10
86.7499999999998295
 20
794.0
 30
0.0
 11
86.7499999999998437
 21
855.75
 31
0.0
  0
LINE
  5
330
100
AcDbEntity
100
AcDbLine
  8
szalunek
 62
256
370
-1
  6
ByLayer
 10
27.5000000000000284
 20
456.2000000000000455
 30
0.0
 11
27.5000000000000711
 21
1041.0
 31
0.0
  0
LINE
  5
331
100
AcDbEntity
100
AcDbLine
  8
szalunek
 62
256
370
-1
  6
ByLayer
 10
-2.499999999999972
 20
456.2000000000000455
 30
0.0
 11
-2.4999999999999147
 21
1041.0
 31
0.0
  0
LINE
  5
332
100
AcDbEntity
100
AcDbLine
  8
polnocny
 62
256
370
-1
  6
ByLayer
 10
-1072.0
 20
1027.3137084989848518
 30
0.0
 11
-1305.3137084989848518
 21
794.0000000000001137
 31
0.0
  0
LINE
  5
333
100
AcDbEntity
100
AcDbLine
  8
polnocny
 62
256
370
-1
  6
ByLayer
 10
-1077.0
 20
1011.0
 30
0.0
 11
-1294.0
 21
794.0
 31
0.0
  0
LINE
  5
334
100
AcDbEntity
100
AcDbLine
  8
szalunek
 62
256
370
-1
  6
ByLayer
 10
-1075.9644660940671201
 20
1008.5
 30
0.0
 11
-1043.0355339059328799
 21
1008.5
 31
0.0
  0
LINE
  5
335
100
AcDbEntity
100
AcDbLine
  8
szalunek
 62
256
370
-1
  6
ByLayer
 10
-1075.9644660940671201
 20
1008.5
 30
0.0
 11
-1291.5
 21
792.9644660940673475
 31
0.0
  0
LINE
  5
336
100
AcDbEntity
100
AcDbLine
  8
szalunek
 62
256
370
-1
  6
ByLayer
 10
-1291.5
 20
770.3370490960977577
 30
0.0
 11
-1291.5
 21
792.9644660940672338
 31
0.0
  0
LINE
  5
337
100
AcDbEntity
100
AcDbLine
  8
szalunek
 62
256
370
-1
  6
ByLayer
 10
-827.5
 20
770.3370490960977577
 30
0.0
 11
-827.5
 21
792.9644660940672338
 31
0.0
  0
LINE
  5
338
100
AcDbEntity
100
AcDbLine
  8
szalunek
 62
256
370
-1
  6
ByLayer
 10
-1049.662950903902356
 20
992.5
 30
0.0
 11
-827.5
 21
770.3370490960977577
 31
0.0
  0
LINE
  5
339
100
AcDbEntity
100
AcDbLine
  8
szalunek
 62
256
370
-1
  6
ByLayer
 10
-1069.337049096097644
 20
992.5
 30
0.0
 11
-1291.5
 21
770.3370490960977577
 31
0.0
  0
LINE
  5
33A
100
AcDbEntity
100
AcDbLine
  8
szalunek
 62
256
370
-1
  6
ByLayer
 10
-1069.337049096097644
 20
992.5
 30
0.0
 11
-1049.662950903902356
 21
992.5
 31
0.0
  0
LINE
  5
33B
100
AcDbEntity
100
AcDbLine
  8
szalunek
 62
256
370
-1
  6
ByLayer
 10
-315.2946906806207608
 20
1008.5
 30
0.0
 11
-159.0091567746881083
 21
852.2144660940673475
 31
0.0
  0
LINE
  5
33C
100
AcDbEntity
100
AcDbLine
  8
poludniowy
 62
256
370
-1
  6
ByLayer
 10
495.0
 20
1060.5269119345812214
 30
0.0
 11
834.2720779386420418
 21
721.2548339959391797
 31
0.0
  0
LINE
  5
33D
100
AcDbEntity
100
AcDbLine
  8
poludniowy
 62
256
370
-1
  6
ByLayer
 10
495.0
 20
1085.9827560572971379
 30
0.0
 11
847.0
 21
733.9827560572969105
 31
0.0
  0
LINE
  5
33E
100
AcDbEntity
100
AcDbLine
  8
polnocny
 62
256
370
-1
  6
ByLayer
 10
834.2720779386420418
 20
721.2548339959391797
 30
0.0
 11
847.0
 21
721.2548339959391797
 31
0.0
  0
LINE
  5
33F
100
AcDbEntity
100
AcDbLine
  8
polnocny
 62
256
370
-1
  6
ByLayer
 10
847.0
 20
721.2548339959391797
 30
0.0
 11
847.0
 21
733.9827560572969105
 31
0.0
  0
LINE
  5
340
100
AcDbEntity
100
AcDbLine
  8
polnocny
 62
256
370
-1
  6
ByLayer
 10
849.5
 20
721.2548339959391797
 30
0.0
 11
849.5
 21
735.018289963229563
 31
0.0
  0
LINE
  5
341
100
AcDbEntity
100
AcDbLine
  8
poludniowy
 62
256
370
-1
  6
ByLayer
 10
495.0
 20
1089.5182899632297904
 30
0.0
 11
849.5
 21
735.018289963229563
 31
0.0
  0
LINE
  5
342
100
AcDbEntity
100
AcDbLine
  8
poludniowy
 62
256
370
-1
  6
ByLayer
 10
495.0
 20
1093.0538238691626702
 30
0.0
 11
849.5
 21
738.5538238691622155
 31
0.0
  0
LINE
  5
343
100
AcDbEntity
100
AcDbLine
  8
poludniowy
 62
256
370
-1
  6
ByLayer
 10
377.0
 20
1219.8219479558761122
 30
0.0
 11
849.5
 21
747.3219479558754301
 31
0.0
  0
LINE
  5
344
100
AcDbEntity
100
AcDbLine
  8
poludniowy
 62
256
370
-1
  6
ByLayer
 10
377.0
 20
1215.5793072687567928
 30
0.0
 11
849.5
 21
743.0793072687561107
 31
0.0
  0
LINE
  5
345
100
AcDbEntity
100
AcDbLine
  8
poludniowy
 62
256
370
-1
  6
ByLayer
 10
-314.7591567746881651
 20
1022.8137084989848518
 30
0.0
 11
-147.6954482757033134
 21
855.75
 31
0.0
  0
LINE
  5
346
100
AcDbEntity
100
AcDbLine
  8
poludniowy
 62
256
370
-1
  6
ByLayer
 10
-119.0091567746881083
 20
794.0
 30
0.0
 11
-119.0091567746881083
 21
848.2769119345812214
 31
0.0
  0
LINE
  5
347
100
AcDbEntity
100
AcDbLine
  8
poludniowy
 62
256
370
-1
  6
ByLayer
 10
-654.009156774688222
 20
867.7500000000001137
 30
0.0
 11
-666.0091567746883356
 21
867.7500000000001137
 31
0.0
  0
LINE
  5
348
100
AcDbEntity
100
AcDbLine
  8
poludniowy
 62
256
370
-1
  6
ByLayer
 10
-654.009156774688222
 20
855.75
 30
0.0
 11
-654.009156774688222
 21
867.7500000000001137
 31
0.0
  0
LINE
  5
349
100
AcDbEntity
100
AcDbLine
  8
poludniowy
 62
256
370
-1
  6
ByLayer
 10
-641.009156774688222
 20
855.75
 30
0.0
 11
-666.0091567746883356
 21
855.7500000000001137
 31
0.0
  0
LINE
  5
34A
100
AcDbEntity
100
AcDbLine
  8
poludniowy
 62
256
370
-1
  6
ByLayer
 10
-666.0091567746881083
 20
794.0
 30
0.0
 11
-666.0091567746883356
 21
867.7500000000001137
 31
0.0
  0
LINE
  5
34B
100
AcDbEntity
100
AcDbLine
  8
poludniowy
 62
256
370
-1
  6
ByLayer
 10
-681.0091567746883356
 20
794.0
 30
0.0
 11
-681.0091567746883356
 21
848.2769119345813351
 31
0.0
  0
LINE
  5
34C
100
AcDbEntity
100
AcDbLine
  8
0
 62
256
370
-1
  6
ByLayer
 10
-693.5091567746881083
 20
754.3000000000014325
 30
0.0
 11
-106.5091567746881083
 21
754.3000000000014325
 31
0.0
  0
LINE
  5
34D
100
AcDbEntity
100
AcDbLine
  8
poludniowy
 62
256
370
-1
  6
ByLayer
 10
-666.0091567746881083
 20
794.0
 30
0.0
 11
-666.0091567746881083
 21
844.0
 31
0.0
  0
LINE
  5
34E
100
AcDbEntity
100
AcDbLine
  8
polnocny
 62
256
370
-1
  6
ByLayer
 10
754.0
 20
769.0269119345812214
 30
0.0
 11
786.5
 21
769.0269119345812214
 31
0.0
  0
LINE
  5
34F
100
AcDbEntity
100
AcDbLine
  8
polnocny
 62
256
370
-1
  6
ByLayer
 10
754.0
 20
751.0269119345812214
 30
0.0
 11
804.5
 21
751.0269119345812214
 31
0.0
  0
LINE
  5
350
100
AcDbEntity
100
AcDbLine
  8
polnocny
 62
256
370
-1
  6
ByLayer
 10
-107.0091567746881083
 20
794.0
 30
0.0
 11
-107.0091567746881083
 21
836.2769119345812214
 31
0.0
  0
LINE
  5
351
100
AcDbEntity
100
AcDbLine
  8
poln-drew
 62
256
370
-1
  6
ByLayer
 10
-400.0091567746881651
 20
1154.7327560572971379
 30
0.0
 11
-82.0091567746881083
 21
836.7327560572969105
 31
0.0
  0
LINE
  5
352
100
AcDbEntity
100
AcDbLine
  8
poln-drew
 62
256
370
-1
  6
ByLayer
 10
-82.0091567746881083
 20
824.004833995939066
 30
0.0
 11
-82.0091567746881083
 21
836.7327560572969105
 31
0.0
  0
LINE
  5
353
100
AcDbEntity
100
AcDbLine
  8
poln-drew
 62
256
370
-1
  6
ByLayer
 10
-400.0091567746881651
 20
1129.2769119345812214
 30
0.0
 11
-94.7370788360460097
 21
824.004833995939066
 31
0.0
  0
LINE
  5
354
100
AcDbEntity
100
AcDbLine
  8
poln-drew
 62
256
370
-1
  6
ByLayer
 10
-94.7370788360460097
 20
824.004833995939066
 30
0.0
 11
-82.0091567746881083
 21
824.004833995939066
 31
0.0
  0
LINE
  5
355
100
AcDbEntity
100
AcDbLine
  8
poln-drew
 62
256
370
-1
  6
ByLayer
 10
-718.009156774688222
 20
824.0048339959389523
 30
0.0
 11
-718.0091567746883356
 21
836.7327560572971379
 31
0.0
  0
LINE
  5
356
100
AcDbEntity
100
AcDbLine
  8
poln-drew
 62
256
370
-1
  6
ByLayer
 10
-400.0091567746881083
 20
1154.7327560572971379
 30
0.0
 11
-718.0091567746883356
 21
836.7327560572971379
 31
0.0
  0
LINE
  5
357
100
AcDbEntity
100
AcDbLine
  8
poln-drew
 62
256
370
-1
  6
ByLayer
 10
-400.0091567746881083
 20
1129.2769119345812214
 30
0.0
 11
-705.2812347133304911
 21
824.0048339959391797
 31
0.0
  0
LINE
  5
358
100
AcDbEntity
100
AcDbLine
  8
poln-drew
 62
256
370
-1
  6
ByLayer
 10
-705.2812347133304911
 20
824.0048339959391797
 30
0.0
 11
-718.009156774688222
 21
824.0048339959389523
 31
0.0
  0
LINE
  5
359
100
AcDbEntity
100
AcDbLine
  8
poludniowy
 62
256
370
-1
  6
ByLayer
 10
-693.0091567746883356
 20
794.0
 30
0.0
 11
-107.0091567746881083
 21
794.0
 31
0.0
  0
LINE
  5
35A
100
AcDbEntity
100
AcDbLine
  8
polnocny
 62
256
370
-1
  6
ByLayer
 10
-693.0091567746883356
 20
794.0
 30
0.0
 11
-693.0091567746883356
 21
836.2769119345813351
 31
0.0
  0
LINE
  5
35B
100
AcDbEntity
100
AcDbLine
  8
polnocny
 62
256
370
-1
  6
ByLayer
 10
-147.0091567746881083
 20
794.0
 30
0.0
 11
-147.0091567746881083
 21
868.75
 31
0.0
  0
LINE
  5
35C
100
AcDbEntity
100
AcDbLine
  8
poludniowy
 62
256
370
-1
  6
ByLayer
 10
-134.0091567746881083
 20
794.0
 30
0.0
 11
-134.0091567746881083
 21
868.75
 31
0.0
  0
LINE
  5
35D
100
AcDbEntity
100
AcDbLine
  8
polnocny
 62
256
370
-1
  6
ByLayer
 10
-147.0091567746881083
 20
868.75
 30
0.0
 11
-134.0091567746881083
 21
868.75
 31
0.0
  0
LINE
  5
35E
100
AcDbEntity
100
AcDbLine
  8
polnocny
 62
256
370
-1
  6
ByLayer
 10
-641.009156774688222
 20
868.75
 30
0.0
 11
-666.0091567746883356
 21
868.7500000000001137
 31
0.0
  0
LINE
  5
35F
100
AcDbEntity
100
AcDbLine
  8
polnocny
 62
256
370
-1
  6
ByLayer
 10
-653.0091567746881083
 20
794.0
 30
0.0
 11
-653.0091567746883356
 21
867.7500000000001137
 31
0.0
  0
LINE
  5
360
100
AcDbEntity
100
AcDbLine
  8
poludniowy
 62
256
370
-1
  6
ByLayer
 10
-331.2591567746881651
 20
1041.0
 30
0.0
 11
-331.2591567746881651
 21
1054.0
 31
0.0
  0
LINE
  5
361
100
AcDbEntity
100
AcDbLine
  8
polnocny
 62
256
370
-1
  6
ByLayer
 10
-481.7591567746881083
 20
1041.0
 30
0.0
 11
-481.7591567746881083
 21
1054.0
 31
0.0
  0
LINE
  5
362
100
AcDbEntity
100
AcDbLine
  8
polnocny
 62
256
370
-1
  6
ByLayer
 10
-481.7591567746881083
 20
1054.0
 30
0.0
 11
-468.7591567746881083
 21
1054.0
 31
0.0
  0
LINE
  5
363
100
AcDbEntity
100
AcDbLine
  8
poludniowy
 62
256
370
-1
  6
ByLayer
 10
-468.7591567746881083
 20
1041.0
 30
0.0
 11
-468.7591567746881083
 21
1054.0
 31
0.0
  0
LINE
  5
364
100
AcDbEntity
100
AcDbLine
  8
polnocny
 62
256
370
-1
  6
ByLayer
 10
-318.2591567746881651
 20
1041.0
 30
0.0
 11
-318.2591567746881651
 21
1054.0
 31
0.0
  0
LINE
  5
365
100
AcDbEntity
100
AcDbLine
  8
polnocny
 62
256
370
-1
  6
ByLayer
 10
-331.2591567746881651
 20
1054.0
 30
0.0
 11
-318.2591567746881651
 21
1054.0
 31
0.0
  0
LINE
  5
366
100
AcDbEntity
100
AcDbLine
  8
polnocny
 62
256
370
-1
  6
ByLayer
 10
741.0
 20
807.0
 30
0.0
 11
754.0
 21
807.0
 31
0.0
  0
LINE
  5
367
100
AcDbEntity
100
AcDbLine
  8
polnocny
 62
256
370
-1
  6
ByLayer
 10
741.0
 20
794.0
 30
0.0
 11
741.0
 21
807.0
 31
0.0
  0
LINE
  5
368
100
AcDbEntity
100
AcDbLine
  8
0
 62
256
370
-1
  6
ByLayer
 10
507.0
 20
794.0
 30
0.0
 11
507.0
 21
1054.0
 31
0.0
  0
LINE
  5
369
100
AcDbEntity
100
AcDbLine
  8
polnocny
 62
256
370
-1
  6
ByLayer
 10
494.0
 20
1054.0
 30
0.0
 11
507.0
 21
1054.0
 31
0.0
  0
LINE
  5
36A
100
AcDbEntity
100
AcDbLine
  8
polnocny
 62
256
370
-1
  6
ByLayer
 10
494.0
 20
1041.0
 30
0.0
 11
494.0
 21
1054.0
 31
0.0
  0
ENDSEC
  0
SECTION
  2
OBJECTS
  0
DICTIONARY
  5
C
100
AcDbDictionary
280
0
281
1
  3
ACAD_GROUP
350
D
  3
ACAD_LAYOUT
350
1A
  3
ACAD_MLINESTYLE
350
17
  3
ACAD_PLOTSETTINGS
350
19
  3
ACAD_PLOTSTYLENAME
350
E
  3
AcDbVariableDictionary
350
36B
  0
DICTIONARY
  5
D
100
AcDbDictionary
280
0
281
1
  0
ACDBDICTIONARYWDFLT
  5
E
100
AcDbDictionary
281
1
  3
Normal
350
F
100
AcDbDictionaryWithDefault
340
F
  0
ACDBPLACEHOLDER
  5
F
  0
DICTIONARY
  5
17
100
AcDbDictionary
280
0
281
1
  3
Standard
350
18
  0
MLINESTYLE
  5
18
100
AcDbMlineStyle
  2
STANDARD
 70
0
  3

 62
256
 51
90.0
 52
90.0
 71
2
 49
0.5
 62
256
  6
BYLAYER
 49
-0.5
 62
256
  6
BYLAYER
  0
DICTIONARY
  5
19
100
AcDbDictionary
280
0
281
1
  0
DICTIONARY
  5
1A
100
AcDbDictionary
281
1
  3
Layout1
350
1E
  3
Layout2
350
26
  3
Model
350
22
  0
LAYOUT
  5
1E
100
AcDbPlotSettings
  1

  2
C:\Program Files\AutoCAD 2002\plotters\DWF ePlot (optimized for plotting).pc3
  4

  6

 40
0.0
 41
0.0
 42
0.0
 43
0.0
 44
0.0
 45
0.0
 46
0.0
 47
0.0
 48
0.0
 49
0.0
140
0.0
141
0.0
142
1.0
143
1.0
 70
688
 72
0
 73
0
 74
5
  7

 75
16
147
1.0
148
0.0
149
0.0
100
AcDbLayout
  1
Layout1
 70
1
 71
1
 10
0.0
 20
0.0
 11
420.0
 21
297.0
 12
0.0
 22
0.0
 32
0.0
 14
100000000000000000000.0
 24
100000000000000000000.0
 34
100000000000000000000.0
 15
-100000000000000000000.0
 25
-100000000000000000000.0
 35
-100000000000000000000.0
146
0.0
 13
0.0
 23
0.0
 33
0.0
 16
1.0
 26
0.0
 36
0.0
 17
0.0
 27
1.0
 37
0.0
 76
0
330
1B
  0
LAYOUT
  5
22
100
AcDbPlotSettings
  1

  2
C:\Program Files\AutoCAD 2002\plotters\DWF ePlot (optimized for plotting).pc3
  4

  6

 40
0.0
 41
0.0
 42
0.0
 43
0.0
 44
0.0
 45
0.0
 46
0.0
 47
0.0
 48
0.0
 49
0.0
140
0.0
141
0.0
142
1.0
143
1.0
 70
1712
 72
0
 73
0
 74
0
  7

 75
0
147
1.0
148
0.0
149
0.0
100
AcDbLayout
  1
Model
 70
1
 71
0
 10
0.0
 20
0.0
 11
12.0
 21
9.0
 12
0.0
 22
0.0
 32
0.0
 14
0.0
 24
0.0
 34
0.0
 15
0.0
 25
0.0
 35
0.0
146
0.0
 13
0.0
 23
0.0
 33
0.0
 16
1.0
 26
0.0
 36
0.0
 17
0.0
 27
1.0
 37
0.0
 76
0
330
1F
  0
LAYOUT
  5
26
100
AcDbPlotSettings
  1

  2
C:\Program Files\AutoCAD 2002\plotters\DWF ePlot (optimized for plotting).pc3
  4

  6

 40
0.0
 41
0.0
 42
0.0
 43
0.0
 44
0.0
 45
0.0
 46
0.0
 47
0.0
 48
0.0
 49
0.0
140
0.0
141
0.0
142
1.0
143
1.0
 70
688
 72
0
 73
0
 74
5
  7

 75
16
147
1.0
148
0.0
149
0.0
100
AcDbLayout
  1
Layout2
 70
1
 71
2
 10
0.0
 20
0.0
 11
12.0
 21
9.0
 12
0.0
 22
0.0
 32
0.0
 14
0.0
 24
0.0
 34
0.0
 15
0.0
 25
0.0
 35
0.0
146
0.0
 13
0.0
 23
0.0
 33
0.0
 16
1.0
 26
0.0
 36
0.0
 17
0.0
 27
1.0
 37
0.0
 76
0
330
23
  0
DICTIONARY
  5
36B
100
AcDbDictionary
281
1
  3
DIMASSOC
350
36D
  3
HIDETEXT
350
36C
  0
DICTIONARYVAR
  5
36C
100
DictionaryVariables
280
0
  1
2
  0
DICTIONARYVAR
  5
36D
100
DictionaryVariables
280
0
  1
1
  0
ENDSEC
  0
EOF
